<svg xmlns="http://www.w3.org/2000/svg" width="2740" height="630" viewBox="0 0 2740 630" version="1.1"><path d="M 393.384 19.999 C 393.763 22.370, 394.308 24.690, 394.596 25.155 C 394.883 25.620, 398.776 26, 403.246 26 L 411.374 26 408.544 23.046 C 405.389 19.753, 400.794 17.309, 395.927 16.335 L 392.695 15.689 393.384 19.999 M 2351 28.481 C 2351 30.868, 2351.289 31, 2356.500 31 C 2359.525 31, 2362 30.605, 2362 30.121 C 2362 29.175, 2358.189 27.531, 2353.750 26.562 C 2351.319 26.032, 2351 26.254, 2351 28.481 M 997.006 30.731 C 997.009 31.704, 997.444 34.075, 997.972 36 C 998.795 38.996, 1029.899 309.978, 1030.056 315.514 C 1030.111 317.459, 1036.633 295.571, 1041.454 277.264 L 1043.886 268.028 1031.462 158.764 C 1024.629 98.669, 1018.576 47.874, 1018.010 45.888 C 1015.735 37.895, 1008.714 31.627, 999.750 29.588 C 997.549 29.087, 997.001 29.315, 997.006 30.731 M 150.107 34.632 C 150.911 37.910, 156.922 141.792, 156.980 153.427 C 156.999 157.211, 157.168 157.010, 161.593 147.927 C 164.119 142.742, 168.212 134.083, 170.689 128.685 L 175.192 118.870 173.572 86.685 C 172.681 68.983, 171.478 52.128, 170.900 49.229 C 169.066 40.028, 161.705 32.800, 152.677 31.335 L 149.157 30.764 150.107 34.632 M 2716.549 43.731 C 2716.933 47.122, 2716.733 51.277, 2716.068 53.747 C 2715.434 56.100, 2689.238 100.232, 2656.885 153.448 L 2598.839 248.927 2659.347 405.233 C 2692.627 491.201, 2720.396 563.688, 2721.057 566.314 C 2724.249 578.989, 2718.030 589.189, 2705.500 591.834 C 2702.503 592.466, 2675.059 593.149, 2637 593.538 C 2602.075 593.894, 2573.336 594.346, 2573.136 594.540 C 2572.343 595.312, 2577.372 602.178, 2580.345 604.383 C 2586.649 609.060, 2587.499 609.123, 2642.500 609.012 C 2671.100 608.954, 2701.782 608.538, 2710.683 608.088 C 2725.583 607.334, 2727.222 607.060, 2731.367 604.631 C 2739.069 600.117, 2740 597.970, 2740 584.716 L 2740 573.241 2680.321 419.370 C 2647.498 334.742, 2620.613 264.375, 2620.577 263 C 2620.534 261.383, 2640.795 227.161, 2677.937 166.117 C 2717.560 100.992, 2735.788 70.147, 2736.737 66.617 C 2740.173 53.831, 2732.363 41.690, 2718.697 38.574 L 2715.893 37.935 2716.549 43.731 M 1613.157 40.309 C 1613.792 43.103, 1683.497 246.817, 1683.740 246.584 C 1683.871 246.458, 1684.439 240.537, 1685.001 233.427 C 1685.563 226.317, 1686.220 218.025, 1686.461 215 C 1686.868 209.895, 1684.988 203.892, 1660.323 131.500 C 1645.707 88.600, 1632.844 51.998, 1631.738 50.163 C 1628.191 44.271, 1623.484 41.052, 1616.157 39.506 C 1613.466 38.938, 1612.882 39.094, 1613.157 40.309 M 2472.329 43.368 C 2473.087 45.485, 2473.621 66.049, 2473.975 106.823 L 2474.500 167.146 2484.245 148.823 L 2493.991 130.500 2493.972 96 C 2493.961 77.025, 2493.555 59.789, 2493.070 57.699 C 2491.224 49.746, 2485.121 43.906, 2476.195 41.551 L 2471.207 40.236 2472.329 43.368 M 2606.250 48.747 C 2613.262 48.919, 2624.738 48.919, 2631.750 48.747 C 2638.762 48.575, 2633.025 48.435, 2619 48.435 C 2604.975 48.435, 2599.238 48.575, 2606.250 48.747 M 2400.191 50.747 C 2407.171 50.918, 2418.871 50.919, 2426.191 50.748 C 2433.511 50.577, 2427.800 50.436, 2413.500 50.436 C 2399.200 50.435, 2393.211 50.575, 2400.191 50.747 M 1834.516 58.258 C 1834.896 60.591, 1835.503 62.821, 1835.866 63.213 C 1836.229 63.605, 1838.264 62.286, 1840.388 60.281 C 1844.626 56.283, 1844.507 56.074, 1837.163 54.659 L 1833.827 54.015 1834.516 58.258 M 312.500 182.641 C 298.750 208.153, 287.355 229.692, 287.178 230.508 C 286.899 231.789, 338.791 349.202, 342.640 356 C 343.894 358.214, 344.013 356.554, 343.687 341.500 L 343.318 324.500 325.659 285.218 C 315.947 263.613, 308 245.191, 308 244.280 C 308 243.369, 314.975 229.714, 323.500 213.937 L 339 185.250 338.877 170.875 C 338.810 162.969, 338.473 151.945, 338.127 146.379 L 337.500 136.257 312.500 182.641 M 2249.500 170.891 L 2185.500 173.500 2185.188 187.500 C 2185.017 195.200, 2185.169 204.778, 2185.527 208.785 L 2186.177 216.070 2195.839 215.785 L 2205.500 215.500 2205.142 202.250 C 2204.946 194.963, 2205.171 188.998, 2205.642 188.995 C 2206.114 188.992, 2234.147 187.869, 2267.938 186.499 C 2313.854 184.637, 2329.578 183.691, 2330.173 182.754 C 2330.611 182.064, 2330.976 178.463, 2330.985 174.750 L 2331 168 2322.250 168.141 C 2317.438 168.219, 2284.700 169.456, 2249.500 170.891 M 535 173.392 L 483.500 175.500 483.188 189.500 C 483.017 197.200, 483.169 206.778, 483.527 210.785 L 484.177 218.070 493.839 217.785 L 503.500 217.500 503.142 204.250 C 502.854 193.585, 503.049 190.997, 504.142 190.986 C 504.889 190.979, 527.100 190.083, 553.500 188.995 C 579.900 187.907, 602.513 187.013, 603.750 187.008 C 605.895 187, 606 186.627, 606 179 L 606 171 596.250 171.142 C 590.888 171.220, 563.325 172.232, 535 173.392 M 1460.500 178.761 C 1456.650 178.961, 1422.900 180.334, 1385.500 181.812 L 1317.500 184.500 1317.188 198.500 C 1317.017 206.200, 1317.169 215.778, 1317.527 219.785 L 1318.177 227.070 1327.839 226.785 L 1337.500 226.500 1337.148 213.367 L 1336.795 200.233 1348.648 199.601 C 1355.166 199.254, 1384.125 198.044, 1413 196.912 C 1441.875 195.781, 1465.782 194.550, 1466.126 194.178 C 1466.736 193.518, 1468.374 177.802, 1467.792 178.199 C 1467.631 178.308, 1464.350 178.561, 1460.500 178.761 M 1933.500 187.347 C 1918.297 195.767, 1904.875 220.739, 1898.515 252.442 C 1889.179 298.971, 1886.291 373.803, 1892.627 405 C 1894.819 415.796, 1901.568 429.490, 1907.268 434.708 C 1911.922 438.969, 1917.685 442, 1921.131 442 C 1922.846 442, 1922.751 441.524, 1920.081 436.750 C 1911.708 421.780, 1909.535 404.573, 1910.321 359.500 C 1911.004 320.348, 1913.595 292.437, 1919.121 264.696 C 1923.507 242.681, 1933.010 221.339, 1943.347 210.288 C 1951.059 202.044, 1955.608 199.653, 1963.745 199.566 C 1967.179 199.530, 1969.992 199.143, 1969.995 198.707 C 1970.006 197.065, 1960.399 187.734, 1956.814 185.905 C 1954.217 184.580, 1951.013 184.004, 1946.290 184.012 C 1940.482 184.022, 1938.632 184.504, 1933.500 187.347 M 761.649 211.828 C 757.887 223.748, 752.714 240.137, 750.154 248.250 L 745.500 263 712.601 263 L 679.702 263 686.101 267.790 C 689.620 270.424, 701.163 278.821, 711.750 286.450 C 722.337 294.079, 731 300.826, 731 301.443 C 731 302.060, 727.574 313.125, 723.386 326.032 C 719.199 338.940, 713.181 357.488, 710.013 367.250 C 706.845 377.012, 704.421 385, 704.626 385 C 704.831 385, 717.637 374.200, 733.083 361 C 748.529 347.800, 760.560 337, 759.820 337 C 758.023 337, 749.689 342.683, 743.500 348.129 C 732.808 357.537, 726.954 362.150, 726.109 361.832 C 725.232 361.501, 727.612 352.703, 734.414 331.129 C 736.419 324.770, 737.990 317.717, 737.978 315.129 C 737.936 306.252, 732.095 297.737, 720.251 289.285 C 710.900 282.612, 711.641 281.670, 726.942 280.768 C 741.213 279.927, 744.827 278.969, 749.624 274.757 C 754.458 270.513, 757.279 265.209, 761.465 252.500 C 765.576 240.016, 767.717 235, 768.934 235 C 769.898 235, 773.365 243.295, 778.092 256.907 C 784.982 276.750, 791.840 280.755, 819.250 280.946 C 823.513 280.976, 826.995 281.337, 826.990 281.750 C 826.984 282.163, 824.173 284.525, 820.743 287 C 811.694 293.529, 806.206 298.793, 803.327 303.705 C 799.371 310.455, 800.204 320.267, 806.366 339.500 C 809.009 347.750, 811.792 355.945, 812.552 357.712 C 813.311 359.479, 813.541 361.166, 813.064 361.461 C 812.587 361.756, 807.229 357.966, 801.158 353.040 C 787.137 341.662, 780.279 336.737, 779.050 337.163 C 778.271 337.434, 826.834 379.324, 832.988 383.689 C 834.123 384.494, 830.152 371.259, 820.706 342.751 C 807.001 301.392, 806.782 300.595, 808.734 299.062 C 809.827 298.203, 816.269 293.450, 823.049 288.500 C 848.544 269.885, 856.511 263.838, 856.868 262.829 C 857.122 262.114, 847.223 262.020, 825.157 262.527 L 793.078 263.265 792.079 260.882 C 791.530 259.572, 786.110 243.235, 780.034 224.577 C 773.959 205.920, 768.876 190.542, 768.739 190.405 C 768.602 190.268, 765.411 199.909, 761.649 211.828 M 2023.507 256.079 C 2013.611 258.786, 2004.274 261, 2002.757 261 C 1999.286 261, 1999.305 261.741, 2002.904 266.709 C 2006.436 271.584, 2011.034 274.551, 2017.201 275.933 C 2021.181 276.825, 2023.369 276.578, 2032.668 274.186 L 2043.500 271.400 2043.824 266.450 C 2044.203 260.678, 2043.162 250.964, 2042.178 251.079 C 2041.805 251.122, 2033.403 253.372, 2023.507 256.079 M 1129.001 435.579 C 1103.427 514.704, 1081.591 580.795, 1080.477 582.448 C 1077.471 586.908, 1072.549 589.788, 1066.674 590.521 C 1063.605 590.905, 1038.577 589.512, 1006.001 587.144 C 975.504 584.928, 950.439 583.228, 950.300 583.367 C 950.161 583.506, 950.870 585.168, 951.876 587.060 C 954.533 592.060, 961.051 596.667, 967.229 597.911 C 970.128 598.496, 997.283 600.765, 1027.573 602.955 C 1070.437 606.054, 1083.517 606.700, 1086.573 605.870 C 1092.735 604.197, 1097.752 600.973, 1100.384 596.996 C 1101.815 594.834, 1118.179 545.802, 1140.460 476.921 L 1178.118 360.500 1177.432 332.500 C 1177.054 317.100, 1176.465 301.624, 1176.123 298.108 L 1175.500 291.716 1129.001 435.579 M 2262.500 361.064 C 2226.200 362.601, 2194.998 363.890, 2193.162 363.929 L 2189.824 364 2190.433 384.250 C 2190.768 395.387, 2191.302 409.563, 2191.620 415.750 L 2192.197 427 2195.952 427 C 2198.017 427, 2202.453 426.713, 2205.809 426.362 L 2211.912 425.724 2211.297 402.362 L 2210.683 379 2214.591 379.023 C 2216.741 379.036, 2243.475 378.072, 2274 376.880 C 2311.218 375.428, 2329.742 374.350, 2330.235 373.607 C 2331.565 371.602, 2331.138 357.985, 2329.750 358.135 C 2329.063 358.209, 2298.800 359.527, 2262.500 361.064 M 536 364.055 C 513.725 365.026, 493.773 365.861, 491.662 365.911 L 487.824 366 488.433 386.250 C 488.768 397.387, 489.302 411.563, 489.620 417.750 L 490.197 429 493.952 429 C 496.017 429, 500.453 428.713, 503.809 428.362 L 509.912 427.724 509.297 404.362 L 508.683 381 514.091 381.002 C 520.005 381.005, 598.423 377.896, 598.624 377.651 C 598.692 377.568, 598.962 374.012, 599.224 369.750 L 599.700 362 588.100 362.144 C 581.720 362.224, 558.275 363.083, 536 364.055 M 1382.500 372.554 C 1353.350 373.805, 1327.773 374.868, 1325.662 374.915 L 1321.824 375 1322.433 395.250 C 1322.768 406.387, 1323.302 420.563, 1323.620 426.750 L 1324.197 438 1327.952 438 C 1330.017 438, 1334.453 437.713, 1337.809 437.362 L 1343.912 436.724 1343.297 413.362 L 1342.683 390 1349.091 389.981 C 1352.616 389.971, 1376.837 389.089, 1402.916 388.022 C 1438.847 386.552, 1450.530 385.769, 1451.150 384.791 C 1451.601 384.081, 1451.982 381.475, 1451.998 379 C 1452.014 376.525, 1452.299 373.488, 1452.630 372.250 C 1453.224 370.033, 1453.102 370.002, 1444.367 370.139 C 1439.490 370.216, 1411.650 371.302, 1382.500 372.554 M 1588.586 389 C 1588.239 392.025, 1584.809 434.550, 1580.963 483.500 C 1576.643 538.476, 1573.405 574.460, 1572.493 577.626 C 1571.462 581.205, 1569.850 583.806, 1567.154 586.242 C 1560.671 592.099, 1557.647 592.369, 1524.500 590.049 C 1498.271 588.214, 1494.974 588.163, 1490 589.513 C 1485.801 590.653, 1451.153 592.331, 1343.500 596.610 C 1265.950 599.692, 1202.336 602.367, 1202.136 602.554 C 1201.344 603.295, 1206.373 610.183, 1209.384 612.479 C 1216.852 618.176, 1210.839 618.180, 1360.500 612.366 C 1464.495 608.326, 1499.619 606.649, 1506.297 605.407 C 1514.512 603.879, 1516.973 603.890, 1543.419 605.573 C 1577.578 607.747, 1580.429 607.413, 1587.426 600.417 C 1591.287 596.555, 1592.071 595.023, 1593.403 588.736 C 1595.352 579.540, 1606.362 440.025, 1605.614 434 C 1605.307 431.525, 1601.492 419.150, 1597.135 406.500 L 1589.215 383.500 1588.586 389 M 184.127 417.274 L 171.754 440.500 174.841 502 C 177.379 552.566, 177.712 564.300, 176.714 568 C 174.063 577.830, 169.363 581.940, 158.500 583.930 C 153.120 584.915, 75.317 589.918, 58.909 590.333 C 52.880 590.486, 52.363 590.668, 52.834 592.472 C 53.118 593.557, 55.454 596.549, 58.025 599.120 C 65.682 606.777, 65.674 606.776, 124.965 603.083 C 152.759 601.351, 177.525 599.477, 180 598.918 C 186.314 597.492, 191.437 593.818, 194.574 588.465 C 198.497 581.770, 198.548 574.748, 195.138 510.500 L 192.166 454.500 200.156 439.514 L 208.146 424.527 202.460 409.264 C 199.332 400.869, 196.712 394.011, 196.637 394.024 C 196.561 394.038, 190.932 404.500, 184.127 417.274 M 2487.130 429.655 L 2474.050 451.500 2473.253 516 C 2472.377 586.815, 2472.697 583.469, 2466.241 589.494 C 2460.595 594.763, 2457.719 595.043, 2402.401 595.703 C 2347.562 596.358, 2344.710 596.168, 2338.531 591.456 C 2335.964 589.498, 2333.528 586.012, 2331.364 581.197 C 2331.181 580.790, 2070.599 591.122, 2070.136 591.555 C 2069.343 592.295, 2074.374 599.184, 2077.384 601.479 C 2084.813 607.146, 2080.491 607.132, 2210.500 601.893 C 2275.950 599.255, 2333.550 597.081, 2338.500 597.061 L 2347.500 597.025 2349.702 600.425 C 2352.871 605.319, 2357.776 608.707, 2364.064 610.344 C 2371.901 612.386, 2466.486 611.568, 2475.500 609.381 C 2482.836 607.602, 2487.679 603.864, 2490.996 597.422 L 2493.500 592.557 2494 528.970 L 2494.500 465.384 2502.746 451.619 L 2510.993 437.853 2506.390 423.677 C 2503.859 415.879, 2501.433 409.120, 2500.999 408.655 C 2500.565 408.190, 2494.324 417.640, 2487.130 429.655 M 911.506 481.203 C 900.602 503.373, 884.985 525.221, 869.892 539.420 C 853.390 554.944, 836.667 563.555, 809.500 570.518 C 783.812 577.102, 779.408 577.361, 719.500 575.817 L 666.500 574.451 663 577.100 C 661.075 578.557, 657.475 580.253, 655 580.868 C 652.444 581.504, 589.586 584.413, 509.500 587.601 C 431.950 590.688, 368.336 593.367, 368.136 593.554 C 367.344 594.295, 372.373 601.183, 375.384 603.479 C 382.854 609.177, 376.833 609.183, 526.500 603.343 C 601.850 600.403, 666.516 597.511, 670.203 596.916 C 674.625 596.203, 678.436 594.822, 681.401 592.858 L 685.896 589.880 724.186 590.940 C 794.424 592.884, 802.131 592.546, 826.154 586.460 C 868.731 575.673, 890.516 559.971, 916.935 521.025 C 921.022 515, 924.013 509.533, 924.032 508.055 C 924.079 504.198, 918.691 468.999, 918.054 469.007 C 917.750 469.011, 914.803 474.500, 911.506 481.203 M 2047.072 547.571 C 2036.489 561.741, 2016.776 579.260, 2001.722 587.873 C 1992.941 592.897, 1982.690 596.756, 1969.635 599.953 C 1952.492 604.151, 1940.951 605.353, 1924.500 604.656 C 1889.684 603.179, 1854.704 593.120, 1831.896 578.026 C 1826.820 574.667, 1826.016 574.351, 1828 576.495 C 1834.049 583.034, 1852.811 596.385, 1863.500 601.756 C 1877.271 608.677, 1901.967 615.672, 1922.942 618.594 C 1940.438 621.031, 1968.746 620.100, 1983.500 616.602 C 2010.150 610.284, 2025.023 602.680, 2046.352 584.471 C 2053.813 578.101, 2054.167 577.611, 2053.472 574.634 C 2053.069 572.910, 2052.461 564.782, 2052.120 556.571 L 2051.500 541.641 2047.072 547.571 M 1797.943 546 C 1797.899 546.275, 1797.027 556.175, 1796.006 568 C 1794.984 579.825, 1793.641 591.196, 1793.022 593.269 C 1791.374 598.783, 1786.006 603.652, 1779.484 605.548 C 1774.297 607.055, 1771.380 606.971, 1728.242 604.071 C 1703.084 602.379, 1680.539 600.736, 1678.143 600.420 L 1673.785 599.845 1676.143 604.082 C 1679.187 609.553, 1684.774 613.571, 1691.278 614.966 C 1696.161 616.013, 1774.745 621.831, 1788.233 622.144 C 1797.242 622.353, 1802.663 620.388, 1808.148 614.927 C 1813.739 609.361, 1814.427 606.728, 1816.371 583.500 L 1817.711 567.500 1810.562 560 C 1806.630 555.875, 1802.200 550.925, 1800.717 549 C 1799.235 547.075, 1797.986 545.725, 1797.943 546 M 309 575.110 C 293.875 576.125, 280.488 576.731, 279.250 576.458 C 278.012 576.185, 277 576.261, 277 576.626 C 277 578.537, 282.708 585.894, 285.725 587.872 C 292.289 592.174, 297.303 592.507, 327.620 590.654 C 342.954 589.717, 356.053 588.962, 356.728 588.975 C 357.449 588.990, 356.769 587.129, 355.084 584.471 C 353.504 581.980, 351.919 578.380, 351.561 576.471 L 350.909 573 343.705 573.133 C 339.742 573.207, 324.125 574.096, 309 575.110" stroke="none" fill="#906116" fill-rule="evenodd"/><path d="M 305.271 29.442 C 268.845 31.743, 238.814 33.852, 238.536 34.131 C 238.258 34.409, 218.921 74.814, 195.566 123.919 L 153.103 213.201 154.020 228.851 C 154.525 237.458, 154.951 246.727, 154.969 249.450 C 154.987 252.300, 155.367 253.997, 155.864 253.450 C 156.340 252.927, 178.205 207.275, 204.454 152 C 230.703 96.725, 252.251 51.431, 252.340 51.347 C 252.428 51.263, 276.800 49.759, 306.500 48.006 C 336.200 46.252, 361.457 44.443, 362.627 43.986 C 363.887 43.494, 366.638 39.614, 369.377 34.465 C 374.547 24.745, 374.473 24.951, 372.750 25.130 C 372.063 25.202, 341.697 27.142, 305.271 29.442 M 631.589 38.250 C 631.261 43.337, 627.182 157.975, 622.525 293 C 617.868 428.025, 613.888 541.762, 613.679 545.750 L 613.300 553 620.456 553 L 627.611 553 629.362 501.750 C 630.324 473.563, 631.522 438.125, 632.024 423 C 632.525 407.875, 632.950 360.461, 632.967 317.635 L 633 239.771 636.424 221.635 L 639.849 203.500 642.547 125.500 C 644.032 82.600, 645.528 47.189, 645.873 46.809 C 646.991 45.577, 803.382 49.852, 816.568 51.474 C 842.803 54.703, 862.580 63.279, 878.890 78.500 C 886.517 85.617, 885.661 83.399, 876.762 72.984 C 857.937 50.952, 837.450 39.526, 807.576 34.397 C 800.378 33.161, 675.468 29.099, 642.343 29.023 L 632.187 29 631.589 38.250 M 872.118 33.265 C 872.396 38.519, 873.858 41.009, 879.936 46.590 C 883.476 49.841, 886.077 51.712, 885.717 50.750 C 884.867 48.477, 883.062 48.421, 936.314 52.333 L 980.129 55.552 979.454 48.026 C 979.083 43.887, 978.434 40.128, 978.012 39.673 C 977.591 39.218, 956.153 37.336, 930.373 35.491 C 904.593 33.646, 880.913 31.887, 877.750 31.583 C 872.276 31.057, 872.006 31.138, 872.118 33.265 M 2192 41.061 C 2127.375 43.709, 2070.787 45.903, 2066.250 45.938 L 2058 46 2058 55.441 C 2058 61.060, 2058.433 65.149, 2059.069 65.542 C 2059.656 65.906, 2062.856 69.624, 2066.180 73.807 L 2072.222 81.411 2071.861 72.825 L 2071.500 64.239 2081.500 63.636 C 2087 63.305, 2145.725 60.935, 2212 58.370 C 2278.275 55.804, 2332.640 53.594, 2332.811 53.459 C 2332.982 53.323, 2332.807 49.339, 2332.423 44.606 L 2331.725 36 2320.612 36.124 C 2314.501 36.192, 2256.625 38.414, 2192 41.061 M 502 42.554 C 443.975 44.923, 394.068 47.005, 391.096 47.180 L 385.693 47.500 380.711 56.839 L 375.729 66.178 381.114 65.614 C 384.076 65.304, 436.450 63.162, 497.500 60.854 C 558.550 58.545, 608.788 56.396, 609.141 56.078 C 609.493 55.760, 610.096 51.563, 610.481 46.750 C 611.128 38.642, 611.045 38.009, 609.340 38.124 C 608.328 38.192, 560.025 40.186, 502 42.554 M 79 43.380 L 29.500 46.506 29.632 54.503 C 29.705 58.901, 35.552 176.687, 42.625 316.250 L 55.486 570 61.743 570 L 68 570 67.944 566.750 C 67.914 564.962, 62.144 451.450, 55.123 314.500 C 48.103 177.550, 42.617 65.183, 42.934 64.796 C 43.250 64.408, 63.307 62.884, 87.504 61.407 C 111.702 59.931, 131.590 58.659, 131.699 58.579 C 131.809 58.500, 131.630 54.287, 131.301 49.218 C 130.925 43.407, 130.297 40.047, 129.602 40.127 C 128.996 40.196, 106.225 41.660, 79 43.380 M 1499 43.403 C 1499 44.254, 1494.689 98.849, 1489.420 164.725 L 1479.840 284.500 1480.461 316.646 C 1481.137 351.672, 1480.784 355.254, 1475.950 362.467 C 1473.315 366.398, 1473.192 367.256, 1471.076 396.500 C 1469.882 413, 1468.666 427.738, 1468.373 429.250 L 1467.841 432 1475.421 432 C 1479.589 432, 1483.034 431.887, 1483.075 431.750 C 1483.117 431.613, 1489.796 348.133, 1497.919 246.240 C 1506.041 144.347, 1512.965 60.702, 1513.306 60.361 C 1513.647 60.020, 1533.180 61.076, 1556.713 62.707 C 1580.246 64.338, 1599.669 65.540, 1599.875 65.378 C 1600.081 65.216, 1598.964 61.466, 1597.392 57.044 C 1594.776 49.681, 1594.281 48.965, 1591.518 48.543 C 1589.858 48.289, 1570.725 46.939, 1549 45.543 C 1527.275 44.146, 1507.138 42.746, 1504.250 42.430 C 1499.931 41.958, 1499 42.131, 1499 43.403 M 1933.500 42.603 C 1897.450 46.259, 1872.293 57.929, 1846.784 82.827 C 1839.459 89.977, 1834.711 95.431, 1834.115 97.381 C 1833.590 99.097, 1832.653 107.925, 1832.032 117 C 1831.411 126.075, 1830.644 134.832, 1830.326 136.460 C 1829.913 138.580, 1831.665 136.593, 1836.499 129.460 C 1854.573 102.794, 1873.316 85.724, 1897.460 73.942 C 1919.132 63.366, 1938.742 59.399, 1965 60.279 C 1973.525 60.565, 1984.331 61.503, 1989.013 62.363 C 2014.737 67.090, 2036.664 77.226, 2051.925 91.445 L 2057.351 96.500 2054.287 92 C 2038.050 68.149, 2008.848 50.701, 1975.675 45.030 C 1964.427 43.107, 1941.523 41.789, 1933.500 42.603 M 1316 52.275 C 1246.975 55.038, 1190.374 57.395, 1190.219 57.513 C 1189.901 57.757, 1204.969 581.302, 1205.304 581.637 C 1205.423 581.756, 1208.328 581.599, 1211.760 581.288 L 1218 580.722 1217.937 575.611 C 1217.902 572.800, 1214.611 459.125, 1210.624 323 C 1206.637 186.875, 1203.451 75.377, 1203.543 75.228 C 1203.636 75.078, 1262.389 72.648, 1334.106 69.829 C 1405.823 67.010, 1464.640 64.592, 1464.811 64.457 C 1464.982 64.322, 1464.807 60.339, 1464.423 55.606 L 1463.725 47 1452.612 47.126 C 1446.501 47.195, 1385.025 49.512, 1316 52.275 M 2602.932 48.750 L 2561.365 49.022 2514.662 135.472 L 2467.960 221.922 2468.230 243.018 L 2468.500 264.114 2521 166.918 C 2549.875 113.460, 2573.958 69.090, 2574.519 68.317 C 2575.362 67.153, 2585.029 66.806, 2630.885 66.294 L 2686.233 65.675 2689.433 60.587 C 2691.194 57.789, 2693.653 53.813, 2694.898 51.750 L 2697.163 48 2670.832 48.239 C 2656.349 48.370, 2625.795 48.600, 2602.932 48.750 M 1078.578 219.993 L 1030.661 389.986 1032.968 411.243 C 1034.237 422.934, 1035.551 433.244, 1035.888 434.154 C 1036.224 435.063, 1059.890 352.790, 1088.478 251.324 L 1140.457 66.841 1144.478 67.375 C 1146.690 67.669, 1153.225 68.200, 1159 68.556 L 1169.500 69.202 1169.500 61.125 L 1169.500 53.047 1165.500 52.538 C 1160.048 51.845, 1134.201 50, 1129.942 50 L 1126.496 50 1078.578 219.993 M 2396.289 50.750 L 2353.077 51.021 2353.532 57.261 C 2353.782 60.692, 2354.479 82.030, 2355.081 104.679 C 2356.210 147.157, 2355.794 155.266, 2352.338 158.134 C 2351.233 159.051, 2351 182.035, 2351 290.103 L 2351 420.962 2353.750 421.621 C 2357.352 422.485, 2361.416 424.559, 2363.405 426.548 C 2364.865 428.008, 2365 412.945, 2365 248.732 L 2365 69.322 2392.750 68.663 C 2408.012 68.300, 2427.813 68.003, 2436.750 68.002 L 2453 68 2453 59 L 2453 50 2446.250 50.239 C 2442.537 50.371, 2420.055 50.600, 2396.289 50.750 M 1719.550 58.264 C 1719.344 58.944, 1714.423 119.849, 1708.616 193.608 L 1698.058 327.717 1703.907 345.108 C 1708.292 358.143, 1709.897 361.874, 1710.315 360 C 1710.621 358.625, 1715.860 294.078, 1721.957 216.563 C 1728.053 139.047, 1733.226 75.441, 1733.451 75.215 C 1733.677 74.990, 1751.680 76.037, 1773.459 77.541 C 1795.238 79.046, 1813.374 79.959, 1813.762 79.571 C 1814.150 79.183, 1814.635 75.559, 1814.839 71.518 L 1815.210 64.170 1809.855 63.573 C 1806.910 63.245, 1787.400 61.864, 1766.500 60.505 C 1745.600 59.146, 1726.571 57.808, 1724.213 57.531 C 1721.308 57.190, 1719.805 57.426, 1719.550 58.264 M 363.420 88.809 L 357.340 100.500 361.781 254.500 L 366.222 408.500 372.861 423.469 C 376.881 432.533, 379.618 437.625, 379.799 436.375 C 380.090 434.371, 370.248 85.196, 369.749 79.809 C 369.549 77.647, 368.303 79.419, 363.420 88.809 M 1994.628 202.330 C 1997.925 210.541, 2001.143 223.955, 2002.526 235.250 C 2002.914 238.412, 2003.322 241, 2003.434 241 C 2003.546 241, 2005.938 240.317, 2008.750 239.482 L 2013.862 237.963 2011.889 230.732 C 2009.340 221.393, 2004.086 210.276, 1998.563 202.536 C 1991.846 193.123, 1990.912 193.074, 1994.628 202.330 M 2246.500 234.557 C 2216.800 235.818, 2189.688 236.884, 2186.250 236.925 L 2180 237 2180 246.156 L 2180 255.311 2194.250 254.719 C 2202.088 254.393, 2234.938 253.106, 2267.250 251.859 L 2326 249.593 2325.986 243.046 C 2325.962 231.416, 2326.651 231.979, 2312.633 232.132 C 2305.960 232.205, 2276.200 233.296, 2246.500 234.557 M 544.500 236.557 C 514.800 237.818, 487.688 238.884, 484.250 238.925 L 478 239 478 248 L 478 257 484.750 256.941 C 498.966 256.817, 601.921 252.412, 602.427 251.906 C 602.720 251.613, 603.260 247.465, 603.627 242.687 L 604.295 234 601.398 234.132 C 599.804 234.205, 574.200 235.296, 544.500 236.557 M 2069.250 243.709 L 2064 245.256 2064.062 254.878 C 2064.208 277.714, 2067.637 380.604, 2068.286 381.655 C 2069.078 382.935, 2080.012 389.322, 2080.528 388.805 C 2080.707 388.626, 2079.998 359.909, 2078.952 324.990 C 2077.905 290.070, 2077.038 257.113, 2077.025 251.750 C 2076.997 240.872, 2077.413 241.303, 2069.250 243.709 M 1378.500 245.557 C 1348.800 246.818, 1321.688 247.884, 1318.250 247.925 L 1312 248 1312 257.156 L 1312 266.311 1326.250 265.719 C 1334.088 265.393, 1366.938 264.106, 1399.250 262.859 L 1458 260.593 1457.986 254.046 C 1457.962 242.416, 1458.651 242.979, 1444.633 243.132 C 1437.960 243.205, 1408.200 244.296, 1378.500 245.557 M 1589.844 312.750 C 1589.759 316.462, 1589.767 320.400, 1589.862 321.500 C 1589.957 322.600, 1609.761 381.100, 1633.870 451.500 L 1677.705 579.499 1681.602 580.144 C 1683.746 580.499, 1685.532 580.724, 1685.570 580.645 C 1685.923 579.918, 1591.406 306, 1590.803 306 C 1590.361 306, 1589.930 309.038, 1589.844 312.750 M 211.585 367.811 L 209.858 371.642 245.110 463.821 L 280.363 556 283.789 556 C 286.646 556, 287.100 555.710, 286.528 554.250 C 286.150 553.288, 269.656 510.217, 249.875 458.538 C 230.093 406.858, 213.775 364.441, 213.611 364.277 C 213.447 364.114, 212.535 365.704, 211.585 367.811 M 1994.019 378.750 C 1985.603 411.473, 1973.441 437.717, 1961.378 449.187 C 1946.075 463.739, 1922.359 467.061, 1903.731 457.263 C 1900.854 455.750, 1898.091 454.335, 1897.590 454.119 C 1897.090 453.903, 1898.616 456.487, 1900.982 459.859 C 1906.308 467.452, 1911.909 472.115, 1920.709 476.283 C 1927.317 479.413, 1927.865 479.500, 1941.054 479.500 L 1954.607 479.500 1962.099 475.796 C 1966.220 473.760, 1971.914 469.866, 1974.753 467.144 C 1987.587 454.839, 1999.090 430.265, 2007.537 397.109 C 2009.413 389.744, 2011.072 383.613, 2011.224 383.484 C 2011.376 383.355, 2026.938 392.033, 2045.806 402.769 C 2065.407 413.921, 2080.471 421.905, 2080.951 421.394 C 2081.412 420.902, 2082.084 419.100, 2082.444 417.388 L 2083.098 414.276 2040.558 390.138 C 2017.161 376.862, 1997.856 366, 1997.658 366 C 1997.460 366, 1995.823 371.738, 1994.019 378.750 M 2517.373 381.758 L 2515.247 385.500 2545.721 479.500 C 2562.482 531.200, 2576.352 573.663, 2576.543 573.862 C 2576.735 574.061, 2578.431 573.836, 2580.313 573.362 L 2583.734 572.500 2552.194 475.250 C 2534.846 421.762, 2520.394 378.003, 2520.077 378.008 C 2519.759 378.012, 2518.543 379.699, 2517.373 381.758 M 938.078 399.500 C 938.022 400.600, 936.699 406.900, 935.138 413.500 L 932.300 425.500 942.859 494.168 L 953.418 562.835 958.459 563.228 C 961.231 563.445, 963.665 563.504, 963.867 563.360 C 964.332 563.030, 940.153 404.551, 939.019 400.500 C 938.448 398.456, 938.148 398.138, 938.078 399.500 M 2264.500 444.543 C 2221.600 446.346, 2186.387 447.861, 2186.250 447.910 C 2186.113 447.960, 2186 452.069, 2186 457.042 L 2186 466.083 2193.250 465.535 C 2197.238 465.233, 2231.550 463.851, 2269.500 462.464 C 2307.450 461.077, 2340.863 459.698, 2343.750 459.399 L 2349 458.856 2349 449.928 L 2349 441 2345.750 441.133 C 2343.963 441.206, 2307.400 442.740, 2264.500 444.543 M 537.500 447.540 C 508.350 448.792, 484.387 449.858, 484.250 449.908 C 484.113 449.959, 484 454.077, 484 459.061 L 484 468.121 490.750 467.567 C 494.462 467.263, 517.750 466.314, 542.500 465.460 C 567.250 464.605, 589.413 463.674, 591.750 463.392 L 596 462.877 596 453.939 L 596 445 593.250 445.131 C 591.737 445.204, 566.650 446.287, 537.500 447.540 M 1396.500 455.543 C 1353.600 457.346, 1318.388 458.861, 1318.250 458.910 C 1318.112 458.960, 1318 463.069, 1318 468.042 L 1318 477.083 1325.250 476.535 C 1329.237 476.233, 1363.550 474.851, 1401.500 473.464 C 1439.450 472.077, 1472.862 470.698, 1475.750 470.399 L 1481 469.856 1481 460.928 L 1481 452 1477.750 452.133 C 1475.963 452.206, 1439.400 453.740, 1396.500 455.543 M 2081.593 487.766 C 2080.545 490.370, 2077.806 496.570, 2075.507 501.545 L 2071.328 510.589 2072.234 540.531 C 2072.731 556.998, 2073.225 570.558, 2073.330 570.663 C 2073.435 570.768, 2076.361 570.596, 2079.832 570.282 L 2086.143 569.709 2085.457 548.105 C 2085.079 536.222, 2084.484 516.720, 2084.135 504.766 L 2083.500 483.031 2081.593 487.766 M 1801 507.096 C 1801 511.878, 1801.597 513.561, 1805.593 520.046 C 1809.954 527.122, 1819.830 541, 1820.505 541 C 1820.679 541, 1818.613 537.063, 1815.915 532.250 C 1813.216 527.438, 1809.123 519, 1806.818 513.500 C 1804.514 508, 1802.262 503.072, 1801.814 502.550 C 1801.366 502.028, 1801 504.073, 1801 507.096" stroke="none" fill="#b4000b" fill-rule="evenodd"/><path d="M 298.534 9.121 C 257.429 11.726, 235.866 13.479, 232.344 14.502 C 228.437 15.638, 226.208 17.089, 223.496 20.260 C 219.940 24.418, 181.302 104.028, 175.347 119.465 C 173.870 123.296, 169.196 133.646, 164.960 142.465 L 157.260 158.500 156.637 152 C 156.295 148.425, 154.877 122.100, 153.486 93.500 C 152.095 64.900, 150.456 39.250, 149.844 36.500 C 147.339 25.244, 142.531 21.158, 130.845 20.355 C 122.111 19.755, 30.650 25.519, 23.614 27.113 C 16.846 28.646, 10.875 34.649, 9.303 41.500 C 8.354 45.633, 10.476 92.002, 21.540 309 C 29.301 461.213, 35.408 573.181, 36.076 575.500 C 38.565 584.151, 44.081 588.828, 52.715 589.609 C 59.961 590.265, 156.067 584.318, 161.500 582.877 C 171.457 580.238, 176.070 574.087, 176.725 562.577 C 176.947 558.685, 175.778 529.625, 174.129 498 L 171.129 440.500 183.788 416.773 C 190.750 403.724, 196.733 393.374, 197.083 393.773 C 197.956 394.769, 209 424.561, 209 425.918 C 209 427.243, 260.609 562.355, 262.489 565.951 C 264.261 569.341, 268.903 573.654, 272 574.788 C 273.375 575.292, 277.200 575.789, 280.500 575.894 C 286.044 576.070, 327.089 573.828, 343.657 572.445 L 350.814 571.847 352.394 577.283 C 353.400 580.743, 355.406 584.286, 357.914 587.029 C 361.219 590.645, 362.639 591.441, 366.724 591.965 C 370.652 592.468, 612.773 583.498, 644 581.692 C 654.193 581.102, 658.922 579.778, 662.957 576.383 L 665.976 573.843 705.370 574.921 C 758.663 576.381, 778.780 576.300, 788.500 574.589 C 808.728 571.027, 829.908 564.585, 843.048 557.998 C 868.476 545.252, 893.289 516.878, 911.397 479.840 L 918.564 465.181 921.800 487.840 C 933.477 569.592, 933.512 569.799, 936.449 574.283 C 939.570 579.045, 944.108 581.655, 950.500 582.366 C 953.800 582.732, 980.680 584.786, 1010.232 586.930 C 1071.460 591.372, 1071.433 591.373, 1078.017 584.286 C 1081.303 580.749, 1084.654 570.848, 1129.017 433.574 L 1176.500 286.648 1177.122 306.574 C 1177.464 317.533, 1177.855 334.150, 1177.991 343.500 C 1178.781 397.926, 1184.150 578.413, 1185.145 584 C 1186.436 591.253, 1189.295 595.783, 1194.682 599.112 C 1199.276 601.952, 1194.628 602.045, 1347.105 596.072 C 1489.014 590.513, 1484.961 590.717, 1490.500 588.838 C 1493.923 587.677, 1498.105 587.740, 1519.500 589.274 C 1550.615 591.505, 1559.544 591.255, 1564.261 588.024 C 1568.860 584.872, 1571.604 580.522, 1572.791 574.500 C 1573.333 571.750, 1577.089 527.313, 1581.138 475.750 C 1585.187 424.188, 1588.725 382.004, 1589 382.007 C 1589.606 382.015, 1607 433.215, 1607 434.992 C 1607 437.511, 1659.100 588.426, 1661.070 591.613 C 1664.363 596.942, 1668.308 598.669, 1680 599.898 C 1690.425 600.994, 1760.920 605.876, 1770.500 606.165 C 1777.973 606.391, 1783.575 604.425, 1787.960 600.040 C 1792.885 595.115, 1793.669 591.581, 1795.827 564.574 L 1797.500 543.647 1801.604 549.074 C 1809.829 559.949, 1818.530 568.182, 1829.623 575.587 C 1848.574 588.236, 1863.893 594.367, 1890.676 600.024 C 1903.349 602.700, 1908.329 603.234, 1925 603.701 C 1946.432 604.301, 1952.249 603.706, 1971.500 598.944 C 1999.035 592.133, 2027.032 573.056, 2046.005 548.178 C 2048.981 544.276, 2051.546 541.212, 2051.704 541.371 C 2051.862 541.529, 2052.430 550.073, 2052.966 560.357 C 2053.901 578.296, 2054.048 579.196, 2056.577 582.512 C 2061.579 589.071, 2064.781 590.268, 2077.020 590.158 C 2086.522 590.073, 2305.742 581.693, 2324.627 580.693 L 2331.755 580.316 2333.452 584.165 C 2335.644 589.131, 2340.553 592.823, 2347.203 594.505 C 2354.129 596.257, 2453.254 595.010, 2459.269 593.095 C 2461.342 592.435, 2464.586 590.348, 2466.478 588.455 C 2472.978 581.955, 2473 581.702, 2473 513.394 L 2473 452.150 2486.960 428.889 C 2495.195 415.167, 2501.141 406.217, 2501.458 407.064 C 2504.088 414.078, 2510.998 435.746, 2510.993 436.958 C 2510.977 440.240, 2557.311 581.701, 2559.523 585.127 C 2560.811 587.122, 2563.469 589.745, 2565.430 590.957 C 2568.985 593.154, 2569.130 593.159, 2619.247 593.081 C 2675.550 592.993, 2700.248 592.364, 2707.226 590.843 C 2717.515 588.599, 2723.635 577.473, 2720.616 566.500 C 2719.859 563.750, 2691.995 491.164, 2658.695 405.197 L 2598.150 248.894 2655.774 154.197 C 2687.467 102.114, 2714.239 57.064, 2715.266 54.086 C 2717.051 48.914, 2717.059 48.363, 2715.447 41.782 C 2713.511 33.884, 2710.101 30.290, 2702.757 28.410 C 2697.410 27.042, 2576.895 27.608, 2563.068 29.067 C 2552.676 30.163, 2548.553 32.020, 2544.768 37.311 C 2541.920 41.291, 2495.270 127.529, 2494.416 130.392 C 2494.070 131.551, 2489.223 140.974, 2483.644 151.331 L 2473.500 170.163 2473 107.331 C 2472.725 72.774, 2472.122 43.600, 2471.659 42.500 C 2469.351 37.008, 2468.225 35.629, 2464.037 33.167 L 2459.500 30.500 2405.048 30.441 L 2350.596 30.381 2349.763 26.941 C 2348.552 21.937, 2342.932 17.335, 2336.369 15.973 C 2332.059 15.078, 2304.415 15.875, 2200.230 19.899 C 2128.329 22.676, 2065.265 25.417, 2060.089 25.992 C 2049.756 27.138, 2045.551 29.040, 2041.618 34.345 C 2039.244 37.547, 2036.702 45.709, 2037.617 47.190 C 2038.660 48.877, 2036.230 47.911, 2034.431 45.924 C 2029.277 40.228, 2010.768 32.388, 1991.039 27.544 C 1971.647 22.782, 1961.021 21.671, 1940.246 22.229 C 1921.490 22.734, 1908.877 24.890, 1891.167 30.617 C 1874.291 36.075, 1855.157 47.221, 1843.260 58.525 C 1839.542 62.057, 1836.262 64.959, 1835.971 64.974 C 1835.681 64.988, 1834.628 61.837, 1833.632 57.972 C 1831.525 49.789, 1828.111 46.297, 1820.263 44.295 C 1817.654 43.629, 1794.097 41.629, 1767.913 39.849 C 1713.095 36.123, 1712.059 36.176, 1705.182 43.053 C 1702.749 45.487, 1700.819 48.614, 1700.128 51.245 C 1699.018 55.468, 1688.198 189.617, 1685.952 227 C 1685.308 237.725, 1684.492 247.021, 1684.140 247.658 C 1683.601 248.634, 1662.049 186.436, 1619.833 62.072 C 1609.951 32.962, 1608.834 31.201, 1598.873 29.024 C 1595.918 28.378, 1572.370 26.406, 1546.545 24.640 C 1491.815 20.899, 1492.220 20.875, 1484.810 28.286 L 1479.996 33.099 1476.547 30.468 C 1469.943 25.431, 1470.205 25.430, 1339.732 30.667 L 1218.964 35.514 1174.232 32.214 C 1126.245 28.674, 1120.980 28.742, 1115.026 32.982 C 1113.405 34.136, 1111.143 36.395, 1109.998 38.003 C 1108.087 40.687, 1046.968 254.866, 1044.080 269 C 1042.913 274.710, 1030.209 319.966, 1030.076 318.888 C 1030.034 318.552, 1022.824 255.102, 1014.053 177.888 C 1005.282 100.675, 997.385 35.025, 996.505 32 C 994.369 24.657, 989.954 20.668, 982.239 19.109 C 977.178 18.086, 887.507 11.238, 874.500 10.880 C 871.750 10.805, 867.584 11.269, 865.243 11.912 C 860.173 13.304, 854.162 18.938, 853.335 23.073 C 853.013 24.683, 852.347 26, 851.855 26 C 851.363 26, 848.205 24.881, 844.839 23.513 C 834.556 19.335, 817.927 15.147, 803 12.977 C 791.654 11.327, 633.677 7.718, 627.644 8.970 C 624.086 9.709, 620.898 11.293, 617.771 13.877 L 613.153 17.694 592.326 18.396 C 561.366 19.440, 407.440 26.049, 400.500 26.633 L 394.500 27.138 392.500 19.908 C 390.864 13.994, 389.839 12.148, 386.869 9.761 C 379.643 3.954, 380.044 3.957, 298.534 9.121 M 299.107 29.071 C 265.891 31.169, 238.367 33.249, 237.942 33.693 C 237.516 34.137, 215.917 79.275, 189.944 134 C 163.970 188.725, 142.435 233.825, 142.088 234.222 C 141.740 234.619, 139.262 191.194, 136.580 137.722 C 133.898 84.250, 131.525 40.291, 131.305 40.037 C 130.860 39.519, 29.080 45.586, 28.502 46.165 C 27.979 46.688, 54.649 569.982, 55.228 570.562 C 55.732 571.065, 157.231 565.006, 157.863 564.435 C 158.063 564.254, 156.773 535.395, 154.996 500.303 L 151.765 436.500 175.504 392 C 188.561 367.525, 199.326 347.400, 199.426 347.279 C 199.527 347.157, 217.530 393.957, 239.432 451.279 C 261.335 508.600, 279.596 555.875, 280.012 556.334 C 280.816 557.221, 404.425 549.974, 406.095 548.941 C 406.653 548.596, 376.283 479.570, 335.933 389.477 L 264.786 230.620 266.778 226.560 C 267.874 224.327, 292.672 178.211, 321.885 124.080 C 351.098 69.949, 375 25.512, 375 25.330 C 375 24.544, 355.730 25.494, 299.107 29.071 M 630.688 41.250 C 628.422 89.941, 612.813 552.146, 613.414 552.747 C 614.484 553.818, 750.189 557.150, 770.500 556.604 C 783.952 556.243, 789.692 555.629, 798 553.664 C 812.577 550.215, 829.637 544.002, 838.689 538.846 C 848.105 533.483, 864.624 517.988, 873.420 506.268 C 890.842 483.055, 905.506 451.316, 914.018 418.397 C 927.547 366.080, 932.571 273.056, 925.409 207.500 C 918.541 144.636, 900.579 96.817, 872.819 67.490 C 858.755 52.632, 845.229 43.986, 826.967 38.178 C 809.698 32.687, 802.586 32.151, 718.330 30.004 C 675.524 28.914, 638.431 28.016, 635.902 28.011 L 631.304 28 630.688 41.250 M 871.615 35.154 C 872.247 39.917, 872.860 40.769, 882.911 50.845 C 896.478 64.447, 905.128 76.691, 914.460 95.500 C 924.003 114.736, 928.095 126.024, 934.031 149.500 C 941.215 177.910, 944.772 201.554, 946.966 235.483 C 950.361 287.980, 945.055 367.383, 935.404 408.500 C 933.984 414.550, 932.614 421.525, 932.361 424 C 931.947 428.050, 951.905 562.335, 953.072 563.349 C 953.446 563.674, 1064.323 571.882, 1064.610 571.606 C 1064.671 571.548, 1089.532 494.719, 1119.857 400.875 L 1174.994 230.251 1172.452 144.375 C 1171.053 97.144, 1170.175 57.038, 1170.500 55.250 C 1170.885 53.132, 1170.692 52, 1169.946 52 C 1169.316 52, 1159.340 51.275, 1147.778 50.389 C 1132.611 49.227, 1126.566 49.085, 1126.075 49.878 C 1125.702 50.482, 1102.254 133.079, 1073.969 233.426 C 1045.684 333.773, 1022.379 415.712, 1022.181 415.514 C 1021.982 415.316, 1012.218 330.476, 1000.482 226.982 C 988.746 123.488, 978.999 38.666, 978.822 38.490 C 978.645 38.313, 955.775 36.559, 928 34.591 C 900.225 32.624, 876.025 30.812, 874.223 30.566 L 870.947 30.117 871.615 35.154 M 2186.500 40.542 C 2115.550 43.450, 2057.326 45.868, 2057.113 45.915 C 2056.900 45.962, 2057.041 50.292, 2057.426 55.537 L 2058.126 65.075 2065.529 74.287 C 2088.456 102.820, 2103.591 142.236, 2112.865 197.567 C 2115.350 212.390, 2115.556 215.134, 2114.521 219.588 C 2112.037 230.272, 2108.776 232.344, 2084 238.979 C 2073.275 241.851, 2064.133 244.545, 2063.684 244.966 C 2062.962 245.644, 2064.972 331.462, 2066.579 368.543 L 2067.187 382.586 2080.341 390.040 C 2096.017 398.924, 2100.272 402.798, 2101.925 409.689 C 2103.025 414.273, 2102.816 415.821, 2099.102 430.570 C 2092.260 457.744, 2084.618 479.927, 2075.013 500.500 L 2070.811 509.500 2071.501 540 C 2071.881 556.775, 2072.386 570.699, 2072.622 570.943 C 2073.231 571.570, 2351.846 560.487, 2352.524 559.809 C 2352.957 559.376, 2350.058 440.680, 2349.608 440.443 C 2349.549 440.411, 2310.019 441.956, 2261.765 443.875 C 2213.511 445.794, 2173.705 447.039, 2173.308 446.641 C 2172.531 445.864, 2169.446 346.221, 2170.176 345.491 C 2170.416 345.250, 2206.138 343.642, 2249.557 341.916 C 2292.975 340.191, 2328.669 338.622, 2328.876 338.430 C 2329.456 337.892, 2326.211 231.877, 2325.596 231.263 C 2325.299 230.966, 2289.640 232.131, 2246.354 233.854 C 2203.068 235.576, 2167.393 236.726, 2167.076 236.409 C 2166.399 235.733, 2163.998 155.713, 2164.634 155.050 C 2164.872 154.803, 2203.407 153.085, 2250.268 151.232 C 2297.128 149.380, 2335.646 147.688, 2335.862 147.471 C 2336.244 147.090, 2334.635 85.693, 2333.355 51.750 L 2332.723 35 2324.111 35.127 C 2319.375 35.196, 2257.450 37.633, 2186.500 40.542 M 487.297 42.377 C 426.840 44.840, 385.703 46.903, 385.123 47.500 C 384.588 48.050, 377.969 59.968, 370.413 73.984 L 356.676 99.467 361.143 254.484 L 365.610 409.500 394.713 474.500 C 410.720 510.250, 424.340 541.467, 424.979 543.870 C 427.478 553.264, 421.441 564.292, 412.315 567.004 C 410.217 567.627, 402.650 568.571, 395.500 569.102 C 373.225 570.755, 370 571.132, 370 572.080 C 370 573.468, 378.907 573.217, 492 568.643 C 581.648 565.018, 596.447 564.210, 596.129 562.958 C 595.926 562.156, 595.225 559.475, 594.573 557 C 593.640 553.458, 593.757 542.495, 595.122 505.500 C 596.075 479.650, 596.888 455.350, 596.928 451.500 L 597.001 444.500 534.505 446.922 C 500.133 448.253, 471.689 449.023, 471.297 448.631 C 470.529 447.863, 467.451 348.216, 468.173 347.494 C 468.412 347.255, 498.283 345.875, 534.554 344.427 C 570.824 342.980, 600.574 341.729, 600.665 341.648 C 600.847 341.485, 604.779 233.534, 604.607 233.445 C 604.548 233.414, 573.255 234.644, 535.067 236.178 C 496.878 237.712, 465.378 238.712, 465.067 238.400 C 464.398 237.732, 462.003 157.708, 462.632 157.053 C 462.868 156.807, 495.549 155.317, 535.258 153.742 C 574.967 152.167, 607.513 150.793, 607.583 150.689 C 607.653 150.585, 608.563 125.187, 609.605 94.249 L 611.500 37.998 600 38.126 C 593.675 38.197, 542.959 40.110, 487.297 42.377 M 1498.512 42.364 C 1498.326 42.989, 1493.823 98.807, 1488.505 166.405 L 1478.836 289.310 1479.540 319.405 C 1480.302 351.973, 1479.941 355.588, 1475.335 361.628 C 1472.942 364.765, 1472.738 366.236, 1470.140 399.054 L 1467.435 433.216 1473.968 432.601 C 1487.532 431.326, 1496.723 436.474, 1499.470 446.886 C 1500.468 450.671, 1501.336 468.578, 1502.545 510.330 C 1503.472 542.323, 1504.304 568.589, 1504.395 568.697 C 1504.908 569.307, 1553.161 572.173, 1553.708 571.625 C 1554.070 571.263, 1559.378 507.756, 1565.502 430.498 C 1571.626 353.241, 1576.831 289.835, 1577.069 289.597 C 1577.307 289.359, 1599.949 354.766, 1627.385 434.945 L 1677.268 580.724 1684.884 581.300 C 1715.181 583.590, 1774.045 587.288, 1774.409 586.924 C 1775.040 586.293, 1816.400 64.067, 1815.862 63.528 C 1815.049 62.716, 1720.105 56.561, 1719.392 57.275 C 1719.006 57.661, 1713.640 121.677, 1707.468 199.532 C 1701.295 277.388, 1696.066 341.267, 1695.849 341.485 C 1695.631 341.703, 1673.010 276.095, 1645.581 195.691 C 1618.152 115.286, 1595.404 49.151, 1595.029 48.725 C 1594.655 48.298, 1574.808 46.625, 1550.925 45.007 C 1527.041 43.388, 1505.554 41.876, 1503.175 41.646 C 1500.478 41.386, 1498.722 41.656, 1498.512 42.364 M 1919.500 43.522 C 1888.874 49.111, 1858.919 66.074, 1839.089 89.057 C 1833.759 95.234, 1833.153 96.411, 1832.584 101.684 C 1832.238 104.883, 1824.753 198.524, 1815.949 309.776 L 1799.942 512.052 1803.886 518.776 C 1825.247 555.190, 1853.517 574.382, 1897.417 582.271 C 1913.988 585.249, 1947.182 585.445, 1960 582.640 C 2006.904 572.379, 2041.332 536.540, 2066.693 471.575 C 2072.173 457.539, 2082.545 423.158, 2083.165 416.974 L 2083.500 413.638 2041.500 389.709 C 2018.400 376.548, 1998.713 365.552, 1997.750 365.274 C 1996.508 364.914, 1996 365.333, 1996 366.717 C 1996 370.730, 1987.673 398.954, 1982.906 411.101 C 1969.111 446.248, 1951.809 462, 1927 462 C 1907.145 462, 1891.217 451.420, 1881.570 431.823 C 1872.718 413.841, 1869.681 394.707, 1869.695 357 C 1869.717 299.911, 1877.019 246.234, 1888.882 215.954 C 1896.712 195.966, 1911.289 176.856, 1923.785 170.195 C 1959.912 150.940, 1993.951 177.936, 2001.083 231.500 C 2001.742 236.450, 2002.555 240.786, 2002.890 241.136 C 2003.226 241.486, 2024.200 236.072, 2049.500 229.105 C 2103.061 214.355, 2097.343 218.317, 2093.970 198.291 C 2088.182 163.930, 2080.106 137.192, 2068.481 113.905 C 2049.317 75.516, 2021.645 53.967, 1979.782 44.831 C 1967.304 42.109, 1931.504 41.331, 1919.500 43.522 M 1318.764 51.446 C 1247.960 54.302, 1189.837 56.832, 1189.604 57.069 C 1189.084 57.596, 1204.107 581.320, 1204.660 581.943 C 1205.217 582.571, 1483.847 571.486, 1484.524 570.809 C 1484.957 570.376, 1482.058 451.680, 1481.608 451.443 C 1481.549 451.411, 1442.019 452.956, 1393.765 454.875 C 1345.511 456.794, 1305.705 458.039, 1305.308 457.641 C 1304.531 456.864, 1301.446 357.221, 1302.176 356.491 C 1302.416 356.250, 1338.138 354.642, 1381.557 352.916 C 1424.975 351.191, 1460.669 349.622, 1460.876 349.430 C 1461.456 348.892, 1458.211 242.877, 1457.596 242.263 C 1457.299 241.966, 1421.640 243.131, 1378.354 244.854 C 1335.068 246.576, 1299.393 247.726, 1299.076 247.409 C 1298.399 246.733, 1295.998 166.713, 1296.634 166.050 C 1296.872 165.803, 1335.407 164.085, 1382.268 162.232 C 1429.128 160.380, 1467.646 158.688, 1467.862 158.471 C 1468.244 158.090, 1466.635 96.693, 1465.355 62.750 L 1464.723 46 1456.111 46.127 C 1451.375 46.196, 1389.569 48.590, 1318.764 51.446 M 2615.713 47.964 C 2575.803 48.355, 2560.732 48.814, 2560.213 49.658 C 2559.821 50.294, 2535.875 94.538, 2507 147.977 L 2454.500 245.140 2454.245 147.570 L 2453.990 50 2410.245 50.007 C 2386.185 50.011, 2363.416 50.305, 2359.647 50.661 L 2352.794 51.308 2353.647 82.904 C 2354.116 100.282, 2354.500 123.050, 2354.500 133.500 C 2354.500 151.269, 2354.354 152.777, 2352.250 156.781 L 2350 161.062 2350 291.443 L 2350 421.824 2354.162 422.527 C 2360.241 423.554, 2365.681 429.006, 2367.477 435.871 C 2368.498 439.770, 2369.346 457.588, 2370.572 500.871 C 2372.421 566.112, 2372.418 566.177, 2366.854 572.513 L 2363.793 576 2407.315 576 C 2431.252 576, 2451.548 575.727, 2452.418 575.393 C 2453.838 574.848, 2454 568.234, 2454 510.906 L 2454 447.026 2479.750 404.052 C 2493.912 380.417, 2505.729 361.061, 2506.009 361.040 C 2506.289 361.018, 2522.039 408.990, 2541.009 467.645 L 2575.500 574.291 2638.937 573.625 C 2673.827 573.259, 2702.531 572.803, 2702.722 572.611 C 2702.913 572.420, 2674.742 499.084, 2640.119 409.642 L 2577.169 247.020 2637.203 148.282 C 2670.222 93.976, 2697.457 48.971, 2697.726 48.272 C 2698.109 47.274, 2695.226 47.046, 2684.357 47.214 C 2676.736 47.332, 2645.846 47.670, 2615.713 47.964 M 311.576 183.090 L 285.682 231.109 287.165 234.305 C 287.981 236.062, 301.215 265.602, 316.574 299.949 C 338.074 348.026, 344.579 361.719, 344.844 359.449 C 345.034 357.827, 344.686 347.050, 344.071 335.500 C 342.447 304.974, 340.100 224.842, 339.443 177.500 C 339.130 154.950, 338.558 136.178, 338.172 135.785 C 337.787 135.392, 325.818 156.679, 311.576 183.090 M 763.106 155.346 C 761.461 157.737, 759.827 161, 759.474 162.596 C 759.122 164.193, 757.773 168.650, 756.477 172.500 C 755.181 176.350, 751.782 186.925, 748.923 196 C 746.064 205.075, 741.499 219.475, 738.778 228 C 736.057 236.525, 733.658 244.063, 733.447 244.750 C 733.147 245.725, 723.372 246, 688.966 246 C 660.481 246, 644.184 246.366, 642.934 247.035 C 637.074 250.172, 645.492 260.107, 666.223 274.521 C 669.370 276.709, 673.480 279.625, 675.354 281 C 680.041 284.437, 709.109 305.346, 710.327 306.156 C 711.594 306.999, 710.498 311.020, 701.506 338.500 C 697.546 350.600, 690.807 371.300, 686.530 384.500 C 682.253 397.700, 677.705 411.425, 676.423 415 C 672.776 425.172, 672.519 426.878, 674.520 427.646 C 677.931 428.955, 683.699 425.537, 696.500 414.623 C 703.650 408.526, 709.725 403.276, 710 402.956 C 710.275 402.636, 717.925 396.134, 727 388.506 C 736.075 380.879, 744.232 373.932, 745.126 373.069 C 746.020 372.206, 748.945 369.642, 751.626 367.371 C 754.307 365.100, 759.200 360.942, 762.500 358.130 C 765.800 355.318, 768.895 353.014, 769.378 353.009 C 770.197 353.001, 783.745 363.998, 790.500 370.155 C 792.150 371.658, 796.900 375.726, 801.055 379.194 C 805.210 382.662, 819.438 394.575, 832.673 405.667 C 856.087 425.289, 862.740 429.660, 865.296 427.104 C 866.319 426.081, 864.459 419.705, 856.950 398.500 C 853.061 387.517, 827.002 308.093, 827.036 307.324 C 827.055 306.871, 830.500 304.025, 834.692 301 C 838.883 297.975, 848.204 291.144, 855.406 285.820 C 862.608 280.496, 872.701 273.071, 877.836 269.320 C 888.795 261.314, 892.416 257.841, 895.050 252.808 C 898.768 245.702, 900.976 246.050, 850.318 245.760 L 804.842 245.500 799.548 229.500 C 796.636 220.700, 790.086 200.750, 784.993 185.168 C 778.881 166.469, 774.898 155.843, 773.277 153.918 C 769.692 149.657, 766.734 150.072, 763.106 155.346 M 2255.051 170.164 C 2216.304 171.760, 2184.435 173.232, 2184.231 173.436 C 2184.027 173.640, 2184.183 183.525, 2184.577 195.404 L 2185.295 217 2190.330 217 C 2193.099 217, 2199.220 216.552, 2203.932 216.005 C 2215.082 214.710, 2322.321 210.628, 2326.668 211.334 L 2330 211.874 2330 203.095 C 2330 198.267, 2330.295 188.170, 2330.655 180.658 L 2331.310 167 2328.405 167.131 C 2326.807 167.203, 2293.798 168.568, 2255.051 170.164 M 540.552 172.663 C 508.680 173.983, 482.436 175.231, 482.231 175.435 C 482.027 175.640, 482.184 185.559, 482.580 197.477 L 483.300 219.148 490.400 218.700 C 502.502 217.938, 564.481 215.015, 585 214.238 L 604.500 213.500 605.146 199.500 C 605.502 191.800, 606.129 182.012, 606.540 177.750 L 607.289 170 602.894 170.131 C 600.477 170.203, 572.423 171.343, 540.552 172.663 M 1387.051 181.164 C 1348.304 182.760, 1316.435 184.232, 1316.231 184.436 C 1316.027 184.640, 1316.183 194.525, 1316.577 206.404 L 1317.295 228 1322.330 228 C 1325.099 228, 1331.220 227.553, 1335.932 227.006 C 1348.131 225.590, 1453.549 221.688, 1459.250 222.441 C 1461.862 222.787, 1464.010 222.716, 1464.022 222.284 C 1464.034 221.853, 1464.729 214.975, 1465.566 207 C 1466.403 199.025, 1467.353 189.238, 1467.676 185.250 L 1468.263 178 1462.882 178.131 C 1459.922 178.203, 1425.798 179.568, 1387.051 181.164 M 1939.500 183.935 C 1934.046 185.263, 1930.482 187.760, 1923.400 195.215 C 1901.379 218.398, 1890.785 265.277, 1889.305 346.090 C 1888.508 389.596, 1890.383 406.771, 1897.559 421.691 C 1901.727 430.354, 1907.594 437.219, 1913.455 440.285 C 1916.768 442.019, 1919.009 442.363, 1925.842 442.187 C 1936.206 441.920, 1943.080 438.988, 1948.932 432.340 C 1957.665 422.419, 1969.583 393.996, 1975.601 368.738 C 1977.074 362.557, 1979.139 356.060, 1980.190 354.300 C 1982.525 350.390, 1986.979 347.533, 1993.162 345.979 C 1999.261 344.446, 2005.746 346.312, 2016 352.553 C 2028.159 359.953, 2046.497 370.825, 2046.536 370.656 C 2046.556 370.570, 2046.035 352.950, 2045.378 331.500 C 2044.721 310.050, 2044.142 282.907, 2044.092 271.183 C 2044.006 251.362, 2043.877 249.904, 2042.250 250.412 C 2041.287 250.713, 2032.400 253.166, 2022.500 255.864 C 1999.943 262.010, 1996.208 261.967, 1989.535 255.482 C 1984.565 250.652, 1983.661 248.131, 1981.474 233 C 1978.773 214.304, 1971.923 197.872, 1963.698 190.355 C 1956.348 183.637, 1948.871 181.654, 1939.500 183.935 M 764.045 202.118 C 761.749 209.478, 756.492 225.963, 752.363 238.750 L 744.856 262 711.845 262 C 692.642 262, 678.973 262.377, 679.167 262.902 C 679.492 263.784, 694.199 274.718, 718.696 292.292 L 730.892 301.042 729.556 305.271 C 728.822 307.597, 726.429 314.900, 724.238 321.500 C 722.047 328.100, 716.529 344.975, 711.976 359 C 707.423 373.025, 703.514 384.837, 703.290 385.250 C 701.777 388.031, 706.817 384.377, 719.151 373.750 C 726.970 367.012, 739.697 356.159, 747.434 349.632 C 755.170 343.104, 761.725 337.199, 762 336.510 C 762.275 335.821, 763.945 334.049, 765.711 332.573 C 769.456 329.442, 771.057 329.897, 775.629 335.391 C 777.208 337.288, 784.575 343.918, 792 350.124 C 799.425 356.331, 810.824 365.929, 817.332 371.454 C 833.145 384.881, 833.881 385.452, 834.518 384.816 C 834.820 384.513, 828.978 365.909, 821.534 343.473 C 814.090 321.038, 808 302.187, 808 301.583 C 808 300.979, 814.108 295.989, 821.574 290.493 C 829.039 284.997, 837.027 279.107, 839.324 277.404 C 841.621 275.701, 847.084 271.651, 851.465 268.404 L 859.431 262.500 826.344 262.237 L 793.258 261.973 790.693 254.737 C 789.283 250.757, 784.040 234.900, 779.043 219.500 C 774.046 204.100, 769.566 190.878, 769.088 190.118 C 768.497 189.178, 766.884 193.016, 764.045 202.118 M 2321 358.030 C 2315.775 358.443, 2283.982 359.827, 2250.348 361.106 L 2189.196 363.432 2189.577 366.466 C 2189.787 368.135, 2190.245 382.483, 2190.596 398.352 L 2191.234 427.204 2202.867 426.692 C 2209.265 426.410, 2240.283 425.069, 2271.795 423.712 C 2303.307 422.354, 2329.233 421.076, 2329.408 420.872 C 2329.746 420.477, 2331.032 356.902, 2330.697 357.140 C 2330.589 357.217, 2326.225 357.617, 2321 358.030 M 537.845 363.346 L 487.189 365.392 487.574 368.446 C 487.785 370.126, 488.246 384.499, 488.597 400.387 L 489.235 429.275 502.868 428.597 C 510.365 428.224, 534.352 427.150, 556.171 426.210 C 577.989 425.269, 596.132 424.207, 596.488 423.849 C 596.844 423.491, 597.567 413.816, 598.095 402.349 C 598.623 390.882, 599.320 376.887, 599.644 371.250 L 600.233 361 594.366 361.150 C 591.140 361.232, 565.705 362.220, 537.845 363.346 M 1384.846 371.844 L 1321.193 374.413 1321.575 377.456 C 1321.786 379.130, 1322.245 393.475, 1322.595 409.333 L 1323.233 438.166 1334.366 437.713 C 1340.490 437.464, 1366.650 436.310, 1392.500 435.149 C 1418.350 433.989, 1441.330 433.030, 1443.567 433.020 L 1447.635 433 1448.890 415.250 C 1449.581 405.488, 1450.788 392.579, 1451.573 386.564 C 1453.617 370.902, 1453.525 368.968, 1450.750 369.138 C 1449.513 369.214, 1419.856 370.432, 1384.846 371.844" stroke="none" fill="#fdd500" fill-rule="evenodd"/><path d="M 301.293 48.385 C 274.578 50.111, 252.700 51.946, 252.220 52.500 C 251.744 53.050, 229.787 98.935, 203.427 154.466 L 155.500 255.433 154.767 244.966 C 154.364 239.210, 153.743 230, 153.387 224.500 L 152.740 214.500 147.017 226.500 L 141.293 238.500 140.634 231 C 140.271 226.875, 138.137 186.600, 135.890 141.500 C 133.643 96.400, 131.678 59.367, 131.524 59.206 C 131.152 58.814, 43.614 64.171, 43.101 64.617 C 42.603 65.050, 68.095 568.337, 68.646 568.940 C 69.191 569.538, 156.150 564.183, 156.823 563.511 C 157.116 563.217, 155.909 534.403, 154.140 499.478 L 150.924 435.978 175.062 390.739 C 188.338 365.858, 199.326 345.367, 199.479 345.204 C 199.632 345.042, 201.449 349.317, 203.516 354.704 C 205.583 360.092, 207.794 365.816, 208.429 367.423 L 209.584 370.347 211.733 366.953 L 213.882 363.559 214.994 366.529 C 219.760 379.262, 287.234 555.552, 287.412 555.736 C 287.676 556.010, 405.374 548.852, 405.752 548.539 C 405.890 548.424, 374.449 477.943, 335.883 391.915 C 297.317 305.887, 265.333 234.150, 264.807 232.500 C 263.920 229.713, 267.378 222.966, 313.426 137.646 C 340.692 87.126, 363 45.613, 363 45.396 C 363 44.625, 348.929 45.306, 301.293 48.385 M 645.579 50.431 C 645.309 52.669, 643.933 88.250, 642.519 129.500 L 639.950 204.500 636.487 222.500 L 633.024 240.500 633.022 322.500 C 633.020 391.396, 632.602 416.295, 630.405 478.312 C 628.968 518.909, 627.983 552.316, 628.217 552.550 C 629.081 553.414, 753.098 556.164, 770 555.694 C 780.929 555.391, 790.316 554.582, 795 553.540 C 806.785 550.919, 828.795 543.287, 835.693 539.429 C 866.810 522.027, 894.299 480.983, 910.345 427.961 C 927.876 370.033, 933.174 260.660, 921.985 187.659 C 916.634 152.747, 905.243 117.514, 892.029 95.010 C 879.107 73.001, 854.334 57.799, 823 52.649 C 809.023 50.352, 803.816 50.119, 730 48.492 C 692.875 47.673, 658.803 46.859, 654.284 46.683 L 646.068 46.362 645.579 50.431 M 886 50.590 C 886 51.464, 888.276 54.727, 891.057 57.840 C 903.862 72.172, 919.289 99.725, 927.300 122.571 C 942.167 164.965, 950.242 227.223, 948.629 287 C 947.595 325.320, 944.441 363.853, 940.416 387.369 L 938.897 396.238 951.609 479.369 C 958.600 525.091, 964.585 562.786, 964.910 563.136 C 965.480 563.750, 1063.212 571.060, 1063.782 570.531 C 1063.937 570.387, 1088.833 493.661, 1119.105 400.028 L 1174.146 229.788 1171.865 149.533 L 1169.583 69.278 1155.170 68.389 C 1141.250 67.530, 1140.733 67.568, 1140.040 69.500 C 1139.645 70.600, 1116.187 153.705, 1087.911 254.178 C 1059.635 354.650, 1036.224 436.550, 1035.886 436.178 C 1035.549 435.805, 1034.219 425.457, 1032.931 413.181 L 1030.589 390.862 1026.692 404.681 C 1024.548 412.282, 1022.503 418.815, 1022.147 419.200 C 1021.791 419.584, 1012.275 338.431, 1001 238.858 C 989.725 139.285, 980.217 57.357, 979.871 56.795 C 979.423 56.067, 899.606 49.405, 886.750 49.022 C 886.337 49.010, 886 49.715, 886 50.590 M 2200.500 59.057 C 2136.150 61.699, 2080.912 63.891, 2077.750 63.930 L 2072 64 2072 72.555 C 2072 80.836, 2072.124 81.292, 2075.863 86.805 C 2092.716 111.649, 2105.873 150.160, 2114.021 198.500 C 2116.398 212.603, 2116.248 219.569, 2113.439 225.488 C 2110.643 231.379, 2106.424 233.762, 2091.844 237.683 C 2084.505 239.657, 2078.121 241.613, 2077.657 242.029 C 2076.991 242.627, 2080.632 389.266, 2081.320 389.546 C 2085.412 391.213, 2096.665 398.984, 2098.884 401.675 C 2104.408 408.376, 2104.554 412.605, 2099.907 431.225 C 2097.673 440.176, 2093.144 455.600, 2089.843 465.500 L 2083.842 483.500 2085.045 526.500 C 2085.707 550.150, 2086.362 569.631, 2086.499 569.792 C 2086.806 570.149, 2351.358 559.792, 2351.854 559.403 C 2352.536 558.868, 2349.624 462.010, 2348.890 460.821 C 2348.315 459.891, 2332.150 460.236, 2277.323 462.349 C 2238.371 463.851, 2201.887 465.353, 2196.250 465.687 L 2186 466.295 2186 457.147 L 2186 448 2179.104 448 L 2172.208 448 2171.597 433.750 C 2170.575 409.879, 2168.798 344.865, 2169.160 344.549 C 2169.347 344.386, 2205.009 342.849, 2248.409 341.134 C 2291.808 339.419, 2327.552 337.782, 2327.838 337.495 C 2328.415 336.919, 2326.156 250.823, 2325.548 250.215 C 2325.339 250.006, 2292.618 251.109, 2252.834 252.667 L 2180.500 255.500 2180.213 246.193 L 2179.926 236.886 2172.963 237.572 C 2166.118 238.247, 2165.999 238.218, 2165.922 235.879 C 2164.672 197.708, 2163.426 154.429, 2163.569 154.204 C 2163.673 154.041, 2202.112 152.380, 2248.988 150.512 C 2295.864 148.644, 2334.473 146.860, 2334.786 146.547 C 2335.099 146.235, 2334.815 126.971, 2334.156 103.739 C 2333.497 80.508, 2332.968 59.813, 2332.979 57.750 L 2333 54 2325.250 54.128 C 2320.988 54.198, 2264.850 56.416, 2200.500 59.057 M 484.127 61.564 C 425.621 63.938, 377.152 66.111, 376.417 66.393 C 375.683 66.675, 373.941 69.156, 372.548 71.906 L 370.014 76.906 375.165 258.203 L 380.316 439.500 402.603 489.500 C 414.860 517, 425.408 541.598, 426.041 544.162 C 428.462 553.958, 422.008 565.161, 412.321 567.978 C 410.219 568.589, 403.170 569.486, 396.656 569.972 C 390.141 570.458, 384.554 571.113, 384.239 571.428 C 383.457 572.210, 376.285 572.447, 487.500 568.005 C 542.500 565.808, 589.351 564.008, 591.613 564.005 L 595.726 564 594.184 559.316 C 592.794 555.095, 592.795 550.179, 594.195 509.566 C 595.049 484.780, 595.578 464.311, 595.371 464.080 C 594.986 463.651, 512.852 466.580, 494.250 467.685 L 484 468.295 484 459.147 L 484 450 477.104 450 L 470.208 450 469.597 435.750 C 468.575 411.881, 466.798 346.865, 467.160 346.552 C 467.347 346.390, 497.155 345.082, 533.401 343.644 C 569.647 342.207, 599.470 340.864, 599.674 340.659 C 600.323 340.010, 603.228 253.895, 602.622 253.288 C 602.303 252.970, 574.245 253.787, 540.271 255.104 L 478.500 257.500 478.213 248.193 L 477.926 238.886 470.963 239.572 C 464.118 240.247, 463.999 240.218, 463.922 237.879 C 462.672 199.704, 461.426 156.429, 461.569 156.204 C 461.674 156.041, 494.254 154.612, 533.971 153.029 C 573.688 151.445, 606.317 150.003, 606.479 149.825 C 606.641 149.646, 607.277 135.100, 607.892 117.500 C 608.506 99.900, 609.293 79.088, 609.639 71.250 L 610.269 57 600.384 57.123 C 594.948 57.191, 542.632 59.189, 484.127 61.564 M 1512.599 66.250 C 1511.467 77.397, 1484 425.624, 1484 428.823 C 1484 431.570, 1484.436 432.040, 1487.825 432.953 C 1492.583 434.234, 1498.651 440.165, 1500.063 444.915 C 1501.632 450.192, 1501.892 455.364, 1503.540 513.938 C 1504.367 543.329, 1505.221 567.554, 1505.438 567.771 C 1505.937 568.270, 1541.787 570.932, 1548.531 570.971 L 1553.562 571 1564.370 434.250 C 1577.100 273.166, 1576.119 284.696, 1577.009 285.699 C 1577.400 286.140, 1580.116 293.652, 1583.046 302.394 C 1588.638 319.079, 1589.786 320.189, 1589.930 309.050 C 1589.971 305.874, 1590.365 303.996, 1590.875 304.550 C 1591.357 305.073, 1612.804 367.150, 1638.536 442.500 C 1664.269 517.850, 1685.587 579.778, 1685.911 580.118 C 1686.432 580.665, 1773.077 586.915, 1773.780 586.457 C 1774.256 586.146, 1814.045 82.636, 1813.680 81.540 C 1813.393 80.680, 1734.078 74.485, 1733.437 75.272 C 1733.335 75.397, 1728.135 140.167, 1721.880 219.204 C 1715.626 298.242, 1710.221 362.592, 1709.870 362.204 C 1709.519 361.817, 1706.774 354.352, 1703.769 345.615 C 1698.583 330.537, 1698.273 329.927, 1697.664 333.615 C 1697.311 335.752, 1697.017 339.502, 1697.011 341.950 C 1697.005 344.534, 1696.635 346.002, 1696.130 345.450 C 1695.652 344.928, 1674.008 282.175, 1648.032 206 C 1622.057 129.825, 1600.459 67.134, 1600.038 66.686 C 1599.479 66.092, 1523.028 60.140, 1514.366 60.016 C 1513.707 60.007, 1512.967 62.616, 1512.599 66.250 M 1941.609 60.990 C 1898.562 66.439, 1864.109 88.787, 1837.534 128.500 L 1830.173 139.500 1815.942 319.795 C 1803.071 482.846, 1801.841 500.492, 1803.079 504.295 C 1803.832 506.608, 1807.987 515.656, 1812.312 524.403 C 1821.151 542.277, 1825.198 547.360, 1838.476 557.260 C 1853.200 568.238, 1871.371 575.934, 1893.898 580.733 C 1905.578 583.221, 1908.256 583.417, 1930.500 583.417 C 1953.244 583.417, 1955.001 583.280, 1964.074 580.811 C 1977.601 577.128, 1987.423 572.807, 1997.790 565.978 C 2032.622 543.031, 2059.457 499.263, 2077.452 436.048 C 2079.401 429.200, 2080.660 423.267, 2080.248 422.864 C 2078.772 421.419, 2011.865 383.802, 2011.471 384.195 C 2011.250 384.417, 2009.683 389.976, 2007.990 396.549 C 2000.053 427.353, 1988.975 452.167, 1977.478 464.893 C 1966.672 476.853, 1949.335 482.695, 1932.500 480.049 C 1919.409 477.990, 1908.033 470.635, 1900.419 459.306 C 1898.272 456.113, 1894.032 450.786, 1890.997 447.469 C 1887.961 444.151, 1883.771 438.191, 1881.686 434.222 C 1872.474 416.691, 1869.912 402.460, 1869.252 365.164 C 1868.173 304.174, 1875.809 245.168, 1888.892 213.394 C 1903.433 178.080, 1927.743 159.513, 1953.790 163.829 C 1967.258 166.061, 1978.252 173.828, 1987.475 187.628 C 1990.002 191.407, 1994.295 197.168, 1997.017 200.428 C 2002.909 207.488, 2009.079 219.702, 2011.905 229.900 C 2013.031 233.962, 2014.075 237.394, 2014.226 237.527 C 2014.474 237.747, 2091.973 216.599, 2094.618 215.590 C 2095.944 215.085, 2094.426 204.167, 2089.929 181.875 C 2084.596 155.439, 2076.973 132.699, 2066.673 112.500 C 2061.871 103.083, 2059.145 99.075, 2054.010 93.879 C 2038.723 78.414, 2015.650 67.404, 1988.262 62.504 C 1977.791 60.631, 1951.249 59.770, 1941.609 60.990 M 1327.002 70.208 C 1259.628 72.933, 1204.329 75.338, 1204.115 75.552 C 1203.706 75.960, 1218.066 580.285, 1218.500 580.792 C 1218.806 581.149, 1483.358 570.792, 1483.854 570.403 C 1484.536 569.868, 1481.624 473.010, 1480.890 471.821 C 1480.315 470.891, 1464.150 471.236, 1409.323 473.349 C 1370.371 474.851, 1333.888 476.353, 1328.250 476.687 L 1318 477.295 1318 468.147 L 1318 459 1311.104 459 L 1304.208 459 1303.597 444.750 C 1302.575 420.879, 1300.798 355.865, 1301.160 355.549 C 1301.347 355.386, 1337.009 353.849, 1380.409 352.134 C 1423.808 350.419, 1459.552 348.782, 1459.838 348.495 C 1460.415 347.919, 1458.156 261.823, 1457.548 261.215 C 1457.339 261.006, 1424.618 262.109, 1384.834 263.667 L 1312.500 266.500 1312.213 257.193 L 1311.926 247.886 1304.963 248.572 C 1298.118 249.247, 1297.999 249.218, 1297.922 246.879 C 1296.672 208.708, 1295.426 165.429, 1295.569 165.204 C 1295.673 165.041, 1334.112 163.380, 1380.988 161.512 C 1427.864 159.644, 1466.473 157.860, 1466.786 157.547 C 1467.099 157.235, 1466.815 137.971, 1466.156 114.739 C 1465.497 91.508, 1464.968 70.813, 1464.979 68.750 L 1465 65 1457.250 65.126 C 1452.987 65.196, 1394.376 67.482, 1327.002 70.208 M 2604.356 66.749 L 2575.212 67.030 2521.856 165.979 C 2492.510 220.400, 2468.105 264.944, 2467.623 264.964 C 2467.126 264.984, 2467.037 255.788, 2467.418 243.750 L 2468.090 222.500 2463.420 231 C 2460.852 235.675, 2457.569 241.525, 2456.125 244 L 2453.500 248.500 2453.245 158.092 L 2452.989 67.684 2434.245 68.339 C 2423.935 68.700, 2404.137 68.996, 2390.250 68.997 L 2365 69 2365 248.535 C 2365 402.332, 2365.205 428.388, 2366.427 430.285 C 2367.212 431.503, 2368.339 435.200, 2368.932 438.500 C 2370.237 445.757, 2373.361 558.047, 2372.396 563 C 2371.535 567.422, 2369.490 571.510, 2366.787 574.213 L 2364.681 576.319 2371.591 575.667 C 2375.391 575.308, 2395.262 575.011, 2415.750 575.007 L 2453 575 2453 510.853 L 2453 446.705 2479.250 402.891 C 2493.688 378.794, 2505.824 359.060, 2506.219 359.039 C 2506.615 359.017, 2508.811 364.882, 2511.098 372.072 L 2515.257 385.143 2517.726 381.003 C 2519.084 378.725, 2520.324 377.006, 2520.481 377.181 C 2520.638 377.356, 2533.231 415.975, 2548.467 463 C 2563.702 510.025, 2577.954 554.013, 2580.137 560.750 L 2584.106 573 2631.803 572.868 C 2658.036 572.796, 2684.506 572.459, 2690.625 572.118 L 2701.751 571.500 2638.908 409.174 L 2576.066 246.847 2629.675 158.674 C 2659.160 110.178, 2683.947 69.487, 2684.757 68.250 L 2686.230 66 2659.865 66.234 C 2645.364 66.363, 2620.385 66.595, 2604.356 66.749 M 763.327 152.836 C 761.502 154.668, 759.469 158.832, 757.592 164.586 C 755.992 169.489, 753.657 176.650, 752.402 180.500 C 751.147 184.350, 747.775 194.925, 744.909 204 C 742.042 213.075, 738.023 225.675, 735.976 232 L 732.256 243.500 726.378 244.141 C 723.145 244.494, 703.258 244.832, 682.184 244.891 C 657.896 244.960, 643.160 245.379, 641.934 246.035 C 638.876 247.672, 639.529 252.110, 643.647 257.676 C 646.848 262.003, 663.636 274.875, 692.978 295.500 C 695.857 297.524, 709.184 307.087, 709.875 307.624 C 710.081 307.785, 709.050 311.422, 707.584 315.708 C 706.118 319.994, 701.624 333.625, 697.596 346 C 688.875 372.797, 674.642 415.795, 672.535 421.714 C 671.710 424.031, 671.302 426.623, 671.628 427.472 C 672.515 429.784, 676.281 430.327, 680.167 428.704 C 682.968 427.533, 713.022 403.141, 719.109 397.098 C 719.994 396.219, 727.390 389.875, 735.545 383 C 743.700 376.125, 754.630 366.860, 759.834 362.412 L 769.295 354.324 796.769 377.412 C 811.880 390.110, 827.676 403.352, 831.871 406.837 C 836.067 410.323, 842.120 415.498, 845.323 418.337 C 855.945 427.755, 864.577 431.366, 866.833 427.334 C 867.374 426.367, 867.407 424.583, 866.911 423.084 C 866.442 421.663, 857.532 395.075, 847.112 364 C 829.923 312.738, 828.321 307.387, 829.833 306.276 C 830.750 305.603, 834.185 303.128, 837.467 300.776 C 840.749 298.424, 848.275 292.900, 854.193 288.500 C 860.110 284.100, 868.403 278.025, 872.622 275 C 889.672 262.773, 898 254.399, 898 249.479 C 898 244.565, 897.731 244.534, 850.146 244 L 805.598 243.500 802.442 234 C 800.707 228.775, 795.568 213.025, 791.023 199 C 776.397 153.867, 777.235 156.131, 773.701 152.250 C 770.856 149.126, 766.796 149.356, 763.327 152.836" stroke="none" fill="#f4000e" fill-rule="evenodd"/><path d="M 2473 109.500 C 2473 142.958, 2473.239 170.095, 2473.530 169.803 C 2474.194 169.139, 2474.149 49.816, 2473.485 49.152 C 2473.218 48.885, 2473 76.042, 2473 109.500 M 2350.485 289 C 2350.485 360.225, 2350.604 389.362, 2350.750 353.750 C 2350.895 318.137, 2350.895 259.862, 2350.750 224.250 C 2350.604 188.637, 2350.485 217.775, 2350.485 289 M 733 243.323 C 733 244.835, 729.196 245.003, 689.250 245.250 L 645.500 245.522 689.281 245.761 C 727.964 245.972, 733.132 245.820, 733.655 244.457 C 733.981 243.608, 733.966 242.633, 733.624 242.290 C 733.281 241.947, 733 242.412, 733 243.323 M 804.321 243.500 C 804.524 245.467, 805.268 245.500, 849.764 245.515 L 895 245.531 850.072 245.255 C 808.384 245, 805.106 244.854, 804.629 243.240 C 804.234 241.904, 804.163 241.965, 804.321 243.500 M 928.426 272.500 C 928.427 284.600, 928.571 289.413, 928.747 283.195 C 928.923 276.977, 928.922 267.077, 928.746 261.195 C 928.569 255.313, 928.425 260.400, 928.426 272.500 M 745.601 259.453 L 744.962 262 711.981 262 C 693.518 262, 679 262.390, 679 262.885 C 679 263.372, 680.237 264.523, 681.750 265.444 L 684.500 267.119 682.139 265.059 L 679.778 263 712.781 263 L 745.783 263 746.440 260.382 C 746.802 258.942, 746.904 257.571, 746.669 257.335 C 746.433 257.100, 745.953 258.053, 745.601 259.453 M 791.079 258.059 C 791.036 258.916, 791.565 260.390, 792.255 261.334 C 793.372 262.861, 795.386 263.017, 810.505 262.749 L 827.500 262.448 810.333 262.224 L 793.167 262 792.162 259.250 C 791.610 257.738, 791.122 257.201, 791.079 258.059 M 827 401.401 C 827 401.654, 832.737 406.684, 839.750 412.579 C 846.763 418.475, 853.288 423.976, 854.250 424.804 C 855.212 425.632, 856 426.059, 856 425.752 C 856 425.446, 849.475 419.738, 841.500 413.068 C 833.525 406.398, 827 401.148, 827 401.401 M 2453.471 511 C 2453.471 546.475, 2453.596 560.988, 2453.750 543.250 C 2453.903 525.513, 2453.903 496.488, 2453.750 478.750 C 2453.596 461.013, 2453.471 475.525, 2453.471 511 M 2473.448 451.274 C 2473.180 451.974, 2473.082 462.437, 2473.232 474.524 L 2473.504 496.500 2474.002 473.249 C 2474.276 460.461, 2474.373 449.999, 2474.219 449.999 C 2474.064 450, 2473.717 450.573, 2473.448 451.274 M 2618.191 573.747 C 2625.171 573.918, 2636.871 573.919, 2644.191 573.748 C 2651.511 573.577, 2645.800 573.436, 2631.500 573.436 C 2617.200 573.435, 2611.211 573.575, 2618.191 573.747 M 2413.191 575.747 C 2420.171 575.918, 2431.871 575.919, 2439.191 575.748 C 2446.511 575.577, 2440.800 575.436, 2426.500 575.436 C 2412.200 575.435, 2406.211 575.575, 2413.191 575.747 M 756.296 576.744 C 760.583 576.932, 767.333 576.931, 771.296 576.742 C 775.258 576.552, 771.750 576.399, 763.500 576.400 C 755.250 576.401, 752.008 576.556, 756.296 576.744 M 2592.191 593.747 C 2599.171 593.918, 2610.871 593.919, 2618.191 593.748 C 2625.511 593.577, 2619.800 593.436, 2605.500 593.436 C 2591.200 593.435, 2585.211 593.575, 2592.191 593.747 M 2386.750 595.747 C 2394.037 595.918, 2405.963 595.918, 2413.250 595.747 C 2420.537 595.577, 2414.575 595.437, 2400 595.437 C 2385.425 595.437, 2379.463 595.577, 2386.750 595.747" stroke="none" fill="#fad104" fill-rule="evenodd"/><path d="M 2453.476 146.500 C 2453.476 189.950, 2453.599 207.579, 2453.750 185.676 C 2453.900 163.772, 2453.900 128.222, 2453.750 106.676 C 2453.599 85.129, 2453.476 103.050, 2453.476 146.500 M 805.863 244.264 C 806.283 244.684, 821.674 244.908, 840.064 244.763 L 873.500 244.498 839.299 243.999 C 820.489 243.725, 805.442 243.844, 805.863 244.264" stroke="none" fill="#f3040b" fill-rule="evenodd"/></svg>