<?xml version="1.0" encoding="UTF-8" standalone="no"?>
<svg
   xml:space="preserve"
   height="607.63196"
   viewBox="0.001 -1 5091.0799 607.63195"
   width="5091.1157"
   version="1.2"
   id="svg5"
   sodipodi:docname="gamegear_v4.svg"
   inkscape:version="1.4 (86a8ad7, 2024-10-11)"
   xmlns:inkscape="http://www.inkscape.org/namespaces/inkscape"
   xmlns:sodipodi="http://sodipodi.sourceforge.net/DTD/sodipodi-0.dtd"
   xmlns="http://www.w3.org/2000/svg"
   xmlns:svg="http://www.w3.org/2000/svg"><defs
   id="defs5" /><sodipodi:namedview
   id="namedview5"
   pagecolor="#e5e5e5"
   bordercolor="#000000"
   borderopacity="0.25"
   inkscape:showpageshadow="2"
   inkscape:pageopacity="0.0"
   inkscape:pagecheckerboard="true"
   inkscape:deskcolor="#d1d1d1"
   inkscape:zoom="0.25"
   inkscape:cx="2800"
   inkscape:cy="592"
   inkscape:window-width="3818"
   inkscape:window-height="1003"
   inkscape:window-x="0"
   inkscape:window-y="1041"
   inkscape:window-maximized="0"
   inkscape:current-layer="svg5" />
    
    
    
    
    
<path
   d="M 964.97051,235.09407 C 1062.4403,71.497529 1196.742,-30.598711 1264.8361,6.6733883 1332.7865,44.116159 1308.8367,207.08386 1211.1244,370.55462 1113.5738,534.15115 979.34391,636.2384 911.39351,598.94835 c -68.1479,-37.41583 -44.0455,-200.3925 53.541,-363.85428 z"
   fill="#0000ff"
   id="path5"
   inkscape:label="Blue"
   style="display:inline;fill:#034693;fill-opacity:1;stroke-width:8.98339" /><path
   d="M 528.61131,235.09407 C 626.15291,71.506519 760.40971,-30.598711 828.48581,6.6823683 896.43621,44.125139 872.48651,207.09284 774.77421,370.5636 c -97.5327,163.59654 -231.7895,265.68379 -299.7309,228.38475 -68.0941,-37.41583 -44.0006,-200.3925 53.568,-363.85428 z"
   fill="#008400"
   id="path4"
   inkscape:label="Green"
   style="display:inline;fill:#00916d;fill-opacity:1;stroke-width:8.98339" /><path
   d="M 92.270019,235.09407 C 189.80271,71.506519 324.06841,-30.598711 392.16261,6.6823683 460.11291,44.125139 436.16321,207.09284 338.45091,370.5636 240.90021,534.16014 106.65241,636.24739 38.720019,598.94835 c -68.112,-37.41583 -44.0186001,-200.3925 53.55,-363.85428 z"
   fill="#d61808"
   id="path3"
   inkscape:label="Red"
   style="display:inline;fill:#d60700;fill-opacity:1;stroke-width:8.98339" /><g
   id="g2"
   style="display:inline"
   transform="translate(-0.0150851)"><text
     xml:space="preserve"
     style="font-style:normal;font-variant:normal;font-weight:normal;font-stretch:normal;font-size:659.914px;line-height:0;font-family:Nemorosa;-inkscape-font-specification:Nemorosa;font-variant-ligatures:normal;font-variant-caps:normal;font-variant-numeric:normal;font-variant-east-asian:normal;text-align:start;letter-spacing:-61.4545px;word-spacing:-151.231px;writing-mode:lr-tb;direction:ltr;text-anchor:start;display:none;fill:#4d4d4d;fill-opacity:1;stroke-width:20.6224;stroke-linecap:square;stroke-miterlimit:3.2;paint-order:stroke markers fill"
     x="6095.3306"
     y="492.34427"
     id="text2"
     transform="matrix(0.86175094,0,-0.05827513,1.1604281,0,0)"
     inkscape:label="Hacks"><tspan
       sodipodi:role="line"
       id="tspan2"
       x="0"
       y="0"
       style="fill:#4d4d4d;fill-opacity:1;stroke-width:20.6224">H   A C   K S</tspan></text><path
     d="m 5221.6841,571.33009 h 104.0689 l 37.4574,-213.65354 h 154.6815 l -37.4574,213.65354 h 102.9314 l 92.917,-525.327341 h -103.5001 l -36.0124,207.527261 h -155.2502 l 36.5811,-207.527261 h -103.5001 z m 386.1328,0 h 101.794 l 47.4664,-107.20967 h 154.6815 l 10.5391,107.20967 h 101.7942 L 5958.9155,46.002749 h -101.7941 z m 190.3862,-201.40101 86.4632,-192.9774 19.3116,192.9774 z m 419.149,209.82462 c 111.4617,0 196.8129,-68.92049 238.9083,-193.74317 h -109.1869 c -25.4778,54.37061 -63.6423,89.59665 -110.8429,89.59665 -58.5743,0 -84.1242,-57.43375 -80.5093,-129.41739 5.3455,-106.44387 62.5868,-204.46414 138.7901,-204.46414 48.3379,0 73.9426,33.69447 80.2726,88.83087 h 109.7556 c 2.3261,-125.58845 -59.1194,-192.977391 -171.7184,-192.977391 -145.0139,0 -256.2274,130.948951 -266.1876,329.286821 -6.6146,131.71473 54.1387,212.88775 170.7185,212.88775 z m 234.7172,-8.42361 h 104.0686 l 28.7408,-164.64342 37.5657,-45.94699 67.9025,210.59041 h 117.1485 L 6698.7515,268.0799 6882.2146,46.002749 h -117.1485 l -149.1638,184.553771 32.584,-184.553771 h -103.5001 z m 508.3094,8.42361 c 95.5385,0 192.1097,-65.85735 198.109,-185.31955 4.3456,-86.53352 -63.8031,-111.03858 -120.8472,-130.18316 -40.2529,-13.7841 -74.819,-27.56821 -73.0884,-62.02844 1.9997,-39.82074 33.1782,-60.4969 70.1425,-60.4969 30.1402,0 49.2365,16.08146 47.4675,51.30749 -0.1922,3.82892 -0.4231,8.42361 -1.2613,13.7841 h 105.7749 c 2.2829,-11.48675 3.39,-22.20772 3.9284,-32.92869 4.4994,-89.596641 -46.611,-136.309421 -135.894,-136.309421 -94.9698,0 -191.9173,62.02844 -197.9165,181.490641 -4.4995,89.59665 64.6711,116.39907 120.6933,133.24629 40.2914,13.01832 74.2886,26.80242 72.5966,60.49689 -2.0767,41.35229 -35.6068,63.56001 -74.277,63.56001 -32.4151,0 -54.3932,-15.31566 -52.3935,-55.13639 0.2695,-5.36049 1.0689,-9.95519 1.945,-16.08145 h -105.7748 c -2.2829,11.48675 -4.0355,23.73928 -4.5739,34.46023 -5.0379,100.31762 57.2235,140.13835 145.3691,140.13835 z"
     id="text3"
     style="font-size:73.4594px;line-height:0;font-family:Nemorosa;-inkscape-font-specification:Nemorosa;letter-spacing:-6.84091px;word-spacing:-16.8345px;display:none;fill:#ffffff;stroke:none;stroke-width:0;stroke-linecap:square;stroke-miterlimit:4;stroke-dasharray:none;stroke-opacity:1;paint-order:stroke markers fill"
     aria-label="H   A C   K S"
     inkscape:label="Hacks" /><path
     d="m 1897.9699,493.29802 c -42.4396,53.06552 -84.453,68.122 -102.8356,76.2633 -18.3647,8.15763 -46.1872,14.54152 -70.5196,14.54152 -68.2816,0 -121.5554,-20.50035 -159.8479,-61.30491 -38.3102,-41.0089 -57.448,-98.4802 -57.448,-173.00245 0,-88.13193 24.1464,-162.85851 72.6602,-224.55577 48.4873,-61.484741 112.7816,-92.137191 192.8832,-92.137191 60.7956,0 110.5171,15.7104 149.4401,47.31921 38.9229,31.420811 58.2912,80.848911 58.2912,148.088131 h -117.6126 c 0,-32.18916 -7.6993,-54.79024 -23.1246,-67.82775 -15.3809,-12.82498 -37.4666,-19.33966 -66.3992,-19.33966 -47.2438,0 -83.6714,21.26055 -109.691,63.59363 -25.8066,42.53743 -38.9408,90.80484 -38.9408,145.02288 0,36.97913 8.5518,67.26375 25.2027,90.61683 16.855,23.58195 42.0222,35.25441 75.5547,35.25441 34.9712,0 62.021,-9.19574 81.5935,-27.41555 19.3595,-17.99912 33.7191,-41.38491 42.8748,-69.93664 h -109.4959 l 17.7254,-98.08785 h 213.5302 l -18.1072,95.02261 c 0,0.0575 -13.4983,64.81972 -55.7691,117.88525 z m 704.3967,-77.20332 163.9327,-370.347021 146.9714,0.9727 -95.5535,524.557471 h -102.8355 l 80.9896,-406.54144 -178.5857,406.54144 h -84.2754 l -38.8963,-406.35343 -61.4526,406.35343 H 2328.5825 L 2423.692,46.720379 h 145.9056 z m 438.5161,-261.14255 -18.7378,94.8346 h 167.9292 l -17.4944,101.74162 h -167.9292 l -21.6683,111.68937 h 189.5975 l -18.7378,108.06011 H 2855.015 l 94.4878,-525.145991 h 295.2748 L 3226.7503,154.95215 Z M 2126.9076,45.747679 1897.1706,571.27785 h 111.9735 l 41.001,-102.50997 h 146.5273 l 9.5732,102.50997 h 108.4389 l -64.9426,-525.522001 -122.9053,-0.008 z m -41.2052,333.367911 83.2719,-209.01704 19.3416,209.01704 H 2085.658 Z"
     style="display:none;fill:#ffffff;stroke:none;stroke-width:0;stroke-miterlimit:4;stroke-dasharray:none;stroke-opacity:1"
     id="path1"
     inkscape:label="Game"
     sodipodi:nodetypes="ccscscsccccscscscccccccccccccccccccccccccccccccccccccccccccccccccc" /><path
     d="m 3824.848,493.29802 c -42.4574,53.06552 -84.4529,68.122 -102.8355,76.27147 -18.3648,8.14946 -46.1872,14.54153 -70.5196,14.54153 -68.2728,0 -121.5555,-20.50853 -159.848,-61.30492 -38.3102,-41.0089 -57.4653,-98.46385 -57.4653,-172.99427 0,-88.13193 24.1637,-162.85035 72.6597,-224.55577 48.4962,-61.484741 112.8084,-92.137191 192.9454,-92.137191 60.7778,0 110.5171,15.7104 149.4401,47.31921 38.9407,31.428981 58.2823,80.865251 58.2823,148.096311 h -117.577 c 0,-32.18917 -7.6815,-54.79024 -23.1247,-67.82775 -15.3809,-12.81682 -37.4665,-19.33966 -66.3991,-19.33966 -47.2438,0 -83.6714,21.26055 -109.6911,63.59363 -25.8243,42.53743 -38.923,90.80482 -38.923,145.03105 0,36.97095 8.5341,67.26375 25.1672,90.60865 16.855,23.58196 42.04,35.25441 75.5725,35.25441 34.9712,0 62.0209,-9.19573 81.5936,-27.40738 19.3593,-18.00728 33.719,-41.3849 42.8924,-69.93663 h -109.4958 l 17.6898,-98.08785 h 213.548 l -18.1072,95.0226 c 0,0.0242 -13.5871,64.78703 -55.858,117.85256 z m 238.1734,-338.35405 -18.7377,95.03078 h 167.7516 l -17.2281,101.55362 h -168.018 l -21.8459,111.68937 h 189.8639 l -18.7377,108.23993 h -298.9157 l 94.4879,-525.325811 h 295.3635 L 4248.8891,154.94397 Z M 4415.5749,45.960199 4185.7936,571.4822 h 112.2043 l 40.7968,-102.5018 h 146.7314 l 9.5555,102.5018 h 108.2436 L 4538.3737,45.960199 h -122.8165 z m -41.0275,333.147211 83.0764,-209.02521 19.5636,209.02521 h -102.6311 z m 402.3727,-102.1258 24.9807,-129.30431 h 59.9429 c 22.0592,0 38.5057,3.62926 49.5352,10.92044 11.0296,7.47104 16.4466,22.21692 16.4466,44.45016 0,24.90613 -8.9515,43.29761 -26.6413,55.56677 -17.9208,12.26097 -40.5837,18.38329 -68.0598,18.38329 l -56.2131,-0.0162 z M 4709.34,46.131859 4614.8432,571.45767 h 109.2561 l 36.6495,-200.19729 h 50.5741 l 84.5064,200.19729 h 125.2941 l -93.6798,-221.65401 c 32.6978,-15.32622 60.7955,-40.81272 80.3591,-67.43539 20.3983,-27.40739 30.5753,-59.40037 30.5753,-95.98714 0,-49.61611 -12.0507,-85.26286 -36.4275,-107.283581 -24.1459,-22.02072 -58.5043,-32.94934 -102.6135,-32.94934 l -190.0414,-0.0164 z"
     style="display:none;fill:#ffffff;stroke:none;stroke-width:0;stroke-miterlimit:4;stroke-dasharray:none;stroke-opacity:1"
     id="path2"
     inkscape:label="Gear" /></g><g
   id="g1"
   transform="translate(-0.42966701,-652.59004)"
   style="display:inline;fill:#ffffff"><path
     d="m 5221.6836,1211.6558 62.876,-512.49956 h 94.9073 l -26.0994,208.7962 h 113.8888 l 26.0996,-208.7962 h 94.9073 l -62.8761,512.49956 h -94.9075 l 25.5064,-208.7961 h -113.8888 l -25.5064,208.7961 z m 333.7196,0 186.2557,-436.57366 q 8.3044,-30.8449 30.8449,-53.3854 23.1337,-22.5405 54.5717,-22.5405 30.8449,0 49.2332,22.5405 18.3883,22.5405 21.9473,53.3854 l 36.7766,436.57366 h -94.9073 l -11.2703,-94.9073 h -125.159 l -39.1493,94.9073 z m 252.6908,-322.68486 -64.0624,132.87026 h 76.519 z m 188.3929,66.43506 q 12.4566,-104.99116 91.3483,-180.32386 79.4849,-75.9259 177.3581,-75.9259 99.6527,7.1181 134.0566,45.6742 34.4039,38.5561 42.7083,58.1307 l -88.3824,48.04691 q -42.1152,-56.9444 -100.2459,-56.9444 -58.7239,0 -106.7708,48.0468 -47.4536,47.4537 -55.1649,113.29556 -8.3044,66.43519 27.2859,113.88879 36.1834,47.4537 94.9073,47.4537 58.1308,0 115.0752,-56.3512 l 76.519,48.0468 q -12.4566,14.236 -59.317,58.7238 -46.2674,44.4879 -143.5474,44.4879 -97.8732,0 -158.3766,-75.3327 -60.5035,-75.3327 -47.4537,-180.9171 z m 426.2544,256.2498 62.8762,-512.49956 h 94.9073 l -20.761,165.4947 134.6498,-165.4947 h 94.9074 l -156.004,192.1874 93.1278,320.31216 h -94.9073 l -68.2147,-234.3024 -20.1678,25.5063 -25.5063,208.7961 z m 377.6144,-360.64776 q 7.7112,-62.283 57.5376,-106.7708 50.4195,-45.081 113.2956,-45.081 h 170.8332 l -11.8634,94.9074 h -170.8332 q -23.1336,0 -42.1151,17.2019 -18.9815,16.6088 -21.9473,39.7425 -2.9659,23.7268 11.8634,40.3356 14.8293,16.6088 37.9629,16.6088 h 18.9815 q 62.2829,0 101.4322,45.08086 39.7425,44.4879 32.0312,106.7708 -7.7112,62.876 -58.1307,107.3638 -49.8264,44.4879 -112.1093,44.4879 h -170.8332 l 11.2702,-94.9073 h 170.8332 q 23.1337,0 42.1152,-16.6089 18.9814,-16.6088 21.9473,-40.3355 2.9658,-23.1338 -11.8634,-39.7424 -14.8293,-17.202 -37.963,-17.202 h -18.9814 q -62.8761,0 -102.0254,-44.4878 -39.1493,-44.48776 -31.4381,-107.36386 z"
     id="text23"
     style="font-size:607.407px;line-height:0;font-family:NiseGameGear;-inkscape-font-specification:NiseGameGear;letter-spacing:-7.94668px;word-spacing:-19.5556px;display:none;fill:#ffffff;stroke-width:0;stroke-linecap:square;paint-order:stroke markers fill"
     aria-label="HACKS"
     inkscape:label="Hacks" /><g
     id="g22"
     style="display:inline;fill:#ffffff"
     inkscape:label="Gear"
     transform="translate(2925.9951,-928.09398)"><path
       class="st0"
       d="m 2120.5,2004.2 c 0,0 0,0 -1.4,-6.3 l -0.1,-0.3 c -1,-4.4 -2.5,-11.8 -5.2,-24 -6.6,-30.7 -29.7,-37.6 -29.7,-37.6 85.6,-47.9 81.4,-136.5 81.4,-142.4 0,-87.6 -81.8,-157.9 -149.6,-157.9 h -37.8 -53.5 c -29.6,0 -54.7,21.4 -59.4,50.6 l -74.6,462 h 104.7 l 29.6,-182.8 h 47 c 19.7,0 36.7,13.8 40.8,32.9 l 32.4,150 h 106.5 z m -133.2,-142.3 h -45.7 l 19.7,-123 h 43.1 c 20.5,0 40.7,20.5 45.2,44.9 6.8,36.5 -21.3,78.1 -62.3,78.1 z"
       id="path15"
       style="fill:#ffffff"
       inkscape:label="R" /><path
       class="st0"
       d="m 1612.8,1633.9 c -28.8,0 -57.9,15.3 -71.7,48.2 l -192.8,466.1 h 111.9 l 39.9,-96.4 h 118.1 l 8.6,96.4 h 103.8 l -39.4,-443.1 c -4,-45.8 -41.1,-71.2 -78.4,-71.2 z m -69.7,314.5 54.4,-131.4 11.7,131.4 z"
       id="path16"
       style="fill:#ffffff"
       inkscape:label="A" /><path
       class="st0"
       d="m 1362.5,1635.7 h -218.6 c -29.9,0 -55.2,21.7 -59.6,51.2 l -58.9,392.2 c -5.4,36.3 22.8,69.1 59.6,69.1 h 34.6 166 l 15.4,-103.5 h -165.7 l 14.7,-97.9 h 139.2 l 15.2,-103.5 h -139 l 15.7,-104.5 h 166.1 z"
       id="path13"
       style="fill:#ffffff"
       inkscape:label="E"
       sodipodi:nodetypes="csccsccccccccccc" /><path
       class="st0"
       d="m 981,1740.4 c 0,0 -69.1,-132.4 -199,-132.4 -161.2,0 -267.7,161.6 -273.4,281.9 -9.7,206.3 153,269.1 223.9,269.1 142.5,0 220.9,-130.2 251.4,-232 9.6,-32.2 -14.5,-64.5 -48.1,-64.5 H 892.7 774.2 L 731.3,1966 h 120.6 c -26.5,47.5 -73.9,82.5 -129.6,82.5 -28.2,0 -113,-25.6 -107.1,-150.3 4,-83.7 70.1,-186.3 166.9,-186.3 64.2,0 106.9,76.5 106.9,76.5 z"
       id="path14"
       style="fill:#ffffff"
       inkscape:label="G"
       sodipodi:nodetypes="cscscsccccscscc" /></g><g
     id="g21"
     style="display:inline;fill:#ffffff"
     inkscape:label="Game"
     transform="translate(1507.3342,-312.59398)"><path
       class="st0"
       d="m 1759.3,1020.1 h -218.6 c -29.9,0 -55.2,21.7 -59.6,51.2 l -58.9,392.2 c -5.4,36.3 22.8,69.1 59.6,69.1 h 34.6 166 l 15.4,-103.5 h -165.7 l 14.7,-97.9 H 1686 l 15.2,-103.5 h -139 l 15.7,-104.5 H 1744 Z"
       id="path8"
       style="fill:#ffffff"
       inkscape:label="E" /><path
       class="st0"
       d="m 1263.6,1060.7 -120.8,253.4 -40.8,-234 c -6.9,-40 -39.1,-60 -71.3,-60 -32.8,0 -65.5,20.6 -71.7,61.6 l -67.8,450.9 h 104.5 l 37.2,-246.6 35.6,204 c 4.9,27.9 28.2,43.2 51.7,43.2 18.5,0 37.2,-9.4 46.8,-29.7 l 94.9,-199.4 -34.3,228.5 h 104.6 l 64.8,-431.2 c 7.5,-49.4 -31.8,-81.3 -71.1,-81.3 -24.4,0 -49,12.4 -62.3,40.6 z"
       id="path10"
       style="fill:#ffffff"
       inkscape:label="M" /><path
       class="st0"
       d="m 720.8,1018.3 c -28.9,0 -57.9,15.3 -71.7,48.2 l -192.8,466.1 h 111.9 l 39.9,-96.4 h 118.1 l 8.6,96.4 h 103.8 l -39.4,-443.1 c -4.1,-45.7 -41.1,-71.2 -78.4,-71.2 z m -69.9,314.6 54.4,-131.4 11.7,131.4 z"
       id="path9"
       style="fill:#ffffff"
       inkscape:label="A" /><path
       class="st0"
       d="m 472.8,1124.9 c 0,0 -69.1,-132.4 -199,-132.4 C 112.6,992.5 6.0996031,1154.1 0.39960309,1274.4 -9.3003969,1480.7 153.4,1543.5 224.3,1543.5 c 142.5,0 220.9,-130.2 251.4,-232 9.6,-32.2 -14.5,-64.5 -48.1,-64.5 H 384.5 266 l -42.8,103.4 h 120.6 c -26.5,47.5 -73.9,82.5 -129.6,82.5 -28.2,0 -113,-25.6 -107.1,-150.3 4,-83.7 70.1,-186.3 166.9,-186.3 64.2,0 106.9,76.5 106.9,76.5 z"
       id="path11"
       style="fill:#ffffff"
       inkscape:label="G"
       sodipodi:nodetypes="cscscsccccscscc" /></g></g><path
   d="m 2338.8246,1215.4995 62.876,-512.49948 h 94.9073 l -26.0994,208.79619 h 113.8888 l 26.0996,-208.79619 h 94.9073 l -62.8761,512.49948 h -94.9075 l 25.5064,-208.7961 h -113.8888 l -25.5064,208.7961 z m 333.7196,0 186.2557,-436.57358 q 8.3044,-30.8449 30.8449,-53.3854 23.1337,-22.5405 54.5717,-22.5405 30.8449,0 49.2332,22.5405 18.3883,22.5405 21.9473,53.3854 l 36.7766,436.57358 h -94.9073 l -11.2703,-94.9073 h -125.159 l -39.1493,94.9073 z m 252.6908,-322.68479 -64.0624,132.87019 h 76.519 z m 188.3929,66.435 q 12.4566,-104.9911 91.3483,-180.32379 79.4849,-75.9259 177.3581,-75.9259 99.6527,7.1181 134.0566,45.6742 34.4039,38.5561 42.7083,58.1307 l -88.3824,48.04689 q -42.1152,-56.94439 -100.2459,-56.94439 -58.7239,0 -106.7708,48.04679 -47.4536,47.4537 -55.1649,113.2956 -8.3044,66.43509 27.2859,113.88869 36.1834,47.4537 94.9073,47.4537 58.1308,0 115.0752,-56.3512 l 76.519,48.0468 q -12.4566,14.236 -59.317,58.7238 -46.2674,44.4879 -143.5474,44.4879 -97.8732,0 -158.3766,-75.3327 -60.5035,-75.3327 -47.4537,-180.91709 z m 426.2544,256.24979 62.8762,-512.49948 h 94.9073 l -20.761,165.49469 134.6498,-165.49469 h 94.9074 l -156.004,192.18739 93.1278,320.31209 h -94.9073 l -68.2147,-234.30239 -20.1678,25.50629 -25.5063,208.7961 z m 377.6144,-360.64769 q 7.7112,-62.28299 57.5376,-106.77079 50.4195,-45.081 113.2956,-45.081 h 170.8332 l -11.8634,94.9074 h -170.8332 q -23.1336,0 -42.1151,17.2019 -18.9815,16.6088 -21.9473,39.74249 -2.9659,23.7268 11.8634,40.3356 14.8293,16.6088 37.9629,16.6088 h 18.9815 q 62.2829,0 101.4322,45.0808 39.7425,44.48789 32.0312,106.77079 -7.7112,62.876 -58.1307,107.3638 -49.8264,44.4879 -112.1093,44.4879 h -170.8332 l 11.2702,-94.9073 h 170.8332 q 23.1337,0 42.1152,-16.6089 18.9814,-16.6088 21.9473,-40.3355 2.9658,-23.1338 -11.8634,-39.7424 -14.8293,-17.202 -37.963,-17.202 h -18.9814 q -62.8761,0 -102.0254,-44.48779 -39.1493,-44.4877 -31.4381,-107.3638 z"
   id="text23-8"
   style="font-size:607.407px;line-height:0;font-family:NiseGameGear;-inkscape-font-specification:NiseGameGear;letter-spacing:-7.94668px;word-spacing:-19.5556px;display:none;fill:#ffffff;stroke-width:0;stroke-linecap:square;paint-order:stroke markers fill"
   aria-label="HACKS"
   inkscape:label="Hacks" /></svg>
