<?xml version="1.0" encoding="UTF-8" standalone="no"?>
<!-- Created with Inkscape (http://www.inkscape.org/) -->

<svg
   width="151.46913mm"
   height="27.144279mm"
   viewBox="0 0 151.46914 27.144279"
   version="1.1"
   id="svg1"
   inkscape:version="1.4 (86a8ad7, 2024-10-11)"
   sodipodi:docname="gb.svg"
   xmlns:inkscape="http://www.inkscape.org/namespaces/inkscape"
   xmlns:sodipodi="http://sodipodi.sourceforge.net/DTD/sodipodi-0.dtd"
   xmlns:xlink="http://www.w3.org/1999/xlink"
   xmlns="http://www.w3.org/2000/svg"
   xmlns:svg="http://www.w3.org/2000/svg">
  <sodipodi:namedview
     id="namedview1"
     pagecolor="#ffffff"
     bordercolor="#000000"
     borderopacity="0.25"
     inkscape:showpageshadow="2"
     inkscape:pageopacity="0.0"
     inkscape:pagecheckerboard="true"
     inkscape:deskcolor="#d1d1d1"
     inkscape:document-units="mm"
     inkscape:zoom="3.2943742"
     inkscape:cx="298.69102"
     inkscape:cy="50.540707"
     inkscape:window-width="3840"
     inkscape:window-height="2066"
     inkscape:window-x="-11"
     inkscape:window-y="-11"
     inkscape:window-maximized="1"
     inkscape:current-layer="svg1" />
  <defs
     id="defs1">
    <linearGradient
       id="linearGradient24"
       gradientUnits="userSpaceOnUse"
       x1="538.59802"
       y1="-0.713"
       x2="538.59802"
       y2="98.787003"
       gradientTransform="matrix(0.26458333,0,0,0.26458333,-2.5403671e-4,-1.7144553e-4)">
      <stop
         offset="0"
         style="stop-color:#2e5c92"
         id="stop23" />
      <stop
         offset="1"
         style="stop-color:#2e3192"
         id="stop24" />
    </linearGradient>
    <linearGradient
       id="linearGradient21"
       gradientUnits="userSpaceOnUse"
       x1="538.59802"
       y1="-0.713"
       x2="538.59802"
       y2="98.787003"
       gradientTransform="matrix(0.26458333,0,0,0.26458333,-2.5403671e-4,-1.7144553e-4)">
      <stop
         offset="0.0001"
         style="stop-color:#2e5c92"
         id="stop20" />
      <stop
         offset="1"
         style="stop-color:#2e3192"
         id="stop21" />
    </linearGradient>
    <linearGradient
       id="c"
       gradientUnits="userSpaceOnUse"
       x1="127.571"
       y1="-0.713"
       x2="127.571"
       y2="98.787003"
       gradientTransform="matrix(0.26458333,0,0,0.26458333,-2.5403671e-4,-1.7144553e-4)">
      <stop
         offset=".005"
         style="stop-color:#2e5c92"
         id="stop5" />
      <stop
         offset="1"
         style="stop-color:#2e3192"
         id="stop6" />
    </linearGradient>
    <linearGradient
       id="b"
       gradientUnits="userSpaceOnUse"
       x1="290.73801"
       y1="-0.713"
       x2="290.73801"
       y2="98.787003"
       gradientTransform="matrix(0.26458333,0,0,0.26458333,-2.5403671e-4,-1.7144553e-4)">
      <stop
         offset=".005"
         style="stop-color:#2e5c92"
         id="stop3" />
      <stop
         offset="1"
         style="stop-color:#2e3192"
         id="stop4" />
    </linearGradient>
    <linearGradient
       id="e"
       gradientUnits="userSpaceOnUse"
       x1="378.92099"
       y1="-0.713"
       x2="378.92099"
       y2="98.787003"
       gradientTransform="matrix(0.26458333,0,0,0.26458333,-2.5403671e-4,-1.7144553e-4)">
      <stop
         offset=".005"
         style="stop-color:#2e5c92"
         id="stop9" />
      <stop
         offset="1"
         style="stop-color:#2e3192"
         id="stop10" />
    </linearGradient>
    <linearGradient
       id="d"
       gradientUnits="userSpaceOnUse"
       x1="458.99399"
       y1="-0.713"
       x2="458.99399"
       y2="98.787003"
       gradientTransform="matrix(0.26458333,0,0,0.26458333,-2.5403671e-4,-1.7144553e-4)">
      <stop
         offset=".005"
         style="stop-color:#2e5c92"
         id="stop7" />
      <stop
         offset="1"
         style="stop-color:#2e3192"
         id="stop8" />
    </linearGradient>
    <linearGradient
       id="a"
       gradientUnits="userSpaceOnUse"
       x1="527.771"
       y1="-0.713"
       x2="527.771"
       y2="98.787003"
       gradientTransform="matrix(0.26458333,0,0,0.26458333,-2.5403671e-4,-1.7144553e-4)">
      <stop
         offset=".005"
         style="stop-color:#2e5c92"
         id="stop1" />
      <stop
         offset="1"
         style="stop-color:#2e3192"
         id="stop2" />
    </linearGradient>
    <linearGradient
       id="f"
       gradientUnits="userSpaceOnUse"
       x1="538.59802"
       y1="-0.713"
       x2="538.59802"
       y2="98.787003"
       gradientTransform="matrix(0.26458333,0,0,0.26458333,-2.5403671e-4,-1.7144553e-4)">
      <stop
         offset="0"
         style="stop-color:#2e5c92"
         id="stop11" />
      <stop
         offset="1"
         style="stop-color:#2e3192"
         id="stop12" />
    </linearGradient>
    <linearGradient
       id="g"
       gradientUnits="userSpaceOnUse"
       x1="539.14398"
       y1="-0.713"
       x2="539.14398"
       y2="98.787003"
       gradientTransform="matrix(0.26458333,0,0,0.26458333,-2.5403671e-4,-1.7144553e-4)">
      <stop
         offset=".005"
         style="stop-color:#2e5c92"
         id="stop13" />
      <stop
         offset="1"
         style="stop-color:#2e3192"
         id="stop14" />
    </linearGradient>
    <linearGradient
       inkscape:collect="always"
       xlink:href="#linearGradient24"
       id="linearGradient20"
       gradientUnits="userSpaceOnUse"
       x1="142.50026"
       y1="-0.17601554"
       x2="142.50392"
       y2="26.099461" />
  </defs>
  <ellipse
     style="display:none;fill:none;fill-opacity:1;stroke:#000000;stroke-width:0.244156;stroke-linecap:round;stroke-miterlimit:4.5;stroke-dasharray:none;stroke-opacity:1;paint-order:fill markers stroke"
     id="path15"
     cx="143.0043"
     cy="24.11017"
     inkscape:label="Circle"
     rx="1.8674222"
     ry="1.8674223" />
  <path
     id="path16"
     style="display:none;fill:#ffffff;stroke-linecap:round;stroke-miterlimit:4.5;paint-order:fill markers stroke"
     d="m 143.00434,22.365578 c -0.96538,0 -1.74614,0.778707 -1.74614,1.74408 0,0.965373 0.78076,1.746146 1.74614,1.746146 0.96537,0 1.74615,-0.780773 1.74615,-1.746146 0,-0.965373 -0.78078,-1.74408 -1.74615,-1.74408 z"
     inkscape:label="CircleInnerFill" />
  <g
     id="g25"
     inkscape:label="GameboyOutline"
     style="display:none"
     transform="translate(0.50038248,0.53331858)">
    <path
       id="path1"
       style="display:inline;fill:#000000;stroke-width:0.264583"
       inkscape:label="GAM"
       d="M 16.490234,-0.41015625 C 11.467294,-0.13939039 6.2474409,1.6828429 2.9433594,5.6289062 0.26154711,8.8948508 -0.98959691,13.339782 -0.32472209,17.518149 c 0.74211373,3.934284 3.95498339,7.04619 7.66668839,8.3105 3.5142457,1.229702 7.4635827,0.948286 10.8943617,-0.414587 -0.374349,0.494072 0.225576,0.964623 0.71875,0.8125 2.011818,-0.07072 4.038352,-5.77e-4 6.056641,-0.02539 0.967617,-2.512555 1.936277,-5.024709 2.904297,-7.53711 1.503255,0 3.00651,10e-7 4.509765,0 0.312054,2.512425 0.627687,5.024413 0.9375,7.53711 3.503255,0 7.006511,0 10.509766,0 1.303596,-4.026184 2.608146,-8.05206 3.912109,-12.078125 0.640534,4.026056 1.281794,8.051997 1.921875,12.078125 1.972657,0 3.945313,0 5.917969,0 1.637686,-4.234104 3.277508,-8.467385 4.916016,-12.701172 0.272708,4.233729 0.546042,8.467418 0.818359,12.701172 2.236328,0 4.472656,0 6.708984,0 -0.546322,-8.828729 -1.090434,-17.6575966 -1.636718,-26.48632825 -2.535157,0 -5.070313,0 -7.605469,0 C 57.267253,3.6884176 55.710449,7.6628243 54.152344,11.636719 53.547201,7.6628106 52.944647,3.6885029 52.337891,-0.28515625 c -2.292969,0 -4.585938,0 -6.878907,0 C 43.360642,6.0501173 41.266607,12.386829 39.169922,18.722656 38.384528,12.386669 37.595832,6.0510817 36.8125,-0.28515625 c -2.78776,0 -5.575521,0 -8.363281,0 C 26.132179,5.5375076 23.816512,11.360719 21.5,17.183594 c 0.205427,-1.532505 0.408011,-3.065395 0.615234,-4.597656 -3.757161,0 -7.514323,-1e-6 -11.271484,0 -0.284114,2.026186 -0.569271,4.052231 -0.8554688,6.078124 1.4765628,0 2.9531248,0 4.4296878,0 -0.02125,0.417429 -3.69e-4,1.024254 -0.601563,0.97461 -2.37637,0.609506 -5.3679446,0.132204 -6.7840947,-2.06308 C 5.4941668,15.062839 6.3698466,11.708786 8.3313411,9.6836271 11.496102,6.2579561 16.657485,5.3121384 21.059863,6.4462951 c 0.613951,0.1450342 1.213042,0.3444299 1.819043,0.5185487 0.341277,-2.155887 0.688343,-4.3108604 1.029297,-6.46679692 -2.378793,-0.82293355 -4.916665,-1.0248253 -7.417969,-0.90820313 z M 31.664062,12.585938 c -0.520103,-0.06253 -1.623598,0.280014 -1.020806,-0.562176 0.240659,-0.645291 0.481319,-1.290581 0.721978,-1.935871 0.09961,0.832682 0.199219,1.665364 0.298828,2.498047 z" />
    <path
       id="path3"
       style="display:inline;fill:#000000;stroke-width:0.264583"
       inkscape:label="E"
       d="M 70.78125,-0.05859375 C 69.564531,8.6953223 68.349875,17.449532 67.130859,26.203125 c 5.275391,0 10.550782,0 15.826172,0 0.311085,-2.236343 0.620219,-4.472963 0.933594,-6.708984 -2.986328,0 -5.972656,0 -8.958984,0 0.139323,-1.113282 0.278645,-2.226563 0.417968,-3.339844 2.588542,0 5.177084,0 7.765625,0 0.311039,-2.235047 0.620276,-4.470351 0.933594,-6.7050782 -2.565104,0 -5.130208,-1e-7 -7.695312,0 0.134765,-1.0091146 0.269531,-2.0182292 0.404296,-3.0273438 2.979818,0 5.959636,0 8.939454,0 0.344189,-2.2354078 0.683534,-4.4715639 1.027343,-6.70703125 -5.304036,0 -10.608073,0 -15.912109,0 -0.01042,0.0755208 -0.02083,0.15104167 -0.03125,0.2265625 z" />
    <path
       id="path5"
       style="display:inline;fill:#000000;stroke-width:0.264583"
       inkscape:label="B"
       d="m 93.412109,-0.28320312 c -0.511133,0.0588568 -0.238792,1.01749744 -0.430557,1.44361442 -1.160165,8.3475293 -2.317937,16.6953947 -3.479599,25.0427137 4.405431,-0.04375 8.816605,0.08754 13.218277,-0.08135 3.53064,-0.36169 6.72654,-3.045746 7.51396,-6.536993 0.70318,-2.532654 0.27252,-5.585893 -1.64825,-7.438298 1.54039,-0.845774 2.01341,-2.7477464 2.22696,-4.369691 0.80121,-3.8257314 -2.43432,-7.82489949 -6.28438,-8.05252881 -3.70548,-0.008707 -7.41093,-0.0107701 -11.116411,-0.007467 z M 102.48438,6.421875 c 1.08282,-0.057274 1.83143,1.396045 1.02734,2.1933594 -0.97101,1.1707112 -2.64969,0.7615017 -3.97907,0.8318164 -0.595667,0.1292271 -1.000949,-0.038311 -0.716979,-0.7033434 0.103761,-0.7739442 0.207521,-1.5478883 0.311282,-2.3218324 1.119137,0 2.238277,0 3.357427,0 z m -0.15626,9.734375 c 1.08958,-0.04778 1.78798,1.355642 1.08008,2.193359 -0.65482,1.181159 -2.15778,1.22492 -3.34375,1.146485 -0.917315,0 -1.834632,0 -2.75195,0 0.158854,-1.113281 0.317708,-2.226563 0.476562,-3.339844 1.513021,0 3.026038,0 4.539058,0 z" />
    <path
       id="path7"
       style="display:inline;fill:#000000;stroke-width:0.264583"
       inkscape:label="O"
       d="m 122.7207,-0.52929688 c -4.3204,-0.12473289 -8.3657,2.66559798 -10.25726,6.47187988 -1.77973,3.3866108 -2.62739,7.285251 -2.3537,11.103907 0.29443,3.240582 2.1055,6.414587 5.06198,7.912636 3.85078,2.115607 8.87949,1.59553 12.30726,-1.116048 3.27398,-2.513535 4.9543,-6.61153 5.26241,-10.645061 0.39015,-3.7750971 -0.24667,-7.958817 -2.95696,-10.8016027 -1.82263,-1.89290733 -4.45925,-2.88994608 -7.06373,-2.92571118 z m -0.41601,6.48046878 c 1.9937,-0.045424 3.61772,1.7551567 3.76765,3.6721407 0.38531,2.4980114 -0.0657,5.1287004 -1.19388,7.3818914 -1.04816,1.934364 -3.44774,3.410387 -5.64535,2.577665 -1.53049,-0.571145 -2.29841,-2.212237 -2.3295,-3.764625 -0.16083,-2.4445 0.38318,-4.953181 1.53456,-7.1129777 0.8085,-1.4030932 2.1444,-2.7303021 3.86652,-2.7540944 z" />
    <path
       id="path9"
       style="display:inline;fill:#000000;stroke-width:0.264583"
       inkscape:label="Y"
       d="m 128.625,0.08984375 c 1.99966,4.31756585 3.99865,8.63544045 5.99805,12.95312525 -0.59649,4.386701 -1.19193,8.773544 -1.78907,13.160156 2.31901,0 4.63803,0 6.95704,0 0.50864,-3.829093 1.02254,-7.657499 1.5332,-11.486328 3.21497,-5.0005668 6.42889,-10.0018126 9.64453,-15.00195325 -2.58919,0 -5.17839,0 -7.76758,0 -1.44398,2.21313185 -2.88661,4.42715195 -4.33008,6.64062505 -0.96212,-2.2135932 -1.92519,-4.426775 -2.88671,-6.64062505 -2.51107,0 -5.02214,0 -7.53321,0 0.0579,0.125 0.11589,0.25 0.17383,0.375 z" />
    <path
       id="path25"
       style="display:none;fill:#000000;stroke:none;stroke-linecap:round;stroke-miterlimit:4.5;paint-order:fill markers stroke"
       inkscape:label="Circle"
       d="m 142.49023,21.324219 c -1.55112,-0.05551 -2.72692,1.742052 -2.05859,3.140625 0.56224,1.475617 2.73318,1.842734 3.7414,0.62355 1.12212,-1.129008 0.52563,-3.270435 -1.01288,-3.666519 -0.21725,-0.06504 -0.44328,-0.10084 -0.66993,-0.09766 z m 0.15235,0.779297 c 1.21422,0.04623 1.80385,1.726102 0.90039,2.527343 -0.80967,0.886538 -2.46361,0.283342 -2.51367,-0.916015 -0.10866,-0.89822 0.71531,-1.719116 1.61328,-1.611328 z" />
    <path
       fill="url(#g)"
       d="m 142.0384,22.658479 h 0.63553 c 0.27649,0 0.57732,0.0413 0.57732,0.3855 0,0.4527 -0.48366,0.40111 -0.7964,0.40111 l -0.41645,-5.3e-4 v 0.21405 h 0.50085 l 0.635,1.02605 h 0.32253 l -0.67178,-1.02605 c 0.39582,-0.0101 0.70274,-0.17145 0.70274,-0.60907 0,-0.18786 -0.0828,-0.3855 -0.24951,-0.47969 -0.16642,-0.0987 -0.35454,-0.10901 -0.54213,-0.10901 h -0.96731 v 2.22329 h 0.26987 v -2.02565 z"
       id="path13"
       inkscape:label="R"
       style="display:inline;fill:#000000;stroke-width:0.264583" />
  </g>
  <g
     id="g1"
     style="display:inline"
     inkscape:label="Gameboy"
     transform="translate(0.50038248,0.53331858)">
    <path
       fill="url(#c)"
       d="m 29.671708,13.113899 1.96215,-5.2583304 0.628386,5.2583304 z m -2.119048,5.02365 h 5.337175 l 0.942711,7.53533 h 9.654116 l 4.474104,-13.81469 2.198423,13.81469 h 5.10196 l 5.651231,-14.59944 0.94219,14.59944 H 67.5058 L 65.93576,0.24138855 H 59.18518 L 53.926591,13.663179 51.885331,0.24138855 H 45.841718 L 38.934771,21.120189 36.344235,0.24138855 h -7.535333 l -8.398933,21.11375045 1.099079,-8.2415 H 11.305127 l -0.706967,5.02364 h 4.474634 l -0.314325,1.72667 c -0.785019,0.47043 -2.590006,0.54901 -3.296444,0.54901 -0.706437,0 -5.965031,-0.47043 -5.729817,-6.12219 C 5.967423,8.6395286 13.502756,3.3806786 22.4507,6.2847386 L 23.314829,0.86871855 C 17.349004,-1.1714814 1.680908,-0.02954145 0.08044396,13.977239 c -0.941652,8.24124 6.59368104,12.16607 11.61679604,12.08828 2.904331,0.15716 6.201304,-0.94218 7.378435,-1.5703 l -0.392113,1.17766 h 5.965561 z"
       id="path6"
       inkscape:label="GAM"
       style="fill:url(#c);stroke-width:0.264583" />
    <path
       fill="url(#b)"
       d="m 82.4963,25.675259 0.78502,-5.65414 H 74.3347 l 0.54927,-4.39341 h 7.76949 l 0.78608,-5.6515004 h -7.69197 l 0.54981,-4.08252 h 8.94609 L 86.1076,0.24244855 H 71.27294 L 67.74075,25.675259 Z"
       id="path4"
       inkscape:label="E"
       style="fill:url(#b);stroke-width:0.264583" />
    <path
       fill="url(#e)"
       d="m 98.11598,9.9762086 h 3.29697 c 2.43337,0 2.90433,-1.57004 2.98212,-2.19737 0.0786,-0.62838 -0.62733,-1.88436 -1.88304,-1.88436 H 98.66578 Z M 96.70337,20.022699 h 4.47463 c 2.43231,0 2.98185,-1.8833 3.05964,-2.51169 0.0791,-0.62785 -0.62733,-1.88304 -1.88304,-1.88304 h -5.02285 z m -6.59289,5.65177 3.53219,-25.43122045 h 10.83151 c 2.59106,0 6.3582,2.98291005 5.88751,6.98579005 -0.4707,4.0031504 -1.72694,4.2386304 -2.59054,4.8664804 1.33482,1.1766 2.66912,3.0607 2.11984,6.59289 -0.5498,3.53298 -3.45413,6.98579 -8.55609,6.98579 z"
       id="path10"
       inkscape:label="B"
       style="fill:url(#e);stroke-width:0.264583" />
    <path
       fill="url(#d)"
       d="m 122.9204,0.00723855 c -4.08199,-0.15716 -9.96897,2.19763005 -11.93112,11.69564045 -1.96215,9.49695 3.29644,13.3432 8.16292,13.97106 4.86728,0.62785 11.69591,-2.43311 12.95162,-11.53822 C 133.36006,5.0303486 128.8849,0.24297855 122.9204,0.00723855 Z m -0.62812,5.41602005 c 1.64809,0 5.18001,1.09908 4.31641,7.6917004 -0.8636,6.59342 -4.9448,7.37844 -6.43625,7.22101 -1.49199,-0.15716 -4.55269,-1.1766 -3.68909,-7.22101 0.86307,-6.0433504 4.08093,-7.7702804 5.80893,-7.6917004 z"
       id="path8"
       inkscape:label="O"
       style="fill:url(#d);stroke-width:0.264583" />
    <path
       fill="url(#a)"
       d="m 129.27913,0.24244855 h 6.35767 l 3.14034,7.22260005 4.70932,-7.22260005 h 6.51272 l -9.18289,14.28644045 -1.49093,11.14637 h -5.88645 l 1.72667,-12.71799 z"
       id="path2"
       inkscape:label="Y"
       style="fill:url(#a);stroke-width:0.264583" />
    <path
       style="display:inline;fill:url(#linearGradient20);stroke:none;stroke-linecap:round;stroke-miterlimit:4.5;paint-order:fill markers stroke"
       d="m 142.50391,21.587891 c -1.09733,0 -1.99024,0.890956 -1.99024,1.988281 0,1.097325 0.89291,1.990234 1.99024,1.990234 1.09732,0 1.99023,-0.892909 1.99023,-1.990234 0,-1.097325 -0.89291,-1.988281 -1.99023,-1.988281 z m 0,0.24414 c 0.96537,0 1.74609,0.778768 1.74609,1.744141 0,0.965373 -0.78072,1.746094 -1.74609,1.746094 -0.96538,0 -1.7461,-0.780721 -1.7461,-1.746094 0,-0.965373 0.78072,-1.744141 1.7461,-1.744141 z"
       id="path17"
       sodipodi:nodetypes="ssssssssss"
       inkscape:label="Circle" />
    <path
       fill="url(#g)"
       d="m 142.0384,22.658479 h 0.63553 c 0.27649,0 0.57732,0.0413 0.57732,0.3855 0,0.4527 -0.48366,0.40111 -0.7964,0.40111 l -0.41645,-5.3e-4 v 0.21405 h 0.50085 l 0.635,1.02605 h 0.32253 l -0.67178,-1.02605 c 0.39582,-0.0101 0.70274,-0.17145 0.70274,-0.60907 0,-0.18786 -0.0828,-0.3855 -0.24951,-0.47969 -0.16642,-0.0987 -0.35454,-0.10901 -0.54213,-0.10901 h -0.96731 v 2.22329 h 0.26987 v -2.02565 z"
       id="path14"
       inkscape:label="R"
       style="display:inline;fill:url(#g);stroke-width:0.264583" />
  </g>
</svg>
