<?xml version="1.0" encoding="UTF-8" standalone="no"?>
<!-- Generator: Adobe Illustrator 25.2.3, SVG Export Plug-In . SVG Version: 6.00 Build 0)  -->

<svg
   version="1.1"
   id="Layer_1"
   x="0px"
   y="0px"
   viewBox="0 0 5000 3000"
   xml:space="preserve"
   sodipodi:docname="megaduck.svg"
   width="5000"
   height="3000"
   inkscape:version="1.4 (86a8ad7, 2024-10-11)"
   xmlns:inkscape="http://www.inkscape.org/namespaces/inkscape"
   xmlns:sodipodi="http://sodipodi.sourceforge.net/DTD/sodipodi-0.dtd"
   xmlns="http://www.w3.org/2000/svg"
   xmlns:svg="http://www.w3.org/2000/svg"><defs
   id="defs11">
	
	

		
		
		
		
		
		
		
		
	
		
		
	</defs><sodipodi:namedview
   id="namedview11"
   pagecolor="#ffffff"
   bordercolor="#000000"
   borderopacity="0.25"
   inkscape:showpageshadow="2"
   inkscape:pageopacity="0.0"
   inkscape:pagecheckerboard="true"
   inkscape:deskcolor="#d1d1d1"
   inkscape:zoom="0.41946771"
   inkscape:cx="2412.5814"
   inkscape:cy="1205.0987"
   inkscape:window-width="3840"
   inkscape:window-height="2066"
   inkscape:window-x="-11"
   inkscape:window-y="-11"
   inkscape:window-maximized="1"
   inkscape:current-layer="Layer_1" />
<style
   type="text/css"
   id="style1">
	.st0{fill:#0D1415;}
	.st1{fill:#FFFFFF;}
	.st2{fill:#636363;}
	.st3{fill:#3CC7C7;}
</style>
<path
   class="st3"
   d="m 610.93983,493.39895 c -15.7,17.27 -24.35,39.76 -24.55,63.09 l -5.89,708.03995 c 0,52.3601 87.89,99.5801 87.89,99.5801 22.37,14.7 67.09,-6.5701 68.14,-33.31 l 12.29,-643.85005 c 0.12,-6.53 5.23,-11.88 11.75,-12.31 l 0.38,-0.03 c 7.29,-0.48 13.46,5.29 13.41,12.59 -0.21,33.01 0.41,117.68 11.61,144.18 21.5,50.85 93.61,291.30005 105.15,374.99005 5.61,40.6699 -20.3,107.95 40.7,154.93 11.38,8.76 40.22,18.81 57.22,5.22 26.42997,-21.12 70.27997,-60.39 94.66997,-79.71 15.25,-12.08 25.15,-29.63 27.63,-48.93 0,0 -0.34,-24.27 14.73,-58.9 61.43,-141.1901 197.02,-487.50005 222.29,-544.86005 18.99,-43.11 44.18,-59.61 44.18,-59.61 8.44,-7.58 21.9,-2.02 22.54,9.31 l 35.06,783.40005 c 0.42,73.73 137.58,69.1099 134.15,-5.1101 l 3.42,-900.94995 c -0.11,-22.25 -18.17,-40.22 -40.42,-40.22 h -201.04 c -21,0 -40.75,10 -53.17,26.94 0,0 -106.18,114.19 -123.54,157.49 -28.79,71.78 -9.66,83.33 -25.24,123.42 -18.83,48.45 -51.98,147.97 -74.33,195.15 -19.17,40.47 -28.34,111.26005 -35.06,137.32005 -2.93,11.35 -18.95,11.45 -22.05,0.15 -14.05997,-51.31 -27.94997,-162.60005 -96.45997,-320.70005 -10.9,-25.15 -36.28,-203.9 -47.1,-282.66 -2.92,-21.25 -21.3,-36.86 -42.73,-36.29 -43.31,1.15 -110.72,3.64 -128.72,8.3 -31.88,8.23 -65.17,39.42 -86.91,63.34 z"
   id="path3"
   inkscape:label="M" /><path
   class="st3"
   d="m 2275.4198,1331.839 c -158.45,-5.49 -347.66,-60.8 -476.43,-126.82 -12.77,-6.55 -18.92,-21.56 -20.07,-35.87 l -7.58,-43.5 c -1.4,-17.27 7.35,-33.73 22.44,-42.24 30.56,-17.25 101.98,-29.26 154.6,-47.49 74.64,-25.86 157.66,-87.25005 154.61,-185.84005 -2.9,-93.95 -65.28,-152.16 -134,-151.46 -45.42,0.46 -143.8,-2.99 -184.46,44.88 -43.48,51.19 -164.09,60.6 -164.09,153.37 l 14.73,312.26005 c 2.63,53.35 26.84,95.59 75.73,117.11 97.36,42.84 276.18,113.62 326.81,112.2 75.03,-2.1 156.79,-1.18 198.45,9.1199 124.81,30.84 134.17,-112.43 39.26,-115.7199 z m -510.53,-377.26005 c -10.89,-17.58 21.59,-69.4 53.29,-96.77 20.31,-17.53 63.11,-21.04 99.58,-25.95 36.47,-4.91 28.75,29.45 28.75,29.45 0,0 -13.32,37.66 -35.06,56.1 -21.74,18.44 -37.14,13.3 -71.5,25.95 -33.1,12.18 -65.94,25.94 -75.06,11.22 z"
   id="path4"
   inkscape:label="e" /><path
   class="st3"
   d="m 2647.7498,802.40895 c 20.17,-35.36 -5.61,-82.04 -112.9,-50.49 -59.28,17.44 -66,14.64 -123.9,42.12 -53.1,25.2 -174.98,130.3 -189.55,156.33 -56.1,100.28005 -40.74,105.19005 -40.74,222.23005 0,118.35 231.5,181.63 453.77,155.74 0,0 44.18,-9.12 27.35,30.85 -16.83,39.97 -25.11,58.04 -46.28,86.95 -21.74,29.69 -124.4,92.04 -227.11,64.57 -25.97,-6.95 -52.44,-11.6501 -79.33,-11.97 -61.48,-0.74 -156.35,11.5499 -156.35,51.19 0,58.9 77.84,60.31 77.84,60.31 0,0 163.39,14.02 206.87,14.02 115.67,0 394.1,-38.57 394.1,-183.02 0,-144.4501 13.29,-607.27005 32.93,-679.50005 10.92,-40.17 29.99,-72.52 7.55,-92.85 -22.44,-20.33 -99.91,-12.55 -120.45,45.17 -5.86,16.46 -37.17,85.55 -37.17,85.55 -16.56,38.56 -29.51,76.57 -28.05,118.51 2.58,74.4 5.96,188.17995 -10.52,217.38005 -19.73,34.95 -153.51,81.68 -257.35,48.3899 -40.96,-13.1299 -73.63,-37.31 -75.03,-101.6799 -3.27,-149.37005 263.71,-208.61005 304.32,-279.80005 z"
   id="path5"
   inkscape:label="g" /><path
   class="st3"
   d="m 2898.1598,959.71895 c 1.88,-50.5 -3.57,-95.83 53.08,-152.9 148.57,-149.66 176.96,-142.55 249.82,-142.55 175.78,0 207.94,87.12 159.88,133.7 -60.77,58.9 -63.78,-10.6 -169.96,-4.21 -48.55,2.92 -78.17,38.38 -136.48,138.66 -14.52,24.96 -9.84,59.08 -9.84,78.72005 v 90.27 c 0,73.82 80.18,133.66 111.73,133.66 44.11,0 87.26,-100.38 123.42,-151 14.02,-19.63 14.05,-59.35 33.19,-69.75 19.63,-10.6601 10.28,-35.91005 20.1,-59.28005 11.76,-28 48.62,-92.23 48.62,-110.8 0,0 6.54,-121.08 26.1,-163.24 14.87,-32.05 41.06,-76.58 70,-76.58 47.68,0 95.62,-5.48 81.34,40.2 -32.72,104.72 -26.1,98.85 -26.1,160.37 0,85.99 -1.59,312.71005 0.59,378.18005 1.15,34.38 6.55,70.96 21.32,102.03 16.36,34.42 35.51,86.37 14.47,107.41 -32.72,32.72 -49.35,60.77 -113.86,-4.67 -55.36,-56.16 -78.83,-108.95 -74.8,-143.05 0.93,-7.8201 -8.23,-12.97 -14.27,-7.93 -5.09,4.24 -43.23,133.21 -194.43,133.21 -162.02,0 -274.18,-171.1 -274.18,-304.8 -0.01,-51.8 -0.95,-73.32005 0.26,-105.65005 z"
   id="path6"
   inkscape:label="a" /><path
   class="st3"
   d="m 1640.7698,1531.459 c 71.53,16.3599 260.21,48.8 337.2,64.76 38.4,7.96 74.91,23.16 107.57,44.88 45.42,30.19 104.71,74.18 113.21,103.07 18.33,62.31 48.87,95.37 48.87,260.8599 0,165.49 22.18,241.2301 -39.52,277.6901 -52.93,31.2799 -149.2,105.8899 -261.66,120 -49.12,6.1599 -97.12,19.27 -142.37,39.3499 l -320.12,142.0101 c -39.7,17.61 -83.14,-15.7601 -76.35,-58.66 l 70.48,-492.33 c 3.27,-20.7 12.07,-46.67 19.17,-66.38 7.29,-20.25 13.53,-51.83 -3.81,-78.41 -28.05,-43.01 -36.4,-57.17 -30.79,-95.5 5.61,-38.33 -4.07,-101.49 91.89,-92.56 40.2,3.74 113.13,106.59 113.13,178.58 0,61.57 -53.34,370.03 -68.79,458.0399 -1.87,10.6301 8.29,19.3801 18.54,16.0101 l 211.77,-75.75 c 20.77,-6.83 59.52,-24.73 76.64,-38.33 28.07,-22.31 72.67,-52.36 116.41,-62.1801 44.64,-10.02 46.24,-135.7199 45.81,-200.0899 -0.15,-22.21 -6.61,-43.87 -18.75,-62.47 -35.94,-55.08 -83.93,-131.65 -142.53,-166.13 -46.08,-27.11 -296.13,-84.15 -393.36,-77.6 -64.24,4.32 -91.55,-75.16 -98.44,-131.37 -3.24,-26.42 19.95,-48.77 46.16,-44.15 60.68,10.68 108.89,20.48 179.64,36.66 z"
   id="path7"
   inkscape:label="D" /><path
   class="st3"
   d="m 2942.0698,2183.6089 c -22.44,-62.6399 -3.74,-199.1499 -3.74,-199.1499 9.35,-58.9001 -37.4,-84.1501 -92.56,-84.1501 -55.16,0 -23.17,160.35 -38.6,228.1401 -49.56,217.7799 -115.94,194.48 -214.78,194.48 -96.57,0 -153.41,-138.35 -160.61,-211.31 -7.48,-75.73 15.69,-139.31 -4.88,-236.55 -13.34,-63.06 -69.14,-63.93 -104.24,-59.84 -18.5,2.16 -31.6,19.11 -29.47,37.62 4.98,43.15 10.65,126.06 13.04,154.19 9.77,115.02 -9.09,311.68 110.59,381.7999 0,0 106.38,69.19 199.88,69.19 106.32,0 164.05,-40.7199 209.73,-60.5 13.38,-5.7999 28.61,1.6 32.63,15.62 9.3,32.4101 30.82,84.15 71.06,84.15 24.78,0 79.27,-17.69 79.27,-54.7 -0.01,-51.42 -52.14,-216.58 -67.32,-258.99 z"
   id="path8"
   inkscape:label="u" /><path
   class="st3"
   d="m 3579.6798,1813.639 c -53.12,-56.62 -125.48,-100.32 -265.49,-108.73 -153.06,-9.2 -317.89,169.23 -317.89,374.9299 0,205.7001 159.88,386.1501 357.16,386.1501 197.28,0 323.5,-107.52 316.96,-143.9901 -2.26,-12.5899 -12.27,-27.97 -44.88,-28.0499 -61.83,-0.1501 -188.17,46.1999 -270.21,49.79 -112.2,4.9099 -220.66,-143.29 -220.66,-239.5901 0,-99.1099 72.65,-276.4199 219.95,-275.12 79.24,0.7001 114.57,32.02 155.91,61.01 32,22.4301 128.24,-13.43 69.15,-76.3999 z"
   id="path9"
   inkscape:label="c" /><path
   class="st3"
   d="m 4383.3398,2362.659 c -15.56,-15.2001 -99.87,-69.69 -112.93,-78.54 -10.19,-6.9101 -9.58,-27.8201 19.17,-34.13 28.75,-6.31 63.81,-60.54 56.1,-90.6901 -7.71,-30.15 -76.64,-147.96 -213.38,-147.96 -100.28,0 -99.42,38.56 -180.92,48.39 -25.67,3.1 -61.09,19.34 -93.29,32.2601 -10.86,4.3599 -23.06,-1.9101 -25.97,-13.25 0,0 -11.32,-75.76 -19.38,-99.8901 -21.54,-64.46 -29.11,-137.96 -3.07,-224.71 9.4,-31.31 -36.95,-74.21 -95.57,-29.14 -74.8,57.5 -28.98,205.7 -28.98,233.75 0,65.92 15.95,144.22 15.89,210.84 -0.05,60.28 14.91,155.95 15.43,223.93 0.89,117.8 126.95,96.77 126.95,27.35 v -125.99 c 0,-14.82 14.88,-25.01 28.7,-19.65 0,0 302.05,114.08 329.4,143.53 27.35,29.45 146.29,78.07 193.28,47.22 46.98,-30.85 17.76,-74.8 -11.43,-103.3199 z m -202.92,-159.92 c -53.99,34.3599 -121.9,5.3699 -167.13,0.04 -91.05,-10.74 -67.45,-41.22 -39.4,-41.22 41.27,0 69.52,-22.3599 164.22,-22.3599 36.01,0 95.26,29.8499 42.31,63.54 z"
   id="path10"
   inkscape:label="k" /><path
   class="st3"
   d="m 3714.9998,516.79895 h -27.47 v -82.41 h -22.71 v -23.27 h 72.88 v 23.27 h -22.71 v 82.41 z"
   id="path1"
   inkscape:label="T" /><path
   class="st3"
   d="m 3759.2898,411.11895 h 27.05 l 21.45,56.49 22.7,-56.49 h 27.33 l 15.98,105.68 h -27.47 l -7.71,-60.83 h -0.28 l -25.37,60.83 h -10.93 l -24.25,-60.83 h -0.28 l -8.83,60.83 h -27.33 z"
   id="path2"
   inkscape:label="M" />
</svg>
