<?xml version="1.0" encoding="UTF-8" standalone="no"?>
<!-- Created with Inkscape (http://www.inkscape.org/) -->

<svg
   width="795.49994mm"
   height="126.98943mm"
   viewBox="0 0 795.49993 126.98943"
   version="1.1"
   id="svg1"
   inkscape:version="1.4 (86a8ad7, 2024-10-11)"
   xml:space="preserve"
   sodipodi:docname="mpu1000-w.svg"
   xmlns:inkscape="http://www.inkscape.org/namespaces/inkscape"
   xmlns:sodipodi="http://sodipodi.sourceforge.net/DTD/sodipodi-0.dtd"
   xmlns="http://www.w3.org/2000/svg"
   xmlns:svg="http://www.w3.org/2000/svg"><sodipodi:namedview
     id="namedview1"
     pagecolor="#ffffff"
     bordercolor="#000000"
     borderopacity="0.25"
     inkscape:showpageshadow="2"
     inkscape:pageopacity="0.0"
     inkscape:pagecheckerboard="true"
     inkscape:deskcolor="#d1d1d1"
     inkscape:document-units="mm"
     inkscape:zoom="0.58236858"
     inkscape:cx="1596.9268"
     inkscape:cy="598.41827"
     inkscape:window-width="3840"
     inkscape:window-height="2066"
     inkscape:window-x="-11"
     inkscape:window-y="-11"
     inkscape:window-maximized="1"
     inkscape:current-layer="svg1"
     showguides="true" /><defs
     id="defs1"><marker
       id="DistanceX"
       orient="auto"
       refX="0"
       refY="0"
       style="overflow:visible"><path
         d="M 3,-3 -3,3 M 0,-5 V 5"
         style="stroke:#000000;stroke-width:0.5"
         id="path1" /></marker><pattern
       id="Hatch"
       patternUnits="userSpaceOnUse"
       width="8"
       height="8"
       x="0"
       y="0"><path
         d="M8 4 l-4,4"
         stroke="#000000"
         stroke-width="0.25"
         linecap="square"
         id="path2" /><path
         d="M6 2 l-4,4"
         stroke="#000000"
         stroke-width="0.25"
         linecap="square"
         id="path3" /><path
         d="M4 0 l-4,4"
         stroke="#000000"
         stroke-width="0.25"
         linecap="square"
         id="path4" /></pattern><symbol
       id="*Model_Space" /><symbol
       id="*Paper_Space" /><symbol
       id="*Paper_Space0" /><marker
       id="DistanceX-0"
       orient="auto"
       refX="0"
       refY="0"
       style="overflow:visible"><path
         d="M 3,-3 -3,3 M 0,-5 V 5"
         style="stroke:#000000;stroke-width:0.5"
         id="path1-9" /></marker><pattern
       id="Hatch-4"
       patternUnits="userSpaceOnUse"
       width="8"
       height="8"
       x="0"
       y="0"><path
         d="M8 4 l-4,4"
         stroke="#000000"
         stroke-width="0.25"
         linecap="square"
         id="path2-8" /><path
         d="M6 2 l-4,4"
         stroke="#000000"
         stroke-width="0.25"
         linecap="square"
         id="path3-8" /><path
         d="M4 0 l-4,4"
         stroke="#000000"
         stroke-width="0.25"
         linecap="square"
         id="path4-2" /></pattern><symbol
       id="*Model_Space-4" /><symbol
       id="*Paper_Space-5" /><symbol
       id="*Paper_Space0-5" /></defs><g
     id="g14"
     inkscape:label="MPU1000Shadow"
     style="display:none;fill:#000000"
     transform="translate(3.6446666,3.6473614)"><path
       id="path6"
       style="fill:#000000;fill-opacity:1;stroke:none;stroke-width:0.944827;stroke-linecap:round"
       d="m 100.47238,33.510129 c 9.38723,0 16.998,7.608633 17.00003,16.995845 v 65.499596 c -3e-5,4.66708 -7.00003,4.66708 -7.00004,4.2e-4 V 50.505974 c -0.003,-5.520687 -4.47928,-9.994493 -9.99999,-9.994493 -5.520707,0 -9.996973,4.473806 -9.999936,9.994493 v 65.499166 c -6.1e-5,4.66667 -7.000063,4.66667 -7.000042,0 l 10e-7,-65.499166 c 0.0023,-9.387212 7.612747,-16.995845 16.999977,-16.995845 z M 28.472405,116.00599 c 0.0011,4.66555 7.001093,4.66555 7.000041,-4.2e-4 l 1e-6,-65.499596 c 0.0017,-5.521591 4.478323,-9.996808 9.999935,-9.996808 5.521613,0 9.9983,4.475217 9.999991,9.996808 v 65.499166 c 0.0027,4.66393 7.002739,4.66393 7.00004,0 V 50.505974 c -0.0032,-9.386544 -7.613468,-16.994137 -17.000031,-16.994137 -9.386563,0 -16.996779,7.607593 -16.999976,16.994137 z M 75.762238,31.786789 c 8.04073,-10.614105 21.961613,-14.907539 34.583982,-10.666285 12.62238,4.241254 21.12616,16.069619 21.12614,29.38547 v 65.499596 c 0.001,4.66597 -6.99904,4.66597 -7.00004,4.2e-4 V 50.505974 c -0.004,-13.252112 -10.74781,-23.993036 -23.99994,-23.993036 -13.252127,0 -23.996172,10.740924 -24.000018,23.993036 v 65.499166 c 0.0028,4.66393 -6.99724,4.66393 -7.00004,0 V 50.505974 c 6.1e-5,-13.254818 -10.745105,-23.999965 -23.999939,-23.999965 -13.254834,0 -24,10.745147 -24.000005,23.999965 l 1e-6,65.499596 c 0.0011,4.66597 -6.998901,4.66597 -7.000001,4.2e-4 l -1e-6,-65.500016 c 3e-6,-13.315852 8.503787,-25.144219 21.126162,-29.385473 12.622374,-4.241254 26.543258,0.05218 34.583988,10.666288 1.400502,1.848722 4.179209,1.848722 5.579711,0 z M 29.865774,15.858725 C 16.236327,21.998009 7.4723838,35.557667 7.4723783,50.505974 v 65.499596 c 9.709e-4,4.66612 -6.99902916,4.66612 -6.99999505,4.2e-4 V 50.505974 c 7e-7,-36.245012 40.66003675,-57.6182643 70.51546175,-37.066955 1.195134,0.822684 2.773939,0.822684 3.969073,0 29.855422,-20.5513097 70.515462,0.821942 70.515522,37.066955 v 65.499596 c -6e-5,4.66708 -7.00006,4.66708 -7.00004,4.2e-4 V 50.505974 c -2e-5,-14.948307 -8.76396,-28.507966 -22.39341,-34.64725 -13.62945,-6.1392836 -29.592097,-3.717536 -40.787332,6.187985 -1.324219,1.171665 -3.314334,1.171665 -4.638553,0 C 59.45787,12.141188 43.495221,9.7194407 29.865774,15.858725 Z"
       inkscape:label="M"
       sodipodi:nodetypes="sccccsccccscccsccccscccsccccsccccsccccsccsccccccccccsccs" /><path
       id="path7"
       style="fill:#000000;fill-opacity:1;stroke:none;stroke-width:0.944827;stroke-linecap:round"
       d="m 203.97752,88.472358 c -4.66265,0.004 -4.66265,-6.995948 0,-6.999907 h 2.99992 c 18.49843,-0.0046 33.49187,-15.001717 33.49187,-33.50006 0,-18.498343 -14.99344,-33.49548 -33.49187,-33.500025 h -37.99999 c -1.93294,2.5e-5 -3.49994,1.567028 -3.49996,3.500085 v 97.999079 c 2e-5,4.66666 -6.99998,4.66666 -7.00004,0 V 10.972411 c 6e-5,-1.9330168 1.56706,-3.5000204 3.50009,-3.5000853 h 44.9999 c 22.36223,0.00768 40.48626,18.1379193 40.48626,40.5000633 0,22.362145 -18.12403,40.492381 -40.48626,40.499969 z m -10.49998,-42.500047 -1e-5,69.999639 c -2e-5,4.66709 -7.00002,4.66709 -7.00004,4.3e-4 V 38.972441 c 2e-5,-1.933047 1.56702,-3.50005 3.50009,-3.500085 h 16.99986 c 6.90363,3.5e-5 12.50006,5.596476 12.50006,12.500035 0,6.903559 -5.59643,12.5 -12.50006,12.49994 h -2.99992 c -4.66667,6e-5 -4.66667,-6.99994 0,-6.99991 h 2.99992 c 3.03648,-0.0017 5.4971,-2.463622 5.4971,-5.50003 0,-3.036408 -2.46062,-5.498362 -5.4971,-5.499995 l -9.99999,5e-6 m 6e-5,-10e-6 c -1.933,0 -3.5,1.567003 -3.5,3.5 m 39.98969,2 c 0,-14.631526 -11.85815,-26.494315 -26.48975,-26.499985 h -30.99996 c -1.93298,-1.5e-5 -3.49998,1.566988 -3.49995,3.499955 v 90.999589 c 0.003,4.66357 7.00349,4.66357 6.99997,4.3e-4 l -6e-5,-83.999979 c 6e-5,-1.933007 1.56706,-3.50001 3.50008,-3.499955 h 23.99992 c 10.76962,-5.5e-5 19.50005,8.730393 19.50005,19.499945 0,10.769552 -8.73043,19.5 -19.50005,19.49998 h -2.99993 c -4.66333,0.0034 -4.66333,7.003364 0,7.00004 h 2.99993 c 14.6316,-0.0057 26.48975,-11.868494 26.48975,-26.50002 z"
       inkscape:label="P"
       sodipodi:nodetypes="cccsccccccccsccccccccsccccsccccsccccccccsccccs" /><path
       id="path8"
       style="fill:#000000;fill-opacity:1;stroke:none;stroke-width:0.944827;stroke-linecap:round"
       d="m 318.9726,12.972403 c -0.004,-4.6631497 -7.00371,-4.6631497 -7.00044,0 v 64.000033 c -0.006,6.347044 -5.15266,11.489226 -11.49974,11.489226 -6.34709,0 -11.49408,-5.142182 -11.50037,-11.489226 V 12.972404 c -0.003,-4.6633318 -7.00297,-4.6633318 -6.99912,0 v 64.000032 c 0.007,10.211916 8.28753,18.486346 18.49948,18.486346 10.21196,0 18.49249,-8.27443 18.50018,-18.486346 z m 13.9993,0 c -0.003,-4.6631497 -7.00326,-4.6631497 -6.99912,0 l 1.3e-4,64.000033 c -5e-4,14.083226 -11.41724,25.499944 -25.5005,25.499944 -14.08326,0 -25.5,-11.416718 -25.49992,-25.499944 V 12.972404 c -0.003,-4.6633318 -7.00342,-4.6633318 -7.00044,0 v 64.000032 c 0.005,17.946073 14.55425,32.491884 32.50036,32.491884 17.94611,0 32.49555,-14.545811 32.49961,-32.491884 z M 300.47216,123.45874 c -25.67591,0 -46.49247,-20.81041 -46.49992,-46.486304 l 1.3e-4,-64.000032 c 4e-5,-4.6666796 7.00004,-4.6666796 7.00004,0 v 64.000032 c 0,21.81522 17.68476,39.499944 39.50001,39.499944 21.81524,0 39.5,-17.684724 39.50017,-39.499944 V 12.972403 c -0.004,-4.6631497 6.99631,-4.6631497 7.00044,0 l -1.3e-4,64.000033 c -0.008,25.675894 -20.82482,46.486304 -46.50074,46.486304 z"
       sodipodi:nodetypes="cccsccccscccccsccccsccsccccsccccs"
       inkscape:label="U" /><path
       id="path9"
       style="fill:#000000;fill-opacity:1;stroke:none;stroke-width:0.944827;stroke-linecap:round"
       d="m 417.97217,10.972411 c -0.003,-4.6633378 -7.00311,-4.6633378 -6.99912,0 V 115.97195 c 0.003,4.66375 7.00269,4.66375 6.99912,0 z m -13.99956,0 c -0.004,-4.6633378 -7.00355,-4.6633378 -7.00043,0 V 115.97195 c 0.004,4.66375 7.00356,4.66375 7.00043,0 z M 382.97262,115.97195 V 10.972411 c -0.004,-4.6631567 6.99625,-4.6631567 7.00044,0 V 115.97195 c 0.003,4.66357 -6.99715,4.66357 -7.00044,0 z"
       inkscape:label="1"
       sodipodi:nodetypes="ccccccccccccccc" /><path
       id="path11"
       style="display:inline;fill:#000000;fill-opacity:1;stroke:none;stroke-width:0.944827;stroke-linecap:round"
       d="m 480.0259,0.6387207 a 59.500005,59.500005 0 0 0 -55.05349,59.3338463 59.500005,59.500005 0 0 0 118.99997,0 A 59.500005,59.500005 0 0 0 480.0259,0.6387207 Z m 4.44675,6.8336914 a 52.5,52.5 0 0 1 52.49964,52.5001549 52.5,52.5 0 0 1 -104.99979,0 52.5,52.5 0 0 1 52.50015,-52.5001549 z m -2.35334,21.1056889 a 31.5,31.5 0 0 0 -29.14706,31.394466 31.500145,31.500145 0 0 0 63.00029,0 31.5,31.5 0 0 0 -33.85323,-31.394466 z m 0.33021,6.985103 a 24.500006,24.500006 0 0 1 26.52293,24.409363 24.500055,24.500055 0 0 1 -49.00011,0 24.500006,24.500006 0 0 1 22.47718,-24.409363 z m -1.37718,-20.963578 a 45.5,45.5 0 0 0 -42.09975,45.372941 45.5,45.5 0 0 0 90.99961,0 45.5,45.5 0 0 0 -48.89986,-45.372941 z m 3.40031,6.890535 a 38.499999,38.499999 0 0 1 38.49998,38.482406 38.499999,38.499999 0 0 1 -76.99995,0 38.499999,38.499999 0 0 1 38.49997,-38.482406 z"
       inkscape:label="0" /><path
       id="path12"
       style="display:inline;fill:#000000;fill-opacity:1;stroke:none;stroke-width:0.944827;stroke-linecap:round"
       d="m 604.0259,0.6387207 a 59.500005,59.500005 0 0 0 -55.05349,59.3338463 59.500005,59.500005 0 0 0 118.99997,0 A 59.500005,59.500005 0 0 0 604.0259,0.6387207 Z m 4.44675,6.8336914 a 52.5,52.5 0 0 1 52.49964,52.5001549 52.5,52.5 0 0 1 -104.99979,0 52.5,52.5 0 0 1 52.50015,-52.5001549 z m -2.35334,21.1056889 a 31.5,31.5 0 0 0 -29.14706,31.394466 31.500145,31.500145 0 0 0 63.00029,0 31.5,31.5 0 0 0 -33.85323,-31.394466 z m 0.33021,6.985103 a 24.500006,24.500006 0 0 1 26.52293,24.409363 24.500055,24.500055 0 0 1 -49.00011,0 24.500006,24.500006 0 0 1 22.47718,-24.409363 z m -1.37718,-20.963578 a 45.5,45.5 0 0 0 -42.09975,45.372941 45.5,45.5 0 0 0 90.99961,0 45.5,45.5 0 0 0 -48.89986,-45.372941 z m 3.40031,6.890535 a 38.499999,38.499999 0 0 1 38.49998,38.482406 38.499999,38.499999 0 0 1 -76.99995,0 38.499999,38.499999 0 0 1 38.49997,-38.482406 z"
       inkscape:label="0" /><path
       id="path14"
       style="display:inline;fill:#000000;fill-opacity:1;stroke:none;stroke-width:0.944827;stroke-linecap:round"
       d="m 728.02585,0.6387207 a 59.500005,59.500005 0 0 0 -55.05349,59.3338463 59.500005,59.500005 0 0 0 118.99997,0 59.500005,59.500005 0 0 0 -63.94648,-59.3338463 z m 4.44675,6.8336914 a 52.5,52.5 0 0 1 52.49964,52.5001549 52.5,52.5 0 0 1 -104.99979,0 52.5,52.5 0 0 1 52.50015,-52.5001549 z m -2.35334,21.1056889 a 31.5,31.5 0 0 0 -29.14706,31.394466 31.500145,31.500145 0 0 0 63.00029,0 31.5,31.5 0 0 0 -33.85323,-31.394466 z m 0.33021,6.985103 a 24.500006,24.500006 0 0 1 26.52293,24.409363 24.500055,24.500055 0 0 1 -49.00011,0 24.500006,24.500006 0 0 1 22.47718,-24.409363 z m -1.37718,-20.963578 a 45.5,45.5 0 0 0 -42.09975,45.372941 45.5,45.5 0 0 0 90.99961,0 45.5,45.5 0 0 0 -48.89986,-45.372941 z m 3.40031,6.890535 a 38.499999,38.499999 0 0 1 38.49998,38.482406 38.499999,38.499999 0 0 1 -76.99995,0 38.499999,38.499999 0 0 1 38.49997,-38.482406 z"
       inkscape:label="0" /></g><g
     id="g1"
     inkscape:label="MPU1000Outline"
     style="display:inline;fill:#000000;stroke:#ffffff;stroke-width:4;stroke-dasharray:none;stroke-opacity:1"
     transform="translate(1.5276167,1.5306947)"><path
       id="path27"
       style="fill:#ffffff;stroke:none;stroke-width:4;stroke-linecap:round;stroke-dasharray:none;stroke-opacity:1"
       d="M 45.152221,3.4752013 C 20.941375,3.7766098 -1.5270995,23.084902 -1.5270999,50.505922 V 116.0058 c 3.45e-4,1.66653 0.69654629,3.16954 1.76526689,4.11913 1.06872051,0.94959 2.41528351,1.38083 3.73465581,1.38079 1.3193722,-4e-5 2.6655894,-0.43089 3.734139,-1.38079 1.0685497,-0.9499 1.7661303,-2.45254 1.7657836,-4.11913 V 50.505922 c 5.2e-6,-14.166596 8.2980186,-27.006118 21.2147256,-32.824353 12.916707,-5.818236 28.030746,-3.524313 38.640536,5.863208 2.06899,1.830636 5.21997,1.830636 7.28896,0 10.609791,-9.387521 25.724343,-11.681444 38.641053,-5.863208 12.91671,5.818235 21.21471,18.657756 21.21473,32.824353 V 116.0058 c -1e-5,1.66667 0.69716,3.16925 1.76578,4.11913 1.06862,0.94988 2.41467,1.38083 3.73414,1.38079 1.31946,-4e-5 2.66554,-0.43084 3.73414,-1.38079 1.0686,-0.94995 1.76575,-2.4524 1.76578,-4.11913 V 50.505922 c -7e-5,-37.740759 -42.5628,-60.114363 -73.650284,-38.714949 -0.517507,0.356231 -1.183682,0.356231 -1.701188,0 C 64.349246,6.4411192 55.861747,3.8278119 47.499882,3.5056904 46.715957,3.4754915 45.933216,3.4654784 45.152221,3.4752013 Z M 100.76743,17.506903 c -10.237534,-0.08815 -20.183234,4.60141 -26.599409,13.071037 -0.631615,0.833758 -1.758937,0.833758 -2.390551,0 -6.416176,-8.469626 -16.363726,-13.157892 -26.601477,-13.070004 -3.412583,0.0293 -6.8575,0.588576 -10.214881,1.716692 -13.429521,4.512464 -22.488547,17.113948 -22.48855,31.281294 V 116.0058 c 3.93e-4,1.66651 0.697049,3.16958 1.765784,4.11913 1.068735,0.94955 2.414781,1.38083 3.734139,1.38079 1.319358,-4e-5 2.668178,-0.4309 3.736723,-1.38079 1.068545,-0.94989 1.763593,-2.45256 1.7632,-4.11913 V 50.505922 c 5e-6,-12.173936 9.826252,-22.000207 22.000207,-22.000207 12.173956,0 22.000264,9.826276 22.000208,22.000207 V 116.0058 c 10e-4,1.66628 0.698437,3.17007 1.767334,4.11913 1.068898,0.94906 2.415469,1.37873 3.734655,1.37873 1.319187,0 2.665644,-0.43109 3.734139,-1.3808 1.068496,-0.94972 1.764718,-2.45286 1.763717,-4.11913 V 50.505922 c 0.0035,-12.171436 9.828751,-21.992456 22.000212,-21.992456 12.17145,0 21.99601,9.820984 21.99969,21.992456 V 116.0058 c 3.5e-4,1.66651 0.69705,3.16957 1.76578,4.11913 1.06873,0.94956 2.41478,1.38083 3.73414,1.38079 1.31936,-4e-5 2.66609,-0.43092 3.73465,-1.38079 1.06856,-0.94987 1.76562,-2.45256 1.76527,-4.11913 V 50.505922 c 2e-5,-14.167347 -9.06057,-26.76883 -22.4901,-31.281294 -3.35738,-1.128116 -6.80237,-1.688343 -10.21488,-1.717725 z m -0.29455,14.002763 c -10.467945,0 -18.99783,8.528343 -19.000395,18.996256 V 116.0058 c -7e-6,1.66667 0.697171,3.16925 1.765784,4.11913 1.068614,0.94988 2.414693,1.38079 3.734139,1.38079 1.319446,0 2.666036,-0.43092 3.734655,-1.38079 1.06862,-0.94987 1.765762,-2.45246 1.765784,-4.11913 v -65.497811 -0.0021 c 0.0035,-4.439245 3.560477,-7.994344 8.000033,-7.994344 4.43955,0 7.99654,3.555096 8.00002,7.994344 V 116.0058 c 0,1.66667 0.69665,3.16926 1.76527,4.11913 1.06863,0.94987 2.41519,1.38083 3.73466,1.38079 1.31946,-4e-5 2.66555,-0.43084 3.73414,-1.38079 1.0686,-0.94995 1.76577,-2.4524 1.76578,-4.11913 V 50.505922 c -0.002,-10.46799 -8.53194,-18.996256 -18.99987,-18.996256 z m -55.000265,0.0021 c -10.467199,0 -18.996309,8.527003 -18.999874,18.994189 V 116.0058 c 3.93e-4,1.66651 0.697049,3.16958 1.765784,4.11913 1.068735,0.94955 2.41478,1.38083 3.734139,1.38079 1.319359,-4e-5 2.667658,-0.43091 3.736206,-1.38079 1.068549,-0.94988 1.764093,-2.45256 1.763717,-4.11913 V 50.505922 c 0.0014,-4.440925 3.559071,-7.996411 8.000028,-7.996411 4.440959,0 7.998669,3.555503 8.000029,7.996411 V 116.0058 c 9.65e-4,1.66628 0.69896,3.17006 1.76785,4.11913 1.068891,0.94907 2.414953,1.37873 3.734139,1.37873 1.319187,0 2.665637,-0.4311 3.734139,-1.3808 1.068503,-0.94971 1.764682,-2.45286 1.763717,-4.11913 V 50.505922 C 64.468889,40.038729 55.939814,31.511733 45.472615,31.511733 Z"
       inkscape:label="M" /><path
       id="path25"
       style="fill:#ffffff;stroke:none;stroke-width:4;stroke-linecap:round;stroke-dasharray:none;stroke-opacity:1"
       d="m 161.97662,5.4724954 c -3.01385,1.012e-4 -5.49983,2.4860731 -5.49993,5.4999226 V 115.97066 c 2e-5,1.66667 0.69665,3.17133 1.76527,4.1212 1.06862,0.94987 2.41522,1.37872 3.73466,1.37872 1.31945,0 2.66759,-0.42884 3.7362,-1.37872 1.06861,-0.94988 1.76373,-2.45453 1.76372,-4.1212 V 17.972508 c 1e-5,-0.852224 0.64812,-1.499639 1.50016,-1.49965 h 37.99975 c 17.41773,0.0043 31.49214,14.082248 31.49214,31.499886 0,17.417638 -14.0744,31.495555 -31.49214,31.499886 h -2.99981 c -1.66609,0.0014 -3.16836,0.698844 -4.11707,1.76785 -0.9487,1.069006 -1.37924,2.415082 -1.37924,3.734139 0,1.319058 0.42961,2.665705 1.37924,3.734139 0.94926,1.068005 2.45178,1.764585 4.11707,1.763717 h 0.002 2.99982 c 23.44286,-0.008 42.48423,-19.056948 42.48423,-42.499731 0,-23.442781 -19.04137,-42.4921974 -42.48423,-42.5002486 z m 14.00017,14.0001786 c -3.01388,-2.3e-5 -5.49842,2.486045 -5.49837,5.499923 v 91.000133 c 0.001,1.66626 0.6989,3.17017 1.76785,4.11913 1.06895,0.94896 2.415,1.37662 3.73414,1.37666 1.31914,4e-5 2.66615,-0.42908 3.73466,-1.37873 1.06852,-0.94964 1.76291,-2.45293 1.76165,-4.11913 V 31.972687 c 3e-5,-0.852168 0.64753,-1.500191 1.49965,-1.500167 h 24.00008 c 9.68874,-4.9e-5 17.50023,7.81155 17.50023,17.500224 0,9.688674 -7.81148,17.499725 -17.50023,17.499707 h -2.99981 c -1.66618,0.0012 -3.16818,0.698899 -4.11707,1.76785 -0.94888,1.068952 -1.37924,2.415013 -1.37924,3.734139 0,1.319127 0.42957,2.666188 1.37924,3.734656 0.9493,1.068039 2.45169,1.764344 4.11707,1.763717 h 3.00188 c 15.71219,-0.0061 28.48818,-12.78794 28.48818,-28.500069 0,-15.712128 -12.77598,-28.493981 -28.48818,-28.50007 z m 14.00173,14.000179 c -3.01389,5.5e-5 -5.50196,2.486038 -5.50199,5.499923 v 76.999954 c 1e-5,1.66666 0.69716,3.16925 1.76579,4.11913 1.06862,0.94987 2.41673,1.38083 3.7362,1.38079 1.31946,-4e-5 2.66607,-0.43084 3.73466,-1.38079 1.06859,-0.94996 1.7632,-2.45241 1.7632,-4.11913 l 0.002,-69.999864 c 0,-6.68e-4 -10e-6,-0.0014 0,-0.0021 0.001,-0.850731 0.64692,-1.4981 1.4981,-1.4981 h 9.9999 c 1.95601,0.0011 3.4985,1.544133 3.4985,3.500045 0,1.955912 -1.54245,3.498949 -3.4985,3.500044 h -2.99981 c -1.66666,-10e-6 -3.16925,0.696658 -4.11913,1.765267 -0.94988,1.068609 -1.3808,2.415214 -1.3808,3.734656 0,1.319442 0.43092,2.665532 1.3808,3.734139 0.94951,1.068178 2.45327,1.765246 4.11913,1.765784 h 2.99981 c 7.98451,7e-5 14.50041,-6.515453 14.50041,-14.49989 0,-7.984437 -6.51591,-14.49985 -14.50041,-14.499891 z"
       inkscape:label="P" /><path
       id="path23"
       style="fill:#ffffff;stroke:none;stroke-linecap:round"
       d="m 257.47259,7.4728901 c -1.31945,0 -2.66551,0.4309178 -3.73413,1.3807943 -1.06862,0.9498766 -1.76578,2.4524606 -1.76579,4.1191286 v 63.999711 c 0.008,26.756576 21.7433,48.486446 48.49988,48.486446 26.75659,0 48.49155,-21.72988 48.49989,-48.486446 V 12.970746 c -0.001,-1.666186 -0.69829,-3.168303 -1.76734,-4.1170616 -1.06905,-0.9487586 -2.41551,-1.379244 -3.73465,-1.379244 -1.31913,0 -2.66568,0.4310843 -3.73414,1.3807943 -1.06847,0.9497099 -1.76515,2.4529423 -1.76372,4.1191283 v 63.998161 c -1.7e-4,20.734347 -16.76568,37.500036 -37.50004,37.500036 -20.73438,0 -37.50003,-16.765698 -37.50003,-37.500036 V 12.972813 c 0,-1.666668 -0.69665,-3.1692473 -1.76527,-4.1191286 -1.06861,-0.9498812 -2.41522,-1.3807942 -3.73466,-1.3807943 z m 13.99812,0.00155 c -1.31915,0 -2.6656,0.4296251 -3.73414,1.379244 -1.06854,0.9496189 -1.76479,2.4544589 -1.76372,4.1206789 v 63.998161 c 0.005,19.026733 15.47288,34.492466 34.4997,34.492466 19.02681,0 34.49591,-15.465662 34.50022,-34.492466 v -63.999711 -0.0021 c -0.001,-1.666183 -0.69892,-3.1681708 -1.76785,-4.1170619 -1.06893,-0.9488911 -2.41711,-1.379244 -3.7362,-1.379244 -1.31909,0 -2.66418,0.4310675 -3.73259,1.3807943 -1.06842,0.9497267 -1.7652,2.4529466 -1.76372,4.1191286 v 63.998161 c -4.7e-4,13.002382 -10.49748,23.499859 -23.49986,23.499859 -13.00239,0 -23.49993,-10.497522 -23.49985,-23.499859 V 12.97278 12.97068 c -10e-4,-1.66622 -0.69888,-3.1686596 -1.76785,-4.1175787 -1.06897,-0.9489191 -2.41498,-1.3787272 -3.73414,-1.3787272 z m 14.00018,0 c -1.3191,0 -2.66626,0.4295082 -3.73466,1.379244 -1.06841,0.9497359 -1.7651,2.4544919 -1.76372,4.1206789 v 63.998161 0.0021 c 0.008,11.292334 9.20773,20.484538 20.50004,20.484538 11.29231,0 20.49153,-9.192277 20.50004,-20.484538 v -0.0021 -64.001778 c -0.001,-1.666143 -0.69834,-3.1682662 -1.76733,-4.1170619 -1.06899,-0.9487956 -2.41761,-1.379244 -3.73672,-1.379244 -1.31911,0 -2.66361,0.4311479 -3.73207,1.3807943 -1.06847,0.9496463 -1.76489,2.4529856 -1.76372,4.1191286 v 63.996094 c -0.005,5.2669 -4.23334,9.490377 -9.5002,9.490377 -5.26688,0 -9.49445,-4.223497 -9.49967,-9.490377 v -63.997644 -0.0021 c -10e-4,-1.666188 -0.69896,-3.1681278 -1.76786,-4.1170619 -1.0689,-0.9489341 -2.41503,-1.379244 -3.73413,-1.379244 z"
       inkscape:label="U" /><path
       id="path21"
       style="fill:#ffffff;stroke:none;stroke-linecap:round"
       d="m 386.47092,5.4745625 c -1.31913,0 -2.66619,0.4310809 -3.73465,1.3807942 -1.06846,0.9497134 -1.76515,2.4529462 -1.76372,4.1191283 V 115.97273 c 10e-4,1.66623 0.69889,3.17019 1.76785,4.11913 1.06897,0.94893 2.41497,1.37666 3.73414,1.37666 1.31917,0 2.66615,-0.42905 3.73466,-1.37873 1.06852,-0.94967 1.76478,-2.45289 1.76371,-4.11913 V 10.970868 c -0.002,-1.6661831 -0.6988,-3.1688232 -1.76785,-4.1175783 -1.06905,-0.948755 -2.41501,-1.3787272 -3.73414,-1.3787272 z m 13.9976,0 c -1.31913,0 -2.66361,0.4290591 -3.73207,1.3787272 -1.06846,0.9496682 -1.76484,2.4550372 -1.76372,4.1211953 v 104.998245 0.002 c 10e-4,1.66622 0.69838,3.16816 1.76733,4.11707 1.06896,0.9489 2.41549,1.37872 3.73466,1.37872 1.31917,0 2.6657,-0.43104 3.73414,-1.38079 1.06845,-0.94974 1.76482,-2.45291 1.76371,-4.11913 V 10.970868 c -0.001,-1.6661589 -0.69836,-3.1687433 -1.76733,-4.1175783 -1.06897,-0.948835 -2.41759,-1.3787272 -3.73672,-1.3787272 z m 14.00224,0 c -1.3191,0 -2.66624,0.4310461 -3.73465,1.3807942 -1.06841,0.9497482 -1.76463,2.4529304 -1.7632,4.1191283 V 115.97273 c 10e-4,1.66622 0.69847,3.17011 1.76733,4.11913 1.06887,0.94902 2.41501,1.37872 3.73414,1.37872 1.31913,0 2.66627,-0.431 3.73466,-1.38079 1.06839,-0.94978 1.76498,-2.4529 1.76371,-4.11913 v -104.998242 -0.0015 c -0.001,-1.6661992 -0.69894,-3.1686482 -1.76785,-4.1175783 -1.06891,-0.94893 -2.41503,-1.3787272 -3.73414,-1.3787272 z"
       inkscape:label="1" /><path
       id="path19"
       style="fill:#ffffff;stroke:none;stroke-linecap:round"
       d="m 483.20197,-1.5162253 c -1.10268,0.023877 -2.2109,0.077234 -3.32486,0.1607137 -32.0741,2.403662 -56.90466,29.1639956 -56.90454,61.3280396 v 0.0021 c 0.0278,33.922206 27.57792,61.449472 61.50012,61.449472 33.92219,0 61.4723,-27.527266 61.50012,-61.449472 v -0.0021 c 1.2e-4,-33.512426 -26.76341,-60.43899207 -59.4806,-61.4727336 -1.09058,-0.034458 -2.18756,-0.039897 -3.29024,-0.01602 z m 1.27072,10.9889933 c 27.91333,1.914e-4 50.49877,22.58461 50.49976,50.497693 -0.0568,27.873541 -22.62593,50.396919 -50.49976,50.396919 -27.87449,0 -50.44452,-22.524018 -50.50027,-50.398469 0.002,-27.912367 22.5874,-50.4962228 50.50027,-50.496143 z m -0.98185,3.008602 c -0.85128,0.01838 -1.70661,0.05957 -2.56677,0.124023 -24.76846,1.856156 -43.95142,22.529223 -43.95132,47.367135 v 0.0021 0.0041 c 0.0766,26.155663 21.34418,47.360932 47.49994,47.360932 26.15575,0 47.42337,-21.205269 47.49995,-47.360932 v -0.0041 -0.0021 c 8e-5,-25.87707 -20.67699,-46.678546 -45.94139,-47.478239 -0.84214,-0.02665 -1.68913,-0.0313 -2.54041,-0.01292 z M 484.47269,23.49 c 20.17486,8e-6 36.48981,16.30585 36.5001,36.480461 -0.0225,20.166088 -16.33402,36.459274 -36.5001,36.459273 -20.16609,0 -36.47759,-16.293185 -36.5001,-36.459273 0.0103,-20.174607 16.32523,-36.480448 36.5001,-36.480461 z m -0.69246,3.006535 c -0.60024,0.0129 -1.20358,0.04192 -1.80971,0.08733 -17.45612,1.307562 -30.98837,15.881571 -30.99811,33.386593 v 0.0021 c 0,18.477941 15.02235,33.500281 33.50028,33.500281 18.47792,0 33.49977,-15.02234 33.49977,-33.500281 v -0.0021 C 517.96197,41.127836 502.38757,26.096543 483.78023,26.496535 Z m 1.27434,10.987443 c 12.06042,0.284677 21.91452,10.125735 21.91804,22.48855 0,12.450136 -10.0498,22.499919 -22.49992,22.499919 -12.45013,0 -22.49992,-10.049783 -22.49992,-22.499919 0.003,-11.721855 8.96084,-21.44788 20.64267,-22.415686 0.82138,-0.06805 1.6351,-0.09184 2.43913,-0.07286 z"
       inkscape:label="0" /><path
       id="path17"
       style="fill:#ffffff;stroke:none;stroke-linecap:round"
       d="m 607.20215,-1.5162253 c -1.10267,0.023877 -2.21142,0.077234 -3.32538,0.1607137 -32.0741,2.403662 -56.90414,29.1639956 -56.90402,61.3280396 v 0.0021 c 0.0278,33.922206 27.57793,61.449472 61.50013,61.449472 33.92219,0 61.47178,-27.527266 61.4996,-61.449472 v -0.0021 c 1.2e-4,-33.512426 -26.7629,-60.43899207 -59.48009,-61.4727336 -1.09057,-0.034458 -2.18756,-0.039897 -3.29024,-0.01602 z m 1.27073,10.9889933 c 27.91333,1.914e-4 50.49877,22.58461 50.49976,50.497693 -0.0568,27.873541 -22.62593,50.396919 -50.49976,50.396919 -27.87449,0 -50.44453,-22.524018 -50.50028,-50.398469 0.002,-27.912367 22.58741,-50.4962228 50.50028,-50.496143 z m -0.98186,3.008602 c -0.85128,0.01838 -1.70713,0.05957 -2.56728,0.124023 -24.76846,1.856156 -43.95142,22.529223 -43.95132,47.367135 v 0.0021 0.0041 c 0.0766,26.155663 21.3447,47.360932 47.50046,47.360932 26.15575,0 47.42336,-21.205269 47.49994,-47.360932 v -0.0041 -0.0021 c 8e-5,-25.87707 -20.67698,-46.678546 -45.94138,-47.478239 -0.84215,-0.02665 -1.68914,-0.0313 -2.54042,-0.01292 z M 608.47288,23.49 c 20.17486,8e-6 36.48929,16.30585 36.49958,36.480461 -0.0225,20.166088 -16.3335,36.459274 -36.49958,36.459273 -20.16609,0 -36.47759,-16.293185 -36.5001,-36.459273 0.0103,-20.174607 16.32523,-36.480448 36.5001,-36.480461 z m -0.69247,3.006535 c -0.60024,0.0129 -1.20358,0.04192 -1.80971,0.08733 -17.45612,1.307562 -30.98837,15.881571 -30.99811,33.386593 v 0.0021 c 0,18.477941 15.02236,33.500281 33.50029,33.500281 18.47792,0 33.49976,-15.02234 33.49976,-33.500281 v -0.0021 C 641.96216,41.127836 626.38776,26.096543 607.78041,26.496535 Z m 1.27383,10.987443 c 12.06042,0.284677 21.91503,10.125735 21.91855,22.48855 0,12.450136 -10.04979,22.499919 -22.49991,22.499919 -12.45013,0 -22.50044,-10.049783 -22.50044,-22.499919 0.003,-11.721855 8.96084,-21.44788 20.64267,-22.415686 0.82137,-0.06805 1.6351,-0.09184 2.43913,-0.07286 z"
       inkscape:label="0" /><path
       id="path15"
       style="fill:#ffffff;stroke:none;stroke-linecap:round"
       d="m 731.20234,-1.5162253 c -1.10268,0.023877 -2.21142,0.077234 -3.32538,0.1607137 -32.0741,2.403662 -56.90466,29.1639956 -56.90454,61.3280396 v 0.0021 c 0.0278,33.922206 27.57792,61.449472 61.50012,61.449472 33.92219,0 61.4723,-27.527266 61.50012,-61.449472 v -0.0021 c 1.2e-4,-33.512426 -26.76341,-60.43899207 -59.4806,-61.4727336 -1.09058,-0.034458 -2.18705,-0.039897 -3.28972,-0.01602 z m 1.2702,10.9889933 c 27.91333,1.914e-4 50.49929,22.58461 50.50028,50.497693 -0.0568,27.873541 -22.62645,50.396919 -50.50028,50.396919 -27.87449,0 -50.44401,-22.524018 -50.49976,-50.398469 0.002,-27.912367 22.58689,-50.4962228 50.49976,-50.496143 z m -0.98237,3.008602 c -0.85177,0.01838 -1.70816,0.05957 -2.56832,0.124023 -24.76845,1.856156 -43.94935,22.529223 -43.94925,47.367135 v 0.0021 0.0041 c 0.0766,26.155663 21.34418,47.360932 47.49994,47.360932 26.15575,0 47.42337,-21.205269 47.49995,-47.360932 v -0.0041 -0.0021 c 8e-5,-25.87707 -20.67699,-46.678546 -45.94139,-47.478239 -0.84214,-0.02665 -1.68916,-0.0313 -2.54093,-0.01292 z M 732.47254,23.49 c 20.17486,8e-6 36.48981,16.30585 36.5001,36.480461 -0.0225,20.166088 -16.33402,36.459274 -36.5001,36.459273 -20.16609,0 -36.47759,-16.293185 -36.5001,-36.459273 0.0103,-20.174607 16.32523,-36.480448 36.5001,-36.480461 z m -0.69195,3.006535 c -0.60023,0.0129 -1.20358,0.04192 -1.8097,0.08733 -17.45612,1.307562 -30.98837,15.881571 -30.99811,33.386593 v 0.0021 c 0,18.477941 15.02183,33.500281 33.49976,33.500281 18.47792,0 33.50028,-15.02234 33.50028,-33.500281 v -0.0021 C 765.96234,41.127836 750.38794,26.096543 731.78059,26.496535 Z m 1.27383,10.987443 c 12.06042,0.284677 21.91452,10.125735 21.91804,22.48855 0,12.450136 -10.0498,22.499919 -22.49992,22.499919 -12.45013,0 -22.49992,-10.049783 -22.49992,-22.499919 0.003,-11.721855 8.96084,-21.44788 20.64267,-22.415686 0.82137,-0.06805 1.6351,-0.09184 2.43913,-0.07286 z"
       inkscape:label="0" /></g><g
     id="g34"
     inkscape:label="MPU1000"
     style="display:inline"
     transform="translate(1.5279999,1.5306947)"><path
       id="path28"
       style="fill:#8f7e56;fill-opacity:1;stroke:none;stroke-width:0.944827;stroke-linecap:round"
       d="m 100.47238,33.510129 c 9.38723,0 16.998,7.608633 17.00003,16.995845 v 65.499596 c -3e-5,4.66708 -7.00003,4.66708 -7.00004,4.2e-4 V 50.505974 c -0.003,-5.520687 -4.47928,-9.994493 -9.99999,-9.994493 -5.520707,0 -9.996973,4.473806 -9.999936,9.994493 v 65.499166 c -6.1e-5,4.66667 -7.000063,4.66667 -7.000042,0 l 10e-7,-65.499166 c 0.0023,-9.387212 7.612747,-16.995845 16.999977,-16.995845 z M 28.472405,116.00599 c 0.0011,4.66555 7.001093,4.66555 7.000041,-4.2e-4 l 1e-6,-65.499596 c 0.0017,-5.521591 4.478323,-9.996808 9.999935,-9.996808 5.521613,0 9.9983,4.475217 9.999991,9.996808 v 65.499166 c 0.0027,4.66393 7.002739,4.66393 7.00004,0 V 50.505974 c -0.0032,-9.386544 -7.613468,-16.994137 -17.000031,-16.994137 -9.386563,0 -16.996779,7.607593 -16.999976,16.994137 z M 75.762238,31.786789 c 8.04073,-10.614105 21.961613,-14.907539 34.583982,-10.666285 12.62238,4.241254 21.12616,16.069619 21.12614,29.38547 v 65.499596 c 0.001,4.66597 -6.99904,4.66597 -7.00004,4.2e-4 V 50.505974 c -0.004,-13.252112 -10.74781,-23.993036 -23.99994,-23.993036 -13.252127,0 -23.996172,10.740924 -24.000018,23.993036 v 65.499166 c 0.0028,4.66393 -6.99724,4.66393 -7.00004,0 V 50.505974 c 6.1e-5,-13.254818 -10.745105,-23.999965 -23.999939,-23.999965 -13.254834,0 -24,10.745147 -24.000005,23.999965 l 1e-6,65.499596 c 0.0011,4.66597 -6.998901,4.66597 -7.000001,4.2e-4 l -1e-6,-65.500016 c 3e-6,-13.315852 8.503787,-25.144219 21.126162,-29.385473 12.622374,-4.241254 26.543258,0.05218 34.583988,10.666288 1.400502,1.848722 4.179209,1.848722 5.579711,0 z M 29.865774,15.858725 C 16.236327,21.998009 7.4723838,35.557667 7.4723783,50.505974 v 65.499596 c 9.709e-4,4.66612 -6.99902916,4.66612 -6.99999505,4.2e-4 V 50.505974 c 7e-7,-36.245012 40.66003675,-57.6182643 70.51546175,-37.066955 1.195134,0.822684 2.773939,0.822684 3.969073,0 29.855422,-20.5513097 70.515462,0.821942 70.515522,37.066955 v 65.499596 c -6e-5,4.66708 -7.00006,4.66708 -7.00004,4.2e-4 V 50.505974 c -2e-5,-14.948307 -8.76396,-28.507966 -22.39341,-34.64725 -13.62945,-6.1392836 -29.592097,-3.717536 -40.787332,6.187985 -1.324219,1.171665 -3.314334,1.171665 -4.638553,0 C 59.45787,12.141188 43.495221,9.7194407 29.865774,15.858725 Z"
       inkscape:label="M"
       sodipodi:nodetypes="sccccsccccscccsccccscccsccccsccccsccccsccsccccccccccsccs" /><path
       id="path29"
       style="fill:#8f7e56;fill-opacity:1;stroke:none;stroke-width:0.944827;stroke-linecap:round"
       d="m 203.97752,88.472358 c -4.66265,0.004 -4.66265,-6.995948 0,-6.999907 h 2.99992 c 18.49843,-0.0046 33.49187,-15.001717 33.49187,-33.50006 0,-18.498343 -14.99344,-33.49548 -33.49187,-33.500025 h -37.99999 c -1.93294,2.5e-5 -3.49994,1.567028 -3.49996,3.500085 v 97.999079 c 2e-5,4.66666 -6.99998,4.66666 -7.00004,0 V 10.972411 c 6e-5,-1.9330168 1.56706,-3.5000204 3.50009,-3.5000853 h 44.9999 c 22.36223,0.00768 40.48626,18.1379193 40.48626,40.5000633 0,22.362145 -18.12403,40.492381 -40.48626,40.499969 z m -10.49998,-42.500047 -1e-5,69.999639 c -2e-5,4.66709 -7.00002,4.66709 -7.00004,4.3e-4 V 38.972441 c 2e-5,-1.933047 1.56702,-3.50005 3.50009,-3.500085 h 16.99986 c 6.90363,3.5e-5 12.50006,5.596476 12.50006,12.500035 0,6.903559 -5.59643,12.5 -12.50006,12.49994 h -2.99992 c -4.66667,6e-5 -4.66667,-6.99994 0,-6.99991 h 2.99992 c 3.03648,-0.0017 5.4971,-2.463622 5.4971,-5.50003 0,-3.036408 -2.46062,-5.498362 -5.4971,-5.499995 l -9.99999,5e-6 m 6e-5,-10e-6 c -1.933,0 -3.5,1.567003 -3.5,3.5 m 39.98969,2 c 0,-14.631526 -11.85815,-26.494315 -26.48975,-26.499985 h -30.99996 c -1.93298,-1.5e-5 -3.49998,1.566988 -3.49995,3.499955 v 90.999589 c 0.003,4.66357 7.00349,4.66357 6.99997,4.3e-4 l -6e-5,-83.999979 c 6e-5,-1.933007 1.56706,-3.50001 3.50008,-3.499955 h 23.99992 c 10.76962,-5.5e-5 19.50005,8.730393 19.50005,19.499945 0,10.769552 -8.73043,19.5 -19.50005,19.49998 h -2.99993 c -4.66333,0.0034 -4.66333,7.003364 0,7.00004 h 2.99993 c 14.6316,-0.0057 26.48975,-11.868494 26.48975,-26.50002 z"
       inkscape:label="P"
       sodipodi:nodetypes="cccsccccccccsccccccccsccccsccccsccccccccsccccs" /><path
       id="path30"
       style="fill:#8f7e56;fill-opacity:1;stroke:none;stroke-width:0.944827;stroke-linecap:round"
       d="m 318.9726,12.972403 c -0.004,-4.6631497 -7.00371,-4.6631497 -7.00044,0 v 64.000033 c -0.006,6.347044 -5.15266,11.489226 -11.49974,11.489226 -6.34709,0 -11.49408,-5.142182 -11.50037,-11.489226 V 12.972404 c -0.003,-4.6633318 -7.00297,-4.6633318 -6.99912,0 v 64.000032 c 0.007,10.211916 8.28753,18.486346 18.49948,18.486346 10.21196,0 18.49249,-8.27443 18.50018,-18.486346 z m 13.9993,0 c -0.003,-4.6631497 -7.00326,-4.6631497 -6.99912,0 l 1.3e-4,64.000033 c -5e-4,14.083226 -11.41724,25.499944 -25.5005,25.499944 -14.08326,0 -25.5,-11.416718 -25.49992,-25.499944 V 12.972404 c -0.003,-4.6633318 -7.00342,-4.6633318 -7.00044,0 v 64.000032 c 0.005,17.946073 14.55425,32.491884 32.50036,32.491884 17.94611,0 32.49555,-14.545811 32.49961,-32.491884 z M 300.47216,123.45874 c -25.67591,0 -46.49247,-20.81041 -46.49992,-46.486304 l 1.3e-4,-64.000032 c 4e-5,-4.6666796 7.00004,-4.6666796 7.00004,0 v 64.000032 c 0,21.81522 17.68476,39.499944 39.50001,39.499944 21.81524,0 39.5,-17.684724 39.50017,-39.499944 V 12.972403 c -0.004,-4.6631497 6.99631,-4.6631497 7.00044,0 l -1.3e-4,64.000033 c -0.008,25.675894 -20.82482,46.486304 -46.50074,46.486304 z"
       sodipodi:nodetypes="cccsccccscccccsccccsccsccccsccccs"
       inkscape:label="U" /><path
       id="path31"
       style="fill:#8f7e56;fill-opacity:1;stroke:none;stroke-width:0.944827;stroke-linecap:round"
       d="m 417.97217,10.972411 c -0.003,-4.6633378 -7.00311,-4.6633378 -6.99912,0 V 115.97195 c 0.003,4.66375 7.00269,4.66375 6.99912,0 z m -13.99956,0 c -0.004,-4.6633378 -7.00355,-4.6633378 -7.00043,0 V 115.97195 c 0.004,4.66375 7.00356,4.66375 7.00043,0 z M 382.97262,115.97195 V 10.972411 c -0.004,-4.6631567 6.99625,-4.6631567 7.00044,0 V 115.97195 c 0.003,4.66357 -6.99715,4.66357 -7.00044,0 z"
       inkscape:label="1"
       sodipodi:nodetypes="ccccccccccccccc" /><path
       id="path32"
       style="display:inline;fill:#8f7e56;fill-opacity:1;stroke:none;stroke-width:0.944827;stroke-linecap:round"
       d="m 480.0259,0.6387207 a 59.500005,59.500005 0 0 0 -55.05349,59.3338463 59.500005,59.500005 0 0 0 118.99997,0 A 59.500005,59.500005 0 0 0 480.0259,0.6387207 Z m 4.44675,6.8336914 a 52.5,52.5 0 0 1 52.49964,52.5001549 52.5,52.5 0 0 1 -104.99979,0 52.5,52.5 0 0 1 52.50015,-52.5001549 z m -2.35334,21.1056889 a 31.5,31.5 0 0 0 -29.14706,31.394466 31.500145,31.500145 0 0 0 63.00029,0 31.5,31.5 0 0 0 -33.85323,-31.394466 z m 0.33021,6.985103 a 24.500006,24.500006 0 0 1 26.52293,24.409363 24.500055,24.500055 0 0 1 -49.00011,0 24.500006,24.500006 0 0 1 22.47718,-24.409363 z m -1.37718,-20.963578 a 45.5,45.5 0 0 0 -42.09975,45.372941 45.5,45.5 0 0 0 90.99961,0 45.5,45.5 0 0 0 -48.89986,-45.372941 z m 3.40031,6.890535 a 38.499999,38.499999 0 0 1 38.49998,38.482406 38.499999,38.499999 0 0 1 -76.99995,0 38.499999,38.499999 0 0 1 38.49997,-38.482406 z"
       inkscape:label="0" /><path
       id="path33"
       style="display:inline;fill:#8f7e56;fill-opacity:1;stroke:none;stroke-width:0.944827;stroke-linecap:round"
       d="m 604.0259,0.6387207 a 59.500005,59.500005 0 0 0 -55.05349,59.3338463 59.500005,59.500005 0 0 0 118.99997,0 A 59.500005,59.500005 0 0 0 604.0259,0.6387207 Z m 4.44675,6.8336914 a 52.5,52.5 0 0 1 52.49964,52.5001549 52.5,52.5 0 0 1 -104.99979,0 52.5,52.5 0 0 1 52.50015,-52.5001549 z m -2.35334,21.1056889 a 31.5,31.5 0 0 0 -29.14706,31.394466 31.500145,31.500145 0 0 0 63.00029,0 31.5,31.5 0 0 0 -33.85323,-31.394466 z m 0.33021,6.985103 a 24.500006,24.500006 0 0 1 26.52293,24.409363 24.500055,24.500055 0 0 1 -49.00011,0 24.500006,24.500006 0 0 1 22.47718,-24.409363 z m -1.37718,-20.963578 a 45.5,45.5 0 0 0 -42.09975,45.372941 45.5,45.5 0 0 0 90.99961,0 45.5,45.5 0 0 0 -48.89986,-45.372941 z m 3.40031,6.890535 a 38.499999,38.499999 0 0 1 38.49998,38.482406 38.499999,38.499999 0 0 1 -76.99995,0 38.499999,38.499999 0 0 1 38.49997,-38.482406 z"
       inkscape:label="0" /><path
       id="path34"
       style="display:inline;fill:#8f7e56;fill-opacity:1;stroke:none;stroke-width:0.944827;stroke-linecap:round"
       d="m 728.02585,0.6387207 a 59.500005,59.500005 0 0 0 -55.05349,59.3338463 59.500005,59.500005 0 0 0 118.99997,0 59.500005,59.500005 0 0 0 -63.94648,-59.3338463 z m 4.44675,6.8336914 a 52.5,52.5 0 0 1 52.49964,52.5001549 52.5,52.5 0 0 1 -104.99979,0 52.5,52.5 0 0 1 52.50015,-52.5001549 z m -2.35334,21.1056889 a 31.5,31.5 0 0 0 -29.14706,31.394466 31.500145,31.500145 0 0 0 63.00029,0 31.5,31.5 0 0 0 -33.85323,-31.394466 z m 0.33021,6.985103 a 24.500006,24.500006 0 0 1 26.52293,24.409363 24.500055,24.500055 0 0 1 -49.00011,0 24.500006,24.500006 0 0 1 22.47718,-24.409363 z m -1.37718,-20.963578 a 45.5,45.5 0 0 0 -42.09975,45.372941 45.5,45.5 0 0 0 90.99961,0 45.5,45.5 0 0 0 -48.89986,-45.372941 z m 3.40031,6.890535 a 38.499999,38.499999 0 0 1 38.49998,38.482406 38.499999,38.499999 0 0 1 -76.99995,0 38.499999,38.499999 0 0 1 38.49997,-38.482406 z"
       inkscape:label="0" /></g></svg>
