<?xml version="1.0" encoding="UTF-8" standalone="no"?>
<!-- Generator: Adobe Illustrator 25.1.0, SVG Export Plug-In . SVG Version: 6.00 Build 0)  -->

<svg
   version="1.1"
   id="Layer_1"
   x="0px"
   y="0px"
   viewBox="0 0 3840 1561.6"
   style="enable-background:new 0 0 3840 1561.6;"
   xml:space="preserve"
   sodipodi:docname="pv1000_v2-w.svg"
   inkscape:version="1.4 (86a8ad7, 2024-10-11)"
   xmlns:inkscape="http://www.inkscape.org/namespaces/inkscape"
   xmlns:sodipodi="http://sodipodi.sourceforge.net/DTD/sodipodi-0.dtd"
   xmlns="http://www.w3.org/2000/svg"
   xmlns:svg="http://www.w3.org/2000/svg"><defs
   id="defs26">
	
	

			
			
			
			
		
				
				
			
				
				
				
				
				
			
				
				
				
				
			
			
			
			
			
		
				
				
				
				
			
				
				
			
				
				
				
				
				
			</defs><sodipodi:namedview
   id="namedview26"
   pagecolor="#ffffff"
   bordercolor="#000000"
   borderopacity="0.25"
   inkscape:showpageshadow="2"
   inkscape:pageopacity="0.0"
   inkscape:pagecheckerboard="true"
   inkscape:deskcolor="#d1d1d1"
   inkscape:zoom="0.478125"
   inkscape:cx="1750.5882"
   inkscape:cy="837.64706"
   inkscape:window-width="3840"
   inkscape:window-height="2066"
   inkscape:window-x="-11"
   inkscape:window-y="-11"
   inkscape:window-maximized="1"
   inkscape:current-layer="g50" />
<style
   type="text/css"
   id="style1">
	.st0{fill:#2A4E78;}
	.st1{fill:#4FBBB2;}
	.st2{fill:#FFFFFF;}
	.st3{fill:#87000A;}
	.st4{fill:#FFF800;}
	.st5{fill:#43BAB4;}
</style>

<g
   id="g72"
   inkscape:label="ShadowBlack"
   style="display:none;fill:#000000;fill-opacity:1">
		<path
   class="st0"
   d="m 835.8,739.9 c 39.1,0 73.7,15.1 104,45.3 30.2,30.2 45.4,62 45.4,95.3 0,78.6 -43.9,137 -131.6,175 -87.8,38 -183.1,57 -286.3,57 -147.9,0 -275.5,-53.6 -382.7,-160.9 C 77.3,844.3 23.7,716.7 23.7,568.9 23.7,420.5 77.8,292.8 186.2,185.8 294.5,78.7 421.5,25.2 567.3,25.2 c 106.7,0 203.1,18.7 289,56.2 85.9,37.5 128.9,96.1 128.9,175.7 0,29.7 -14.3,60.3 -43,91.8 -28.7,31.5 -64.1,47.3 -106.3,47.3 -26.6,0 -59.4,-8.8 -98.5,-26.6 -57.3,-26 -114.2,-39.1 -170.5,-39.1 -64.6,0 -121.6,24 -170.9,71.9 -49.3,47.9 -73.9,103.4 -73.9,166.4 0,62 24.5,117.2 73.5,165.6 49,48.4 106.1,72.6 171.2,72.6 55.8,0 112.6,-13.3 170.5,-39.8 39.6,-18.2 72.4,-27.3 98.5,-27.3 z"
   id="path61"
   inkscape:label="C"
   style="fill:#000000;fill-opacity:1" /><path
   class="st0"
   d="m 1181.1,946.1 -33.9,67.1 c -31.8,62 -77.6,93 -137.6,93 -42.2,0 -78.2,-15.9 -107.9,-47.6 -29.7,-31.8 -44.5,-66.9 -44.5,-105.4 0,-20.8 3.1,-38 9.4,-51.6 l 354.6,-761.3 c 15.1,-32.9 36.3,-58.7 63.7,-77.5 27.3,-18.8 56.1,-28.2 86.3,-28.2 30.7,0 59.8,9.5 87.1,28.5 27.3,19 48.6,44.6 63.7,76.8 l 351.3,761.7 c 6.8,15.1 10.2,32.3 10.2,51.6 0,39.1 -14.6,74.4 -43.8,105.9 -29.2,31.5 -64.9,47.3 -107.1,47.3 -59.4,0 -105.3,-31 -137.6,-93 l -35.7,-67.2 h -378.2 z m 259.7,-287.4 -70,-152.3 -69.7,152.3 z"
   id="path62"
   inkscape:label="A"
   style="fill:#000000;fill-opacity:1" /><path
   class="st0"
   d="m 2115,344.7 c 0,12 4,19.9 12.1,23.8 8.1,3.9 30.3,8.9 66.8,14.8 36.4,6 71.3,15.5 104.7,28.5 33.3,13 67.8,37.1 103.5,72.2 35.7,35.1 62.3,75.6 80,121.5 17.7,45.9 26.6,96.6 26.6,152.3 0,88.5 -36,169.5 -108.2,242.9 -72.2,73.4 -155.6,110.1 -250.3,110.1 -101.5,0 -187.5,-26.7 -257.7,-80.1 -70.3,-53.4 -105.4,-117.3 -105.4,-191.7 0,-38 14.8,-71.2 44.5,-99.6 29.7,-28.4 65.3,-42.6 107,-42.6 21.9,0 42.3,3.9 61.3,11.7 19,7.8 42.3,26.9 69.9,57.4 27.6,30.5 52.8,45.7 75.8,45.7 44.8,0 67.2,-26 67.2,-78.1 0,-34.9 -39.6,-58.3 -118.7,-70.3 -82.8,-12 -149.1,-47.6 -198.8,-107 -49.7,-59.4 -74.6,-132.5 -74.6,-219.5 0,-82.3 30.6,-154.8 91.8,-217.5 61.2,-62.7 142,-94.1 242.5,-94.1 90.1,0 156.3,14.2 198.8,42.6 42.4,28.4 63.6,72.8 63.6,133.2 0,30.7 -14.6,60.8 -43.7,90.2 -29.2,29.4 -63.8,44.1 -103.9,44.1 -13.5,0 -33.2,-3.8 -59,-11.3 -25.8,-7.5 -47.5,-11.3 -65.2,-11.3 -6.2,0 -12.9,3.4 -19.9,10.2 -7.2,6.8 -10.7,14.1 -10.7,21.9 z"
   id="path63"
   inkscape:label="S"
   style="fill:#000000;fill-opacity:1" /><path
   class="st0"
   d="m 2795.5,936.7 c 0,49.5 -14.1,89.3 -42.2,119.5 -28.1,30.2 -64.1,45.3 -107.8,45.3 -43.2,0 -78.8,-15.1 -106.6,-45.3 -27.9,-30.2 -41.8,-70 -41.8,-119.5 V 201 c 0,-49.5 14.1,-89.6 42.2,-120.3 28.1,-30.7 63.5,-46.1 106.2,-46.1 42.7,0 78.4,15.4 107,46.1 28.6,30.7 42.9,70.8 42.9,120.3 v 735.7 z"
   id="path64"
   inkscape:label="I"
   style="fill:#000000;fill-opacity:1" /><path
   class="st0"
   d="m 3296,23.7 c 149.9,0 278,54.5 384.4,163.6 106.4,109.1 159.6,236.3 159.6,381.6 0,145.3 -53.1,272.2 -159.2,380.8 -106.1,108.6 -234.4,162.8 -384.8,162.8 -149.9,0 -277.9,-54.3 -384,-162.8 C 2805.9,841.1 2752.8,714.2 2752.8,568.9 2752.8,423.6 2805.9,296.4 2912,187.4 3018.1,78.2 3146.1,23.7 3296,23.7 Z m 0,789.6 c 68.3,0 126.3,-24.2 174,-72.6 47.7,-48.4 71.6,-105.7 71.6,-171.8 0,-63.5 -24.1,-120.4 -72.4,-170.7 -48.2,-50.2 -106,-75.4 -173.3,-75.4 -64.1,0 -121,25 -170.6,75 -49.5,50 -74.3,107 -74.3,171.1 0,65.6 23.8,122.8 71.6,171.4 47.8,48.7 105.6,73 173.4,73 z"
   id="path65"
   inkscape:label="O"
   style="fill:#000000;fill-opacity:1" /><path
   class="st0"
   d="m 966.5,1404.8 v 94.6 c 0,18.7 -5.3,33.7 -15.9,45.1 -10.6,11.4 -24.2,17.1 -40.7,17.1 -16.3,0 -29.7,-5.7 -40.2,-17.1 -10.5,-11.4 -15.8,-26.4 -15.8,-45.1 v -289.1 c 0,-13.7 5.7,-25.7 17.2,-36 11.5,-10.2 25.6,-15.3 42.3,-15.3 h 90.5 c 37,0 67,11.9 90.2,35.7 23.2,23.8 34.8,53.2 34.8,88.1 0,29.3 -11.1,56.9 -33.4,83 -22.3,26 -46.8,39.1 -73.5,39.1 h -55.5 z m 0,-104.7 h 39.3 c 4.9,0 8.9,-1.9 12.1,-5.6 3.1,-3.7 4.7,-7.9 4.7,-12.4 0,-4.5 -1.6,-8.7 -4.7,-12.5 -3.1,-3.8 -7.2,-5.7 -12.1,-5.7 h -39.3 z"
   id="path66"
   inkscape:label="P"
   style="fill:#000000;fill-opacity:1" /><path
   class="st0"
   d="m 1293.3,1383.5 83.8,-191.2 c 4.3,-9.5 10.9,-17.4 19.7,-23.8 8.8,-6.4 17.6,-9.6 26.2,-9.6 19.6,0 35,5.4 46.3,16.1 11.3,10.7 16.9,24 16.9,39.9 0,7.7 -1.3,14.1 -3.8,19.5 l -133.6,287.9 c -5.7,12.4 -13.6,22.1 -23.8,29 -10.2,6.9 -21.1,10.3 -32.9,10.3 -10.8,0 -21.3,-3.5 -31.6,-10.6 -10.3,-7.1 -18.2,-16.6 -23.6,-28.6 l -133.8,-287.9 c -2.3,-5.9 -3.5,-12.4 -3.5,-19.5 0,-14.1 5.1,-27 15.3,-38.6 10.2,-11.6 23,-17.4 38.3,-17.4 27.3,0 45.9,11.1 55.7,33.3 z"
   id="path67"
   inkscape:label="V"
   style="fill:#000000;fill-opacity:1" /><path
   class="st0"
   d="m 1458.8,1367.8 v 0 c 0,-30.7 24.9,-55.6 55.6,-55.6 h 95.4 c 30.7,0 55.6,24.9 55.6,55.6 v 0 c 0,30.7 -24.9,55.6 -55.6,55.6 h -95.4 c -30.7,-0.1 -55.6,-25 -55.6,-55.6 z"
   id="path68"
   inkscape:label="-"
   style="fill:#000000;fill-opacity:1" /><path
   class="st0"
   d="m 1874.9,1499.4 c 0,18.7 -5.3,33.7 -15.9,45.1 -10.6,11.4 -24,17.1 -40.3,17.1 -16.3,0 -29.7,-5.7 -40.4,-17.1 -10.7,-11.4 -16,-26.4 -16,-45.1 v -183.6 c -16.5,4.5 -26.1,6.8 -28.9,6.8 -11.8,0 -23.3,-5.2 -34.5,-15.6 -11.2,-10.4 -16.8,-22.5 -16.8,-36.3 0,-23.4 6.8,-39.5 20.3,-48.3 l 84.5,-54.2 c 9,-6.1 18.4,-9.1 28.3,-9.1 17.9,0 32.3,5.6 43.3,16.8 11,11.2 16.5,23.1 16.5,35.7 v 287.8 z"
   id="path69"
   inkscape:label="1"
   style="fill:#000000;fill-opacity:1" /><path
   class="st0"
   d="m 2049.4,1159 c 57,0 105.4,20.2 145.3,60.7 39.9,40.5 59.8,87.4 59.8,140.9 0,53.3 -19.9,100.1 -59.8,140.4 -39.9,40.4 -88.3,60.6 -145.3,60.6 -57,0 -105.4,-20.2 -145.3,-60.6 -39.9,-40.4 -59.8,-87.2 -59.8,-140.4 0,-53.4 19.9,-100.4 59.7,-140.9 39.8,-40.5 88.3,-60.7 145.4,-60.7 z m 0,291.5 c 25,0 46.7,-8.8 65.1,-26.5 18.3,-17.7 27.5,-38.8 27.5,-63.4 0,-25.2 -9.1,-46.5 -27.4,-64.1 -18.2,-17.6 -40,-26.4 -65.2,-26.4 -26.6,0 -48.7,9 -66.2,27 -17.6,18 -26.3,39.1 -26.3,63.5 0,24.8 9.1,45.9 27.2,63.5 18.1,17.6 39.9,26.4 65.3,26.4 z"
   id="path70"
   inkscape:label="0"
   style="fill:#000000;fill-opacity:1" /><path
   class="st0"
   d="m 2419.4,1159 c 57,0 105.4,20.2 145.3,60.7 39.9,40.5 59.8,87.4 59.8,140.9 0,53.3 -19.9,100.1 -59.8,140.4 -39.9,40.4 -88.3,60.6 -145.3,60.6 -57,0 -105.4,-20.2 -145.3,-60.6 -39.9,-40.4 -59.8,-87.2 -59.8,-140.4 0,-53.4 19.9,-100.4 59.7,-140.9 39.8,-40.5 88.3,-60.7 145.4,-60.7 z m 0,291.5 c 25,0 46.7,-8.8 65.1,-26.5 18.3,-17.7 27.5,-38.8 27.5,-63.4 0,-25.2 -9.1,-46.5 -27.4,-64.1 -18.2,-17.6 -40,-26.4 -65.2,-26.4 -26.6,0 -48.7,9 -66.2,27 -17.6,18 -26.3,39.1 -26.3,63.5 0,24.8 9.1,45.9 27.2,63.5 18.1,17.6 39.9,26.4 65.3,26.4 z"
   id="path71"
   inkscape:label="0"
   style="fill:#000000;fill-opacity:1" /><path
   class="st0"
   d="m 2789.4,1159 c 57,0 105.4,20.2 145.3,60.7 39.9,40.5 59.8,87.4 59.8,140.9 0,53.3 -19.9,100.1 -59.8,140.4 -39.9,40.4 -88.3,60.6 -145.3,60.6 -57,0 -105.4,-20.2 -145.3,-60.6 -39.9,-40.4 -59.8,-87.2 -59.8,-140.4 0,-53.4 19.9,-100.4 59.7,-140.9 39.7,-40.5 88.2,-60.7 145.4,-60.7 z m 0,291.5 c 25,0 46.7,-8.8 65.1,-26.5 18.3,-17.7 27.5,-38.8 27.5,-63.4 0,-25.2 -9.1,-46.5 -27.4,-64.1 -18.2,-17.6 -40,-26.4 -65.2,-26.4 -26.6,0 -48.7,9 -66.2,27 -17.6,18 -26.3,39.1 -26.3,63.5 0,24.8 9.1,45.9 27.2,63.5 18.1,17.6 39.9,26.4 65.3,26.4 z"
   id="path72"
   inkscape:label="0"
   style="fill:#000000;fill-opacity:1" />
	</g><g
   id="g60"
   inkscape:label="ShadowWhite"
   style="display:inline;fill:#ffffff;fill-opacity:1">
		<path
   class="st0"
   d="m 835.8,739.9 c 39.1,0 73.7,15.1 104,45.3 30.2,30.2 45.4,62 45.4,95.3 0,78.6 -43.9,137 -131.6,175 -87.8,38 -183.1,57 -286.3,57 -147.9,0 -275.5,-53.6 -382.7,-160.9 C 77.3,844.3 23.7,716.7 23.7,568.9 23.7,420.5 77.8,292.8 186.2,185.8 294.5,78.7 421.5,25.2 567.3,25.2 c 106.7,0 203.1,18.7 289,56.2 85.9,37.5 128.9,96.1 128.9,175.7 0,29.7 -14.3,60.3 -43,91.8 -28.7,31.5 -64.1,47.3 -106.3,47.3 -26.6,0 -59.4,-8.8 -98.5,-26.6 -57.3,-26 -114.2,-39.1 -170.5,-39.1 -64.6,0 -121.6,24 -170.9,71.9 -49.3,47.9 -73.9,103.4 -73.9,166.4 0,62 24.5,117.2 73.5,165.6 49,48.4 106.1,72.6 171.2,72.6 55.8,0 112.6,-13.3 170.5,-39.8 39.6,-18.2 72.4,-27.3 98.5,-27.3 z"
   id="path49"
   inkscape:label="C"
   style="fill:#ffffff;fill-opacity:1" /><path
   class="st0"
   d="m 1181.1,946.1 -33.9,67.1 c -31.8,62 -77.6,93 -137.6,93 -42.2,0 -78.2,-15.9 -107.9,-47.6 -29.7,-31.8 -44.5,-66.9 -44.5,-105.4 0,-20.8 3.1,-38 9.4,-51.6 l 354.6,-761.3 c 15.1,-32.9 36.3,-58.7 63.7,-77.5 27.3,-18.8 56.1,-28.2 86.3,-28.2 30.7,0 59.8,9.5 87.1,28.5 27.3,19 48.6,44.6 63.7,76.8 l 351.3,761.7 c 6.8,15.1 10.2,32.3 10.2,51.6 0,39.1 -14.6,74.4 -43.8,105.9 -29.2,31.5 -64.9,47.3 -107.1,47.3 -59.4,0 -105.3,-31 -137.6,-93 l -35.7,-67.2 h -378.2 z m 259.7,-287.4 -70,-152.3 -69.7,152.3 z"
   id="path50"
   inkscape:label="A"
   style="fill:#ffffff;fill-opacity:1" /><path
   class="st0"
   d="m 2115,344.7 c 0,12 4,19.9 12.1,23.8 8.1,3.9 30.3,8.9 66.8,14.8 36.4,6 71.3,15.5 104.7,28.5 33.3,13 67.8,37.1 103.5,72.2 35.7,35.1 62.3,75.6 80,121.5 17.7,45.9 26.6,96.6 26.6,152.3 0,88.5 -36,169.5 -108.2,242.9 -72.2,73.4 -155.6,110.1 -250.3,110.1 -101.5,0 -187.5,-26.7 -257.7,-80.1 -70.3,-53.4 -105.4,-117.3 -105.4,-191.7 0,-38 14.8,-71.2 44.5,-99.6 29.7,-28.4 65.3,-42.6 107,-42.6 21.9,0 42.3,3.9 61.3,11.7 19,7.8 42.3,26.9 69.9,57.4 27.6,30.5 52.8,45.7 75.8,45.7 44.8,0 67.2,-26 67.2,-78.1 0,-34.9 -39.6,-58.3 -118.7,-70.3 -82.8,-12 -149.1,-47.6 -198.8,-107 -49.7,-59.4 -74.6,-132.5 -74.6,-219.5 0,-82.3 30.6,-154.8 91.8,-217.5 61.2,-62.7 142,-94.1 242.5,-94.1 90.1,0 156.3,14.2 198.8,42.6 42.4,28.4 63.6,72.8 63.6,133.2 0,30.7 -14.6,60.8 -43.7,90.2 -29.2,29.4 -63.8,44.1 -103.9,44.1 -13.5,0 -33.2,-3.8 -59,-11.3 -25.8,-7.5 -47.5,-11.3 -65.2,-11.3 -6.2,0 -12.9,3.4 -19.9,10.2 -7.2,6.8 -10.7,14.1 -10.7,21.9 z"
   id="path51"
   inkscape:label="S"
   style="fill:#ffffff;fill-opacity:1" /><path
   class="st0"
   d="m 2795.5,936.7 c 0,49.5 -14.1,89.3 -42.2,119.5 -28.1,30.2 -64.1,45.3 -107.8,45.3 -43.2,0 -78.8,-15.1 -106.6,-45.3 -27.9,-30.2 -41.8,-70 -41.8,-119.5 V 201 c 0,-49.5 14.1,-89.6 42.2,-120.3 28.1,-30.7 63.5,-46.1 106.2,-46.1 42.7,0 78.4,15.4 107,46.1 28.6,30.7 42.9,70.8 42.9,120.3 v 735.7 z"
   id="path52"
   inkscape:label="I"
   style="fill:#ffffff;fill-opacity:1" /><path
   class="st0"
   d="m 3296,23.7 c 149.9,0 278,54.5 384.4,163.6 106.4,109.1 159.6,236.3 159.6,381.6 0,145.3 -53.1,272.2 -159.2,380.8 -106.1,108.6 -234.4,162.8 -384.8,162.8 -149.9,0 -277.9,-54.3 -384,-162.8 C 2805.9,841.1 2752.8,714.2 2752.8,568.9 2752.8,423.6 2805.9,296.4 2912,187.4 3018.1,78.2 3146.1,23.7 3296,23.7 Z m 0,789.6 c 68.3,0 126.3,-24.2 174,-72.6 47.7,-48.4 71.6,-105.7 71.6,-171.8 0,-63.5 -24.1,-120.4 -72.4,-170.7 -48.2,-50.2 -106,-75.4 -173.3,-75.4 -64.1,0 -121,25 -170.6,75 -49.5,50 -74.3,107 -74.3,171.1 0,65.6 23.8,122.8 71.6,171.4 47.8,48.7 105.6,73 173.4,73 z"
   id="path53"
   inkscape:label="O"
   style="fill:#ffffff;fill-opacity:1" /><path
   class="st0"
   d="m 966.5,1404.8 v 94.6 c 0,18.7 -5.3,33.7 -15.9,45.1 -10.6,11.4 -24.2,17.1 -40.7,17.1 -16.3,0 -29.7,-5.7 -40.2,-17.1 -10.5,-11.4 -15.8,-26.4 -15.8,-45.1 v -289.1 c 0,-13.7 5.7,-25.7 17.2,-36 11.5,-10.2 25.6,-15.3 42.3,-15.3 h 90.5 c 37,0 67,11.9 90.2,35.7 23.2,23.8 34.8,53.2 34.8,88.1 0,29.3 -11.1,56.9 -33.4,83 -22.3,26 -46.8,39.1 -73.5,39.1 h -55.5 z m 0,-104.7 h 39.3 c 4.9,0 8.9,-1.9 12.1,-5.6 3.1,-3.7 4.7,-7.9 4.7,-12.4 0,-4.5 -1.6,-8.7 -4.7,-12.5 -3.1,-3.8 -7.2,-5.7 -12.1,-5.7 h -39.3 z"
   id="path54"
   inkscape:label="P"
   style="fill:#ffffff;fill-opacity:1" /><path
   class="st0"
   d="m 1293.3,1383.5 83.8,-191.2 c 4.3,-9.5 10.9,-17.4 19.7,-23.8 8.8,-6.4 17.6,-9.6 26.2,-9.6 19.6,0 35,5.4 46.3,16.1 11.3,10.7 16.9,24 16.9,39.9 0,7.7 -1.3,14.1 -3.8,19.5 l -133.6,287.9 c -5.7,12.4 -13.6,22.1 -23.8,29 -10.2,6.9 -21.1,10.3 -32.9,10.3 -10.8,0 -21.3,-3.5 -31.6,-10.6 -10.3,-7.1 -18.2,-16.6 -23.6,-28.6 l -133.8,-287.9 c -2.3,-5.9 -3.5,-12.4 -3.5,-19.5 0,-14.1 5.1,-27 15.3,-38.6 10.2,-11.6 23,-17.4 38.3,-17.4 27.3,0 45.9,11.1 55.7,33.3 z"
   id="path55"
   inkscape:label="V"
   style="fill:#ffffff;fill-opacity:1" /><path
   class="st0"
   d="m 1458.8,1367.8 v 0 c 0,-30.7 24.9,-55.6 55.6,-55.6 h 95.4 c 30.7,0 55.6,24.9 55.6,55.6 v 0 c 0,30.7 -24.9,55.6 -55.6,55.6 h -95.4 c -30.7,-0.1 -55.6,-25 -55.6,-55.6 z"
   id="path56"
   inkscape:label="-"
   style="fill:#ffffff;fill-opacity:1" /><path
   class="st0"
   d="m 1874.9,1499.4 c 0,18.7 -5.3,33.7 -15.9,45.1 -10.6,11.4 -24,17.1 -40.3,17.1 -16.3,0 -29.7,-5.7 -40.4,-17.1 -10.7,-11.4 -16,-26.4 -16,-45.1 v -183.6 c -16.5,4.5 -26.1,6.8 -28.9,6.8 -11.8,0 -23.3,-5.2 -34.5,-15.6 -11.2,-10.4 -16.8,-22.5 -16.8,-36.3 0,-23.4 6.8,-39.5 20.3,-48.3 l 84.5,-54.2 c 9,-6.1 18.4,-9.1 28.3,-9.1 17.9,0 32.3,5.6 43.3,16.8 11,11.2 16.5,23.1 16.5,35.7 v 287.8 z"
   id="path57"
   inkscape:label="1"
   style="fill:#ffffff;fill-opacity:1" /><path
   class="st0"
   d="m 2049.4,1159 c 57,0 105.4,20.2 145.3,60.7 39.9,40.5 59.8,87.4 59.8,140.9 0,53.3 -19.9,100.1 -59.8,140.4 -39.9,40.4 -88.3,60.6 -145.3,60.6 -57,0 -105.4,-20.2 -145.3,-60.6 -39.9,-40.4 -59.8,-87.2 -59.8,-140.4 0,-53.4 19.9,-100.4 59.7,-140.9 39.8,-40.5 88.3,-60.7 145.4,-60.7 z m 0,291.5 c 25,0 46.7,-8.8 65.1,-26.5 18.3,-17.7 27.5,-38.8 27.5,-63.4 0,-25.2 -9.1,-46.5 -27.4,-64.1 -18.2,-17.6 -40,-26.4 -65.2,-26.4 -26.6,0 -48.7,9 -66.2,27 -17.6,18 -26.3,39.1 -26.3,63.5 0,24.8 9.1,45.9 27.2,63.5 18.1,17.6 39.9,26.4 65.3,26.4 z"
   id="path58"
   inkscape:label="0"
   style="fill:#ffffff;fill-opacity:1" /><path
   class="st0"
   d="m 2419.4,1159 c 57,0 105.4,20.2 145.3,60.7 39.9,40.5 59.8,87.4 59.8,140.9 0,53.3 -19.9,100.1 -59.8,140.4 -39.9,40.4 -88.3,60.6 -145.3,60.6 -57,0 -105.4,-20.2 -145.3,-60.6 -39.9,-40.4 -59.8,-87.2 -59.8,-140.4 0,-53.4 19.9,-100.4 59.7,-140.9 39.8,-40.5 88.3,-60.7 145.4,-60.7 z m 0,291.5 c 25,0 46.7,-8.8 65.1,-26.5 18.3,-17.7 27.5,-38.8 27.5,-63.4 0,-25.2 -9.1,-46.5 -27.4,-64.1 -18.2,-17.6 -40,-26.4 -65.2,-26.4 -26.6,0 -48.7,9 -66.2,27 -17.6,18 -26.3,39.1 -26.3,63.5 0,24.8 9.1,45.9 27.2,63.5 18.1,17.6 39.9,26.4 65.3,26.4 z"
   id="path59"
   inkscape:label="0"
   style="fill:#ffffff;fill-opacity:1" /><path
   class="st0"
   d="m 2789.4,1159 c 57,0 105.4,20.2 145.3,60.7 39.9,40.5 59.8,87.4 59.8,140.9 0,53.3 -19.9,100.1 -59.8,140.4 -39.9,40.4 -88.3,60.6 -145.3,60.6 -57,0 -105.4,-20.2 -145.3,-60.6 -39.9,-40.4 -59.8,-87.2 -59.8,-140.4 0,-53.4 19.9,-100.4 59.7,-140.9 39.7,-40.5 88.2,-60.7 145.4,-60.7 z m 0,291.5 c 25,0 46.7,-8.8 65.1,-26.5 18.3,-17.7 27.5,-38.8 27.5,-63.4 0,-25.2 -9.1,-46.5 -27.4,-64.1 -18.2,-17.6 -40,-26.4 -65.2,-26.4 -26.6,0 -48.7,9 -66.2,27 -17.6,18 -26.3,39.1 -26.3,63.5 0,24.8 9.1,45.9 27.2,63.5 18.1,17.6 39.9,26.4 65.3,26.4 z"
   id="path60"
   inkscape:label="0"
   style="fill:#ffffff;fill-opacity:1" />
	</g><g
   id="g49"
   inkscape:label="Dark"
   style="display:none"><g
     id="g36"
     inkscape:label="Shadow"
     style="display:inline;fill:#4fbbb2;fill-opacity:1">
		<path
   class="st0"
   d="m 835.8,739.9 c 39.1,0 73.7,15.1 104,45.3 30.2,30.2 45.4,62 45.4,95.3 0,78.6 -43.9,137 -131.6,175 -87.8,38 -183.1,57 -286.3,57 -147.9,0 -275.5,-53.6 -382.7,-160.9 C 77.3,844.3 23.7,716.7 23.7,568.9 23.7,420.5 77.8,292.8 186.2,185.8 294.5,78.7 421.5,25.2 567.3,25.2 c 106.7,0 203.1,18.7 289,56.2 85.9,37.5 128.9,96.1 128.9,175.7 0,29.7 -14.3,60.3 -43,91.8 -28.7,31.5 -64.1,47.3 -106.3,47.3 -26.6,0 -59.4,-8.8 -98.5,-26.6 -57.3,-26 -114.2,-39.1 -170.5,-39.1 -64.6,0 -121.6,24 -170.9,71.9 -49.3,47.9 -73.9,103.4 -73.9,166.4 0,62 24.5,117.2 73.5,165.6 49,48.4 106.1,72.6 171.2,72.6 55.8,0 112.6,-13.3 170.5,-39.8 39.6,-18.2 72.4,-27.3 98.5,-27.3 z"
   id="path25"
   inkscape:label="C"
   style="fill:#4fbbb2;fill-opacity:1" /><path
   class="st0"
   d="m 1181.1,946.1 -33.9,67.1 c -31.8,62 -77.6,93 -137.6,93 -42.2,0 -78.2,-15.9 -107.9,-47.6 -29.7,-31.8 -44.5,-66.9 -44.5,-105.4 0,-20.8 3.1,-38 9.4,-51.6 l 354.6,-761.3 c 15.1,-32.9 36.3,-58.7 63.7,-77.5 27.3,-18.8 56.1,-28.2 86.3,-28.2 30.7,0 59.8,9.5 87.1,28.5 27.3,19 48.6,44.6 63.7,76.8 l 351.3,761.7 c 6.8,15.1 10.2,32.3 10.2,51.6 0,39.1 -14.6,74.4 -43.8,105.9 -29.2,31.5 -64.9,47.3 -107.1,47.3 -59.4,0 -105.3,-31 -137.6,-93 l -35.7,-67.2 h -378.2 z m 259.7,-287.4 -70,-152.3 -69.7,152.3 z"
   id="path26"
   inkscape:label="A"
   style="fill:#4fbbb2;fill-opacity:1" /><path
   class="st0"
   d="m 2115,344.7 c 0,12 4,19.9 12.1,23.8 8.1,3.9 30.3,8.9 66.8,14.8 36.4,6 71.3,15.5 104.7,28.5 33.3,13 67.8,37.1 103.5,72.2 35.7,35.1 62.3,75.6 80,121.5 17.7,45.9 26.6,96.6 26.6,152.3 0,88.5 -36,169.5 -108.2,242.9 -72.2,73.4 -155.6,110.1 -250.3,110.1 -101.5,0 -187.5,-26.7 -257.7,-80.1 -70.3,-53.4 -105.4,-117.3 -105.4,-191.7 0,-38 14.8,-71.2 44.5,-99.6 29.7,-28.4 65.3,-42.6 107,-42.6 21.9,0 42.3,3.9 61.3,11.7 19,7.8 42.3,26.9 69.9,57.4 27.6,30.5 52.8,45.7 75.8,45.7 44.8,0 67.2,-26 67.2,-78.1 0,-34.9 -39.6,-58.3 -118.7,-70.3 -82.8,-12 -149.1,-47.6 -198.8,-107 -49.7,-59.4 -74.6,-132.5 -74.6,-219.5 0,-82.3 30.6,-154.8 91.8,-217.5 61.2,-62.7 142,-94.1 242.5,-94.1 90.1,0 156.3,14.2 198.8,42.6 42.4,28.4 63.6,72.8 63.6,133.2 0,30.7 -14.6,60.8 -43.7,90.2 -29.2,29.4 -63.8,44.1 -103.9,44.1 -13.5,0 -33.2,-3.8 -59,-11.3 -25.8,-7.5 -47.5,-11.3 -65.2,-11.3 -6.2,0 -12.9,3.4 -19.9,10.2 -7.2,6.8 -10.7,14.1 -10.7,21.9 z"
   id="path27"
   inkscape:label="S"
   style="fill:#4fbbb2;fill-opacity:1" /><path
   class="st0"
   d="m 2795.5,936.7 c 0,49.5 -14.1,89.3 -42.2,119.5 -28.1,30.2 -64.1,45.3 -107.8,45.3 -43.2,0 -78.8,-15.1 -106.6,-45.3 -27.9,-30.2 -41.8,-70 -41.8,-119.5 V 201 c 0,-49.5 14.1,-89.6 42.2,-120.3 28.1,-30.7 63.5,-46.1 106.2,-46.1 42.7,0 78.4,15.4 107,46.1 28.6,30.7 42.9,70.8 42.9,120.3 v 735.7 z"
   id="path28"
   inkscape:label="I"
   style="fill:#4fbbb2;fill-opacity:1" /><path
   class="st0"
   d="m 3296,23.7 c 149.9,0 278,54.5 384.4,163.6 106.4,109.1 159.6,236.3 159.6,381.6 0,145.3 -53.1,272.2 -159.2,380.8 -106.1,108.6 -234.4,162.8 -384.8,162.8 -149.9,0 -277.9,-54.3 -384,-162.8 C 2805.9,841.1 2752.8,714.2 2752.8,568.9 2752.8,423.6 2805.9,296.4 2912,187.4 3018.1,78.2 3146.1,23.7 3296,23.7 Z m 0,789.6 c 68.3,0 126.3,-24.2 174,-72.6 47.7,-48.4 71.6,-105.7 71.6,-171.8 0,-63.5 -24.1,-120.4 -72.4,-170.7 -48.2,-50.2 -106,-75.4 -173.3,-75.4 -64.1,0 -121,25 -170.6,75 -49.5,50 -74.3,107 -74.3,171.1 0,65.6 23.8,122.8 71.6,171.4 47.8,48.7 105.6,73 173.4,73 z"
   id="path29"
   inkscape:label="O"
   style="fill:#4fbbb2;fill-opacity:1" /><path
   class="st0"
   d="m 966.5,1404.8 v 94.6 c 0,18.7 -5.3,33.7 -15.9,45.1 -10.6,11.4 -24.2,17.1 -40.7,17.1 -16.3,0 -29.7,-5.7 -40.2,-17.1 -10.5,-11.4 -15.8,-26.4 -15.8,-45.1 v -289.1 c 0,-13.7 5.7,-25.7 17.2,-36 11.5,-10.2 25.6,-15.3 42.3,-15.3 h 90.5 c 37,0 67,11.9 90.2,35.7 23.2,23.8 34.8,53.2 34.8,88.1 0,29.3 -11.1,56.9 -33.4,83 -22.3,26 -46.8,39.1 -73.5,39.1 h -55.5 z m 0,-104.7 h 39.3 c 4.9,0 8.9,-1.9 12.1,-5.6 3.1,-3.7 4.7,-7.9 4.7,-12.4 0,-4.5 -1.6,-8.7 -4.7,-12.5 -3.1,-3.8 -7.2,-5.7 -12.1,-5.7 h -39.3 z"
   id="path30"
   inkscape:label="P"
   style="fill:#4fbbb2;fill-opacity:1" /><path
   class="st0"
   d="m 1293.3,1383.5 83.8,-191.2 c 4.3,-9.5 10.9,-17.4 19.7,-23.8 8.8,-6.4 17.6,-9.6 26.2,-9.6 19.6,0 35,5.4 46.3,16.1 11.3,10.7 16.9,24 16.9,39.9 0,7.7 -1.3,14.1 -3.8,19.5 l -133.6,287.9 c -5.7,12.4 -13.6,22.1 -23.8,29 -10.2,6.9 -21.1,10.3 -32.9,10.3 -10.8,0 -21.3,-3.5 -31.6,-10.6 -10.3,-7.1 -18.2,-16.6 -23.6,-28.6 l -133.8,-287.9 c -2.3,-5.9 -3.5,-12.4 -3.5,-19.5 0,-14.1 5.1,-27 15.3,-38.6 10.2,-11.6 23,-17.4 38.3,-17.4 27.3,0 45.9,11.1 55.7,33.3 z"
   id="path31"
   inkscape:label="V"
   style="fill:#4fbbb2;fill-opacity:1" /><path
   class="st0"
   d="m 1458.8,1367.8 v 0 c 0,-30.7 24.9,-55.6 55.6,-55.6 h 95.4 c 30.7,0 55.6,24.9 55.6,55.6 v 0 c 0,30.7 -24.9,55.6 -55.6,55.6 h -95.4 c -30.7,-0.1 -55.6,-25 -55.6,-55.6 z"
   id="path32"
   inkscape:label="-"
   style="fill:#4fbbb2;fill-opacity:1" /><path
   class="st0"
   d="m 1874.9,1499.4 c 0,18.7 -5.3,33.7 -15.9,45.1 -10.6,11.4 -24,17.1 -40.3,17.1 -16.3,0 -29.7,-5.7 -40.4,-17.1 -10.7,-11.4 -16,-26.4 -16,-45.1 v -183.6 c -16.5,4.5 -26.1,6.8 -28.9,6.8 -11.8,0 -23.3,-5.2 -34.5,-15.6 -11.2,-10.4 -16.8,-22.5 -16.8,-36.3 0,-23.4 6.8,-39.5 20.3,-48.3 l 84.5,-54.2 c 9,-6.1 18.4,-9.1 28.3,-9.1 17.9,0 32.3,5.6 43.3,16.8 11,11.2 16.5,23.1 16.5,35.7 v 287.8 z"
   id="path33"
   inkscape:label="1"
   style="fill:#4fbbb2;fill-opacity:1" /><path
   class="st0"
   d="m 2049.4,1159 c 57,0 105.4,20.2 145.3,60.7 39.9,40.5 59.8,87.4 59.8,140.9 0,53.3 -19.9,100.1 -59.8,140.4 -39.9,40.4 -88.3,60.6 -145.3,60.6 -57,0 -105.4,-20.2 -145.3,-60.6 -39.9,-40.4 -59.8,-87.2 -59.8,-140.4 0,-53.4 19.9,-100.4 59.7,-140.9 39.8,-40.5 88.3,-60.7 145.4,-60.7 z m 0,291.5 c 25,0 46.7,-8.8 65.1,-26.5 18.3,-17.7 27.5,-38.8 27.5,-63.4 0,-25.2 -9.1,-46.5 -27.4,-64.1 -18.2,-17.6 -40,-26.4 -65.2,-26.4 -26.6,0 -48.7,9 -66.2,27 -17.6,18 -26.3,39.1 -26.3,63.5 0,24.8 9.1,45.9 27.2,63.5 18.1,17.6 39.9,26.4 65.3,26.4 z"
   id="path34"
   inkscape:label="0"
   style="fill:#4fbbb2;fill-opacity:1" /><path
   class="st0"
   d="m 2419.4,1159 c 57,0 105.4,20.2 145.3,60.7 39.9,40.5 59.8,87.4 59.8,140.9 0,53.3 -19.9,100.1 -59.8,140.4 -39.9,40.4 -88.3,60.6 -145.3,60.6 -57,0 -105.4,-20.2 -145.3,-60.6 -39.9,-40.4 -59.8,-87.2 -59.8,-140.4 0,-53.4 19.9,-100.4 59.7,-140.9 39.8,-40.5 88.3,-60.7 145.4,-60.7 z m 0,291.5 c 25,0 46.7,-8.8 65.1,-26.5 18.3,-17.7 27.5,-38.8 27.5,-63.4 0,-25.2 -9.1,-46.5 -27.4,-64.1 -18.2,-17.6 -40,-26.4 -65.2,-26.4 -26.6,0 -48.7,9 -66.2,27 -17.6,18 -26.3,39.1 -26.3,63.5 0,24.8 9.1,45.9 27.2,63.5 18.1,17.6 39.9,26.4 65.3,26.4 z"
   id="path35"
   inkscape:label="0"
   style="fill:#4fbbb2;fill-opacity:1" /><path
   class="st0"
   d="m 2789.4,1159 c 57,0 105.4,20.2 145.3,60.7 39.9,40.5 59.8,87.4 59.8,140.9 0,53.3 -19.9,100.1 -59.8,140.4 -39.9,40.4 -88.3,60.6 -145.3,60.6 -57,0 -105.4,-20.2 -145.3,-60.6 -39.9,-40.4 -59.8,-87.2 -59.8,-140.4 0,-53.4 19.9,-100.4 59.7,-140.9 39.7,-40.5 88.2,-60.7 145.4,-60.7 z m 0,291.5 c 25,0 46.7,-8.8 65.1,-26.5 18.3,-17.7 27.5,-38.8 27.5,-63.4 0,-25.2 -9.1,-46.5 -27.4,-64.1 -18.2,-17.6 -40,-26.4 -65.2,-26.4 -26.6,0 -48.7,9 -66.2,27 -17.6,18 -26.3,39.1 -26.3,63.5 0,24.8 9.1,45.9 27.2,63.5 18.1,17.6 39.9,26.4 65.3,26.4 z"
   id="path36"
   inkscape:label="0"
   style="fill:#4fbbb2;fill-opacity:1" />
	</g><g
     id="g48"
     inkscape:label="logo"
     style="fill:#2a4e78;fill-opacity:1">
		<path
   class="st1"
   d="m 812.1,716.2 c 39.1,0 73.7,15.1 104,45.3 30.2,30.2 45.4,62 45.4,95.3 0,78.6 -43.9,137 -131.6,175 -87.8,38 -183.1,57 -286.3,57 -147.9,0 -275.5,-53.6 -382.7,-160.9 C 53.6,820.6 0,693.1 0,545.2 0,396.8 54.1,269.1 162.5,162.1 270.8,55.1 397.8,1.6 543.6,1.6 c 106.7,0 203.1,18.7 289,56.2 85.9,37.5 128.9,96.1 128.9,175.7 0,29.7 -14.3,60.3 -43,91.8 -28.7,31.5 -64.1,47.3 -106.3,47.3 -26.6,0 -59.4,-8.8 -98.5,-26.6 -57.5,-26 -114.3,-39 -170.6,-39 -64.6,0 -121.6,24 -170.9,71.9 -49.3,47.9 -73.9,103.4 -73.9,166.4 0,62 24.5,117.2 73.5,165.6 49,48.4 106.1,72.6 171.2,72.6 55.8,0 112.6,-13.3 170.5,-39.8 39.7,-18.4 72.6,-27.5 98.6,-27.5 z"
   id="path37"
   inkscape:label="C"
   style="fill:#2a4e78;fill-opacity:1" /><path
   class="st1"
   d="m 1157.4,922.4 -33.9,67.1 c -31.8,62 -77.6,93 -137.6,93 -42.2,0 -78.2,-15.9 -107.9,-47.6 -29.7,-31.8 -44.5,-66.9 -44.5,-105.4 0,-20.8 3.1,-38 9.4,-51.6 l 354.6,-761.3 c 15.1,-32.9 36.3,-58.7 63.7,-77.5 27.3,-18.8 56.1,-28.2 86.3,-28.2 30.7,0 59.8,9.5 87.1,28.5 27.3,19 48.6,44.6 63.7,76.8 l 351.3,761.7 c 6.8,15.1 10.2,32.3 10.2,51.6 0,39.1 -14.6,74.4 -43.8,105.9 -29.2,31.5 -64.9,47.3 -107.1,47.3 -59.4,0 -105.3,-31 -137.6,-93 l -35.7,-67.2 H 1157.4 Z M 1417.1,635 1347.1,482.7 1277.4,635 Z"
   id="path38"
   inkscape:label="A"
   style="fill:#2a4e78;fill-opacity:1" /><path
   class="st1"
   d="m 2091.3,321 c 0,12 4,19.9 12.1,23.8 8.1,3.9 30.3,8.9 66.8,14.8 36.4,6 71.3,15.5 104.7,28.5 33.3,13 67.8,37.1 103.5,72.2 35.7,35.1 62.3,75.6 80,121.5 17.7,45.9 26.6,96.6 26.6,152.3 0,88.5 -36,169.5 -108.2,242.9 -72.2,73.4 -155.6,110.1 -250.3,110.1 -101.5,0 -187.4,-26.7 -257.7,-80.1 -70.3,-53.4 -105.4,-117.3 -105.4,-191.7 0,-38 14.8,-71.2 44.5,-99.6 29.7,-28.4 65.3,-42.6 107,-42.6 21.9,0 42.3,3.9 61.3,11.7 19,7.8 42.3,26.9 69.9,57.4 27.6,30.5 52.8,45.7 75.8,45.7 44.8,0 67.2,-26 67.2,-78.1 0,-34.9 -39.6,-58.3 -118.7,-70.3 -82.8,-12 -149.1,-47.6 -198.8,-107 C 1821.9,473.1 1797,400 1797,313 c 0,-82.3 30.6,-154.8 91.8,-217.5 61.2,-62.7 142,-94.1 242.5,-94.1 90.1,0 156.3,14.2 198.8,42.6 42.4,28.4 63.6,72.8 63.6,133.2 0,30.7 -14.6,60.8 -43.7,90.2 -29.2,29.4 -63.8,44.1 -103.9,44.1 -13.5,0 -33.2,-3.8 -59,-11.3 -25.8,-7.5 -47.5,-11.3 -65.2,-11.3 -6.2,0 -12.9,3.4 -19.9,10.2 -7.2,6.8 -10.7,14.1 -10.7,21.9 z"
   id="path39"
   inkscape:label="S"
   style="fill:#2a4e78;fill-opacity:1" /><path
   class="st1"
   d="m 2771.8,913 c 0,49.5 -14.1,89.3 -42.2,119.5 -28.1,30.2 -64.1,45.3 -107.8,45.3 -43.2,0 -78.8,-15.1 -106.6,-45.3 -27.9,-30.2 -41.8,-70 -41.8,-119.5 V 177.3 c 0,-49.5 14.1,-89.6 42.2,-120.3 28.1,-30.7 63.5,-46.1 106.2,-46.1 42.7,0 78.4,15.4 107,46.1 28.6,30.7 42.9,70.8 42.9,120.3 V 913 Z"
   id="path40"
   inkscape:label="I"
   style="fill:#2a4e78;fill-opacity:1" /><path
   class="st1"
   d="m 3272.3,0 c 149.9,0 278,54.5 384.4,163.6 106.4,109.1 159.6,236.3 159.6,381.5 0,145.3 -53.1,272.2 -159.2,380.8 -106.1,108.6 -234.4,162.8 -384.8,162.8 -149.9,0 -277.9,-54.3 -384,-162.8 -106.1,-108.5 -159.2,-235.5 -159.2,-380.8 0,-145.3 53.1,-272.5 159.2,-381.5 C 2994.5,54.5 3122.5,0 3272.3,0 Z m 0,789.6 c 68.3,0 126.3,-24.2 174,-72.6 47.7,-48.4 71.6,-105.7 71.6,-171.8 0,-63.5 -24.1,-120.4 -72.4,-170.7 -48.2,-50.2 -106,-75.4 -173.3,-75.4 -64.1,0 -121,25 -170.6,75 -49.5,50 -74.3,107 -74.3,171.1 0,65.6 23.8,122.8 71.6,171.4 47.8,48.7 105.6,73 173.4,73 z"
   id="path41"
   inkscape:label="O"
   style="fill:#2a4e78;fill-opacity:1" /><path
   class="st1"
   d="m 942.8,1381.1 v 94.6 c 0,18.7 -5.3,33.7 -15.9,45.1 -10.6,11.4 -24.2,17.1 -40.7,17.1 -16.3,0 -29.7,-5.7 -40.2,-17.1 -10.5,-11.4 -15.8,-26.4 -15.8,-45.1 v -289.1 c 0,-13.7 5.7,-25.7 17.2,-36 11.5,-10.2 25.6,-15.3 42.3,-15.3 h 90.5 c 37,0 67,11.9 90.2,35.7 23.2,23.8 34.8,53.2 34.8,88.1 0,29.3 -11.2,56.9 -33.4,83 -22.3,26 -46.8,39.1 -73.5,39.1 h -55.5 z m 0,-104.6 h 39.3 c 4.9,0 8.9,-1.9 12.1,-5.6 3.1,-3.7 4.7,-7.9 4.7,-12.4 0,-4.5 -1.6,-8.7 -4.7,-12.5 -3.1,-3.8 -7.2,-5.7 -12.1,-5.7 h -39.3 z"
   id="path42"
   inkscape:label="P"
   style="fill:#2a4e78;fill-opacity:1" /><path
   class="st1"
   d="m 1269.6,1359.9 83.8,-191.2 c 4.3,-9.5 10.9,-17.4 19.7,-23.8 8.8,-6.4 17.6,-9.6 26.2,-9.6 19.6,0 35,5.4 46.3,16.1 11.3,10.7 16.9,24 16.9,39.9 0,7.7 -1.3,14.1 -3.8,19.5 l -133.6,287.9 c -5.7,12.4 -13.6,22.1 -23.8,29 -10.2,6.9 -21.1,10.3 -32.9,10.3 -10.8,0 -21.3,-3.5 -31.6,-10.6 -10.3,-7.1 -18.2,-16.6 -23.6,-28.6 l -133.8,-287.9 c -2.3,-5.9 -3.5,-12.4 -3.5,-19.5 0,-14.1 5.1,-27 15.3,-38.6 10.2,-11.6 23,-17.4 38.3,-17.4 27.3,0 45.9,11.1 55.7,33.3 z"
   id="path43"
   inkscape:label="V"
   style="fill:#2a4e78;fill-opacity:1" /><path
   class="st1"
   d="m 1435.2,1344.1 v 0 c 0,-30.7 24.9,-55.6 55.6,-55.6 h 95.4 c 30.7,0 55.6,24.9 55.6,55.6 v 0 c 0,30.7 -24.9,55.6 -55.6,55.6 h -95.4 c -30.8,-0.1 -55.6,-24.9 -55.6,-55.6 z"
   id="path44"
   inkscape:label="-"
   style="fill:#2a4e78;fill-opacity:1" /><path
   class="st1"
   d="m 1851.2,1475.7 c 0,18.7 -5.3,33.7 -15.9,45.1 -10.6,11.4 -24,17.1 -40.3,17.1 -16.3,0 -29.7,-5.7 -40.4,-17.1 -10.7,-11.4 -16,-26.4 -16,-45.1 v -183.6 c -16.5,4.5 -26.1,6.8 -28.9,6.8 -11.8,0 -23.3,-5.2 -34.5,-15.6 -11.2,-10.4 -16.8,-22.5 -16.8,-36.3 0,-23.4 6.8,-39.5 20.3,-48.3 l 84.5,-54.2 c 9,-6.1 18.4,-9.1 28.3,-9.1 17.9,0 32.3,5.6 43.3,16.8 11,11.2 16.5,23.1 16.5,35.7 v 287.8 z"
   id="path45"
   inkscape:label="1"
   style="fill:#2a4e78;fill-opacity:1" /><path
   class="st1"
   d="m 2025.7,1135.3 c 57,0 105.4,20.2 145.3,60.7 39.9,40.5 59.8,87.4 59.8,140.9 0,53.3 -19.9,100.1 -59.8,140.4 -39.9,40.4 -88.3,60.6 -145.3,60.6 -57,0 -105.4,-20.2 -145.3,-60.6 -39.9,-40.4 -59.8,-87.2 -59.8,-140.4 0,-53.4 19.9,-100.4 59.7,-140.9 39.8,-40.5 88.3,-60.7 145.4,-60.7 z m 0,291.5 c 25,0 46.7,-8.8 65.1,-26.5 18.3,-17.7 27.5,-38.8 27.5,-63.4 0,-25.2 -9.1,-46.5 -27.4,-64.1 -18.3,-17.6 -40,-26.4 -65.2,-26.4 -26.6,0 -48.7,9 -66.2,27 -17.6,18 -26.3,39.1 -26.3,63.5 0,24.8 9.1,45.9 27.2,63.5 18.1,17.6 39.9,26.4 65.3,26.4 z"
   id="path46"
   inkscape:label="0"
   style="fill:#2a4e78;fill-opacity:1" /><path
   class="st1"
   d="m 2395.7,1135.3 c 57,0 105.4,20.2 145.3,60.7 39.9,40.5 59.8,87.4 59.8,140.9 0,53.3 -19.9,100.1 -59.8,140.4 -39.9,40.4 -88.3,60.6 -145.3,60.6 -57,0 -105.4,-20.2 -145.3,-60.6 -39.9,-40.4 -59.8,-87.2 -59.8,-140.4 0,-53.4 19.9,-100.4 59.7,-140.9 39.8,-40.5 88.3,-60.7 145.4,-60.7 z m 0,291.5 c 25,0 46.7,-8.8 65.1,-26.5 18.3,-17.7 27.5,-38.8 27.5,-63.4 0,-25.2 -9.1,-46.5 -27.4,-64.1 -18.3,-17.6 -40,-26.4 -65.2,-26.4 -26.6,0 -48.7,9 -66.2,27 -17.6,18 -26.3,39.1 -26.3,63.5 0,24.8 9.1,45.9 27.2,63.5 18.1,17.6 39.9,26.4 65.3,26.4 z"
   id="path47"
   inkscape:label="0"
   style="fill:#2a4e78;fill-opacity:1" /><path
   class="st1"
   d="m 2765.7,1135.3 c 57,0 105.4,20.2 145.3,60.7 39.9,40.5 59.8,87.4 59.8,140.9 0,53.3 -19.9,100.1 -59.8,140.4 -39.9,40.4 -88.3,60.6 -145.3,60.6 -57,0 -105.4,-20.2 -145.3,-60.6 -39.9,-40.4 -59.8,-87.2 -59.8,-140.4 0,-53.4 19.9,-100.4 59.7,-140.9 39.8,-40.5 88.2,-60.7 145.4,-60.7 z m 0,291.5 c 25,0 46.7,-8.8 65.1,-26.5 18.3,-17.7 27.5,-38.8 27.5,-63.4 0,-25.2 -9.1,-46.5 -27.4,-64.1 -18.2,-17.6 -40,-26.4 -65.2,-26.4 -26.6,0 -48.7,9 -66.2,27 -17.6,18 -26.3,39.1 -26.3,63.5 0,24.8 9.1,45.9 27.2,63.5 18.1,17.6 39.9,26.4 65.3,26.4 z"
   id="path48"
   inkscape:label="0"
   style="fill:#2a4e78;fill-opacity:1" />
	</g></g><g
   id="g50"
   inkscape:label="Light"
   style="display:inline"><g
     id="g13"
     inkscape:label="Shadow"
     style="display:none">
		<path
   class="st0"
   d="m 835.8,739.9 c 39.1,0 73.7,15.1 104,45.3 30.2,30.2 45.4,62 45.4,95.3 0,78.6 -43.9,137 -131.6,175 -87.8,38 -183.1,57 -286.3,57 -147.9,0 -275.5,-53.6 -382.7,-160.9 C 77.3,844.3 23.7,716.7 23.7,568.9 23.7,420.5 77.8,292.8 186.2,185.8 294.5,78.7 421.5,25.2 567.3,25.2 c 106.7,0 203.1,18.7 289,56.2 85.9,37.5 128.9,96.1 128.9,175.7 0,29.7 -14.3,60.3 -43,91.8 -28.7,31.5 -64.1,47.3 -106.3,47.3 -26.6,0 -59.4,-8.8 -98.5,-26.6 -57.3,-26 -114.2,-39.1 -170.5,-39.1 -64.6,0 -121.6,24 -170.9,71.9 -49.3,47.9 -73.9,103.4 -73.9,166.4 0,62 24.5,117.2 73.5,165.6 49,48.4 106.1,72.6 171.2,72.6 55.8,0 112.6,-13.3 170.5,-39.8 39.6,-18.2 72.4,-27.3 98.5,-27.3 z"
   id="path1"
   inkscape:label="C" /><path
   class="st0"
   d="m 1181.1,946.1 -33.9,67.1 c -31.8,62 -77.6,93 -137.6,93 -42.2,0 -78.2,-15.9 -107.9,-47.6 -29.7,-31.8 -44.5,-66.9 -44.5,-105.4 0,-20.8 3.1,-38 9.4,-51.6 l 354.6,-761.3 c 15.1,-32.9 36.3,-58.7 63.7,-77.5 27.3,-18.8 56.1,-28.2 86.3,-28.2 30.7,0 59.8,9.5 87.1,28.5 27.3,19 48.6,44.6 63.7,76.8 l 351.3,761.7 c 6.8,15.1 10.2,32.3 10.2,51.6 0,39.1 -14.6,74.4 -43.8,105.9 -29.2,31.5 -64.9,47.3 -107.1,47.3 -59.4,0 -105.3,-31 -137.6,-93 l -35.7,-67.2 h -378.2 z m 259.7,-287.4 -70,-152.3 -69.7,152.3 z"
   id="path2"
   inkscape:label="A" /><path
   class="st0"
   d="m 2115,344.7 c 0,12 4,19.9 12.1,23.8 8.1,3.9 30.3,8.9 66.8,14.8 36.4,6 71.3,15.5 104.7,28.5 33.3,13 67.8,37.1 103.5,72.2 35.7,35.1 62.3,75.6 80,121.5 17.7,45.9 26.6,96.6 26.6,152.3 0,88.5 -36,169.5 -108.2,242.9 -72.2,73.4 -155.6,110.1 -250.3,110.1 -101.5,0 -187.5,-26.7 -257.7,-80.1 -70.3,-53.4 -105.4,-117.3 -105.4,-191.7 0,-38 14.8,-71.2 44.5,-99.6 29.7,-28.4 65.3,-42.6 107,-42.6 21.9,0 42.3,3.9 61.3,11.7 19,7.8 42.3,26.9 69.9,57.4 27.6,30.5 52.8,45.7 75.8,45.7 44.8,0 67.2,-26 67.2,-78.1 0,-34.9 -39.6,-58.3 -118.7,-70.3 -82.8,-12 -149.1,-47.6 -198.8,-107 -49.7,-59.4 -74.6,-132.5 -74.6,-219.5 0,-82.3 30.6,-154.8 91.8,-217.5 61.2,-62.7 142,-94.1 242.5,-94.1 90.1,0 156.3,14.2 198.8,42.6 42.4,28.4 63.6,72.8 63.6,133.2 0,30.7 -14.6,60.8 -43.7,90.2 -29.2,29.4 -63.8,44.1 -103.9,44.1 -13.5,0 -33.2,-3.8 -59,-11.3 -25.8,-7.5 -47.5,-11.3 -65.2,-11.3 -6.2,0 -12.9,3.4 -19.9,10.2 -7.2,6.8 -10.7,14.1 -10.7,21.9 z"
   id="path3"
   inkscape:label="S" /><path
   class="st0"
   d="m 2795.5,936.7 c 0,49.5 -14.1,89.3 -42.2,119.5 -28.1,30.2 -64.1,45.3 -107.8,45.3 -43.2,0 -78.8,-15.1 -106.6,-45.3 -27.9,-30.2 -41.8,-70 -41.8,-119.5 V 201 c 0,-49.5 14.1,-89.6 42.2,-120.3 28.1,-30.7 63.5,-46.1 106.2,-46.1 42.7,0 78.4,15.4 107,46.1 28.6,30.7 42.9,70.8 42.9,120.3 v 735.7 z"
   id="path4"
   inkscape:label="I" /><path
   class="st0"
   d="m 3296,23.7 c 149.9,0 278,54.5 384.4,163.6 106.4,109.1 159.6,236.3 159.6,381.6 0,145.3 -53.1,272.2 -159.2,380.8 -106.1,108.6 -234.4,162.8 -384.8,162.8 -149.9,0 -277.9,-54.3 -384,-162.8 C 2805.9,841.1 2752.8,714.2 2752.8,568.9 2752.8,423.6 2805.9,296.4 2912,187.4 3018.1,78.2 3146.1,23.7 3296,23.7 Z m 0,789.6 c 68.3,0 126.3,-24.2 174,-72.6 47.7,-48.4 71.6,-105.7 71.6,-171.8 0,-63.5 -24.1,-120.4 -72.4,-170.7 -48.2,-50.2 -106,-75.4 -173.3,-75.4 -64.1,0 -121,25 -170.6,75 -49.5,50 -74.3,107 -74.3,171.1 0,65.6 23.8,122.8 71.6,171.4 47.8,48.7 105.6,73 173.4,73 z"
   id="path5"
   inkscape:label="O" /><path
   class="st0"
   d="m 966.5,1404.8 v 94.6 c 0,18.7 -5.3,33.7 -15.9,45.1 -10.6,11.4 -24.2,17.1 -40.7,17.1 -16.3,0 -29.7,-5.7 -40.2,-17.1 -10.5,-11.4 -15.8,-26.4 -15.8,-45.1 v -289.1 c 0,-13.7 5.7,-25.7 17.2,-36 11.5,-10.2 25.6,-15.3 42.3,-15.3 h 90.5 c 37,0 67,11.9 90.2,35.7 23.2,23.8 34.8,53.2 34.8,88.1 0,29.3 -11.1,56.9 -33.4,83 -22.3,26 -46.8,39.1 -73.5,39.1 h -55.5 z m 0,-104.7 h 39.3 c 4.9,0 8.9,-1.9 12.1,-5.6 3.1,-3.7 4.7,-7.9 4.7,-12.4 0,-4.5 -1.6,-8.7 -4.7,-12.5 -3.1,-3.8 -7.2,-5.7 -12.1,-5.7 h -39.3 z"
   id="path10"
   inkscape:label="P" /><path
   class="st0"
   d="m 1293.3,1383.5 83.8,-191.2 c 4.3,-9.5 10.9,-17.4 19.7,-23.8 8.8,-6.4 17.6,-9.6 26.2,-9.6 19.6,0 35,5.4 46.3,16.1 11.3,10.7 16.9,24 16.9,39.9 0,7.7 -1.3,14.1 -3.8,19.5 l -133.6,287.9 c -5.7,12.4 -13.6,22.1 -23.8,29 -10.2,6.9 -21.1,10.3 -32.9,10.3 -10.8,0 -21.3,-3.5 -31.6,-10.6 -10.3,-7.1 -18.2,-16.6 -23.6,-28.6 l -133.8,-287.9 c -2.3,-5.9 -3.5,-12.4 -3.5,-19.5 0,-14.1 5.1,-27 15.3,-38.6 10.2,-11.6 23,-17.4 38.3,-17.4 27.3,0 45.9,11.1 55.7,33.3 z"
   id="path11"
   inkscape:label="V" /><path
   class="st0"
   d="m 1458.8,1367.8 v 0 c 0,-30.7 24.9,-55.6 55.6,-55.6 h 95.4 c 30.7,0 55.6,24.9 55.6,55.6 v 0 c 0,30.7 -24.9,55.6 -55.6,55.6 h -95.4 c -30.7,-0.1 -55.6,-25 -55.6,-55.6 z"
   id="path12"
   inkscape:label="-" /><path
   class="st0"
   d="m 1874.9,1499.4 c 0,18.7 -5.3,33.7 -15.9,45.1 -10.6,11.4 -24,17.1 -40.3,17.1 -16.3,0 -29.7,-5.7 -40.4,-17.1 -10.7,-11.4 -16,-26.4 -16,-45.1 v -183.6 c -16.5,4.5 -26.1,6.8 -28.9,6.8 -11.8,0 -23.3,-5.2 -34.5,-15.6 -11.2,-10.4 -16.8,-22.5 -16.8,-36.3 0,-23.4 6.8,-39.5 20.3,-48.3 l 84.5,-54.2 c 9,-6.1 18.4,-9.1 28.3,-9.1 17.9,0 32.3,5.6 43.3,16.8 11,11.2 16.5,23.1 16.5,35.7 v 287.8 z"
   id="path6"
   inkscape:label="1" /><path
   class="st0"
   d="m 2049.4,1159 c 57,0 105.4,20.2 145.3,60.7 39.9,40.5 59.8,87.4 59.8,140.9 0,53.3 -19.9,100.1 -59.8,140.4 -39.9,40.4 -88.3,60.6 -145.3,60.6 -57,0 -105.4,-20.2 -145.3,-60.6 -39.9,-40.4 -59.8,-87.2 -59.8,-140.4 0,-53.4 19.9,-100.4 59.7,-140.9 39.8,-40.5 88.3,-60.7 145.4,-60.7 z m 0,291.5 c 25,0 46.7,-8.8 65.1,-26.5 18.3,-17.7 27.5,-38.8 27.5,-63.4 0,-25.2 -9.1,-46.5 -27.4,-64.1 -18.2,-17.6 -40,-26.4 -65.2,-26.4 -26.6,0 -48.7,9 -66.2,27 -17.6,18 -26.3,39.1 -26.3,63.5 0,24.8 9.1,45.9 27.2,63.5 18.1,17.6 39.9,26.4 65.3,26.4 z"
   id="path7"
   inkscape:label="0" /><path
   class="st0"
   d="m 2419.4,1159 c 57,0 105.4,20.2 145.3,60.7 39.9,40.5 59.8,87.4 59.8,140.9 0,53.3 -19.9,100.1 -59.8,140.4 -39.9,40.4 -88.3,60.6 -145.3,60.6 -57,0 -105.4,-20.2 -145.3,-60.6 -39.9,-40.4 -59.8,-87.2 -59.8,-140.4 0,-53.4 19.9,-100.4 59.7,-140.9 39.8,-40.5 88.3,-60.7 145.4,-60.7 z m 0,291.5 c 25,0 46.7,-8.8 65.1,-26.5 18.3,-17.7 27.5,-38.8 27.5,-63.4 0,-25.2 -9.1,-46.5 -27.4,-64.1 -18.2,-17.6 -40,-26.4 -65.2,-26.4 -26.6,0 -48.7,9 -66.2,27 -17.6,18 -26.3,39.1 -26.3,63.5 0,24.8 9.1,45.9 27.2,63.5 18.1,17.6 39.9,26.4 65.3,26.4 z"
   id="path8"
   inkscape:label="0" /><path
   class="st0"
   d="m 2789.4,1159 c 57,0 105.4,20.2 145.3,60.7 39.9,40.5 59.8,87.4 59.8,140.9 0,53.3 -19.9,100.1 -59.8,140.4 -39.9,40.4 -88.3,60.6 -145.3,60.6 -57,0 -105.4,-20.2 -145.3,-60.6 -39.9,-40.4 -59.8,-87.2 -59.8,-140.4 0,-53.4 19.9,-100.4 59.7,-140.9 39.7,-40.5 88.2,-60.7 145.4,-60.7 z m 0,291.5 c 25,0 46.7,-8.8 65.1,-26.5 18.3,-17.7 27.5,-38.8 27.5,-63.4 0,-25.2 -9.1,-46.5 -27.4,-64.1 -18.2,-17.6 -40,-26.4 -65.2,-26.4 -26.6,0 -48.7,9 -66.2,27 -17.6,18 -26.3,39.1 -26.3,63.5 0,24.8 9.1,45.9 27.2,63.5 18.1,17.6 39.9,26.4 65.3,26.4 z"
   id="path9"
   inkscape:label="0" />
	</g><g
     id="g25"
     inkscape:label="logo"
     style="display:inline">
		<path
   class="st1"
   d="m 812.1,716.2 c 39.1,0 73.7,15.1 104,45.3 30.2,30.2 45.4,62 45.4,95.3 0,78.6 -43.9,137 -131.6,175 -87.8,38 -183.1,57 -286.3,57 -147.9,0 -275.5,-53.6 -382.7,-160.9 C 53.6,820.6 0,693.1 0,545.2 0,396.8 54.1,269.1 162.5,162.1 270.8,55.1 397.8,1.6 543.6,1.6 c 106.7,0 203.1,18.7 289,56.2 85.9,37.5 128.9,96.1 128.9,175.7 0,29.7 -14.3,60.3 -43,91.8 -28.7,31.5 -64.1,47.3 -106.3,47.3 -26.6,0 -59.4,-8.8 -98.5,-26.6 -57.5,-26 -114.3,-39 -170.6,-39 -64.6,0 -121.6,24 -170.9,71.9 -49.3,47.9 -73.9,103.4 -73.9,166.4 0,62 24.5,117.2 73.5,165.6 49,48.4 106.1,72.6 171.2,72.6 55.8,0 112.6,-13.3 170.5,-39.8 39.7,-18.4 72.6,-27.5 98.6,-27.5 z"
   id="path13"
   inkscape:label="C" /><path
   class="st1"
   d="m 1157.4,922.4 -33.9,67.1 c -31.8,62 -77.6,93 -137.6,93 -42.2,0 -78.2,-15.9 -107.9,-47.6 -29.7,-31.8 -44.5,-66.9 -44.5,-105.4 0,-20.8 3.1,-38 9.4,-51.6 l 354.6,-761.3 c 15.1,-32.9 36.3,-58.7 63.7,-77.5 27.3,-18.8 56.1,-28.2 86.3,-28.2 30.7,0 59.8,9.5 87.1,28.5 27.3,19 48.6,44.6 63.7,76.8 l 351.3,761.7 c 6.8,15.1 10.2,32.3 10.2,51.6 0,39.1 -14.6,74.4 -43.8,105.9 -29.2,31.5 -64.9,47.3 -107.1,47.3 -59.4,0 -105.3,-31 -137.6,-93 l -35.7,-67.2 H 1157.4 Z M 1417.1,635 1347.1,482.7 1277.4,635 Z"
   id="path14"
   inkscape:label="A" /><path
   class="st1"
   d="m 2091.3,321 c 0,12 4,19.9 12.1,23.8 8.1,3.9 30.3,8.9 66.8,14.8 36.4,6 71.3,15.5 104.7,28.5 33.3,13 67.8,37.1 103.5,72.2 35.7,35.1 62.3,75.6 80,121.5 17.7,45.9 26.6,96.6 26.6,152.3 0,88.5 -36,169.5 -108.2,242.9 -72.2,73.4 -155.6,110.1 -250.3,110.1 -101.5,0 -187.4,-26.7 -257.7,-80.1 -70.3,-53.4 -105.4,-117.3 -105.4,-191.7 0,-38 14.8,-71.2 44.5,-99.6 29.7,-28.4 65.3,-42.6 107,-42.6 21.9,0 42.3,3.9 61.3,11.7 19,7.8 42.3,26.9 69.9,57.4 27.6,30.5 52.8,45.7 75.8,45.7 44.8,0 67.2,-26 67.2,-78.1 0,-34.9 -39.6,-58.3 -118.7,-70.3 -82.8,-12 -149.1,-47.6 -198.8,-107 C 1821.9,473.1 1797,400 1797,313 c 0,-82.3 30.6,-154.8 91.8,-217.5 61.2,-62.7 142,-94.1 242.5,-94.1 90.1,0 156.3,14.2 198.8,42.6 42.4,28.4 63.6,72.8 63.6,133.2 0,30.7 -14.6,60.8 -43.7,90.2 -29.2,29.4 -63.8,44.1 -103.9,44.1 -13.5,0 -33.2,-3.8 -59,-11.3 -25.8,-7.5 -47.5,-11.3 -65.2,-11.3 -6.2,0 -12.9,3.4 -19.9,10.2 -7.2,6.8 -10.7,14.1 -10.7,21.9 z"
   id="path15"
   inkscape:label="S" /><path
   class="st1"
   d="m 2771.8,913 c 0,49.5 -14.1,89.3 -42.2,119.5 -28.1,30.2 -64.1,45.3 -107.8,45.3 -43.2,0 -78.8,-15.1 -106.6,-45.3 -27.9,-30.2 -41.8,-70 -41.8,-119.5 V 177.3 c 0,-49.5 14.1,-89.6 42.2,-120.3 28.1,-30.7 63.5,-46.1 106.2,-46.1 42.7,0 78.4,15.4 107,46.1 28.6,30.7 42.9,70.8 42.9,120.3 V 913 Z"
   id="path16"
   inkscape:label="I" /><path
   class="st1"
   d="m 3272.3,0 c 149.9,0 278,54.5 384.4,163.6 106.4,109.1 159.6,236.3 159.6,381.5 0,145.3 -53.1,272.2 -159.2,380.8 -106.1,108.6 -234.4,162.8 -384.8,162.8 -149.9,0 -277.9,-54.3 -384,-162.8 -106.1,-108.5 -159.2,-235.5 -159.2,-380.8 0,-145.3 53.1,-272.5 159.2,-381.5 C 2994.5,54.5 3122.5,0 3272.3,0 Z m 0,789.6 c 68.3,0 126.3,-24.2 174,-72.6 47.7,-48.4 71.6,-105.7 71.6,-171.8 0,-63.5 -24.1,-120.4 -72.4,-170.7 -48.2,-50.2 -106,-75.4 -173.3,-75.4 -64.1,0 -121,25 -170.6,75 -49.5,50 -74.3,107 -74.3,171.1 0,65.6 23.8,122.8 71.6,171.4 47.8,48.7 105.6,73 173.4,73 z"
   id="path17"
   inkscape:label="O" /><path
   class="st1"
   d="m 942.8,1381.1 v 94.6 c 0,18.7 -5.3,33.7 -15.9,45.1 -10.6,11.4 -24.2,17.1 -40.7,17.1 -16.3,0 -29.7,-5.7 -40.2,-17.1 -10.5,-11.4 -15.8,-26.4 -15.8,-45.1 v -289.1 c 0,-13.7 5.7,-25.7 17.2,-36 11.5,-10.2 25.6,-15.3 42.3,-15.3 h 90.5 c 37,0 67,11.9 90.2,35.7 23.2,23.8 34.8,53.2 34.8,88.1 0,29.3 -11.2,56.9 -33.4,83 -22.3,26 -46.8,39.1 -73.5,39.1 h -55.5 z m 0,-104.6 h 39.3 c 4.9,0 8.9,-1.9 12.1,-5.6 3.1,-3.7 4.7,-7.9 4.7,-12.4 0,-4.5 -1.6,-8.7 -4.7,-12.5 -3.1,-3.8 -7.2,-5.7 -12.1,-5.7 h -39.3 z"
   id="path22"
   inkscape:label="P" /><path
   class="st1"
   d="m 1269.6,1359.9 83.8,-191.2 c 4.3,-9.5 10.9,-17.4 19.7,-23.8 8.8,-6.4 17.6,-9.6 26.2,-9.6 19.6,0 35,5.4 46.3,16.1 11.3,10.7 16.9,24 16.9,39.9 0,7.7 -1.3,14.1 -3.8,19.5 l -133.6,287.9 c -5.7,12.4 -13.6,22.1 -23.8,29 -10.2,6.9 -21.1,10.3 -32.9,10.3 -10.8,0 -21.3,-3.5 -31.6,-10.6 -10.3,-7.1 -18.2,-16.6 -23.6,-28.6 l -133.8,-287.9 c -2.3,-5.9 -3.5,-12.4 -3.5,-19.5 0,-14.1 5.1,-27 15.3,-38.6 10.2,-11.6 23,-17.4 38.3,-17.4 27.3,0 45.9,11.1 55.7,33.3 z"
   id="path23"
   inkscape:label="V" /><path
   class="st1"
   d="m 1435.2,1344.1 v 0 c 0,-30.7 24.9,-55.6 55.6,-55.6 h 95.4 c 30.7,0 55.6,24.9 55.6,55.6 v 0 c 0,30.7 -24.9,55.6 -55.6,55.6 h -95.4 c -30.8,-0.1 -55.6,-24.9 -55.6,-55.6 z"
   id="path24"
   inkscape:label="-" /><path
   class="st1"
   d="m 1851.2,1475.7 c 0,18.7 -5.3,33.7 -15.9,45.1 -10.6,11.4 -24,17.1 -40.3,17.1 -16.3,0 -29.7,-5.7 -40.4,-17.1 -10.7,-11.4 -16,-26.4 -16,-45.1 v -183.6 c -16.5,4.5 -26.1,6.8 -28.9,6.8 -11.8,0 -23.3,-5.2 -34.5,-15.6 -11.2,-10.4 -16.8,-22.5 -16.8,-36.3 0,-23.4 6.8,-39.5 20.3,-48.3 l 84.5,-54.2 c 9,-6.1 18.4,-9.1 28.3,-9.1 17.9,0 32.3,5.6 43.3,16.8 11,11.2 16.5,23.1 16.5,35.7 v 287.8 z"
   id="path18"
   inkscape:label="1" /><path
   class="st1"
   d="m 2025.7,1135.3 c 57,0 105.4,20.2 145.3,60.7 39.9,40.5 59.8,87.4 59.8,140.9 0,53.3 -19.9,100.1 -59.8,140.4 -39.9,40.4 -88.3,60.6 -145.3,60.6 -57,0 -105.4,-20.2 -145.3,-60.6 -39.9,-40.4 -59.8,-87.2 -59.8,-140.4 0,-53.4 19.9,-100.4 59.7,-140.9 39.8,-40.5 88.3,-60.7 145.4,-60.7 z m 0,291.5 c 25,0 46.7,-8.8 65.1,-26.5 18.3,-17.7 27.5,-38.8 27.5,-63.4 0,-25.2 -9.1,-46.5 -27.4,-64.1 -18.3,-17.6 -40,-26.4 -65.2,-26.4 -26.6,0 -48.7,9 -66.2,27 -17.6,18 -26.3,39.1 -26.3,63.5 0,24.8 9.1,45.9 27.2,63.5 18.1,17.6 39.9,26.4 65.3,26.4 z"
   id="path19"
   inkscape:label="0" /><path
   class="st1"
   d="m 2395.7,1135.3 c 57,0 105.4,20.2 145.3,60.7 39.9,40.5 59.8,87.4 59.8,140.9 0,53.3 -19.9,100.1 -59.8,140.4 -39.9,40.4 -88.3,60.6 -145.3,60.6 -57,0 -105.4,-20.2 -145.3,-60.6 -39.9,-40.4 -59.8,-87.2 -59.8,-140.4 0,-53.4 19.9,-100.4 59.7,-140.9 39.8,-40.5 88.3,-60.7 145.4,-60.7 z m 0,291.5 c 25,0 46.7,-8.8 65.1,-26.5 18.3,-17.7 27.5,-38.8 27.5,-63.4 0,-25.2 -9.1,-46.5 -27.4,-64.1 -18.3,-17.6 -40,-26.4 -65.2,-26.4 -26.6,0 -48.7,9 -66.2,27 -17.6,18 -26.3,39.1 -26.3,63.5 0,24.8 9.1,45.9 27.2,63.5 18.1,17.6 39.9,26.4 65.3,26.4 z"
   id="path20"
   inkscape:label="0" /><path
   class="st1"
   d="m 2765.7,1135.3 c 57,0 105.4,20.2 145.3,60.7 39.9,40.5 59.8,87.4 59.8,140.9 0,53.3 -19.9,100.1 -59.8,140.4 -39.9,40.4 -88.3,60.6 -145.3,60.6 -57,0 -105.4,-20.2 -145.3,-60.6 -39.9,-40.4 -59.8,-87.2 -59.8,-140.4 0,-53.4 19.9,-100.4 59.7,-140.9 39.8,-40.5 88.2,-60.7 145.4,-60.7 z m 0,291.5 c 25,0 46.7,-8.8 65.1,-26.5 18.3,-17.7 27.5,-38.8 27.5,-63.4 0,-25.2 -9.1,-46.5 -27.4,-64.1 -18.2,-17.6 -40,-26.4 -65.2,-26.4 -26.6,0 -48.7,9 -66.2,27 -17.6,18 -26.3,39.1 -26.3,63.5 0,24.8 9.1,45.9 27.2,63.5 18.1,17.6 39.9,26.4 65.3,26.4 z"
   id="path21"
   inkscape:label="0" />
	</g></g></svg>
