<?xml version="1.0" encoding="UTF-8" standalone="no"?>
<svg
   width="566.929"
   height="142.564"
   xml:space="preserve"
   version="1.1"
   id="svg1"
   sodipodi:docname="virtualboy-w.svg"
   inkscape:version="1.4 (86a8ad7, 2024-10-11)"
   xmlns:inkscape="http://www.inkscape.org/namespaces/inkscape"
   xmlns:sodipodi="http://sodipodi.sourceforge.net/DTD/sodipodi-0.dtd"
   xmlns="http://www.w3.org/2000/svg"
   xmlns:svg="http://www.w3.org/2000/svg"><defs
   id="defs1" /><sodipodi:namedview
   id="namedview1"
   pagecolor="#ffffff"
   bordercolor="#000000"
   borderopacity="0.25"
   inkscape:showpageshadow="2"
   inkscape:pageopacity="0.0"
   inkscape:pagecheckerboard="true"
   inkscape:deskcolor="#d1d1d1"
   inkscape:zoom="3.2385007"
   inkscape:cx="286.55236"
   inkscape:cy="64.07286"
   inkscape:window-width="3840"
   inkscape:window-height="2066"
   inkscape:window-x="-11"
   inkscape:window-y="-11"
   inkscape:window-maximized="1"
   inkscape:current-layer="svg1" />
    <path
   id="path3"
   style="display:inline;fill:#ffffff;stroke-width:0.806676;stroke-linecap:square"
   d="M 119.85352,20.910156 V 127.26562 h 17.65624 V 81.505859 l 17.02735,45.757811 h 16.60938 L 154.9336,77.43164 c 8.33292,-4.444977 11.13281,-10.017578 11.13281,-10.017578 l 0.10547,-0.230468 V 33.722656 l -0.14649,-0.265625 c -3.07228,-5.540926 -7.33385,-8.704985 -10.84766,-10.443359 -3.51381,-1.738374 -6.42577,-2.091797 -6.42577,-2.091797 l -0.11524,-0.01172 z m 253.63672,0 V 127.26562 h 30.67187 l 0.20508,-0.0449 c 7.03171,-1.4878 10.98713,-4.35374 13.07421,-6.89258 2.08708,-2.53885 2.35742,-4.84961 2.35742,-4.84961 l 0.008,-0.0586 v -0.0586 c 0,0 -0.0215,-27.687875 -0.0215,-34.841795 v -0.121094 l -0.0254,-0.11914 c -0.57967,-2.609298 -2.34484,-4.186191 -3.96289,-4.955079 -0.58443,-0.277721 -1.0885,-0.38326 -1.58789,-0.505859 -3.6e-4,-0.05653 2.8e-4,-0.09119 0,-0.152344 2.21768,-0.531993 3.72228,-1.769322 4.49414,-2.927734 0.9421,-1.413919 1.0957,-2.775391 1.0957,-2.775391 l 0.01,-0.06641 v -0.06836 c 0,0 -0.0206,-27.663712 0,-34.812499 v -0.142579 l -0.0371,-0.138672 C 417.35063,24.374659 404.48047,20.980469 404.48047,20.980469 l -0.25977,-0.07031 z M 33.390625,20.921875 60.412109,126.18555 63.671875,126.1836 90.552734,20.921875 H 72.777344 L 62.033203,72.46875 51.166015,20.921875 Z m 59.322265,0 V 127.26172 h 17.65234 V 20.921875 Z m 74.625,0 V 34.15625 h 14.1875 v 93.10351 h 17.65429 V 34.15625 h 14.32618 V 20.921875 Z m 48.43164,0 v 93.507815 l 0.12695,0.25 c 0,0 6.55259,12.58203 23.77539,12.58203 8.6114,0 14.35279,-3.18152 17.77344,-6.33203 3.42067,-3.15052 4.68555,-6.35742 4.68555,-6.35742 l 0.0781,-0.19922 V 20.921875 H 244.69531 V 112.80859 H 233.56055 V 20.921875 Z m 106.14063,0 0.002,106.337885 h 39.07422 V 114.02539 H 339.56445 V 20.921875 Z m 152.74609,0 19.1543,62.480469 v 43.857416 h 17.65234 V 83.412109 L 532.01953,20.921875 H 514.05859 L 503.17383,60.960938 491.1914,20.921875 Z m -23.61133,0.002 c -17.23863,0.01759 -23.04883,12.628904 -23.04883,12.628904 l -0.2832,0.634765 0.19922,0.246094 c 0.003,0.136337 0.005,0.275935 0.008,0.49414 0.006,0.574347 0.013,1.41816 0.0175,2.490235 0.009,2.144152 0.0144,5.205282 0.0175,8.878906 0.006,7.34725 8.9e-4,17.152227 -0.008,27.021484 -0.0167,19.738515 -0.0489,39.713107 -0.0489,40.843747 v 0.0937 l 0.0157,0.0918 c 1.17369,6.84962 7.24167,10.24338 12.69531,11.69726 5.41974,1.44486 10.45468,1.21578 10.51758,1.21289 11.07773,-0.0103 17.08332,-3.13807 20.07813,-6.41601 2.99976,-3.28337 3.00976,-6.68165 3.00976,-6.68165 V 33.773438 l -0.10344,-0.226563 c -2.95608,-6.55815 -8.81073,-9.802091 -13.80664,-11.292969 -4.95819,-1.479621 -9.19545,-1.33237 -9.25977,-1.330078 z M 289.47461,21.974609 261.75976,125.6582 v 1.60547 h 17.25977 l 3,-13.96875 h 17.20704 l 2.86718,13.96875 h 17.78906 L 292.73047,21.984375 Z M 137.50976,34.164063 h 11.00196 v 33.312499 h -11.00196 z m 308.04493,1.199218 h 11.00195 v 78.644529 h -11.00195 z m -54.36328,0.07227 h 11.09179 v 32.041015 h -11.09179 z m -100.2168,40.003906 4.73438,25.835933 h -10.24414 z m 100.17382,5.257813 h 11.13477 v 33.31054 h -11.13477 z m 125.6504,33.33007 v 3.90821 h 4.29687 v 9.32617 h 4.76172 v -9.32617 h 2.33398 v 9.32617 h 4.76368 v -2.97852 l 1.58789,2.97852 h 1.39844 l 0.49609,0.91015 0.47461,-0.91015 h 1.27539 l 1.46484,-2.82031 v 2.82031 h 4.83008 v -13.23438 h -4.26758 l -3.83984,7.34766 -4.00195,-7.34766 h -2.28516 -1.89649 -9.7246 z"
   inkscape:label="VirtualBoyOutline" />
<path
   d="m0 .016 29.727 142.532L59.3.016H43.294L29.727 80.124 16.007.016ZM65.855.016h16.006v142.532H65.855ZM96.181 0v142.554h16.012V68.899l22.266 73.653h14.762l-17.813-67.398c9.896-5.937 12.81-13.71 12.81-13.71V16.161C137.66 1.603 126.353 0 126.353 0Zm16.012 14.51h16.012v49.536h-16.012zM149.24.016h47.867v14.481H181.1v128.05h-16.006V14.498H149.24ZM285.67 0l-30.925 142.402v.15h15.862l3.353-19.213h22.366l3.202 19.213h16.012zm0 61.443 7.305 49.085h-15.813zM321.955.016h16.008v128.049h23.935v14.482h-39.941zM493.148.016h14.634l14.938 61.435L536.288.016h16.156l-22.408 83.842v58.689H514.03V83.859ZM464.423.016c-18.193 0-24.041 16.146-24.041 16.146.15.229 0 107.181 0 110.23 2.412 17.326 24.041 16.156 24.041 16.156 24 0 23.992-16.156 23.992-16.156V16.161C482.21-.783 464.423.016 464.423.016Zm-8.031 16.145h16.013v111.881h-16.013zM203.356.016h16.16V126.39h16.159V.016h15.853V126.39s-5.183 16.158-23.323 16.158-24.849-16.158-24.849-16.158zM379.588 0v142.554h32.173c14.933-3.889 15.86-14.512 15.86-14.512s-.024-38.076-.024-47.918c-1.121-6.213-6.229-6.422-6.229-6.422s-.021-1.732 0-3.102c5.645-.432 6.254-6.555 6.254-6.555s-.023-38.039 0-47.885C425.179 4.533 411.761 0 411.761 0Zm16.061 16.26h16.11v47.785h-16.11zm-.05 62.247h16.16v49.535h-16.16zM539.72 128.066h11.125v1.656h-4.725v12.826h-1.602v-12.826h-4.801v-1.656zM552.447 142.548v-14.482h1.602l5.717 12.92 5.486-12.92h1.678v14.482h-1.678v-11.209l-4.73 11.209h-1.617l-4.854-11.209v11.209z"
   style="fill:#fe0016"
   transform="matrix(.89496 0 0 .7271 35.438 22.262)"
   id="path2"
   inkscape:label="VirtualBoy" /></svg>
