<?xml version="1.0" encoding="UTF-8" standalone="no"?>
<svg
   width="1329.7817"
   height="213.239"
   viewBox="0 -26.707 1329.7818 213.23901"
   xml:space="preserve"
   version="1.1"
   id="svg1"
   sodipodi:docname="wiih-w.svg"
   inkscape:version="1.4 (86a8ad7, 2024-10-11)"
   xmlns:inkscape="http://www.inkscape.org/namespaces/inkscape"
   xmlns:sodipodi="http://sodipodi.sourceforge.net/DTD/sodipodi-0.dtd"
   xmlns="http://www.w3.org/2000/svg"
   xmlns:svg="http://www.w3.org/2000/svg"><defs
   id="defs1" /><sodipodi:namedview
   id="namedview1"
   pagecolor="#ffffff"
   bordercolor="#000000"
   borderopacity="0.25"
   inkscape:showpageshadow="2"
   inkscape:pageopacity="0.0"
   inkscape:pagecheckerboard="true"
   inkscape:deskcolor="#d1d1d1"
   inkscape:zoom="1.4142136"
   inkscape:cx="632.15345"
   inkscape:cy="122.68302"
   inkscape:window-width="3818"
   inkscape:window-height="994"
   inkscape:window-x="0"
   inkscape:window-y="1050"
   inkscape:window-maximized="0"
   inkscape:current-layer="svg1" />
    
<text
   xml:space="preserve"
   style="font-weight:bold;font-size:227.595px;line-height:0;font-family:Dubai;-inkscape-font-specification:'Dubai Bold';text-align:start;letter-spacing:0px;word-spacing:0px;writing-mode:lr-tb;direction:ltr;text-anchor:start;display:none;fill:#22b2e9;stroke-width:5.33426;stroke-linecap:round;stroke-linejoin:round;paint-order:fill markers stroke"
   x="496.39279"
   y="183.97557"
   id="text7-7"
   inkscape:label="Hacks0"><tspan
     sodipodi:role="line"
     id="tspan1-4"
     x="0"
     y="0"
     style="font-style:italic;font-variant:normal;font-weight:bold;font-stretch:normal;font-family:Consolas;-inkscape-font-specification:'Consolas Bold Italic';stroke-width:5.33426">Hacks</tspan></text><path
   style="font-size:120px;line-height:0;font-family:'Continuum Bold';-inkscape-font-specification:'Continuum Bold, ';text-align:center;text-anchor:middle;display:none;fill:#22b2e9;fill-opacity:1;stroke-width:2.40596"
   d="M 512.63438,186.53156 V -15.569423 h 43.30733 v 78.819391 h 61.20773 v -78.819391 h 43.59607 V 186.53156 h -43.59606 v -79.68554 h -61.20774 v 79.68554 z m 160.23707,0 L 728.8823,9.548847 q 8.66147,-27.13928 34.06845,-27.13928 25.40699,0 34.06846,27.13928 l 55.72214,176.982713 h -45.32838 l -13.85836,-43.59607 h -61.49644 l -13.56964,43.59607 z M 780.56241,101.64915 760.0636,36.399408 745.05038,101.64915 Z m 84.30492,39.84276 V 30.336378 q 0,-26.273141 10.39377,-36.089471 10.39376,-9.81633 36.95561,-9.81633 h 84.88237 v 43.596071 h -78.81932 q -8.37279,0.86615 -10.10505,8.95019 v 88.346992 q 0,9.52762 2.02098,12.7035 2.88715,4.90816 10.97119,4.90816 h 75.9322 v 43.59607 h -91.23413 q -7.21789,0 -15.30193,-3.17587 -25.6957,-10.10505 -25.69569,-41.86378 z m 154.46287,45.03965 h 43.3074 V -15.569423 h -43.3074 z m 52.2576,-121.838012 44.1735,-80.262971 h 49.6591 l -54.5673,99.318201 56.2996,102.782782 h -49.9478 l -45.3284,-81.12911 q -8.3728,-15.013202 -8.3728,-21.076242 0,-4.33073 2.8872,-10.68248 z m 105.6702,-40.4202 q 0,-5.4856 1.1549,-10.10506 7.5066,-29.737711 40.1315,-29.737711 h 88.347 v 43.596071 l -76.5097,0.28872 q -6.3517,0 -8.9502,5.4856 -0.5774,2.88715 -0.5774,4.33073 v 13.28092 q 0,2.02102 0.2887,2.88716 1.1549,7.50661 10.6825,8.66147 0.8661,0.28872 2.8872,0.28872 h 31.4699 q 33.7797,0 39.8429,31.47001 0.8661,4.61945 0.8661,8.372742 v 40.70891 q 0,20.21011 -11.8374,31.47002 -11.5486,11.25991 -31.7587,11.25991 h -85.7486 v -43.59607 h 75.6435 l 2.5985,-0.86615 q 7.5066,-2.59844 7.5066,-10.97119 v -14.43579 q 0,-8.66146 -9.2389,-9.81634 h -36.0894 q -22.2312,0 -34.0686,-17.900362 -6.6404,-10.10505 -6.6404,-21.65367 z"
   id="path2"
   aria-label="HACKS"
   inkscape:label="Hacks1" /><path
   style="font-size:120px;line-height:0;font-family:'Continuum Bold';-inkscape-font-specification:'Continuum Bold, ';text-align:center;text-anchor:middle;display:none;fill:#22b2e9;fill-opacity:1;stroke-width:2.40596"
   d="m 494.98574,186.53156 34.9478,-202.100987 h 43.30733 l -13.62964,78.819391 h 61.20773 l 13.62964,-78.819391 h 43.59607 l -34.9478,202.100987 h -43.59606 l 13.77941,-79.68554 h -61.20773 l -13.77942,79.68554 z m 160.23707,0 86.61514,-176.9827171 c 8.90297,-18.092853 21.82345,-27.1392799 38.76144,-27.1392799 16.93799,0 26.72982,9.0464269 29.37547,27.1392799 L 835.09271,186.53156 h -45.32837 l -6.31962,-43.59607 h -61.49645 l -21.10838,43.59607 z m 122.36904,-84.88241 -9.21567,-65.249746 -26.29636,65.249746 z m 77.41521,39.84276 19.22128,-111.155536 c 3.02881,-17.51543 8.57363,-29.54525109 16.63445,-36.0894711 8.06081,-6.5442199 20.94517,-9.8163299 38.65307,-9.8163299 h 84.88244 l -7.5388,43.596071 h -78.81932 c -5.68171,0.57743 -9.56595,3.56083 -11.65274,8.95019 l -15.27718,88.346996 c -1.09836,6.35175 -1.15694,10.58625 -0.17574,12.7035 1.35895,3.27211 4.7331,4.90816 10.12246,4.90816 h 75.9322 l -7.5387,43.59607 h -91.23417 c -4.81193,0 -9.72951,-1.05862 -14.75275,-3.17587 -15.96554,-6.7367 -22.11771,-20.69129 -18.4565,-41.86378 z m 146.67454,45.03965 h 43.3074 l 34.9478,-202.100987 h -43.3074 z m 73.3261,-121.838016 58.0528,-80.262971 h 49.6591 l -71.7417,99.318201 38.5262,102.782786 h -49.9478 l -31.2994,-81.12911 c -3.8511,-10.008806 -5.4272,-17.034216 -4.7282,-21.076246 0.4992,-2.88715 2.0773,-6.44798 4.7344,-10.68248 z m 112.6598,-40.4202 c 0.6323,-3.65707 1.5997,-7.02542 2.9022,-10.10506 8.4327,-19.8251411 23.524,-29.737711 45.2739,-29.737711 h 88.347 l -7.5388,43.596071 -76.5596,0.28872 c -4.2345,0 -7.5341,1.82853 -9.8988,5.4856 -0.7177,1.92477 -1.1598,3.36834 -1.3263,4.33073 l -2.2965,13.28092 c -0.233,1.34735 -0.3032,2.30973 -0.2106,2.88716 -0.095,5.00441 2.9661,7.89156 9.1847,8.66147 0.5441,0.19248 1.4899,0.28872 2.8373,0.28872 h 31.4699 c 22.5198,0 33.9868,10.49 34.401,31.47001 0.045,3.07963 -0.1492,5.870546 -0.5817,8.372746 l -7.0395,40.70891 c -2.3299,13.47341 -8.0896,23.96341 -17.2793,31.47002 -8.9971,7.50661 -20.2323,11.25991 -33.7057,11.25991 h -85.7486 l 7.5387,-43.59607 h 75.6435 l 2.7483,-0.86615 c 5.3039,-1.73229 8.4385,-5.38936 9.4037,-10.97119 l 2.4963,-14.43579 c 0.9985,-5.77431 -1.5153,-9.04642 -7.5414,-9.81634 h -36.0894 c -14.8208,0 -25.1452,-5.96679 -30.9732,-17.900366 -3.2621,-6.7367 -4.2274,-13.95459 -2.896,-21.65367 z"
   id="text1"
   aria-label="HACKS"
   inkscape:label="Hacks2"
   sodipodi:nodetypes="cccccccccccccccscccccccccccssssccccscsccscsccccccccccccsccccscccccsccssccscsccccsscsccc" /><text
   xml:space="preserve"
   style="font-style:italic;font-weight:bold;font-size:298.897px;line-height:0;font-family:'Gill Sans MT';-inkscape-font-specification:'Gill Sans MT Bold Italic';text-align:center;letter-spacing:0px;word-spacing:0px;writing-mode:lr-tb;direction:ltr;text-anchor:middle;display:none;fill:#22b2e9;fill-opacity:1;stroke-width:7.7838;stroke-linecap:round;stroke-linejoin:round;paint-order:fill markers stroke"
   x="895.40649"
   y="187.66466"
   id="text3"
   transform="skewX(-10.261117)"
   inkscape:label="Hacks3"><tspan
     sodipodi:role="line"
     id="tspan3"
     x="0"
     y="0"
     style="font-style:italic;font-variant:normal;font-weight:bold;font-stretch:normal;font-size:298.897px;font-family:'Continuum Bold';-inkscape-font-specification:'Continuum Bold,  Bold Italic';letter-spacing:0px;stroke-width:7.7838">Hacks</tspan></text><text
   xml:space="preserve"
   style="font-size:227.417px;line-height:0;font-family:'Good Timing';-inkscape-font-specification:'Good Timing';text-align:end;letter-spacing:22.7417px;word-spacing:0px;writing-mode:lr-tb;direction:ltr;text-anchor:end;display:none;fill:#22b2e9;fill-opacity:1;stroke-width:0.568545;stroke-linecap:round;stroke-miterlimit:2.7;paint-order:fill markers stroke"
   x="1344.6511"
   y="186.53128"
   id="text4"
   transform="skewX(-10.246793)"
   inkscape:label="s3"><tspan
     sodipodi:role="line"
     id="tspan1"
     style="font-style:normal;font-variant:normal;font-weight:normal;font-stretch:normal;font-family:'SF Automaton Condensed';-inkscape-font-specification:'SF Automaton Condensed, ';fill:#22b2e9;fill-opacity:1;stroke-width:0.568545"
     x="-125.50427"
     y="-50.65971">s</tspan></text><g
   id="g12"
   style="display:none"
   inkscape:label="Outline"><path
     id="path4"
     style="display:inline;fill:#ffffff;fill-opacity:1;stroke-width:0.877666"
     inkscape:label="Wii"
     d="m 431.98438,-31.699219 c -11.07045,0.137822 -22.00086,6.513048 -27.07923,16.435333 -4.36063,8.3593385 -4.14012,18.9711385 0.78151,27.047057 4.95283,8.425281 14.18034,14.054011 23.88855,14.882464 10.29367,1.022304 21.15447,-2.89524 27.90758,-10.844472 6.03538,-7.0290359 8.30418,-17.1512433 5.62369,-26.047568 -2.23333,-7.776731 -7.95253,-14.40293 -15.20981,-17.935627 -4.90912,-2.459246 -10.42727,-3.655885 -15.91229,-3.537187 z m -89.88672,0 c -11.06901,0.125587 -21.99405,6.503943 -27.07476,16.419555 -4.38082,8.3956491 -4.14179,19.0623149 0.83077,27.155992 4.9116,8.295919 13.97816,13.861001 23.54741,14.761672 10.381,1.120834 21.37172,-2.804261 28.19181,-10.821263 6.14451,-7.1385687 8.37249,-17.4853699 5.49697,-26.482395 -2.31012,-7.537033 -7.89081,-13.940413 -14.94619,-17.420944 -4.9394,-2.513065 -10.51259,-3.718455 -16.04601,-3.612617 z m -194.67578,10.150391 c -7.8118,0.187605 -15.79596,2.741529 -21.5803,8.141874 -5.7727,5.2904229 -9.23434,12.62277408 -11.25124,20.0844934 C 108.12289,29.273661 102.08673,51.991593 95.919216,74.671888 92.459434,87.476442 89.01106,100.28407 85.570312,113.09375 73.905855,68.719985 62.239349,24.346757 50.576172,-20.027344 c -19.069011,0 -38.138021,0 -57.2070314,0 16.2120356,56.59592 32.2948774,113.230982 48.9773684,169.689624 1.583434,5.18917 3.084037,10.41574 4.960731,15.51042 3.572863,8.97354 9.854075,17.09877 18.388072,21.81949 10.566665,5.82328 23.981202,6.06453 34.780728,0.71293 6.72657,-3.32913 12.0043,-9.07796 15.62392,-15.57603 2.70799,-4.75214 4.47448,-9.95963 5.95703,-15.20339 4.64984,-15.5949 9.02067,-31.27222 13.49039,-46.91857 4.45673,-15.702788 8.85687,-31.421631 13.27293,-47.136036 9.14152,32.50001 18.19086,65.024036 27.73819,97.406296 2.3584,7.62104 5.91536,15.06923 11.59122,20.78934 4.18762,4.30243 9.4984,7.52866 15.31708,9.06022 10.50234,2.92177 22.33997,1.31831 31.35754,-4.93201 7.32913,-5.0002 12.65482,-12.54599 15.79252,-20.77721 1.71905,-4.43406 2.86341,-9.05968 4.30392,-13.58648 6.69448,-22.26437 13.07503,-44.62253 19.53642,-66.956308 9.9848,-34.616872 19.86658,-69.263462 29.77522,-103.902286 -19.06771,0 -38.13541,0 -57.20312,0 -11.65623,44.372093 -23.31533,88.743432 -34.97266,133.115234 -9.51662,-35.306947 -18.9321,-70.642966 -28.84086,-105.8416573 -1.62822,-5.6631893 -3.72023,-11.311229 -7.3095,-16.0504459 -3.94721,-5.3927928 -9.66718,-9.5109018 -16.13308,-11.2844128 -4.00101,-1.160976 -8.19496,-1.57556 -12.35132,-1.460202 z m 168.77734,63.677734 c 0,49.295573 0,98.591144 0,147.886714 18.07226,10e-6 36.14453,0 54.2168,0 0,-49.6289 0,-99.257808 0,-148.886714 -18.07227,0 -36.14454,0 -54.2168,0 0,0.333334 0,0.666667 0,1 z m 89.87109,0 c 0,49.295573 0,98.591144 0,147.886714 18.07617,0 36.15235,10e-6 54.22852,0 0,-49.6289 0,-99.257808 0,-148.886714 -18.07617,0 -36.15235,0 -54.22852,0 0,0.333334 0,0.666667 0,1 z" /><g
     id="g11"
     inkscape:label="Hacks"
     transform="matrix(1.2757624,0,0,1.2757624,-116.34643,-50.65971)"
     style="fill:#ffffff"><path
       style="font-style:italic;font-weight:bold;font-size:226.308px;line-height:0;font-family:'Continuum Bold';-inkscape-font-specification:'Continuum Bold,  Bold Italic';letter-spacing:0px;word-spacing:0px;display:inline;fill:#ffffff;stroke-width:5.9524;stroke-linecap:round;stroke-linejoin:round;paint-order:fill markers stroke"
       d="M 494.43438,185.92154 523.39915,25.921544 h 34.28572 l -11.29626,62.400002 h 48.45715 L 606.142,25.921544 h 34.514 L 611.69152,185.92154 h -34.51428 l 11.4204,-63.08571 H 540.1405 l -11.4204,63.08571 z"
       id="path5"
       inkscape:label="H"
       aria-label="H"
       sodipodi:nodetypes="ccccccccccccc" /><path
       style="fill:#ffffff;stroke-width:0.182979"
       id="path8"
       d="m 699.31767,180.13149 c -6.82525,4.29462 -13.9383,5.79005 -22.91093,5.79005 -21.37704,0 -45.38096,-20.26518 -38.28731,-59.16589 6.13535,-33.99258 34.31874,-59.645196 66.7965,-59.645196 31.61535,0 54.37298,19.095666 47.87343,54.967146 l -11.11992,61.02561 H 708.1753 l 9.45202,-52.18717 c 3.64278,-20.0351 0.8435,-32.13286 -17.23586,-32.13286 -15.72138,0 -26.13201,13.63155 -28.56679,27.03302 -3.16347,17.61939 4.88896,26.09358 17.50427,26.09358 6.09676,0 11.61841,-1.36123 15.64459,-2.8375 z"
       class="B"
       sodipodi:nodetypes="cscsccccscscc"
       inkscape:label="a" /><path
       d="m 838.41323,67.110545 c -34.95666,0 -63.06881,23.259605 -69.45413,59.385965 -6.38542,36.12638 17.45089,59.42503 52.40754,59.42503 18.17828,0 38.00372,-8.16969 51.71416,-22.37862 l -21.30243,-17.92751 c -7.21001,7.91943 -15.91681,13.72835 -27.34536,13.72835 -13.49943,0 -25.90578,-8.51357 -21.47633,-33.78668 4.46794,-25.23478 16.33889,-33.308179 31.6793,-33.308179 12.50805,0 19.82056,9.633149 17.70487,21.120829 h 33.56008 c -1.01668,-28.533423 -23.1166,-46.259185 -47.4877,-46.259185 z"
       style="fill:#ffffff;stroke-width:0.183008"
       id="path9"
       inkscape:label="c" /><g
       id="g10"
       transform="translate(-4,-1.2445103)"
       inkscape:label="k"
       style="fill:#ffffff"><rect
         style="display:inline;fill:#ffffff;stroke-width:4.59587;stroke-linecap:round;stroke-linejoin:round;paint-order:fill markers stroke"
         id="rect9"
         width="34.514"
         height="162.54269"
         x="927.2041"
         y="27.597759"
         transform="matrix(1,0,-0.17618649,0.9843568,-3.13538e-7,3.5049843e-7)"
         inkscape:label="k1" /><path
         d="m 950.46289,114.61722 -3.79492,21.20117 23.43555,51.34766 h 39.14058 L 981.02148,125.32816 1028.0156,66.683624 H 988.875 Z"
         style="fill:#ffffff;stroke-width:3.68485;stroke-linecap:round;stroke-linejoin:round;paint-order:fill markers stroke"
         id="path10"
         inkscape:label="k2" /></g><path
       d="m 1035.2816,96.857453 -1.1379,6.999997 c -0.5435,4.61849 -0.7122,9.29439 -0.273,13.92774 0.7763,6.68605 3.5594,13.2462 8.3325,17.58398 4.0926,3.82404 9.4443,5.80891 14.7808,5.91406 4.3077,0.20339 8.6204,0.006 12.9304,0.0859 7.7097,0.022 18.5595,-0.0721 26.2665,0.11133 1.0164,0.17783 1.7837,1.24167 1.6892,2.375 0.1882,2.52436 -0.1051,5.15336 -1.0972,7.45313 -0.9509,1.66002 -2.8419,2.34739 -4.5535,2.13867 -17.6055,0.0455 -44.1575,0.005 -62.9999,0.0312 l -5.2696,32.43945 c 21.5371,-0.007 48.806,0.0394 69.5458,-0.0742 7.7563,-0.40181 15.2437,-4.33112 20.5876,-10.50586 5.3579,-5.92305 8.8515,-13.72582 10.2716,-21.91015 1.3591,-7.27923 1.1741,-14.86542 -0.3563,-22.09375 -0.8786,-4.46814 -2.415,-8.95161 -5.3724,-12.26758 -3.5425,-4.15768 -8.54,-6.57197 -13.643,-7.20117 -4.8049,-0.65427 -9.6543,-0.21833 -14.4794,-0.34571 -8.3675,-0.0312 -18.3045,0.069 -26.6699,-0.10547 -1.0365,-0.15024 -1.7696,-1.28702 -1.6484,-2.41406 -0.1554,-2.48842 0.097,-5.08835 1.1025,-7.3457 0.9339,-1.59333 2.7655,-2.189649 4.4082,-1.990236 16.7365,-0.05606 44.0168,-0.0076 62.2919,-0.03711 l 5.2678,-32.433593 c -20.5785,0.0083 -49.8138,-0.01711 -69.3189,0.04297 -9.8011,0.472633 -19.095,6.391631 -24.8044,15.103516 -2.8919,4.294953 -4.7993,9.306535 -5.851,14.517578 z"
       style="font-style:italic;font-weight:bold;font-size:238.1px;line-height:0;font-family:'Gill Sans MT';-inkscape-font-specification:'Gill Sans MT Bold Italic';text-align:center;letter-spacing:0px;word-spacing:0px;text-anchor:middle;display:inline;fill:#ffffff;stroke-width:5.04123;stroke-linecap:round;stroke-linejoin:round;paint-order:fill markers stroke"
       id="path11"
       inkscape:label="s"
       sodipodi:nodetypes="cccccccccccccccccccccccccccsc" /></g></g><path
   d="m 316.90098,-2.4279486 c 0,13.3856386 11.60931,24.2505106 25.8998,24.2505106 14.85434,0 26.51797,-10.640032 26.51797,-24.2505106 C 369.31786,-16.041894 357.65512,-26.707 342.80078,-26.707 c -14.29049,0 -25.8998,10.880432 -25.8998,24.2790514 m 4.29882,48.5572306 h 44.21652 V 185.01522 H 321.1998 Z m 85.58618,-48.5572306 c 0,13.3856386 11.63246,24.2505106 25.91405,24.2505106 14.86325,0 26.50373,-10.640032 26.50373,-24.2505106 0,-13.6139454 -11.64138,-24.2790514 -26.50373,-24.2790514 -14.28248,0 -25.91405,10.880432 -25.91405,24.2790514 m 4.28457,48.5572306 h 44.2281 V 185.01522 h -44.2281 z M 250.88664,-15.026664 212.11356,132.54839 c 0,0 -29.64545,-110.773388 -34.46803,-126.4852431 -4.82259,-15.7377995 -14.74925,-22.6325459 -28.82506,-22.6325459 -14.08205,0 -24.02473,6.8947464 -28.84643,22.6325459 C 115.16927,21.775002 85.516701,132.54839 85.516701,132.54839 L 46.717786,-15.026664 H 0 c 0,0 44.868565,157.455814 50.968501,175.688454 4.745089,14.23312 15.983827,25.87021 32.644637,25.87021 19.048042,0 27.956552,-13.48336 32.081672,-25.87021 4.08147,-12.31421 33.12565,-116.308731 33.12565,-116.308731 0,0 29.0424,103.994521 33.11408,116.308731 4.12335,12.38685 13.03186,25.87021 32.07543,25.87021 16.67418,0 27.89243,-11.63709 32.66692,-25.87021 6.08479,-18.23264 50.92484,-175.688454 50.92484,-175.688454 z"
   style="display:inline;fill:#ffffff;fill-opacity:1;stroke-width:0.877666"
   id="path1"
   inkscape:label="Wii"
   sodipodi:nodetypes="cscscccccccssscccccccccscccccscccsccc" /><g
   id="g8"
   inkscape:label="Hacks"
   transform="matrix(1.2757624,0,0,1.2757624,-116.34643,-50.65971)"
   style="display:inline"><path
     style="font-style:italic;font-weight:bold;font-size:226.308px;line-height:0;font-family:'Continuum Bold';-inkscape-font-specification:'Continuum Bold,  Bold Italic';letter-spacing:0px;word-spacing:0px;display:inline;fill:#22b2e9;stroke-width:5.9524;stroke-linecap:round;stroke-linejoin:round;paint-order:fill markers stroke"
     d="M 494.43438,185.92154 523.39915,25.921544 h 34.28572 l -11.29626,62.400002 h 48.45715 L 606.142,25.921544 h 34.514 L 611.69152,185.92154 h -34.51428 l 11.4204,-63.08571 H 540.1405 l -11.4204,63.08571 z"
     id="text2"
     inkscape:label="H"
     aria-label="H"
     sodipodi:nodetypes="ccccccccccccc" /><path
     style="fill:#22b2e9;stroke-width:0.182979"
     id="path20"
     d="m 699.31767,180.13149 c -6.82525,4.29462 -13.9383,5.79005 -22.91093,5.79005 -21.37704,0 -45.38096,-20.26518 -38.28731,-59.16589 6.13535,-33.99258 34.31874,-59.645196 66.7965,-59.645196 31.61535,0 54.37298,19.095666 47.87343,54.967146 l -11.11992,61.02561 H 708.1753 l 9.45202,-52.18717 c 3.64278,-20.0351 0.8435,-32.13286 -17.23586,-32.13286 -15.72138,0 -26.13201,13.63155 -28.56679,27.03302 -3.16347,17.61939 4.88896,26.09358 17.50427,26.09358 6.09676,0 11.61841,-1.36123 15.64459,-2.8375 z"
     class="B"
     sodipodi:nodetypes="cscsccccscscc"
     inkscape:label="a" /><path
     d="m 838.41323,67.110545 c -34.95666,0 -63.06881,23.259605 -69.45413,59.385965 -6.38542,36.12638 17.45089,59.42503 52.40754,59.42503 18.17828,0 38.00372,-8.16969 51.71416,-22.37862 l -21.30243,-17.92751 c -7.21001,7.91943 -15.91681,13.72835 -27.34536,13.72835 -13.49943,0 -25.90578,-8.51357 -21.47633,-33.78668 4.46794,-25.23478 16.33889,-33.308179 31.6793,-33.308179 12.50805,0 19.82056,9.633149 17.70487,21.120829 h 33.56008 c -1.01668,-28.533423 -23.1166,-46.259185 -47.4877,-46.259185 z"
     style="fill:#22b2e9;stroke-width:0.183008"
     id="path6"
     inkscape:label="c" /><g
     id="g7"
     transform="translate(-5.5676903,-1.2445099)"
     inkscape:label="k"><rect
       style="display:inline;fill:#22b2e9;stroke-width:4.59587;stroke-linecap:round;stroke-linejoin:round;paint-order:fill markers stroke"
       id="rect1"
       width="34.514"
       height="162.54269"
       x="927.2041"
       y="27.597759"
       transform="matrix(1,0,-0.17618649,0.9843568,-3.13538e-7,3.5049843e-7)"
       inkscape:label="k1" /><path
       d="m 950.46289,114.61722 -3.79492,21.20117 23.43555,51.34766 h 39.14058 L 981.02148,125.32816 1028.0156,66.683624 H 988.875 Z"
       style="fill:#22b2e9;stroke-width:3.68485;stroke-linecap:round;stroke-linejoin:round;paint-order:fill markers stroke"
       id="path3"
       inkscape:label="k2" /></g><path
     id="path15"
     style="font-size:303.758px;line-height:0;font-family:'Microsoft Tai Le';-inkscape-font-specification:'Microsoft Tai Le';text-align:end;letter-spacing:30.3758px;word-spacing:0px;text-anchor:end;display:none;fill:#22b2e9;stroke-width:0.547708;stroke-linecap:round;stroke-miterlimit:2.7;paint-order:fill markers stroke"
     inkscape:label="s1"
     d="m 1072.785,67.192951 c -4.8312,0 -9.3859,0.849041 -13.667,2.549027 -4.2559,1.545443 -8.1555,3.864209 -11.6981,6.955094 -3.5173,2.93634 -6.4591,6.568513 -8.8237,10.895752 -2.3393,4.172694 -4.4387,11.939566 -5.2986,17.194066 -0.8094,4.94542 -0.8075,9.57989 0,13.90713 0.8355,4.17269 2.4476,7.80639 4.8406,10.89728 2.3928,3.09089 5.5086,5.56291 9.3461,7.41744 3.8628,1.69999 8.4176,2.54903 13.6629,2.54903 h 14.7856 0.3404 9.0959 c 4.8311,0 6.8553,2.39693 6.0712,7.18779 -0.8093,4.94543 -3.6302,7.41744 -8.4614,7.41744 H 1023.73 l -5.1975,31.75797 h 66.2883 c 4.8312,0 9.3756,-0.77241 13.6315,-2.31785 4.4192,-1.69998 8.3318,-4.09385 11.7363,-7.18473 3.5426,-3.09088 6.4817,-6.72306 8.821,-10.89576 2.3646,-4.32723 4.49,-12.24889 5.3752,-17.65794 1.644,-10.04537 0.098,-18.31356 -4.6368,-24.80441 -4.7351,-6.49086 -12.4174,-9.73529 -23.046,-9.73529 h -16.1352 -0.3405 -8.5748 c -4.6932,0 -6.6475,-2.3954 -5.8634,-7.18627 0.784,-4.79087 3.5221,-7.187798 8.2153,-7.187798 h 52.5973 l 5.1974,-31.757971 z"
     sodipodi:nodetypes="scccscscsccsssccscccsssccsssccs" /><path
     d="m 1035.2816,96.857453 -1.1379,6.999997 c -0.5435,4.61849 -0.7122,9.29439 -0.273,13.92774 0.7763,6.68605 3.5594,13.2462 8.3325,17.58398 4.0926,3.82404 9.4443,5.80891 14.7808,5.91406 4.3077,0.20339 8.6204,0.006 12.9304,0.0859 7.7097,0.022 18.5595,-0.0721 26.2665,0.11133 1.0164,0.17783 1.7837,1.24167 1.6892,2.375 0.1882,2.52436 -0.1051,5.15336 -1.0972,7.45313 -0.9509,1.66002 -2.8419,2.34739 -4.5535,2.13867 -17.6055,0.0455 -42.5898,0.005 -61.4322,0.0312 l -5.2696,32.43945 c 21.5371,-0.007 47.2383,0.0394 67.9781,-0.0742 7.7563,-0.40181 15.2437,-4.33112 20.5876,-10.50586 5.3579,-5.92305 8.8515,-13.72582 10.2716,-21.91015 1.3591,-7.27923 1.1741,-14.86542 -0.3563,-22.09375 -0.8786,-4.46814 -2.415,-8.95161 -5.3724,-12.26758 -3.5425,-4.15768 -8.54,-6.57197 -13.643,-7.20117 -4.8049,-0.65427 -9.6543,-0.21833 -14.4794,-0.34571 -8.3675,-0.0312 -18.3045,0.069 -26.6699,-0.10547 -1.0365,-0.15024 -1.7696,-1.28702 -1.6484,-2.41406 -0.1554,-2.48842 0.097,-5.08835 1.1025,-7.3457 0.9339,-1.59333 2.7655,-2.189649 4.4082,-1.990236 16.7365,-0.05606 42.4491,-0.0076 60.7242,-0.03711 l 5.2678,-32.433593 c -20.5785,0.0083 -48.2461,-0.01711 -67.7512,0.04297 -9.8011,0.472633 -19.095,6.391631 -24.8044,15.103516 -2.8919,4.294953 -4.7993,9.306535 -5.851,14.517578 z"
     style="font-style:italic;font-weight:bold;font-size:238.1px;line-height:0;font-family:'Gill Sans MT';-inkscape-font-specification:'Gill Sans MT Bold Italic';text-align:center;letter-spacing:0px;word-spacing:0px;text-anchor:middle;display:none;fill:#22b2e9;stroke-width:5.04123;stroke-linecap:round;stroke-linejoin:round;paint-order:fill markers stroke"
     id="path7"
     inkscape:label="s2"
     sodipodi:nodetypes="cccccccccccccccccccccccccccsc" /><path
     style="font-size:178.26px;line-height:0;font-family:'SF Automaton Condensed';-inkscape-font-specification:'SF Automaton Condensed, ';text-align:end;letter-spacing:17.826px;word-spacing:0px;text-anchor:end;fill:#22b2e9;stroke-width:0.445651;stroke-linecap:round;stroke-miterlimit:2.7;paint-order:fill markers stroke"
     d="m 1152.374,150.23416 q 0,14.10064 -9.0522,24.98077 -9.0523,10.70604 -21.6733,10.70604 h -69.5457 v -29.68098 h 65.4548 q 3.3076,0 5.6577,-2.69827 2.4371,-2.69827 2.4371,-6.26696 0,-1.82786 -0.6963,-3.39459 -0.6093,-1.65378 -1.7408,-2.87236 -1.0445,-1.21857 -2.5242,-1.9149 -1.4797,-0.69633 -3.1335,-0.69633 h -41.4315 q -12.708,0 -21.6732,-10.79308 -9.0523,-10.88013 -9.0523,-24.89373 0,-13.926566 9.0523,-24.806692 8.9652,-10.793086 21.6732,-10.793086 h 69.5458 V 96.790977 H 1080.13 q -3.2205,0 -5.6577,2.698272 -2.3501,2.611231 -2.3501,6.179911 0,3.56868 2.3501,6.26695 2.4372,2.69828 5.6577,2.69828 h 41.5185 q 12.708,0 21.6733,10.79308 9.0522,10.88013 9.0522,24.80669 z"
     id="text4-52"
     inkscape:label="s3"
     transform="skewX(-10.246793)"
     aria-label="s" /></g></svg>
