<?xml version="1.0" encoding="UTF-8" standalone="no"?>
<svg
   xml:space="preserve"
   width="405.09"
   height="113.81564"
   version="1.1"
   id="svg1"
   sodipodi:docname="x68000.svg"
   inkscape:version="1.4 (86a8ad7, 2024-10-11)"
   xmlns:inkscape="http://www.inkscape.org/namespaces/inkscape"
   xmlns:sodipodi="http://sodipodi.sourceforge.net/DTD/sodipodi-0.dtd"
   xmlns="http://www.w3.org/2000/svg"
   xmlns:svg="http://www.w3.org/2000/svg"><defs
   id="defs1" /><sodipodi:namedview
   id="namedview1"
   pagecolor="#ffffff"
   bordercolor="#000000"
   borderopacity="0.25"
   inkscape:showpageshadow="2"
   inkscape:pageopacity="0.0"
   inkscape:pagecheckerboard="true"
   inkscape:deskcolor="#d1d1d1"
   inkscape:zoom="4.59"
   inkscape:cx="193.46405"
   inkscape:cy="76.797386"
   inkscape:window-width="3840"
   inkscape:window-height="2066"
   inkscape:window-x="-11"
   inkscape:window-y="-11"
   inkscape:window-maximized="1"
   inkscape:current-layer="svg1" />
    <path
   id="path3"
   style="display:none;fill:#ffffff;stroke-width:0.52944;stroke-linecap:square"
   d="M 113.06054,0.00509233 C 102.02569,0.13999273 96.265271,2.4930943 93.210936,5.094936 91.683767,6.3958569 90.864691,7.7549809 90.453126,8.8175924 90.041555,9.8802039 90.031252,10.786342 90.031252,10.786342 l 0.04686,-0.390625 c 0,0 -0.658825,2.833786 1.228517,5.632813 1.887195,2.798806 6.066986,5.472961 14.736321,6.345703 h 0.002 c 5.11383,0.524564 9.48322,1.226194 12.45117,2.0625 1.48417,0.41821 2.61889,0.883416 3.25195,1.28125 0.63306,0.397834 0.57556,0.546282 0.57813,0.425781 -0.004,0.185992 0.0179,0.132913 -0.14649,0.257813 -0.16439,0.124899 -0.57014,0.302447 -1.10156,0.408203 -1.06285,0.211512 -2.54118,0.169583 -3.42774,0.0957 h -0.004 c -8.32087,-0.678189 -13.91233,-2.17277 -17.39257,-3.470703 -3.480241,-1.297934 -4.730466,-2.306641 -4.730466,-2.306641 l -1.472659,-1.15039 -5.033206,10.576172 1.136724,0.707031 c 0,0 2.259734,1.392958 6.554684,2.685547 4.294953,1.292588 10.724373,2.547639 19.347653,2.466797 8.58913,-0.08052 13.63138,-1.081624 16.80664,-3.052735 1.56758,-0.973115 2.57879,-2.218638 3.22851,-3.576172 v 5.357422 h 13.53481 V 22.911343 h 17.27734 v 12.230468 h 10.65039 2.88672 8.61328 l 4.07618,-6.777343 h 19.32226 l 4.07617,6.777343 h 12.84961 2.88672 10.22461 V 22.024624 l 14.82227,13.117187 h 16.38085 3.42188 9.68945 V 24.198452 c 3.01329,0.491761 6.24194,0.777343 9.67188,0.777343 6.87726,0 12.01759,-1.214576 15.58007,-3.365234 3.56249,-2.150656 5.50045,-5.380246 5.56251,-8.855469 v -0.002 -0.002 c 0.0614,-4.1369702 -2.39194,-7.5445839 -6.39649,-9.6191403 -4.00454,-2.0745563 -9.56596,-3.07421867 -16.43945,-3.07421867 -3.53976,0 -4.81464,0.1621194 -9.56055,0.4257812 -4.82456,0.26803115 -10.19141,0.85351567 -10.19141,0.85351567 l -1.33789,0.1464844 V 12.098842 c -0.23006,-4.1769228 -2.57845,-7.4688901 -6.45312,-9.3613278 -4.0767,-1.99111774 -9.70317,-2.76052847 -16.73633,-2.67968757 h -0.004 -0.002 c -3.51932,0.053323 -4.78014,0.1615051 -9.53711,0.4257813 -4.93065,0.26802988 -10.24609,0.85351557 -10.24609,0.85351557 l -1.33534,0.1464844 V 30.356655 L 211.87304,1.3273579 H 197.94726 L 180.4414,30.356655 V 1.3273579 H 166.90429 V 13.133999 H 149.6289 V 1.3273579 H 136.09179 V 21.163295 c -0.98866,-1.853307 -2.50711,-3.327315 -4.02343,-4.322265 -2.53006,-1.660121 -5.07617,-2.376954 -5.07617,-2.376954 l -0.0488,-0.01562 -0.0488,-0.0098 c 0,0 -5.22176,-1.120496 -10.63087,-1.923828 h -0.002 -0.004 c -3.09549,-0.449772 -6.21776,-0.920609 -8.31836,-1.531251 -0.98347,-0.285892 -1.66675,-0.616902 -2.00977,-0.853515 0.23144,-0.1607916 0.51574,-0.3624076 1.23438,-0.564453 1.73753,-0.4885101 5.22029,-0.7892098 11.56054,0.4003906 6.1023,1.1794364 11.49414,3.5039064 11.49414,3.5039064 l 1.25782,0.542968 0.65429,-1.201171 c 0,0 0.8925,-1.637764 1.76758,-3.3144537 0.43754,-0.8383444 0.87057,-1.6832645 1.19531,-2.3613278 0.16237,-0.3390321 0.29765,-0.632214 0.40235,-0.8925783 0.0524,-0.1301821 0.0962,-0.2461904 0.14063,-0.40625 0.0222,-0.08003 0.0463,-0.1681567 0.0625,-0.3261719 0.0162,-0.1580151 0.12694,-0.4036759 -0.21093,-0.9667968 -0.21777,-0.3629341 -0.30078,-0.3682275 -0.37696,-0.4296875 -0.0762,-0.06146 -0.13447,-0.099941 -0.19336,-0.1386719 -0.11769,-0.077465 -0.23727,-0.1469361 -0.38085,-0.2246094 -0.28718,-0.1553464 -0.66282,-0.3366394 -1.14649,-0.5429687 -0.96734,-0.4126589 -2.35656,-0.9187103 -4.17969,-1.40625 -3.64624,-0.97507948 -9.02639,-1.87782947 -16.15039,-1.79687497 z M 250.15039,8.6691549 c 2.9391,0 5.33042,0.4944123 6.80273,1.2656248 1.47232,0.7712123 2.0049,1.5576243 1.96875,2.8046883 v 0.0078 0.0098 c -0.0174,1.005589 -0.36136,1.542951 -1.61914,2.15625 -1.25778,0.613299 -3.44113,1.027344 -6.41015,1.027344 -1.71019,0 -4.00682,-0.255071 -5.88282,-0.515625 l -0.10351,-0.01367 h -0.10352 c -4.1e-4,0 -0.22351,0.01478 -0.31054,0.0332 -0.087,0.01841 -0.15845,0.03984 -0.21876,0.0625 -0.12061,0.04532 -0.20024,0.09117 -0.26172,0.128906 -0.12295,0.07548 -0.18023,0.126338 -0.22656,0.167969 -0.0927,0.08326 -0.12761,0.129566 -0.16211,0.169922 -0.069,0.08071 -0.10931,0.135288 -0.15429,0.197266 -0.09,0.123954 -0.18503,0.262552 -0.29297,0.42578 -0.19967,0.301928 -0.44381,0.686741 -0.68555,1.070313 V 9.0695455 c 0.85158,-0.085958 1.76424,-0.185727 3.32031,-0.296875 2.18146,-0.1558184 2.66632,-0.1035156 4.33985,-0.1035156 z m 44.31445,0 c 2.93911,0 5.20687,0.4970087 6.55664,1.2480468 1.34976,0.7510383 1.82884,1.5173043 1.79102,2.8222663 v 0.0078 0.0098 c -0.0186,1.0769 -0.42989,1.916286 -1.58008,2.679687 -1.15019,0.763402 -3.12475,1.351563 -6.02539,1.351563 -1.71018,0 -4.57571,-0.261653 -6.35352,-0.515625 h -0.004 -0.002 c -0.81109,-0.112652 -1.48295,-0.286578 -1.99023,-0.4375 V 9.0656388 c 0.8645,-0.087046 1.73439,-0.1835955 3.26562,-0.2929688 2.18146,-0.1558184 2.66828,-0.1035156 4.3418,-0.1035156 z m -91.69922,3.7363281 4.01562,6.658203 h -8.03125 z m 70.92773,0.970703 v 18.816406 l -10.75781,-9.265625 c 2.94942,-0.787558 5.3231,-1.91318 7.11133,-3.322265 2.16436,-1.705462 3.41887,-3.903511 3.64648,-6.228516 z M 77.060549,43.206264 97.626953,78.497282 132.5,43.206264 Z m -59.191408,0.05274 41.138674,70.556626 H 115.95508 L 74.814453,43.258999 Z M 160.25195,45.96017 c -4.70028,0 -10.09502,0.203096 -13.54688,0.703125 -3.40209,0.447367 -6.41428,1.456039 -8.90429,3.019532 l -0.006,0.0039 -0.008,0.0059 c -4.60765,2.953623 -6.46513,7.89208 -7.44532,13.718753 l -4.91992,25.812498 -0.002,0.0078 c -0.48994,2.721936 -0.71093,5.139258 -0.71093,7.306638 v 0.06055 l 0.004,0.06055 c 0.33952,4.243904 1.8347,7.614064 4.63281,9.666014 l 0.004,0.004 0.006,0.002 c 2.17155,1.56834 4.91416,2.47503 8.10742,2.86719 3.21855,0.39526 7.40773,0.27734 11.51172,0.27734 4.53717,0 9.14928,0.33831 12.33985,-0.01 2.77519,-0.30275 6.17687,-0.17402 9.14843,-1.69141 l 0.0137,-0.006 0.0117,-0.006 c 1.19642,-0.63809 1.99282,-1.65832 2.72657,-2.66016 0.73374,-1.00183 1.37984,-2.02745 1.87695,-2.66015 1.26011,-1.60376 2.23265,-3.380844 2.91992,-5.263665 0.72023,-1.830804 1.32288,-3.859364 1.8125,-6.089847 l 0.006,-0.0215 0.004,-0.0215 c 0.85336,-4.533537 1.30728,-7.782726 1.18749,-10.087886 -0.11629,-3.235006 -0.9891,-5.857635 -2.73046,-7.675784 -2.18212,-2.387732 -5.80749,-2.837899 -8.88868,-3.369139 l -0.002,-0.0021 h -0.002 c -3.48245,-0.590246 -8.13835,-0.180719 -13.83008,-0.285157 h -0.0156 -0.0137 c -2.16867,0 -8.50339,-0.391086 -12.54492,0.0625 -0.26745,0.02663 -0.46246,0.127759 -0.70508,0.183594 l 0.64258,-2.646486 0.01,-0.07422 c 0.43815,-3.115723 1.5391,-5.215742 3.28321,-6.576175 0.44243,-0.325192 1.36466,-0.618952 2.91992,-0.748046 1.56132,-0.129596 3.68948,-0.119139 6.39453,-0.119139 h 5.13672 c 2.73147,0 5.35188,-0.01128 7.38672,0.103516 1.01742,0.05741 1.89048,0.147232 2.51953,0.269527 0.62904,0.12229 1.00433,0.339218 0.93945,0.285156 l 0.0371,0.03124 0.041,0.02928 c -0.18531,-0.134769 -0.0624,-0.09593 0.0176,0.246095 0.08,0.342029 0.13537,0.892217 0.16015,1.51172 0.0544,1.360312 0.15314,2.616413 -0.14258,4.587889 l -0.25976,1.724609 h 11.84765 l 0.21484,-1.24609 c 0.30598,-1.780216 0.51828,-3.928842 0.64649,-5.818361 0.12755,-1.879528 0.18286,-3.374338 0.10938,-4.279299 -0.24115,-4.328822 -2.52412,-7.64088 -6.40821,-9.134764 -3.41634,-1.313978 -5.22843,-2.058594 -10.28125,-2.058594 z m 57.01953,0.105469 c -3.83835,0 -11.26602,0.09758 -14.19141,0.322266 -5.53436,0.384878 -7.32361,1.987315 -9.63867,3.99414 -0.002,0.0013 -0.002,0.0026 -0.004,0.0039 -4.35408,3.621 -6.92528,8.663692 -7.46875,17.630859 l -0.004,0.04686 v 0.04495 c 0,0.276474 0.007,0.330906 0.0195,0.718747 0.0126,0.387841 0.0311,0.898105 0.0547,1.419921 0.0236,0.521816 0.0533,1.052691 0.0879,1.49805 0.0173,0.222683 0.0351,0.421953 0.0586,0.605468 0.0215,0.16779 0.009,0.276225 0.1504,0.630859 0.30267,1.109167 0.8179,2.325073 1.90038,3.406248 -1.64246,0.95251 -3.21258,1.921062 -4.37109,3.378907 -1.19134,1.43429 -2.1507,3.174771 -2.69531,4.808597 -0.58191,1.745712 -0.6983,3.749727 -1.25781,6.292966 l -0.0117,0.05077 -0.008,0.05273 c -0.41618,2.809188 -0.69081,3.626373 -0.80664,5.248048 l -0.008,0.115233 0.01,0.115237 c 0.29474,3.595765 1.69882,7.082195 3.83985,8.943355 1.73017,1.56656 3.76395,3.17332 6.99219,3.59179 2.98038,0.38635 6.98952,0.54297 12.05078,0.54297 h 5.82421 c 4.54247,0 9.66088,-0.20193 12.75196,-0.65039 3.06207,-0.39144 5.66924,-1.23006 7.76562,-2.39258 2.53967,-1.36602 3.52512,-3.36989 4.76172,-5.48241 1.37607,-2.350783 1.70572,-4.257842 2.47656,-7.863286 0.16698,-0.584422 0.11076,-0.862696 0.12305,-1.212889 0.0123,-0.350192 0.0349,-0.717322 0.11719,-1.128903 0.17472,-0.873587 0.14838,-1.848731 0.13477,-2.849611 -0.0136,-1.000885 -0.0527,-2.003374 -0.0527,-2.158203 v -0.0078 -0.0097 c -0.0264,-2.032779 -0.0105,-4.030833 -0.56445,-5.906253 -0.34119,-1.155153 -1.01117,-2.234025 -1.96093,-3.123044 0.17639,-0.191319 0.39838,-0.380678 0.52148,-0.566406 0.47064,-0.710095 0.69109,-1.223017 1.2832,-1.857424 l -0.0605,0.06055 c 1.35088,-1.289483 2.40581,-2.955694 3.20898,-4.906251 0.78489,-1.90617 1.347,-3.930669 1.63086,-6.017578 0.33056,-2.046916 0.44319,-4.034079 0.38867,-5.914062 v -0.0037 c -0.057,-2.782165 -0.59885,-5.006191 -1.85351,-6.609373 l -0.0254,-0.03125 -0.0273,-0.03125 c -0.41022,-0.468828 -0.55828,-0.844535 -0.91406,-1.4375 -0.35578,-0.592964 -1.06958,-1.361564 -2.07617,-1.734375 -1.54713,-0.573011 -3.34374,-1.018825 -5.3457,-1.296875 l -0.0293,-0.0039 -0.0293,-0.0039 c -2.34954,-0.22939 -7.43301,-0.324324 -12.74742,-0.324324 z m 54.79687,0.05273 c -3.89231,0 -7.10397,0.106053 -9.80663,0.322266 -2.75576,0.220461 -5.20762,0.719594 -7.39649,1.449219 l -0.0156,0.0059 -0.0176,0.0059 c -2.20512,0.791581 -4.03996,1.84104 -5.49219,3.228515 -2.33084,2.056159 -4.20258,4.67635 -5.49609,7.769534 -1.26852,3.033406 -2.19399,6.364478 -2.89648,10.039062 l -3.17774,16.738277 -0.002,0.0059 c -0.5406,2.973314 -0.91848,6.112729 -1.02734,9.269531 l -0.004,0.06641 0.004,0.06836 c 0.10246,1.844156 0.069,3.49865 0.25195,5.072257 0.18244,1.56899 0.62677,3.12965 1.75977,4.40625 1.67595,1.98367 4.26768,3.24292 7.52344,3.97266 3.35523,0.75204 8.94989,1.04297 14.25195,1.04297 4.39019,0 9.42813,-0.21155 12.57032,-0.48243 l 0.0273,-0.002 0.0273,-0.004 c 3.1719,-0.38953 5.9508,-1.2286 8.26953,-2.50391 l 0.008,-0.004 0.008,-0.004 c 2.94168,-1.66399 5.00394,-4.299 6.49414,-7.630852 1.48893,-3.329029 2.46585,-7.381791 3.34765,-12.189456 l 0.002,-0.0097 3.23438,-16.863283 0.006,-0.03907 c 0.58718,-4.216979 0.86573,-7.196672 0.80664,-9.146483 -0.11356,-4.537704 -1.37933,-8.123819 -3.91992,-10.478517 l -0.0312,-0.02929 -0.0332,-0.02539 c -1.37971,-1.139753 -3.04854,-2.027495 -4.96875,-2.609375 -1.89278,-0.573572 -3.99747,-0.900216 -6.38282,-1.117187 h -0.004 c -2.33465,-0.217068 -4.97084,-0.324219 -7.91797,-0.324219 z m 54.9043,0 c -3.89231,0 -7.10593,0.106053 -9.80859,0.322266 -2.75576,0.220461 -5.20761,0.719594 -7.39649,1.449219 l -0.0156,0.0059 -0.0176,0.0059 c -2.20512,0.791581 -4.03997,1.84104 -5.49219,3.228515 -2.33085,2.056159 -4.20258,4.67635 -5.4961,7.769534 -1.26851,3.033406 -2.19204,6.364478 -2.89453,10.039062 l -3.17968,16.738277 -0.002,0.0059 c -0.5406,2.973314 -0.91849,6.112729 -1.02735,9.269531 l -0.002,0.06641 0.002,0.06836 c 0.10246,1.844156 0.0709,3.49865 0.25391,5.072257 0.18235,1.56824 0.62601,3.12803 1.75782,4.4043 1.67589,1.98495 4.26646,3.2446 7.52343,3.97461 3.35523,0.75204 8.94989,1.04297 14.25195,1.04297 4.33785,0 9.42861,-0.21142 12.57227,-0.48243 l 0.0273,-0.002 0.0254,-0.004 c 3.1719,-0.38953 5.9508,-1.2286 8.26953,-2.50391 l 0.01,-0.004 0.006,-0.004 c 2.94169,-1.66399 5.0059,-4.299 6.4961,-7.630852 1.48893,-3.329029 2.4639,-7.381791 3.3457,-12.189456 l 0.002,-0.0097 3.23437,-16.863283 0.006,-0.03907 c 0.58652,-4.212304 0.86686,-7.186788 0.80859,-9.136721 v -0.0037 c -0.11266,-4.540313 -1.38025,-8.128725 -3.92187,-10.484377 l -0.0312,-0.02929 -0.0332,-0.02735 c -1.3797,-1.139753 -3.04659,-2.025541 -4.9668,-2.607422 -1.89279,-0.573572 -3.99942,-0.900216 -6.38476,-1.117187 h -0.004 c -2.33464,-0.217068 -4.97083,-0.324219 -7.91796,-0.324219 z m 54.84961,0 c -3.89231,0 -7.10593,0.106053 -9.80859,0.322266 -2.75576,0.220461 -5.20761,0.719594 -7.39649,1.449219 l -0.0156,0.0059 -0.0176,0.0059 c -2.20327,0.790916 -4.03663,1.838868 -5.48828,3.224609 -2.33238,2.056594 -4.20589,4.6788 -5.50001,7.77344 -1.26851,3.033406 -2.19203,6.364478 -2.89452,10.039062 l -3.17774,16.738277 -0.002,0.0059 c -0.5406,2.973314 -0.92044,6.112729 -1.02929,9.269531 l -0.002,0.06641 0.004,0.06836 c 0.10246,1.844156 0.069,3.49865 0.25195,5.072257 0.18244,1.56899 0.62677,3.12965 1.75977,4.40625 1.67595,1.98367 4.26573,3.24292 7.52149,3.97266 3.35523,0.75204 8.95184,1.04297 14.2539,1.04297 4.39019,0 9.42812,-0.21155 12.57031,-0.48243 l 0.0273,-0.002 0.0273,-0.004 c 3.1719,-0.38953 5.94884,-1.2286 8.26758,-2.50391 l 0.01,-0.004 0.008,-0.004 c 2.94169,-1.66399 5.00395,-4.299 6.49415,-7.630852 1.4889,-3.328976 2.46391,-7.381897 3.3457,-12.189456 l 3.23828,-16.873046 0.004,-0.03907 c 0.58652,-4.212304 0.86686,-7.186788 0.80859,-9.136721 v -0.0037 c -0.11267,-4.540313 -1.38025,-8.128726 -3.92188,-10.484377 l -0.0312,-0.02929 -0.0332,-0.02735 c -1.3797,-1.139753 -3.04659,-2.025541 -4.9668,-2.607422 -1.89278,-0.573572 -3.99941,-0.900216 -6.38476,-1.117187 h -0.002 C 387.40798,46.225501 384.76983,46.11835 381.8227,46.11835 Z M 90.800783,50.389856 H 114.04882 L 99.841797,64.803918 Z m -59.291017,0.05273 H 68.855468 L 100.77734,105.15157 H 63.431641 Z m 184.386714,6.882813 c 3.42598,0 6.1077,0.06524 7.72266,0.302734 l 0.0469,0.0059 0.0469,0.0037 c 1.80289,0.150239 3.07181,0.494216 3.59961,0.804685 l 0.0137,0.0059 0.0117,0.0078 c 0.32984,0.185537 0.51574,0.395662 0.55859,1.552737 l 0.002,0.0097 v 0.0078 c 0.0431,0.905184 -0.095,2.202947 -0.34961,3.736327 -0.51045,2.544775 -0.83815,3.342545 -1.53711,4.640626 l -0.0117,0.01954 -0.01,0.0215 c -0.57131,1.142616 -1.23553,1.735473 -1.83594,1.98828 l -0.0137,0.0037 -0.0117,0.0078 c -1.76825,0.785885 -6.3445,1.033202 -12.46876,1.033202 -3.40713,0 -6.42164,-0.02652 -8.71679,-0.16797 -2.23243,-0.137575 -3.849,-0.564065 -4.01172,-0.634767 -0.32711,-0.281508 -0.65825,-0.821431 -0.79297,-1.93945 0.20259,-2.398951 0.4063,-4.342419 0.60352,-5.728519 0.23231,-1.288843 0.68565,-2.514496 1.42187,-3.71875 0.27801,-0.423134 0.39989,-0.489636 0.8418,-0.644529 0.44356,-0.155476 1.22171,-0.289673 2.25586,-0.576174 0.71496,-0.193235 2.5176,-0.416892 4.75976,-0.546875 2.24217,-0.129977 4.98581,-0.19531 7.875,-0.19531 z m 54.63672,0.369141 c 4.30245,0 7.33393,0.108244 9.16406,0.259765 1.62053,0.193388 2.79655,0.624241 3.5,1.142579 0.19367,0.1427 0.25695,0.211654 0.36719,0.703123 0.10924,0.487026 0.16115,1.335623 0.1875,2.494144 -0.001,1.611907 -0.19527,2.636235 -0.66797,5.99414 l -3.32617,17.574215 c -1.24854,5.926822 -2.36601,8.430623 -4.17188,10.019536 -0.85689,0.738569 -2.24074,1.306329 -4.32617,1.548824 -2.17536,0.252945 -5.52601,0.414064 -10.09765,0.414064 -3.79808,0 -6.49175,-0.05836 -8.00782,-0.205079 -1.49863,-0.145029 -2.70656,-0.486089 -3.55078,-0.908201 -0.6235,-0.311745 -1.00254,-0.674374 -1.27343,-1.14844 -0.21529,-0.37675 -0.48302,-1.343936 -0.58789,-2.750001 0.10191,-1.62329 0.34513,-2.483471 0.76562,-5.263672 l 3.59375,-19.080075 v -0.0021 c 0.49792,-2.688793 1.06428,-3.360371 1.85937,-5.177732 0.68262,-1.56026 1.40763,-2.625594 1.94532,-3.169922 0.68523,-0.636302 1.36241,-1.096459 2.09375,-1.380864 l 0.002,-0.0021 h 0.002 c 1.04368,-0.408394 2.3914,-0.706034 4.03515,-0.855469 1.63015,-0.148195 4.48356,-0.207032 8.49415,-0.207032 z m 54.85156,0 c 4.35747,0 7.39074,0.108832 9.16211,0.259765 1.61994,0.193457 2.79671,0.624363 3.5,1.142579 0.19366,0.1427 0.25695,0.211654 0.36719,0.703123 0.10956,0.488445 0.16123,1.338197 0.1875,2.501953 -0.002,1.607571 -0.196,2.63361 -0.66797,5.986331 l -3.32422,17.574215 c -1.24854,5.926827 -2.36796,8.430623 -4.17383,10.019536 -0.85689,0.738569 -2.23878,1.306329 -4.32422,1.548824 -2.17535,0.252945 -5.52601,0.414064 -10.09765,0.414064 -3.79808,0 -6.49369,-0.05836 -8.00977,-0.205079 -1.49863,-0.145029 -2.70656,-0.486089 -3.55078,-0.908201 -0.6235,-0.311745 -1.00254,-0.674374 -1.27344,-1.14844 -0.21528,-0.37675 -0.48301,-1.343931 -0.58789,-2.750001 0.10192,-1.62329 0.34513,-2.483471 0.76563,-5.263672 l 3.59375,-19.080075 0.002,-0.0021 c 0.49792,-2.688793 1.06233,-3.360371 1.85742,-5.177732 0.68261,-1.56026 1.40763,-2.625594 1.94531,-3.169922 0.68524,-0.636302 1.36438,-1.096459 2.09571,-1.380864 v -0.0021 h 0.002 c 1.04368,-0.408394 2.39336,-0.706034 4.03712,-0.855469 1.63014,-0.148195 4.48355,-0.207032 8.49414,-0.207032 z m 54.90235,0 c 4.30245,0 7.33197,0.108244 9.16211,0.259765 1.62053,0.193388 2.79849,0.624241 3.50195,1.142579 0.19366,0.1427 0.25499,0.211654 0.36523,0.703123 0.10956,0.488445 0.16122,1.338197 0.1875,2.501953 -0.002,1.607571 -0.19404,2.63361 -0.66601,5.986331 l -3.32617,17.574215 c -1.24855,5.926822 -2.36797,8.430623 -4.17383,10.019536 -0.8569,0.738569 -2.23879,1.306329 -4.32422,1.548824 -2.17535,0.252945 -5.52601,0.414064 -10.09766,0.414064 -3.79808,0 -6.49174,-0.05836 -8.00781,-0.205079 -1.49863,-0.145029 -2.70657,-0.486089 -3.55078,-0.908201 -0.6235,-0.311745 -1.0045,-0.674374 -1.27539,-1.14844 -0.21547,-0.377067 -0.48126,-1.345852 -0.58594,-2.753903 0.10203,-1.621379 0.34343,-2.481247 0.76367,-5.25977 l 3.5957,-19.080075 v -0.0021 c 0.49793,-2.688793 1.06233,-3.360371 1.85743,-5.177732 0.68261,-1.56026 1.40763,-2.625594 1.94531,-3.169922 0.68524,-0.636297 1.36437,-1.096459 2.0957,-1.380864 l 0.002,-0.0021 c 1.04368,-0.408394 2.39336,-0.706034 4.03711,-0.855469 1.63015,-0.148195 4.48355,-0.207032 8.49414,-0.207032 z M 34.873047,78.473844 0,113.7629 h 55.4375 z m 128.048823,2.525391 c 1.19212,0.0042 2.15132,0.0626 2.75977,0.277342 l 0.008,0.0021 0.006,0.0021 c 1.40842,0.482886 1.76154,1.016874 1.84375,2.414061 0.0439,1.190255 -0.12727,1.74928 -0.71094,4.720704 l -0.008,0.03515 -0.006,0.03711 c -0.3811,2.616916 -0.93043,4.318139 -1.56641,5.462894 -0.63597,1.14475 -1.33517,1.78012 -2.29297,2.373045 l -0.0195,0.0117 -0.0215,0.01562 c -0.67294,0.448627 -2.24366,0.820267 -4.29492,1.025393 l -0.0176,0.0021 -0.0195,0.0021 c -1.40027,0.175033 -14.93514,0.168049 -16.2461,0 h -0.002 -0.004 c -1.11689,-0.139614 -1.88816,-0.170633 -2.35547,-0.220703 -0.45035,-0.04823 -0.53055,-0.07814 -0.71484,-0.191408 -0.48092,-0.408876 -0.89502,-0.711663 -0.98828,-0.814453 -0.0991,-0.109208 -0.18067,-0.30014 -0.27539,-0.884764 0.05,-0.810937 0.15572,-1.993839 0.36523,-3.490237 l 0.49609,-2.814451 c 0.38752,-2.195926 0.78549,-3.682255 1.26172,-4.689456 0.47623,-1.007201 0.97986,-1.570388 1.85938,-2.16406 l 0.004,-0.0021 0.004,-0.0037 c 1.08876,-0.74658 4.77281,-1.060548 11.01172,-1.060548 h 5.77149 c 1.536,0 2.96022,-0.04924 4.15234,-0.0449 z m 47.04492,1.15625 c 4.16833,0 7.7727,0.06903 9.73243,0.355466 5.2e-4,1.06e-4 0.003,-1.11e-4 0.004,0 1.92866,0.298625 2.96416,0.873655 3.04297,0.9668 l 0.0391,0.04686 0.045,0.0449 c -0.18619,-0.186194 0.22594,0.484707 0.38867,1.240234 0.16014,0.743508 0.25682,1.61161 0.28125,2.171874 -0.002,0.983223 -0.19048,2.470621 -0.64843,4.455079 l -0.002,0.0098 -0.002,0.0117 c -0.58169,2.696914 -0.87128,3.935105 -1.52734,5.072268 -0.22209,0.384967 -0.43864,0.538414 -0.8711,0.740231 -0.43246,0.201818 -1.06831,0.373965 -1.81641,0.699221 l 0.0801,-0.0332 c -2.05275,0.754076 -5.76851,0.542973 -10.65234,0.542973 -4.64771,0 -9.36788,-0.07643 -10.83203,-0.253909 l -0.0723,-0.0078 -0.0723,-0.0021 c -1.89886,-0.04416 -3.30184,-0.779955 -4.55078,-1.347657 -0.33765,-0.153474 -0.37667,-0.213174 -0.48047,-0.417967 -0.0961,-0.189566 -0.1955,-0.628006 -0.26758,-1.236332 0.0491,-0.876435 -0.003,-1.306912 0.43945,-4.017576 0.51025,-2.436779 1.12432,-4.273571 1.75,-5.435549 l 0.006,-0.0097 0.004,-0.0117 c 0.62478,-1.20491 1.32039,-1.859939 2.14844,-2.236328 l 0.0254,-0.0117 0.0254,-0.0117 c 1.04704,-0.523521 2.52089,-0.922227 4.41015,-1.121095 1.8157,-0.191128 5.66697,-0.203125 9.37305,-0.203125 z M 32.658203,92.165247 41.699219,106.58126 H 18.451172 Z"
   inkscape:label="SharpX6800Outline" />
<path
   d="M 20.47954,44.759761 59.869876,112.3163 H 113.34332 L 73.95298,44.759761 Z m 8.418096,4.182576 H 69.71746 L 103.38984,106.6513 H 62.57002 Z M 34.562644,80.920513 3.5904038,112.26336 H 52.828324 Z M 32.92138,89.762161 44.410228,108.08078 H 14.867476 Z M 97.936612,76.049665 128.90885,44.706817 H 79.670932 Z M 99.577876,67.208017 88.089028,48.889393 h 29.542752 z m 37.802014,21.495264 c -0.0529,-0.105888 -0.21177,0.741216 -0.47649,2.594256 -0.26472,1.800096 -0.37061,3.17664 -0.42356,4.076688 0.26472,1.905984 0.90005,1.905984 1.95893,2.858976 0.84711,0.52944 1.58832,0.370608 3.70608,0.635328 2.06482,0.26472 14.50666,0.26472 16.62442,0 2.11776,-0.211776 3.86491,-0.52944 4.97673,-1.270656 2.22365,-1.376544 3.75903,-3.44136 4.55319,-8.894592 0.58238,-2.964864 0.79416,-3.70608 0.74121,-5.082624 -0.10588,-1.85304 -1.00593,-3.123696 -2.85897,-3.759024 -1.8001,-0.635328 -4.4473,-0.317664 -7.41216,-0.317664 h -5.7709 c -6.24739,0 -10.00641,0.05294 -11.85945,1.3236 -2.11776,1.429488 -2.96487,3.335472 -3.75903,7.835712 z m 44.57885,-21.70704 h -8.84165 c 0.31767,-2.11776 0.21178,-3.547248 0.15883,-4.870848 -0.0529,-1.3236 -0.21177,-2.488368 -0.79416,-2.91192 -1.27065,-1.05888 -6.35328,-1.005936 -11.80651,-1.005936 h -5.13557 c -5.40028,0 -8.57692,-0.05294 -10.21819,1.164768 -2.11776,1.641264 -3.38841,4.182576 -3.86491,7.570992 l -1.42949,5.876784 c 0,0 0.95299,-1.429488 3.1237,-1.641264 3.75902,-0.423552 10.05936,-0.05294 12.38889,-0.05294 5.7709,0.105888 10.48292,-0.26472 13.60661,0.26472 3.07075,0.52944 6.45917,1.164768 8.04749,2.91192 1.42949,1.482432 2.22365,3.70608 2.32954,6.723888 0.10588,2.011872 -0.31767,5.241456 -1.16477,9.741696 -0.4765,2.170704 -1.05888,4.129632 -1.74715,5.876784 -0.63533,1.747152 -1.53538,3.388415 -2.70015,4.870845 -1.16477,1.48243 -2.54131,4.07669 -4.12963,4.92379 -2.48837,1.27066 -5.71795,1.21771 -8.62987,1.53538 -2.91192,0.31766 -7.57099,0 -12.17712,0 -4.12963,0 -8.31221,0.10588 -11.33002,-0.26472 -3.01781,-0.37061 -5.50617,-1.21772 -7.41216,-2.59426 -2.38248,-1.74715 -3.70608,-4.60613 -4.02374,-8.576923 0,-2.064816 0.21177,-4.394352 0.68827,-7.041552 l 4.92379,-25.836672 c 0.95299,-5.665008 2.6472,-10.05936 6.77683,-12.70656 2.2766,-1.429488 5.08263,-2.38248 8.31221,-2.806032 3.28253,-0.476496 8.68282,-0.688272 13.34189,-0.688272 h 7.25333 c 4.92379,0 6.30033,0.635328 9.74169,1.958928 3.44136,1.3236 5.24146,3.917856 5.45324,7.835712 0.10588,1.270656 -0.15884,6.35328 -0.74122,9.741696 z m 33.9371,-11.171184 c -5.82384,0 -11.06529,0.26472 -13.02422,0.79416 -1.90598,0.52944 -3.07075,0.476496 -3.9708,1.85304 -0.8471,1.376544 -1.37654,2.806032 -1.64126,4.288464 -0.21178,1.482432 -0.42356,3.494304 -0.63533,6.035616 0.15883,1.535376 0.68827,2.541312 1.42949,3.123696 1.48243,0.952992 6.77683,1.05888 13.6066,1.05888 6.14151,0 10.69469,-0.105888 13.07717,-1.164768 1.00594,-0.423552 1.90599,-1.3236 2.59426,-2.700144 0.74121,-1.376544 1.16477,-2.435424 1.69421,-5.082624 0.26472,-1.58832 0.42355,-2.964864 0.3706,-4.076688 -0.0529,-1.429488 -0.47649,-2.329536 -1.3236,-2.806032 -0.90004,-0.52944 -2.32953,-0.847104 -4.23552,-1.005936 -1.80009,-0.26472 -4.50024,-0.317664 -7.9416,-0.317664 z m 14.77138,20.91288 c 3.65314,1.482432 3.65314,4.976736 3.70608,9.053424 0,0.582384 0.15883,3.653136 -0.0529,4.712016 -0.21178,1.05888 -0.10589,1.85304 -0.21178,2.223648 -0.79416,3.70608 -1.05888,5.347344 -2.32954,7.518045 -1.27065,2.17071 -2.01187,3.75903 -4.18257,4.92379 -1.90599,1.05888 -4.34141,1.85304 -7.25333,2.22365 -2.91192,0.42355 -8.04749,0.63533 -12.54773,0.63533 h -5.82384 c -5.02968,0 -9.00048,-0.15883 -11.85945,-0.52944 -2.85898,-0.37061 -4.50024,-1.69421 -6.19445,-3.22958 -1.58832,-1.37655 -3.07075,-4.712019 -3.33547,-7.941603 0.10588,-1.482432 0.3706,-2.276592 0.79416,-5.135568 0.58238,-2.6472 0.74121,-4.712016 1.21771,-6.141504 0.47649,-1.429488 1.37654,-3.070752 2.43542,-4.341408 1.00594,-1.270656 2.54131,-2.223648 4.28847,-3.229584 1.11182,-0.635328 1.42948,-0.847104 0.31766,-1.800096 -1.21771,-1.005936 -1.58832,-2.011872 -1.90598,-3.229584 -0.15884,-0.370608 -0.26472,-4.23552 -0.26472,-4.341408 0.52944,-8.73576 2.85897,-13.183056 6.93566,-16.571472 2.38248,-2.064816 3.44136,-3.282528 8.7887,-3.653136 2.75309,-0.211776 10.27114,-0.317664 14.08311,-0.317664 5.2944,0 10.42997,0.105888 12.60067,0.317664 1.90598,0.26472 3.60019,0.688272 5.02968,1.217712 1.42949,0.52944 1.27066,1.482432 2.38248,2.753088 0.95299,1.217712 1.48243,3.123696 1.53538,5.717952 0.0529,1.800096 -0.053,3.70608 -0.37061,5.665008 -0.26472,1.958928 -0.79416,3.864912 -1.53538,5.665008 -0.74121,1.800096 -1.69421,3.282528 -2.85897,4.394352 -1.48244,1.58832 -1.27066,2.753088 -3.22959,3.388416 -0.42355,0.158832 -0.63533,0.05294 -0.63533,0 0,-0.05294 0.15884,-0.05294 0.4765,0.05294 z m -20.7011,3.917856 c -3.70608,0 -7.51805,0 -9.52992,0.211776 -2.01188,0.211776 -3.65314,0.635328 -4.9238,1.270656 -1.16476,0.52944 -2.11776,1.482432 -2.85897,2.91192 -0.74122,1.376544 -1.37655,3.335472 -1.90599,5.876784 -0.47649,2.91192 -0.42355,3.494304 -0.47649,4.341408 0.15883,1.535376 0.47649,2.435424 1.64126,2.964864 1.16477,0.52944 2.85898,1.429488 5.13557,1.482432 1.74715,0.211776 6.35328,0.26472 11.01235,0.26472 4.81791,0 8.57693,0.317667 11.17119,-0.635328 1.21771,-0.52944 2.59425,-0.688272 3.38841,-2.064816 0.79416,-1.376544 1.11183,-2.806032 1.69421,-5.506176 0.4765,-2.064816 0.68827,-3.653136 0.68827,-4.817904 -0.0529,-1.3236 -0.42355,-3.759024 -1.11182,-4.447296 -0.58239,-0.688272 -1.90599,-1.164768 -3.9708,-1.482432 -2.17071,-0.317664 -5.7709,-0.370608 -9.95347,-0.370608 z m 50.56152,27.424987 c -5.24146,0 -10.85352,-0.31766 -13.92428,-1.00593 -3.07075,-0.68827 -5.34734,-1.85304 -6.72388,-3.49431 -1.74716,-1.95892 -1.42949,-4.764955 -1.64127,-8.576923 0.10589,-3.070752 0.4765,-6.141504 1.00594,-9.053424 l 3.17664,-16.730304 c 0.68827,-3.600192 1.58832,-6.829776 2.80603,-9.741696 1.21771,-2.91192 2.96486,-5.347344 5.13557,-7.253328 1.27065,-1.217712 2.91192,-2.170704 4.97673,-2.91192 2.06482,-0.688272 4.39436,-1.164768 7.04156,-1.376544 2.6472,-0.211776 5.82384,-0.317664 9.68875,-0.317664 2.91192,0 5.50617,0.105888 7.78277,0.317664 2.32953,0.211776 4.3414,0.52944 6.08856,1.05888 1.74715,0.52944 3.22958,1.3236 4.44729,2.329536 2.17071,2.011872 3.33547,5.135568 3.44136,9.424032 0.053,1.747152 -0.21177,4.712016 -0.79416,8.894592 l -3.22958,16.836192 c -1.74715,9.52992 -3.86491,15.830257 -9.10637,18.795117 -2.11776,1.16477 -4.71202,1.95893 -7.72982,2.32954 -3.07076,0.26472 -8.10044,0.47649 -12.44184,0.47649 z m 10.00641,-51.885115 c -4.02374,0 -6.88272,0.05294 -8.62987,0.211776 -1.74715,0.158832 -3.22958,0.476496 -4.4473,0.952992 -0.95299,0.370608 -1.80009,0.952992 -2.59425,1.694208 -0.74122,0.741216 -1.53538,1.958928 -2.27659,3.653136 -0.74122,1.694208 -1.42949,2.6472 -1.95893,5.506176 l -3.60019,19.112784 c -0.42356,2.806032 -0.68828,3.70608 -0.79416,5.506176 0.10588,1.58832 0.3706,2.753088 0.79416,3.494304 0.42355,0.741216 1.05888,1.3236 1.90598,1.747152 1.05888,0.52944 2.43542,0.900048 4.07669,1.05888 1.64126,0.158832 4.34141,0.211776 8.15337,0.211776 4.60613,0 7.99455,-0.158832 10.27114,-0.423552 2.27659,-0.26472 3.9708,-0.900048 5.13557,-1.905984 2.1707,-1.905984 3.38841,-4.817904 4.65907,-10.85352 l 3.33547,-17.630352 c 0.4765,-3.388416 0.68827,-4.50024 0.68827,-6.247392 -0.0529,-2.38248 -0.15883,-3.653136 -1.16476,-4.394352 -1.00594,-0.741216 -2.43543,-1.217712 -4.23552,-1.429488 -1.90599,-0.158832 -4.97674,-0.26472 -9.31815,-0.26472 z m 44.89651,51.885115 c -5.24145,0 -10.85352,-0.31766 -13.92427,-1.00593 -3.07075,-0.68827 -5.34734,-1.85304 -6.72389,-3.49431 -1.74715,-1.95892 -1.42948,-4.764955 -1.64126,-8.576923 0.10589,-3.070752 0.4765,-6.141504 1.00594,-9.053424 l 3.17664,-16.730304 c 0.68827,-3.600192 1.58832,-6.829776 2.80603,-9.741696 1.21771,-2.91192 2.96486,-5.347344 5.13557,-7.253328 1.27065,-1.217712 2.91192,-2.170704 4.97673,-2.91192 2.06482,-0.688272 4.39435,-1.164768 7.04155,-1.376544 2.6472,-0.211776 5.82384,-0.317664 9.68876,-0.317664 2.91192,0 5.50617,0.105888 7.78276,0.317664 2.32954,0.211776 4.34141,0.52944 6.08856,1.05888 1.74716,0.52944 3.22959,1.3236 4.4473,2.329536 2.1707,2.011872 3.33547,5.135568 3.44136,9.424032 0.0529,1.747152 -0.21178,4.712016 -0.79416,8.894592 l -3.22958,16.836192 c -1.74716,9.52992 -3.86492,15.830257 -9.10637,18.795117 -2.11776,1.16477 -4.71202,1.95893 -7.72983,2.32954 -3.07075,0.26472 -8.15337,0.47649 -12.44184,0.47649 z m 9.95348,-51.885115 c -4.02375,0 -6.88272,0.05294 -8.62988,0.211776 -1.74715,0.158832 -3.22958,0.476496 -4.44729,0.952992 -0.95299,0.370608 -1.8001,0.952992 -2.59426,1.694208 -0.74121,0.741216 -1.53537,1.958928 -2.27659,3.653136 -0.74122,1.694208 -1.42949,2.6472 -1.95893,5.506176 l -3.60019,19.112784 c -0.42355,2.806032 -0.68827,3.70608 -0.79416,5.506176 0.10589,1.58832 0.37061,2.753088 0.79416,3.494304 0.42355,0.741216 1.05888,1.3236 1.90598,1.747152 1.05888,0.52944 2.43543,0.900048 4.07669,1.05888 1.64127,0.158832 4.34141,0.211776 8.15338,0.211776 4.60613,0 7.99454,-0.158832 10.27113,-0.423552 2.2766,-0.26472 3.9708,-0.900048 5.13557,-1.905984 2.17071,-1.905984 3.38842,-4.817904 4.65907,-10.85352 l 3.33548,-17.630352 c 0.47649,-3.388416 0.68827,-4.50024 0.68827,-6.247392 -0.053,-2.38248 -0.15883,-3.653136 -1.16477,-4.394352 -1.00594,-0.741216 -2.43542,-1.217712 -4.23552,-1.429488 -1.85304,-0.158832 -4.92379,-0.26472 -9.31814,-0.26472 z m 44.89651,51.885115 c -5.24146,0 -10.85352,-0.31766 -13.92427,-1.00593 -3.07076,-0.68827 -5.34735,-1.85304 -6.72389,-3.49431 -1.74715,-1.95892 -1.42949,-4.764955 -1.64127,-8.576923 0.10589,-3.070752 0.4765,-6.141504 1.00594,-9.053424 l 3.17664,-16.730304 c 0.68827,-3.600192 1.58832,-6.829776 2.80603,-9.741696 1.21771,-2.91192 2.96487,-5.347344 5.13557,-7.253328 1.27066,-1.217712 2.91192,-2.170704 4.97674,-2.91192 2.06481,-0.688272 4.39435,-1.164768 7.04155,-1.376544 2.6472,-0.211776 5.82384,-0.317664 9.68875,-0.317664 2.91192,0 5.50618,0.105888 7.78277,0.317664 2.32953,0.211776 4.34141,0.52944 6.08856,1.05888 1.74715,0.52944 3.22958,1.3236 4.44729,2.329536 2.17071,2.011872 3.33548,5.135568 3.44136,9.424032 0.053,1.747152 -0.21177,4.712016 -0.79416,8.894592 l -3.22958,16.836192 c -1.74715,9.52992 -3.86491,15.830257 -9.10637,18.795117 -2.11776,1.16477 -4.71201,1.95893 -7.72982,2.32954 -3.07075,0.26472 -8.10043,0.47649 -12.44184,0.47649 z m 10.00641,-51.885115 c -4.02374,0 -6.88272,0.05294 -8.62987,0.211776 -1.74715,0.158832 -3.22958,0.476496 -4.44729,0.952992 -0.953,0.370608 -1.8001,0.952992 -2.59426,1.694208 -0.74122,0.741216 -1.53538,1.958928 -2.27659,3.653136 -0.74122,1.694208 -1.42949,2.6472 -1.95893,5.506176 l -3.60019,19.112784 c -0.42355,2.806032 -0.68827,3.70608 -0.79416,5.506176 0.10589,1.58832 0.37061,2.753088 0.79416,3.494304 0.42355,0.741216 1.05888,1.3236 1.90598,1.747152 1.05888,0.52944 2.43543,0.900048 4.07669,1.05888 1.64126,0.158832 4.34141,0.211776 8.15338,0.211776 4.60612,0 7.99454,-0.158832 10.27113,-0.423552 2.27659,-0.26472 3.9708,-0.900048 5.13557,-1.905984 2.1707,-1.905984 3.38842,-4.817904 4.65907,-10.85352 l 3.33547,-17.630352 c 0.4765,-3.388416 0.68828,-4.50024 0.68828,-6.247392 -0.053,-2.38248 -0.15884,-3.653136 -1.16477,-4.394352 -1.00594,-0.741216 -2.43543,-1.217712 -4.23552,-1.429488 -1.90599,-0.158832 -4.97674,-0.26472 -9.31815,-0.26472 z M 148.12752,21.411457 h 20.27756 v 12.230064 h 10.53585 V 2.8281129 H 168.40508 V 14.634625 H 148.12752 V 2.8281129 H 137.59167 V 33.641521 h 10.53585 z m 54.63821,-11.9124001 6.67095,11.0652961 h -13.34189 z m 10.53586,17.3656321 4.07669,6.776832 h 12.23006 L 211.025,2.8281129 H 198.79493 L 180.21159,33.641521 h 7.99454 l 4.07669,-6.776832 z M 275.19312,2.8281129 V 33.641521 h 10.11231 V 22.470337 c 3.33547,0.688272 7.14744,1.005936 11.17118,1.005936 13.39483,0 19.53634,-4.817904 19.64223,-10.747632 0.10588,-7.1474401 -7.88866,-11.1711841 -21.33644,-11.1711841 -3.4943,0 -4.71201,0.158832 -9.47697,0.423552 -4.76496,0.26472 -10.11231,0.847104 -10.11231,0.847104 z m 10.11231,4.870848 c 0,0 2.48837,-0.26472 4.71201,-0.423552 2.22365,-0.158832 2.80604,-0.105888 4.4473,-0.105888 6.19445,0 9.95347,1.958928 9.84758,5.6120641 -0.0529,3.070752 -2.91192,5.506176 -9.10636,5.506176 -1.85304,0 -4.71202,-0.26472 -6.56506,-0.52944 -1.90598,-0.26472 -3.28253,-0.847104 -3.28253,-0.847104 V 7.6989609 Z M 230.879,2.8281129 V 33.641521 h 10.1123 V 7.6989609 c 0,0 2.48837,-0.26472 4.71202,-0.423552 2.22364,-0.158832 2.80603,-0.105888 4.44729,-0.105888 6.19445,0 10.37703,1.958928 10.27114,5.6120641 -0.0529,3.070752 -3.33547,4.659072 -9.52992,4.659072 -1.85304,0 -4.18258,-0.26472 -6.08856,-0.52944 -0.10589,0 -2.11776,3.282528 -2.11776,3.282528 l 15.19493,13.447776 h 15.19492 L 259.68053,22.099729 c 8.4181,-1.429488 12.54773,-5.241456 12.60067,-9.371088 0,-7.9945441 -7.9416,-11.3300161 -21.75998,-11.1711841 -3.4943,0.052944 -4.71202,0.158832 -9.47698,0.423552 -4.87084,0.26472 -10.16524,0.847104 -10.16524,0.847104 z M 130.81484,12.093313 c 0,0 3.54724,-6.5121121 3.38841,-6.7768321 -0.15883,-0.26472 -7.14744,-3.9708 -21.12465,-3.811968 -21.6541,0.26472 -21.548212,9.2652001 -21.548212,9.2652001 0,0 -2.170704,8.418096 14.665492,10.112304 10.32408,1.05888 17.68329,2.806032 17.63035,5.2944 -0.0529,2.488368 -4.39435,2.38248 -6.30034,2.223648 -16.88913,-1.376544 -22.92475,-6.08856 -22.92475,-6.08856 l -3.653136,7.67688 c 0,0 8.153376,5.082624 25.095456,4.923792 16.94208,-0.158832 19.27162,-4.182576 19.58928,-9.582864 0.37061,-6.723888 -9.05342,-9.424032 -9.05342,-9.424032 0,0 -5.18852,-1.111824 -10.53586,-1.905984 -6.19445,-0.900048 -12.60067,-1.85304 -11.80651,-4.3414081 0,-0.105888 1.80009,-3.600192 14.77137,-1.164768 6.30034,1.217712 11.80652,3.6001921 11.80652,3.6001921 z"
   style="fill:#ff0000;stroke-width:0.52944"
   id="path2"
   inkscape:label="SharpX6800" /></svg>
