<?xml version="1.0" encoding="UTF-8" standalone="no"?>
<svg
   height="220"
   viewBox="0 0 190.49803 58.207844"
   width="720"
   version="1.1"
   id="svg19"
   sodipodi:docname="amcoe-w.svg"
   inkscape:version="1.4 (86a8ad7, 2024-10-11)"
   xmlns:inkscape="http://www.inkscape.org/namespaces/inkscape"
   xmlns:sodipodi="http://sodipodi.sourceforge.net/DTD/sodipodi-0.dtd"
   xmlns="http://www.w3.org/2000/svg"
   xmlns:svg="http://www.w3.org/2000/svg">
  <defs
     id="defs19" />
  <sodipodi:namedview
     id="namedview19"
     pagecolor="#ffffff"
     bordercolor="#000000"
     borderopacity="0.25"
     inkscape:showpageshadow="2"
     inkscape:pageopacity="0.0"
     inkscape:pagecheckerboard="true"
     inkscape:deskcolor="#d1d1d1"
     inkscape:zoom="2.1317911"
     inkscape:cx="371.98766"
     inkscape:cy="97.805079"
     inkscape:window-width="3840"
     inkscape:window-height="2066"
     inkscape:window-x="-11"
     inkscape:window-y="-11"
     inkscape:window-maximized="1"
     inkscape:current-layer="g19" />
  <linearGradient
     id="a"
     gradientUnits="userSpaceOnUse"
     x1="291.87"
     x2="291.87"
     y1="11.234"
     y2="188.621">
    <stop
       offset="0"
       stop-color="#d4bf03"
       id="stop1" />
    <stop
       offset=".22"
       stop-color="#fff9c0"
       id="stop2" />
    <stop
       offset=".292"
       stop-color="#fff9c0"
       id="stop3" />
    <stop
       offset=".642"
       stop-color="#c5b105"
       id="stop4" />
    <stop
       offset=".799"
       stop-color="#9f8401"
       id="stop5" />
    <stop
       offset="1"
       stop-color="#fff9c0"
       id="stop6" />
  </linearGradient>
  <linearGradient
     id="b"
     gradientUnits="userSpaceOnUse"
     x1="337.06799"
     x2="337.06799"
     y1="21.961"
     y2="156.375">
    <stop
       offset="0"
       stop-color="#0a1b22"
       id="stop7" />
    <stop
       offset=".316"
       stop-color="#5bf1f5"
       id="stop8" />
    <stop
       offset=".424"
       stop-color="#59ecf2"
       id="stop9" />
    <stop
       offset=".829"
       stop-color="#0a1b21"
       id="stop10" />
    <stop
       offset="1"
       stop-color="#0a1b21"
       id="stop11" />
  </linearGradient>
  <linearGradient
     id="c"
     gradientTransform="matrix(1.00001,0,0,0.99255,4.969,5.426)"
     gradientUnits="userSpaceOnUse"
     x1="332.095"
     x2="332.095"
     y1="16.639"
     y2="151.05099">
    <stop
       offset="0"
       stop-color="#0a1b22"
       id="stop12" />
    <stop
       offset=".316"
       stop-color="#5bf1f5"
       id="stop13" />
    <stop
       offset=".526"
       stop-color="#47bec3"
       id="stop14" />
    <stop
       offset=".854"
       stop-color="#0a1b21"
       id="stop15" />
    <stop
       offset="1"
       stop-color="#0a1b21"
       id="stop16" />
  </linearGradient>
  <g
     id="g19"
     inkscape:label="Logo"
     transform="translate(14.691048,4.7163344)">
    <path
       id="path21"
       style="display:inline;opacity:1;fill:#ffffff"
       d="m 97.445166,-0.92589996 -0.02325,0.002067 c -1.286086,0.0672662 -2.463053,0.62804797 -3.443172,1.45726314 -2.714237,-0.97979779 -5.699954,-1.58870158 -8.941498,-1.21903679 h -0.0021 C 82.032512,-0.38724281 79.207081,0.91140215 76.71689,2.7834032 75.67732,1.0929099 73.909906,-0.03492227 71.90017,-0.09391639 l -0.01344,-0.0015503 H 60.220878 C 57.638705,-0.09508197 55.354449,1.6162819 54.56649,4.1073422 L 52.868934,9.4744114 51.140372,4.2127613 C 50.332404,1.7549998 48.064845,0.07644684 45.507688,0.07609764 H 33.81651 C 30.533966,0.07676778 27.875436,2.8149331 27.874804,6.1407928 v 1.7750705 0.01602 c 0.02281,0.6645633 0.157483,1.3042086 0.377235,1.9042606 l -1.86137,-5.5706726 v -0.00155 c -0.01717,-0.05185 -0.03417,-0.1031515 -0.05271,-0.1545112 h -0.0021 v -0.00207 C 26.101004,3.4602866 25.78074,2.5672084 24.863127,1.494087 24.292587,0.82571775 23.389432,0.21315891 22.267441,-0.22672371 21.144864,-0.66683633 19.795346,-0.90916965 18.453236,-0.53884673 16.027377,0.1296971 15.0382,1.7308568 14.613193,2.4103025 14.117179,3.2010021 13.862422,3.8611209 13.654086,4.4432362 v 0.00207 0.00207 c -0.0064,0.018022 -0.01293,0.034628 -0.01912,0.052709 L 2.7830064,35.718584 c -2.20423847,0.927712 -3.69887289,3.073447 -3.70878636,5.527264 v 0.0021 1.324456 c 6.3175e-4,3.325859 2.65864486,6.063509 5.94118946,6.064179 h 9.7812325 0.0217 c 1.157268,-0.05759 2.222356,-0.533664 3.150169,-1.21852 0.909084,0.641416 1.940193,1.086389 3.056635,1.140489 l 0.02377,0.0021 h 13.599573 l 9.181791,0.03721 h 0.01757 c 1.037047,-0.0386 2.008988,-0.416384 2.882487,-0.968925 0.939149,0.678955 2.016366,1.141033 3.179624,1.183897 l 0.01757,0.0021 h 1.043338 0.01137 c 1.125867,-0.02932 2.178045,-0.453828 3.105728,-1.084163 0.861167,0.534414 1.815316,0.900108 2.831844,0.93947 l 0.01757,0.0021 h 14.978805 0.0021 c 1.783596,-0.0062 3.335615,-0.957254 4.447236,-2.330071 2.161762,1.369325 4.615239,2.449522 7.404137,3.007543 0.06359,0.01295 0.127223,0.02432 0.191201,0.03514 h 0.0021 c 5.741479,0.951715 12.407611,-0.915722 17.33213,-6.306539 3.38721,3.777158 8.45879,6.939385 14.72249,6.597475 4.03745,-0.220594 7.37382,-1.640256 10.12901,-3.495881 1.08244,1.537377 2.69116,2.630671 4.59193,2.662347 h 0.008 24.27945 c 3.07042,-7.27e-4 5.63277,-2.404397 5.91587,-5.501943 l 1.08623,-11.934055 c 0.32052,-3.529242 -2.41855,-6.624554 -5.91638,-6.624863 h -1.10535 l -0.0625,0.0078 c -0.21301,0.02935 -0.40134,0.146986 -0.60926,0.199469 l -0.0134,-1.597821 c 3.15621,-0.114678 5.75249,-2.690398 5.75361,-5.962894 V 6.2110721 c -6.3e-4,-3.3258597 -2.65864,-6.06195793 -5.94119,-6.06262806 h -23.44747 -0.008 c -1.88796,0.0276787 -3.49274,1.10202496 -4.58004,2.62100666 -2.9357,-1.99499517 -6.42356,-3.42292806 -10.42202,-3.40234775 -4.21574,0.0217209 -8.08999,1.43305357 -11.33978,3.70310205 -0.82718,-2.27372059 -2.86909,-3.93301863 -5.345879,-3.99610496 h -0.01189 z M 28.271676,9.8945372 c 0.596902,1.5800488 1.86278,2.7958098 3.448856,3.4178508 v 6.90443 z m 87.400134,3.1465518 h 5.1e-4 c -0.0607,5.53e-4 0.11871,0.02081 0.41341,0.511592 0.29645,0.493724 0.62,1.327595 0.88883,2.386914 0.48515,1.911714 0.78014,4.61226 0.8418,7.5664 l -2.14662,0.01964 h -0.008 l 0.008,1.853101 h 0.008 2.13835 c -0.0604,2.95213 -0.35378,5.65337 -0.83767,7.568467 -0.26841,1.062273 -0.59175,1.900701 -0.88882,2.398283 -0.29706,0.497582 -0.48358,0.520023 -0.41961,0.51986 0.064,-8.1e-5 -0.12128,-0.02001 -0.41806,-0.515726 -0.29678,-0.495717 -0.6202,-1.331701 -0.88883,-2.392599 -0.53725,-2.121795 -0.88594,-5.150211 -0.88676,-8.492433 -9.6e-4,-3.341904 0.34694,-6.370739 0.88314,-8.497601 0.26809,-1.063431 0.59101,-1.902775 0.88831,-2.402417 0.29612,-0.497653 0.4854,-0.52375 0.42375,-0.523478 z m -26.490152,1.404037 h 0.0041 c 0.208749,0.0058 0.128509,-0.0038 0.138491,0.0041 0.01026,0.0082 0.160541,0.183012 0.427878,0.511592 v 0.0021 c 0.461479,0.566123 1.396656,2.533743 2.103213,5.03686 l 0.0021,0.0098 0.0021,0.0078 c 0.508037,1.664381 1.76848,2.900901 3.312431,3.609569 v 5.054946 c 0,0.05091 0.0042,0.07208 0.0057,0.118855 -0.989649,0.534255 -1.87932,1.23775 -2.431356,2.091844 -0.570966,0.883504 -1.510521,2.065768 -2.345574,2.73056 -0.8426,0.669463 -1.276595,0.821478 -1.945601,0.794777 -0.03532,6.68e-4 -0.0352,0.02889 -0.198953,-0.142626 -0.193799,-0.202995 -0.52282,-0.674484 -0.931718,-1.571984 -0.807932,-1.774387 -1.446624,-4.919525 -1.449512,-8.023732 -0.0029,-3.104314 0.621469,-6.290945 1.459331,-8.177727 0.799584,-1.804566 1.297079,-1.998792 1.441243,-2.035 0.172555,-0.01044 0.360727,-0.02267 0.406174,-0.0217 z"
       inkscape:label="Outline" />
    <path
       d="M 97.47,0 A 5.017,5.139 0 0 0 94.143,1.535 C 91.4,0.485 88.385,-0.139 85.129,0.235 81.975,0.548 78.94,1.91 76.393,4.071 A 5.017,5.139 0 0 0 71.874,0.831 H 60.221 A 5.017,5.139 0 0 0 55.449,4.386 L 52.886,12.491 50.261,4.502 A 5.017,5.139 0 0 0 45.507,1.003 H 33.817 A 5.017,5.139 0 0 0 28.801,6.141 V 7.9 a 5.017,5.139 0 0 0 3.845,4.817 v 13.19 L 25.512,4.557 A 5.017,5.139 0 0 0 25.466,4.424 C 25.226,3.763 24.992,3.069 24.16,2.096 23.33,1.123 20.86,-0.243 18.7,0.353 16.541,0.948 15.85,2.18 15.399,2.901 14.947,3.621 14.731,4.185 14.527,4.755 A 5.017,5.139 0 0 0 14.511,4.801 L 3.54,36.36 A 5.017,5.139 0 0 0 0,41.25 v 1.323 a 5.017,5.139 0 0 0 5.016,5.138 h 9.757 a 5.017,5.139 0 0 0 3.187,-1.383 5.017,5.139 0 0 0 3.111,1.306 H 34.65 l 9.164,0.038 a 5.017,5.139 0 0 0 2.94,-1.113 5.017,5.139 0 0 0 3.19,1.329 h 1.015 a 5.017,5.139 0 0 0 3.114,-1.215 5.017,5.139 0 0 0 2.882,1.072 h 14.96 a 5.017,5.139 0 0 0 4.306,-2.531 c 2.2,1.505 4.793,2.64 7.733,3.228 a 5.017,5.139 0 0 0 0.161,0.03 c 5.707,0.946 12.447,-0.914 17.21,-6.674 3.224,3.92 8.34,7.297 14.642,6.953 4.173,-0.228 7.62,-1.716 10.362,-3.716 a 5.017,5.139 0 0 0 4.425,2.88 h 24.272 a 5.017,5.139 0 0 0 4.994,-4.66 l 1.086,-11.933 a 5.017,5.139 0 0 0 -4.995,-5.615 h -1.042 a 5.017,5.139 0 0 0 -1.652,0.537 l -0.03,-3.719 0.413,0.028 a 5.017,5.139 0 0 0 5.348,-5.126 V 6.212 a 5.017,5.139 0 0 0 -5.016,-5.138 h -23.44 A 5.017,5.139 0 0 0 126.28,3.907 C 123.35,1.75 119.76,0.273 115.68,0.294 111.216,0.317 107.116,1.91 103.824,4.529 A 5.017,5.139 0 0 0 98.967,0 Z m 18.195,12.114 a 3.12,12.338 0 0 1 3.124,12.31 l -3.119,0.028 h 3.12 a 3.12,12.338 0 0 1 -3.118,12.34 3.12,12.338 0 0 1 -3.121,-12.326 3.12,12.338 0 0 1 3.114,-12.352 z M 89.209,13.52 c 0.666,0.02 0.759,0.24 1.261,0.857 0.67,0.822 1.55,2.799 2.276,5.371 a 5.017,5.139 0 0 0 3.351,3.39 v 5.544 c 0,0.206 0.024,0.412 0.031,0.618 -1.07,0.45 -2.075,1.276 -2.605,2.096 -0.612,0.947 -1.57,2.175 -2.546,2.952 -0.949,0.754 -1.688,1.06 -2.612,1.012 -0.433,-0.06 -1.016,-0.37 -1.883,-2.273 -0.897,-1.97 -1.531,-5.181 -1.534,-8.406 -0.003,-3.224 0.619,-6.48 1.54,-8.554 0.872,-1.968 1.598,-2.463 2.102,-2.578 0.227,-0.015 0.465,-0.033 0.619,-0.029 z"
       fill="#968a40"
       opacity="0.98"
       id="path16"
       style="display:inline"
       inkscape:label="Shadow" />
    <path
       d="M 368.395,0.363 A 18.962,18.962 0 0 0 355.82,6.031 c -10.365,-3.874 -21.76,-6.18 -34.068,-4.8 -11.921,1.156 -23.391,6.183 -33.018,14.156 A 18.962,18.962 0 0 0 271.654,3.434 h -44.043 a 18.962,18.962 0 0 0 -18.037,13.115 l -9.69,29.908 -9.917,-29.478 A 18.962,18.962 0 0 0 171.997,4.066 h -44.18 a 18.962,18.962 0 0 0 -18.96,18.96 v 6.497 a 18.962,18.962 0 0 0 14.532,17.772 V 95.969 L 96.426,17.178 a 18.962,18.962 0 0 0 -0.174,-0.49 C 95.341,14.246 94.459,11.685 91.316,8.096 88.174,4.506 78.841,-0.534 70.676,1.664 62.518,3.861 59.909,8.406 58.201,11.066 c -1.707,2.66 -2.525,4.739 -3.297,6.842 a 18.962,18.962 0 0 0 -0.06,0.168 L 13.38,134.537 A 18.962,18.962 0 0 0 0,152.58 v 4.885 a 18.962,18.962 0 0 0 18.959,18.959 h 36.875 a 18.962,18.962 0 0 0 12.049,-5.104 18.962,18.962 0 0 0 11.758,4.819 h 51.32 l 34.639,0.142 a 18.962,18.962 0 0 0 11.113,-4.107 18.962,18.962 0 0 0 12.055,4.902 h 3.834 a 18.962,18.962 0 0 0 11.771,-4.484 18.962,18.962 0 0 0 10.895,3.957 h 56.539 a 18.962,18.962 0 0 0 16.277,-9.34 c 8.314,5.556 18.116,9.743 29.227,11.914 a 18.962,18.962 0 0 0 0.609,0.11 c 21.57,3.489 47.044,-3.377 65.049,-24.63 12.184,14.461 31.519,26.927 55.336,25.657 15.773,-0.842 28.8,-6.33 39.164,-13.711 a 18.962,18.962 0 0 0 16.726,10.629 h 91.737 a 18.962,18.962 0 0 0 18.877,-17.2 l 4.103,-44.033 A 18.962,18.962 0 0 0 590.035,95.227 h -3.941 a 18.962,18.962 0 0 0 -6.242,1.978 l -0.112,-13.72 1.557,0.103 A 18.962,18.962 0 0 0 601.514,64.67 V 23.287 A 18.962,18.962 0 0 0 582.554,4.328 H 493.963 A 18.962,18.962 0 0 0 477.285,14.781 C 466.207,6.824 452.641,1.371 437.221,1.449 420.348,1.534 404.854,7.414 392.411,17.076 A 18.962,18.962 0 0 0 374.052,0.363 Z m 68.77,44.703 a 11.789,45.53 0 0 1 11.808,45.428 l -11.79,0.102 h 11.79 a 11.789,45.53 0 0 1 -11.782,45.53 11.789,45.53 0 0 1 -11.796,-45.478 11.789,45.53 0 0 1 11.77,-45.582 z m -99.993,5.186 c 2.517,0.07 2.867,0.886 4.767,3.162 2.534,3.034 5.856,10.328 8.602,19.82 a 18.962,18.962 0 0 0 12.666,12.506 v 20.457 c 0,0.763 0.088,1.522 0.117,2.283 -4.045,1.664 -7.842,4.707 -9.845,7.735 -2.314,3.495 -5.933,8.024 -9.625,10.892 -3.585,2.785 -6.38,3.912 -9.874,3.733 -1.636,-0.219 -3.837,-1.362 -7.115,-8.387 -3.39,-7.268 -5.787,-19.117 -5.799,-31.016 -0.01,-11.898 2.341,-23.91 5.819,-31.564 3.3,-7.262 6.042,-9.091 7.949,-9.516 0.857,-0.054 1.757,-0.121 2.338,-0.105 z"
       fill="url(#a)"
       opacity="0.98"
       transform="matrix(0.26457999,7.3884673e-5,-7.3884673e-5,0.26457999,0,0)"
       id="path17"
       style="display:inline;fill:url(#a)"
       inkscape:label="Shine" />
    <path
       d="m 437.316,20.408 c -30.54,0.153 -55.15,25.313 -55.15,55.854 v 29.935 c 0,19.075 20.526,56.975 55.129,55.13 45.474,-2.427 55.127,-49.3 55.127,-55.13 V 76.262 c 0,-22.588 -22.99,-56.015 -55.106,-55.854 z m -0.488,8.992 c 19.645,0 25.695,27.32 25.695,61.022 0,46.974 -11.504,61.023 -25.695,61.023 -14.191,0 -25.695,-15.116 -25.695,-61.023 0,-33.702 6.93,-61.022 25.695,-61.022 z"
       fill="url(#b)"
       transform="matrix(0.26457999,7.3884673e-5,-7.3884673e-5,0.26457999,0,0)"
       id="path18"
       style="display:inline;fill:url(#b)"
       inkscape:label="O" />
    <path
       d="m 368.395,19.322 c 0.312,6.955 -2.017,10.399 -7.495,9.658 -11.715,-6.449 -23.915,-10.425 -37.191,-8.906 -23.719,2.2 -48.54,31.094 -50.457,67.862 0.56,34.663 9.217,64.062 47.695,71.525 18.528,2.975 36.12,-1.36 50.758,-21.805 l 0.428,-11.64 c 0,0 -1.815,-1.68 -2.844,-0.137 -5.923,8.884 -18.558,24.244 -36.998,22.904 -40.14,-3.952 -40.352,-111.233 0,-117.37 21.953,-1.736 30.434,15.501 36.463,36.19 l 5.299,-0.148 V 19.322 Z M 75.969,19.93 c -1.083,-0.078 -2.171,1.513 -3.262,4.466 L 30.647,141.65 c -2.11,5.64 -6.436,8.394 -11.688,9.938 v 4.846 h 36.877 l 0.103,-5.118 -6.724,-0.232 c -2.372,-0.661 -8.691,-3.58 -6.403,-11.43 l 5.612,-19.81 34.142,-0.54 7.858,24.483 c 1.402,5.373 -2.75,8.167 -3.862,8.12 H 79.64 v 4.243 H 131 l 34.678,0.141 v -4.937 c -7.734,-0.508 -13.906,-2.282 -14.977,-10.254 V 44.604 l 38.069,112.478 h 3.832 L 229.873,43.424 v 97.385 l -6.914,10.478 h -7.69 v 5.272 h 56.538 v -5.006 h -6.01 c -6.058,-1.319 -8.58,-5.81 -8.766,-8.7 V 38.124 c 0.214,-5.134 1.103,-10.006 14.623,-9.955 V 22.37 h -44.04 l -27.39,83.904 -28.228,-83.277 h -44.18 v 6.451 h 7.489 c 5.072,0.037 5.713,3.155 7.04,6.989 v 104.136 c -0.74,5.208 -2.211,10.074 -11.345,11.377 -6.806,-0.055 -9.512,-5.422 -11.979,-11.097 L 78.486,23.285 C 77.65,21.059 76.811,19.99 75.969,19.93 Z m 417.994,3.328 v 5.611 c 8.032,-0.275 13.917,0.889 14.295,8.08 v 101.934 c 1.213,11.765 -6.493,12.88 -14.063,12.715 v 5.584 h 91.737 l 4.103,-43.703 h -3.941 c -4.937,13.71 -7.5,28.763 -28.637,33.863 l -14.527,0.283 c -4.193,-0.664 -7.086,-2.66 -6.871,-7.832 V 94.082 c 17.909,-0.792 18.923,25.234 19.673,31.281 l 5.39,-0.158 -0.575,-70.896 h -5.443 c -0.967,26.175 -9.92,29.653 -19.245,29.912 V 33.344 h 12.291 c 26.748,0.44 27.625,19.845 30.057,30.7 l 4.348,0.288 V 23.258 Z M 65.834,71.273 c 0.231,-0.02 0.461,0.346 0.736,1.143 l 12.338,36.363 c 0.57,1.177 0.586,1.457 -0.543,1.342 H 53.273 c -1.38,0.019 -0.894,-0.67 -0.666,-1.394 l 12.487,-36.27 c 0.278,-0.755 0.509,-1.163 0.74,-1.184 z"
       fill="url(#c)"
       transform="matrix(0.26457999,7.3884673e-5,-7.3884673e-5,0.26457999,0,0)"
       id="path19"
       style="display:inline;fill:url(#c)"
       inkscape:label="AMC_E" />
  </g>
</svg>
