<?xml version="1.0" encoding="UTF-8" standalone="no"?>
<svg
   viewBox="0 0 240.00051 132.00028"
   width="400"
   height="220"
   version="1.1"
   id="svg2"
   sodipodi:docname="amigacdtv-w.svg"
   inkscape:version="1.4 (86a8ad7, 2024-10-11)"
   xmlns:inkscape="http://www.inkscape.org/namespaces/inkscape"
   xmlns:sodipodi="http://sodipodi.sourceforge.net/DTD/sodipodi-0.dtd"
   xmlns="http://www.w3.org/2000/svg"
   xmlns:svg="http://www.w3.org/2000/svg">
  <defs
     id="defs2" />
  <sodipodi:namedview
     id="namedview2"
     pagecolor="#ffffff"
     bordercolor="#000000"
     borderopacity="0.25"
     inkscape:showpageshadow="2"
     inkscape:pageopacity="0.0"
     inkscape:pagecheckerboard="true"
     inkscape:deskcolor="#d1d1d1"
     inkscape:zoom="4.1564271"
     inkscape:cx="125.10745"
     inkscape:cy="79.996591"
     inkscape:window-width="3840"
     inkscape:window-height="2066"
     inkscape:window-x="-11"
     inkscape:window-y="-11"
     inkscape:window-maximized="1"
     inkscape:current-layer="svg2" />
  <g
     id="g2"
     transform="translate(27.36426,19.377672)"
     style="fill:#ffffff">
    <path
       d="m 19.35,2.346 c 4.577,-1.765 9.548,-2.173 14.419,-2.333 1.004,-0.064 1.993,0.133 2.994,0.155 2.85,0.273 5.69,0.702 8.477,1.358 4.707,1.07 9.18,2.955 13.43,5.176 a 76.82,75.096 0 0 1 6.939,4.113 c 0.776,0.544 1.52,1.134 2.31,1.658 3.087,2.25 5.925,4.811 8.602,7.51 0.225,0.21 0.424,0.537 0.785,0.473 2.747,-0.071 5.51,0.297 8.128,1.114 2.416,0.785 4.77,2.151 6.13,4.317 1.49,2.303 1.708,5.116 1.773,7.77 0.002,4.66 0.002,9.32 0,13.98 0.006,0.527 -0.048,1.063 0.09,1.58 1.564,6.251 2.032,12.846 0.692,19.179 -1.08,5.43 -3.581,10.624 -7.378,14.745 -4.02,4.424 -9.485,7.504 -15.335,8.949 -5.144,1.303 -10.548,1.437 -15.794,0.733 C 48.873,91.933 42.382,89.667 36.39,86.561 26.685,81.476 18.283,74.109 11.848,65.39 6.4,57.966 2.38,49.444 0.756,40.414 0.402,38.389 0.138,36.344 0.084,34.287 A 20.303,19.848 0 0 1 0.081,30.712 C 0.315,24.13 2.326,17.512 6.346,12.178 7.45,10.968 8.422,9.642 9.64,8.535 a 30.76,30.07 0 0 1 9.71,-6.189 z m 9.723,-1.611 c -5.935,0.67 -11.76,3.013 -16.133,7.046 -0.76,0.529 -1.287,1.287 -1.92,1.94 -1.827,2.02 -3.27,4.348 -4.402,6.802 -1.28,2.966 -2.13,6.116 -2.449,9.32 -0.188,0.81 -0.07,1.65 -0.209,2.468 -0.225,5.715 0.76,11.447 2.589,16.875 2.08,6.175 5.209,11.993 9.046,17.295 5.908,8.08 13.442,15.043 22.165,20.158 5.526,3.23 11.551,5.693 17.862,6.995 4.481,0.913 9.115,1.2 13.662,0.637 5.398,-0.66 10.675,-2.701 14.845,-6.152 3.483,-2.835 6.141,-6.589 7.765,-10.718 1.727,-4.317 2.322,-9 2.234,-13.613 -0.148,-2.268 -0.299,-4.55 -0.79,-6.776 -0.012,0.933 -0.084,1.86 -0.169,2.787 -0.283,2.688 -1.028,5.5 -3.01,7.488 -1.477,1.57 -3.456,2.656 -5.578,3.134 -3.257,0.764 -6.628,0.529 -9.948,0.569 C 69.66,66.987 64.688,66.991 59.714,66.988 59.7,51.476 59.704,35.966 59.711,20.454 c 5.305,0.002 10.61,-0.001 15.915,0.002 A 74.308,72.641 0 0 0 62.968,10.039 C 54.898,4.834 45.607,1.152 35.895,0.526 33.619,0.409 31.335,0.458 29.073,0.735 Z m 44.124,28.722 c -0.004,9.596 0,19.193 -0.002,28.79 1.215,0.015 2.43,0.014 3.646,0.003 0.854,-0.066 1.83,-0.171 2.402,-0.873 0.709,-0.884 0.618,-2.07 0.635,-3.127 0.003,-7.066 0.01,-14.134 -0.004,-21.2 0.02,-1 -0.076,-2.059 -0.712,-2.886 -0.615,-0.472 -1.39,-0.68 -2.161,-0.698 -1.268,-0.025 -2.536,0 -3.804,-0.01 z"
       style="fill:#ffffff;stroke-width:0.843321"
       id="path1" />
    <path
       d="m 33.916,19.739 c 1.718,-0.102 3.45,-0.3 5.168,-0.08 a 22.99,22.99 0 0 1 6.09,1.017 c 2.59,0.782 5.085,2.16 6.733,4.308 1.391,1.827 1.888,4.138 1.977,6.372 0.008,2.088 0.006,4.177 0,6.265 -4.356,0.013 -8.714,-0.013 -13.073,0.013 -0.12,-1.524 -0.02,-3.061 -0.05,-4.589 -0.036,-0.96 0.09,-1.997 -0.416,-2.865 -0.418,-0.857 -1.426,-1.262 -2.347,-1.316 -1.03,-0.064 -2.16,-0.02 -3.019,0.61 -0.787,0.571 -1.11,1.577 -1.069,2.507 0.002,7.987 -0.004,15.975 0.002,23.963 -0.02,0.71 0.246,1.398 0.692,1.954 1.02,0.831 2.424,0.923 3.689,0.767 0.755,-0.13 1.575,-0.441 1.967,-1.13 0.6,-0.926 0.461,-2.074 0.5,-3.119 -0.01,-1.543 0.015,-3.086 -0.014,-4.627 4.434,0.01 8.868,0.004 13.3,0.002 -0.064,3.182 0.23,6.412 -0.485,9.545 a 9.536,9.536 0 0 1 -4.299,5.924 c -3.142,1.96 -6.974,2.459 -10.627,2.552 -1.097,0.135 -2.196,-0.043 -3.295,-0.046 -3.456,-0.2 -7.07,-0.704 -10.004,-2.64 a 9.93,9.93 0 0 1 -3.805,-4.445 c -0.816,-1.823 -0.986,-3.843 -0.97,-5.81 0.002,-6.452 0,-12.904 0.002,-19.357 0.017,-2.027 -0.103,-4.075 0.284,-6.076 0.323,-2.785 1.916,-5.406 4.31,-6.958 2.568,-1.742 5.695,-2.428 8.76,-2.741 z m 60.996,0.71 c 11.206,0.019 22.412,-0.001 33.618,0.01 0.002,2.964 0.002,5.928 0,8.893 -3.19,0.006 -6.383,0.006 -9.574,-0.002 -0.171,0.042 -0.569,-0.096 -0.563,0.177 -0.005,12.491 0.01,24.982 -0.004,37.471 -4.468,-0.009 -8.936,0.004 -13.403,-0.005 -0.026,-12.538 0.019,-25.076 -0.024,-37.614 -3.359,-0.055 -6.72,-0.007 -10.078,-0.025 -0.056,-2.042 -0.006,-4.087 -0.022,-6.13 0.03,-0.924 -0.058,-1.852 0.05,-2.775 z m 35.038,0.01 c 4.37,-0.008 8.74,0.001 13.11,-0.004 1.487,10.647 2.98,21.294 4.465,31.94 0.17,1.184 0.3,2.376 0.518,3.552 1.736,-11.82 3.34,-23.665 5.062,-35.49 4.434,10e-4 8.868,-0.008 13.304,0.004 -0.709,3.18 -1.274,6.39 -1.927,9.58 -2.468,12.315 -4.866,24.645 -7.358,36.957 -6.089,-0.01 -12.178,0.012 -18.268,-0.011 -2.844,-14.982 -5.764,-29.95 -8.637,-44.926 -0.096,-0.534 -0.236,-1.06 -0.27,-1.603 z m 24.922,54.743 c 1.394,-0.774 3.31,-0.698 4.511,0.397 0.455,0.463 0.735,1.051 0.942,1.655 -0.515,0.128 -1.026,0.274 -1.546,0.378 -0.15,-0.476 -0.341,-1.02 -0.84,-1.238 -0.554,-0.32 -1.215,-0.28 -1.818,-0.159 -0.949,0.434 -1.475,1.454 -1.484,2.45 -0.042,0.937 0.11,2.009 0.879,2.658 0.55,0.504 1.38,0.605 2.09,0.425 0.703,-0.243 1.14,-0.888 1.374,-1.55 0.504,0.196 1,0.41 1.506,0.601 -0.08,0.134 -0.155,0.27 -0.228,0.407 -0.517,1.208 -1.786,2.05 -3.12,2.095 -1.095,0.09 -2.236,-0.269 -3.016,-1.036 -0.89,-0.91 -1.266,-2.206 -1.212,-3.445 -0.031,-1.423 0.69,-2.9 1.962,-3.638 z m -42.82,-0.318 a 95.313,95.313 0 0 1 1.55,0.004 c 0.01,2.749 0.005,5.498 0.003,8.245 -0.518,0.01 -1.035,0.008 -1.553,0.004 -0.007,-2.75 -0.005,-5.502 0,-8.253 z m 3.473,0.002 c 0.451,-0.002 0.902,-0.002 1.355,-0.015 1.308,1.881 2.46,3.865 3.763,5.748 a 6.547,6.547 0 0 0 -0.044,-1.149 c -0.079,-1.235 -0.013,-2.477 -0.127,-3.71 -0.017,-0.297 0.028,-0.592 0.065,-0.886 0.47,0.015 0.943,0.015 1.416,-0.005 0.104,0.397 0.065,0.808 0.069,1.214 0,2.353 -0.005,4.706 0.002,7.058 -0.46,-0.025 -0.944,0.056 -1.385,-0.042 -1.261,-1.856 -2.378,-3.806 -3.663,-5.646 0.054,1.893 0.088,3.787 0.099,5.681 -0.519,0.008 -1.035,0.008 -1.553,0 -0.004,-2.749 -0.01,-5.499 0.004,-8.248 z m 7.709,0.017 c 2.077,-0.002 4.156,-0.017 6.236,0.005 0,0.475 -0.002,0.95 -0.008,1.425 -0.777,0.004 -1.552,0.003 -2.326,0.007 -0.004,2.264 0.004,4.527 -0.004,6.792 -0.52,0.01 -1.04,0.01 -1.558,0.004 -0.015,-2.265 0,-4.529 -0.008,-6.793 -0.774,-0.017 -1.548,0.005 -2.322,-0.015 -0.01,-0.476 -0.012,-0.951 -0.01,-1.425 z m 7.368,-0.015 c 1.987,-0.004 3.976,-0.013 5.964,0.003 0.004,0.474 0.004,0.953 -0.008,1.43 -1.47,-0.007 -2.937,0.002 -4.406,-0.004 -0.002,0.633 0,1.267 -0.004,1.9 1.356,0.026 2.715,-0.007 4.07,0.02 0,0.436 -10e-4,0.872 -0.01,1.308 -1.353,0.01 -2.705,-0.003 -4.056,0.008 -0.002,0.72 0,1.442 -0.004,2.164 1.574,0.034 3.148,-0.01 4.722,0.038 0,0.458 -0.002,0.919 -0.004,1.378 a 710.06,710.06 0 0 1 -6.262,0.002 c -0.014,-2.75 -0.01,-5.498 -0.003,-8.247 z m 7.438,0.004 c 1.08,-0.014 2.161,-0.004 3.245,-0.013 0.825,-0.012 1.699,0.217 2.299,0.797 0.82,0.881 0.972,2.354 0.222,3.32 -0.293,0.38 -0.731,0.609 -1.146,0.833 0.579,1.115 1.274,2.171 1.81,3.308 -0.579,0.004 -1.155,-0.005 -1.733,0.01 -0.629,-0.976 -1.094,-2.04 -1.688,-3.034 a 11.363,11.363 0 0 0 -1.378,-0.042 c -0.011,1.02 -0.002,2.04 -0.004,3.059 -0.544,0.012 -1.086,0.012 -1.629,0.002 10e-4,-2.747 0.004,-5.494 10e-4,-8.24 z m 1.624,1.37 c -0.002,0.855 0.01,1.71 -0.01,2.564 0.737,0.052 1.475,-0.057 2.204,-0.155 0.867,-0.25 1.149,-1.49 0.443,-2.055 -0.734,-0.596 -1.767,-0.32 -2.638,-0.353 z m 8.098,-1.387 c 0.553,0.01 1.108,0.016 1.663,-0.006 0.223,0.325 0.332,0.706 0.457,1.074 0.81,2.408 1.693,4.79 2.495,7.2 a 59.415,59.415 0 0 0 -1.635,0.005 c -0.239,-0.513 -0.33,-1.074 -0.53,-1.599 -1.045,-0.003 -2.089,0 -3.133,-0.003 -0.193,0.522 -0.336,1.06 -0.501,1.591 -0.57,0.004 -1.138,0.006 -1.704,-0.009 1.002,-2.736 1.876,-5.518 2.888,-8.253 z m -0.258,5.28 a 189.72,189.72 0 0 1 2.276,0.001 c -0.354,-1.212 -0.722,-2.42 -1.106,-3.623 -0.495,1.165 -0.791,2.413 -1.17,3.622 z m 13.429,-5.257 c 2.048,0 4.096,0.009 6.144,-0.008 0.077,0.481 0.05,0.968 -0.006,1.451 -0.76,-0.013 -1.52,-0.006 -2.279,-0.003 0.02,2.264 -0.004,4.526 0.013,6.792 -0.54,0.013 -1.08,0.012 -1.619,0.006 -0.006,-2.267 0.002,-4.533 -0.004,-6.8 -0.75,-0.003 -1.5,-0.003 -2.247,0 -0.004,-0.48 -0.004,-0.959 -0.003,-1.438 z m 7.395,-0.014 c 0.515,-0.001 1.033,-0.001 1.551,0.002 -0.002,2.749 0.004,5.498 -0.004,8.247 -0.517,0.009 -1.035,0.01 -1.553,0.003 -0.003,-2.751 -0.012,-5.501 0.005,-8.252 z m 2.636,0 c 0.528,-0.001 1.058,0.002 1.588,-0.007 0.7,2.12 1.195,4.311 1.925,6.421 0.485,-1.72 0.973,-3.439 1.46,-5.157 0.138,-0.427 0.19,-0.886 0.427,-1.274 0.519,0.02 1.037,0.015 1.56,0.024 -0.818,2.747 -1.607,5.502 -2.42,8.251 -0.702,-0.009 -1.403,-0.003 -2.103,-0.004 -0.8,-2.753 -1.71,-5.482 -2.437,-8.254 z m 8.038,-0.005 c 1.975,0.015 3.953,-0.005 5.928,0.008 0.005,0.452 0.005,0.902 0.02,1.354 -0.398,0.126 -0.821,0.068 -1.23,0.075 -1.075,-0.002 -2.15,-0.002 -3.224,0.003 0,0.626 0.006,1.253 -0.006,1.88 1.35,0.063 2.702,0.009 4.054,0.029 0.006,0.444 0.031,0.89 -0.022,1.334 -1.34,-0.03 -2.678,-0.004 -4.018,-0.015 -0.002,0.738 -0.046,1.478 0.034,2.215 1.553,-0.053 3.107,0.01 4.662,-0.03 0.026,0.468 0.025,0.938 0.01,1.409 -2.078,-0.006 -4.157,0.003 -6.234,-0.004 0.035,-2.754 -0.025,-5.505 0.026,-8.258 z m -66.948,9.506 c 0.769,-0.011 1.535,-0.01 2.305,0.003 0.531,1.998 1.028,4.01 1.633,5.988 0.55,-1.994 1.076,-3.996 1.604,-5.997 0.764,0.003 1.527,-0.005 2.293,0.01 0.002,2.748 0,5.499 0,8.247 -0.518,0 -1.034,0.002 -1.55,0.003 -0.01,-2.182 0.077,-4.36 0.13,-6.54 -0.65,2.161 -1.215,4.347 -1.776,6.533 -0.48,0.009 -0.96,0.009 -1.44,0 -0.578,-2.167 -1.147,-4.335 -1.758,-6.492 -0.115,1.054 0.095,2.105 0.033,3.16 0.077,1.111 0.055,2.224 0.084,3.338 -0.519,0 -1.038,0 -1.556,-0.003 -0.011,-2.75 -0.011,-5.501 -0.002,-8.25 z m 10.1,10e-4 c 0.536,-0.007 1.068,-0.009 1.603,-0.009 -0.002,1.692 -0.01,3.384 -0.002,5.076 0.03,0.476 -0.004,1.032 0.391,1.384 0.52,0.516 1.331,0.536 2.016,0.41 0.65,-0.11 1.209,-0.691 1.166,-1.355 -0.004,-1.834 -0.01,-3.671 -0.004,-5.506 0.55,-0.009 1.098,-0.009 1.647,-10e-4 a 798.957,798.957 0 0 0 -0.002,5.363 c 0.006,0.76 -0.205,1.567 -0.772,2.116 -0.715,0.724 -1.785,0.99 -2.787,0.965 -0.976,-0.004 -2.042,-0.3 -2.646,-1.102 -0.518,-0.523 -0.61,-1.289 -0.619,-1.983 0.009,-1.786 -0.005,-3.572 0.009,-5.358 z m 9.228,-0.005 c 0.514,-0.006 1.03,-0.003 1.544,0.009 0.004,2.27 0.008,4.54 0,6.813 1.103,0.003 2.206,0.003 3.31,10e-4 0.008,0.477 0.008,0.954 0,1.433 -1.624,0.006 -3.247,-0.01 -4.87,0.01 0.033,-2.755 10e-4,-5.511 0.016,-8.266 z m 4.815,0.004 c 2.062,-0.002 4.125,-0.002 6.187,0 0.002,0.472 0.002,0.944 0.002,1.418 -0.764,0.017 -1.526,-0.01 -2.288,0.013 0,2.077 -0.007,4.154 0.01,6.233 -0.005,0.2 -0.026,0.4 -0.065,0.598 -0.519,-0.014 -1.036,-0.01 -1.554,-0.01 -0.018,-2.277 0.013,-4.553 -0.015,-6.83 -0.755,-0.042 -1.51,0.016 -2.264,-0.019 -0.03,-0.468 -0.007,-0.936 -0.013,-1.404 z m 7.805,10e-4 c 0.531,-0.007 1.063,-0.009 1.594,-0.004 -0.004,2.753 0.049,5.512 -0.028,8.264 -0.522,-0.01 -1.044,-0.01 -1.564,-0.01 -0.01,-2.75 -0.004,-5.5 -0.002,-8.25 z m 3.888,-0.005 c 0.762,0 1.523,-0.004 2.285,0.005 0.48,1.985 1.102,3.936 1.546,5.93 0.228,-0.1 0.198,-0.381 0.278,-0.572 0.459,-1.794 0.948,-3.582 1.429,-5.37 0.76,0.013 1.521,0 2.284,0.012 -0.002,2.749 0,5.498 0,8.247 -0.513,0.006 -1.025,0.006 -1.534,0.01 -0.029,-2.186 0.055,-4.371 0.097,-6.556 -0.614,2.175 -1.223,4.35 -1.764,6.543 -0.478,0.011 -0.955,0.013 -1.432,0.004 -0.573,-2.163 -1.2,-4.316 -1.725,-6.493 -0.154,2.165 0.091,4.326 0.086,6.493 -0.52,0.004 -1.04,0.004 -1.559,0.004 0.01,-2.752 0,-5.504 0.01,-8.258 z m 10.08,0.001 c 1.982,-0.005 3.963,-0.001 5.945,-0.001 0.002,0.46 0.006,0.923 0.028,1.384 -1.466,-0.004 -2.935,-0.028 -4.4,0.018 -0.039,0.633 -0.025,1.267 -0.018,1.904 1.356,0.04 2.719,-0.059 4.073,0.05 -0.01,0.414 -0.011,0.828 -0.006,1.245 -1.356,0.01 -2.71,-0.009 -4.064,0.011 -0.017,0.73 -0.008,1.46 -0.01,2.191 1.57,0.004 3.14,-0.004 4.71,0.002 0.006,0.485 0.006,0.968 0.004,1.452 -2.086,-0.002 -4.172,0.002 -6.259,0 -0.01,-2.752 -0.006,-5.504 -0.003,-8.256 z m 7.743,0.01 c 1.08,-0.015 2.16,0 3.24,-0.011 0.99,-0.011 2.013,0.293 2.731,0.982 0.964,0.997 1.285,2.448 1.164,3.783 -0.125,0.986 -0.476,2.016 -1.287,2.665 -0.801,0.68 -1.911,0.827 -2.933,0.83 -0.973,-0.02 -1.947,0.026 -2.919,-0.03 0.002,-2.739 0.007,-5.48 0.004,-8.22 z m 1.64,1.41 c -0.003,1.791 0.003,3.584 -0.001,5.377 0.93,-0.007 1.927,0.134 2.797,-0.262 0.749,-0.34 0.983,-1.21 1.015,-1.949 0.06,-0.92 -0.041,-1.973 -0.763,-2.645 -0.861,-0.692 -2.02,-0.513 -3.047,-0.522 z m 7.33,-1.417 a 42.95,42.95 0 0 1 1.605,0.003 c -0.006,2.747 -0.002,5.493 -0.002,8.24 -0.507,0.011 -1.015,0.007 -1.52,0.022 a 1.513,1.513 0 0 1 -0.087,-0.44 c 0.003,-2.608 0.008,-5.215 0.004,-7.825 z m 5.951,-0.006 c 0.588,0.003 1.175,0 1.766,0.002 0.947,2.756 1.917,5.505 2.872,8.258 a 69.05,69.05 0 0 0 -1.66,0.004 c -0.206,-0.54 -0.334,-1.101 -0.536,-1.639 -1.035,0.004 -2.068,-0.02 -3.1,0.018 -0.19,0.537 -0.347,1.084 -0.537,1.621 -0.565,-0.01 -1.128,-0.004 -1.691,-0.015 0.987,-2.74 1.902,-5.508 2.886,-8.25 z m -0.24,5.258 c 0.754,-0.002 1.508,0.005 2.264,-0.003 -0.36,-1.22 -0.714,-2.442 -1.122,-3.645 -0.447,1.19 -0.78,2.428 -1.142,3.648 z"
       style="fill:#ffffff;stroke-width:0.843321"
       id="path2" />
  </g>
</svg>
