<svg xmlns="http://www.w3.org/2000/svg" width="2670" height="707" viewBox="0 0 2670 707" version="1.1"><path d="M 641.500 86.161 C 633.234 87.710, 601.083 95.777, 592.236 98.521 C 580.399 102.193, 575.793 106.330, 563.281 124.531 C 548.179 146.500, 541.025 155.009, 530.621 163.377 C 515.716 175.365, 512.777 179.430, 510.838 190.741 C 507.882 207.977, 517.897 223.197, 534.663 226.949 L 540.496 228.254 530.998 230.974 C 508.203 237.502, 490.207 247.247, 462 268.338 C 432.478 290.413, 403.622 324.155, 386.175 357 C 372.187 383.336, 361.979 418.533, 362.016 440.301 C 362.043 456.318, 367.960 479.008, 374.896 489.692 C 393.033 517.630, 417.855 532.183, 450 533.725 C 466.731 534.527, 485.748 529.340, 502.809 519.320 C 512.486 513.637, 530.278 500.286, 541.757 490.094 C 547.528 484.970, 551.171 482.368, 551.430 483.187 C 551.658 483.909, 552.572 486.805, 553.460 489.621 C 557.982 503.958, 571.356 519.289, 584.359 525.041 C 592.493 528.639, 606.844 531.235, 615 530.583 C 624.938 529.790, 643.273 524.897, 651.164 520.932 C 659.220 516.885, 671.435 508.335, 680.805 500.184 L 688.111 493.830 692.805 498.202 C 699.385 504.329, 709.737 511.529, 715.567 514.033 C 725.722 518.395, 740.745 521.384, 752.500 521.382 C 761.994 521.380, 765.413 520.873, 777.469 517.683 C 794.060 513.292, 805.766 507.848, 818.944 498.397 C 837.644 484.985, 851.594 468.240, 854.956 455.171 C 856.644 448.610, 856.677 447.492, 855.342 442.378 C 851.829 428.925, 841.936 422.057, 826 422.006 C 812.474 421.963, 809.010 418.549, 809.004 405.252 C 809 396.682, 814.220 349.368, 816.166 340.341 L 817.277 335.182 826.461 333.060 C 836.990 330.627, 840.863 328.781, 850.171 321.761 C 856.292 317.143, 863.387 308.824, 868.743 299.985 C 871.342 295.695, 875.650 281.136, 877.116 271.688 C 878.018 265.875, 877.902 263.317, 876.412 256.218 C 873.536 242.514, 865.793 233.187, 853.950 229.162 L 849.042 227.493 857.603 206.152 C 866.195 184.731, 871.015 168.871, 870.983 162.122 C 870.953 155.719, 867.294 144.016, 863.568 138.405 C 858.028 130.060, 849.717 124.575, 838.812 122.064 C 827.141 119.376, 821.268 119.461, 807.754 122.512 C 784.051 127.862, 764.425 140.012, 752.089 156.972 C 743.132 169.288, 732.865 190.696, 722.959 217.717 C 719.700 226.607, 719.408 227.023, 714.755 229.437 C 705.837 234.064, 694.820 243.235, 688.292 251.464 C 681.689 259.789, 675.043 271.698, 674.942 275.384 C 674.905 276.741, 674.038 275.637, 672.524 272.308 C 664.784 255.280, 646.772 239.670, 626.506 232.427 C 615.931 228.647, 594.428 224.007, 587.385 223.985 C 581.284 223.966, 578.562 222.572, 582.655 221.563 C 588.224 220.190, 604.561 211.832, 613.957 205.550 C 643.171 186.015, 672.025 156.603, 680.450 137.769 C 681.747 134.871, 683.608 129.012, 684.587 124.750 C 686.297 117.300, 686.296 116.702, 684.553 109.313 C 682.514 100.663, 679.214 95.387, 673.052 90.923 C 666.019 85.828, 653.420 83.927, 641.500 86.161 M 216.371 110.043 C 194.458 111.518, 163.753 118.005, 152.913 123.450 C 140.944 129.461, 129.152 140.925, 118.539 156.867 C 111.028 168.151, 107.773 175.514, 105.108 187.256 C 101.885 201.454, 101.805 203.423, 104.065 213.050 C 108.077 230.138, 119.484 240.771, 139 245.612 C 157.085 250.099, 165.489 249.396, 201.024 240.424 C 210.662 237.991, 218.902 236, 219.335 236 C 219.768 236, 219.867 237.912, 219.555 240.250 C 219.243 242.588, 217.630 254.850, 215.971 267.500 C 214.312 280.150, 211.577 298.825, 209.893 309 C 207.040 326.245, 196.200 381.106, 195.505 381.820 C 195.333 381.996, 193.100 380.048, 190.543 377.490 C 182.136 369.083, 171.467 366.403, 158.506 369.444 C 150.277 371.374, 143.636 374.910, 132 383.557 C 118.300 393.737, 107.514 406.259, 98.528 422.417 C 91.380 435.269, 84.873 455.924, 81.488 476.500 C 77.056 503.446, 82.187 535.635, 95.036 561.500 C 103.972 579.489, 118.072 597.341, 130.746 606.714 C 139.898 613.482, 144.493 615.538, 156.239 618.119 C 166.952 620.472, 172.512 620.176, 187.702 616.443 C 211.103 610.693, 231.299 595.750, 250.388 570.063 C 277.947 532.979, 315.028 449.848, 342.397 363.793 C 363.858 296.315, 385.369 210.597, 390.528 172 C 391.842 162.167, 391.804 160.957, 389.931 152.958 C 387.499 142.570, 382.583 135.658, 372.523 128.479 C 358.606 118.548, 330.697 112.380, 289 110.020 C 269.291 108.904, 233.121 108.916, 216.371 110.043 M 635.306 111.499 C 618.606 115.365, 601.815 120.024, 596.777 122.191 C 592.456 124.050, 591.111 125.608, 580.953 140.526 C 566.334 161.992, 557.442 172.446, 546.500 181.032 C 535.117 189.962, 534 191.310, 534 196.111 C 534 204.073, 540.862 206.343, 556.944 203.703 C 580.378 199.857, 604.318 186.557, 628.529 163.936 C 651.370 142.595, 661.907 127.730, 661.976 116.750 C 662.029 108.468, 654.665 107.018, 635.306 111.499 M 2470.500 115.496 C 2452.910 119.597, 2445.678 123.082, 2429.013 135.490 C 2402.678 155.098, 2370.792 198.530, 2345.102 249.785 C 2336.503 266.941, 2325.287 294.095, 2318.575 314.005 L 2312.220 332.859 2310.929 328.245 C 2310.218 325.708, 2307.652 321.195, 2305.225 318.216 C 2300.876 312.876, 2300.829 312.737, 2301.907 308.457 C 2304.351 298.749, 2302.001 280.115, 2297.037 269.841 C 2293.181 261.860, 2284.891 252.289, 2276.122 245.695 C 2262.107 235.156, 2251.938 230.888, 2230.659 226.616 C 2206.326 221.730, 2191.025 222.266, 2164.537 228.931 C 2139.602 235.205, 2121.497 243.973, 2096.500 261.881 C 2071.488 279.800, 2052.439 298.214, 2035.347 321 C 2012.323 351.692, 1998.652 380.382, 1991.490 413.037 C 1987.794 429.890, 1988.397 428.490, 1985.617 426.669 C 1982.103 424.366, 1971.971 422, 1965.626 422 C 1962.554 422, 1958.273 421.293, 1956.112 420.428 C 1947.850 417.122, 1947.594 409.236, 1954.088 358.011 C 1956.958 335.375, 1956.928 335.451, 1963.262 333.962 C 1981.501 329.672, 1992.571 322.831, 2002.362 309.799 C 2009.805 299.893, 2012.515 294.127, 2015.480 281.893 C 2018.400 269.839, 2018.609 263.767, 2016.430 254.312 C 2013.672 242.343, 2005.590 233.124, 1994.562 229.366 C 1992.053 228.512, 1990 227.418, 1990 226.936 C 1990 226.455, 1993.870 216.484, 1998.599 204.780 C 2003.849 191.790, 2008.121 179.434, 2009.567 173.062 L 2011.935 162.623 2009.982 153.674 C 2006.080 135.798, 1996.697 126.209, 1979.055 122.067 C 1968.018 119.475, 1960.807 119.467, 1950 122.031 C 1931.635 126.389, 1922.010 130.764, 1908.642 140.830 C 1891.740 153.558, 1880.240 172.878, 1864.495 215 L 1860.196 226.500 1854.605 229.686 C 1847.685 233.629, 1838.763 240.498, 1833.571 245.879 L 1829.642 249.950 1826.850 245.225 C 1825.314 242.626, 1823.481 239.818, 1822.778 238.985 C 1819.843 235.505, 1812.769 230.800, 1808.072 229.203 L 1803.042 227.493 1811.603 206.152 C 1820.195 184.731, 1825.015 168.871, 1824.983 162.122 C 1824.953 155.719, 1821.294 144.016, 1817.568 138.405 C 1812.028 130.060, 1803.717 124.575, 1792.812 122.064 C 1781.141 119.376, 1775.268 119.461, 1761.754 122.512 C 1738.051 127.862, 1718.425 140.012, 1706.089 156.972 C 1697.132 169.288, 1686.865 190.696, 1676.959 217.717 C 1673.700 226.607, 1673.408 227.023, 1668.755 229.437 C 1649.641 239.354, 1631.835 260.930, 1628.051 278.759 C 1627.323 282.192, 1626.400 285, 1626.001 285 C 1625.602 285, 1622.957 281.883, 1620.124 278.073 C 1617.291 274.264, 1612.845 269.273, 1610.243 266.982 C 1604.126 261.598, 1591.265 253, 1589.328 253 C 1588.137 253, 1587.960 252.198, 1588.476 249.141 C 1589.352 243.956, 1586.571 233.541, 1583.021 228.714 C 1575.394 218.343, 1560.053 213.191, 1534 212.252 C 1515.805 211.596, 1503.324 213.012, 1483.709 217.960 C 1454.469 225.335, 1433.294 236.104, 1405.319 257.827 C 1376.075 280.536, 1349.057 316.250, 1336.582 348.686 C 1332.717 358.736, 1327.709 378.570, 1325.951 390.793 L 1324.757 399.086 1320.629 398.483 C 1315.571 397.744, 1306.428 399.783, 1291.086 405.071 C 1284.808 407.235, 1279.503 408.836, 1279.295 408.629 C 1279.088 408.422, 1285.397 398.408, 1293.315 386.376 C 1321.157 344.066, 1342.781 308.314, 1349.664 293.211 C 1351.548 289.075, 1353.970 281.916, 1355.047 277.300 C 1356.900 269.349, 1356.919 268.531, 1355.399 261.704 C 1352.881 250.395, 1345.819 241.080, 1334.918 234.692 C 1329.455 231.491, 1313.112 227.430, 1300.151 226.054 C 1286.885 224.645, 1223.761 221.884, 1200 221.673 C 1182.397 221.517, 1179.576 221.733, 1171 223.894 C 1165.775 225.211, 1159.404 227.335, 1156.843 228.614 C 1151.828 231.118, 1140.601 239.251, 1135.117 244.353 C 1131.371 247.838, 1118.529 264.823, 1115.681 270.058 L 1113.863 273.401 1111.090 268.331 C 1104.556 256.383, 1093.826 245.027, 1081.039 236.526 C 1072.052 230.551, 1064.428 227.496, 1050.627 224.337 C 1040.596 222.042, 1038.121 221.846, 1025.500 222.349 C 1010.711 222.939, 994.877 226.004, 978.427 231.462 C 949.938 240.914, 913.727 266.310, 894.419 290.381 C 876.696 312.475, 868.777 327.333, 863.444 348.500 C 858.450 368.321, 858.025 377.438, 861.436 391.616 C 863.260 399.195, 865.286 404.727, 867.805 409.001 C 872.483 416.938, 882.261 427.559, 889.447 432.508 C 892.501 434.611, 895 436.633, 895 437 C 895 437.367, 892.604 439.318, 889.676 441.334 C 878.573 448.982, 865.008 464.661, 858.871 476.943 C 855.056 484.577, 851.670 498.996, 851.695 507.500 C 851.708 511.862, 852.722 518.268, 854.387 524.500 C 858.429 539.634, 866.029 549.834, 880.682 559.784 C 888.114 564.831, 893.812 567.157, 906.826 570.456 C 931.544 576.722, 954.780 576.147, 985.794 568.503 C 1012.085 562.024, 1024.941 555.766, 1049.500 537.494 C 1068.521 523.343, 1080.683 511.828, 1092.056 497.207 L 1094.613 493.921 1098.384 499.396 C 1109.542 515.598, 1128.361 526.616, 1157.500 534.009 C 1194.238 543.329, 1230.046 545.673, 1255.854 540.448 C 1279.666 535.626, 1292.841 530.006, 1309.213 517.684 C 1323.278 507.098, 1336.608 489.960, 1342.025 475.500 L 1343.149 472.500 1345.315 475.500 C 1352.757 485.809, 1369.512 499.224, 1384.091 506.546 C 1411.126 520.123, 1452.664 528.620, 1478.989 525.956 C 1510.390 522.779, 1543.522 510.905, 1569.500 493.518 C 1591.954 478.489, 1602.925 468.179, 1614.372 451.349 L 1620.597 442.197 1623.324 453.849 C 1626.669 468.139, 1629.627 475.509, 1635.421 483.984 C 1642.361 494.136, 1646.799 498.857, 1655.473 505.316 C 1665.321 512.648, 1671.241 515.350, 1684.909 518.749 C 1701.101 522.777, 1713.275 522.498, 1731.469 517.683 C 1748.060 513.292, 1759.766 507.848, 1772.944 498.397 C 1790.331 485.926, 1806.862 466.617, 1808.542 456.814 L 1809.281 452.500 1811.606 461.214 C 1816.466 479.438, 1827.494 495.116, 1843.472 506.518 C 1851.824 512.477, 1858.878 515.593, 1870.693 518.542 C 1890.030 523.369, 1903.284 522.594, 1926.500 515.281 C 1948.757 508.271, 1973.959 490.039, 1987.489 471.161 L 1991.316 465.821 1993.471 473.161 C 1996.392 483.113, 1999.540 488.915, 2007.857 499.676 C 2015.614 509.713, 2027.934 519.880, 2038.500 524.963 C 2048.082 529.573, 2063.892 533.216, 2076.500 533.717 C 2086.351 534.109, 2088.753 533.834, 2099.496 531.084 C 2106.094 529.395, 2115.273 526.199, 2119.893 523.982 C 2132.796 517.791, 2152.719 503.415, 2171.125 487.014 L 2176.750 482.001 2179.073 489.227 C 2182.895 501.112, 2191.580 512.693, 2202.500 520.465 C 2211.949 527.190, 2229.187 531.742, 2240.985 530.629 C 2251.525 529.634, 2267.898 525.211, 2276.500 521.034 C 2284.429 517.184, 2297.844 507.984, 2305.449 501.179 L 2309.398 497.646 2312.445 501.573 C 2321.612 513.387, 2332.683 520.917, 2346.007 524.399 C 2360.645 528.225, 2365.024 528.456, 2376.892 526.029 C 2388.142 523.729, 2391.163 522.480, 2397.894 517.349 C 2400.310 515.507, 2402.588 514, 2402.955 514 C 2403.322 514, 2404.176 516.163, 2404.854 518.806 C 2407.028 527.289, 2414.745 544.986, 2420.365 554.378 C 2436.527 581.382, 2456.030 601.656, 2477.266 613.525 C 2482.244 616.307, 2503.202 622.010, 2508.357 621.985 C 2513.214 621.961, 2526.968 618.251, 2532.238 615.543 C 2544.407 609.289, 2564.993 590.162, 2579.127 571.974 C 2586.840 562.049, 2587.354 561.128, 2588.935 554.387 C 2591.959 541.491, 2583.880 528.887, 2557.594 505.492 C 2547.702 496.688, 2538.393 486.191, 2531.399 475.955 L 2526.777 469.190 2535.744 457.719 C 2559.507 427.319, 2571.491 403.160, 2578.507 371.514 C 2582.262 354.576, 2582.777 340.970, 2580.089 329.691 C 2577.736 319.814, 2576.481 317.011, 2570.701 308.723 C 2566.345 302.476, 2556.172 294.290, 2548.605 290.943 C 2545.558 289.596, 2544.204 288.474, 2544.682 287.693 C 2545.083 287.037, 2547.778 283.017, 2550.672 278.760 C 2569.973 250.368, 2578.222 209.850, 2570.778 180 C 2567.006 164.876, 2564.534 158.929, 2557.888 148.993 C 2551.356 139.229, 2545.910 133.889, 2535.043 126.599 C 2526.659 120.974, 2518.658 117.967, 2504.343 115.061 C 2491.488 112.452, 2483.094 112.560, 2470.500 115.496 M 215.500 134.087 C 194.802 135.464, 172.724 140.039, 163.108 144.945 C 143.268 155.067, 123.087 190.030, 126.951 207.588 C 128.925 216.557, 137.297 222.212, 151.189 223.959 C 164.212 225.597, 181.065 222.311, 224.950 209.579 C 237.297 205.997, 247.474 203.164, 247.566 203.283 C 248.187 204.089, 239.138 275.203, 235.387 299 C 222.197 382.666, 193.141 498.202, 176.790 532 C 169.968 546.102, 170.002 546.102, 167.930 531.934 C 166.218 520.226, 167.323 482.798, 169.965 463 C 171.103 454.475, 173.376 439.832, 175.017 430.460 C 178.245 412.021, 178.581 406.672, 176.899 400.500 C 173.357 387.507, 162.303 389.324, 141.144 406.377 C 124.066 420.142, 109.997 448.072, 105.331 477.473 C 102.969 492.361, 103.933 515.300, 107.456 528 C 112.533 546.310, 123.812 566.507, 136.321 579.692 C 148.949 593.003, 159.291 597.260, 173.957 595.186 C 191.149 592.755, 202.744 586.418, 218.068 571.079 C 230.142 558.992, 239.388 545.731, 251.526 523.090 C 294.833 442.313, 338.164 314.887, 361.923 198.435 C 366.604 175.493, 368.224 162.545, 366.988 157.954 C 363.285 144.205, 339.046 136.717, 289.500 134.019 C 268.794 132.891, 232.991 132.924, 215.500 134.087 M 2473.047 138.991 C 2447.613 145.890, 2424.101 167.059, 2397.512 207 C 2373.094 243.679, 2353.946 283.105, 2339.471 326.500 C 2327.728 361.708, 2321.439 390.657, 2318.943 421 C 2316.842 446.533, 2319.127 464.359, 2326.335 478.672 C 2333.427 492.755, 2344.074 500.899, 2358.289 503.112 C 2366.617 504.408, 2376.580 503.041, 2381.655 499.904 C 2386.302 497.032, 2392.645 487.150, 2399.363 472.316 C 2419.908 426.945, 2449.419 390.667, 2465.779 390.667 C 2469.651 390.667, 2470.746 391.151, 2473.278 393.985 C 2476.102 397.145, 2476.221 397.643, 2475.778 404.402 C 2474.752 420.041, 2463.516 433.378, 2435.445 452.276 C 2428.757 456.779, 2423.917 460.783, 2423 462.572 C 2420.357 467.731, 2421.074 488.287, 2424.346 501.147 C 2435.985 546.901, 2469.130 588.670, 2500.092 596.602 C 2514.010 600.168, 2525.201 595.055, 2543.151 576.930 C 2550.941 569.064, 2566 551.098, 2566 549.669 C 2566 547.190, 2556.852 537.034, 2545.148 526.519 C 2527.482 510.648, 2516.813 497.838, 2502.586 475.414 L 2497.060 466.703 2502.280 460.725 C 2527.077 432.329, 2540.782 411.092, 2549.489 387.576 C 2556.837 367.728, 2559.933 344.160, 2556.666 332.924 C 2553.808 323.093, 2546.288 315.311, 2535.761 311.292 C 2529.366 308.851, 2511.748 309.144, 2501.646 311.860 C 2476.264 318.684, 2444.731 340.879, 2426.225 364.946 C 2417.308 376.542, 2417.700 376.286, 2418.472 370 C 2426.222 306.912, 2442.151 245.351, 2462.518 199.781 C 2467.967 187.587, 2472.478 179.828, 2477.354 174.259 C 2483.362 167.397, 2484.559 170.435, 2484.348 192 C 2484.020 225.582, 2477.296 255.142, 2462.905 286.273 C 2454.216 305.067, 2455.014 309, 2467.512 309 C 2484.062 309, 2501.332 300.029, 2517.187 283.195 C 2553.215 244.945, 2560.660 185.218, 2533.076 155.743 C 2522.003 143.911, 2508.858 138.187, 2491 137.420 C 2482.559 137.058, 2479.039 137.366, 2473.047 138.991 M 810.243 146.012 C 798.033 149.211, 785.621 156.263, 776.927 164.941 C 770.553 171.303, 768.393 174.400, 763.286 184.500 C 756.016 198.877, 750.489 211.768, 743.803 229.938 C 737.799 246.253, 737.418 247, 735.099 247 C 730.635 247, 718.370 254.475, 711.435 261.422 C 699.807 273.071, 694.334 285.545, 695.196 298.433 C 695.894 308.847, 699.892 313.783, 708.409 314.743 C 710.959 315.030, 713.278 315.641, 713.562 316.101 C 713.847 316.561, 710.913 328.989, 707.043 343.718 C 692.559 398.848, 689.362 416.147, 690.359 434 C 691.520 454.808, 696.722 467.691, 708.982 480.124 C 721.559 492.878, 733.203 497.492, 752.500 497.367 C 762.478 497.302, 765.992 496.839, 773.353 494.619 C 783.467 491.569, 795.208 485.958, 804.268 479.845 C 817.261 471.079, 834.794 450.711, 832.517 447.027 C 832.168 446.462, 829.321 445.992, 826.191 445.983 C 812.388 445.941, 799.196 440.800, 793.334 433.180 C 784.797 422.083, 783.611 410.637, 787.462 376.500 C 790.725 347.576, 791.799 341.133, 796.009 325.250 L 799.257 313 803.378 312.965 C 810.730 312.903, 823.079 310.196, 828.858 307.380 C 841.414 301.260, 851.117 286.713, 853.123 271 C 855.164 255.014, 852.169 251.897, 830.870 247.846 L 819.240 245.634 821.715 236.567 C 824.701 225.629, 831.490 206.638, 838.005 191 C 849.093 164.386, 849.709 155.982, 841.105 148.742 C 835.021 143.623, 823.312 142.587, 810.243 146.012 M 1764.243 146.012 C 1752.033 149.211, 1739.621 156.263, 1730.927 164.941 C 1724.553 171.303, 1722.393 174.400, 1717.286 184.500 C 1710.016 198.877, 1704.489 211.768, 1697.803 229.938 C 1691.799 246.253, 1691.418 247, 1689.099 247 C 1684.635 247, 1672.370 254.475, 1665.435 261.422 C 1653.807 273.071, 1648.334 285.545, 1649.196 298.433 C 1649.894 308.847, 1653.892 313.783, 1662.409 314.743 C 1664.959 315.030, 1667.278 315.641, 1667.562 316.101 C 1667.847 316.561, 1664.913 328.989, 1661.043 343.718 C 1646.559 398.848, 1643.362 416.147, 1644.359 434 C 1645.520 454.808, 1650.722 467.691, 1662.982 480.124 C 1675.559 492.878, 1687.203 497.492, 1706.500 497.367 C 1716.478 497.302, 1719.992 496.839, 1727.353 494.619 C 1737.467 491.569, 1749.208 485.958, 1758.268 479.845 C 1771.261 471.079, 1788.794 450.711, 1786.517 447.027 C 1786.168 446.462, 1783.321 445.992, 1780.191 445.983 C 1766.388 445.941, 1753.196 440.800, 1747.334 433.180 C 1738.797 422.083, 1737.611 410.637, 1741.462 376.500 C 1744.725 347.576, 1745.799 341.133, 1750.009 325.250 L 1753.257 313 1757.378 312.965 C 1764.730 312.903, 1777.079 310.196, 1782.858 307.380 C 1795.414 301.260, 1805.117 286.713, 1807.123 271 C 1809.164 255.014, 1806.169 251.897, 1784.870 247.846 L 1773.240 245.634 1775.715 236.567 C 1778.701 225.629, 1785.490 206.638, 1792.005 191 C 1803.093 164.386, 1803.709 155.982, 1795.105 148.742 C 1789.021 143.623, 1777.312 142.587, 1764.243 146.012 M 1951.647 145.537 C 1937.874 148.980, 1920.638 159.457, 1913.139 168.943 C 1905.694 178.363, 1890.880 210.447, 1881.373 237.749 L 1878.500 245.997 1872.478 248.004 C 1857.680 252.936, 1843.254 267.312, 1837.945 282.416 C 1835.248 290.090, 1835.066 302.230, 1837.570 307.506 C 1839.542 311.661, 1845.253 314.940, 1850.583 314.978 C 1852.279 314.990, 1853.913 315.246, 1854.214 315.547 C 1854.515 315.848, 1853.005 322.711, 1850.857 330.797 C 1843.655 357.921, 1836.143 388.410, 1834.053 399 C 1827.744 430.970, 1830.290 453.800, 1842.140 471.518 C 1858.489 495.961, 1887.273 503.917, 1919 492.762 C 1935.391 486.999, 1945.198 480.847, 1958.282 468.119 C 1967.588 459.066, 1973 451.728, 1973 448.162 C 1973 446.221, 1972.462 445.999, 1967.750 445.992 C 1960.325 445.982, 1950.235 444.198, 1945.330 442.028 C 1938.967 439.213, 1932.622 432.777, 1929.623 426.095 C 1926.632 419.430, 1924.691 406.967, 1925.481 399.500 C 1931.117 346.255, 1932.805 335.730, 1938.576 317.891 L 1940.067 313.282 1947.784 312.628 C 1963.301 311.312, 1970.913 308.160, 1979.747 299.391 C 1989.654 289.559, 1994.662 276.738, 1993.812 263.389 C 1993.173 253.354, 1990.401 251.438, 1971.406 247.898 C 1965.133 246.729, 1960 245.424, 1960 244.998 C 1960 240.935, 1969.834 212.259, 1978.860 189.999 C 1986.686 170.702, 1988.236 164.657, 1987.034 158.142 C 1985.300 148.750, 1979.020 144.613, 1966 144.287 C 1961.129 144.165, 1955.001 144.699, 1951.647 145.537 M 1506.204 237.173 C 1471.176 241.567, 1432.993 261.915, 1402.464 292.458 C 1373.717 321.218, 1355.990 353.723, 1350.366 387.988 C 1349.235 394.874, 1348.943 401.504, 1349.307 412 C 1349.902 429.152, 1352.012 438.461, 1358.147 451 C 1371.389 478.066, 1410.185 498.257, 1456.170 502.014 C 1471.447 503.262, 1485.806 502.005, 1501.470 498.049 C 1538.753 488.634, 1577.421 463.895, 1594.742 438.377 C 1604.175 424.481, 1613.055 402.833, 1617.192 383.648 C 1620.194 369.728, 1620.434 340.527, 1617.645 328.500 C 1613.359 310.012, 1605.341 295.114, 1594.086 284.723 C 1576.764 268.732, 1558.391 266.944, 1530.360 278.521 C 1513.707 285.399, 1497 297.086, 1497 301.857 C 1497 302.897, 1499.138 305.715, 1501.750 308.118 C 1526.264 330.667, 1534.572 343.417, 1539.636 366.257 C 1542.032 377.059, 1541.802 397.357, 1539.174 407.175 C 1533.603 427.991, 1519.345 446.336, 1504.344 451.988 C 1499.497 453.814, 1496.965 454.125, 1489.500 453.808 C 1481.941 453.487, 1479.402 452.912, 1473.642 450.215 C 1461.085 444.336, 1451.025 430.991, 1446.341 414 C 1443.793 404.758, 1443.794 375.203, 1446.342 362.536 C 1452.017 334.320, 1464.931 308.525, 1482.701 289.911 C 1502.279 269.403, 1520.897 260.105, 1547.470 257.565 C 1559.782 256.389, 1565.838 251.952, 1564.832 244.845 C 1564.348 241.424, 1557.197 238.290, 1547.026 237.041 C 1537.034 235.814, 1516.513 235.880, 1506.204 237.173 M 1179 246.126 C 1169.468 247.672, 1161.647 252.313, 1151.589 262.392 C 1137.487 276.524, 1130.936 289.304, 1130.260 304 C 1129.777 314.498, 1131.464 318.350, 1138.074 321.832 C 1142.226 324.019, 1143.304 324.133, 1155.500 323.669 C 1170.436 323.102, 1185.930 320.189, 1209.142 313.584 C 1222.388 309.816, 1246.218 302.048, 1252.500 299.452 C 1254.141 298.774, 1254.303 298.883, 1253.403 300.063 C 1252.799 300.853, 1246.450 309.375, 1239.292 319 C 1232.134 328.625, 1219.578 344.231, 1211.389 353.681 C 1187.721 380.992, 1171.090 399.837, 1163 408.512 C 1132.039 441.714, 1120.649 454.989, 1116.675 462.500 C 1113.871 467.801, 1113.720 478.950, 1116.385 483.911 C 1119.435 489.587, 1127.730 496.658, 1136.888 501.388 C 1157.877 512.228, 1183.745 517.640, 1219.586 518.690 C 1241.939 519.345, 1251.399 518.418, 1264.476 514.294 C 1285.204 507.757, 1302.513 495.290, 1313.005 479.339 C 1319.152 469.996, 1322.633 461.113, 1324.610 449.731 C 1327.504 433.073, 1325.172 422.890, 1318.306 422.198 C 1316.642 422.031, 1308.687 424.097, 1300.405 426.848 C 1278.430 434.147, 1261.965 437, 1241.812 437 L 1231.071 437 1254.285 402.248 C 1307.889 322.003, 1332.254 280.521, 1332.426 269.213 C 1332.564 260.102, 1325.542 254.347, 1310.859 251.537 C 1301.690 249.783, 1280.421 248.409, 1232.647 246.484 C 1192.083 244.850, 1187.071 244.817, 1179 246.126 M 1017 246.526 C 1016.175 246.688, 1012.125 247.364, 1008 248.029 C 989.869 250.951, 963.996 262.346, 945 275.776 C 932.974 284.278, 912.407 304.784, 904.153 316.500 C 896.383 327.529, 889.962 340.569, 886.426 352.500 C 884.202 360.004, 883.741 363.577, 883.653 374 C 883.527 388.941, 885.102 393.966, 892.946 403.649 C 902.004 414.831, 916.864 422.838, 944.686 431.529 C 977.410 441.751, 986.226 446.380, 991.292 456.001 C 993.944 461.036, 994.154 462.183, 993.782 469.588 C 993.241 480.355, 988.814 489.919, 980.017 499.322 C 972.664 507.183, 961.624 513.372, 955.932 512.825 C 952.923 512.536, 952.220 511.850, 949.537 506.593 C 943.648 495.052, 944.983 482.245, 954.069 463.121 C 961.197 448.120, 960.716 445.342, 950.812 444.320 C 924.205 441.574, 888.401 465.409, 877.907 492.854 C 874.885 500.757, 874.908 513.302, 877.959 521.285 C 880.794 528.702, 889.014 537.670, 896.708 541.741 C 910.788 549.189, 930.030 552.072, 952.804 550.145 C 985.574 547.373, 1009.246 538.231, 1036.351 517.880 C 1058.569 501.199, 1075.590 482.503, 1084.040 465.500 C 1090.212 453.079, 1092.370 443.650, 1091.707 432 C 1090.828 416.555, 1084.575 406.104, 1071.702 398.564 C 1064.724 394.477, 1047.312 388.598, 1025.554 382.982 C 992.435 374.435, 984.304 370.774, 979.220 362.126 C 976.782 357.980, 976.508 356.567, 976.575 348.500 C 976.754 326.839, 989.871 300.023, 1006.780 286.750 C 1010.108 284.137, 1013.291 282, 1013.853 282 C 1015.695 282, 1020.994 294.333, 1022.658 302.497 C 1024.053 309.341, 1024.124 312.152, 1023.145 321.997 C 1022.516 328.324, 1020.840 338.450, 1019.421 344.500 C 1014.734 364.492, 1014.938 366.330, 1022.283 370.235 C 1025.691 372.046, 1028.131 372.478, 1035 372.488 C 1042.709 372.499, 1044.198 372.166, 1051 368.909 C 1080.010 355.020, 1100.292 320.491, 1095.060 293.899 C 1090.814 272.316, 1072.224 254.068, 1048.234 247.932 C 1041.456 246.198, 1022.928 245.364, 1017 246.526 M 562.609 248.062 C 552.011 249.292, 541.433 251.857, 531 255.726 C 489.852 270.987, 446.342 307.131, 418.715 349 C 404.314 370.826, 391.100 402.018, 387.493 422.702 C 381.106 459.328, 395.536 490.761, 424.923 504.232 C 437.288 509.901, 455.550 511.676, 468.356 508.454 C 482.046 505.010, 501.864 493.103, 520.173 477.323 C 528.855 469.839, 550.361 448.263, 562.856 434.500 L 570.119 426.500 569.498 431.516 C 568.587 438.875, 570.682 463.427, 573.002 472.575 C 577.238 489.278, 585.865 500.701, 597.238 504.666 C 604.897 507.336, 619.194 507.089, 629 504.117 C 641.462 500.341, 657.526 490.318, 667.332 480.201 L 671.165 476.247 668.574 468.044 C 661.251 444.862, 659.842 416.727, 663.175 360.242 C 664.777 333.099, 664.238 331.733, 651.208 329.887 C 647.585 329.374, 644.430 328.763, 644.197 328.530 C 643.963 328.296, 644.689 326.619, 645.811 324.803 C 646.932 322.986, 649.056 317.905, 650.529 313.512 C 652.892 306.471, 653.163 304.338, 652.820 295.512 C 652.467 286.420, 652.119 284.918, 649.033 279.169 C 637.193 257.109, 600.004 243.723, 562.609 248.062 M 2188.609 248.002 C 2164.576 251.001, 2141.215 260.328, 2116.637 276.737 C 2066.736 310.054, 2029.938 359.434, 2015.339 412.674 C 2012.940 421.420, 2012.636 424.314, 2012.572 439 C 2012.504 454.642, 2012.652 455.964, 2015.427 464.431 C 2020.955 481.300, 2033.103 495.501, 2048.500 503.093 C 2059.304 508.420, 2068.759 510.299, 2082 509.748 C 2099.267 509.029, 2112.235 503.253, 2135 486.143 C 2146.483 477.513, 2172.314 452.725, 2187.592 435.675 L 2195.500 426.849 2195.670 442.675 C 2196.180 490.110, 2212.886 511.206, 2245.884 506.086 C 2260.594 503.804, 2276.706 495.284, 2290.838 482.316 L 2297.176 476.500 2294.622 468.727 C 2287.922 448.334, 2286.033 423.508, 2288.012 381.876 C 2289.826 343.731, 2289.834 337.917, 2288.074 334.635 C 2286.572 331.832, 2283.257 330.549, 2274.750 329.476 C 2272.137 329.147, 2270 328.743, 2270 328.580 C 2270 328.416, 2271.526 324.956, 2273.392 320.891 C 2282.051 302.023, 2280.695 284.042, 2269.656 271.378 C 2264.787 265.792, 2254.051 258.616, 2245.129 254.986 C 2230.787 249.149, 2204.977 245.960, 2188.609 248.002 M 545.500 286.839 C 538.161 291.319, 516.436 317.809, 506.002 335 C 491.922 358.198, 484.031 380.873, 484.008 398.201 C 483.984 416.209, 493.024 431, 504.054 431 C 513.593 431, 539.132 411.454, 574.228 377.294 C 580.678 371.016, 585.178 366.124, 584.228 366.422 C 574.988 369.325, 564.843 371.283, 556.728 371.731 C 548.262 372.197, 546.691 372.030, 544.978 370.480 C 542.071 367.849, 542.523 365.389, 547.545 356.500 C 560.973 332.734, 564.346 318.578, 560.485 302.200 C 558.820 295.138, 556.755 290.581, 553.709 287.250 C 551.216 284.524, 549.438 284.435, 545.500 286.839 M 2171.500 286.856 C 2159.805 294.064, 2134.530 327.711, 2122.940 351.500 C 2110.990 376.028, 2107.338 395.254, 2111.536 411.540 C 2114.359 422.491, 2122.313 431, 2129.726 431 C 2134.147 431, 2143.251 426.007, 2155 417.141 C 2168.439 406.998, 2173.884 402.228, 2193.752 383.189 C 2202.690 374.624, 2210.565 367.223, 2211.252 366.742 C 2212.073 366.168, 2211.815 366.057, 2210.500 366.417 C 2191.442 371.638, 2175.642 373.484, 2171.050 371.027 C 2167.617 369.190, 2168.792 363.850, 2174.995 353.103 C 2187.641 331.192, 2190.522 315.494, 2185.097 298.064 C 2182.950 291.164, 2178.749 284.998, 2176.199 285.004 C 2175.265 285.006, 2173.150 285.840, 2171.500 286.856 M 1809.618 317.094 C 1801.906 324.897, 1792.875 329.940, 1781.624 332.723 L 1771.253 335.290 1770.154 340.395 C 1768.217 349.383, 1763 396.711, 1763.004 405.252 C 1763.010 418.549, 1766.474 421.963, 1780 422.006 C 1790.692 422.040, 1800.909 426.272, 1804.879 432.310 C 1806.443 434.690, 1806.508 434.465, 1806.730 425.892 C 1806.857 421.006, 1807.435 413.969, 1808.016 410.254 C 1809.586 400.211, 1817.427 365.761, 1822.350 347.280 L 1826.671 331.059 1823.795 328.303 C 1820.135 324.797, 1815 316.833, 1815 314.662 C 1815 312.233, 1813.955 312.705, 1809.618 317.094 M 1481.531 332.939 C 1470.950 353.949, 1468.500 364.491, 1468.500 389 L 1468.500 407.500 1471.810 414.500 C 1477.327 426.169, 1482.197 430, 1491.510 430 C 1496.897 430, 1497.337 429.794, 1502.604 424.813 C 1513.547 414.464, 1518.875 398.622, 1517.508 380.500 C 1516.736 370.265, 1514.809 363.459, 1509.885 353.570 C 1505.229 344.220, 1499.566 337.305, 1491.167 330.710 L 1485.066 325.919 1481.531 332.939 M 1110.788 340.171 C 1106.265 349.618, 1097.575 361.719, 1089.189 370.250 L 1082.554 376.999 1084.975 378.695 C 1099.252 388.695, 1108.467 399.696, 1111.407 410.251 C 1112.211 413.138, 1113.461 417.653, 1114.185 420.285 L 1115.500 425.069 1134.500 404.385 C 1144.950 393.008, 1156.650 380.022, 1160.500 375.527 C 1164.350 371.032, 1172.326 362.013, 1178.224 355.485 C 1184.123 348.957, 1188.819 343.486, 1188.660 343.327 C 1188.502 343.168, 1183.901 343.944, 1178.436 345.051 C 1172.971 346.157, 1163.100 347.324, 1156.500 347.642 C 1146.188 348.140, 1143.317 347.916, 1136.090 346.048 C 1127.718 343.885, 1121.239 340.327, 1116.637 335.365 L 1114.297 332.841 1110.788 340.171 M 2141.581 367.580 C 2135.764 380.862, 2134 387.532, 2134 396.245 C 2134 404.317, 2133.448 404.398, 2145.713 394.528 L 2153.925 387.919 2150.563 383.515 C 2146.352 377.998, 2144.152 367.731, 2145.857 361.555 C 2147.758 354.672, 2146.390 356.599, 2141.581 367.580 M 516.687 365.744 C 510.766 378.382, 508.862 384.869, 508.261 394.443 L 507.701 403.386 510.854 401.389 C 512.588 400.291, 517.125 396.828, 520.935 393.694 L 527.862 387.995 524.562 383.092 C 520.550 377.130, 518.395 367.308, 519.948 362.066 C 521.657 356.300, 520.501 357.604, 516.687 365.744" stroke="none" fill="#333333" fill-rule="evenodd"/><path d="M 634.721 112.521 C 619.774 115.778, 599.149 121.731, 595.523 123.835 C 593.710 124.886, 588.457 131.501, 582.404 140.354 C 568.089 161.289, 559.895 171.240, 550.697 178.861 C 535.925 191.101, 534.889 192.205, 534.786 195.819 C 534.724 197.992, 535.446 199.889, 536.879 201.318 C 538.821 203.256, 540.097 203.493, 548.283 203.437 C 574.228 203.260, 604.103 186.948, 635.077 156.047 C 652.956 138.211, 661 125.984, 661 116.644 C 661 109.388, 654.079 108.302, 634.721 112.521 M 212.500 135.029 C 190.523 136.959, 170.420 141.763, 161.139 147.301 C 146.094 156.279, 129.690 181.625, 127.481 199.308 C 124.922 219.787, 146.453 228.423, 180.500 220.572 C 187.100 219.051, 203.975 214.537, 218 210.542 C 232.025 206.547, 244.650 203.004, 246.056 202.669 L 248.612 202.059 247.279 214.280 C 244.636 238.516, 239.853 275.897, 236.887 295.500 C 227.360 358.474, 203.801 458.828, 186.039 512.094 C 181.323 526.237, 171.161 547.054, 170.005 544.940 C 167.412 540.200, 166.502 530.345, 166.550 507.500 C 166.607 480.785, 167.896 467.395, 173.628 434 C 177.430 411.847, 177.662 403.114, 174.603 397.199 C 170.988 390.209, 165.620 390.844, 151.754 399.900 C 128.117 415.337, 112.823 440.851, 106.438 475.500 C 104.398 486.572, 104.145 506.914, 105.923 517 C 111.307 547.550, 132.485 581.225, 152.514 591.080 C 158.908 594.226, 160.187 594.496, 168.482 594.451 C 185.160 594.359, 201.702 586.375, 217.012 571.029 C 231.454 556.553, 241.426 541.131, 258.747 506.487 C 288.648 446.680, 312.582 382.428, 336.953 296.533 C 353.450 238.393, 368.389 169.218, 366.557 159.453 C 364.343 147.653, 346.954 140.422, 311.039 136.367 C 295.130 134.571, 228.078 133.660, 212.500 135.029 M 2474 139.587 C 2444.121 147.493, 2413.578 178.804, 2381.958 233.944 C 2356.080 279.070, 2335.802 331.481, 2326.049 378.445 C 2320.928 403.104, 2319.632 414.810, 2319.619 436.500 C 2319.609 453.976, 2319.881 457.485, 2321.776 464.300 C 2329.609 492.480, 2349.920 507.071, 2374.097 501.886 C 2383.292 499.914, 2386.692 495.693, 2398.562 471.506 C 2410.846 446.475, 2418.378 433.566, 2428.674 419.899 C 2443.670 399.991, 2455.884 390.028, 2465.316 390.009 C 2474.345 389.992, 2477.546 394.164, 2476.768 404.935 C 2475.630 420.681, 2463.089 435.039, 2432.580 455.525 C 2422.944 461.995, 2422.491 463.005, 2422.555 477.832 C 2422.600 488.256, 2423.098 492.407, 2425.362 501.265 C 2436.329 544.171, 2467.305 584.609, 2496.942 594.713 C 2509.287 598.921, 2516.891 597.279, 2529.618 587.655 C 2538.939 580.607, 2565.033 552.375, 2564.986 549.389 C 2564.959 547.647, 2554.340 536.214, 2544.500 527.332 C 2533.025 516.974, 2524.308 507.850, 2517.810 499.396 C 2511.972 491.801, 2496 467.574, 2496 466.314 C 2496 465.783, 2497.176 464.258, 2498.614 462.924 C 2500.052 461.591, 2505.745 455.124, 2511.265 448.554 C 2540.478 413.784, 2557 376.392, 2557 345.047 C 2557 333.850, 2555.119 328.386, 2548.935 321.620 C 2536.848 308.395, 2516.113 306.497, 2491.419 316.355 C 2467.799 325.784, 2440.938 346.696, 2425.081 368 C 2421.602 372.675, 2418.301 376.670, 2417.746 376.877 C 2415.071 377.877, 2424.945 317.781, 2432.513 287 C 2443.745 241.315, 2461.169 194.728, 2473.470 177.490 C 2483.759 163.071, 2487.002 169.734, 2484.994 201.169 C 2482.888 234.153, 2477.341 256.607, 2463.895 286.572 C 2455.426 305.448, 2455.932 308, 2468.145 308 C 2501.594 308, 2539.682 266.153, 2547.630 220.671 C 2549.538 209.752, 2548.980 191.798, 2546.444 182.500 C 2538.903 154.855, 2516.607 137.909, 2488 138.081 C 2483.325 138.109, 2477.025 138.787, 2474 139.587 M 811 146.587 C 803.227 148.644, 790.588 154.917, 783.249 160.361 C 775.551 166.071, 769.399 174.273, 762.482 188.048 C 757.735 197.502, 745.178 228.077, 740.441 241.715 C 738.705 246.715, 738.407 247.001, 733.204 248.637 C 720.405 252.663, 707.468 264.277, 700.771 277.754 C 697.276 284.786, 696.601 287.183, 696.210 293.932 C 695.447 307.111, 699.409 312.550, 711.250 314.580 C 713.313 314.933, 715 315.630, 715 316.128 C 715 316.626, 712.718 325.688, 709.928 336.267 C 695.235 391.988, 691 412.772, 691 429.167 C 691 442.876, 693.155 452.654, 698.660 463.929 C 708.923 484.946, 728.477 496.924, 752.622 496.983 C 766.274 497.016, 787.189 489.926, 801.692 480.349 C 812.581 473.158, 829.519 455.486, 831.411 449.343 C 832.047 447.278, 831.701 447.158, 823.288 446.531 C 818.455 446.171, 811.392 444.969, 807.594 443.862 C 801.745 442.156, 799.817 440.977, 795.006 436.166 C 790.497 431.657, 788.875 429.134, 787.146 423.939 C 783.478 412.916, 783.437 404.530, 786.906 374.317 C 790.448 343.464, 790.869 340.932, 795.143 324.772 C 798.201 313.211, 798.289 313.038, 801.372 312.600 C 803.093 312.355, 807.931 311.685, 812.125 311.110 C 824.566 309.405, 830.546 306.637, 838.089 299.091 C 848.163 289.013, 854.075 274.229, 852.746 262.438 C 851.809 254.124, 847.512 251.621, 828.676 248.413 C 816.276 246.301, 816.938 249.047, 823.604 227.358 C 825.995 219.581, 831.276 204.956, 835.340 194.858 C 845.340 170.011, 846.315 166.811, 845.796 160.554 C 845.256 154.037, 842.148 149.426, 836.599 146.905 C 831.542 144.609, 819.062 144.454, 811 146.587 M 1765 146.587 C 1757.227 148.644, 1744.588 154.917, 1737.249 160.361 C 1729.551 166.071, 1723.399 174.273, 1716.482 188.048 C 1711.735 197.502, 1699.178 228.077, 1694.441 241.715 C 1692.705 246.715, 1692.407 247.001, 1687.204 248.637 C 1674.405 252.663, 1661.468 264.277, 1654.771 277.754 C 1651.276 284.786, 1650.601 287.183, 1650.210 293.932 C 1649.447 307.111, 1653.409 312.550, 1665.250 314.580 C 1667.313 314.933, 1669 315.630, 1669 316.128 C 1669 316.626, 1666.718 325.688, 1663.928 336.267 C 1649.235 391.988, 1645 412.772, 1645 429.167 C 1645 442.876, 1647.155 452.654, 1652.660 463.929 C 1662.923 484.946, 1682.477 496.924, 1706.622 496.983 C 1720.274 497.016, 1741.189 489.926, 1755.692 480.349 C 1766.581 473.158, 1783.519 455.486, 1785.411 449.343 C 1786.047 447.278, 1785.701 447.158, 1777.288 446.531 C 1772.455 446.171, 1765.392 444.969, 1761.594 443.862 C 1755.745 442.156, 1753.817 440.977, 1749.006 436.166 C 1744.497 431.657, 1742.875 429.134, 1741.146 423.939 C 1737.478 412.916, 1737.437 404.530, 1740.906 374.317 C 1744.448 343.464, 1744.869 340.932, 1749.143 324.772 C 1752.201 313.211, 1752.289 313.038, 1755.372 312.600 C 1757.093 312.355, 1761.931 311.685, 1766.125 311.110 C 1778.566 309.405, 1784.546 306.637, 1792.089 299.091 C 1802.163 289.013, 1808.075 274.229, 1806.746 262.438 C 1805.809 254.124, 1801.512 251.621, 1782.676 248.413 C 1770.276 246.301, 1770.938 249.047, 1777.604 227.358 C 1779.995 219.581, 1785.276 204.956, 1789.340 194.858 C 1799.340 170.011, 1800.315 166.811, 1799.796 160.554 C 1799.256 154.037, 1796.148 149.426, 1790.599 146.905 C 1785.542 144.609, 1773.062 144.454, 1765 146.587 M 1950.067 146.980 C 1938.038 150.416, 1927.273 156.704, 1918.388 165.484 C 1910.753 173.028, 1909.802 174.471, 1902.209 190 C 1895.140 204.459, 1882.297 235.984, 1880.406 243.520 C 1880.019 245.062, 1878.653 246.602, 1877.122 247.222 C 1860.992 253.757, 1852.328 260.209, 1844.802 271.292 C 1835.139 285.520, 1833.433 302.586, 1840.923 310.077 C 1842.869 312.023, 1845.507 313.196, 1849.866 314.053 C 1854.796 315.023, 1855.948 315.597, 1855.551 316.885 C 1853.971 322.004, 1840.680 373.554, 1838.117 384.500 C 1832.868 406.920, 1831.623 415.630, 1831.686 429.500 C 1831.788 452.118, 1837.009 466.014, 1850.489 479.537 C 1863.281 492.371, 1873.606 496.476, 1893 496.438 C 1904.794 496.415, 1906.118 496.202, 1916.445 492.670 C 1934.500 486.492, 1949.950 476.586, 1961.586 463.726 C 1966.711 458.062, 1972 450.305, 1972 448.452 C 1972 447.713, 1967.947 446.891, 1960.750 446.170 C 1946.452 444.740, 1938.600 441.180, 1932.798 433.500 C 1927.240 426.142, 1925.821 421.238, 1925.277 407.500 C 1924.439 386.326, 1931.080 337.970, 1937.588 317.855 C 1939.152 313.022, 1940.614 312.041, 1946.292 312.014 C 1951.173 311.990, 1964.252 308.911, 1968.450 306.798 C 1982.713 299.618, 1993 282.707, 1993 266.442 C 1993 258.486, 1991.588 255.340, 1986.954 252.976 C 1983.535 251.232, 1965.079 247, 1960.892 247 C 1958.366 247, 1958.452 246.186, 1962.396 232.784 C 1966.286 219.563, 1971.460 205.338, 1979.411 186.001 C 1982.464 178.577, 1985.463 170.085, 1986.077 167.130 C 1988.079 157.485, 1984.414 150.159, 1975.782 146.553 C 1970.745 144.449, 1958.199 144.657, 1950.067 146.980 M 1508.500 237.614 C 1469.264 243.333, 1432.764 262.953, 1401.464 295.148 C 1384.638 312.455, 1374.528 326.657, 1364.530 347.029 C 1354.566 367.330, 1350 386.237, 1350 407.189 C 1350 426.955, 1353.020 440.190, 1360.636 453.810 C 1374.307 478.256, 1411.830 497.033, 1455.250 501.157 C 1488.055 504.273, 1524.881 493.633, 1558 471.469 C 1585.290 453.206, 1600.747 433.018, 1610.957 402.303 C 1617.487 382.659, 1618.504 376.121, 1618.471 354 C 1618.445 336.847, 1618.165 333.483, 1616.147 326.045 C 1612.916 314.137, 1609.635 306.755, 1603.373 297.303 C 1596.749 287.303, 1589.881 281.090, 1580.048 276.203 C 1572.729 272.566, 1572.391 272.501, 1561.048 272.536 C 1550.677 272.569, 1548.543 272.903, 1540.111 275.814 C 1523.295 281.619, 1504.774 292.313, 1499.737 299.125 C 1497.113 302.674, 1498.078 304.230, 1507.983 312.425 C 1522.980 324.833, 1532.995 339.934, 1538.579 358.562 C 1540.805 365.986, 1541.339 370.040, 1541.735 382.500 C 1542.147 395.448, 1541.920 398.726, 1540.075 406.460 C 1537.372 417.791, 1532.565 427.814, 1525.615 436.609 C 1519.219 444.703, 1515.019 448.171, 1507.213 451.802 C 1499.787 455.256, 1487.933 455.985, 1479.345 453.517 C 1463.333 448.915, 1450.420 433.718, 1445.317 413.472 C 1442.910 403.920, 1442.897 376.299, 1445.293 363.276 C 1450.662 334.105, 1465.123 305.767, 1484.472 286.500 C 1502.780 268.270, 1520.777 259.546, 1545.294 257.016 C 1550.681 256.460, 1556.391 255.332, 1557.983 254.509 C 1563.718 251.543, 1565.686 245.836, 1562.095 242.586 C 1558.016 238.894, 1551.254 237.783, 1531 237.474 C 1520.275 237.311, 1510.150 237.374, 1508.500 237.614 M 1180.500 246.585 C 1168.463 249.644, 1161.640 253.571, 1152.205 262.870 C 1137.300 277.563, 1128.027 298.607, 1130.999 310.997 C 1132.241 316.174, 1135.666 320.157, 1140.500 322.044 C 1145.377 323.949, 1161.341 323.283, 1176.021 320.561 C 1195.196 317.007, 1229.986 307.168, 1247.116 300.455 C 1250.569 299.101, 1253.749 298.349, 1254.182 298.782 C 1255.853 300.453, 1224.838 340.560, 1202.590 365.500 C 1196.212 372.650, 1187.072 383, 1182.280 388.500 C 1177.488 394, 1164.080 408.850, 1152.484 421.500 C 1119.427 457.561, 1115 463.718, 1115 473.621 C 1115 494.278, 1147.971 511.193, 1199.500 516.974 C 1213.358 518.529, 1242.417 518.258, 1251.750 516.488 C 1281.558 510.833, 1305.174 494.166, 1316.911 470.500 C 1321.724 460.795, 1323.840 453.122, 1324.658 442.394 C 1325.688 428.897, 1323.396 423, 1317.119 423 C 1315.535 423, 1309.924 424.562, 1304.651 426.471 C 1293.221 430.608, 1281.599 433.681, 1270 435.632 C 1260.459 437.237, 1230 438.712, 1230 437.569 C 1230 437.162, 1242.311 418.305, 1257.357 395.665 C 1306.635 321.515, 1330.177 281.757, 1331.700 270.109 C 1332.051 267.422, 1331.569 265.612, 1329.812 263.024 C 1325.135 256.134, 1317.682 252.924, 1302 251.044 C 1284.022 248.888, 1185.644 245.278, 1180.500 246.585 M 1008.849 248.606 C 963.077 256.911, 913.306 294.830, 893.560 336.442 C 885.253 353.947, 881.887 375.149, 885.449 387.537 C 889.221 400.659, 898.997 410.900, 915.763 419.293 C 925.593 424.214, 932.303 426.670, 961.500 436.030 C 979.088 441.669, 988.096 447.347, 992.192 455.376 C 995.067 461.012, 995.620 470.025, 993.581 478.015 C 989.229 495.062, 972.576 511.589, 957.692 513.629 C 953.784 514.164, 953.101 513.943, 951.203 511.531 C 947.792 507.195, 944.999 498.474, 945.015 492.212 C 945.037 483.557, 947.479 474.905, 953.547 461.987 C 956.687 455.301, 958.783 449.598, 958.434 448.689 C 956.692 444.149, 940.698 443.949, 928.159 448.310 C 911.522 454.096, 894.857 466.954, 885.112 481.524 C 878.510 491.395, 876.498 497.534, 876.595 507.500 C 876.788 527.264, 889.143 540.543, 913.500 547.163 C 920.335 549.020, 924.195 549.342, 940 549.371 C 959.936 549.407, 969.051 548.229, 985.500 543.491 C 1022.572 532.812, 1068.590 495.492, 1083.997 463.612 C 1091.205 448.697, 1093.012 432.910, 1088.907 420.725 C 1082.854 402.757, 1068.798 394.703, 1024 383.536 C 991.887 375.531, 982.755 371.203, 977.763 361.624 C 975.994 358.229, 975.634 355.908, 975.727 348.500 C 975.990 327.576, 987.158 303.048, 1002.885 288.858 C 1006.151 285.911, 1010.155 282.721, 1011.783 281.770 L 1014.742 280.039 1017.782 285.770 C 1022.753 295.140, 1024.373 302.188, 1024.270 314 C 1024.174 324.916, 1022.397 337.219, 1018.991 350.537 C 1015.607 363.767, 1016.567 366.832, 1025.232 370.452 C 1043.524 378.095, 1073.565 358.704, 1088.046 329.908 C 1097.657 310.795, 1097.320 293.771, 1086.989 276.579 C 1079.551 264.202, 1063.003 252.427, 1047.540 248.510 C 1040.072 246.618, 1019.525 246.669, 1008.849 248.606 M 558 249.466 C 526.290 254.748, 493.487 272.258, 460.829 301.335 C 418.565 338.964, 387 398.232, 387 439.960 C 387 452.721, 389.067 462.169, 394.222 472.963 C 397.521 479.870, 399.846 483, 406.881 489.998 C 420.401 503.447, 433.739 508.955, 452.856 508.985 C 468.262 509.010, 479.373 505.150, 496.810 493.718 C 502.139 490.223, 510.775 483.839, 516 479.532 C 526.790 470.636, 551.063 446.452, 561.489 434.208 C 565.334 429.694, 568.934 426.002, 569.489 426.004 C 570.120 426.007, 570.536 431.553, 570.595 440.754 C 570.703 457.530, 571.992 467.144, 575.557 477.765 C 580.454 492.352, 588.603 501.221, 600.066 504.438 C 619.061 509.769, 642.636 501.147, 665.867 480.370 L 670.234 476.465 667.608 468.154 C 662.847 453.082, 661.792 443.754, 661.266 412.098 C 660.950 393.056, 661.231 376.494, 662.066 365.098 C 664.360 333.749, 663.580 331.726, 648.654 330.332 L 642.221 329.731 646.114 321.616 C 650.900 311.636, 653.383 300.553, 652.524 293 C 650.249 272.984, 629.898 256.283, 600.652 250.432 C 589.862 248.273, 568.117 247.780, 558 249.466 M 2184.500 249.474 C 2161.379 253.161, 2141.446 261.502, 2117.395 277.555 C 2096.234 291.679, 2080.437 305.627, 2064.224 324.500 C 2030.769 363.446, 2008.980 416.151, 2012.991 448.428 C 2015.243 466.553, 2020.538 477.611, 2032.951 490.109 C 2046.950 504.204, 2060.869 509.551, 2081.500 508.757 C 2092.982 508.315, 2097.453 507.189, 2108.564 501.940 C 2128.602 492.474, 2159.404 466.109, 2185.961 435.691 C 2190.615 430.361, 2194.777 426, 2195.211 426 C 2195.645 426, 2196 431.299, 2196 437.776 C 2196 481.555, 2208.489 504.055, 2233.696 505.687 C 2252.064 506.876, 2270.511 498.887, 2290.889 480.915 L 2296.088 476.331 2293.507 468.425 C 2289.789 457.033, 2288.125 446.112, 2287.018 425.833 C 2286.018 407.505, 2286.180 398.310, 2288.159 360.990 C 2289.662 332.635, 2289.338 331.910, 2274.475 330.387 C 2270.874 330.018, 2268.080 329.443, 2268.266 329.108 C 2281.581 305.146, 2281.610 286.334, 2268.356 272.017 C 2262.256 265.429, 2253.271 259.345, 2244.191 255.656 C 2227.350 248.813, 2203.885 246.382, 2184.500 249.474 M 543.946 286.844 C 536.743 291.450, 521.129 310.067, 509.008 328.500 C 483.554 367.209, 476.349 403.656, 490.177 423.756 C 493.452 428.517, 499.320 432, 504.065 432 C 511.026 432, 530.343 419.236, 549.772 401.800 C 559.810 392.792, 587.216 365.882, 586.788 365.454 C 586.561 365.228, 581.229 366.334, 574.938 367.912 C 560.597 371.510, 552.604 372.346, 548 370.729 C 542.624 368.841, 542.975 366.239, 550.372 353.175 C 557.553 340.493, 561.485 329.715, 562.511 319.901 C 564.173 304.005, 557.186 284, 549.973 284 C 549.103 284, 546.391 285.280, 543.946 286.844 M 2169.390 286.833 C 2162.414 291.886, 2147.709 309.339, 2136.798 325.515 C 2117.686 353.850, 2107.883 381.167, 2109.256 402.267 C 2110.545 422.090, 2121.451 434.901, 2133.846 431.155 C 2141.959 428.703, 2160.022 415.815, 2177.500 400.008 C 2189.339 389.301, 2213.198 365.864, 2212.733 365.399 C 2212.491 365.157, 2206.939 366.356, 2200.396 368.062 C 2192.905 370.016, 2185.688 371.227, 2180.907 371.332 C 2169.252 371.590, 2167.606 369.018, 2173.010 359 C 2186.155 334.636, 2188.168 328.734, 2188.195 314.500 C 2188.217 302.572, 2185.580 292.869, 2180.851 287.483 C 2177.117 283.230, 2174.563 283.085, 2169.390 286.833" stroke="none" fill="#f5c400" fill-rule="evenodd"/><path d="M 243.299 133.745 C 248.139 133.929, 255.789 133.928, 260.299 133.743 C 264.810 133.558, 260.850 133.408, 251.500 133.409 C 242.150 133.410, 238.460 133.562, 243.299 133.745 M 1402.952 292.750 C 1393.566 302.326, 1382.322 314.615, 1388.083 309 C 1393.466 303.754, 1415.262 281, 1414.905 281 C 1414.665 281, 1409.286 286.288, 1402.952 292.750 M 2169.400 286.879 C 2167.255 288.463, 2163.702 291.725, 2161.505 294.129 C 2157.820 298.162, 2157.936 298.105, 2163.005 293.395 C 2174.654 282.574, 2178.027 282.426, 2183.338 292.500 C 2184.208 294.150, 2184.938 295.133, 2184.960 294.684 C 2185.117 291.493, 2178.456 284, 2175.463 284 C 2174.273 284, 2171.545 285.296, 2169.400 286.879 M 2075.902 310.750 C 2070.173 316.663, 2063.530 323.975, 2061.138 327 L 2056.790 332.500 2062.116 326.500 C 2065.045 323.200, 2071.928 315.887, 2077.411 310.250 C 2082.894 304.613, 2087.141 300, 2086.848 300 C 2086.556 300, 2081.630 304.837, 2075.902 310.750 M 1198.396 369.121 C 1186.595 382.136, 1177.794 392.342, 1181.685 388.500 C 1187.871 382.391, 1211.472 356, 1210.749 356 C 1210.498 356, 1204.939 361.904, 1198.396 369.121 M 584.604 365.765 C 585.526 366.379, 566.181 385.573, 542.500 407.538 C 540.300 409.579, 541.409 408.830, 544.964 405.874 C 551.830 400.167, 586.270 367.225, 586.833 365.827 C 587.017 365.372, 586.342 365.007, 585.333 365.015 C 584.215 365.025, 583.930 365.317, 584.604 365.765 M 1235.998 427.503 C 1228.363 438.817, 1227.932 438.031, 1241.643 437.801 L 1253.500 437.601 1242.240 437.051 L 1230.980 436.500 1236.508 428.250 C 1239.548 423.712, 1241.816 420, 1241.548 420 C 1241.280 420, 1238.783 423.376, 1235.998 427.503 M 259.217 505.546 C 254.702 514.596, 251.228 522, 251.498 522 C 252.158 522, 268.213 489.879, 267.772 489.439 C 267.582 489.248, 263.732 496.497, 259.217 505.546 M 2537.359 520.323 C 2544.529 527.375, 2551.769 534.082, 2553.448 535.227 C 2555.127 536.372, 2553.800 534.896, 2550.500 531.947 C 2547.200 528.997, 2539.960 522.291, 2534.411 517.042 C 2528.862 511.794, 2530.189 513.270, 2537.359 520.323 M 1219.250 518.743 C 1223.513 518.931, 1230.487 518.931, 1234.750 518.743 C 1239.013 518.556, 1235.525 518.402, 1227 518.402 C 1218.475 518.402, 1214.987 518.556, 1219.250 518.743" stroke="none" fill="#f3c304" fill-rule="evenodd"/><path d="" stroke="none" fill="#343433" fill-rule="evenodd"/></svg>