<svg xmlns="http://www.w3.org/2000/svg" width="2546" height="628" viewBox="0 0 2546 628" version="1.1"><path d="M 1945.652 181.448 C 1936.493 192.694, 1929 202.144, 1929 202.448 C 1929 202.751, 1936.763 202.986, 1946.250 202.970 L 1963.500 202.940 1985 182.016 L 2006.500 161.092 1984.402 161.046 L 1962.303 161 1945.652 181.448 M 2215.754 181.500 L 2199.054 202 2216.777 201.979 L 2234.500 201.957 2255.500 181.528 L 2276.500 161.099 2254.477 161.050 L 2232.454 161 2215.754 181.500 M 2104.212 213.500 L 2102.026 218 2068.196 218 L 2034.366 218 2019.721 249.750 L 2005.076 281.500 2020.038 281.776 C 2031.385 281.985, 2035 282.361, 2035 283.332 C 2035 284.036, 2025.325 318.694, 2013.500 360.349 C 2001.675 402.005, 1992 436.292, 1992 436.543 C 1992 436.794, 2003.830 437, 2018.288 437 L 2044.576 437 2066.538 360.250 L 2088.500 283.500 2104.316 283 L 2120.132 282.500 2132.648 256 C 2139.532 241.425, 2147.346 224.887, 2150.012 219.250 L 2154.861 209 2130.630 209 L 2106.399 209 2104.212 213.500 M 2231.447 213.500 L 2228.810 218 2193.655 218.015 L 2158.500 218.031 2143.441 250.765 L 2128.382 283.500 2133.691 283.800 C 2137.552 284.018, 2139 284.500, 2139 285.566 C 2139 286.719, 2098.238 430.751, 2096.494 435.759 C 2096.145 436.763, 2106.431 436.966, 2147.186 436.759 L 2198.316 436.500 2214.114 403 C 2222.802 384.575, 2229.931 369.163, 2229.956 368.750 C 2229.980 368.337, 2216.310 368, 2199.579 368 L 2169.157 368 2170.919 361.750 L 2172.681 355.500 2198.190 355.233 L 2223.699 354.967 2237.227 327.233 L 2250.756 299.500 2220.128 299 L 2189.500 298.500 2189.823 296.191 C 2190.001 294.920, 2190.720 292.220, 2191.423 290.191 L 2192.700 286.500 2219.419 286 L 2246.139 285.500 2263.533 248 C 2273.099 227.375, 2280.943 210.162, 2280.963 209.750 C 2280.983 209.338, 2270.444 209, 2257.542 209 L 2234.084 209 2231.447 213.500 M 1776.030 224.250 C 1774.466 227.688, 1767.990 241.441, 1761.640 254.814 C 1755.290 268.187, 1749.818 279.999, 1749.480 281.064 C 1748.887 282.931, 1749.526 283, 1767.500 283 C 1784.792 283, 1786.095 283.126, 1785.580 284.750 C 1785.275 285.712, 1780.510 302.240, 1774.991 321.478 C 1769.473 340.717, 1764.003 358.428, 1762.837 360.837 C 1756.868 373.168, 1746.772 376.303, 1738.138 368.507 L 1734.500 365.223 1719.089 396.604 C 1701.321 432.782, 1701.721 429.282, 1714.630 435.662 C 1720.840 438.731, 1723.142 439.312, 1730.689 439.718 C 1751.650 440.844, 1771.257 431.976, 1789.087 413.308 C 1797.554 404.442, 1805.374 392.458, 1810.100 381.106 C 1811.827 376.957, 1823.251 338.560, 1835.486 295.781 L 1857.732 218 1818.303 218 L 1778.875 218 1776.030 224.250 M 1882.532 246.445 C 1873.749 262.045, 1866.407 275.278, 1866.216 275.852 C 1866.009 276.472, 1868.136 277.019, 1871.451 277.198 L 1877.033 277.500 1838.028 356.500 C 1816.576 399.950, 1799.018 435.837, 1799.012 436.250 C 1799.005 436.663, 1811.126 437, 1825.947 437 L 1852.894 437 1860.566 422 L 1868.237 407 1892.119 407 L 1916 407 1915.981 409.250 C 1915.970 410.488, 1915.309 416, 1914.512 421.500 C 1913.715 427, 1913.049 432.738, 1913.032 434.250 L 1913 437 1941 437 C 1958.483 437, 1969 436.635, 1969 436.027 C 1969 435.492, 1972.150 387.523, 1976 329.429 C 1979.850 271.335, 1983 222.498, 1983 220.902 L 1983 218 1940.750 218.041 L 1898.500 218.082 1882.532 246.445 M 2275.973 249.081 C 2268.013 266.176, 2261.350 280.576, 2261.167 281.081 C 2260.983 281.587, 2263.346 282, 2266.417 282 C 2269.488 282, 2272 282.229, 2272 282.508 C 2272 283.103, 2228.955 433.901, 2228.258 435.750 C 2227.888 436.731, 2233.571 436.999, 2254.643 436.996 L 2281.500 436.991 2292 400 C 2297.775 379.655, 2302.741 363.007, 2303.036 363.004 C 2303.331 363.002, 2305.729 378.637, 2308.365 397.750 C 2311 416.863, 2313.395 433.512, 2313.687 434.750 L 2314.217 437 2344.733 437 L 2375.250 437 2374.733 434.250 C 2374.449 432.738, 2370.727 406.954, 2366.464 376.954 L 2358.712 322.407 2395.856 270.634 C 2416.285 242.158, 2433 218.666, 2433 218.430 C 2433 218.193, 2420.217 218, 2404.593 218 L 2376.187 218 2350.367 253.441 C 2336.167 272.933, 2324.385 288.718, 2324.185 288.519 C 2323.896 288.229, 2330.606 264.144, 2342.927 221.250 L 2343.860 218 2317.153 218 L 2290.446 218 2275.973 249.081 M 1911.294 317.312 L 1896.129 348.500 1908.736 348.781 C 1916.212 348.948, 1921.590 348.663, 1921.949 348.082 C 1922.664 346.926, 1927.428 287.095, 1926.852 286.518 C 1926.635 286.302, 1919.634 300.159, 1911.294 317.312" stroke="none" fill="#ffffff" fill-rule="evenodd"/><path d="M 138 137.961 C 109.149 144.140, 84.943 160.154, 67.851 184.370 C 62.275 192.270, 57.972 200.288, 55.037 208.247 C 53.971 211.136, 41.152 257.122, 26.550 310.438 C 0.799 404.458, 0.001 407.649, 0.026 416.438 C 0.071 432.465, 5.857 444.752, 19.566 457.935 C 32.269 470.151, 47.238 477.983, 64.500 481.446 C 71.232 482.796, 79.141 483.007, 114.409 482.775 L 156.319 482.500 201.983 316 C 241.671 171.291, 249.296 143.908, 251.753 137.250 C 252.118 136.259, 241.245 136.015, 199.357 136.070 C 152.189 136.133, 145.585 136.337, 138 137.961 M 1645.343 147.269 C 1645.257 153.465, 1644.450 162.802, 1643.551 168.017 C 1641.968 177.190, 1579.054 408.400, 1572.842 427.873 C 1569 439.919, 1560.497 461.718, 1555.103 473.350 C 1552.846 478.217, 1551 482.382, 1551 482.606 C 1551 482.830, 1744.387 482.898, 1980.750 482.757 L 2410.500 482.500 2418 480.210 C 2428.957 476.865, 2446.437 468.035, 2455.552 461.241 C 2465.015 454.188, 2477.963 440.890, 2483.945 432.082 C 2493.185 418.475, 2494.658 413.933, 2520.944 318.024 L 2546 226.604 2546 216.196 C 2546 203.981, 2544.324 196.581, 2539.294 186.587 C 2528.962 166.060, 2509.372 150.153, 2483.887 141.598 C 2466.031 135.604, 2496.569 136, 2052.119 136.002 L 1645.500 136.003 1645.343 147.269 M 1945.652 181.448 C 1936.493 192.694, 1929 202.144, 1929 202.448 C 1929 202.751, 1936.763 202.986, 1946.250 202.970 L 1963.500 202.940 1985 182.016 L 2006.500 161.092 1984.402 161.046 L 1962.303 161 1945.652 181.448 M 2215.754 181.500 L 2199.054 202 2216.777 201.979 L 2234.500 201.957 2255.500 181.528 L 2276.500 161.099 2254.477 161.050 L 2232.454 161 2215.754 181.500 M 2104.212 213.500 L 2102.026 218 2068.196 218 L 2034.366 218 2019.721 249.750 L 2005.076 281.500 2020.038 281.776 C 2031.385 281.985, 2035 282.361, 2035 283.332 C 2035 284.036, 2025.325 318.694, 2013.500 360.349 C 2001.675 402.005, 1992 436.292, 1992 436.543 C 1992 436.794, 2003.830 437, 2018.288 437 L 2044.576 437 2066.538 360.250 L 2088.500 283.500 2104.316 283 L 2120.132 282.500 2132.648 256 C 2139.532 241.425, 2147.346 224.887, 2150.012 219.250 L 2154.861 209 2130.630 209 L 2106.399 209 2104.212 213.500 M 2231.447 213.500 L 2228.810 218 2193.655 218.015 L 2158.500 218.031 2143.441 250.765 L 2128.382 283.500 2133.691 283.800 C 2137.552 284.018, 2139 284.500, 2139 285.566 C 2139 286.719, 2098.238 430.751, 2096.494 435.759 C 2096.145 436.763, 2106.431 436.966, 2147.186 436.759 L 2198.316 436.500 2214.114 403 C 2222.802 384.575, 2229.931 369.163, 2229.956 368.750 C 2229.980 368.337, 2216.310 368, 2199.579 368 L 2169.157 368 2170.919 361.750 L 2172.681 355.500 2198.190 355.233 L 2223.699 354.967 2237.227 327.233 L 2250.756 299.500 2220.128 299 L 2189.500 298.500 2189.823 296.191 C 2190.001 294.920, 2190.720 292.220, 2191.423 290.191 L 2192.700 286.500 2219.419 286 L 2246.139 285.500 2263.533 248 C 2273.099 227.375, 2280.943 210.162, 2280.963 209.750 C 2280.983 209.338, 2270.444 209, 2257.542 209 L 2234.084 209 2231.447 213.500 M 1776.030 224.250 C 1774.466 227.688, 1767.990 241.441, 1761.640 254.814 C 1755.290 268.187, 1749.818 279.999, 1749.480 281.064 C 1748.887 282.931, 1749.526 283, 1767.500 283 C 1784.792 283, 1786.095 283.126, 1785.580 284.750 C 1785.275 285.712, 1780.510 302.240, 1774.991 321.478 C 1769.473 340.717, 1764.003 358.428, 1762.837 360.837 C 1756.868 373.168, 1746.772 376.303, 1738.138 368.507 L 1734.500 365.223 1719.089 396.604 C 1701.321 432.782, 1701.721 429.282, 1714.630 435.662 C 1720.840 438.731, 1723.142 439.312, 1730.689 439.718 C 1751.650 440.844, 1771.257 431.976, 1789.087 413.308 C 1797.554 404.442, 1805.374 392.458, 1810.100 381.106 C 1811.827 376.957, 1823.251 338.560, 1835.486 295.781 L 1857.732 218 1818.303 218 L 1778.875 218 1776.030 224.250 M 1882.532 246.445 C 1873.749 262.045, 1866.407 275.278, 1866.216 275.852 C 1866.009 276.472, 1868.136 277.019, 1871.451 277.198 L 1877.033 277.500 1838.028 356.500 C 1816.576 399.950, 1799.018 435.837, 1799.012 436.250 C 1799.005 436.663, 1811.126 437, 1825.947 437 L 1852.894 437 1860.566 422 L 1868.237 407 1892.119 407 L 1916 407 1915.981 409.250 C 1915.970 410.488, 1915.309 416, 1914.512 421.500 C 1913.715 427, 1913.049 432.738, 1913.032 434.250 L 1913 437 1941 437 C 1958.483 437, 1969 436.635, 1969 436.027 C 1969 435.492, 1972.150 387.523, 1976 329.429 C 1979.850 271.335, 1983 222.498, 1983 220.902 L 1983 218 1940.750 218.041 L 1898.500 218.082 1882.532 246.445 M 2275.973 249.081 C 2268.013 266.176, 2261.350 280.576, 2261.167 281.081 C 2260.983 281.587, 2263.346 282, 2266.417 282 C 2269.488 282, 2272 282.229, 2272 282.508 C 2272 283.103, 2228.955 433.901, 2228.258 435.750 C 2227.888 436.731, 2233.571 436.999, 2254.643 436.996 L 2281.500 436.991 2292 400 C 2297.775 379.655, 2302.741 363.007, 2303.036 363.004 C 2303.331 363.002, 2305.729 378.637, 2308.365 397.750 C 2311 416.863, 2313.395 433.512, 2313.687 434.750 L 2314.217 437 2344.733 437 L 2375.250 437 2374.733 434.250 C 2374.449 432.738, 2370.727 406.954, 2366.464 376.954 L 2358.712 322.407 2395.856 270.634 C 2416.285 242.158, 2433 218.666, 2433 218.430 C 2433 218.193, 2420.217 218, 2404.593 218 L 2376.187 218 2350.367 253.441 C 2336.167 272.933, 2324.385 288.718, 2324.185 288.519 C 2323.896 288.229, 2330.606 264.144, 2342.927 221.250 L 2343.860 218 2317.153 218 L 2290.446 218 2275.973 249.081 M 1911.294 317.312 L 1896.129 348.500 1908.736 348.781 C 1916.212 348.948, 1921.590 348.663, 1921.949 348.082 C 1922.664 346.926, 1927.428 287.095, 1926.852 286.518 C 1926.635 286.302, 1919.634 300.159, 1911.294 317.312" stroke="none" fill="#018be9" fill-rule="evenodd"/><path d="M 1292.241 126.250 C 1291.689 126.938, 1290.051 129.863, 1288.602 132.750 L 1285.966 138 1232.233 138.002 L 1178.500 138.005 1155.332 188.252 L 1132.163 238.500 1140.698 238.791 L 1149.234 239.081 1148.692 241.791 C 1148.213 244.180, 1084.603 467.579, 1083.498 470.750 C 1083.152 471.743, 1099.064 472, 1160.895 472 L 1238.728 472 1262.864 420.687 C 1276.139 392.464, 1287 368.839, 1287 368.187 C 1287 367.288, 1275.798 367, 1240.883 367 C 1197.445 367, 1194.795 366.898, 1195.252 365.250 C 1195.519 364.288, 1196.765 359.793, 1198.022 355.261 L 1200.307 347.023 1239.191 346.761 L 1278.075 346.500 1298.836 304 L 1319.597 261.500 1272.234 261.240 C 1227.769 260.996, 1224.903 260.874, 1225.381 259.240 C 1225.661 258.283, 1226.884 254.012, 1228.099 249.750 L 1230.308 242 1270.980 242 L 1311.651 242 1320.286 223.250 C 1325.035 212.938, 1337.218 186.613, 1347.360 164.750 L 1365.799 125 1329.522 125 C 1301.702 125, 1293.011 125.291, 1292.241 126.250 M 304.978 144.239 C 303.368 147.682, 292.851 170.525, 281.607 195 L 261.162 239.500 269.930 239.786 L 278.698 240.071 246.310 353.286 C 228.497 415.553, 213.659 467.738, 213.336 469.250 L 212.750 472 253.333 472 L 293.915 472 295.904 465.250 C 296.997 461.538, 308.275 422.050, 320.966 377.500 C 333.657 332.950, 344.393 295.647, 344.825 294.605 C 345.418 293.172, 349.121 300.564, 360.013 324.925 C 367.935 342.643, 374.661 357.280, 374.958 357.451 C 375.256 357.622, 389 343.170, 405.500 325.337 C 422 307.503, 436.683 291.774, 438.129 290.384 C 440.505 288.100, 438.229 296.712, 414.522 379.678 L 388.285 471.500 425.797 471.762 C 446.429 471.906, 463.524 471.810, 463.786 471.547 C 464.295 471.038, 559 140.023, 559 138.752 C 559 138.339, 541.033 138, 519.072 138 L 479.145 138 448.395 172.250 C 431.483 191.088, 417.388 206.612, 417.073 206.749 C 416.758 206.886, 410.649 191.586, 403.497 172.749 L 390.494 138.500 349.200 138.239 L 307.905 137.978 304.978 144.239 M 565.141 186.939 C 552.413 213.856, 542 236.131, 542 236.439 C 542 236.748, 545.825 237, 550.500 237 C 555.175 237, 558.994 237.338, 558.986 237.750 C 558.978 238.162, 543.971 291.042, 525.637 355.261 L 492.303 472.022 532.865 471.761 L 573.428 471.500 621.072 304.750 L 668.717 138 628.499 138 L 588.281 138 565.141 186.939 M 674.728 182.750 L 653.105 227.500 661.901 227.786 L 670.698 228.071 636.447 347.939 C 617.609 413.866, 601.897 468.750, 601.531 469.903 L 600.865 472 641.727 472 L 682.589 472 703.545 398.585 C 715.070 358.206, 724.618 325.287, 724.763 325.431 C 724.908 325.575, 731.558 357.825, 739.540 397.097 C 747.523 436.368, 754.297 469.288, 754.594 470.250 C 755.095 471.870, 757.559 471.999, 787.817 471.992 L 820.500 471.984 866.943 309.242 C 892.487 219.734, 913.954 144.582, 914.649 142.239 L 915.911 137.978 875.241 138.239 L 834.571 138.500 818.637 194.268 C 809.874 224.941, 802.591 249.916, 802.453 249.768 C 802.316 249.621, 797.188 225.200, 791.058 195.500 C 784.928 165.800, 779.677 140.713, 779.389 139.750 C 778.901 138.120, 776.034 138, 737.608 138 L 696.350 138 674.728 182.750 M 942.676 140.704 C 939.918 146.125, 898 236.889, 898 237.441 C 898 237.748, 901.874 238, 906.608 238 L 915.217 238 914.533 240.750 C 914.157 242.262, 899.517 293.675, 882 355 C 864.483 416.325, 849.835 467.768, 849.450 469.318 L 848.749 472.136 898.125 471.739 L 947.500 471.343 959 468.576 C 1012.979 455.586, 1062.133 413.485, 1091.426 355.149 C 1104.643 328.828, 1115.247 295.338, 1119.653 266 C 1122.004 250.342, 1121.994 223.661, 1119.631 211.626 C 1113.118 178.450, 1098.944 156.887, 1076.500 146.012 C 1060.853 138.431, 1063.038 138.653, 1000.300 138.260 L 944.099 137.907 942.676 140.704 M 1357.865 182.739 L 1336.275 227.500 1344.998 228 L 1353.720 228.500 1320.854 343.500 C 1302.777 406.750, 1287.125 461.537, 1286.071 465.250 L 1284.154 472 1324.937 472 L 1365.720 472 1386.567 399.006 C 1398.032 358.860, 1407.694 326.347, 1408.037 326.756 C 1408.381 327.165, 1415.069 359.225, 1422.901 398 C 1430.732 436.775, 1437.363 469.288, 1437.637 470.250 C 1438.098 471.871, 1440.549 472, 1470.856 472 L 1503.577 472 1550.923 306.250 C 1576.963 215.087, 1598.483 139.932, 1598.746 139.239 C 1599.126 138.234, 1590.937 138.031, 1558.466 138.239 L 1517.710 138.500 1501.890 193.882 C 1493.188 224.342, 1485.922 249.411, 1485.742 249.591 C 1485.562 249.771, 1480.233 224.849, 1473.900 194.209 L 1462.386 138.500 1420.921 138.239 L 1379.455 137.978 1357.865 182.739 M 996.516 239.213 C 996.268 239.921, 988.115 268.400, 978.397 302.500 C 968.680 336.600, 960.502 365.103, 960.223 365.840 C 959.818 366.913, 960.887 367.037, 965.609 366.461 C 980.520 364.642, 992.426 358.542, 1004.563 346.500 C 1016.349 334.806, 1023.863 320.953, 1028.918 301.596 C 1035.250 277.352, 1033.259 259.916, 1022.861 248.539 C 1017.436 242.602, 1011.617 239.799, 1002.233 238.600 C 998.349 238.103, 996.847 238.265, 996.516 239.213" stroke="none" fill="#ff0c13" fill-rule="evenodd"/><path d="M 440 0.668 C 401.601 6.748, 362.476 23.542, 325.870 49.657 C 311.910 59.616, 302.735 67.514, 290.455 80.142 C 269.486 101.706, 257.202 120.563, 250.160 142 C 246.894 151.941, 156.896 478.690, 154.309 490 C 152.159 499.398, 153.040 521.917, 155.949 531.933 C 158.867 541.978, 163.652 552.075, 170.001 561.587 C 177.256 572.455, 196.193 591.070, 207.962 598.900 C 228.291 612.426, 252.396 622.221, 274.769 626.046 C 286.012 627.968, 294.955 628, 822.849 627.994 C 1411.710 627.988, 1366.109 628.462, 1390.495 622.085 C 1452.366 605.906, 1505.697 562.440, 1542.748 497.997 C 1552.473 481.084, 1565.628 450.424, 1572.836 427.873 C 1578.856 409.042, 1641.944 177.335, 1643.593 168 C 1645.911 154.885, 1645.931 130.383, 1643.634 118.661 C 1633.554 67.216, 1594.562 22.648, 1545.163 6.106 C 1525.386 -0.516, 1572.900 -0.014, 980.619 0.136 C 684.654 0.211, 441.375 0.450, 440 0.668 M 1292.241 126.250 C 1291.689 126.938, 1290.051 129.863, 1288.602 132.750 L 1285.966 138 1232.233 138.002 L 1178.500 138.005 1155.332 188.252 L 1132.163 238.500 1140.698 238.791 L 1149.234 239.081 1148.692 241.791 C 1148.213 244.180, 1084.603 467.579, 1083.498 470.750 C 1083.152 471.743, 1099.064 472, 1160.895 472 L 1238.728 472 1262.864 420.687 C 1276.139 392.464, 1287 368.839, 1287 368.187 C 1287 367.288, 1275.798 367, 1240.883 367 C 1197.445 367, 1194.795 366.898, 1195.252 365.250 C 1195.519 364.288, 1196.765 359.793, 1198.022 355.261 L 1200.307 347.023 1239.191 346.761 L 1278.075 346.500 1298.836 304 L 1319.597 261.500 1272.234 261.240 C 1227.769 260.996, 1224.903 260.874, 1225.381 259.240 C 1225.661 258.283, 1226.884 254.012, 1228.099 249.750 L 1230.308 242 1270.980 242 L 1311.651 242 1320.286 223.250 C 1325.035 212.938, 1337.218 186.613, 1347.360 164.750 L 1365.799 125 1329.522 125 C 1301.702 125, 1293.011 125.291, 1292.241 126.250 M 304.978 144.239 C 303.368 147.682, 292.851 170.525, 281.607 195 L 261.162 239.500 269.930 239.786 L 278.698 240.071 246.310 353.286 C 228.497 415.553, 213.659 467.738, 213.336 469.250 L 212.750 472 253.333 472 L 293.915 472 295.904 465.250 C 296.997 461.538, 308.275 422.050, 320.966 377.500 C 333.657 332.950, 344.393 295.647, 344.825 294.605 C 345.418 293.172, 349.121 300.564, 360.013 324.925 C 367.935 342.643, 374.661 357.280, 374.958 357.451 C 375.256 357.622, 389 343.170, 405.500 325.337 C 422 307.503, 436.683 291.774, 438.129 290.384 C 440.505 288.100, 438.229 296.712, 414.522 379.678 L 388.285 471.500 425.797 471.762 C 446.429 471.906, 463.524 471.810, 463.786 471.547 C 464.295 471.038, 559 140.023, 559 138.752 C 559 138.339, 541.033 138, 519.072 138 L 479.145 138 448.395 172.250 C 431.483 191.088, 417.388 206.612, 417.073 206.749 C 416.758 206.886, 410.649 191.586, 403.497 172.749 L 390.494 138.500 349.200 138.239 L 307.905 137.978 304.978 144.239 M 565.141 186.939 C 552.413 213.856, 542 236.131, 542 236.439 C 542 236.748, 545.825 237, 550.500 237 C 555.175 237, 558.994 237.338, 558.986 237.750 C 558.978 238.162, 543.971 291.042, 525.637 355.261 L 492.303 472.022 532.865 471.761 L 573.428 471.500 621.072 304.750 L 668.717 138 628.499 138 L 588.281 138 565.141 186.939 M 674.728 182.750 L 653.105 227.500 661.901 227.786 L 670.698 228.071 636.447 347.939 C 617.609 413.866, 601.897 468.750, 601.531 469.903 L 600.865 472 641.727 472 L 682.589 472 703.545 398.585 C 715.070 358.206, 724.618 325.287, 724.763 325.431 C 724.908 325.575, 731.558 357.825, 739.540 397.097 C 747.523 436.368, 754.297 469.288, 754.594 470.250 C 755.095 471.870, 757.559 471.999, 787.817 471.992 L 820.500 471.984 866.943 309.242 C 892.487 219.734, 913.954 144.582, 914.649 142.239 L 915.911 137.978 875.241 138.239 L 834.571 138.500 818.637 194.268 C 809.874 224.941, 802.591 249.916, 802.453 249.768 C 802.316 249.621, 797.188 225.200, 791.058 195.500 C 784.928 165.800, 779.677 140.713, 779.389 139.750 C 778.901 138.120, 776.034 138, 737.608 138 L 696.350 138 674.728 182.750 M 942.676 140.704 C 939.918 146.125, 898 236.889, 898 237.441 C 898 237.748, 901.874 238, 906.608 238 L 915.217 238 914.533 240.750 C 914.157 242.262, 899.517 293.675, 882 355 C 864.483 416.325, 849.835 467.768, 849.450 469.318 L 848.749 472.136 898.125 471.739 L 947.500 471.343 959 468.576 C 1012.979 455.586, 1062.133 413.485, 1091.426 355.149 C 1104.643 328.828, 1115.247 295.338, 1119.653 266 C 1122.004 250.342, 1121.994 223.661, 1119.631 211.626 C 1113.118 178.450, 1098.944 156.887, 1076.500 146.012 C 1060.853 138.431, 1063.038 138.653, 1000.300 138.260 L 944.099 137.907 942.676 140.704 M 1357.865 182.739 L 1336.275 227.500 1344.998 228 L 1353.720 228.500 1320.854 343.500 C 1302.777 406.750, 1287.125 461.537, 1286.071 465.250 L 1284.154 472 1324.937 472 L 1365.720 472 1386.567 399.006 C 1398.032 358.860, 1407.694 326.347, 1408.037 326.756 C 1408.381 327.165, 1415.069 359.225, 1422.901 398 C 1430.732 436.775, 1437.363 469.288, 1437.637 470.250 C 1438.098 471.871, 1440.549 472, 1470.856 472 L 1503.577 472 1550.923 306.250 C 1576.963 215.087, 1598.483 139.932, 1598.746 139.239 C 1599.126 138.234, 1590.937 138.031, 1558.466 138.239 L 1517.710 138.500 1501.890 193.882 C 1493.188 224.342, 1485.922 249.411, 1485.742 249.591 C 1485.562 249.771, 1480.233 224.849, 1473.900 194.209 L 1462.386 138.500 1420.921 138.239 L 1379.455 137.978 1357.865 182.739 M 996.516 239.213 C 996.268 239.921, 988.115 268.400, 978.397 302.500 C 968.680 336.600, 960.502 365.103, 960.223 365.840 C 959.818 366.913, 960.887 367.037, 965.609 366.461 C 980.520 364.642, 992.426 358.542, 1004.563 346.500 C 1016.349 334.806, 1023.863 320.953, 1028.918 301.596 C 1035.250 277.352, 1033.259 259.916, 1022.861 248.539 C 1017.436 242.602, 1011.617 239.799, 1002.233 238.600 C 998.349 238.103, 996.847 238.265, 996.516 239.213" stroke="none" fill="#04040c" fill-rule="evenodd"/><path d="" stroke="none" fill="#fb454b" fill-rule="evenodd"/></svg>