<svg xmlns="http://www.w3.org/2000/svg" width="2658" height="642" viewBox="0 0 2658 642" version="1.1"><path d="M 1260.500 92.453 C 1242.442 97.145, 1229.099 102.108, 1223.802 106.101 C 1218.373 110.194, 1215.308 114.551, 1205.979 131.443 C 1197.088 147.541, 1194.616 151.097, 1187.516 158 C 1184.404 161.025, 1180.273 165.643, 1178.336 168.261 C 1168.181 181.986, 1170.858 204.197, 1183.730 213.017 C 1185.529 214.250, 1187 215.615, 1187 216.051 C 1187 216.488, 1185.453 217.356, 1183.561 217.980 C 1179.045 219.470, 1165.460 228.040, 1154.921 236.048 C 1125.216 258.616, 1098.398 294.739, 1083.575 332.148 C 1077.809 346.700, 1070.446 375.372, 1069.095 388.539 C 1067.851 400.659, 1068.840 411.580, 1072.487 426 C 1075.724 438.797, 1079.245 446.182, 1086.776 455.965 C 1093.007 464.060, 1101.052 471.077, 1109.157 475.489 C 1116.184 479.313, 1130.943 482.956, 1139.500 482.977 C 1147.748 482.998, 1163.460 479.093, 1169.596 475.497 C 1176.808 471.270, 1190.275 460.884, 1197.251 454.168 C 1200.965 450.594, 1204.149 447.856, 1204.328 448.085 C 1204.506 448.313, 1205.640 450.444, 1206.847 452.820 C 1218.527 475.817, 1240.633 484.603, 1267.817 477.054 C 1277.568 474.346, 1288.219 467.837, 1297.535 458.891 L 1303.660 453.009 1305.963 455.461 C 1307.230 456.810, 1311.313 459.956, 1315.035 462.454 C 1323.358 468.038, 1337.772 472.277, 1348.500 472.296 C 1356.651 472.311, 1370.791 468.993, 1379.500 465.023 C 1388.086 461.110, 1400.507 452.001, 1407.637 444.390 L 1413.775 437.838 1412.403 443.669 C 1410.261 452.773, 1410.651 463.174, 1413.540 474 C 1417.190 487.677, 1423.741 497.071, 1435.459 505.433 C 1443.250 510.993, 1448.542 513.104, 1461.971 516.008 C 1470.852 517.928, 1474.270 518.185, 1484.471 517.699 C 1499.813 516.968, 1517.866 512.620, 1530.463 506.623 C 1547.160 498.674, 1570.692 478.826, 1583.289 462.069 C 1585.880 458.622, 1588 456.227, 1588 456.746 C 1588 458.286, 1597.020 466.627, 1603.904 471.453 C 1612.591 477.542, 1622.174 481.350, 1639.184 485.472 C 1665.214 491.780, 1683.648 492.687, 1701.936 488.558 C 1715.851 485.417, 1723.081 482.432, 1732.714 475.849 C 1742.995 468.825, 1750.427 461.198, 1757.540 450.373 C 1760.746 445.493, 1763.521 441.303, 1763.706 441.062 C 1763.891 440.822, 1765.945 442.467, 1768.271 444.720 C 1779.673 455.759, 1797.392 465.900, 1813.153 470.406 C 1838.117 477.541, 1852.154 478.193, 1872.177 473.144 C 1892.208 468.092, 1902.530 463.237, 1920 450.647 C 1929.999 443.440, 1942.627 431.638, 1947.629 424.824 C 1950.985 420.253, 1953 419.389, 1953 422.522 C 1953 428.345, 1963.213 445.978, 1971.231 453.996 C 1981.047 463.812, 1990.113 468.292, 2006.608 471.479 C 2015.215 473.142, 2016.178 473.146, 2024.108 471.549 C 2049.540 466.428, 2066.583 455.570, 2083.112 433.957 L 2085.725 430.541 2087.984 435.020 C 2093.690 446.333, 2101.997 455.731, 2112.596 462.863 C 2120.223 467.995, 2135.160 472.278, 2145.500 472.296 C 2154.275 472.312, 2168.284 468.873, 2177.500 464.440 C 2186.988 459.877, 2200.711 449.461, 2206.672 442.299 L 2211.573 436.409 2213.803 441.455 C 2217.721 450.319, 2228.189 463.347, 2236.190 469.315 C 2240.210 472.315, 2245.017 475.536, 2246.871 476.473 C 2252.529 479.333, 2268.834 483, 2275.878 482.997 C 2283.900 482.994, 2299.650 478.968, 2305.988 475.300 C 2313.469 470.970, 2328.125 459.542, 2334.413 453.136 L 2340.327 447.112 2342.523 451.806 C 2348.687 464.978, 2359.975 474.798, 2372.615 477.983 C 2383.105 480.626, 2390.599 480.504, 2401.776 477.510 C 2413.103 474.475, 2415.500 473.295, 2424.882 466.134 C 2428.943 463.035, 2433.094 459.890, 2434.108 459.144 C 2435.743 457.941, 2436.249 458.142, 2438.592 460.927 C 2442.832 465.966, 2453.050 472.682, 2459 474.340 C 2471.982 477.958, 2475.661 478.275, 2483.819 476.477 C 2488.043 475.545, 2492.937 474.191, 2494.693 473.467 L 2497.885 472.150 2501.098 481.825 C 2508.134 503.018, 2523.985 528.518, 2538.190 541.500 C 2547.750 550.236, 2555.632 554.540, 2566.801 557.121 C 2576.112 559.272, 2576.371 559.279, 2583.878 557.529 C 2593.034 555.395, 2593.603 555.117, 2602.512 548.439 C 2610.091 542.756, 2619.515 531.688, 2630.727 515.301 C 2645.424 493.820, 2643.135 483.408, 2617.473 455 C 2610.725 447.531, 2605.053 439.469, 2599.175 428.994 L 2596.085 423.489 2602.683 413.494 C 2619.953 387.337, 2632.376 351.448, 2634.527 321.500 C 2635.283 310.972, 2632.727 297.065, 2628.412 288.236 C 2625.856 283.006, 2617.196 273.338, 2611.547 269.408 L 2608.593 267.354 2612.697 259.427 C 2617.967 249.251, 2622.040 237.558, 2625.563 222.500 C 2628.007 212.050, 2628.368 208.498, 2628.357 195 C 2628.345 180.824, 2628.075 178.479, 2625.189 167.544 C 2621.490 153.530, 2618.827 147.712, 2611.959 138.639 C 2601.089 124.281, 2588.870 117.293, 2568.705 113.905 C 2561.835 112.750, 2559.945 112.806, 2552.223 114.389 C 2540.150 116.864, 2533.456 119.755, 2523.916 126.612 C 2505.085 140.147, 2486.423 166.010, 2468.435 203.500 C 2459.734 221.634, 2450.755 243.855, 2444.891 261.766 L 2440.547 275.033 2438.217 263.886 C 2436.936 257.755, 2435.007 250.885, 2433.931 248.619 C 2430.002 240.347, 2422.162 231.112, 2413.755 224.852 C 2403.613 217.301, 2399.910 215.613, 2385.135 211.808 C 2364.772 206.563, 2346.109 207.954, 2323.709 216.385 C 2303.788 223.883, 2275.517 246.278, 2257.330 268.966 C 2229.349 303.871, 2217.771 328.857, 2206.491 378.678 C 2206.035 380.692, 2205.567 380.812, 2200.249 380.277 C 2197.087 379.959, 2194.169 379.204, 2193.765 378.600 C 2192.427 376.596, 2192.972 358.548, 2194.996 337.882 C 2197.919 308.027, 2197.163 310.629, 2203.489 308.635 C 2213.796 305.386, 2225.622 294.460, 2232.490 281.842 C 2235.437 276.426, 2239.655 260.624, 2240.587 251.500 C 2241.036 247.107, 2240.651 243.306, 2239.149 237.309 C 2236.779 227.847, 2233.132 222.165, 2226.318 217.321 C 2223.785 215.520, 2221.552 213.885, 2221.355 213.688 C 2221.158 213.492, 2223.455 205.709, 2226.459 196.393 C 2232.675 177.119, 2235.990 164.096, 2235.978 159 C 2235.973 157.075, 2235.076 151.953, 2233.983 147.618 C 2230.367 133.265, 2221.773 124.693, 2207.380 121.083 C 2196.875 118.449, 2194.677 118.482, 2182.746 121.451 C 2171.797 124.177, 2166.393 126.821, 2156.424 134.332 C 2141.490 145.583, 2134.067 158.420, 2122.799 192.482 L 2115.714 213.901 2109.856 218.450 C 2106.634 220.953, 2103.767 223, 2103.485 223 C 2102.807 223, 2091.576 213.890, 2091.238 213.066 C 2091.094 212.715, 2093.431 204.885, 2096.431 195.667 C 2099.431 186.449, 2102.895 174.389, 2104.127 168.867 L 2106.369 158.827 2104.153 149.664 C 2100.241 133.488, 2092.089 124.853, 2077.126 121.032 C 2067.032 118.455, 2064.634 118.492, 2052.906 121.412 C 2041.713 124.198, 2036.978 126.419, 2027.773 133.200 C 2010.604 145.847, 2002.551 159.907, 1990.543 198.197 L 1985.620 213.893 1979.171 218.628 C 1972.356 223.633, 1962.417 235.916, 1958.641 244 C 1957.486 246.475, 1956.408 248.698, 1956.247 248.940 C 1956.086 249.182, 1953.827 247.338, 1951.227 244.844 C 1948.627 242.349, 1945.037 239.308, 1943.248 238.085 C 1940.768 236.389, 1940.126 235.344, 1940.543 233.681 C 1940.843 232.481, 1940.359 228.354, 1939.467 224.508 C 1936.493 211.695, 1928.333 204.637, 1912.146 200.876 C 1897.172 197.397, 1881.297 197.713, 1864.690 201.822 C 1847.706 206.025, 1839.101 209.747, 1825.747 218.669 C 1805.928 231.910, 1795.001 242.236, 1780.599 261.331 C 1776.969 266.144, 1774.008 269.950, 1774.017 269.790 C 1774.027 269.631, 1774.919 266.125, 1776 262 C 1778.392 252.873, 1778.461 249.584, 1776.423 241.644 C 1773.578 230.555, 1766.117 221.586, 1755.530 216.529 C 1744.794 211.401, 1730.482 209.715, 1674.381 206.969 C 1654.423 205.993, 1652.718 206.053, 1643.381 208.061 C 1637.946 209.230, 1631.331 211.358, 1628.679 212.791 C 1622.084 216.354, 1611.882 225.905, 1606.267 233.775 L 1601.606 240.306 1599.118 236.903 C 1594.705 230.867, 1582.513 219.596, 1576.587 216.074 C 1566.695 210.196, 1556.395 207.633, 1542.500 207.594 C 1520.298 207.532, 1498.796 215.293, 1477.975 230.883 C 1465.466 240.250, 1454.228 251.349, 1446.353 262.116 C 1443.200 266.427, 1440.520 269.852, 1440.398 269.727 C 1440.276 269.602, 1441.028 265.450, 1442.071 260.500 C 1444.445 249.225, 1444.440 246.367, 1442.030 236.803 C 1439.777 227.865, 1435.994 222.067, 1429.318 217.321 C 1426.785 215.520, 1424.552 213.885, 1424.355 213.688 C 1424.158 213.492, 1426.455 205.709, 1429.459 196.393 C 1435.675 177.119, 1438.990 164.096, 1438.978 159 C 1438.973 157.075, 1438.076 151.953, 1436.983 147.618 C 1433.367 133.265, 1424.773 124.693, 1410.380 121.083 C 1399.875 118.449, 1397.677 118.482, 1385.746 121.451 C 1374.797 124.177, 1369.393 126.821, 1359.424 134.332 C 1344.484 145.587, 1337.068 158.417, 1325.783 192.532 L 1318.682 214 1313.091 218.220 C 1306.133 223.472, 1303.974 225.763, 1297.972 234.267 L 1293.196 241.035 1289.553 236.072 C 1285.547 230.615, 1273.926 221.387, 1266.126 217.469 C 1263.379 216.090, 1256.532 213.756, 1250.908 212.282 C 1242.585 210.100, 1241.020 209.407, 1242.493 208.551 C 1248.517 205.051, 1264.596 192.232, 1270.883 185.916 C 1285.344 171.392, 1300.929 150.152, 1304.885 139.577 C 1305.983 136.642, 1307.509 130.922, 1308.274 126.868 C 1311.660 108.937, 1302.780 93.457, 1287.201 90.131 C 1279.081 88.398, 1274.603 88.787, 1260.500 92.453 M 964.711 111.506 C 953.013 113.400, 934.077 118.404, 929.323 120.858 C 917.653 126.880, 906.168 139.436, 898.092 155 C 893.582 163.691, 890.961 171.796, 888.488 184.702 C 886.794 193.547, 886.796 194.244, 888.556 202.627 C 890.791 213.281, 895.441 220.828, 903.535 226.939 C 909.940 231.774, 913.252 233.069, 925.279 235.439 C 933.471 237.054, 934.606 237.061, 942.279 235.543 C 946.800 234.649, 954.490 232.788, 959.366 231.407 C 964.242 230.027, 968.345 229.033, 968.484 229.199 C 968.623 229.365, 967.924 237.150, 966.931 246.500 C 962.237 290.692, 955.279 336.321, 953.347 335.580 C 952.655 335.314, 949.386 334.538, 946.083 333.856 C 940.886 332.783, 939.058 332.856, 932.497 334.403 C 926.257 335.874, 923.553 337.208, 917.208 341.943 C 904.639 351.322, 894.354 363.393, 887.762 376.500 C 877.650 396.609, 869.866 434.807, 871.461 456.500 C 872.750 474.020, 879.257 498.530, 886.518 513.211 C 894.670 529.694, 904.439 542.048, 915.006 549.239 C 922.009 554.004, 934.911 557.467, 942.947 556.738 C 965.968 554.649, 983.997 542.483, 1000.858 517.662 C 1032.884 470.516, 1076.688 326.731, 1099.003 195.500 C 1104.284 164.445, 1104.679 158.520, 1102.120 148.769 C 1098.942 136.659, 1091.138 127.613, 1078.256 121.108 C 1073.723 118.820, 1054.039 113.759, 1042.500 111.915 C 1031.138 110.100, 975.209 109.806, 964.711 111.506 M 141.500 115.466 C 121.710 120.552, 109.128 125.791, 98.647 133.313 C 82.728 144.737, 80.741 166.409, 94.260 181.168 L 97.614 184.830 93.764 194.665 C 89.552 205.427, 68.259 271.710, 58.802 303.500 C 44.529 351.478, 35.490 377.192, 24.525 401 C 12.669 426.745, 10.179 438.184, 13.578 451.301 C 16.760 463.582, 24.830 470.763, 38.732 473.686 C 46.641 475.348, 47.028 475.337, 57.606 473.117 C 71.302 470.244, 77.985 467.512, 87.652 460.835 C 98.766 453.158, 104.774 447.335, 111.911 437.322 C 123.951 420.430, 125.616 416.007, 143.977 352.143 L 146.667 342.785 151.926 358.143 C 161.604 386.400, 178.210 426.441, 185.199 438.369 C 191.818 449.667, 199.621 459.381, 205.911 464.154 C 224.499 478.257, 247.096 474.443, 261.610 454.751 C 273.816 438.190, 281.395 416.401, 317.177 295 C 337.279 226.795, 350.684 173.603, 351.701 158 C 352.376 147.656, 349.243 133.558, 344.938 127.563 C 338.923 119.187, 328.099 114.035, 316.500 114.027 C 310.415 114.022, 293.384 118.588, 288.150 121.627 C 277.412 127.862, 267.756 136.644, 261.350 146 C 253.588 157.336, 248.859 170.246, 241.038 201.443 L 235.287 224.386 233.554 216.443 C 226.731 185.156, 217.010 150.964, 212.262 141.552 C 204.955 127.069, 194.674 118.481, 179.904 114.524 C 166.724 110.993, 158.079 111.205, 141.500 115.466 M 1268 114.588 C 1259.271 116.901, 1243.827 122.113, 1239.958 124.053 C 1237.037 125.517, 1235.121 128.167, 1229.032 139.164 C 1217.957 159.165, 1213.548 165.594, 1204.362 175.144 C 1196.429 183.390, 1196 184.064, 1196 188.295 C 1196 193.338, 1197.007 194.542, 1202.003 195.475 C 1211.665 197.281, 1229.562 189.914, 1244.133 178.135 C 1259.116 166.022, 1278.526 142.017, 1283.126 129.910 C 1285.464 123.757, 1285.903 116.793, 1284.090 114.609 C 1282.413 112.588, 1275.586 112.579, 1268 114.588 M 970 134.682 C 955.225 136.211, 939.946 141.165, 933.358 146.563 C 921.327 156.421, 909.454 184.207, 911.486 197.752 C 912.325 203.349, 916.685 208.332, 922.780 210.660 C 933.058 214.585, 946.461 212.025, 980.500 199.632 C 988.750 196.629, 995.612 194.282, 995.748 194.417 C 996.098 194.764, 991.377 243.006, 988.938 264 C 979.804 342.649, 956.399 457.189, 943.922 484.299 C 941.477 489.613, 940.576 484.364, 940.180 462.500 C 939.775 440.131, 941.243 419.574, 945.107 393.500 C 948.859 368.179, 947.473 357, 940.582 357 C 933.784 357, 919.395 369.371, 912.490 381.152 C 899.890 402.652, 893.216 434.318, 895.840 460.158 C 898.893 490.223, 914.249 521.837, 929.946 530.376 C 934.687 532.955, 935.935 533.202, 942.018 532.767 C 959.073 531.546, 974.612 518.003, 988.793 492 C 1006.812 458.958, 1033.486 380.458, 1051.427 307.674 C 1065.851 249.157, 1079.974 175.758, 1079.995 159.200 C 1080.012 145.465, 1065.982 138.222, 1033.144 135.012 C 1023.610 134.080, 978.116 133.843, 970 134.682 M 147 138.072 C 136.425 140.973, 120.017 147.648, 114.322 151.366 C 110.166 154.079, 109.457 155.028, 109.191 158.234 C 108.911 161.608, 109.487 162.598, 115.401 168.895 C 118.987 172.713, 122.213 177.001, 122.570 178.425 C 123.551 182.330, 122.411 186.749, 116.545 201.794 C 110.920 216.224, 88.706 285.114, 77.623 322.500 C 65.375 363.820, 56.214 389.439, 44.725 414.500 C 37.668 429.894, 36 434.947, 36 440.924 C 36 447.408, 38.181 450.041, 44.105 450.708 C 55.145 451.953, 71.218 445.202, 82.843 434.439 C 94.685 423.475, 102.302 409.968, 108.932 388.175 C 117.671 359.448, 124.922 333.217, 134.552 295.500 C 140.449 272.400, 145.603 252.876, 146.003 252.114 C 146.448 251.268, 147.015 252.632, 147.459 255.614 C 148.359 261.664, 155.780 290.914, 161.010 309.026 C 169.454 338.271, 181.410 371.626, 193.978 401 C 208.670 435.340, 217.713 447.689, 228.958 448.770 C 233.637 449.220, 234.031 449.051, 238.846 444.548 C 248.922 435.122, 257.976 411.364, 281.546 332.500 C 326.994 180.433, 334.347 146.516, 323.421 139.356 C 319.349 136.688, 309.390 138.009, 300.520 142.392 C 278.056 153.495, 270.683 170.870, 252.950 254.500 C 250.151 267.700, 246.033 286.129, 243.798 295.453 L 239.735 312.405 236.991 306.953 C 229.537 292.140, 220.007 260.621, 209.493 216 C 196.184 159.520, 190.331 144.868, 178.643 138.770 C 172.564 135.598, 157.247 135.260, 147 138.072 M 2550.905 138.832 C 2530.391 145.635, 2508.121 173.930, 2486.957 220.078 C 2460.937 276.816, 2445.246 337.566, 2443.322 389.025 C 2442.442 412.554, 2445.337 428.653, 2452.484 439.974 C 2455.677 445.032, 2462.103 450.541, 2466.619 452.090 C 2472.412 454.077, 2482.033 453.749, 2486.002 451.429 C 2490.086 449.042, 2494.694 440.942, 2499.614 427.500 C 2513.885 388.514, 2535.014 356, 2546.077 356 C 2550.475 356, 2553 360.054, 2553 367.115 C 2553 380.293, 2545.484 391.311, 2522.998 411.098 L 2515.500 417.697 2515.512 430.598 C 2515.526 445.519, 2516.794 453.012, 2522.030 469.106 C 2529.453 491.925, 2540.163 510.158, 2553.789 523.177 C 2566.833 535.639, 2576.762 537.943, 2586.702 530.816 C 2596.365 523.886, 2616.811 496.308, 2615.644 491.776 C 2614.995 489.255, 2608.093 480.252, 2597.663 468.321 C 2589.141 458.572, 2584.007 450.885, 2575.095 434.533 L 2568.103 421.703 2572.176 416.101 C 2595.073 384.619, 2607.124 355.666, 2610.170 324.822 C 2611.165 314.738, 2611.101 312.244, 2609.696 306.553 C 2606.273 292.679, 2598.011 286, 2584.272 286 C 2571.641 286, 2561.157 290.552, 2546.276 302.498 C 2535.250 311.348, 2525.949 321.687, 2518.859 332.974 C 2515.636 338.103, 2513 341.633, 2513 340.818 C 2513 337.177, 2518.187 298.054, 2520.405 284.967 C 2527.688 241.995, 2540.285 196.285, 2550.356 176.286 C 2554.402 168.252, 2556.657 165.846, 2558.061 168.064 C 2559.287 170.003, 2559.239 192.354, 2557.981 205.144 C 2555.879 226.515, 2551.362 246.022, 2543.941 265.780 C 2541.773 271.550, 2540 277.775, 2540 279.613 C 2540 290.281, 2558.883 286.525, 2573.368 272.975 C 2587.140 260.092, 2598.154 238.843, 2603.159 215.500 C 2605.118 206.364, 2604.842 181.963, 2602.689 174 C 2598.381 158.062, 2589.962 146.568, 2578.440 140.896 C 2570.261 136.870, 2559.300 136.048, 2550.905 138.832 M 1390.500 144.351 C 1378.976 148.164, 1368.539 156.048, 1362.503 165.500 C 1360.747 168.250, 1357.486 175, 1355.255 180.500 C 1351.274 190.317, 1342.040 217.984, 1339.874 226.587 C 1338.874 230.558, 1338.276 231.185, 1333.328 233.450 C 1325.770 236.910, 1317.936 245.239, 1313.282 254.762 C 1309.594 262.308, 1309.500 262.777, 1309.500 273.667 C 1309.500 284.131, 1309.654 284.998, 1311.942 287.436 C 1313.387 288.976, 1315.968 290.291, 1318.265 290.658 C 1321.589 291.190, 1322.072 291.583, 1321.628 293.390 C 1320.238 299.040, 1309.631 350.901, 1307.799 361 C 1304.684 378.173, 1304.690 401.662, 1307.811 412.465 C 1311.096 423.836, 1315.344 431.157, 1322.589 437.934 C 1336.210 450.676, 1352.685 451.968, 1372.240 441.829 C 1385.109 435.156, 1402.795 416.273, 1404.593 407.287 L 1405.160 404.451 1397.079 403.369 C 1385.609 401.833, 1380.595 398.569, 1376.063 389.687 C 1372.880 383.447, 1372.596 382.124, 1372.206 371.725 C 1371.493 352.713, 1376.631 307.536, 1381.131 293.250 C 1381.788 291.164, 1382.934 289.846, 1384.328 289.573 C 1385.522 289.338, 1389.336 288.597, 1392.801 287.925 C 1400.833 286.370, 1406.911 282.347, 1411.361 275.643 C 1420.332 262.128, 1422.647 241.062, 1415.661 236.527 C 1414.472 235.755, 1409.563 234.141, 1404.750 232.939 C 1399.938 231.738, 1396 230.461, 1396 230.102 C 1396 227.317, 1402.976 202.026, 1408.031 186.486 C 1416.791 159.554, 1416.933 151.626, 1408.763 145.636 C 1405.357 143.138, 1396.129 142.489, 1390.500 144.351 M 2054.977 145.276 C 2046.704 148.097, 2036.259 155.517, 2031.570 161.905 C 2029.572 164.626, 2026.376 170.234, 2024.466 174.367 C 2021.064 181.730, 2012.573 206.145, 2007.551 223 C 2005.054 231.382, 2004.957 231.525, 2000.563 233.327 C 1991.498 237.043, 1981.992 248.100, 1977.845 259.751 C 1975.341 266.787, 1974.840 279.935, 1976.891 284.797 C 1978.414 288.409, 1982.436 291, 1986.518 291 C 1988.546 291, 1989.015 291.394, 1988.603 292.750 C 1986.015 301.262, 1974.682 358.862, 1972.916 372.480 C 1971.462 383.691, 1972.259 404.486, 1974.449 412.465 C 1979.853 432.151, 1992.300 444.972, 2008.938 447.989 C 2021.780 450.317, 2037.708 444.855, 2051.837 433.278 C 2060.409 426.253, 2073.288 407.894, 2071.581 405.131 C 2071.294 404.666, 2068.644 404.037, 2065.693 403.732 C 2043.953 401.488, 2036.222 387.892, 2038.981 356.755 C 2042.422 317.921, 2046.495 291.579, 2049.339 289.769 C 2049.978 289.363, 2051.820 289.024, 2053.434 289.015 C 2055.048 289.007, 2058.992 288.264, 2062.197 287.365 C 2076.352 283.393, 2086.042 267.616, 2085.968 248.661 C 2085.949 243.834, 2085.439 239.848, 2084.718 238.904 C 2082.877 236.490, 2078.282 234.467, 2070.250 232.531 C 2064.899 231.242, 2063.001 230.354, 2063.003 229.142 C 2063.008 225.728, 2069.063 203.796, 2075.051 185.500 C 2084.056 157.988, 2083.831 149.801, 2073.929 144.752 C 2069.329 142.406, 2062.869 142.585, 2054.977 145.276 M 2187.500 144.351 C 2175.976 148.164, 2165.539 156.048, 2159.503 165.500 C 2157.747 168.250, 2154.486 175, 2152.255 180.500 C 2148.274 190.317, 2139.040 217.984, 2136.874 226.587 C 2135.874 230.558, 2135.276 231.185, 2130.328 233.450 C 2122.770 236.910, 2114.936 245.239, 2110.282 254.762 C 2106.594 262.308, 2106.500 262.777, 2106.500 273.667 C 2106.500 284.131, 2106.654 284.998, 2108.942 287.436 C 2110.387 288.976, 2112.968 290.291, 2115.265 290.658 C 2118.589 291.190, 2119.072 291.583, 2118.628 293.390 C 2117.238 299.040, 2106.631 350.901, 2104.799 361 C 2101.684 378.173, 2101.690 401.662, 2104.811 412.465 C 2108.096 423.836, 2112.344 431.157, 2119.589 437.934 C 2133.210 450.676, 2149.685 451.968, 2169.240 441.829 C 2182.109 435.156, 2199.795 416.273, 2201.593 407.287 L 2202.160 404.451 2194.079 403.369 C 2182.609 401.833, 2177.595 398.569, 2173.063 389.687 C 2169.880 383.447, 2169.596 382.124, 2169.206 371.725 C 2168.493 352.713, 2173.631 307.536, 2178.131 293.250 C 2178.788 291.164, 2179.934 289.846, 2181.328 289.573 C 2182.522 289.338, 2186.336 288.597, 2189.801 287.925 C 2197.833 286.370, 2203.911 282.347, 2208.361 275.643 C 2217.332 262.128, 2219.647 241.062, 2212.661 236.527 C 2211.472 235.755, 2206.563 234.141, 2201.750 232.939 C 2196.938 231.738, 2193 230.461, 2193 230.102 C 2193 227.317, 2199.976 202.026, 2205.031 186.486 C 2213.791 159.554, 2213.933 151.626, 2205.763 145.636 C 2202.357 143.138, 2193.129 142.489, 2187.500 144.351 M 437.785 207.978 C 420.206 211.685, 409.256 216.565, 395.028 227.032 C 381.746 236.803, 374.040 243.884, 366.486 253.258 C 350.809 272.713, 338.979 293.489, 330.476 316.499 C 325.634 329.602, 318.575 357.535, 316.450 372 C 313.243 393.835, 316.285 419.437, 323.983 435.402 C 330.621 449.166, 343.984 462.930, 356.500 468.892 C 365.234 473.053, 379.971 476.380, 389.500 476.343 C 399.218 476.306, 415.019 472.622, 426.804 467.646 C 439.711 462.196, 458.031 450.090, 472.700 437.317 L 478.901 431.918 480.006 436.209 C 483.634 450.301, 490.215 461.118, 499.257 467.849 C 506.387 473.158, 507.610 473.707, 517.512 476.059 C 525.842 478.038, 526.393 478.050, 533.817 476.421 C 542.989 474.409, 545.482 473.239, 554 466.946 C 561.114 461.691, 565.301 457.534, 572.372 448.703 L 577.014 442.906 578.007 445.518 C 578.553 446.955, 579 448.480, 579 448.908 C 579 450.266, 588.652 463.393, 591.635 466.092 C 597.941 471.797, 603.979 475.195, 611.099 477.044 C 620.571 479.504, 626.759 479.491, 636.527 476.993 C 649.197 473.753, 659.342 465.523, 674.225 446.411 L 681.500 437.071 682.624 444.285 C 684.280 454.916, 688.565 470.198, 691.578 476.221 C 696.295 485.651, 707.315 499.325, 714.656 504.857 C 723.847 511.782, 727.999 513.675, 739.366 516.123 L 749 518.198 758.583 516.134 C 770.022 513.671, 776.596 510.728, 784 504.757 C 791.812 498.457, 796.589 491.004, 799.049 481.278 L 801.087 473.218 798.048 454.302 C 792.068 417.072, 791.939 403.173, 797.067 348.500 C 801.590 300.273, 801.610 298.797, 797.950 282 C 795.331 269.981, 793.685 265.841, 789.007 259.509 C 777.684 244.182, 760.229 238.026, 741.673 242.815 C 733.695 244.874, 729.262 247.377, 721.521 254.191 L 717.170 258.020 716.129 253.164 C 714.256 244.432, 710.990 237.237, 705.467 229.674 C 694.964 215.292, 679.284 208.172, 663.918 210.807 C 648.614 213.432, 638.497 219.241, 624.764 233.290 C 617.055 241.177, 617.025 241.196, 616.044 238.617 C 613.439 231.765, 601.902 220.043, 594.787 217.019 C 590.734 215.296, 576.269 212, 572.833 212.015 C 568.744 212.034, 555.017 215.423, 550.682 217.483 C 537.428 223.784, 523.740 241.660, 514.331 264.952 C 513.471 267.080, 513.042 266.088, 511.090 257.452 C 506.800 238.477, 498.958 226.029, 484.750 215.640 C 479.658 211.917, 475.245 210.189, 465.099 207.945 C 454.524 205.606, 449.003 205.613, 437.785 207.978 M 1878.061 223.027 C 1842.666 227.936, 1805.364 258.734, 1783.621 301 C 1776.566 314.713, 1772.503 325.480, 1768.905 340 C 1766.823 348.397, 1766.547 351.880, 1766.525 370 C 1766.497 393.034, 1767.467 398.725, 1773.643 411.757 C 1782.018 429.430, 1801.887 443.536, 1827.567 450.042 C 1839.720 453.121, 1857.091 453.161, 1868.354 450.137 C 1897.408 442.337, 1927.288 418.377, 1940.299 392.447 C 1947.521 378.053, 1953.419 355.349, 1955.017 335.794 C 1956.836 313.523, 1953.629 293.832, 1945.489 277.295 C 1940.051 266.248, 1933.426 259, 1925.413 255.332 C 1920.494 253.079, 1918.809 252.812, 1912.020 253.205 C 1905.164 253.602, 1903.038 254.254, 1893.877 258.773 C 1882.334 264.467, 1873.174 271.405, 1870.401 276.554 C 1868.286 280.481, 1867.535 279.128, 1879.343 292.659 C 1887.175 301.634, 1893.751 314.128, 1897.156 326.500 C 1900.144 337.358, 1900.459 364.007, 1897.716 374 C 1893.764 388.402, 1885.435 401.866, 1877.276 407.040 C 1871.215 410.884, 1865.657 411.624, 1858.491 409.540 C 1847.786 406.428, 1839.567 395.984, 1834.825 379.465 C 1831.571 368.128, 1831.570 342.665, 1834.823 326.272 C 1844.246 278.798, 1871.385 244.840, 1902.656 241.396 C 1910.432 240.539, 1914.537 238.532, 1916.068 234.836 C 1918.119 229.885, 1916.394 226.806, 1910.464 224.832 C 1904.335 222.792, 1886.799 221.815, 1878.061 223.027 M 438.392 231.838 C 412.515 238.410, 385.287 262.045, 367.221 293.614 C 346.662 329.541, 334.877 380.134, 340.357 408.946 C 346.995 443.845, 377.407 460.992, 410.543 448.520 C 432.129 440.395, 455.767 423.216, 475.242 401.500 C 485.418 390.152, 488.636 384.669, 487.582 380.471 C 486.628 376.672, 481.636 372.248, 476.844 370.958 C 471.447 369.505, 467.851 370.834, 460.477 377.012 C 434.112 399.098, 423.803 404.400, 413.705 401.068 C 409.606 399.715, 408.604 398.690, 406.531 393.729 L 405.019 390.111 408.088 391.181 C 421.900 395.995, 447.880 376.695, 468.152 346.561 C 486.321 319.552, 493.501 290.550, 488.507 264.338 C 483.424 237.663, 464.296 225.258, 438.392 231.838 M 1647.297 231.006 C 1639.492 232.628, 1633.335 237.136, 1626.414 246.292 C 1611.105 266.547, 1607.591 292.202, 1619.441 297.208 C 1628.834 301.176, 1661.055 293.811, 1688.909 281.329 C 1699.578 276.548, 1699.432 276.068, 1691.420 289.603 C 1683.026 303.783, 1668.842 325.216, 1659.060 338.500 C 1655.416 343.450, 1649.756 351.325, 1646.483 356 C 1643.211 360.675, 1633.238 374.371, 1624.322 386.436 C 1604.910 412.702, 1601.484 418.869, 1601.538 427.448 C 1601.562 431.308, 1602.274 434.949, 1603.505 437.500 C 1611.761 454.623, 1644.283 466.987, 1681.090 466.997 C 1701.090 467.003, 1715.874 461.138, 1729.149 447.932 C 1742.186 434.963, 1749 417.576, 1749 397.275 C 1749 386.667, 1747.688 383, 1743.892 383 C 1742.795 383, 1737.758 384.762, 1732.699 386.915 C 1719.556 392.509, 1708.403 395.141, 1695.250 395.754 C 1689.063 396.043, 1684 396.022, 1684 395.707 C 1684 395.392, 1691.010 382.167, 1699.577 366.318 C 1719.704 329.082, 1746.782 274.843, 1750.832 263.651 C 1755.673 250.272, 1754.860 244.184, 1747.566 239.186 C 1742.393 235.641, 1732.378 234.150, 1703 232.552 C 1662.021 230.322, 1651.932 230.042, 1647.297 231.006 M 1530.075 232.027 C 1487.995 240.860, 1446.890 286.813, 1440.916 331.703 C 1439.301 343.840, 1440.300 353.924, 1443.866 361.463 C 1450.135 374.720, 1460.786 382.625, 1485.295 392.209 C 1506.232 400.396, 1511.136 403.553, 1515.258 411.500 C 1518.165 417.103, 1518.034 428.320, 1514.966 436.500 C 1510.538 448.306, 1503.739 456.433, 1495.064 460.287 L 1490.628 462.258 1488.823 460.030 C 1486.454 457.105, 1483.996 448.682, 1484.017 443.568 C 1484.044 437.237, 1486.450 427.365, 1490.476 417.062 C 1494.792 406.016, 1494.454 403.551, 1488.470 402.428 C 1472.765 399.482, 1450.183 414.886, 1439.988 435.500 C 1435.765 444.038, 1435.518 445.013, 1435.176 454.500 C 1434.869 462.990, 1435.153 465.399, 1437.054 470.449 C 1442.765 485.624, 1457.822 493.950, 1479.619 493.985 C 1507.194 494.030, 1528.503 484.511, 1551.118 462.047 C 1569.200 444.085, 1580.691 426.013, 1584.558 409.454 C 1587.025 398.893, 1586.235 383.217, 1582.873 376 C 1577.273 363.977, 1568.910 358.832, 1538.977 348.993 C 1528.862 345.667, 1518.669 341.824, 1516.326 340.451 C 1507.136 335.065, 1504.091 326.941, 1506.010 312.925 C 1508.455 295.073, 1515.525 278.788, 1525.427 268.203 L 1531.376 261.843 1533.206 265.409 C 1534.212 267.370, 1535.761 271.793, 1536.648 275.238 C 1538.719 283.278, 1537.939 304.103, 1535.029 318.500 C 1532.242 332.282, 1532.348 334.273, 1536.029 337.371 C 1545.851 345.635, 1562.124 338.966, 1574.409 321.641 C 1594.007 294.006, 1593.789 263.848, 1573.848 243.861 C 1570.289 240.294, 1565.659 236.984, 1561.348 234.925 C 1555.240 232.007, 1553.419 231.624, 1544.500 231.376 C 1539 231.223, 1532.509 231.516, 1530.075 232.027 M 1214.870 233.016 C 1194.570 236.195, 1172.162 249.808, 1150.464 272.141 C 1132.968 290.149, 1123.379 303.841, 1112.122 326.891 C 1091.304 369.519, 1086.963 408.341, 1100.225 433.287 C 1105.021 442.307, 1113.877 451.322, 1121.752 455.199 C 1127.345 457.952, 1129.620 458.476, 1137.398 458.805 C 1144.926 459.123, 1147.492 458.816, 1152.236 457.028 C 1168.381 450.944, 1190.020 430.147, 1212.361 399.241 L 1220.500 387.982 1221.163 405.241 C 1222.069 428.799, 1225.213 440.478, 1233.053 449.407 C 1240.069 457.399, 1253.904 458.317, 1267.328 451.683 C 1277.236 446.786, 1292.595 432.196, 1291.546 428.677 C 1285.943 409.883, 1284.190 383.297, 1285.847 342.224 C 1286.706 320.932, 1286.773 310.534, 1286.066 308.673 C 1284.955 305.751, 1282.636 304.475, 1276.666 303.503 C 1273.563 302.997, 1272.968 302.556, 1273.544 301.189 C 1280.914 283.694, 1281.632 270.184, 1275.833 258.123 C 1270.899 247.861, 1257.663 238.125, 1243.862 234.605 C 1236.427 232.710, 1221.909 231.914, 1214.870 233.016 M 2351.500 233.055 C 2331.881 236.110, 2312.107 247.361, 2291.440 267.228 C 2265.099 292.551, 2246.090 323.824, 2235.353 359.500 C 2226.501 388.914, 2226.767 413.733, 2236.138 432.891 C 2240.245 441.287, 2250.508 451.702, 2258.500 455.585 C 2264.016 458.265, 2265.388 458.500, 2275.500 458.500 C 2285.891 458.500, 2286.833 458.326, 2292.507 455.358 C 2307.334 447.604, 2325.976 429.312, 2345.069 403.785 L 2357 387.833 2357.006 399.667 C 2357.016 419.786, 2360.575 437.226, 2366.498 446.176 C 2370.710 452.542, 2376.112 455.416, 2384.675 455.849 C 2393.862 456.313, 2400.078 454.414, 2409.203 448.358 C 2417.840 442.625, 2428.339 431.339, 2427.654 428.525 C 2421.646 403.873, 2420.410 385.005, 2421.998 342.225 C 2423.430 303.684, 2423.833 305.404, 2412.943 303.578 L 2409.385 302.982 2412.401 294.241 C 2414.953 286.844, 2415.424 283.959, 2415.459 275.479 C 2415.497 266.137, 2415.278 265.007, 2412.226 258.807 C 2406.532 247.242, 2393.902 237.799, 2379.750 234.526 C 2371.298 232.571, 2358.791 231.920, 2351.500 233.055 M 657.910 237.169 C 644.379 243.859, 630.466 260.595, 596.943 310.507 C 586.418 326.178, 577.683 339, 577.533 339 C 577.233 339, 580.552 327.074, 586.879 305.418 C 594.710 278.613, 597.689 258.649, 595.050 250.653 C 593.417 245.702, 589.642 241.385, 584.624 238.729 C 578.816 235.655, 567.197 235.648, 561.403 238.715 C 556.374 241.378, 548.186 250.184, 544.101 257.323 C 533.149 276.466, 508.492 353.774, 502.423 388 C 500.175 400.674, 500.117 420.497, 502.303 428.749 C 505.289 440.022, 510.667 448.160, 517.500 451.744 C 521.562 453.875, 530.667 453.844, 534.730 451.686 C 544.169 446.670, 556.052 432.501, 580.172 397.498 C 594.216 377.118, 610.853 354, 611.476 354 C 611.645 354, 610.691 357.488, 609.357 361.750 C 600.456 390.184, 596.994 406.059, 597.012 418.360 C 597.031 431.270, 600.054 440.164, 606.860 447.335 C 612.222 452.984, 616.795 455.002, 624.210 454.991 C 632.056 454.979, 638.466 451.611, 645.476 443.817 C 651.034 437.637, 700.537 375.244, 704.409 369.539 L 707.024 365.686 706.262 379.093 C 705.843 386.467, 705.512 403.300, 705.526 416.500 C 705.562 449.762, 708.065 460.552, 719.227 475.577 C 728.250 487.723, 737.935 493.410, 749.500 493.355 C 760.810 493.301, 771.395 487.104, 775.418 478.182 C 777.348 473.901, 777.509 475.623, 771.906 440.500 C 768.142 416.907, 768.683 392.354, 774.177 337.500 C 776.726 312.051, 776.932 292.839, 774.745 284.750 C 771.159 271.489, 764.218 265, 753.622 265 C 743.623 265, 737.228 269.808, 723.288 287.805 C 706.894 308.970, 688.112 332.106, 679.361 341.915 C 678.630 342.734, 679.150 339.577, 680.597 334.415 C 687.620 309.351, 694.228 281.702, 694.723 275.302 C 696.008 258.713, 688.632 241.424, 677.943 235.971 C 672.095 232.988, 665.579 233.377, 657.910 237.169 M 432.111 269.005 C 425.788 277.734, 414.035 308.795, 408.573 331.213 C 403.842 350.629, 402.223 365.055, 403.628 375.300 C 404.252 379.854, 404.268 379.870, 406.631 378.322 C 410.336 375.894, 417.794 365.366, 422.635 355.729 C 431.388 338.305, 438.050 312.581, 439.917 289 C 441.685 266.671, 438.924 259.600, 432.111 269.005 M 1203.003 267.651 C 1201.271 269.109, 1195.848 276.347, 1190.952 283.736 C 1166.455 320.711, 1155.984 357.846, 1164.008 379.293 C 1167.767 389.338, 1172.834 392.595, 1179.665 389.356 C 1185.196 386.735, 1205.272 366.853, 1219.520 349.889 L 1231.791 335.279 1224.645 337.529 C 1210.853 341.872, 1202.934 341.456, 1202.197 336.350 C 1202.030 335.194, 1203.987 329.592, 1206.545 323.899 C 1212.653 310.309, 1215 300.880, 1215 289.929 C 1215 280.515, 1212.539 270.358, 1209.424 266.916 C 1207.183 264.439, 1206.762 264.488, 1203.003 267.651 M 2337.874 269.012 C 2327.407 280.015, 2309.106 313.028, 2302.956 332 C 2298.475 345.826, 2296.513 360.360, 2297.884 369.579 C 2298.482 373.599, 2299.699 378.707, 2300.589 380.931 C 2302.516 385.747, 2308.148 391, 2311.385 391 C 2315.967 391, 2329.523 379.579, 2343.413 364.015 C 2357.095 348.685, 2368.487 334.672, 2366.353 335.795 C 2362.272 337.945, 2346.710 341.168, 2343.406 340.548 C 2336.983 339.343, 2336.906 335.234, 2343.075 322.902 C 2352.222 304.617, 2353.942 284.290, 2347.528 270.279 C 2344.580 263.842, 2342.991 263.633, 2337.874 269.012 M 1424.490 297.017 C 1422.814 299.728, 1411.425 307.079, 1406.489 308.635 C 1400.163 310.629, 1400.919 308.027, 1397.996 337.882 C 1396.023 358.032, 1395.430 375.350, 1396.607 378.418 C 1397.004 379.453, 1398.474 380.008, 1400.857 380.024 C 1410.781 380.091, 1420.029 384.602, 1424.192 391.406 C 1426.974 395.953, 1429.549 406.270, 1428.392 408.235 C 1427.982 408.931, 1430.605 406.350, 1434.221 402.500 L 1440.794 395.500 1437.647 392.880 C 1432.760 388.811, 1423.183 374.844, 1421.071 368.706 C 1417.374 357.962, 1415.709 347.082, 1416.370 338 C 1417.034 328.876, 1420.528 312.238, 1423.823 302.509 C 1425.755 296.806, 1426.032 294.521, 1424.490 297.017 M 2083.090 303.570 C 2080.665 305.477, 2076.278 307.735, 2073.342 308.589 C 2067.273 310.353, 2067.558 309.750, 2066.047 324 C 2062.133 360.913, 2061.603 373.196, 2063.687 378.628 C 2064.001 379.444, 2065.693 380, 2067.864 380 C 2069.871 380, 2072.959 380.415, 2074.726 380.921 C 2078.306 381.948, 2078.036 382.534, 2079.535 370.500 C 2080.493 362.805, 2084.712 340.289, 2088.648 321.869 C 2092.066 305.872, 2092.136 305.137, 2090.486 302.619 C 2089.542 301.178, 2088.484 300.023, 2088.135 300.051 C 2087.786 300.080, 2085.516 301.663, 2083.090 303.570 M 1861.234 317.611 C 1857.570 329.445, 1856.628 336.947, 1856.603 354.500 C 1856.582 369.777, 1856.806 372.069, 1858.811 377.114 C 1861.460 383.780, 1864.300 386.826, 1866.309 385.159 C 1868.069 383.698, 1872.966 373.695, 1874.664 368.091 C 1876.234 362.912, 1876.450 343.647, 1875.023 336.123 C 1873.789 329.616, 1868.719 317.394, 1865.684 313.611 L 1863.366 310.722 1861.234 317.611 M 1601.618 323.355 C 1599.663 326.851, 1595.577 332.929, 1592.538 336.863 L 1587.011 344.015 1591.167 347.758 C 1596.693 352.734, 1603.799 362.596, 1605.180 367.207 L 1606.293 370.921 1613.959 360.710 C 1618.175 355.095, 1623.589 347.575, 1625.990 344 C 1628.391 340.425, 1633.019 333.981, 1636.275 329.681 C 1639.531 325.380, 1642.032 321.698, 1641.832 321.499 C 1641.632 321.299, 1637.986 321.568, 1633.730 322.096 C 1627.106 322.919, 1624.697 322.753, 1617.004 320.947 C 1612.062 319.787, 1607.762 318.424, 1607.450 317.919 C 1606.287 316.038, 1605.082 317.162, 1601.618 323.355 M 1738.342 344.310 C 1733.296 353.829, 1729.736 361.608, 1730.365 361.743 C 1730.989 361.877, 1733.750 361.398, 1736.500 360.678 L 1741.500 359.371 1743.144 349.935 C 1744.049 344.746, 1745.476 337.578, 1746.317 334.006 C 1747.157 330.434, 1747.757 327.424, 1747.649 327.316 C 1747.542 327.209, 1743.353 334.856, 1738.342 344.310" stroke="none" fill="#333333" fill-rule="evenodd"/><path d="M 1272.500 114.475 C 1261.839 116.813, 1241.052 124.049, 1238.515 126.306 C 1237.158 127.513, 1232.813 134.350, 1228.860 141.500 C 1218.838 159.624, 1212.777 168.335, 1204.318 176.773 C 1196.287 184.784, 1194.917 187.699, 1197.402 191.491 C 1199.621 194.877, 1203.005 195.498, 1211.223 194.030 C 1224.936 191.579, 1239.845 182.094, 1255.625 165.781 C 1271.727 149.135, 1282.939 131.934, 1284.578 121.360 C 1285.107 117.952, 1284.848 116.848, 1283.110 115.110 C 1280.704 112.704, 1280.604 112.698, 1272.500 114.475 M 976.874 135.078 C 963.589 135.978, 950.299 138.856, 941.791 142.674 C 933.451 146.417, 926.319 154.479, 920.022 167.281 C 908.875 189.943, 909.420 203.092, 921.757 209.162 C 931.576 213.992, 942.465 212.168, 976.558 199.979 C 987.398 196.104, 996.410 193.077, 996.586 193.253 C 996.940 193.606, 992.904 236.508, 990.449 258.500 C 983.889 317.259, 966.808 410.156, 953.399 460 C 950.353 471.325, 943.057 490.153, 941.975 489.484 C 939.930 488.221, 938.744 470.673, 939.305 450 C 939.921 427.297, 940.374 422.248, 944.610 390.821 C 947.034 372.842, 947.144 370.648, 945.882 365.426 C 945.024 361.878, 943.728 359.204, 942.464 358.375 C 939.289 356.293, 932.870 360.014, 923.381 369.437 C 916.308 376.461, 914.534 378.986, 909.618 389.031 C 896.700 415.421, 892.741 449.316, 899.401 476.500 C 903.832 494.583, 912.823 512.679, 922.431 522.854 C 929.562 530.405, 933.687 532.300, 941.980 531.831 C 963.080 530.639, 981.792 509.245, 999.996 465.500 C 1029.820 393.830, 1057.585 292.859, 1074.057 196.166 C 1079.055 166.825, 1079.887 156.617, 1077.636 152.263 C 1072.491 142.314, 1054.502 136.923, 1020.089 135.014 C 1000.443 133.924, 993.739 133.934, 976.874 135.078 M 152 137.967 C 131.679 142.333, 109 153.510, 109 159.160 C 109 159.650, 111.733 162.988, 115.073 166.579 C 122.138 174.172, 124.438 178.861, 123.617 183.993 C 123.301 185.971, 120.367 194.544, 117.098 203.045 C 110.958 219.012, 91.647 278.955, 77.972 324.500 C 64.928 367.939, 57.035 389.744, 43.220 420.500 C 37.046 434.244, 35.534 440.058, 36.987 444.461 C 40.397 454.794, 62.445 450.210, 80.343 435.447 C 99.197 419.895, 107.283 398.540, 134.088 293.500 C 140.264 269.300, 145.664 249.104, 146.089 248.620 C 146.513 248.136, 147.149 249.486, 147.502 251.620 C 147.854 253.754, 150.580 265.400, 153.559 277.500 C 164.312 321.181, 178.674 363.379, 197.465 406.500 C 206.997 428.374, 214.422 440.022, 222.134 445.202 C 233.393 452.763, 241.968 445.030, 252.853 417.500 C 260.384 398.454, 265.681 382.113, 282.030 327.500 C 321.722 194.912, 330.878 156.216, 325.566 143.503 C 323.882 139.473, 321.323 138.560, 313.528 139.206 C 300.520 140.285, 284.747 152.562, 277.822 167 C 270.975 181.275, 263.764 207.103, 255.487 247 C 250.082 273.054, 240.939 312.388, 240.078 313.288 C 239.213 314.192, 232.493 300.058, 228.532 289 C 224.311 277.220, 215.640 246.227, 211.045 226.500 C 196.554 164.288, 190.904 148.363, 180.852 141.397 C 177.172 138.847, 167.235 135.974, 162.500 136.091 C 161.400 136.118, 156.675 136.962, 152 137.967 M 2551.945 139.385 C 2531.635 147.244, 2515.042 166.680, 2495.076 206 C 2464.689 265.843, 2446.040 333.275, 2444.328 389.500 C 2443.701 410.070, 2444.708 418.895, 2448.976 430.239 C 2454.914 446.021, 2466.444 454.510, 2479.317 452.580 C 2488.359 451.224, 2490.855 447.571, 2501.574 420 C 2511.772 393.768, 2524.651 371.334, 2535.275 361.296 C 2541.214 355.685, 2544.795 354.190, 2548.869 355.623 C 2552.876 357.032, 2554.154 360.495, 2553.701 368.720 C 2553.395 374.284, 2552.571 377.430, 2550.106 382.436 C 2546.516 389.729, 2535.527 402.022, 2525.377 410.098 C 2516.894 416.848, 2515.999 418.767, 2516.003 430.200 C 2516.014 460.958, 2532.235 500.537, 2553.445 521.555 C 2564.642 532.652, 2574.598 536.293, 2582.574 532.211 C 2589.452 528.690, 2605.732 509.801, 2613.524 496.301 C 2615.325 493.181, 2615.323 493.015, 2613.435 489.505 C 2612.371 487.526, 2607.064 480.865, 2601.643 474.703 C 2590.140 461.629, 2581.538 449.049, 2573.123 432.998 L 2567.093 421.495 2575.554 409.498 C 2580.568 402.390, 2587.257 390.979, 2591.969 381.500 C 2604.686 355.917, 2609.338 338.876, 2609.442 317.500 C 2609.494 306.763, 2609.252 305.027, 2607.140 301 C 2600.799 288.909, 2591.120 284.489, 2577.297 287.371 C 2563.724 290.201, 2550.641 298.564, 2535.370 314.170 C 2527.903 321.800, 2515.373 338.692, 2513.657 343.440 C 2513.446 344.023, 2512.952 344.202, 2512.559 343.838 C 2511.603 342.955, 2515.344 311.006, 2519.097 288 C 2526.572 242.173, 2540.396 191.826, 2550.562 173.403 C 2557.192 161.390, 2559.276 162.314, 2559.839 177.516 C 2560.843 204.640, 2555.023 239.241, 2545.019 265.627 C 2542.751 271.607, 2540.849 277.805, 2540.792 279.399 C 2540.638 283.652, 2543.382 285.293, 2549.491 284.602 C 2564.447 282.910, 2580.394 268.149, 2591.737 245.500 C 2612.711 203.616, 2606.241 155.493, 2577.766 141.582 C 2570.834 138.196, 2557.869 137.092, 2551.945 139.385 M 1389.487 145.799 C 1375.718 150.560, 1366.003 159.503, 1359.355 173.539 C 1355.555 181.560, 1343.485 216.143, 1340.368 227.943 C 1339.617 230.784, 1338.459 231.894, 1333.740 234.297 C 1321.949 240.301, 1312.094 254.691, 1309.881 269.133 C 1307.998 281.431, 1310.786 287.788, 1319.040 290.011 C 1322.593 290.967, 1323.108 291.439, 1322.643 293.313 C 1318.387 310.489, 1308.643 360.158, 1306.913 373.499 C 1305.485 384.510, 1306.249 403.363, 1308.449 411.427 C 1314.173 432.400, 1327.576 445.522, 1345.415 447.619 C 1360.354 449.375, 1381.676 437.995, 1395.033 421.138 C 1400.921 413.707, 1404.362 407.387, 1403.601 405.403 C 1403.235 404.450, 1401.408 404, 1397.897 404 C 1389.952 404, 1385.031 402.086, 1379.972 397.028 C 1371.052 388.109, 1369.497 375.626, 1372.929 340.500 C 1375.263 316.608, 1376.077 311.007, 1379.131 297.801 L 1381.143 289.101 1385.821 288.472 C 1394.998 287.238, 1400.609 285.096, 1405.160 281.090 C 1413.085 274.114, 1419 259.941, 1419 247.925 C 1419 238.888, 1415.504 235.951, 1401.250 233.014 C 1397.813 232.306, 1395 231.214, 1395 230.588 C 1395 227.359, 1401.592 203.210, 1407.039 186.486 C 1414.320 164.129, 1415.487 155.661, 1412.041 150.190 C 1408.227 144.133, 1399.319 142.399, 1389.487 145.799 M 2055.273 146.004 C 2042.749 150.457, 2032.298 160.304, 2025.925 173.656 C 2022.176 181.513, 2012.588 208.844, 2008.023 224.688 C 2005.973 231.804, 2005.900 231.899, 2000.676 234.291 C 1987.288 240.420, 1975.997 259.260, 1976.002 275.460 C 1976.004 284.030, 1979.645 288.930, 1987.137 290.447 L 1989.774 290.981 1986.820 304.741 C 1972.709 370.467, 1970.467 389.125, 1974.417 407.965 C 1979.014 429.891, 1993.908 445.811, 2011.515 447.618 C 2024.052 448.905, 2040.286 442.213, 2052.659 430.658 C 2060.295 423.527, 2068.055 413.617, 2069.992 408.522 C 2071.359 404.927, 2070.179 404.038, 2064 404.010 C 2053.534 403.961, 2045.288 398.514, 2040.863 388.727 C 2038.663 383.861, 2038.502 382.290, 2038.529 366 C 2038.572 340.756, 2041.898 311.948, 2046.927 293.272 L 2047.992 289.317 2056.030 287.733 C 2065.871 285.795, 2071.987 282.349, 2076.522 276.187 C 2083.184 267.134, 2087.423 250.693, 2085.096 242.927 C 2083.574 237.846, 2080.430 235.882, 2070.007 233.502 C 2063.458 232.006, 2062 231.328, 2062 229.778 C 2062 226.195, 2068.118 203.657, 2074.130 185.092 C 2081.298 162.956, 2082.041 158.141, 2079.257 151.849 C 2075.863 144.176, 2066.698 141.943, 2055.273 146.004 M 2186.487 145.799 C 2172.718 150.560, 2163.003 159.503, 2156.355 173.539 C 2152.555 181.560, 2140.485 216.143, 2137.368 227.943 C 2136.617 230.784, 2135.459 231.894, 2130.740 234.297 C 2118.949 240.301, 2109.094 254.691, 2106.881 269.133 C 2104.998 281.431, 2107.786 287.788, 2116.040 290.011 C 2119.593 290.967, 2120.108 291.439, 2119.643 293.313 C 2115.387 310.489, 2105.643 360.158, 2103.913 373.499 C 2102.485 384.510, 2103.249 403.363, 2105.449 411.427 C 2111.173 432.400, 2124.576 445.522, 2142.415 447.619 C 2157.354 449.375, 2178.676 437.995, 2192.033 421.138 C 2197.921 413.707, 2201.362 407.387, 2200.601 405.403 C 2200.235 404.450, 2198.408 404, 2194.897 404 C 2186.952 404, 2182.031 402.086, 2176.972 397.028 C 2168.052 388.109, 2166.497 375.626, 2169.929 340.500 C 2172.263 316.608, 2173.077 311.007, 2176.131 297.801 L 2178.143 289.101 2182.821 288.472 C 2191.998 287.238, 2197.609 285.096, 2202.160 281.090 C 2210.085 274.114, 2216 259.941, 2216 247.925 C 2216 238.888, 2212.504 235.951, 2198.250 233.014 C 2194.813 232.306, 2192 231.214, 2192 230.588 C 2192 227.359, 2198.592 203.210, 2204.039 186.486 C 2211.320 164.129, 2212.487 155.661, 2209.041 150.190 C 2205.227 144.133, 2196.319 142.399, 2186.487 145.799 M 1876.164 224.050 C 1854.700 227.903, 1833.745 240.279, 1813.656 260.967 C 1780.850 294.750, 1762.966 341.049, 1766.952 381.874 C 1769.084 403.703, 1776.580 419.623, 1789.959 430.732 C 1798.371 437.717, 1815.849 446.302, 1827.500 449.171 C 1840.371 452.341, 1857.347 452.292, 1868.912 449.051 C 1878.742 446.296, 1895.079 438.248, 1904.720 431.410 C 1914.617 424.390, 1928.862 409.692, 1934.350 400.836 C 1948.714 377.659, 1957.081 340.426, 1954.180 312.596 C 1950.899 281.125, 1937.610 258.884, 1919.182 254.025 C 1913.572 252.546, 1906.069 254.031, 1896.160 258.582 C 1884.036 264.150, 1870 275.340, 1870 279.437 C 1870 280.188, 1873.638 284.785, 1878.084 289.652 C 1884.281 296.435, 1887.312 300.833, 1891.071 308.500 C 1898.595 323.845, 1900.426 332.237, 1900.456 351.500 C 1900.478 365.252, 1900.159 368.617, 1898.187 375.455 C 1893.788 390.711, 1884.465 404.656, 1875.613 409.220 C 1872.761 410.690, 1869.628 411.345, 1865.393 411.357 C 1842.042 411.425, 1828.182 382.908, 1831.950 342.549 C 1833.927 321.367, 1838.848 303.235, 1847.065 286.849 C 1860.715 259.629, 1879.134 244.099, 1902 240.531 C 1909.936 239.292, 1911.870 238.623, 1913.750 236.468 C 1917.933 231.672, 1916.214 227.553, 1909 225.086 C 1904.393 223.511, 1882.939 222.834, 1876.164 224.050 M 442.500 231.624 C 423.577 236.388, 407.802 245.963, 391.856 262.359 C 367.971 286.920, 349.008 327.012, 341.959 367.849 C 339.599 381.519, 339.398 400.465, 341.504 410.500 C 347.465 438.890, 371.917 456.075, 398.812 450.776 C 420.473 446.509, 446.159 430.086, 470.320 405.057 C 481.893 393.068, 487 386.071, 487 382.204 C 487 378.919, 481.326 373.477, 476.344 371.985 C 470.885 370.349, 467.691 371.938, 455.793 382.208 C 434.093 400.938, 419.809 406.691, 410.368 400.506 C 407.984 398.943, 403.290 390.377, 404.278 389.389 C 404.522 389.144, 405.939 389.407, 407.426 389.972 C 416.281 393.339, 429.164 387.551, 443.660 373.693 C 465.443 352.867, 479.492 330.252, 486.125 305.330 C 488.978 294.612, 489.748 274.134, 487.667 264.343 C 484.613 249.972, 477.344 239.272, 467.295 234.356 C 462.682 232.099, 460.107 231.556, 453.081 231.360 C 448.361 231.228, 443.600 231.347, 442.500 231.624 M 1646.589 232.118 C 1640.833 233.468, 1636.743 236.354, 1629.997 243.823 C 1617.030 258.182, 1609.695 280.879, 1614.752 291 C 1617.444 296.389, 1621.982 298.252, 1630.778 297.578 C 1644.160 296.553, 1671.429 288.289, 1691.269 279.246 C 1695.542 277.298, 1699.293 275.960, 1699.605 276.271 C 1701.010 277.677, 1675.483 317.966, 1659.542 339.500 C 1655.064 345.550, 1649.417 353.425, 1646.995 357 C 1644.573 360.575, 1636.077 372.274, 1628.115 382.998 C 1601.290 419.128, 1598.835 424.661, 1604.357 436.520 C 1612.401 453.795, 1643.684 465.977, 1680.040 465.994 C 1694.436 466.001, 1701.130 464.626, 1711.500 459.531 C 1724.553 453.119, 1734.451 443.029, 1740.961 429.500 C 1746.097 418.826, 1748.269 409.581, 1748.396 397.856 C 1748.484 389.684, 1748.209 387.891, 1746.595 386.106 C 1745.547 384.948, 1744.081 384, 1743.336 384 C 1742.591 384, 1737.806 385.784, 1732.702 387.965 C 1719.941 393.417, 1708.757 395.947, 1694.143 396.688 L 1681.786 397.314 1683.292 394.407 C 1684.120 392.808, 1691.835 378.450, 1700.436 362.500 C 1718.825 328.398, 1739.887 286.856, 1746.369 271.901 C 1754.733 252.607, 1755.120 247.198, 1748.553 241.416 C 1742.323 235.931, 1735.222 234.848, 1690.175 232.517 C 1657.615 230.833, 1652.279 230.784, 1646.589 232.118 M 1526 234.016 C 1480.604 246.187, 1439.209 300.502, 1441.249 345.216 C 1441.634 353.651, 1442.122 355.805, 1444.948 361.545 C 1451.341 374.533, 1462.885 382.718, 1488.525 392.447 C 1512.312 401.472, 1518 407.362, 1518 422.968 C 1518 441.011, 1506.070 458.936, 1491.777 462.370 C 1489.345 462.955, 1488.831 462.590, 1486.985 458.970 C 1481.723 448.657, 1482.378 435.968, 1489.095 418.056 C 1491.249 412.311, 1492.754 406.800, 1492.439 405.808 C 1491.041 401.404, 1478.908 402.259, 1468.283 407.510 C 1455.495 413.830, 1443.003 428.262, 1437.768 442.763 C 1434.843 450.867, 1434.940 462.493, 1438 470.441 C 1442.124 481.154, 1452.689 489.329, 1466 492.107 C 1474.198 493.818, 1495.705 492.659, 1505 490.005 C 1521.478 485.300, 1535.220 476.477, 1551.274 460.298 C 1572.225 439.184, 1582.500 421.219, 1585.028 401.281 C 1586.768 387.554, 1583.670 375.937, 1576.071 367.692 C 1570.650 361.812, 1561.181 357.291, 1539.045 350.015 C 1518.025 343.106, 1514.552 341.460, 1509.738 336.132 C 1505.329 331.251, 1504.584 327.769, 1505.255 315.155 C 1506.169 297.963, 1514.467 277.650, 1525.027 266.750 C 1528.091 263.587, 1531.093 261, 1531.698 261 C 1532.302 261, 1534.080 264.488, 1535.649 268.750 C 1538.340 276.065, 1538.494 277.342, 1538.389 291.500 C 1538.307 302.511, 1537.709 309.292, 1536.142 317 C 1533.460 330.185, 1533.442 333.442, 1536.040 336.040 C 1543.788 343.788, 1555.645 340.472, 1568.302 327.017 C 1580.663 313.877, 1588 296.737, 1588 281 C 1588 266.290, 1583.538 255.550, 1573.013 244.924 C 1563.504 235.324, 1557.435 232.683, 1544 232.303 C 1535.911 232.073, 1531.778 232.467, 1526 234.016 M 1211.500 234.660 C 1193.751 238.455, 1175.661 249.289, 1155.354 268.286 C 1124.548 297.103, 1099.414 345.878, 1093.934 387.480 C 1090.952 410.120, 1097.216 432.107, 1110.482 445.558 C 1117.321 452.493, 1124.416 456.262, 1133.848 457.973 C 1154.680 461.750, 1177.376 444.533, 1210.631 399.727 C 1216.253 392.152, 1221.148 386.431, 1221.508 387.013 C 1221.869 387.596, 1221.884 389.744, 1221.543 391.787 C 1220.592 397.481, 1222.759 421.736, 1225.001 430.505 C 1231.014 454.015, 1245.808 461.199, 1266.911 450.858 C 1274.910 446.938, 1291.668 431.184, 1290.653 428.538 C 1290.299 427.616, 1289.109 422.444, 1288.009 417.045 C 1284.760 401.099, 1283.824 377.570, 1285.049 342.617 C 1286.275 307.655, 1286.149 306.691, 1280.135 305.021 C 1278.136 304.466, 1275.435 304.009, 1274.133 304.006 C 1271.484 303.999, 1271.380 304.744, 1275.664 293 C 1277.903 286.862, 1278.409 283.774, 1278.450 276 C 1278.495 267.391, 1278.210 265.890, 1275.405 260 C 1265.721 239.657, 1238.537 228.879, 1211.500 234.660 M 2348 234.490 C 2328.135 238.983, 2309.513 250.505, 2288.989 271 C 2257.345 302.601, 2234.508 348.381, 2229.963 389.331 C 2224.915 434.815, 2257.243 469.814, 2290.654 455.035 C 2306.421 448.060, 2330.896 423.189, 2351.754 392.945 C 2354.364 389.160, 2356.782 386.049, 2357.126 386.032 C 2357.470 386.014, 2357.980 393.988, 2358.259 403.750 C 2358.645 417.245, 2359.258 423.335, 2360.818 429.154 C 2366.311 449.650, 2376.037 457.757, 2391.691 454.890 C 2400.491 453.278, 2408.463 448.520, 2418.367 438.968 L 2427.234 430.416 2425.158 421.958 C 2424.017 417.306, 2422.614 409.130, 2422.041 403.789 C 2420.795 392.169, 2420.719 339.436, 2421.929 325.904 C 2422.901 315.041, 2422.029 308.225, 2419.423 306.320 C 2418.447 305.606, 2415.477 304.734, 2412.824 304.382 C 2410.171 304.030, 2408 303.661, 2408 303.563 C 2408 303.464, 2409.435 299.584, 2411.189 294.941 C 2414.011 287.473, 2414.386 285.290, 2414.439 276 C 2414.495 266.395, 2414.255 265.001, 2411.627 259.649 C 2406.137 248.467, 2394.162 239.314, 2379.955 235.439 C 2371.776 233.208, 2355.769 232.733, 2348 234.490 M 658.125 238.095 C 645.251 244.528, 632.351 259.987, 600.827 306.754 C 580.449 336.986, 578.282 340, 576.925 340 C 576.133 340, 578.563 330.690, 586.333 303.944 C 595.158 273.569, 597.111 256.311, 592.672 247.907 C 587.928 238.925, 574.737 234.537, 564.373 238.496 C 553.896 242.497, 544.776 255.398, 535.628 279.157 C 518.534 323.557, 503.009 380.211, 501.417 404 C 499.956 425.841, 506.392 444.654, 517.243 450.256 C 532.900 458.340, 543.977 448.651, 580.990 394.500 C 596.971 371.119, 612.310 350.430, 612.730 351.690 C 612.912 352.237, 610.564 360.968, 607.512 371.092 C 599.560 397.472, 597.749 407.069, 598.193 420.500 C 598.497 429.733, 598.969 432.391, 601.129 437.046 C 606.410 448.426, 614.210 454.317, 624 454.317 C 631.498 454.317, 636.108 451.733, 644.541 442.805 C 651.640 435.288, 701.170 373.057, 704.787 367.110 C 705.883 365.308, 707.032 364.243, 707.342 364.744 C 707.651 365.245, 707.486 372.145, 706.974 380.077 C 705.710 399.661, 705.763 432.127, 707.074 441.678 C 709.369 458.391, 715.965 471.893, 726.955 482.376 C 734.983 490.033, 740.510 492.482, 749.500 492.367 C 760.230 492.230, 769.580 487.037, 773.959 478.783 L 776.359 474.260 773.154 453.880 C 766.886 414.013, 767.033 400.459, 774.563 324 C 776.455 304.788, 775.985 292.399, 772.997 282.727 C 769.540 271.532, 762.969 265.781, 753.480 265.644 C 744.534 265.514, 737.269 271.342, 722.494 290.500 C 712.086 303.995, 692.420 328.459, 687.680 333.808 C 685.381 336.401, 682.286 340.079, 680.803 341.981 C 679.319 343.883, 677.828 345.161, 677.489 344.822 C 677.149 344.483, 679.823 333.471, 683.429 320.352 C 694.105 281.523, 695.703 270.964, 692.641 259.500 C 689.951 249.431, 683.397 239.881, 676.800 236.418 C 672.186 233.996, 665.045 234.637, 658.125 238.095 M 432.195 266.750 C 422.699 280.200, 408.563 321.324, 403.922 349 C 402.506 357.446, 402.171 375, 403.342 379.402 L 404.114 382.304 408.627 377.902 C 418.843 367.937, 426.959 352.205, 433.339 330 C 438.309 312.704, 440.037 301.973, 440.668 284.500 C 441.278 267.603, 440.562 264, 436.593 264 C 435.050 264, 433.414 265.023, 432.195 266.750 M 1200.698 268.892 C 1191.222 279.022, 1176.652 303.756, 1169.530 321.799 C 1163.289 337.612, 1160.840 348.880, 1160.792 362 C 1160.744 375.369, 1163.014 383.188, 1168.560 388.750 C 1172.746 392.949, 1176.206 392.953, 1182.579 388.767 C 1188.876 384.631, 1207.306 366.262, 1217.462 354 C 1221.790 348.775, 1227.324 342.416, 1229.761 339.868 C 1232.198 337.321, 1233.778 334.981, 1233.273 334.668 C 1232.767 334.356, 1228.821 335.222, 1224.504 336.593 C 1214.589 339.741, 1209.241 340.460, 1205.750 339.112 C 1201.978 337.655, 1202.203 335.786, 1207.599 323.780 C 1213.526 310.592, 1216 300.807, 1216 290.550 C 1216 277.551, 1211.847 264.859, 1207.379 264.204 C 1206.024 264.005, 1203.826 265.547, 1200.698 268.892 M 2338.586 267.058 C 2327.612 276.694, 2307.540 312.889, 2301.149 334.570 C 2296.137 351.570, 2295.569 372.020, 2299.845 381.488 C 2304.450 391.684, 2309.739 394.101, 2317.495 389.556 C 2323.897 385.804, 2339.227 370.863, 2351.262 356.646 C 2356.893 349.994, 2363.481 342.396, 2365.901 339.760 C 2368.322 337.125, 2370.038 334.705, 2369.715 334.381 C 2369.391 334.058, 2365.611 334.961, 2361.313 336.388 C 2350.189 340.083, 2344.689 340.681, 2341.438 338.552 C 2338.250 336.462, 2338.414 335.555, 2344.408 322.168 C 2350.052 309.563, 2352 301.410, 2352 290.396 C 2352 276.788, 2348.314 265.096, 2343.741 264.195 C 2342.890 264.028, 2340.571 265.316, 2338.586 267.058" stroke="none" fill="#f5c400" fill-rule="evenodd"/><path d="M 1731.216 303.545 C 1727.252 311.495, 1724.229 318, 1724.498 318 C 1725.159 318, 1739.213 289.879, 1738.772 289.438 C 1738.580 289.247, 1735.180 295.595, 1731.216 303.545 M 599 308 C 592.385 317.900, 587.198 326, 587.473 326 C 587.748 326, 593.385 317.900, 600 308 C 606.615 298.100, 611.802 290, 611.527 290 C 611.252 290, 605.615 298.100, 599 308 M 2534.384 314.307 C 2528.398 320.527, 2522.687 327.052, 2521.693 328.807 C 2519.170 333.267, 2520.340 332.813, 2523.129 328.250 C 2524.390 326.188, 2530.123 319.663, 2535.869 313.750 C 2541.615 307.837, 2546.081 303, 2545.793 303 C 2545.505 303, 2540.371 308.088, 2534.384 314.307 M 2540.500 356.855 C 2535.472 359.951, 2525.664 371.397, 2521.523 379 C 2520.005 381.788, 2522.548 378.651, 2527.209 371.986 C 2532.520 364.392, 2539.895 357.279, 2543.191 356.573 C 2544.461 356.301, 2546.400 355.888, 2547.500 355.655 C 2548.796 355.381, 2548.444 355.192, 2546.500 355.120 C 2544.850 355.058, 2542.150 355.839, 2540.500 356.855 M 2334 374.349 C 2322.656 385.478, 2316.883 389.807, 2311.764 391.021 C 2308.906 391.699, 2308.817 391.808, 2311.054 391.898 C 2315.079 392.059, 2322.448 386.710, 2334.427 374.933 C 2340.517 368.945, 2345.275 364.046, 2345 364.047 C 2344.725 364.047, 2339.775 368.683, 2334 374.349 M 705.405 414.500 C 705.406 423.300, 705.559 426.766, 705.745 422.203 C 705.930 417.639, 705.929 410.439, 705.742 406.203 C 705.555 401.966, 705.404 405.700, 705.405 414.500" stroke="none" fill="#f3c304" fill-rule="evenodd"/><path d="" stroke="none" fill="#343433" fill-rule="evenodd"/></svg>