<?xml version="1.0" encoding="UTF-8" standalone="no"?>
<!-- Created with Inkscape (http://www.inkscape.org/) -->

<svg
   width="690.39044mm"
   height="178.88899mm"
   viewBox="0 0 690.39044 178.88899"
   version="1.1"
   id="svg1"
   inkscape:version="1.4 (86a8ad7, 2024-10-11)"
   xml:space="preserve"
   sodipodi:docname="digiblst_v2.svg"
   xmlns:inkscape="http://www.inkscape.org/namespaces/inkscape"
   xmlns:sodipodi="http://sodipodi.sourceforge.net/DTD/sodipodi-0.dtd"
   xmlns="http://www.w3.org/2000/svg"
   xmlns:svg="http://www.w3.org/2000/svg"><sodipodi:namedview
     id="namedview1"
     pagecolor="#ffffff"
     bordercolor="#000000"
     borderopacity="0.25"
     inkscape:showpageshadow="2"
     inkscape:pageopacity="0.0"
     inkscape:pagecheckerboard="true"
     inkscape:deskcolor="#d1d1d1"
     inkscape:document-units="mm"
     inkscape:zoom="0.82359355"
     inkscape:cx="1306.4697"
     inkscape:cy="309.01165"
     inkscape:window-width="3840"
     inkscape:window-height="2066"
     inkscape:window-x="-11"
     inkscape:window-y="-11"
     inkscape:window-maximized="1"
     inkscape:current-layer="svg1" /><defs
     id="defs1"><marker
       id="DistanceX"
       orient="auto"
       refX="0"
       refY="0"
       style="overflow:visible"><path
         d="M 3,-3 -3,3 M 0,-5 V 5"
         style="stroke:#000000;stroke-width:0.5"
         id="path1" /></marker><pattern
       id="Hatch"
       patternUnits="userSpaceOnUse"
       width="8"
       height="8"
       x="0"
       y="0"><path
         d="M8 4 l-4,4"
         stroke="#000000"
         stroke-width="0.25"
         linecap="square"
         id="path2" /><path
         d="M6 2 l-4,4"
         stroke="#000000"
         stroke-width="0.25"
         linecap="square"
         id="path3" /><path
         d="M4 0 l-4,4"
         stroke="#000000"
         stroke-width="0.25"
         linecap="square"
         id="path4" /></pattern><symbol
       id="*Model_Space" /><symbol
       id="*Paper_Space" /><symbol
       id="*Paper_Space0" /><marker
       id="DistanceX-0"
       orient="auto"
       refX="0"
       refY="0"
       style="overflow:visible"><path
         d="M 3,-3 -3,3 M 0,-5 V 5"
         style="stroke:#000000;stroke-width:0.5"
         id="path1-9" /></marker><pattern
       id="Hatch-4"
       patternUnits="userSpaceOnUse"
       width="8"
       height="8"
       x="0"
       y="0"><path
         d="M8 4 l-4,4"
         stroke="#000000"
         stroke-width="0.25"
         linecap="square"
         id="path2-8" /><path
         d="M6 2 l-4,4"
         stroke="#000000"
         stroke-width="0.25"
         linecap="square"
         id="path3-8" /><path
         d="M4 0 l-4,4"
         stroke="#000000"
         stroke-width="0.25"
         linecap="square"
         id="path4-2" /></pattern><symbol
       id="*Model_Space-4" /><symbol
       id="*Paper_Space-5" /><symbol
       id="*Paper_Space0-5" /><marker
       id="DistanceX-7"
       orient="auto"
       refX="0"
       refY="0"
       style="overflow:visible"><path
         d="M 3,-3 -3,3 M 0,-5 V 5"
         style="stroke:#000000;stroke-width:0.5"
         id="path1-6" /></marker><pattern
       id="Hatch-9"
       patternUnits="userSpaceOnUse"
       width="8"
       height="8"
       x="0"
       y="0"><path
         d="M8 4 l-4,4"
         stroke="#000000"
         stroke-width="0.25"
         linecap="square"
         id="path2-3" /><path
         d="M6 2 l-4,4"
         stroke="#000000"
         stroke-width="0.25"
         linecap="square"
         id="path3-5" /><path
         d="M4 0 l-4,4"
         stroke="#000000"
         stroke-width="0.25"
         linecap="square"
         id="path4-7" /></pattern><symbol
       id="*Model_Space-6" /><symbol
       id="*Paper_Space-6" /><symbol
       id="*Paper_Space0-58" /><filter
       inkscape:label="Metal Casting"
       inkscape:menu="Bevels"
       inkscape:menu-tooltip="Smooth drop-like bevel with metallic finish"
       style="color-interpolation-filters:sRGB"
       id="filter357"
       x="-0.0065223728"
       y="-0.026147211"
       width="1.0130447"
       height="1.0522944"><feColorMatrix
         values="0.37"
         type="saturate"
         in="SourceGraphic"
         result="result1"
         id="feColorMatrix357" /><feGaussianBlur
         stdDeviation="7"
         in="SourceAlpha"
         id="feGaussianBlur357" /><feSpecularLighting
         specularExponent="8"
         specularConstant="3.88000011"
         surfaceScale="10"
         id="feSpecularLighting357"><feDistantLight
           azimuth="225"
           elevation="17"
           id="feDistantLight357" /></feSpecularLighting><feComposite
         in2="result1"
         operator="atop"
         id="feComposite357" /></filter><filter
       inkscape:label="Metal Casting"
       inkscape:menu="Bevels"
       inkscape:menu-tooltip="Smooth drop-like bevel with metallic finish"
       style="color-interpolation-filters:sRGB"
       id="filter614"
       x="-0.0065223729"
       y="-0.026147211"
       width="1.0130447"
       height="1.0522944"><feColorMatrix
         values="0.37"
         type="saturate"
         in="SourceGraphic"
         result="result1"
         id="feColorMatrix614" /><feGaussianBlur
         stdDeviation="7"
         in="SourceAlpha"
         id="feGaussianBlur614" /><feSpecularLighting
         specularExponent="8"
         specularConstant="3.88000011"
         surfaceScale="10"
         id="feSpecularLighting614"><feDistantLight
           azimuth="225"
           elevation="17"
           id="feDistantLight614" /></feSpecularLighting><feComposite
         in2="result1"
         operator="atop"
         id="feComposite614" /></filter><filter
       inkscape:menu-tooltip="Smooth drop-like bevel with metallic finish"
       inkscape:menu="Bevels"
       inkscape:label="Metal Casting"
       style="color-interpolation-filters:sRGB;"
       id="filter9"
       x="0"
       y="0"
       width="1"
       height="1" /><filter
       inkscape:label="Metal Casting"
       inkscape:menu="Bevels"
       inkscape:menu-tooltip="Smooth drop-like bevel with metallic finish"
       style="color-interpolation-filters:sRGB;"
       id="filter38"
       x="-0.013976513"
       y="-0.056029738"
       width="1.027953"
       height="1.1120595"><feColorMatrix
         values="0.64000000000000001"
         type="saturate"
         in="SourceGraphic"
         result="result1"
         id="feColorMatrix38" /><feGaussianBlur
         stdDeviation="8"
         in="SourceAlpha"
         id="feGaussianBlur38" /><feSpecularLighting
         specularExponent="8.1220930232558146"
         specularConstant="5"
         surfaceScale="5"
         id="feSpecularLighting38"
         lighting-color="rgb(255,255,255)"><feDistantLight
           azimuth="180"
           elevation="9"
           id="feDistantLight38" /></feSpecularLighting><feComposite
         in2="result1"
         operator="atop"
         id="feComposite38"
         result="fbSourceGraphic" /><feColorMatrix
         result="fbSourceGraphicAlpha"
         in="fbSourceGraphic"
         values="0 0 0 -1 0 0 0 0 -1 0 0 0 0 -1 0 0 0 0 1 0"
         id="feColorMatrix39" /><feColorMatrix
         id="feColorMatrix40"
         values="0.37"
         type="saturate"
         in="fbSourceGraphic"
         result="result1" /><feGaussianBlur
         id="feGaussianBlur40"
         stdDeviation="7"
         in="fbSourceGraphicAlpha" /><feSpecularLighting
         id="feSpecularLighting40"
         specularExponent="8"
         specularConstant="4.1799999999999997"
         surfaceScale="4.4000000000000021"
         lighting-color="rgb(96,96,96)"><feDistantLight
           id="feDistantLight40"
           azimuth="45"
           elevation="40" /></feSpecularLighting><feComposite
         id="feComposite40"
         in2="result1"
         operator="atop" /></filter><filter
       inkscape:label="Combined Lighting"
       inkscape:menu="Bevels"
       inkscape:menu-tooltip="Basic specular bevel to use for building textures"
       style="color-interpolation-filters:sRGB;"
       id="filter46"
       x="-0.026224159"
       y="-0.15734467"
       width="1.0524483"
       height="1.3146893"><feGaussianBlur
         stdDeviation="6"
         in="SourceGraphic"
         result="result0"
         id="feGaussianBlur44" /><feDiffuseLighting
         lighting-color="rgb(255,255,255)"
         diffuseConstant="1"
         surfaceScale="4"
         result="result5"
         id="feDiffuseLighting44"><feDistantLight
           elevation="45"
           azimuth="235"
           id="feDistantLight44" /></feDiffuseLighting><feComposite
         k1="1.4"
         in2="SourceGraphic"
         in="result5"
         result="fbSourceGraphic"
         operator="arithmetic"
         k2="0"
         k3="0"
         k4="0"
         id="feComposite44" /><feGaussianBlur
         result="result0"
         in="fbSourceGraphic"
         stdDeviation="10"
         id="feGaussianBlur45" /><feSpecularLighting
         specularExponent="25"
         specularConstant="2.3796791443850269"
         surfaceScale="-5"
         lighting-color="rgb(255,255,255)"
         result="result1"
         in="result0"
         id="feSpecularLighting45"><feDistantLight
           azimuth="179"
           elevation="47"
           id="feDistantLight45" /></feSpecularLighting><feComposite
         k3="1"
         k2="1"
         operator="arithmetic"
         in="fbSourceGraphic"
         result="result4"
         k1="0"
         k4="0"
         id="feComposite45" /><feGaussianBlur
         stdDeviation="1"
         in="result4"
         result="result6"
         id="feGaussianBlur46" /><feComposite
         operator="in"
         result="fbSourceGraphic"
         in2="SourceGraphic"
         in="result6"
         id="feComposite46" /><feColorMatrix
         result="fbSourceGraphicAlpha"
         in="fbSourceGraphic"
         values="0"
         id="feColorMatrix46"
         type="saturate" /><feGaussianBlur
         id="feGaussianBlur47"
         stdDeviation="0"
         in="fbSourceGraphic"
         result="result0" /><feDiffuseLighting
         id="feDiffuseLighting47"
         lighting-color="rgb(255,255,255)"
         diffuseConstant="1"
         surfaceScale="4"
         result="result5"><feDistantLight
           id="feDistantLight47"
           elevation="32"
           azimuth="200" /></feDiffuseLighting><feComposite
         id="feComposite47"
         k1="1.4"
         in2="fbSourceGraphic"
         in="result5"
         result="fbSourceGraphic"
         operator="arithmetic"
         k2="0"
         k3="0"
         k4="0" /><feGaussianBlur
         id="feGaussianBlur48"
         result="result0"
         in="fbSourceGraphic"
         stdDeviation="10" /><feSpecularLighting
         id="feSpecularLighting48"
         specularExponent="25"
         specularConstant="2.3529411764705883"
         surfaceScale="1.6111111111111107"
         lighting-color="rgb(255,255,255)"
         result="result1"
         in="result0"><feDistantLight
           id="feDistantLight48"
           azimuth="179"
           elevation="49" /></feSpecularLighting><feComposite
         id="feComposite48"
         k3="1"
         k2="1"
         operator="arithmetic"
         in="fbSourceGraphic"
         in2="result1"
         result="result4"
         k1="0"
         k4="0" /><feGaussianBlur
         id="feGaussianBlur49"
         stdDeviation="1"
         in="result4"
         result="result6" /><feComposite
         id="feComposite49"
         operator="in"
         result="result2"
         in2="fbSourceGraphic"
         in="result6" /></filter><filter
       inkscape:label="Combined Lighting"
       inkscape:menu="Bevels"
       inkscape:menu-tooltip="Basic specular bevel to use for building textures"
       style="color-interpolation-filters:sRGB;"
       id="filter52"
       x="-0.066132345"
       y="-0.79770734"
       width="1.1322647"
       height="2.5954147"><feGaussianBlur
         stdDeviation="42.236024844720497"
         in="SourceGraphic"
         result="result0"
         id="feGaussianBlur50" /><feDiffuseLighting
         lighting-color="rgb(255,255,255)"
         diffuseConstant="1.4824120603015076"
         surfaceScale="0.05494505494505475"
         result="result5"
         id="feDiffuseLighting50"><feDistantLight
           elevation="32"
           azimuth="222"
           id="feDistantLight50" /></feDiffuseLighting><feComposite
         k1="1.4"
         in2="SourceGraphic"
         in="result5"
         result="fbSourceGraphic"
         operator="arithmetic"
         k2="0"
         k3="0"
         k4="0"
         id="feComposite50" /><feGaussianBlur
         result="result0"
         in="fbSourceGraphic"
         stdDeviation="8.695652173913043"
         id="feGaussianBlur51" /><feSpecularLighting
         specularExponent="20.914438502673796"
         specularConstant="5"
         surfaceScale="2.166666666666667"
         lighting-color="rgb(242,242,242)"
         result="result1"
         in="result0"
         id="feSpecularLighting51"><feDistantLight
           azimuth="360"
           elevation="36"
           id="feDistantLight51" /></feSpecularLighting><feComposite
         k3="1"
         k2="1"
         operator="arithmetic"
         in="fbSourceGraphic"
         in2="result1"
         result="result4"
         k1="0"
         k4="0"
         id="feComposite51" /><feGaussianBlur
         stdDeviation="5.5900621118012426"
         in="result4"
         result="result6"
         id="feGaussianBlur52" /><feComposite
         operator="in"
         result="fbSourceGraphic"
         in2="SourceGraphic"
         in="result6"
         id="feComposite52" /><feColorMatrix
         result="fbSourceGraphicAlpha"
         in="fbSourceGraphic"
         values="0 0 0 -1 0 0 0 0 -1 0 0 0 0 -1 0 0 0 0 1 0"
         id="feColorMatrix52" /><feGaussianBlur
         id="feGaussianBlur53"
         stdDeviation="6"
         in="fbSourceGraphic"
         result="result0" /><feDiffuseLighting
         id="feDiffuseLighting53"
         lighting-color="rgb(255,255,255)"
         diffuseConstant="0.95108695652173925"
         surfaceScale="0.44910179640718528"
         result="result5"><feDistantLight
           id="feDistantLight53"
           elevation="45"
           azimuth="235" /></feDiffuseLighting><feComposite
         id="feComposite53"
         k1="1.4"
         in2="fbSourceGraphic"
         in="result5"
         result="fbSourceGraphic"
         operator="arithmetic"
         k2="0"
         k3="0"
         k4="0" /><feGaussianBlur
         id="feGaussianBlur54"
         result="result0"
         in="fbSourceGraphic"
         stdDeviation="7.4534161490683228" /><feSpecularLighting
         id="feSpecularLighting54"
         specularExponent="19.342245989304814"
         specularConstant="2.3262032085561497"
         surfaceScale="-2.166666666666667"
         lighting-color="rgb(242,242,242)"
         result="result1"
         in="result0"><feDistantLight
           id="feDistantLight54"
           azimuth="0"
           elevation="31" /></feSpecularLighting><feComposite
         id="feComposite54"
         k3="1"
         k2="1"
         operator="arithmetic"
         in="fbSourceGraphic"
         in2="result1"
         result="result4"
         k1="0"
         k4="0" /><feGaussianBlur
         id="feGaussianBlur55"
         stdDeviation="1"
         in="result4"
         result="result6" /><feComposite
         id="feComposite55"
         operator="in"
         result="result2"
         in2="fbSourceGraphic"
         in="result6" /></filter></defs><g
     inkscape:label="digiBlastPersonalMediaCener"
     id="g38"
     transform="matrix(0.26458333,0,0,0.26458333,1.4449954,-120.05478)"
     style="display:none;fill:#808080;fill-opacity:1;stroke:none"><g
       id="g18"
       inkscape:label="digiBLAST"
       style="fill:#808080"><path
         id="path12"
         style="fill:#808080;fill-opacity:1;stroke:none;stroke-width:3.571;stroke-linecap:round"
         d="m 34.126251,741.73228 c -17.753559,-36.1587 -17.816706,-81.00665 0,-117.16535 13.922181,-28.25483 38.761872,-51.20397 67.268379,-62.10609 11.58205,-4.42948 23.7694,-6.87029 36.55825,-6.87006 l 68.03112,2.2e-4 v -85.04 h 79.37 v 340.158 l -147.40112,-1.7e-4 C 94.507276,810.70866 53.635552,781.46691 34.126251,741.73228 Z m 73.590519,-45.3543 c -2.4e-4,20.31544 10.31365,45.3543 30.23611,45.35416 L 205.984,741.732 V 624.567 l -64.25186,-4e-5 c -20.83066,-3e-5 -34.01561,24.18508 -34.01537,45.35417 z"
         inkscape:label="d"
         sodipodi:nodetypes="sssccccccsccccccc" /><path
         id="path13"
         style="fill:#808080;fill-opacity:1;stroke:none;stroke-width:3.571;stroke-linecap:round"
         d="m 427.087,470.551 v 73.701 h -90.709 v -73.701 z m 0,85.04 V 810.709 H 336.378 V 555.591 Z"
         inkscape:label="i"
         sodipodi:nodetypes="cccccccccc" /><path
         d="m 578.26878,555.59138 c -21.63238,-2.3e-4 -42.05959,6.61602 -59.58789,17.90039 -19.12629,12.31313 -34.80238,30.18254 -44.72656,51.07422 -17.12727,36.05513 -17.12312,81.11218 0,117.16602 18.76268,39.50603 58.07954,68.203 102.51953,68.97656 h 66.69727 c 2.99871,-1.7e-4 4.80157,3.32348 3.16797,5.83789 -6.70102,10.32243 -22.55468,13.0607 -35.94532,13.06055 l -119.05468,-0.002 v 68.03321 h 154.96093 c 44.87868,-1.1e-4 81.25979,-36.38122 81.25977,-81.25977 V 555.59138 Z m 5.66797,68.97656 h 64.25196 v 117.16407 h -64.25196 c -20.86092,1.4e-4 -34.01549,-24.08278 -34.01562,-45.35352 v -26.45703 c 1.3e-4,-21.16909 13.18482,-45.35355 34.01562,-45.35352 z"
         style="fill:#808080;fill-opacity:1;stroke:none;stroke-width:3.571;stroke-linecap:round"
         id="path14"
         inkscape:label="g" /><path
         id="path15"
         style="fill:#808080;fill-opacity:1;stroke:none;stroke-width:3.571;stroke-linecap:round"
         d="m 776.693,470.551 h 90.709 v 73.701 h -90.709 z m 90.709,85.04 h -90.709 v 255.118 h 90.709 z"
         inkscape:label="i"
         sodipodi:nodetypes="cccccccccc" /><path
         d="m 927.87426,470.55036 v 340.15821 h 221.10354 c 18.5611,-1.7e-4 34.4059,-5.33953 49.2969,-13.74024 13.5033,-7.61789 26.2226,-17.7524 34.6093,-30.91797 8.2152,-12.89646 12.2739,-28.70248 12.4688,-44.78515 v -2.4668 c -0.3991,-32.99023 -16.942,-66.58222 -47.0761,-78.16797 30.1341,-11.58575 46.6769,-45.17977 47.08,-78.16992 v -2.4668 c -0.197,-16.08275 -4.2555,-31.88674 -12.4707,-44.7832 -8.3867,-13.16557 -21.106,-23.30008 -34.6093,-30.91797 -14.891,-8.40071 -30.736,-13.7421 -49.2989,-13.74219 z m 85.03514,73.70117 H 1126.3 c 13.1954,-10e-6 21.9151,14.78431 22.6192,28.07422 0.7826,14.55777 -8.2174,31.45313 -22.6445,31.45313 l -113.3653,0.002 z m 0,133.22852 H 1126.3 c 13.1954,1.6e-4 21.9151,14.78431 22.6192,28.07422 0.7827,14.55933 -8.2184,31.45306 -22.6465,31.45313 h -113.3633 z"
         style="fill:#808080;fill-opacity:1;stroke:none;stroke-width:3.571;stroke-linecap:round"
         id="path16"
         inkscape:label="B" /><path
         id="path17"
         style="fill:#808080;fill-opacity:1;stroke:none;stroke-width:3.571;stroke-linecap:round;stroke-opacity:1"
         d="m 1931.34,737.008 204.0916,-7e-5 c 14.255,-6e-5 30.2377,-15.98279 30.2381,-30.2361 l -4e-4,-6.61435 c 0,-10.69012 -11.9871,-22.67716 -22.6783,-22.67732 h -134.1716 c -16.8657,1.6e-4 -30.063,-5.80342 -42.7392,-13.47767 -13.1534,-7.9631 -25.7457,-17.94035 -34.7416,-30.90774 -11.3379,-16.34337 -16.9629,-37.43648 -17.0082,-58.56768 v -0.5111 c 0.046,-21.30199 5.7603,-42.60396 17.0082,-59.07923 8.853,-12.96739 21.1337,-22.94463 34.7416,-30.90773 13.1143,-7.67426 27.4611,-13.47783 42.7392,-13.47792 l 234.3306,-9e-5 v 73.701 l -204.0924,-2e-5 c -14.256,-10e-6 -30.2387,15.98272 -30.2381,30.23611 l -10e-5,6.61409 c -5e-4,10.6903 11.9865,22.67735 22.6787,22.67758 h 134.1716 c 29.6073,3.81539 60.1587,18.36383 77.4799,43.8996 11.3007,16.66006 16.9699,37.99691 17.0092,59.34954 v 0.4303 c -0.039,21.35271 -5.7085,42.68956 -17.0092,59.34963 -17.3212,25.53577 -47.8726,40.08421 -77.4799,43.9 L 1931.34,810.709 Z m -207.88,-172.249 -36.76,90.989 h 73.53 z m 99.37,245.95 -32.06,-79.37 h -134.61 l -32.07,79.37 -221.8876,-1.7e-4 c -62.6189,-1.9e-4 -113.3835,-50.76474 -113.3829,-113.38591 l 5e-4,-226.77192 h 86.93 v 230.55118 c 0,18.78658 15.2294,34.01596 34.0129,34.01588 l 128.5071,-6e-5 v 53.769 L 1680,470.551 h 86.93 l 151.45,340.158 z"
         inkscape:label="LAS"
         sodipodi:nodetypes="ccccccssccssccccccccsccsccccccccccccccccccccccc" /><path
         id="path18"
         style="fill:#808080;fill-opacity:1;stroke:none;stroke-width:3.571;stroke-linecap:round"
         d="m 2273.39,544.252 v -73.701 h 309.92 v 73.701 h -111.5 v 266.457 h -86.93 V 544.252 Z"
         inkscape:label="T"
         sodipodi:nodetypes="ccccccccc" /></g><g
       id="g37"
       inkscape:label="PersonalMediaCenter"
       style="fill:#808080"><path
         id="path19"
         style="fill:#808080;fill-opacity:1;stroke:none;stroke-width:3.571;stroke-linecap:round"
         d="M 49.1339,1113.0663 H 11.3386 V 942.992 l 75.590517,7e-5 c 9.29235,6e-5 19.720563,4.77207 27.677983,11.31749 7.60785,6.25789 12.89225,14.20191 16.97469,22.69831 8.47797,17.64445 8.51127,40.93823 0,58.58273 -4.09847,8.4964 -9.42206,16.4396 -16.97469,22.6975 -7.89965,6.5454 -18.166805,11.3182 -27.677983,11.3182 H 49.1339 v 43.46 m 47.244077,-100.1564 v -13.22488 c -2.4e-5,-10.15771 -5.156967,-22.67715 -15.118155,-22.67708 l -32.125922,6e-5 v 58.582 h 32.125922 c 9.807489,0 15.118131,-12.5375 15.118155,-22.6786 z"
         inkscape:label="p"
         sodipodi:nodetypes="ccccsssscccccccccc" /><path
         id="path20"
         style="fill:#808080;fill-opacity:1;stroke:none;stroke-width:3.571;stroke-linecap:round"
         d="m 258.898,1023.31 h -73.70107 c -8e-5,7.2129 7.78826,12.282 15.11805,12.2817 l 58.58302,-3e-4 v 34.02 h -54.80375 c -33.39775,0 -60.47218,-27.0763 -60.47222,-60.4763 l -1e-5,-5.6696 c 1e-5,-33.39572 27.07445,-60.47017 60.47222,-60.47023 l 54.80376,-7e-5 v 34.016 l -58.58302,-6e-5 c -7.31532,-7e-5 -15.11813,5.08589 -15.11805,12.28323 l 73.70107,-0.003 z"
         inkscape:label="e"
         sodipodi:nodetypes="ccccccccccccccc" /><path
         id="path21"
         style="fill:#808080;fill-opacity:1;stroke:none;stroke-width:3.571;stroke-linecap:round"
         d="M 325.03919,973.22817 313.701,973.228 v 96.382 H 275.906 V 942.992 l 64.25124,7e-5 c 16.69924,6e-5 30.23646,13.53728 30.23661,30.2361 l 1.5e-4,28.34183 h -37.796 l 2.2e-4,-20.7828 c 2.1e-4,-4.17455 -3.3841,-7.55885 -7.55903,-7.55903 z"
         inkscape:label="r"
         sodipodi:nodetypes="ccccccccccc" /><path
         id="path22"
         style="fill:#808080;fill-opacity:1;stroke:none;stroke-width:3.571;stroke-linecap:round"
         d="m 478.97863,1067.4777 c 8.76405,-2.4347 15.02661,-7.151 19.45385,-13.062 10.70894,-14.2981 10.67942,-35.5864 0.0286,-49.8952 -4.40319,-5.91549 -10.62169,-10.63806 -19.43885,-13.08437 -5.40904,-1.50072 -11.79606,-2.14479 -16.03017,-2.14496 h -34.01587 c -3.13087,1.7e-4 -5.6691,-2.53806 -5.6691,-5.66912 l -4e-5,-0.94497 c 4e-5,-3.13098 2.53827,-5.66921 5.66914,-5.66914 l 73.70081,6e-5 v -34.016 l -77.48007,0.001 c -4.28927,10e-4 -10.77972,0.78857 -16.23383,2.34844 -8.89064,2.54271 -15.0276,7.1377 -19.36635,12.97487 -10.4949,14.11941 -10.46848,35.50678 -0.0256,49.63559 4.31723,5.8411 10.41475,10.4416 19.35294,12.9949 5.48328,1.5663 12.03563,2.3622 16.27284,2.3637 h 34.01587 c 3.13087,0 5.66909,2.5382 5.66914,5.6693 v 0.94 c -5e-5,3.1311 -2.53827,5.6693 -5.66914,5.669 l -73.7008,-3e-4 v 34.02 h 77.48007 c 4.29223,0 10.6101,-0.6369 15.98656,-2.1305 z"
         inkscape:label="s"
         sodipodi:nodetypes="ssssccccccccssssccccccccs" /><path
         d="m 585.82738,938.26716 a 69.92126,68.031496 0 0 0 -69.92188,68.03124 69.92126,68.031496 0 0 0 139.8418,0 69.92126,68.031496 0 0 0 -69.91992,-68.03124 z m 0,37.79493 a 26.456787,30.236329 0 0 1 0,60.47261 26.456787,30.236329 0 0 1 0,-60.47261 z"
         style="fill:#808080;fill-opacity:1;stroke:none;stroke-width:3.571;stroke-linecap:round"
         id="path23"
         inkscape:label="o" /><path
         id="path24"
         style="fill:#808080;fill-opacity:1;stroke:none;stroke-width:3.571;stroke-linecap:round"
         d="m 706.772,1069.61 v -88.823 l 30.23593,2e-4 c 4.17469,2e-4 7.559,3.38451 7.55903,7.55903 l 4e-5,81.26377 h 37.795 l 1e-4,-81.26377 c 1.1e-4,-21.38001 -23.97399,-45.3541 -45.35416,-45.35416 l -68.03194,-7e-5 v 126.618 z"
         inkscape:label="n"
         sodipodi:nodetypes="ccccccccccc" /><path
         id="path25"
         style="fill:#808080;fill-opacity:1;stroke:none;stroke-width:3.571;stroke-linecap:round"
         d="m 929.76389,988.34623 c -1.1e-4,-25.04827 -20.30594,-45.3541 -45.35466,-45.35416 l -75.59023,-7e-5 v 34.016 l 66.14182,-6e-5 c 7.32958,-7e-5 15.11792,5.06896 15.11805,12.28323 h -52.91369 c -6.1484,1.7e-4 -12.60425,1.93474 -18.24549,5.04098 -4.98354,2.74408 -9.33134,6.40255 -12.56136,11.03845 -9.30176,13.3502 -9.33358,34.8062 0,48.1565 3.24107,4.6358 7.61143,8.2943 12.56136,11.0384 5.6032,3.1062 11.94904,5.0408 18.24549,5.0426 H 929.764 Z M 890.079,1020.94 v 17.009 h -41.57503 c -4.1748,0 -7.55911,-3.3843 -7.55903,-7.5609 v -1.8899 c -3e-5,-4.1728 3.38427,-7.5571 5.47165,-7.5576 z"
         inkscape:label="a"
         sodipodi:nodetypes="cccccccsssscccccccccc" /><path
         id="path26"
         style="fill:#808080;fill-opacity:1;stroke:none;stroke-width:3.571;stroke-linecap:round"
         d="M 995.906,1069.61 V 901.417 h -41.575 v 168.193 z"
         inkscape:label="l"
         sodipodi:nodetypes="ccccc" /><path
         id="path27"
         style="fill:#808080;fill-opacity:1;stroke:none;stroke-width:3.571;stroke-linecap:round"
         d="m 1241.5685,980.7872 -18.8924,-2e-4 v 88.823 h -41.58 v -88.823 h -26.45 v 88.823 h -41.58 V 942.992 l 132.2822,7e-5 c 21.3824,6e-5 45.3565,23.97415 45.3591,45.35416 V 1069.61 h -41.58 v -81.26377 c 0,-4.17454 -3.3843,-7.55885 -7.5615,-7.55903 z"
         inkscape:label="m"
         sodipodi:nodetypes="ccccccccccccccc" /><path
         id="path28"
         style="fill:#808080;fill-opacity:1;stroke:none;stroke-width:3.571;stroke-linecap:round"
         d="m 1419.21,1035.59 v 34.02 h -54.8003 c -33.3983,0 -60.4727,-27.0763 -60.4712,-60.4763 v -5.6696 c 0,-33.3957 27.0729,-60.47015 60.4712,-60.47023 l 54.8003,-7e-5 v 34.0151 l -58.58,-9.6e-4 c -7.3154,-7e-5 -15.1182,5.08589 -15.1191,12.28323 l 73.6991,-1.7e-4 v 34.019 h -73.6991 c 9e-4,7.2129 7.7893,12.282 15.1191,12.2817 z"
         inkscape:label="e"
         sodipodi:nodetypes="ccccccccccccccc" /><path
         d="m 1555.2766,899.52888 -37.8008,0.002 v 43.46484 h -37.7929 c -9.5136,6e-5 -19.7789,4.77219 -27.6786,11.31761 -7.5526,6.25789 -12.8792,14.20162 -16.9777,22.69802 -8.5113,17.64445 -7.7215,41.69345 0.7565,59.33795 4.0824,8.4964 10.1246,15.6835 17.7324,21.9414 7.9574,6.5454 16.872,11.3202 26.1693,11.3202 h 75.5957 z m -37.7969,77.47852 v 58.582 h -32.1269 c -9.959,3e-4 -15.1172,-12.5183 -15.1153,-22.6777 v -13.22461 c 0,-10.13941 5.3055,-22.67595 15.1133,-22.67774 z"
         style="fill:#808080;fill-opacity:1;stroke:none;stroke-width:3.571;stroke-linecap:round"
         id="path29"
         sodipodi:nodetypes="cccssssssccccccscc"
         inkscape:label="d" /><path
         id="path30"
         style="fill:#808080;fill-opacity:1;stroke:none;stroke-width:3.571;stroke-linecap:round"
         d="m 1579.84,901.417 h 39.69 v 35.906 h -39.69 z m 39.69,168.193 h -39.69 V 942.992 h 39.69 v 126.618"
         inkscape:label="i"
         sodipodi:nodetypes="cccccccccc" /><path
         id="path31"
         style="fill:#808080;fill-opacity:1;stroke:none;stroke-width:3.571;stroke-linecap:round"
         d="m 1710.2362,977.00787 c 7.3298,0 15.1181,5.06903 15.116,12.2833 h -52.9117 c -6.1481,1.7e-4 -12.604,1.93474 -18.2452,5.04098 -4.9836,2.74408 -9.3314,6.40255 -12.5614,11.03845 -9.3017,13.3502 -9.3336,34.8062 0,48.1565 3.2411,4.6358 7.6115,8.2943 12.5614,11.0384 5.6032,3.1062 11.949,5.0408 18.2452,5.0426 h 92.5995 l -3e-4,-81.26377 c -3e-4,-25.0483 -20.3062,-45.35414 -45.3522,-45.35416 l -75.5975,-7e-5 v 34.016 h 66.15 m -34.0197,51.4891 c 2e-4,-4.1728 3.3845,-7.5571 7.5595,-7.5571 h 41.5702 v 17.009 h -41.5702 c -4.175,0 -7.5593,-3.3844 -7.5595,-7.5609 z"
         inkscape:label="a"
         sodipodi:nodetypes="cccsssscccccccccccccc" /><path
         id="path32"
         style="fill:#808080;fill-opacity:1;stroke:none;stroke-width:3.571;stroke-linecap:round"
         d="m 1991.81,1035.5866 v 34.02 h -54.8011 c -33.399,0 -60.4735,-27.0763 -60.4712,-60.4745 v -5.668 c 0,-33.39574 27.0722,-60.4702 60.4712,-60.47023 l 54.8011,-7e-5 v 34.016 l -51.0213,-6e-5 c -12.5256,-9e-5 -22.6785,10.15283 -22.6786,22.67708 V 1012.91 c 10e-5,12.5243 10.153,22.6772 22.6786,22.6769 z"
         inkscape:label="c"
         sodipodi:nodetypes="ccccccccccccc" /><path
         id="path33"
         style="fill:#808080;fill-opacity:1;stroke:none;stroke-width:3.571;stroke-linecap:round"
         d="m 2112.76,1035.59 v 34.02 h -54.8086 c -33.3966,0 -60.4711,-27.0763 -60.4713,-60.4763 v -5.6696 c 2e-4,-33.39574 27.0747,-60.4702 60.4713,-60.47023 l 54.8086,-7e-5 v 34.016 l -58.5884,-6e-5 c -7.3137,-7e-5 -15.1165,5.08589 -15.1141,12.28323 l 73.7025,-1.7e-4 v 34.019 h -73.7024 c 0,7.2129 7.7859,12.282 15.114,12.2817 z"
         inkscape:label="e"
         sodipodi:nodetypes="ccccccccccccccc" /><path
         id="path34"
         style="fill:#808080;fill-opacity:1;stroke:none;stroke-width:3.571;stroke-linecap:round"
         d="m 2201.5685,980.7872 -30.2324,-2e-4 v 88.823 h -37.8 V 942.992 l 68.0324,7e-5 c 21.3826,6e-5 45.3567,23.97415 45.3591,45.35416 V 1069.61 h -37.8 v -81.26377 c 0,-4.17454 -3.3843,-7.55885 -7.5615,-7.55903 z"
         inkscape:label="n"
         sodipodi:nodetypes="ccccccccccc" /><path
         id="path35"
         style="fill:#808080;fill-opacity:1;stroke:none;stroke-width:3.571;stroke-linecap:round"
         d="m 2316.8492,1069.6066 c -18.7862,0 -34.0156,-15.2311 -34.0174,-34.017 V 977.008 h -22.67 v -34.016 h 22.67 v -41.575 h 37.8 v 41.575 h 34.02 v 34.016 h -34.02 v 51.022 c -1e-4,4.1748 3.3842,7.5591 7.559,7.5588 l 26.46,-3e-4 v 34.02 z"
         inkscape:label="t"
         sodipodi:nodetypes="ccccccccccccccccc" /><path
         id="path36"
         style="fill:#808080;fill-opacity:1;stroke:none;stroke-width:3.571;stroke-linecap:round"
         d="m 2417.0079,977.00787 c -7.3153,0 -15.1181,5.08596 -15.118,12.2833 l 73.7001,-1.7e-4 v 34.019 h -73.7001 c -1e-4,7.2129 7.7882,12.282 15.1191,12.2817 l 58.581,-3e-4 v 34.02 h -54.8013 c -33.3993,0 -60.4737,-27.0763 -60.4762,-60.4763 v -5.6696 c 0,-33.3957 27.0769,-60.47015 60.4762,-60.47023 l 54.8013,-7e-5 v 34.016 h -58.58"
         inkscape:label="e"
         sodipodi:nodetypes="ccccccccccccccc" /><path
         id="path37"
         style="display:inline;fill:#808080;fill-opacity:1;stroke:none;stroke-width:3.571;stroke-linecap:round"
         d="m 2530.39,973.228 v 96.382 H 2492.6 V 942.992 l 64.2502,7e-5 c 16.6992,7e-5 30.2364,13.53728 30.2381,30.2361 V 1001.57 h -37.8 v -20.7828 c 0,-4.17453 -3.3843,-7.55882 -7.5595,-7.55903 z"
         inkscape:label="r"
         sodipodi:nodetypes="ccccccccccc" /></g></g><g
     inkscape:label="digiBlastPersonalMediaCenerOutline"
     id="g404"
     transform="matrix(0.26458333,0,0,0.26458333,1.4449944,-120.05478)"
     style="display:inline;stroke:none;fill:#000000"><path
       d="m 205.98363,457.3238 c -7.30568,-9e-5 -13.22856,5.92084 -13.22852,13.22656 v 58.58399 c -4e-5,7.30575 -5.92096,13.22861 -13.22656,13.22851 H 137.95238 C 67.185003,542.36296 7.5020623,611.81623 7.5597963,683.22029 7.6175293,754.62435 67.484804,823.93709 137.95238,823.93708 h 147.40234 c 7.30599,10e-6 13.22836,-5.92286 13.22852,-13.22851 V 470.55036 c -1.6e-4,-7.30573 -5.92253,-13.22665 -13.22852,-13.22656 z m -64.25196,180.4707 h 37.79688 c 7.30559,1.4e-4 13.22652,5.92252 13.22656,13.22852 v 64.25195 c -4e-5,7.30561 -5.92096,13.22849 -13.22656,13.22852 h -41.57617 c -0.83476,-3e-5 -1.64932,-0.15082 -2.43555,-0.41992 -0.78624,-0.2691 -1.52239,-0.64027 -2.22266,-1.08203 -0.70027,-0.44177 -1.35457,-0.94736 -1.96484,-1.48633 -0.61026,-0.53896 -1.17854,-1.11783 -1.71484,-1.72656 -1.07261,-1.21748 -2.01947,-2.56985 -2.85547,-3.98047 -0.83601,-1.41061 -1.56375,-2.87576 -2.19922,-4.38672 -0.63547,-1.51097 -1.17745,-3.06707 -1.62891,-4.62891 -0.45145,-1.56184 -0.81916,-3.13758 -1.11328,-4.72656 -0.58825,-3.17797 -0.87311,-6.40807 -0.87305,-9.6875 v -26.45703 c -6e-5,-3.50312 0.37643,-6.96083 1.16602,-10.36719 0.3948,-1.70317 0.88863,-3.38262 1.48437,-5.01172 0.59574,-1.6291 1.29676,-3.2136 2.1211,-4.74609 0.82434,-1.5325 1.77579,-3.02475 2.84179,-4.40235 1.06601,-1.3776 2.25406,-2.64854 3.61133,-3.77343 0.67864,-0.56244 1.38778,-1.07919 2.12696,-1.54297 0.73917,-0.46378 1.50915,-0.87739 2.31836,-1.22266 0.80921,-0.34527 1.65416,-0.61709 2.50781,-0.79492 0.85364,-0.17792 1.7235,-0.26549 2.60937,-0.26563 z"
       style="stroke:none;stroke-width:3.571;stroke-linecap:round;fill:#000000"
       id="path5"
       inkscape:label="d" /><path
       id="path30-6"
       style="fill:#000000;fill-opacity:1;stroke:none;stroke-width:3.571;stroke-linecap:round"
       d="m 440.31498,470.55109 c -2e-5,-7.30573 -5.92255,-13.22826 -13.22817,-13.22817 l -90.70883,0 c -7.30584,-9e-5 -13.22837,5.92245 -13.22817,13.22817 v 340.15774 c -2e-4,7.30564 5.92233,13.22818 13.22817,13.22817 h 90.70883 c 7.30562,10e-6 13.22815,-5.92252 13.22817,-13.22817 z"
       inkscape:label="i"
       sodipodi:nodetypes="ccccccccc" /><path
       d="m 578.26879,542.36286 c -62.57036,1e-4 -115.7711,50.76604 -127.51953,110.96875 -11.74843,60.20271 16.20001,127.23105 69.84179,155.9336 3.46743,1.85433 2.15094,7.11325 -1.78125,7.11328 h -27.4707 c -7.30602,-3e-5 -13.22852,5.92271 -13.22852,13.22852 v 68.03125 c 1.2e-4,7.3057 5.9225,13.22858 13.22852,13.22851 h 154.96094 c 52.18449,7e-5 94.48653,-42.30392 94.48633,-94.48828 V 555.59138 c 2e-4,-7.30604 -5.92073,-13.22842 -13.22656,-13.22852 z m 5.66797,95.43164 h 37.79492 c 7.30595,1.4e-4 13.22832,5.92252 13.22851,13.22852 v 64.25195 c -1.9e-4,7.30562 -5.92255,13.22849 -13.22851,13.22852 h -37.79492 c -0.8862,-3e-5 -1.7562,-0.0939 -2.61328,-0.27734 -0.85709,-0.18345 -1.70713,-0.45653 -2.51368,-0.79688 -0.80655,-0.34036 -1.57824,-0.74942 -2.32031,-1.21484 -0.74207,-0.46543 -1.45791,-0.9881 -2.13086,-1.54688 -1.34588,-1.11757 -2.53599,-2.38992 -3.60937,-3.77929 -1.07338,-1.38937 -2.01508,-2.8689 -2.83789,-4.4004 -0.82282,-1.53151 -1.52817,-3.12476 -2.12891,-4.77343 -0.60075,-1.64868 -1.08697,-3.32201 -1.47656,-5.00977 -0.7792,-3.37554 -1.15645,-6.81908 -1.15625,-10.32617 v -26.45703 c -2e-4,-3.50312 0.37642,-6.96083 1.16601,-10.36719 0.3948,-1.70317 0.88668,-3.38262 1.48242,-5.01172 0.59575,-1.6291 1.29675,-3.2136 2.1211,-4.74609 0.82434,-1.5325 1.77775,-3.02475 2.84375,-4.40235 1.066,-1.3776 2.25209,-2.64854 3.60937,-3.77343 0.67864,-0.56244 1.38973,-1.07919 2.12891,-1.54297 0.73918,-0.46378 1.50915,-0.87739 2.31836,-1.22266 0.80921,-0.34527 1.65416,-0.61709 2.50781,-0.79492 0.85365,-0.17792 1.72336,-0.26549 2.60938,-0.26563 z"
       style="stroke:none;stroke-width:3.571;stroke-linecap:round;fill:#000000"
       id="path6"
       inkscape:label="g" /><path
       id="path57-1"
       style="fill:#000000;fill-opacity:1;stroke:none;stroke-width:3.571;stroke-linecap:round"
       d="m 776.69296,823.937 h 90.70883 c 7.3056,10e-6 13.22813,-5.92252 13.22817,-13.22817 V 470.55109 c -4e-5,-7.30573 -5.92257,-13.22826 -13.22817,-13.22817 l -90.70883,0 c -7.30586,-9e-5 -13.22839,5.92245 -13.22818,13.22817 v 340.15774 c -2.1e-4,7.30564 5.92232,13.22818 13.22818,13.22817 z"
       inkscape:label="i"
       sodipodi:nodetypes="ccccccccc" /><path
       d="m 927.87426,457.3238 c -7.30581,-9e-5 -13.22868,5.92083 -13.22851,13.22656 v 340.15821 c -1.7e-4,7.30565 5.9227,13.22852 13.22851,13.22851 h 221.10354 c 56.0057,10e-6 108.906,-45.55178 109.6035,-102.58984 v -2.62891 c -0.358,-29.40215 -12.0887,-59.6397 -34.4785,-78.08789 22.1704,-18.26742 34.1188,-48.54321 34.4785,-78.08789 v -2.62891 c -0.6932,-56.68837 -53.3548,-102.58993 -109.6035,-102.58984 z m 111.49614,100.15625 h 86.9277 c 0.8258,2e-4 1.6207,0.27962 2.332,0.68164 0.7113,0.40202 1.3596,0.92274 1.9336,1.49805 0.574,0.5753 1.0851,1.21496 1.5469,1.88867 0.4617,0.67372 0.8694,1.37563 1.2324,2.10156 0.7261,1.45185 1.267,3.00843 1.6543,4.57813 0.3873,1.56971 0.621,3.17137 0.707,4.80273 0.097,1.81328 0.01,3.60881 -0.2832,5.38477 -0.1465,0.88798 -0.3435,1.77604 -0.5918,2.64648 -0.2483,0.87044 -0.5474,1.71922 -0.9062,2.54297 -0.3587,0.82374 -0.7784,1.62119 -1.2656,2.39063 -0.4873,0.76943 -1.0304,1.49429 -1.6563,2.14648 -0.6258,0.6522 -1.3436,1.23547 -2.1328,1.68164 -0.3946,0.22309 -0.818,0.41419 -1.2539,0.54102 -0.436,0.12683 -0.8839,0.18564 -1.3438,0.18554 h -86.9003 c -7.3057,1.2e-4 -13.2286,-5.92081 -13.2286,-13.22656 v -6.61523 c 0,-7.306 5.9229,-13.22839 13.2286,-13.22852 z m 0,133.22852 h 86.9278 c 0.8258,-1.2e-4 1.6207,0.27961 2.332,0.68164 0.7113,0.40202 1.3577,0.92274 1.9317,1.49804 0.574,0.57531 1.087,1.21496 1.5488,1.88868 0.4617,0.67372 0.8694,1.37563 1.2324,2.10156 0.7261,1.45185 1.267,3.00842 1.6543,4.57812 0.3873,1.5697 0.621,3.17138 0.707,4.80274 0.098,1.81328 0.01,3.6088 -0.2832,5.38476 -0.1465,0.88798 -0.3435,1.77606 -0.5918,2.64649 -0.2483,0.87045 -0.5474,1.71923 -0.9062,2.54297 -0.3587,0.82374 -0.7784,1.62119 -1.2656,2.39062 -0.4873,0.76943 -1.0304,1.49429 -1.6563,2.14649 -0.6258,0.6522 -1.3456,1.23547 -2.1348,1.68164 -0.3946,0.22308 -0.816,0.41419 -1.2519,0.54101 -0.436,0.12686 -0.8839,0.18532 -1.3438,0.18555 h -86.9004 c -7.3058,-2e-4 -13.2285,-5.92259 -13.2285,-13.22852 v -6.61328 c 0,-7.30583 5.9227,-13.22871 13.2285,-13.22851 z"
       style="stroke:none;stroke-width:3.571;stroke-linecap:round;fill:#000000"
       id="path7"
       inkscape:label="B" /><path
       d="m 1288.8196,457.3238 c -7.3064,-6e-5 -13.2282,5.92085 -13.2285,13.22656 V 697.3238 c 3e-4,69.92697 56.6866,126.61325 126.6113,126.61328 h 221.8906 c 5.3947,10e-6 10.2474,-3.27363 12.2676,-8.27343 l 25.3809,-62.82422 c 2.0211,-4.99987 6.8738,-8.27351 12.2675,-8.27344 h 98.9121 c 5.3934,-3e-5 10.246,3.27361 12.2676,8.27344 l 25.3809,62.82422 c 2.0198,4.9998 6.8735,8.27344 12.2637,8.27343 h 343.6855 c 59.4862,-7.66625 106.7602,-56.10928 106.8672,-116.69336 -0.1063,-60.18669 -46.8825,-108.96277 -106.8672,-116.69336 h -135.0215 c -5.2204,1.4e-4 -9.4492,-4.22861 -9.4492,-9.44726 v -6.61524 c 0,-9.3931 7.6141,-17.00766 17.0098,-17.00781 h 204.0918 c 7.3056,1.9e-4 13.2275,-5.92269 13.2285,-13.22852 v -73.70117 c 0,-7.30566 -5.9248,-13.22668 -13.2304,-13.22656 h -234.3301 c -26.8035,-9e-5 -57.0192,15.84674 -77.332,36.67578 -20.3127,20.82904 -30.3212,49.66902 -30.2891,95.33789 0.032,45.66887 48.392,101.37093 107.6211,101.3711 h 134.1719 c 5.2194,-1.6e-4 9.4496,4.23102 9.4492,9.44922 v 6.61328 c 4e-4,9.39299 -7.6151,17.00753 -17.0098,17.00781 h -204.0918 c -7.3065,-2.6e-4 -13.2284,5.92262 -13.2285,13.22852 v 22.79687 c 10e-5,4.08085 -5.5737,5.26529 -7.2324,1.53711 L 1779.011,465.17145 c -2.1231,-4.773 -6.8579,-7.84774 -12.082,-7.84765 h -86.9297 c -5.2246,-9e-5 -9.9594,3.07465 -12.0821,7.84765 l -116.4199,261.48048 c -2.5152,-3.01801 -6.2381,-4.76185 -10.166,-4.76172 h -131.5684 c -11.4768,-1.2e-4 -20.7832,-9.30637 -20.7832,-20.78711 V 470.55036 c 0,-7.30575 -5.9237,-13.22668 -13.2285,-13.22656 z m 434.6387,149.05859 c 1.4338,0 2.8672,0.78757 3.5039,2.36329 l 11.5507,28.57812 c 1.0038,2.48452 -0.8263,5.19514 -3.5058,5.19531 h -23.0899 c -2.6795,-10e-5 -4.5084,-2.71075 -3.5097,-5.19531 l 11.5468,-28.57812 c 0.6368,-1.57572 2.0701,-2.36329 3.504,-2.36329 z"
       style="display:inline;stroke:none;stroke-width:3.571;stroke-linecap:round;fill:#000000"
       id="path8"
       inkscape:label="LAS" /><path
       id="path150-3"
       style="display:inline;fill:#000000;fill-opacity:1;stroke:none;stroke-width:3.571;stroke-linecap:round"
       d="m 2273.3879,457.32292 c -7.3079,-6e-5 -13.2304,5.92246 -13.2291,13.22817 v 73.7009 c -0,7.30578 5.9212,13.2283 13.2291,13.22817 h 85.0379 c 7.3017,1.9e-4 13.2242,5.92271 13.2242,13.2285 l 0,240.00017 c 0,7.30567 5.9244,13.22821 13.2292,13.22817 l 86.9296,10e-6 c 7.3063,3e-5 13.2289,-5.92251 13.2292,-13.22818 v -240 c -3e-4,-7.30596 5.9222,-13.22848 13.2291,-13.22867 h 85.0397 c 7.3044,1.3e-4 13.2269,-5.92239 13.2292,-13.22817 l 0,-73.7009 c -0,-7.30571 -5.9248,-13.22823 -13.2292,-13.22817 z m 0,250.14908 v -0.455"
       inkscape:label="T"
       sodipodi:nodetypes="ccccccccccccccccccc" /><path
       d="m 585.83324,932.49959 c -28.28746,-0.004 -56.57756,12.50938 -70.15625,37.55273 -0.9343,1.72343 -3.5508,1.05977 -3.55078,-0.90039 v -26.1582 c -10e-6,-5.21838 -4.2307,-9.44712 -9.44922,-9.44727 h -77.48047 c -16.22613,1.5e-4 -36.5532,7.59361 -45.77148,23.00977 -0.77699,1.29953 -2.69142,1.20302 -3.33399,-0.16797 -6.53337,-13.9397 -20.53854,-22.84165 -35.93359,-22.8418 h -136.0625 c -25.88064,1.5e-4 -49.64517,14.29419 -61.77149,37.1582 -0.7111,1.34098 -2.6336,1.33878 -3.3418,-0.004 -10.24831,-19.4331 -31.33007,-37.15415 -52.052732,-37.1543 l -75.589845,-0.004 c -5.2184558,3.1e-4 -9.4492172,4.23085 -9.4492186,9.44922 v 170.07812 c 1.25e-5,5.2188 4.2307786,9.449 9.4492186,9.4492 h 37.794923 c 5.21841,0 9.449197,-4.2265 9.449218,-9.4453 v -24.5684 c -10e-7,-5.2165 4.230786,-9.4472 9.449219,-9.4472 h 18.896485 c 20.895592,0 41.769602,-17.7331 52.050782,-37.166 0.71032,-1.3416 2.63197,-1.3407 3.3418,0 12.12564,22.8663 35.89126,37.1644 61.77344,37.166 h 109.60547 c 5.21832,0 9.449,-4.2347 9.44921,-9.4512 v -49.1367 c -1.9e-4,-5.2172 4.23101,-9.4492 9.44922,-9.4492 h 43.92969 c 1.13183,9e-4 2.25439,-0.2025 3.31445,-0.5996 3.02466,4.8823 6.77823,8.9949 11.28321,12.3067 1.47051,1.0812 0.70586,3.412 -1.11914,3.4121 h -4.4961 c -5.21857,8e-4 -9.4473,4.2326 -9.44726,9.4511 v 34.0176 c 0,5.2165 4.22873,9.4467 9.44726,9.4492 h 77.48047 c 20.31761,0 44.04667,-12.944 50.54102,-33.832 0.48707,-1.5671 2.60259,-1.8116 3.43359,-0.3965 28.38857,48.3399 112.21609,47.1291 139.00977,-2.2832 0.93435,-1.7234 3.55253,-1.0595 3.55273,0.9024 v 26.1601 c -2.1e-4,5.2165 4.22903,9.4467 9.44727,9.4492 h 37.79688 c 5.21825,0 9.44725,-4.2327 9.44726,-9.4511 v -77.48245 c 2.4e-4,-1.0425 0.84706,-1.88856 1.89063,-1.88867 h 15.11718 c 1.04385,1.1e-4 1.89068,0.84693 1.89063,1.89062 v 77.4824 c 6e-5,5.2165 4.23075,9.4492 9.44922,9.4492 h 37.79492 c 5.21854,0 9.44922,-4.2327 9.44922,-9.4492 v -15.2383 c 5e-5,-1.99 2.68111,-2.6267 3.57617,-0.8477 7.7142,15.3345 24.85371,25.5327 41.77735,25.5352 h 92.59765 c 5.21832,0 9.44901,-4.2327 9.44922,-9.4492 v -81.2637 c -2e-4,-30.26671 -24.53557,-54.80258 -54.80273,-54.80274 h -75.58985 c -5.21849,1.6e-4 -9.44918,4.23085 -9.44922,9.44922 v 34.01563 c 4e-5,4.77147 3.55725,8.79533 8.29297,9.37891 1.6922,0.20854 2.26496,2.37361 0.89649,3.39062 -5.52189,4.10864 -10.03555,9.36487 -13.16993,15.60936 -0.89397,1.7807 -3.57813,1.1439 -3.57812,-0.8477 v -16.1933 c 10e-6,-30.26671 -24.53781,-54.80258 -54.80469,-54.80274 h -68.03125 c -5.21825,1.6e-4 -9.44749,4.23085 -9.44727,9.44922 v 26.15821 c -2e-4,1.96016 -2.61841,2.62455 -3.55273,0.90234 -13.57098,-25.02672 -41.85512,-37.54886 -70.14258,-37.55273 z m -0.006,53.01172 c 0.62583,0 1.2567,0.0445 1.8711,0.1289 0.6144,0.0844 1.21647,0.20972 1.81054,0.37305 0.59406,0.16332 1.17952,0.3638 1.75391,0.60351 0.57439,0.23971 1.13971,0.51909 1.67969,0.82618 1.07997,0.61419 2.07587,1.34716 2.99804,2.18554 0.92218,0.83837 1.7557,1.77127 2.49024,2.76367 0.73454,0.9924 1.37916,2.05336 1.93554,3.17188 0.55638,1.11853 1.01109,2.26819 1.375,3.44336 0.36391,1.1751 0.63709,2.3771 0.82032,3.6055 0.18325,1.2283 0.27443,2.4761 0.27343,3.7109 -10e-4,1.2348 -0.0928,2.4647 -0.27734,3.6914 -0.18449,1.2267 -0.46504,2.4515 -0.83398,3.6328 -0.36894,1.1812 -0.82695,2.3299 -1.38477,3.4434 -0.55782,1.1134 -1.21088,2.1792 -1.95117,3.1719 -0.74028,0.9928 -1.58049,1.9275 -2.50391,2.7597 -0.92341,0.8323 -1.92424,1.5611 -3.01562,2.1739 -1.09139,0.6129 -2.23913,1.0897 -3.43946,1.4121 -0.60016,0.1612 -1.21981,0.2832 -1.83593,0.3632 -0.61613,0.08 -1.23105,0.1133 -1.84766,0.1133 -0.61661,0 -1.23447,-0.047 -1.85156,-0.1347 -0.61708,-0.088 -1.23149,-0.2198 -1.82617,-0.3868 -1.18937,-0.3341 -2.32062,-0.8157 -3.39649,-1.4316 -0.53793,-0.3079 -1.06441,-0.6518 -1.56445,-1.0195 -0.50004,-0.3678 -0.97639,-0.7596 -1.43164,-1.1758 -0.91049,-0.8324 -1.74151,-1.7654 -2.47852,-2.7656 -1.47401,-2.0004 -2.54773,-4.2038 -3.2832,-6.5782 -0.36773,-1.1871 -0.64124,-2.399 -0.82227,-3.6152 -0.181,-1.2163 -0.27154,-2.4423 -0.27148,-3.6797 5e-5,-1.2375 0.0924,-2.4851 0.27539,-3.7051 0.18295,-1.2199 0.45479,-2.4222 0.82227,-3.60543 0.36748,-1.18322 0.83132,-2.34625 1.38281,-3.45117 0.55149,-1.10491 1.19428,-2.16256 1.9375,-3.16407 0.74322,-1.0015 1.56942,-1.92169 2.48633,-2.7539 0.91691,-0.83221 1.93108,-1.57623 3.00586,-2.18555 0.53738,-0.30467 1.09258,-0.57926 1.66601,-0.81836 0.57343,-0.2391 1.1667,-0.44403 1.76367,-0.60742 1.19395,-0.32678 2.41632,-0.49609 3.66797,-0.49609 z m -527.244146,0.94531 22.675782,0.002 c 0.16216,6.9e-4 0.315125,0.0564 0.460937,0.12109 0.145813,0.0647 0.284808,0.14463 0.417969,0.23243 0.266323,0.17551 0.509258,0.37887 0.738282,0.59765 0.458047,0.43755 0.854722,0.9404 1.207031,1.47071 0.704617,1.06061 1.238737,2.21716 1.654297,3.41211 0.41556,1.19495 0.706843,2.41151 0.902343,3.64453 0.195499,1.23302 0.28908,2.48317 0.289063,3.75 v 13.22456 c 1.7e-5,1.2668 -0.09468,2.5195 -0.291016,3.7559 -0.196331,1.2365 -0.488687,2.4619 -0.90625,3.6582 -0.417564,1.1962 -0.94856,2.3385 -1.65039,3.3945 -0.350915,0.5282 -0.745406,1.0294 -1.203125,1.4669 -0.22886,0.2188 -0.477799,0.4242 -0.742188,0.6015 -0.132194,0.089 -0.26873,0.1713 -0.414062,0.2383 -0.145331,0.067 -0.300789,0.1133 -0.462891,0.1133 H 58.583234 Z m 439.642586,0 h 8.44726 c 1.22009,-1.6e-4 2.12012,1.13896 1.83789,2.32617 -0.51464,2.16342 -0.93276,4.34319 -1.2539,6.53711 -0.2345,1.60137 -2.24137,2.18614 -3.29883,0.96094 -2.06117,-2.38705 -4.35017,-4.53471 -6.86719,-6.42383 -1.45226,-1.08991 -0.68092,-3.40055 1.13477,-3.40039 z"
       style="stroke:none;stroke-width:3.571;stroke-linecap:round;fill:#000000"
       id="path9"
       inkscape:label="persona" /><path
       id="path314-6"
       style="fill:#000000;fill-opacity:1;stroke:none;stroke-width:3.571;stroke-linecap:round"
       d="m 954.33086,1079.0576 41.5749,0 c 5.21814,-0 9.44854,-4.2329 9.44644,-9.4494 l -1e-4,-168.19104 c 0,-5.21827 -4.2282,-9.44864 -9.44635,-9.44841 l -41.57489,0 c -5.21859,-2.5e-4 -9.44897,4.23013 -9.44891,9.44841 v 168.19104 c -5e-5,5.2165 4.23033,9.4469 9.44891,9.4494 z"
       inkscape:label="l"
       transform="translate(4.9606299e-6)"
       sodipodi:nodetypes="ccccccccc" /><path
       d="m 1517.4797,890.07966 c -5.2182,-1.2e-4 -9.4484,4.22862 -9.4492,9.44727 v 34.01562 h -28.3437 c -18.3121,1.6e-4 -36.5676,14.18067 -47.5899,29.87891 -1.061,1.51097 -3.4375,0.76046 -3.4375,-1.08594 v -19.34375 c 7e-4,-5.21836 -4.2295,-9.44905 -9.4492,-9.44922 h -54.8028 c -26.8483,1.9e-4 -51.3253,15.37423 -62.9844,39.5586 -0.7505,1.55705 -3.0238,1.37251 -3.5136,-0.28516 -6.8824,-23.2895 -28.2713,-39.27329 -52.5586,-39.27344 h -132.2832 c -5.218,1.1e-4 -9.4482,4.23082 -9.4492,9.44922 V 1069.609 c 0,5.2166 4.2312,9.4468 9.4492,9.4492 h 41.5782 c 5.2162,0 9.4456,-4.2327 9.4433,-9.4492 v -77.48246 c 0,-1.04371 0.8451,-1.89054 1.8867,-1.89063 h 3.7812 c 1.0456,1.5e-4 1.8907,0.84696 1.8907,1.89063 v 77.48246 c 0,5.2166 4.2281,9.4468 9.4453,9.4492 h 41.5762 c 5.217,0 9.4472,-4.2327 9.4492,-9.4492 v -77.48246 c 0,-1.04367 0.8467,-1.89048 1.8925,-1.89063 h 3.7793 c 1.0413,1.5e-4 1.8876,0.84696 1.8926,1.89063 l 0.01,77.48436 c -0.011,5.2131 4.219,9.4429 9.4355,9.4453 h 41.5762 c 5.2178,0 9.4499,-4.2326 9.4512,-9.4492 v -24.8691 c -10e-5,-1.9385 2.5702,-2.6208 3.5312,-0.9375 12.4456,21.7979 35.6198,35.2533 60.7207,35.2558 h 54.8028 c 5.2197,0 9.4499,-4.2326 9.4492,-9.4492 v -19.3184 c 0,-1.8463 2.3773,-2.5964 3.4375,-1.0839 10.9647,15.6442 29.4188,29.8482 47.5918,29.8515 h 75.5938 c 5.2162,0 9.4455,-4.2327 9.4433,-9.4492 V 899.52693 c 0,-5.21865 -4.2271,-9.44739 -9.4433,-9.44727 z m -32.1308,96.375 h 22.6797 v 39.68364 h -22.6797 c -0.1621,0 -0.3132,-0.056 -0.459,-0.1211 -0.1458,-0.065 -0.2848,-0.1445 -0.418,-0.2325 -0.2663,-0.1755 -0.5093,-0.3788 -0.7383,-0.5976 -0.458,-0.4375 -0.8547,-0.9403 -1.207,-1.4707 -0.7046,-1.0606 -1.2388,-2.2171 -1.6543,-3.4121 -0.4156,-1.1949 -0.7068,-2.4116 -0.9023,-3.6446 -0.195,-1.2331 -0.2902,-2.4832 -0.2852,-3.75 v -13.22457 c -0.01,-1.26769 0.089,-2.52136 0.2852,-3.75781 0.1963,-1.23645 0.4906,-2.46196 0.9082,-3.6582 0.4176,-1.19623 0.9486,-2.33849 1.6504,-3.39453 0.351,-0.52803 0.7454,-1.02923 1.2031,-1.4668 0.2289,-0.21878 0.4758,-0.42431 0.7402,-0.60156 0.1322,-0.0886 0.2688,-0.17138 0.4141,-0.23828 0.1453,-0.0669 0.3008,-0.11344 0.4629,-0.11329 z"
       style="stroke:none;stroke-width:3.571;stroke-linecap:round;fill:#000000"
       id="path10"
       inkscape:label="med" /><path
       id="path254-3"
       style="display:inline;fill:#000000;fill-opacity:1;stroke:none;stroke-width:3.571;stroke-linecap:round"
       d="m 1628.9782,901.41716 v 99.71414 c 0,1.9098 2.5069,2.6152 3.502,0.9867 2.9458,-4.81749 6.8234,-8.96704 11.3568,-12.34042 1.3683,-1.01716 0.7958,-3.18329 -0.8964,-3.39182 -4.7357,-0.58362 -8.2931,-4.60638 -8.2927,-9.37782 v -34.01587 c 0,-5.21837 4.2282,-9.44875 9.4444,-9.44891 h 75.5952 c 30.2645,1.2e-4 54.8007,24.53634 54.8016,54.80307 v 81.26197 c -9e-4,5.2165 -4.2313,9.4469 -9.4494,9.4494 h -92.5992 c -15.747,0 -31.7229,-8.836 -39.9625,-22.274 -0.9968,-1.6263 -3.5015,-0.9202 -3.5016,0.9869 v 11.8377 c 0,5.2165 -4.2322,9.4469 -9.4494,9.4494 h -39.6875 c -5.2172,0 -9.4476,-4.2329 -9.4476,-9.4494 V 901.41732 c 0,-5.21843 4.2304,-9.44881 9.4476,-9.44857 h 39.6875 c 5.2172,-2.4e-4 9.4476,4.23014 9.4494,9.44841 z"
       inkscape:label="ia"
       transform="translate(4.9606299e-6)"
       sodipodi:nodetypes="ccccccccccccccccccccccc" /><path
       d="m 1937.009,933.54255 c -38.6176,1.3e-4 -69.9199,31.30576 -69.9199,69.91995 v 5.6699 c 0,38.6192 31.3025,69.9277 69.9199,69.9277 h 54.8008 c 5.2189,0 9.4491,-4.2345 9.4492,-9.4511 v -14.0684 c -2e-4,-1.7607 2.1947,-2.564 3.3321,-1.2207 13.2853,15.6896 32.8019,24.7383 53.3593,24.7383 h 54.8067 c 5.2164,0 9.4453,-4.2327 9.4453,-9.4492 V 942.99177 c 0,-5.21837 -4.229,-9.44906 -9.4453,-9.44922 h -54.8067 c -20.5574,1.4e-4 -40.074,9.04872 -53.3593,24.73829 -1.1374,1.34333 -3.3323,0.53967 -3.3321,-1.22071 v -14.06836 c -10e-5,-5.21837 -4.2303,-9.44906 -9.4492,-9.44922 z m 3.7793,52.91407 h 49.3418 c -1.394,5.56159 -2.0989,11.27419 -2.0996,17.00588 v 5.6699 c 7e-4,5.7367 0.7056,11.4489 2.0996,17.0098 h -49.3418 c -7.3071,0 -13.229,-5.923 -13.2285,-13.2305 v -13.22657 c -5e-4,-7.30578 5.9214,-13.22864 13.2285,-13.22851 z"
       style="display:inline;stroke:none;stroke-width:3.571;stroke-linecap:round;fill:#000000"
       id="path11"
       inkscape:label="ce" /><path
       id="path206-7"
       style="fill:#000000;fill-opacity:1;stroke:none;stroke-width:3.571;stroke-linecap:round"
       d="m 2330.0787,1024.251 v -35.90477 c 0,-1.04347 0.8461,-1.88956 1.8906,-1.88938 h 20.9988 c -1.3967,5.56159 -2.102,11.27378 -2.1001,17.00545 v 5.6705 c -0,5.7367 0.7034,11.4489 2.1001,17.0098 l -20.9988,-9e-4 c -1.0445,0 -1.8906,-0.846 -1.8906,-1.8907 z m 90.7077,-90.70784 c -20.5623,1.4e-4 -40.0792,9.04788 -53.3645,24.73745 -1.1374,1.34313 -3.3318,0.53884 -3.3319,-1.2214 l 0,-14.06714 c 0,-5.21837 -4.2282,-9.44875 -9.4445,-9.44891 l -24.5678,-1.6e-4 -6e-4,-32.12584 c -7e-4,-5.21827 -4.2311,-9.44865 -9.4494,-9.44841 l -37.7977,0 c -5.2161,-2.4e-4 -9.4465,4.23014 -9.4444,9.44841 l 0,32.12584 -13.2319,1.6e-4 c -5.2203,1.6e-4 -9.4507,4.23054 -9.4501,9.4489 l 7e-4,14.01608 c 10e-5,1.8722 -2.4298,2.60483 -3.4646,1.04474 -10.1536,-15.30717 -27.3007,-24.50957 -45.6717,-24.50972 h -68.0307 c -5.2168,1.6e-4 -9.4472,4.23054 -9.4494,9.4489 l -0,126.61794 c 0,5.2147 4.2323,9.4451 9.449,9.4476 h 37.7977 c 5.2177,-0 9.4481,-4.2329 9.4494,-9.4494 l 0,-77.48221 c 0,-1.04371 0.8461,-1.88979 1.8912,-1.88988 h 15.1165 c 1.0389,1.5e-4 1.8849,0.84621 1.8899,1.88988 l 0,77.48221 c -0,5.2166 4.229,9.4469 9.4456,9.4494 h 37.7975 c 5.2181,-0 9.4485,-4.2328 9.4495,-9.4494 l 0,-81.26197 c 0,-1.04344 0.846,-1.8895 1.8908,-1.88938 h 13.2293 c 1.0417,-1.2e-4 1.8877,0.84594 1.8877,1.88938 l -0,47.24407 c -0,24.0051 19.4577,43.4648 43.4623,43.4673 l 37.7976,0 c 5.2163,-0 9.4467,-4.2329 9.4445,-9.4494 l -10e-5,-19.5485 c 13.1469,18.2085 34.2377,28.9954 56.6965,28.9979 l 109.6032,8e-4 c 5.2202,-0 9.4506,-4.232 9.4506,-9.4512 l 0,-56.6991 c 0,-1.042 0.8461,-1.8881 1.8887,-1.8881 l 45.3571,0 c 5.2167,0 9.4471,-4.2286 9.4494,-9.4494 l 0,-28.34422 c -0,-21.91726 -17.7699,-39.68485 -39.6875,-39.68502 z"
       inkscape:label="nter"
       transform="translate(4.9606299e-6)"
       sodipodi:nodetypes="cccccccccccccccccccccccccccccccccccccccccccccccccccccccccc" /></g><g
     inkscape:label="digiBlastPersonalMediaCener"
     id="g534"
     transform="matrix(0.26458333,0,0,0.26458333,1.4449954,-120.05478)"
     style="display:inline;fill:#cccccc;fill-opacity:1;stroke:none"><g
       id="g514"
       inkscape:label="digiBLAST"
       style="fill:#cccccc;fill-opacity:1"><path
         id="path508"
         style="fill:#cccccc;fill-opacity:1;stroke:none;stroke-width:3.571;stroke-linecap:round"
         d="m 34.126251,741.73228 c -17.753559,-36.1587 -17.816706,-81.00665 0,-117.16535 13.922181,-28.25483 38.761872,-51.20397 67.268379,-62.10609 11.58205,-4.42948 23.7694,-6.87029 36.55825,-6.87006 l 68.03112,2.2e-4 v -85.04 h 79.37 v 340.158 l -147.40112,-1.7e-4 C 94.507276,810.70866 53.635552,781.46691 34.126251,741.73228 Z m 73.590519,-45.3543 c -2.4e-4,20.31544 10.31365,45.3543 30.23611,45.35416 L 205.984,741.732 V 624.567 l -64.25186,-4e-5 c -20.83066,-3e-5 -34.01561,24.18508 -34.01537,45.35417 z"
         inkscape:label="d"
         sodipodi:nodetypes="sssccccccsccccccc" /><path
         id="path509"
         style="fill:#cccccc;fill-opacity:1;stroke:none;stroke-width:3.571;stroke-linecap:round"
         d="m 427.087,470.551 v 73.701 h -90.709 v -73.701 z m 0,85.04 V 810.709 H 336.378 V 555.591 Z"
         inkscape:label="i"
         sodipodi:nodetypes="cccccccccc" /><path
         d="m 578.26878,555.59138 c -21.63238,-2.3e-4 -42.05959,6.61602 -59.58789,17.90039 -19.12629,12.31313 -34.80238,30.18254 -44.72656,51.07422 -17.12727,36.05513 -17.12312,81.11218 0,117.16602 18.76268,39.50603 58.07954,68.203 102.51953,68.97656 h 66.69727 c 2.99871,-1.7e-4 4.80157,3.32348 3.16797,5.83789 -6.70102,10.32243 -22.55468,13.0607 -35.94532,13.06055 l -119.05468,-0.002 v 68.03321 h 154.96093 c 44.87868,-1.1e-4 81.25979,-36.38122 81.25977,-81.25977 V 555.59138 Z m 5.66797,68.97656 h 64.25196 v 117.16407 h -64.25196 c -20.86092,1.4e-4 -34.01549,-24.08278 -34.01562,-45.35352 v -26.45703 c 1.3e-4,-21.16909 13.18482,-45.35355 34.01562,-45.35352 z"
         style="fill:#cccccc;fill-opacity:1;stroke:none;stroke-width:3.571;stroke-linecap:round"
         id="path510"
         inkscape:label="g" /><path
         id="path511"
         style="fill:#cccccc;fill-opacity:1;stroke:none;stroke-width:3.571;stroke-linecap:round"
         d="m 776.693,470.551 h 90.709 v 73.701 h -90.709 z m 90.709,85.04 h -90.709 v 255.118 h 90.709 z"
         inkscape:label="i"
         sodipodi:nodetypes="cccccccccc" /><path
         d="m 927.87426,470.55036 v 340.15821 h 221.10354 c 18.5611,-1.7e-4 34.4059,-5.33953 49.2969,-13.74024 13.5033,-7.61789 26.2226,-17.7524 34.6093,-30.91797 8.2152,-12.89646 12.2739,-28.70248 12.4688,-44.78515 v -2.4668 c -0.3991,-32.99023 -16.942,-66.58222 -47.0761,-78.16797 30.1341,-11.58575 46.6769,-45.17977 47.08,-78.16992 v -2.4668 c -0.197,-16.08275 -4.2555,-31.88674 -12.4707,-44.7832 -8.3867,-13.16557 -21.106,-23.30008 -34.6093,-30.91797 -14.891,-8.40071 -30.736,-13.7421 -49.2989,-13.74219 z m 85.03514,73.70117 H 1126.3 c 13.1954,-10e-6 21.9151,14.78431 22.6192,28.07422 0.7826,14.55777 -8.2174,31.45313 -22.6445,31.45313 l -113.3653,0.002 z m 0,133.22852 H 1126.3 c 13.1954,1.6e-4 21.9151,14.78431 22.6192,28.07422 0.7827,14.55933 -8.2184,31.45306 -22.6465,31.45313 h -113.3633 z"
         style="fill:#cccccc;fill-opacity:1;stroke:none;stroke-width:3.571;stroke-linecap:round"
         id="path512"
         inkscape:label="B" /><path
         id="path513"
         style="fill:#cccccc;fill-opacity:1;stroke:none;stroke-width:3.571;stroke-linecap:round;stroke-opacity:1"
         d="m 1931.34,737.008 204.0916,-7e-5 c 14.255,-6e-5 30.2377,-15.98279 30.2381,-30.2361 l -4e-4,-6.61435 c 0,-10.69012 -11.9871,-22.67716 -22.6783,-22.67732 h -134.1716 c -16.8657,1.6e-4 -30.063,-5.80342 -42.7392,-13.47767 -13.1534,-7.9631 -25.7457,-17.94035 -34.7416,-30.90774 -11.3379,-16.34337 -16.9629,-37.43648 -17.0082,-58.56768 v -0.5111 c 0.046,-21.30199 5.7603,-42.60396 17.0082,-59.07923 8.853,-12.96739 21.1337,-22.94463 34.7416,-30.90773 13.1143,-7.67426 27.4611,-13.47783 42.7392,-13.47792 l 234.3306,-9e-5 v 73.701 l -204.0924,-2e-5 c -14.256,-10e-6 -30.2387,15.98272 -30.2381,30.23611 l -10e-5,6.61409 c -5e-4,10.6903 11.9865,22.67735 22.6787,22.67758 h 134.1716 c 29.6073,3.81539 60.1587,18.36383 77.4799,43.8996 11.3007,16.66006 16.9699,37.99691 17.0092,59.34954 v 0.4303 c -0.039,21.35271 -5.7085,42.68956 -17.0092,59.34963 -17.3212,25.53577 -47.8726,40.08421 -77.4799,43.9 L 1931.34,810.709 Z m -207.88,-172.249 -36.76,90.989 h 73.53 z m 99.37,245.95 -32.06,-79.37 h -134.61 l -32.07,79.37 -221.8876,-1.7e-4 c -62.6189,-1.9e-4 -113.3835,-50.76474 -113.3829,-113.38591 l 5e-4,-226.77192 h 86.93 v 230.55118 c 0,18.78658 15.2294,34.01596 34.0129,34.01588 l 128.5071,-6e-5 v 53.769 L 1680,470.551 h 86.93 l 151.45,340.158 z"
         inkscape:label="LAS"
         sodipodi:nodetypes="ccccccssccssccccccccsccsccccccccccccccccccccccc" /><path
         id="path514"
         style="display:inline;fill:#cccccc;fill-opacity:1;stroke:none;stroke-width:3.571;stroke-linecap:round"
         d="m 2273.39,544.252 v -73.701 h 309.92 v 73.701 h -111.5 v 266.457 h -86.93 V 544.252 Z"
         inkscape:label="T"
         sodipodi:nodetypes="ccccccccc" /></g><g
       id="g533"
       inkscape:label="PersonalMediaCenter"
       style="fill:#cccccc;fill-opacity:1"><path
         id="path515"
         style="fill:#cccccc;fill-opacity:1;stroke:none;stroke-width:3.571;stroke-linecap:round"
         d="M 49.1339,1113.0663 H 11.3386 V 942.992 l 75.590517,7e-5 c 9.29235,6e-5 19.720563,4.77207 27.677983,11.31749 7.60785,6.25789 12.89225,14.20191 16.97469,22.69831 8.47797,17.64445 8.51127,40.93823 0,58.58273 -4.09847,8.4964 -9.42206,16.4396 -16.97469,22.6975 -7.89965,6.5454 -18.166805,11.3182 -27.677983,11.3182 H 49.1339 v 43.46 m 47.244077,-100.1564 v -13.22488 c -2.4e-5,-10.15771 -5.156967,-22.67715 -15.118155,-22.67708 l -32.125922,6e-5 v 58.582 h 32.125922 c 9.807489,0 15.118131,-12.5375 15.118155,-22.6786 z"
         inkscape:label="p"
         sodipodi:nodetypes="ccccsssscccccccccc" /><path
         id="path516"
         style="fill:#cccccc;fill-opacity:1;stroke:none;stroke-width:3.571;stroke-linecap:round"
         d="m 258.898,1023.31 h -73.70107 c -8e-5,7.2129 7.78826,12.282 15.11805,12.2817 l 58.58302,-3e-4 v 34.02 h -54.80375 c -33.39775,0 -60.47218,-27.0763 -60.47222,-60.4763 l -1e-5,-5.6696 c 1e-5,-33.39572 27.07445,-60.47017 60.47222,-60.47023 l 54.80376,-7e-5 v 34.016 l -58.58302,-6e-5 c -7.31532,-7e-5 -15.11813,5.08589 -15.11805,12.28323 l 73.70107,-0.003 z"
         inkscape:label="e"
         sodipodi:nodetypes="ccccccccccccccc" /><path
         id="path517"
         style="fill:#cccccc;fill-opacity:1;stroke:none;stroke-width:3.571;stroke-linecap:round"
         d="M 325.03919,973.22817 313.701,973.228 v 96.382 H 275.906 V 942.992 l 64.25124,7e-5 c 16.69924,6e-5 30.23646,13.53728 30.23661,30.2361 l 1.5e-4,28.34183 h -37.796 l 2.2e-4,-20.7828 c 2.1e-4,-4.17455 -3.3841,-7.55885 -7.55903,-7.55903 z"
         inkscape:label="r"
         sodipodi:nodetypes="ccccccccccc" /><path
         id="path518"
         style="fill:#cccccc;fill-opacity:1;stroke:none;stroke-width:3.571;stroke-linecap:round"
         d="m 478.97863,1067.4777 c 8.76405,-2.4347 15.02661,-7.151 19.45385,-13.062 10.70894,-14.2981 10.67942,-35.5864 0.0286,-49.8952 -4.40319,-5.91549 -10.62169,-10.63806 -19.43885,-13.08437 -5.40904,-1.50072 -11.79606,-2.14479 -16.03017,-2.14496 h -34.01587 c -3.13087,1.7e-4 -5.6691,-2.53806 -5.6691,-5.66912 l -4e-5,-0.94497 c 4e-5,-3.13098 2.53827,-5.66921 5.66914,-5.66914 l 73.70081,6e-5 v -34.016 l -77.48007,0.001 c -4.28927,10e-4 -10.77972,0.78857 -16.23383,2.34844 -8.89064,2.54271 -15.0276,7.1377 -19.36635,12.97487 -10.4949,14.11941 -10.46848,35.50678 -0.0256,49.63559 4.31723,5.8411 10.41475,10.4416 19.35294,12.9949 5.48328,1.5663 12.03563,2.3622 16.27284,2.3637 h 34.01587 c 3.13087,0 5.66909,2.5382 5.66914,5.6693 v 0.94 c -5e-5,3.1311 -2.53827,5.6693 -5.66914,5.669 l -73.7008,-3e-4 v 34.02 h 77.48007 c 4.29223,0 10.6101,-0.6369 15.98656,-2.1305 z"
         inkscape:label="s"
         sodipodi:nodetypes="ssssccccccccssssccccccccs" /><path
         d="m 585.82738,938.26716 a 69.92126,68.031496 0 0 0 -69.92188,68.03124 69.92126,68.031496 0 0 0 139.8418,0 69.92126,68.031496 0 0 0 -69.91992,-68.03124 z m 0,37.79493 a 26.456787,30.236329 0 0 1 0,60.47261 26.456787,30.236329 0 0 1 0,-60.47261 z"
         style="fill:#cccccc;fill-opacity:1;stroke:none;stroke-width:3.571;stroke-linecap:round"
         id="path519"
         inkscape:label="o" /><path
         id="path520"
         style="fill:#cccccc;fill-opacity:1;stroke:none;stroke-width:3.571;stroke-linecap:round"
         d="m 706.772,1069.61 v -88.823 l 30.23593,2e-4 c 4.17469,2e-4 7.559,3.38451 7.55903,7.55903 l 4e-5,81.26377 h 37.795 l 1e-4,-81.26377 c 1.1e-4,-21.38001 -23.97399,-45.3541 -45.35416,-45.35416 l -68.03194,-7e-5 v 126.618 z"
         inkscape:label="n"
         sodipodi:nodetypes="ccccccccccc" /><path
         id="path521"
         style="fill:#cccccc;fill-opacity:1;stroke:none;stroke-width:3.571;stroke-linecap:round"
         d="m 929.76389,988.34623 c -1.1e-4,-25.04827 -20.30594,-45.3541 -45.35466,-45.35416 l -75.59023,-7e-5 v 34.016 l 66.14182,-6e-5 c 7.32958,-7e-5 15.11792,5.06896 15.11805,12.28323 h -52.91369 c -6.1484,1.7e-4 -12.60425,1.93474 -18.24549,5.04098 -4.98354,2.74408 -9.33134,6.40255 -12.56136,11.03845 -9.30176,13.3502 -9.33358,34.8062 0,48.1565 3.24107,4.6358 7.61143,8.2943 12.56136,11.0384 5.6032,3.1062 11.94904,5.0408 18.24549,5.0426 H 929.764 Z M 890.079,1020.94 v 17.009 h -41.57503 c -4.1748,0 -7.55911,-3.3843 -7.55903,-7.5609 v -1.8899 c -3e-5,-4.1728 3.38427,-7.5571 5.47165,-7.5576 z"
         inkscape:label="a"
         sodipodi:nodetypes="cccccccsssscccccccccc" /><path
         id="path522"
         style="fill:#cccccc;fill-opacity:1;stroke:none;stroke-width:3.571;stroke-linecap:round"
         d="M 995.906,1069.61 V 901.417 h -41.575 v 168.193 z"
         inkscape:label="l"
         sodipodi:nodetypes="ccccc" /><path
         id="path523"
         style="fill:#cccccc;fill-opacity:1;stroke:none;stroke-width:3.571;stroke-linecap:round"
         d="m 1241.5685,980.7872 -18.8924,-2e-4 v 88.823 h -41.58 v -88.823 h -26.45 v 88.823 h -41.58 V 942.992 l 132.2822,7e-5 c 21.3824,6e-5 45.3565,23.97415 45.3591,45.35416 V 1069.61 h -41.58 v -81.26377 c 0,-4.17454 -3.3843,-7.55885 -7.5615,-7.55903 z"
         inkscape:label="m"
         sodipodi:nodetypes="ccccccccccccccc" /><path
         id="path524"
         style="fill:#cccccc;fill-opacity:1;stroke:none;stroke-width:3.571;stroke-linecap:round"
         d="m 1419.21,1035.59 v 34.02 h -54.8003 c -33.3983,0 -60.4727,-27.0763 -60.4712,-60.4763 v -5.6696 c 0,-33.3957 27.0729,-60.47015 60.4712,-60.47023 l 54.8003,-7e-5 v 34.0151 l -58.58,-9.6e-4 c -7.3154,-7e-5 -15.1182,5.08589 -15.1191,12.28323 l 73.6991,-1.7e-4 v 34.019 h -73.6991 c 9e-4,7.2129 7.7893,12.282 15.1191,12.2817 z"
         inkscape:label="e"
         sodipodi:nodetypes="ccccccccccccccc" /><path
         d="m 1555.2766,899.52888 -37.8008,0.002 v 43.46484 h -37.7929 c -9.5136,6e-5 -19.7789,4.77219 -27.6786,11.31761 -7.5526,6.25789 -12.8792,14.20162 -16.9777,22.69802 -8.5113,17.64445 -7.7215,41.69345 0.7565,59.33795 4.0824,8.4964 10.1246,15.6835 17.7324,21.9414 7.9574,6.5454 16.872,11.3202 26.1693,11.3202 h 75.5957 z m -37.7969,77.47852 v 58.582 h -32.1269 c -9.959,3e-4 -15.1172,-12.5183 -15.1153,-22.6777 v -13.22461 c 0,-10.13941 5.3055,-22.67595 15.1133,-22.67774 z"
         style="fill:#cccccc;fill-opacity:1;stroke:none;stroke-width:3.571;stroke-linecap:round"
         id="path525"
         sodipodi:nodetypes="cccssssssccccccscc"
         inkscape:label="d" /><path
         id="path526"
         style="fill:#cccccc;fill-opacity:1;stroke:none;stroke-width:3.571;stroke-linecap:round"
         d="m 1579.84,901.417 h 39.69 v 35.906 h -39.69 z m 39.69,168.193 h -39.69 V 942.992 h 39.69 v 126.618"
         inkscape:label="i"
         sodipodi:nodetypes="cccccccccc" /><path
         id="path527"
         style="fill:#cccccc;fill-opacity:1;stroke:none;stroke-width:3.571;stroke-linecap:round"
         d="m 1710.2362,977.00787 c 7.3298,0 15.1181,5.06903 15.116,12.2833 h -52.9117 c -6.1481,1.7e-4 -12.604,1.93474 -18.2452,5.04098 -4.9836,2.74408 -9.3314,6.40255 -12.5614,11.03845 -9.3017,13.3502 -9.3336,34.8062 0,48.1565 3.2411,4.6358 7.6115,8.2943 12.5614,11.0384 5.6032,3.1062 11.949,5.0408 18.2452,5.0426 h 92.5995 l -3e-4,-81.26377 c -3e-4,-25.0483 -20.3062,-45.35414 -45.3522,-45.35416 l -75.5975,-7e-5 v 34.016 h 66.15 m -34.0197,51.4891 c 2e-4,-4.1728 3.3845,-7.5571 7.5595,-7.5571 h 41.5702 v 17.009 h -41.5702 c -4.175,0 -7.5593,-3.3844 -7.5595,-7.5609 z"
         inkscape:label="a"
         sodipodi:nodetypes="cccsssscccccccccccccc" /><path
         id="path528"
         style="fill:#cccccc;fill-opacity:1;stroke:none;stroke-width:3.571;stroke-linecap:round"
         d="m 1991.81,1035.5866 v 34.02 h -54.8011 c -33.399,0 -60.4735,-27.0763 -60.4712,-60.4745 v -5.668 c 0,-33.39574 27.0722,-60.4702 60.4712,-60.47023 l 54.8011,-7e-5 v 34.016 l -51.0213,-6e-5 c -12.5256,-9e-5 -22.6785,10.15283 -22.6786,22.67708 V 1012.91 c 10e-5,12.5243 10.153,22.6772 22.6786,22.6769 z"
         inkscape:label="c"
         sodipodi:nodetypes="ccccccccccccc" /><path
         id="path529"
         style="fill:#cccccc;fill-opacity:1;stroke:none;stroke-width:3.571;stroke-linecap:round"
         d="m 2112.76,1035.59 v 34.02 h -54.8086 c -33.3966,0 -60.4711,-27.0763 -60.4713,-60.4763 v -5.6696 c 2e-4,-33.39574 27.0747,-60.4702 60.4713,-60.47023 l 54.8086,-7e-5 v 34.016 l -58.5884,-6e-5 c -7.3137,-7e-5 -15.1165,5.08589 -15.1141,12.28323 l 73.7025,-1.7e-4 v 34.019 h -73.7024 c 0,7.2129 7.7859,12.282 15.114,12.2817 z"
         inkscape:label="e"
         sodipodi:nodetypes="ccccccccccccccc" /><path
         id="path530"
         style="fill:#cccccc;fill-opacity:1;stroke:none;stroke-width:3.571;stroke-linecap:round"
         d="m 2201.5685,980.7872 -30.2324,-2e-4 v 88.823 h -37.8 V 942.992 l 68.0324,7e-5 c 21.3826,6e-5 45.3567,23.97415 45.3591,45.35416 V 1069.61 h -37.8 v -81.26377 c 0,-4.17454 -3.3843,-7.55885 -7.5615,-7.55903 z"
         inkscape:label="n"
         sodipodi:nodetypes="ccccccccccc" /><path
         id="path531"
         style="fill:#cccccc;fill-opacity:1;stroke:none;stroke-width:3.571;stroke-linecap:round"
         d="m 2316.8492,1069.6066 c -18.7862,0 -34.0156,-15.2311 -34.0174,-34.017 V 977.008 h -22.67 v -34.016 h 22.67 v -41.575 h 37.8 v 41.575 h 34.02 v 34.016 h -34.02 v 51.022 c -1e-4,4.1748 3.3842,7.5591 7.559,7.5588 l 26.46,-3e-4 v 34.02 z"
         inkscape:label="t"
         sodipodi:nodetypes="ccccccccccccccccc" /><path
         id="path532"
         style="fill:#cccccc;fill-opacity:1;stroke:none;stroke-width:3.571;stroke-linecap:round"
         d="m 2417.0079,977.00787 c -7.3153,0 -15.1181,5.08596 -15.118,12.2833 l 73.7001,-1.7e-4 v 34.019 h -73.7001 c -1e-4,7.2129 7.7882,12.282 15.1191,12.2817 l 58.581,-3e-4 v 34.02 h -54.8013 c -33.3993,0 -60.4737,-27.0763 -60.4762,-60.4763 v -5.6696 c 0,-33.3957 27.0769,-60.47015 60.4762,-60.47023 l 54.8013,-7e-5 v 34.016 h -58.58"
         inkscape:label="e"
         sodipodi:nodetypes="ccccccccccccccc" /><path
         id="path533"
         style="display:inline;fill:#cccccc;fill-opacity:1;stroke:none;stroke-width:3.571;stroke-linecap:round"
         d="m 2530.39,973.228 v 96.382 H 2492.6 V 942.992 l 64.2502,7e-5 c 16.6992,7e-5 30.2364,13.53728 30.2381,30.2361 V 1001.57 h -37.8 v -20.7828 c 0,-4.17453 -3.3843,-7.55882 -7.5595,-7.55903 z"
         inkscape:label="r"
         sodipodi:nodetypes="ccccccccccc" /></g></g></svg>
