<?xml version="1.0" encoding="UTF-8" standalone="no"?>
<svg
   height="69.794"
   width="629.824"
   version="1.1"
   id="svg8"
   sodipodi:docname="gamate.svg"
   inkscape:version="1.4 (86a8ad7, 2024-10-11)"
   xmlns:inkscape="http://www.inkscape.org/namespaces/inkscape"
   xmlns:sodipodi="http://sodipodi.sourceforge.net/DTD/sodipodi-0.dtd"
   xmlns="http://www.w3.org/2000/svg"
   xmlns:svg="http://www.w3.org/2000/svg">
  <defs
     id="defs8" />
  <sodipodi:namedview
     id="namedview8"
     pagecolor="#ffffff"
     bordercolor="#000000"
     borderopacity="0.25"
     inkscape:showpageshadow="2"
     inkscape:pageopacity="0.0"
     inkscape:pagecheckerboard="true"
     inkscape:deskcolor="#d1d1d1"
     inkscape:zoom="2.9151002"
     inkscape:cx="335.15143"
     inkscape:cy="65.006342"
     inkscape:window-width="3840"
     inkscape:window-height="2066"
     inkscape:window-x="-11"
     inkscape:window-y="-11"
     inkscape:window-maximized="1"
     inkscape:current-layer="svg8" />
  <path
     id="path9"
     style="display:none;fill:#ffffff;stroke-linecap:square;stroke-miterlimit:8"
     d="M 69.78125,5.2890625 C 53.982827,4.9105777 40.095862,8.2710056 29.697266,15.173828 23.795685,19.08947 19.483578,23.767126 16.779297,29.302734 c -2.096825,4.293054 -2.875748,7.424587 -2.878906,11.677735 v 0.002 c -0.001,3.457171 0.465698,5.556793 1.888671,8.466797 4.443498,9.089331 15.332191,13.938859 31.31836,14.943359 1.324689,0.08306 3.910525,0.154714 5.914062,0.167969 10.429942,0.0718 18.92263,-1.461198 24.96875,-4.673828 l 0.998047,3.453125 h 14.029297 l 0.681641,-2.388672 -0.002,0.002 c 0.162029,-0.564912 1.000441,-3.560414 1.892578,-6.753906 0.989174,-3.540177 1.71671,-6.051919 2.24414,-7.742188 0.527431,-1.690268 0.988107,-2.708153 0.914063,-2.58789 0.214056,-0.347726 0.304433,-0.469529 1.123047,-0.69336 0.818613,-0.223831 2.301683,-0.367202 4.542963,-0.36914 l 4.65821,-0.0039 0.77539,-2.642578 c 0.27498,-0.937198 0.68021,-2.373713 1.02148,-3.599609 0.17064,-0.612948 0.32468,-1.171654 0.4375,-1.589844 0.0564,-0.209095 0.10203,-0.382218 0.13672,-0.517578 0.0174,-0.06768 0.0329,-0.123622 0.0469,-0.183594 0.007,-0.02999 0.014,-0.05967 0.0234,-0.107422 0.009,-0.04775 0.041,0.03746 0.041,-0.410156 0,-1.95e-4 -0.94305,-1.699024 -0.94336,-1.699219 -3.2e-4,-1.95e-4 -0.37394,-0.182638 -0.46485,-0.210937 -0.18182,-0.0566 -0.23848,-0.06018 -0.29101,-0.06836 -0.10506,-0.01636 -0.14015,-0.01675 -0.17578,-0.01953 -0.0713,-0.0055 -0.11385,-0.0077 -0.16602,-0.0098 -0.10433,-0.0041 -0.22728,-0.0067 -0.38672,-0.0098 -0.31886,-0.0062 -0.77375,-0.01207 -1.35742,-0.01758 -1.16734,-0.01101 -2.84689,-0.02094 -4.91992,-0.0293 -4.146065,-0.01672 -9.860765,-0.02734 -16.146482,-0.02734 H 62.353516 l -0.771485,2.644532 c -0.257837,0.878948 -0.664511,2.312973 -1.009765,3.550781 -0.172716,0.619218 -0.328095,1.186559 -0.44336,1.611328 -0.05763,0.212384 -0.10545,0.387885 -0.140625,0.523437 -0.01759,0.06778 -0.03111,0.123903 -0.04492,0.181641 -0.0069,0.02887 -0.01409,0.0564 -0.02344,0.101563 -0.0093,0.04516 -0.04492,-0.09124 -0.04492,0.425781 0,1.64e-4 0.122986,0.691241 0.123047,0.691406 6e-5,1.65e-4 0.263551,0.490069 0.263672,0.490234 2.42e-4,3.31e-4 0.478033,0.466464 0.478515,0.466797 4.83e-4,3.34e-4 0.219562,0.132902 0.294922,0.167969 0.07536,0.03507 0.131463,0.05721 0.179688,0.07422 0.1929,0.06802 0.260949,0.07273 0.322265,0.08398 0.122634,0.0225 0.174773,0.02752 0.232422,0.0332 0.1153,0.01136 0.216768,0.01643 0.34375,0.02344 0.253965,0.01402 0.586634,0.02808 0.996094,0.04102 0.818919,0.02586 1.932649,0.04977 3.158203,0.06641 3.604625,0.04972 4.395911,0.231186 4.28125,0.179687 h 0.002 c 0.186414,0.08522 0.143687,0.06502 0.185547,0.09375 -0.0154,0.06313 -0.04078,0.338531 -0.142578,0.828125 -0.123892,0.595858 -0.301695,1.342703 -0.498047,2.095703 -0.392703,1.506001 -0.960058,3.213949 -1.0625,3.429688 -0.714805,1.507945 -2.197883,2.651312 -4.837891,3.257812 h -0.002 c -0.992137,0.228302 -1.710183,0.274587 -4.90039,0.263672 -3.629962,-0.01395 -3.600618,0.0045 -5.150391,-0.412109 h -0.002 C 49.433149,51.313549 46.841319,49.053177 45.5,45.3125 v -0.002 c -0.276564,-0.774755 -0.488111,-4.401373 -0.0625,-6.632813 1.280482,-6.705807 4.752815,-13.02858 8.775391,-16.396484 h 0.002 c 4.694626,-3.932451 9.496261,-5.570354 16.611328,-5.572266 5.726225,-0.0019 9.053147,1.131733 11.171875,3.28125 1.663418,1.687076 2.164731,3.2238 1.875,6.494141 l -0.351563,4.017578 8.697266,-0.0625 8.007813,-0.05859 3.14844,-11.271484 c 0.75498,-2.702221 1.44276,-5.174845 1.94141,-6.982422 0.24932,-0.903788 0.45077,-1.640113 0.59179,-2.1601561 0.0705,-0.2600215 0.12471,-0.4655593 0.16407,-0.6152344 0.0197,-0.074838 0.0352,-0.1343226 0.0488,-0.1894531 0.007,-0.027565 0.0149,-0.0535 0.0234,-0.091797 0.004,-0.019149 0.008,-0.040474 0.0156,-0.082031 0.008,-0.041557 0.035,-0.3445468 0.0352,-0.3457031 v -0.013672 -0.013672 c 0,-5.703e-4 -0.30238,-1.0599782 -0.30273,-1.0605469 -1.8e-4,-2.843e-4 -0.23802,-0.3083097 -0.23828,-0.3085937 -2.7e-4,-2.84e-4 -0.14519,-0.1441293 -0.20899,-0.1953126 -0.2552,-0.2047327 -0.40392,-0.2548086 -0.51367,-0.2988281 -0.21949,-0.088039 -0.30269,-0.096449 -0.37695,-0.1113281 -0.14854,-0.029758 -0.21639,-0.035344 -0.29297,-0.042969 -0.15316,-0.01525 -0.29867,-0.022471 -0.48047,-0.03125 -0.36359,-0.017559 -0.84836,-0.03267 -1.44531,-0.044922 -1.1939,-0.024504 -2.822084,-0.039063 -4.613287,-0.039063 l -7.46289,0.00195 -2.171875,2.84375 -0.316407,0.4140625 C 84.90646,7.484968 81.14577,6.1988285 76.035156,5.6054688 h -0.002 C 74.842899,5.4663715 72.224161,5.3479768 69.78125,5.2890625 Z M 514.16797,6.15625 480.45703,6.2519531 c -8.8207,0.025005 -17.19999,0.060984 -23.5957,0.097656 -6.39571,0.036672 -10.68119,0.069464 -11.74219,0.1074218 l -4.29687,0.1542969 -5.50782,9.3378912 c -1.36271,2.309557 -2.59818,4.411687 -3.49218,5.941406 -0.44701,0.764859 -0.80732,1.385088 -1.0586,1.820313 -0.12564,0.217613 -0.22434,0.388679 -0.29492,0.513671 -0.0353,0.0625 -0.0621,0.110804 -0.0898,0.16211 -0.0139,0.02565 -0.0257,0.04895 -0.0508,0.09961 -0.0125,0.02533 -0.0272,0.0507 -0.0625,0.136719 -0.0176,0.04301 -0.0819,0.243565 -0.082,0.244141 -7e-5,2.88e-4 -0.0664,0.409982 -0.0664,0.410156 -1e-5,1.73e-4 0.58392,1.521426 0.58398,1.521484 l 0.004,0.0039 0.004,0.0039 c 3.4e-4,3.28e-4 0.27055,0.226656 0.3418,0.271484 0.0713,0.04483 0.11754,0.069 0.1543,0.08789 0.0735,0.03778 0.111,0.05305 0.14258,0.06641 0.0632,0.02672 0.0945,0.03775 0.125,0.04883 0.061,0.02215 0.10884,0.03851 0.16406,0.05664 0.11043,0.03625 0.24424,0.07896 0.41211,0.130859 0.33574,0.103796 0.79767,0.243298 1.34961,0.408203 1.10388,0.32981 2.56327,0.759986 4.02734,1.1875 1.46407,0.427514 2.93179,0.850707 4.05078,1.169922 0.5595,0.159608 1.03016,0.293224 1.37696,0.388672 0.17339,0.04772 0.31406,0.08544 0.42968,0.115234 0.0578,0.0149 0.10844,0.02739 0.16797,0.04102 0.0595,0.01362 -0.19024,0.06055 0.49805,0.06055 1.41209,0 2.24609,-1.221933 2.24609,-2.291016 0,0.370434 -0.0321,0.296548 -0.0156,0.236328 0.0165,-0.06022 0.0569,-0.18655 0.11133,-0.341797 0.1088,-0.310493 0.27587,-0.741949 0.46679,-1.197265 0.3816,-0.910035 0.88206,-1.960962 1.15235,-2.427735 v -0.002 c 1.35531,-2.334768 3.29708,-4.127636 5.80664,-5.341797 2.17934,-1.052932 4.61408,-1.599819 8.09375,-1.867187 -0.20414,0.755713 -0.40334,1.493154 -0.69141,2.542969 -0.80092,2.918789 -1.88009,6.809788 -2.99023,10.785156 -2.22029,7.950735 -4.61164,16.387172 -5.04102,17.748047 -0.44106,1.39757 -0.764,2.198689 -0.96094,2.533203 -0.19693,0.334514 -0.13159,0.264344 -0.4707,0.433594 -0.48044,0.239847 -0.711,0.325185 -1.64063,0.417968 -0.92961,0.09278 -2.46908,0.126953 -5.03124,0.126953 h -6.38086 l -0.77149,2.648438 c -0.27608,0.940613 -0.68274,2.37513 -1.02344,3.599609 -0.17052,0.612855 -0.32483,1.169962 -0.4375,1.587891 -0.0563,0.208964 -0.10207,0.382305 -0.13671,0.517578 -0.0173,0.06764 -0.0309,0.123645 -0.0449,0.183594 -0.007,0.02997 -0.014,0.05968 -0.0234,0.107422 -0.009,0.04774 -0.041,-0.03664 -0.041,0.410156 0,1.95e-4 1.04456,1.757619 1.04492,1.757812 3.6e-4,1.95e-4 0.35315,0.151522 0.43555,0.173829 0.16479,0.04461 0.21465,0.04641 0.26172,0.05273 0.0941,0.01266 0.12625,0.01338 0.16015,0.01563 0.0678,0.0045 0.11185,0.006 0.16797,0.0078 0.11225,0.0036 0.25132,0.007 0.43164,0.0098 0.36065,0.0055 0.87929,0.0094 1.54493,0.01367 1.33129,0.0085 3.25016,0.01548 5.61718,0.01953 4.73404,0.0081 11.26008,0.0066 18.43946,-0.0059 l 27.61328,-0.04687 1.35742,-4.851563 v -0.002 c 0.26161,-0.936988 0.5011,-1.801407 0.67578,-2.445312 0.0873,-0.321953 0.15735,-0.587549 0.20898,-0.785157 0.0258,-0.0988 0.047,-0.178617 0.0645,-0.25 0.009,-0.03569 0.0159,-0.06785 0.0254,-0.111328 0.009,-0.04093 0.0276,0.01765 0.0469,-0.347656 -0.002,-0.01238 -0.197,-0.989705 -0.19726,-0.990234 -2.6e-4,-5.33e-4 -0.40375,-0.55806 -0.4043,-0.558594 -5.5e-4,-5.34e-4 -0.23088,-0.195933 -0.31836,-0.251953 -0.0875,-0.05602 -0.15686,-0.09241 -0.2168,-0.121094 -0.23974,-0.114747 -0.33525,-0.126994 -0.41601,-0.146484 -0.16153,-0.03898 -0.2275,-0.0436 -0.30078,-0.05273 -0.14657,-0.01826 -0.2714,-0.02889 -0.42578,-0.03906 -0.30877,-0.02033 -0.7104,-0.03783 -1.20313,-0.05469 -0.98545,-0.03372 -2.32322,-0.06198 -3.79687,-0.07813 -2.82943,-0.03043 -4.35992,-0.07955 -5.01953,-0.175781 -0.32304,-0.04713 -0.26526,-0.119698 -0.28516,-0.126953 0.0422,-0.355557 0.15478,-1.006497 0.46875,-2.285156 0.2496,-1.016542 2.58941,-9.520584 4.82422,-17.550781 1.1174,-4.015099 2.22043,-7.960596 3.05273,-10.914063 0.41615,-1.476733 0.76571,-2.705093 1.01367,-3.568359 0.0101,-0.03529 0.0136,-0.04796 0.0234,-0.08203 0.50858,0.0051 1.07719,0.01674 1.75586,0.05859 1.68196,0.103725 3.71583,0.360798 4.2207,0.492188 2.22244,0.577649 3.71407,1.774095 4.26953,2.923828 0.33995,0.705569 0.30451,0.563776 0.36329,2.113281 0.0595,1.554116 0.0467,1.671607 -0.34766,3.246094 -0.1406,0.560259 -0.2569,1.078334 -0.33594,1.503906 -0.0395,0.212786 -0.0702,0.395254 -0.0918,0.595703 -0.0108,0.100225 -0.0217,0.197375 -0.0195,0.371094 10e-4,0.08686 0.002,0.189939 0.0371,0.380859 0.0356,0.190921 0.009,0.516864 0.56055,1.06836 4.7e-4,4.72e-4 0.41571,0.326735 0.55859,0.394531 0.14289,0.0678 0.24677,0.100113 0.33008,0.123047 0.16662,0.04587 0.25753,0.05287 0.33008,0.06055 0.1451,0.01535 0.209,0.01441 0.26758,0.01367 0.11715,-0.0015 0.18619,-0.0092 0.26172,-0.01563 0.15104,-0.01279 0.30783,-0.03044 0.50195,-0.05469 0.38824,-0.0485 0.90532,-0.120362 1.52148,-0.210937 1.23233,-0.181151 2.85135,-0.434587 4.47852,-0.697266 1.62718,-0.262679 3.25888,-0.535529 4.51367,-0.75586 0.6274,-0.110164 1.16014,-0.206192 1.5625,-0.285156 0.20119,-0.03948 0.36809,-0.07288 0.51758,-0.107422 0.0747,-0.01727 0.14184,-0.03523 0.23047,-0.06055 0.088,-0.02514 0.0789,0.05726 0.56445,-0.242188 1.09495,-0.673815 0.91265,-1.222798 0.94727,-1.449219 0.0346,-0.22642 0.0296,-0.341002 0.0273,-0.453125 -0.005,-0.224245 -0.0239,-0.401607 -0.0508,-0.621094 -0.0537,-0.438973 -0.14571,-1.009879 -0.28125,-1.779296 -0.27109,-1.538835 -0.71822,-3.852701 -1.37305,-7.113282 z M 214.46289,6.3378906 211.32031,17.585938 h 9.70117 c 0.0783,0 0.20159,0.0076 0.37891,0.01172 0.76413,0.03527 1.75562,0.07324 2.03125,0.103516 h 0.004 0.002 c 0.35696,0.03815 0.70162,0.0767 0.73828,0.08398 h 0.002 v 0.002 c 0.2427,0.048 0.36016,0.100063 0.44532,0.134766 -0.0255,0.137236 -0.0518,0.402905 -0.16602,0.986328 -0.002,0.0092 -8e-5,0.0064 -0.002,0.01563 -0.0981,0.444866 -0.24956,1.063996 -0.42383,1.759766 l -0.004,0.01172 -0.002,0.01172 c -0.20156,0.848076 -1.05781,3.899578 -1.51953,5.611328 l -4.62109,16.544922 c -0.5,1.731439 -1.28968,4.550585 -1.56055,5.384766 l -0.004,0.01172 -0.004,0.0098 c -0.25106,0.806037 -0.4538,1.418525 -0.61719,1.873047 -0.22655,0.587583 -0.50583,1.170538 -0.45703,1.097656 -0.008,0.01049 -0.006,0.007 -0.0332,0.04102 l -0.0156,0.01953 -0.0137,0.01758 c -0.0309,0.04057 -0.0341,0.04928 -0.16797,0.144532 l 0.0273,-0.01953 c -0.12964,0.08902 -0.14824,0.09573 -0.0566,0.04687 l -0.11133,0.05859 -0.10351,0.07227 c -0.0566,0.0401 -0.4804,0.228625 -1.13867,0.357422 -0.81961,0.0963 -2.27411,0.153372 -5,0.205078 l -1.44727,0.02734 h -5.53516 l -0.041,0.142578 c -0.004,-6.9e-4 -0.0152,-0.0032 -0.0195,-0.0039 -0.14705,-0.02439 -0.24924,-0.03369 -0.37305,-0.04492 -0.24762,-0.02246 -0.54719,-0.04213 -0.91406,-0.06055 -0.73375,-0.03684 -1.71823,-0.06947 -2.80274,-0.0918 -2.24975,-0.04551 -3.55613,-0.136711 -4.14257,-0.261719 -0.58432,-0.124554 -0.37131,-0.02452 -0.63868,-0.349609 l -0.002,-0.002 c -0.25638,-0.311314 -0.30708,-0.360709 -0.49219,-0.802734 -0.18563,-0.443286 -0.45155,-1.275897 -0.82226,-2.763672 -0.74142,-2.975549 -1.91931,-8.53385 -4.16211,-19.21289 -1.18138,-5.626917 -2.25459,-10.75555 -3.03321,-14.484375 -0.38929,-1.864413 -0.70597,-3.380638 -0.92382,-4.431641 -0.10893,-0.5255017 -0.1932,-0.9351385 -0.25,-1.2128906 -0.0284,-0.1388761 -0.049,-0.244935 -0.0625,-0.3125 -0.006,-0.02882 -0.01,-0.045697 -0.0117,-0.056641 0.001,0.00705 0.002,0.016044 0.006,0.042969 0.004,0.026925 0.0215,0.2875938 0.0215,0.2871094 0,-2.383e-4 -0.47441,-1.2946846 -0.47461,-1.2949219 -2e-4,-2.373e-4 -0.51327,-0.4294511 -0.51367,-0.4296875 -4e-4,-2.364e-4 -0.21383,-0.1127322 -0.28516,-0.140625 -0.0713,-0.027893 -0.12557,-0.043667 -0.16992,-0.056641 -0.17737,-0.051896 -0.23492,-0.054661 -0.28906,-0.0625 -0.10828,-0.015678 -0.15344,-0.017965 -0.20312,-0.021484 -0.0994,-0.00704 -0.18624,-0.00994 -0.29688,-0.013672 -0.22127,-0.00746 -0.51727,-0.013917 -0.89648,-0.019531 -0.75844,-0.011229 -1.83959,-0.021276 -3.17383,-0.027344 -2.66296,-0.012111 -6.33051,-0.01243 -10.36133,0 h -0.0215 l -15.625,0.046875 -17.35352,21.2714846 c -4.60485,5.644862 -8.92723,10.912108 -12.17774,14.849609 -1.62525,1.968751 -2.98355,3.60548 -3.97265,4.78711 -0.9891,1.181629 -1.7957,2.089943 -1.67578,1.96875 -1.36794,1.38269 -2.2416,1.965448 -3.31836,2.357422 -0.38156,0.138747 -0.48235,0.170533 -1.05274,0.224609 -0.57039,0.05408 -1.55247,0.08872 -3.2539,0.123047 -1.70959,0.03411 -2.67417,0.05674 -3.37891,0.123047 -0.35257,0.03317 -0.63716,0.05079 -1.08984,0.224609 -0.45206,0.173581 -1.19472,0.864529 -1.3711,1.455078 -0.14211,0.46204 -0.47096,1.660757 -0.91992,3.273438 h -0.002 v 0.002 c -0.45019,1.618079 -0.89959,3.210684 -0.9043,3.226562 l -0.761717,2.56836 h 2.269527 c 0.17699,0.04215 0.41608,0.142545 0.56446,0.160156 0.54722,0.06495 1.22747,0.08653 2.49804,0.107422 2.54115,0.04178 7.31149,0.04492 16.3711,0.04492 h 20.65625 l 0.58984,-2.244141 0.002,-0.0078 c 0.10943,-0.410462 0.50258,-1.831711 0.87891,-3.173829 0.37725,-1.345396 0.79016,-2.78159 0.79492,-2.796874 v -0.002 c 0.0762,-0.244648 0.20144,-0.787682 -0.0469,-1.417968 -0.24829,-0.630287 -0.77782,-1.002695 -1.09375,-1.150391 -0.63187,-0.295393 -0.87438,-0.248944 -1.25586,-0.279297 -0.76296,-0.0607 -1.88905,-0.07742 -3.99805,-0.105469 h -0.002 c -3.16533,-0.04116 -3.47239,-0.126474 -3.71094,-0.154297 0.0469,-0.06386 0.0688,-0.09622 0.11914,-0.164062 0.5592,-0.754295 1.32436,-1.747998 2.14258,-2.777344 l 0.002,-0.002 2.42188,-3.042969 11.97461,0.04102 11.39062,0.03906 0.0254,0.09961 c 0.4738,1.896314 0.79274,3.350654 0.96094,4.357422 0.16827,1.007198 0.0603,1.716926 0.16602,1.326172 h -0.002 v 0.002 c -0.005,0.01825 -0.16228,0.08875 -0.20898,0.117187 -0.0254,0.0023 -0.0296,0.0035 -0.0586,0.0059 -0.24918,0.0205 -0.62702,0.04408 -1.08203,0.06641 -0.91,0.04465 -2.14049,0.08662 -3.44726,0.113281 l -6.29492,0.125 -1.25391,4.457031 c -0.23539,0.836926 -0.4606,1.652454 -0.63672,2.298828 -0.17612,0.646376 -0.27895,1.010927 -0.35156,1.34375 l -0.64063,2.931641 26.3711,-0.05078 23.00781,-0.04297 -0.0566,0.203125 h 42.88672 l 3.14062,-11.246094 h -6.04882 c -0.12269,-0.003 0.0881,0.01994 -0.0117,0.0039 -0.0998,-0.01602 -0.36078,-0.04274 -0.62891,-0.04687 -1.50266,-0.02349 -2.22374,-0.05259 -2.82031,-0.09375 h -0.002 c -0.26511,-0.02995 -0.53103,-0.06051 -0.53125,-0.06055 l -0.0312,-0.0059 L 234.42578,52 c 0.16574,0.02598 0.18508,0.02946 -0.0918,-0.0293 l 0.0195,0.0039 c -0.22584,-0.0503 -0.30084,-0.08442 -0.37305,-0.111328 0.009,-0.04366 0.0146,-0.06048 0.0254,-0.126953 l 0.006,-0.04297 0.006,-0.04297 c 0.004,-0.03773 0.25329,-1.229871 0.58789,-2.560547 v -0.002 c 0.15334,-0.611639 0.2681,-1.094595 0.46094,-1.824219 l 0.008,-0.02734 5.85547,-20.958984 5.94531,37.177734 h 22.54297 l 7.875,-11.042969 -3.08399,11.042969 h 53.23243 l 0.11132,-0.396484 c 0.11817,0.018 0.31592,0.113631 0.42579,0.126953 0.54798,0.06645 1.22331,0.08842 2.49023,0.109375 2.53385,0.0419 7.30175,0.04492 16.38281,0.04492 9.02165,0 13.79271,-0.003 16.36524,-0.04492 1.28626,-0.02094 2.00111,-0.04521 2.55273,-0.105469 0.27581,-0.03013 0.50547,-0.0463 0.9043,-0.203125 0.39883,-0.15682 1.12257,-0.816047 1.29297,-1.380859 l 0.006,-0.01758 0.004,-0.01563 c 0.30862,-1.089192 0.61454,-2.17834 0.91602,-3.269532 v -0.002 c 0.45052,-1.619235 0.92423,-3.29719 0.89258,-3.193359 l 0.004,-0.0098 0.002,-0.0078 c 0.0736,-0.248898 0.18705,-0.797169 -0.0664,-1.416016 -0.25348,-0.618847 -0.77263,-0.980858 -1.08594,-1.126953 -0.62662,-0.292191 -0.87336,-0.248619 -1.25586,-0.279297 -0.765,-0.06136 -1.89364,-0.07791 -4.00195,-0.105469 -3.1155,-0.04091 -3.44211,-0.129904 -3.66797,-0.146484 0.39142,-0.538112 0.85009,-1.15826 1.38672,-1.861328 1.19058,-1.55984 2.53701,-3.245424 3.30664,-4.136719 h 23.32031 c 0.0364,0.138439 0.0391,0.133431 0.0762,0.28711 0.15155,0.628711 0.32427,1.405212 0.48633,2.177734 0.16206,0.772522 0.31355,1.54286 0.42188,2.152344 0.10833,0.609483 0.1609,1.237463 0.1582,1.013672 v 0.002 c 0.004,0.317161 -0.0465,0.360279 -0.0195,0.314453 0.027,-0.04583 0.0987,-0.06552 -0.0859,0.01758 0.16294,-0.0733 -0.75889,0.136303 -4.67969,0.210937 h -0.002 l -6.29297,0.121094 -1.34961,4.826172 c -0.2621,0.93695 -0.50237,1.803728 -0.67773,2.451172 -0.0877,0.323722 -0.15869,0.590554 -0.21094,0.792969 -0.0261,0.101207 -0.046,0.185791 -0.0644,0.263672 -0.009,0.03894 -0.0187,0.07505 -0.0293,0.126953 -0.01,0.04931 -0.0398,-0.0022 -0.043,0.408203 0.005,0.01145 0.66765,1.515338 0.66797,1.515625 3.2e-4,2.88e-4 0.40897,0.287337 0.52344,0.33789 0.22893,0.101107 0.31523,0.109327 0.38672,0.125 0.14297,0.03135 0.1878,0.03401 0.23437,0.03906 0.0931,0.01011 0.14384,0.01051 0.20313,0.01367 0.11856,0.0063 0.24902,0.01131 0.41797,0.01563 0.33789,0.0086 0.81483,0.01646 1.42578,0.02344 1.2219,0.01396 2.97615,0.02502 5.14258,0.0332 4.33286,0.01636 10.30493,0.02033 16.87304,0.0078 l 25.38282,-0.04687 1.26562,-4.480469 v -0.002 c 0.23531,-0.837148 0.4614,-1.652101 0.63672,-2.294922 0.17531,-0.64282 0.2749,-0.995649 0.34766,-1.328125 l 0.625,-2.859375 -6.32618,-0.130859 c -2.37247,-0.04858 -3.69816,-0.145175 -4.21875,-0.269532 -0.52059,-0.124355 -0.24806,0.04121 -0.59765,-0.4375 l -0.002,-0.002 c -0.1135,-0.154813 -0.64685,-1.138356 -0.82422,-1.611328 h -0.002 v -0.002 c 0.0628,0.166509 -0.0318,-0.114099 -0.11133,-0.429687 -0.0795,-0.315589 -0.18586,-0.761208 -0.31445,-1.314453 -0.25717,-1.10649 -0.60504,-2.651772 -1.02148,-4.548829 -0.83288,-3.794114 -1.94649,-8.999019 -3.20508,-14.992187 -1.17396,-5.591287 -2.24138,-10.681806 -3.01563,-14.378906 -0.38712,-1.848551 -0.70119,-3.348896 -0.91797,-4.3886722 -0.10838,-0.5198883 -0.19328,-0.924783 -0.25,-1.1992188 -0.0284,-0.1372179 -0.0487,-0.2427001 -0.0625,-0.3105469 -0.004,-0.017958 -0.005,-0.024856 -0.008,-0.037109 0.002,0.010795 0.004,0.02568 0.008,0.056641 0.004,0.03096 0.0176,0.2657812 0.0176,0.265625 0,-1.563e-4 -0.77714,-1.583829 -0.77734,-1.5839844 -2e-4,-1.554e-4 -0.50546,-0.2830486 -0.50586,-0.2832031 -8e-4,-3.091e-4 -0.28479,-0.087612 -0.34766,-0.099609 -0.12572,-0.023994 -0.16289,-0.02375 -0.20117,-0.027344 -0.0766,-0.00719 -0.11298,-0.00985 -0.1543,-0.011719 -0.0826,-0.00375 -0.16518,-0.00558 -0.27148,-0.00781 -0.2126,-0.00446 -0.50607,-0.00849 -0.88281,-0.011719 -0.75349,-0.00646 -1.8339,-0.00923 -3.16602,-0.011719 -2.66423,-0.00497 -6.33338,-0.00274 -10.37109,0.00977 l -15.61719,0.046875 -17.33203,21.2441404 c -4.59966,5.637626 -8.93122,10.911267 -12.19922,14.865235 -1.634,1.976983 -3.0023,3.624514 -4.00391,4.818359 -1.0016,1.193845 -1.80124,2.093036 -1.7207,2.011719 -1.41887,1.431821 -2.02881,1.842253 -3.27539,2.298828 -0.36999,0.135516 -0.4652,0.169027 -1.03516,0.222656 -0.56996,0.05363 -1.55383,0.08676 -3.25195,0.121094 -1.52676,0.03045 -2.33264,0.05856 -3.01562,0.109375 l 0.0156,-0.05469 h -7.12891 -0.01 c -0.17913,-0.0013 -0.16461,-0.01367 -0.48828,-0.01367 -2.49433,0 -3.88863,-0.04181 -4.77344,-0.136718 -0.235,-0.02976 -0.44549,-0.05425 -0.38476,-0.04297 l -0.0234,-0.0039 -0.0254,-0.0039 c 0.0753,0.0121 2.1e-4,-0.0071 -0.12891,-0.03516 l -0.0312,-0.0078 c -0.19693,-0.04643 -0.29986,-0.07847 -0.34961,-0.09375 -0.006,0.164497 0.0387,-0.229448 0.125,-0.621094 0.0875,-0.397026 0.20333,-0.880887 0.3086,-1.339844 l 0.004,-0.01953 c 0.18034,-0.749402 0.37843,-1.55367 0.66211,-2.626953 l 0.008,-0.02734 5.62305,-20.126953 0.006,-0.01563 c 0.47805,-1.65929 1.24317,-4.395965 1.51367,-5.246094 l 0.002,-0.0078 0.004,-0.0098 c 0.29516,-0.959204 0.53718,-1.70128 0.7207,-2.214844 10e-4,-0.0037 0.005,-0.01197 0.006,-0.01563 0.21482,-0.557001 0.48513,-1.152184 0.42383,-1.05664 -0.0111,0.01781 -0.0317,0.04662 0.0449,-0.05078 l 0.0137,-0.01758 0.0137,-0.01758 c 0.0319,-0.04253 0.03,-0.04127 0.0898,-0.08398 0.0282,-0.01834 0.059,-0.03658 0.0312,-0.02344 l 0.15234,-0.07422 c -0.16263,0.114182 -0.13699,0.09955 0.14454,-0.07813 0.24705,-0.142353 0.49847,-0.247832 0.99609,-0.345704 l 0.0117,-0.002 0.0117,-0.0039 c 0.29016,-0.06065 0.31193,-0.07412 0.1914,-0.05273 -0.0533,0.0095 0.1862,-0.01276 0.48438,-0.05078 0.39373,-0.04966 1.35285,-0.09694 2.23633,-0.138672 h 0.008 c 0.25876,-0.0062 0.43562,-0.01758 0.60156,-0.01758 h 8.58203 L 343.39844,6.3378906 H 290.63672 L 270.60742,35.199219 266.81445,6.3378906 Z m 309.26758,0 -3.14063,11.2480474 h 9.23633 c 1.56575,0.05754 2.96481,0.131506 3.36524,0.175781 l -0.0762,-0.0098 c 0.31391,0.04724 0.5146,0.06988 0.33008,0.0332 h 0.002 v 0.002 c 0.22768,0.04503 0.37348,0.09294 0.49218,0.138672 -10e-4,-0.107722 -0.0147,0.05301 -0.0644,0.289063 -0.055,0.260678 -0.12277,0.566489 -0.17969,0.853515 -0.19385,0.85758 -0.46469,1.96252 -0.86914,3.490235 l -6.5957,23.601562 c -0.25492,0.867738 -0.43994,1.454043 -0.65039,2.13086 -0.23164,0.719418 -0.45757,1.417758 -0.64258,1.953125 -0.18684,0.540674 -0.47841,1.099468 -0.28125,0.777343 l -0.0293,0.04883 -0.0273,0.05078 c -0.14591,0.272177 -0.2197,0.303422 -0.26367,0.324218 l -0.15821,0.07617 -0.14257,0.09961 c 0.0299,-0.02117 -0.32248,0.158878 -0.84375,0.283203 l -0.0117,0.002 -0.0117,0.0039 c -0.54624,0.137323 -1.09614,0.228204 -1.77149,0.244141 l -0.0371,0.002 -0.0352,0.002 c -0.54471,0.03247 -1.14146,0.05273 -1.82617,0.05273 h -8.58203 l -3.14454,11.24414 h 87.32032 l 15.57812,-22.357422 -22.11523,-3.630859 -0.53907,1.619141 c -0.70317,2.11547 -1.29551,3.684417 -1.72656,4.623046 v 0.002 c -0.42221,0.923357 -0.94057,1.800837 -1.54687,2.615234 l -0.008,0.0078 -0.006,0.0098 c -0.90225,1.240177 -2.19105,2.381417 -3.93555,3.402344 h -0.002 v 0.002 c -1.6817,0.985967 -3.51662,1.682252 -5.42774,2.066406 -0.88189,0.150694 -1.90984,0.267328 -3.17773,0.347656 -1.0101,0.03392 -3.56971,0.04912 -7.10547,0.04492 h -0.006 -0.006 c -3.12617,0.01552 -6.68301,0.03855 -9.4668,0.04102 -0.9361,8.28e-4 -1.59788,-0.005 -2.31054,-0.0098 0.0397,-0.152782 0.0988,-0.335349 0.13281,-0.496093 l -0.0312,0.125 3.39258,-12.142579 h 2.40039 0.006 c 0.21737,-0.0013 0.46937,0.02135 0.83789,0.0332 0.9899,0.05216 1.97081,0.112862 2.47265,0.183594 h 0.002 c 0.2386,0.03814 0.45883,0.07881 0.64062,0.119141 l 0.0156,0.002 0.0156,0.0039 c 0.52158,0.106944 0.89655,0.239083 1.2461,0.40625 l 0.01,0.0039 0.01,0.0039 c 0.29238,0.136151 0.49727,0.272095 0.61718,0.375 0.27891,0.239156 0.40644,0.446559 0.48829,0.916015 0.002,0.01619 0.004,0.03162 0.01,0.07813 v 0.0098 l 0.002,0.0078 c 0.0676,0.500782 0.0176,1.244851 -0.26757,2.228515 l -0.002,0.0078 -1.16211,4.142578 h 15.25977 l 7.79297,-27.890625 h -15.25977 l -0.40625,1.464843 c -0.40154,1.447277 -0.77034,2.482072 -0.99609,2.949219 l -0.002,0.002 v 0.002 c -0.0475,0.09874 -0.13466,0.240833 -0.27929,0.480468 -0.11087,0.177539 -0.18293,0.303393 -0.14258,0.246094 l -0.006,0.0078 -0.006,0.0098 c -0.11984,0.173741 -0.23849,0.321404 -0.35547,0.447266 l -0.0254,0.02539 -0.0215,0.02734 c -0.10767,0.124421 -0.24728,0.264485 -0.41602,0.425781 l -0.004,0.0039 -0.004,0.0039 c -0.2122,0.205086 -0.4347,0.389048 -0.67383,0.55664 l -0.004,0.0039 -0.004,0.002 c -0.1116,0.07899 -0.25142,0.167666 -0.41992,0.267578 -0.23919,0.139975 -0.49616,0.269601 -0.77149,0.388672 l -0.0117,0.0059 -0.0137,0.0059 c -0.52445,0.235605 -1.05363,0.407738 -1.67969,0.546875 l -0.006,0.002 -0.008,0.002 c -0.30886,0.07066 -0.66796,0.132757 -1.06054,0.191406 -10e-4,2.09e-4 -0.003,-2.09e-4 -0.004,0 -0.56098,0.07682 -1.47673,0.140644 -2.43555,0.19336 -0.008,1.88e-4 -0.01,-1.98e-4 -0.0176,0 -0.26875,0.0068 -0.46186,0.01972 -0.60742,0.01953 h -1.65625 l 3.08789,-11.050781 h 15.13672 c 2.07389,-9.94e-4 3.61985,0.02147 4.58594,0.06641 0.97585,0.04534 1.75682,0.125363 2.29492,0.220703 l 0.0156,0.0039 0.0176,0.002 c 1.36338,0.218858 2.48797,0.559996 3.4004,0.990235 0.41562,0.215406 0.75355,0.396807 0.91406,0.513671 l 0.008,0.0059 0.01,0.0059 0.002,0.002 c 0.73597,0.540149 1.19872,1.121799 1.47851,1.775391 0.3827,0.893771 0.56156,1.722699 0.60938,3.042969 0.0381,1.056916 -0.004,1.516511 -0.25977,2.800781 -0.0544,0.272099 -0.1049,0.532145 -0.14257,0.744141 -0.0189,0.106266 -0.0334,0.199884 -0.0469,0.287109 -0.0135,0.08723 -0.0391,-0.02228 -0.0391,0.425781 v 0.002 c 0,0.0118 0.0114,0.02331 0.0117,0.03516 l -0.76368,2.730468 23.29297,-2.892578 -2.84961,-22.0097654 z m 10.2168,11.2617184 c 0.0228,0.161965 0.0162,0.125824 0.0137,0.05469 8.9e-4,0.02624 -6e-5,0.01759 0,0.0293 z m -207.19336,0.726563 c -0.0184,0.03924 -0.0392,0.08414 -0.0391,0.08398 4e-5,-6.3e-5 -0.0307,0.04712 -0.0449,0.06836 0.0356,-0.06245 0.0611,-0.106705 0.084,-0.152344 z m 55.80664,5.30664 c 0.36224,1.518225 0.76714,3.224635 1.20117,5.072266 0.51675,2.199762 1.03177,4.406462 1.41601,6.076172 0.0554,0.24081 0.0832,0.369087 0.13282,0.585938 -1.51795,0.02895 -3.80338,0.04297 -7.10743,0.04297 -2.6956,0 -3.94697,-0.01616 -5.36328,-0.03125 0.56933,-0.691476 1.04079,-1.266446 1.75782,-2.134765 2.25343,-2.72893 5.16524,-6.243341 7.96289,-9.611329 z m -225.71094,0.01367 c 0.34676,1.491254 0.73525,3.152966 1.20312,5.144532 0.56404,2.403535 1.07756,4.607327 1.44922,6.21875 0.0338,0.14658 0.0487,0.213114 0.0801,0.349609 -0.0809,0.0015 -0.10862,0.0044 -0.19336,0.0059 -1.65512,0.02831 -4.04045,0.04492 -6.90039,0.04492 -2.70142,0 -3.9597,-0.01607 -5.37695,-0.03125 1.35883,-1.649397 3.09856,-3.755653 4.86133,-5.878906 1.77084,-2.132982 3.52109,-4.233154 4.87695,-5.853516 z m 138.37305,3.63086 c -0.22152,0.796013 -0.37439,1.362032 -0.60547,2.189453 -1.87691,6.720582 -3.98531,14.17418 -4.84571,17.087891 -0.69784,2.352511 -1.24575,3.969897 -1.42578,4.382812 l 0.0254,-0.05273 c -0.21319,0.452699 -0.23883,0.515898 -0.0312,0.08984 l -0.01,0.02148 -0.0117,0.02344 c 0.0312,-0.06847 0.0189,-0.04203 -0.0684,0.117188 l -0.002,0.0039 -0.002,0.002 c -0.0587,0.108058 -0.14016,0.184988 -0.32421,0.337891 l -0.0859,0.04102 -0.14258,0.09961 c 0.0747,-0.05292 -0.0642,0.02208 -0.21875,0.0918 -0.45311,0.167588 -0.58926,0.234548 -0.94141,0.277343 l -0.0488,0.0078 -0.0508,0.0078 c 0.19288,-0.03347 0.11649,-0.02654 -0.13867,0.01367 l 0.0918,-0.01172 c -0.80584,0.08876 -1.90289,0.135805 -3.39844,0.173829 l -1.13672,0.0293 h -4.41601 l 16.54492,-23.199219 -0.008,0.0078 c 0.3512,-0.487043 0.84083,-1.172894 1.25,-1.742187 z m 296.14062,2.304687 c 0.15829,0.231533 0.32851,0.372411 0.49024,0.5 -0.15613,-0.117719 -0.30695,-0.19429 -0.48243,-0.455078 z m 0.67969,0.679688 c 0.36874,0.19123 0.54555,0.197084 0.61719,0.208984 0.0742,0.01232 0.0637,0.01598 -0.0977,-0.02148 -0.0877,-0.02037 -0.28217,-0.0582 -0.51953,-0.1875 z M 288.0293,51.416016 c -0.10799,0.07165 -0.12403,0.07135 -0.0352,0.0293 l -0.0137,0.0078 z m 28.90625,0.246093 c 0.22781,0.173251 0.23262,0.209391 0.0996,0.07227 -0.008,-0.0078 0.0144,0.0131 0.006,0.0039 0.004,0.0043 0.004,0.005 0.006,0.0078 z m -82.97071,0.283203 c 0.0359,0.04017 -0.0503,-0.05627 0.008,0.01172 l -0.01,-0.0098 z m 83.26172,0.144532 c 3e-5,2.17e-4 0.002,0.0037 0.002,0.0039 l 0.008,0.07813 c -0.0151,-0.170116 -0.009,-0.141689 -0.008,-0.0293 v -0.02734 z"
     inkscape:label="GamateOutline"
     sodipodi:nodetypes="cccsscccccccccscscccsscscssssccssssccsssscssssscssscccccssccccccccccccccccccssscccccssssssssscccccccccscccssssssssscsssssssssssssscsssccccsscssssccsssscsssssscssccccsscscsssssssscscsssscsccccssscssssssssssssscscssccccsccccccccccccccccccccscccccccccccccsscsccsscsssccsssssssssssccccssccscsscccccccssscccscccssssccccccccscccccscccsccccccccscccccccccccccccccccccccssssssccccccccsssccscccsscsscscccsscscssssssssccccscccscccccssscsssccsssssssssscccsscsscccccscccccccsccccccccccccccccccccccscccsccccccccccccccccccccsccsccccccccssccccccccccccccccscsscccccscccccccccccccccccccccccccccccccscsccccccccccscccccccsccccscccsccsssscccccccccsscssssscscsssccsccscscccscccccccccccccccccccccccccccccsssssccccccccccccccccccc" />
  <path
     id="path10"
     style="display:inline;fill:#000000"
     d="m 70.932033,9.1891018 c -15.486,-0.371 -28.967688,2.9377812 -38.929688,9.5507812 -5.667,3.76 -9.693562,8.154844 -12.226562,13.339844 -2.025,4.146 -2.672781,6.762734 -2.675781,10.802734 -0.001,3.324 0.330546,4.81689 1.685547,7.58789 3.996999,8.176001 14.002484,12.843172 29.646484,13.826172 1.228,0.077 3.837734,0.151063 5.802734,0.164063 10.604,0.073 19.1165,-1.558375 24.6875,-4.734375 0.75,-0.427 1.418328,-0.715625 1.486328,-0.640625 0.068,0.074 0.383125,1.039531 0.703125,2.144531 l 0.580079,2.009766 h 11.015624 l 0.267579,-0.9375 c 0.148,-0.516 0.996672,-3.549188 1.888671,-6.742188 1.983,-7.097 2.91786,-10.087843 3.38086,-10.839844 0.932,-1.514 2.742187,-2.009671 7.367187,-2.013671 l 3.16211,-0.002 0.35351,-1.207032 c 0.539,-1.837 1.62696,-5.743703 1.62696,-5.845703 0,-0.05 -10.28457,-0.0918 -22.851564,-0.0918 H 65.053127 l -0.351563,1.205078 c -0.504,1.718 -1.626953,5.742985 -1.626953,5.833985 0,0.042 1.988922,0.105672 4.419922,0.138672 3.625,0.05 4.536265,0.113515 5.072266,0.353515 1.012,0.456 1.40039,0.937235 1.40039,1.740235 0,1.04 -1.323734,6.118625 -1.927734,7.390625 -1.022,2.156 -3.150266,3.649609 -6.197266,4.349609 -1.169,0.269 -2.142422,0.325453 -5.357422,0.314453 -3.642,-0.014 -4.055109,-0.04847 -5.662109,-0.480469 -5.157,-1.381 -8.45386,-4.189531 -10.005859,-8.519531 -0.572,-1.598 -0.638532,-5.093594 -0.144532,-7.683594 1.359,-7.117 4.947032,-13.778687 9.457032,-17.554687 5.02,-4.205 10.453484,-6.037063 17.896484,-6.039063 5.999,-0.002 9.980703,1.223953 12.595703,3.876954 2.039,2.067999 2.763359,4.462218 2.443359,8.074218 l -0.160156,1.826172 6.5,-0.04687 6.500001,-0.04687 2.74414,-9.822266 c 1.509,-5.400999 2.74509,-9.881078 2.74609,-9.955078 0,-0.073 -2.91265,-0.132812 -6.472653,-0.132812 l -6.472656,0.002 -1.572266,2.058594 -1.572265,2.05664 -0.958985,-0.853515 c -2.53,-2.252 -6.04475,-3.539297 -11.34375,-4.1542968 -0.932,-0.109 -3.665312,-0.2447344 -6.070312,-0.3027344 z m 442.798827,0.8710932 -32.06836,0.0918 c -17.638,0.05 -33.51048,0.140125 -35.27148,0.203125 l -3.20313,0.115235 -4.95117,8.394531 c -2.723,4.615 -4.93688,8.404922 -4.92188,8.419922 0.085,0.084 11.62799,3.455078 11.83399,3.455078 0.137,0 0.24609,-0.131016 0.24609,-0.291016 0,-0.485 1.25438,-3.474375 1.98438,-4.734375 1.553,-2.676 3.81897,-4.762625 6.66797,-6.140625 2.61,-1.261 5.44657,-1.902391 9.51757,-2.15039 1.808,-0.11 2.00977,-0.09322 2.00977,0.175781 0,0.407 -8.39291,30.460937 -9.37891,33.585937 -0.907,2.874 -1.33126,3.597297 -2.44726,4.154297 -1.292,0.645 -2.41145,0.755859 -7.56445,0.755859 h -4.88086 l -0.35157,1.207032 c -0.541,1.843 -1.62695,5.745656 -1.62695,5.847656 0,0.05 11.74461,0.06992 26.09961,0.04492 l 26.09961,-0.04492 0.94922,-3.392578 c 0.521,-1.866 0.95012,-3.447672 0.95312,-3.513672 0.004,-0.068 -2.38464,-0.149641 -5.30664,-0.181641 -5.672,-0.061 -6.09414,-0.121484 -6.99414,-1.021484 -0.513,-0.513 -0.47772,-1.126969 0.23828,-4.042969 0.619,-2.521 9.17613,-33.269578 9.32813,-33.517578 0.211,-0.345 6.20181,0.02414 8.00781,0.494141 2.647,0.688 4.67636,2.142187 5.56836,3.992187 0.41,0.851 0.49759,1.296297 0.55859,2.904297 0.062,1.62 0.003,2.174594 -0.40625,3.808594 -0.264,1.052 -0.433,1.961531 -0.375,2.019531 0.121,0.121 12.86878,-1.936953 13.17578,-2.126953 0.143,-0.088 -0.33557,-2.810359 -1.64257,-9.318359 z m -296.55078,0.177735 -2.02539,7.248047 h 7.0664 c 0.17847,0 0.30211,0.01157 0.47071,0.01367 0.73302,0.03383 1.67404,0.0601 2.1582,0.113282 0.31865,0.03406 0.66858,0.06215 0.91602,0.111328 0.804,0.159 1.34228,0.397797 1.61328,0.716797 0.0668,0.0429 0.11793,0.100181 0.17187,0.154296 0.14286,0.152777 0.26621,0.312696 0.30469,0.611329 0.007,0.03623 0.0187,0.06922 0.0234,0.107421 0.0239,0.360295 -0.0963,1.058383 -0.26367,1.900391 -0.10687,0.487907 -0.26566,1.13819 -0.44532,1.855469 -0.23964,1.008321 -1.07842,3.983906 -1.5332,5.669922 l -4.62695,16.5625 c -0.49389,1.709807 -1.26376,4.476717 -1.58399,5.46289 -0.26092,0.837709 -0.47702,1.487365 -0.65625,1.984375 -0.23336,0.607973 -0.46013,1.185845 -0.65039,1.482422 -0.0469,0.06921 -0.0977,0.133667 -0.14844,0.197266 -0.18471,0.242864 -0.38435,0.409282 -0.5996,0.5625 -0.0817,0.0561 -0.1601,0.115178 -0.24805,0.162109 -0.44303,0.313772 -1.10812,0.55 -1.98438,0.708985 -0.99131,0.120552 -2.50119,0.168118 -5.27343,0.220703 l -1.46485,0.02734 h -4.03711 l -2.02344,7.24414 h 38.73442 l 2.02344,-7.246094 h -3.46289 c -0.36222,-0.0088 -0.1768,-0.03607 -0.62305,-0.04297 -1.51899,-0.02374 -2.2847,-0.05313 -2.92969,-0.09766 -0.26049,-0.02976 -0.55719,-0.05154 -0.76758,-0.0918 -0.0758,-0.01188 -0.13105,-0.03478 -0.19726,-0.04883 -0.40545,-0.0903 -0.74801,-0.199068 -1.00391,-0.333984 -0.16451,-0.08693 -0.27399,-0.184388 -0.39258,-0.277344 -0.0214,-0.0213 -0.0515,-0.04044 -0.0703,-0.0625 -0.17123,-0.11023 -0.29033,-0.266746 -0.37695,-0.451172 -0.0595,-0.12424 -0.0973,-0.267126 -0.11914,-0.417968 -0.0212,-0.165353 -0.0289,-0.342742 -0.008,-0.544922 0.009,-0.08057 0.0663,-0.314452 0.084,-0.423828 0.0496,-0.419741 0.29631,-1.468431 0.63477,-2.814454 0.15222,-0.607161 0.27062,-1.106726 0.4746,-1.876953 l 7.5625,-27.070312 c 0.51264,-1.685868 0.77318,-2.40124 0.83204,-2.251953 l 7.04492,44.052734 h 19.80859 l 23.96289,-33.605469 c 2.7251,-3.779152 7.67685,-10.71554 7.69141,-10.671875 0.0612,0.183627 -6.61078,24.04159 -8.35352,29.94336 -0.70512,2.377226 -1.21595,3.941355 -1.50976,4.615234 -0.0141,0.02994 -0.0268,0.08413 -0.041,0.113281 -0.0408,0.08946 -0.0897,0.165833 -0.13476,0.248047 -0.23721,0.436741 -0.54239,0.719823 -0.86914,0.984375 -0.0926,0.06144 -0.18453,0.124282 -0.28516,0.171875 -0.17705,0.125394 -0.41596,0.229313 -0.66211,0.330078 -0.41641,0.153333 -0.80001,0.318192 -1.41211,0.392578 -0.0484,0.0084 -0.1196,0.0116 -0.16992,0.01953 -0.91884,0.101202 -2.05584,0.147142 -3.56641,0.185547 l -1.16211,0.0293 h -3.00976 l -2.02344,7.24414 h 49.08008 l 2.02344,-7.246094 h -4.50391 c -0.25657,-0.0012 -0.22015,-0.01367 -0.48828,-0.01367 -2.51429,0 -3.95343,-0.03765 -4.98633,-0.148437 -0.17405,-0.02264 -0.38756,-0.03666 -0.53711,-0.06445 -0.097,-0.01558 -0.16356,-0.04067 -0.25,-0.05859 -0.31799,-0.0714 -0.61465,-0.148988 -0.83984,-0.248047 -0.17923,-0.08667 -0.34072,-0.187028 -0.48438,-0.304687 -0.0447,-0.039 -0.0973,-0.07547 -0.13281,-0.117188 -0.0534,-0.04061 -0.0918,-0.09318 -0.13672,-0.140625 -0.057,-0.05891 -0.10476,-0.122059 -0.14453,-0.177734 -0.10429,-0.165352 -0.17028,-0.361648 -0.19922,-0.587891 -0.005,-0.05647 -0.0147,-0.111021 -0.0156,-0.177734 -0.005,-0.118658 -0.006,-0.241644 0.008,-0.375 0.0172,-0.368724 0.28314,-1.447577 0.49023,-2.351563 0.18512,-0.769566 0.39059,-1.603966 0.68555,-2.71875 l 5.63477,-20.169921 c 0.4721,-1.638147 1.22144,-4.332681 1.5332,-5.3125 0.30269,-0.983652 0.55495,-1.755143 0.75586,-2.316407 0.21628,-0.568876 0.43281,-1.157139 0.60547,-1.441406 8e-4,-0.0012 10e-4,-0.0027 0.002,-0.0039 0.0529,-0.0822 0.11394,-0.150936 0.17187,-0.22461 0.1648,-0.219533 0.34026,-0.377368 0.52539,-0.509765 0.10844,-0.07642 0.21988,-0.14834 0.33985,-0.205078 0.0377,-0.02673 0.0998,-0.04472 0.14062,-0.07031 0.44103,-0.255567 0.94319,-0.4487 1.6211,-0.582031 0.0908,-0.01898 0.15598,-0.04728 0.25195,-0.06445 0.16421,-0.0292 0.39737,-0.04254 0.58398,-0.06641 0.57817,-0.07292 1.52443,-0.110975 2.4004,-0.152343 0.24092,-0.0044 0.43596,-0.01953 0.69531,-0.01953 h 7.06445 l 2.02539,-7.248047 H 292.8832 L 270.49844,42.491836 266.26016,10.23793 Z m 309.26758,0 -2.02344,7.248047 h 6.63672 c 1.59857,0.05825 2.95547,0.121677 3.55078,0.1875 0.1297,0.01952 0.30937,0.02803 0.42383,0.05078 0.36567,0.07232 0.6683,0.164345 0.92383,0.269531 0.15561,0.06839 0.30635,0.147348 0.45117,0.236328 0.093,0.06595 0.17274,0.136093 0.23633,0.210938 0.26338,0.169135 0.41711,0.435694 0.48046,0.779296 0.0113,0.08028 0.0275,0.159387 0.0312,0.261719 0.004,0.11287 0.005,0.227635 -0.008,0.355469 -0.008,0.251476 -0.20626,1.064729 -0.30469,1.572266 -0.20081,0.88837 -0.47782,2.016042 -0.88671,3.560546 l -6.60938,23.654297 c -0.2604,0.886408 -0.45169,1.489727 -0.66016,2.160157 -0.46946,1.45825 -0.92161,2.846144 -1.12695,3.18164 -0.29719,0.554362 -0.6844,0.956962 -1.17187,1.1875 -0.35752,0.253207 -0.89564,0.443175 -1.53516,0.595703 -0.65833,0.165502 -1.37464,0.284907 -2.21289,0.304688 -0.58143,0.03466 -1.22018,0.05664 -1.94531,0.05664 h -7.06446 l -2.02539,7.24414 h 83.64063 l 13.16601,-18.898437 -17.30078,-2.839844 c -0.715,2.151 -1.31664,3.759172 -1.80664,4.826172 -0.48078,1.051457 -1.0713,2.049181 -1.76172,2.976562 -1.092,1.501 -2.60697,2.820125 -4.54297,3.953125 -1.8784,1.101292 -3.92735,1.881531 -6.0625,2.308594 -0.98141,0.169263 -2.10029,0.294222 -3.44531,0.378906 -1.0889,0.03747 -3.65439,0.0511 -7.2168,0.04687 -6.24782,0.03102 -14.23046,0.0918 -14.36328,-0.04102 -0.0231,-0.0233 0.69003,-2.545286 0.75196,-2.837891 l 3.80078,-13.603516 h 3.91211 c 0.34596,-0.002 0.63081,0.0263 0.95508,0.03516 0.99424,0.05239 1.98224,0.107114 2.64843,0.201172 0.27603,0.04359 0.5434,0.09068 0.79492,0.146484 0.66305,0.135949 1.21031,0.322989 1.70704,0.560547 0.41721,0.194275 0.77968,0.415487 1.07617,0.669922 0.62374,0.534847 1.00668,1.23196 1.15625,2.089843 0.009,0.05615 0.0161,0.114108 0.0234,0.171875 0.11651,0.863206 0.0124,1.877967 -0.32813,3.052735 l -0.44727,1.59375 h 11.10352 l 6.67578,-23.890625 h -11.10351 c -0.417,1.503 -0.79105,2.598156 -1.12305,3.285156 -0.1127,0.234282 -0.24299,0.437475 -0.36914,0.646484 -0.076,0.11936 -0.14019,0.250909 -0.2207,0.365235 -0.16884,0.244769 -0.34734,0.469652 -0.53711,0.673828 -0.17206,0.198838 -0.3568,0.38267 -0.54493,0.5625 -0.28224,0.272783 -0.58617,0.526648 -0.91601,0.757812 -0.17909,0.126755 -0.36649,0.242722 -0.55664,0.355469 -0.31367,0.184094 -0.64543,0.352251 -0.9961,0.503906 -0.65514,0.294316 -1.32663,0.511373 -2.0664,0.675782 -0.38738,0.08862 -0.79707,0.158063 -1.2168,0.220703 -0.7062,0.09796 -1.67632,0.160259 -2.68164,0.214844 -0.22667,0.0054 -0.44202,0.01984 -0.67578,0.01953 h -4.08789 c -0.0349,-0.03151 -0.17444,-0.03756 -0.17774,-0.08398 l 4.14063,-14.816406 c 0.042,-0.07549 0.50939,-0.110478 0.875,-0.15039 h 15.82031 c 2.088,-0.001 3.64769,0.02036 4.67969,0.06836 1.033,0.048 1.88478,0.132 2.55078,0.25 1.52,0.244 2.83889,0.631062 3.96289,1.164062 0.006,0.003 0.0113,0.0068 0.0176,0.0098 0.41942,0.216935 0.84233,0.430494 1.19531,0.6875 0.008,0.0057 0.017,0.01183 0.0254,0.01758 0.98105,0.720019 1.70084,1.592459 2.13282,2.601563 0.48299,1.128 0.71553,2.266812 0.76953,3.757812 0.042,1.166 -0.0269,1.906672 -0.29688,3.263672 -0.104,0.52 -0.18945,1.000406 -0.18945,1.066406 v 0.002 c 0,0.02969 0.0646,0.01792 0.0762,0.03516 -0.0334,0.127312 -0.0556,0.245634 -0.0918,0.375 l 18.31446,-2.273438 -2.36524,-18.273437 z m -358.94532,0.1875 -14.67968,0.04492 -16.75586,20.537109 c -9.214,11.295 -17.29313,21.081047 -17.95313,21.748047 -1.484,1.5 -2.66664,2.324078 -4.05664,2.830078 -0.946,0.344 -1.52922,0.39975 -4.94922,0.46875 -3.409,0.068 -3.88784,0.113047 -3.96484,0.373047 -0.05,0.162 -0.45916,1.620234 -0.91016,3.240234 -0.451,1.621 -0.86306,3.087766 -0.91406,3.259766 h 0.002 c -0.087,0.296 0.90349,0.3125 19.02149,0.3125 h 19.11328 l 0.19922,-0.759766 c 0.24,-0.901 1.56522,-5.628594 1.69922,-6.058594 0.085,-0.273 -0.30172,-0.303375 -4.51172,-0.359375 -3.845,-0.05 -4.71735,-0.109375 -5.27735,-0.359375 -0.809,-0.364 -1.13539,-0.974687 -0.90039,-1.679687 0.091,-0.275 1.52646,-2.210735 3.18946,-4.302735 l 3.02539,-3.802734 12.94531,0.04492 12.94531,0.04492 0.40235,1.607422 c 0.962,3.85 1.31518,5.959406 1.11718,6.691406 -0.18,0.67 -0.66657,1.159297 -1.51757,1.529297 -0.197,0.086 -2.52293,0.199906 -5.16993,0.253906 l -4.8125,0.0957 -0.85156,3.027344 c -0.468,1.664 -0.90094,3.252344 -0.96094,3.527344 l -0.10937,0.501953 23.88281,-0.04687 23.88477,-0.04492 0.94922,-3.392578 c 0.522,-1.867 0.95312,-3.445766 0.95312,-3.509766 10e-4,-0.064 -1.74581,-0.151312 -3.88281,-0.195312 -4.548,-0.092 -5.40616,-0.274844 -6.28516,-1.339844 -1.198,-1.455 -1.40462,-2.282578 -5.89062,-23.642578 -2.363,-11.255 -4.29688,-20.516125 -4.29688,-20.578125 0,-0.061 -6.60669,-0.09141 -14.67969,-0.06641 z m 225.72071,0 -14.67188,0.04492 -16.73437,20.509765 c -9.204,11.281 -17.32778,21.109844 -18.05078,21.839844 -1.518,1.532 -2.52177,2.224531 -4.00977,2.769531 -0.931,0.341 -1.52059,0.395844 -4.93359,0.464844 -3.41,0.068 -3.8888,0.111094 -3.9668,0.371094 -0.049,0.163 -0.45339,1.620234 -0.90039,3.240234 -0.447,1.62 -0.85811,3.086766 -0.91211,3.259766 -0.095,0.299 0.84681,0.314453 19.00781,0.314453 18.042,0 19.11217,-0.0175 19.20117,-0.3125 0.3076,-1.085589 0.61164,-2.172183 0.91211,-3.259766 0.451,-1.621 0.85821,-3.08014 0.90821,-3.24414 0.081,-0.274001 -0.30958,-0.306329 -4.51758,-0.361329 -3.808,-0.05 -4.71877,-0.111468 -5.25977,-0.355468 -0.778,-0.35 -1.10598,-0.876922 -0.95898,-1.544922 0.087,-0.397 4.26697,-5.872906 5.91797,-7.753907 l 0.42969,-0.490234 h 25.7207 l 0.15234,0.402344 c 0.366,0.962 1.50172,6.377078 1.51172,7.205078 0.014,1.112 -0.37616,1.772641 -1.28516,2.181641 -0.537,0.241 -1.52289,0.311718 -5.46289,0.386718 l -4.80664,0.0918 -0.94922,3.394532 c -0.522,1.865999 -0.95312,3.45139 -0.95312,3.52539 -10e-4,0.074 10.74305,0.114844 23.87305,0.08984 l 23.87304,-0.04492 0.85352,-3.025391 c 0.468,-1.665 0.89903,-3.244765 0.95703,-3.509765 l 0.10547,-0.482422 -3.89453,-0.08008 c -4.786,-0.098 -5.46463,-0.259344 -6.39063,-1.527344 -0.338,-0.461 -0.82598,-1.401844 -1.08398,-2.089844 -0.278,-0.737 -2.21928,-9.585078 -4.73828,-21.580078 -2.348,-11.183 -4.27149,-20.362344 -4.27149,-20.402344 0,-0.04 -6.60187,-0.05234 -14.67187,-0.02734 z m -8.43555,10.896484 c 0.083,0.084 4.17969,17.520922 4.17969,17.794922 0,0.138 -2.77845,0.193359 -9.56446,0.193359 -7.606,0 -9.53578,-0.04566 -9.42578,-0.222656 0.116,-0.189 6.93955,-8.452406 13.06055,-15.816406 0.925,-1.111 1.711,-1.987219 1.75,-1.949219 z m -225.8125,0.03906 c 0.093,-0.059 0.16992,-0.05423 0.16992,0.0098 0,0.064 0.92469,4.053281 2.05469,8.863281 1.129,4.811 2.05469,8.82111 2.05469,8.91211 0,0.099 -3.83141,0.164062 -9.56641,0.164062 -7.603,0 -9.53569,-0.04566 -9.42969,-0.222656 0.227,-0.381 14.5348,-17.614563 14.7168,-17.726562 z"
     inkscape:label="GamateShadow"
     sodipodi:nodetypes="scccccccccccccccccssccsccscccccccccccccccccccccssccccccsscccsccsccscccccsscccccscccccscccccccccccccccccccccccccccccccccccccccccccsccccccccccccccccsccccccccccccccccscccccccccscccccccccccccccscccccccccsccccccccccccccccccccccccccccccccccccccccccccscccscsccsscccccccccccccccscccccccccccccccccccccccccsscccccsccscscccccccccccccccccccccccccsccsscccsscsscss" />
  <path
     id="path8"
     style="display:inline;fill:#cdc112"
     d="m 69.732422,7.2890625 c -15.486,-0.371 -28.967688,2.9377815 -38.929688,9.5507815 -5.667,3.76 -9.693562,8.154844 -12.226562,13.339844 -2.025,4.146 -2.672781,6.762734 -2.675781,10.802734 -0.001,3.324 0.330546,4.81689 1.685547,7.58789 3.996999,8.176001 14.002484,12.843172 29.646484,13.826172 1.228,0.077 3.837734,0.151063 5.802734,0.164063 10.604,0.073 19.1165,-1.558375 24.6875,-4.734375 0.75,-0.427 1.418328,-0.715625 1.486328,-0.640625 0.068,0.074 0.383125,1.039531 0.703125,2.144531 l 0.580079,2.009766 h 11.015624 l 0.267579,-0.9375 c 0.148,-0.516 0.996672,-3.549188 1.888671,-6.742188 1.983,-7.097 2.91786,-10.087843 3.38086,-10.839844 0.932,-1.514 2.742187,-2.009671 7.367188,-2.013671 l 3.16211,-0.002 0.35351,-1.207032 c 0.539,-1.837 1.62696,-5.743703 1.62696,-5.845703 0,-0.05 -10.284565,-0.0918 -22.851565,-0.0918 H 63.853516 l -0.351563,1.205078 c -0.504,1.718 -1.626953,5.742985 -1.626953,5.833985 0,0.042 1.988922,0.105672 4.419922,0.138672 3.625,0.05 4.536265,0.113515 5.072266,0.353515 1.012,0.456 1.40039,0.937235 1.40039,1.740235 0,1.04 -1.323734,6.118625 -1.927734,7.390625 -1.022,2.156 -3.150266,3.649609 -6.197266,4.349609 -1.169,0.269 -2.142422,0.325453 -5.357422,0.314453 -3.642,-0.014 -4.055109,-0.04847 -5.662109,-0.480469 -5.157,-1.381 -8.45386,-4.189531 -10.005859,-8.519531 -0.572,-1.598 -0.638532,-5.093594 -0.144532,-7.683594 1.359,-7.117 4.947032,-13.778687 9.457032,-17.554687 5.02,-4.205 10.453484,-6.037063 17.896484,-6.039063 5.999,-0.002 9.980703,1.223953 12.595703,3.876954 2.039,2.067999 2.763359,4.462218 2.443359,8.074218 l -0.160156,1.826172 6.5,-0.04687 6.5,-0.04687 2.744142,-9.822266 c 1.509,-5.400999 2.74509,-9.8810776 2.74609,-9.9550776 0,-0.073 -2.91265,-0.1328125 -6.472654,-0.1328125 L 91.25,8.484375 l -1.572266,2.058594 -1.572265,2.05664 -0.958985,-0.853515 c -2.53,-2.2520003 -6.04475,-3.5392971 -11.34375,-4.1542971 -0.932,-0.109 -3.665312,-0.2447344 -6.070312,-0.3027344 z m 442.798828,0.8710937 -32.06836,0.091797 c -17.638,0.05 -33.51048,0.140125 -35.27148,0.203125 l -3.20313,0.1152344 -4.95117,8.3945314 c -2.723,4.615 -4.93688,8.404922 -4.92188,8.419922 0.085,0.084 11.62799,3.455078 11.83399,3.455078 0.137,0 0.24609,-0.131016 0.24609,-0.291016 0,-0.485 1.25438,-3.474375 1.98438,-4.734375 1.553,-2.676 3.81897,-4.762625 6.66797,-6.140625 2.61,-1.261 5.44657,-1.902391 9.51757,-2.15039 1.808,-0.11 2.00977,-0.09322 2.00977,0.175781 0,0.407 -8.39291,30.460937 -9.37891,33.585937 -0.907,2.874 -1.33126,3.597297 -2.44726,4.154297 -1.292,0.645 -2.41145,0.755859 -7.56445,0.755859 h -4.88086 l -0.35157,1.207032 c -0.541,1.843 -1.62695,5.745656 -1.62695,5.847656 0,0.05 11.74461,0.06992 26.09961,0.04492 l 26.09961,-0.04492 0.94922,-3.392578 c 0.521,-1.866 0.95012,-3.447672 0.95312,-3.513672 0.004,-0.068 -2.38464,-0.149641 -5.30664,-0.181641 -5.672,-0.061 -6.09414,-0.121484 -6.99414,-1.021484 -0.513,-0.513 -0.47772,-1.126969 0.23828,-4.042969 0.619,-2.521 9.17613,-33.269578 9.32813,-33.517578 0.211,-0.345 6.20181,0.02414 8.00781,0.494141 2.647,0.688 4.67636,2.142187 5.56836,3.992187 0.41,0.851 0.49759,1.296297 0.55859,2.904297 0.062,1.62 0.003,2.174594 -0.40625,3.808594 -0.264,1.052 -0.433,1.961531 -0.375,2.019531 0.121,0.121 12.86878,-1.936953 13.17578,-2.126953 0.143,-0.088 -0.33557,-2.810359 -1.64257,-9.318359 z m -296.55078,0.1777344 -2.02539,7.2480474 h 7.0664 c 0.17847,0 0.30211,0.01157 0.47071,0.01367 0.73302,0.03383 1.67404,0.0601 2.1582,0.113282 0.31865,0.03406 0.66858,0.06215 0.91602,0.111328 0.804,0.159 1.34228,0.397797 1.61328,0.716797 0.0668,0.0429 0.11793,0.100181 0.17187,0.154296 0.14286,0.152777 0.26621,0.312696 0.30469,0.611329 0.007,0.03623 0.0187,0.06922 0.0234,0.107421 0.0239,0.360295 -0.0963,1.058383 -0.26367,1.900391 -0.10687,0.487907 -0.26566,1.13819 -0.44532,1.855469 -0.23964,1.008321 -1.07842,3.983906 -1.5332,5.669922 l -4.62695,16.5625 c -0.49389,1.709807 -1.26376,4.476717 -1.58399,5.46289 -0.26092,0.837709 -0.47702,1.487365 -0.65625,1.984375 -0.23336,0.607973 -0.46013,1.185845 -0.65039,1.482422 -0.0469,0.06921 -0.0977,0.133667 -0.14844,0.197266 -0.18471,0.242864 -0.38435,0.409282 -0.5996,0.5625 -0.0817,0.0561 -0.1601,0.115178 -0.24805,0.162109 -0.44303,0.313772 -1.10812,0.55 -1.98438,0.708985 -0.99131,0.120552 -2.50119,0.168118 -5.27343,0.220703 l -1.46485,0.02734 h -4.03711 l -2.02344,7.24414 H 239.875 l 2.02344,-7.246094 h -3.46289 c -0.36222,-0.0088 -0.1768,-0.03607 -0.62305,-0.04297 -1.51899,-0.02374 -2.2847,-0.05313 -2.92969,-0.09766 -0.26049,-0.02976 -0.55719,-0.05154 -0.76758,-0.0918 -0.0758,-0.01188 -0.13105,-0.03478 -0.19726,-0.04883 -0.40545,-0.0903 -0.74801,-0.199068 -1.00391,-0.333984 -0.16451,-0.08693 -0.27399,-0.184388 -0.39258,-0.277344 -0.0214,-0.0213 -0.0515,-0.04044 -0.0703,-0.0625 -0.17123,-0.11023 -0.29033,-0.266746 -0.37695,-0.451172 -0.0595,-0.12424 -0.0973,-0.267126 -0.11914,-0.417968 -0.0212,-0.165353 -0.0289,-0.342742 -0.008,-0.544922 0.009,-0.08057 0.0663,-0.314452 0.084,-0.423828 0.0496,-0.419741 0.29631,-1.468431 0.63477,-2.814454 0.15222,-0.607161 0.27062,-1.106726 0.4746,-1.876953 l 7.5625,-27.070312 c 0.51264,-1.685868 0.77318,-2.40124 0.83204,-2.251953 l 7.04492,44.052734 h 19.80859 L 292.3514,27.849594 c 2.7251,-3.779152 7.67685,-10.71554 7.69141,-10.671875 0.0612,0.183627 -6.61078,24.04159 -8.35352,29.94336 -0.70512,2.377226 -1.21595,3.941355 -1.50976,4.615234 -0.0141,0.02994 -0.0268,0.08413 -0.041,0.113281 -0.0408,0.08946 -0.0897,0.165833 -0.13476,0.248047 -0.23721,0.436741 -0.54239,0.719823 -0.86914,0.984375 -0.0926,0.06144 -0.18453,0.124282 -0.28516,0.171875 -0.17705,0.125394 -0.41596,0.229313 -0.66211,0.330078 -0.41641,0.153333 -0.80001,0.318192 -1.41211,0.392578 -0.0484,0.0084 -0.1196,0.0116 -0.16992,0.01953 -0.91884,0.101202 -2.05584,0.147142 -3.56641,0.185547 l -1.16211,0.0293 h -3.00976 l -2.02344,7.24414 h 49.08008 l 2.02344,-7.246094 h -4.50391 c -0.25657,-0.0012 -0.22015,-0.01367 -0.48828,-0.01367 -2.51429,0 -3.95343,-0.03765 -4.98633,-0.148437 -0.17405,-0.02264 -0.38756,-0.03666 -0.53711,-0.06445 -0.097,-0.01558 -0.16356,-0.04067 -0.25,-0.05859 -0.31799,-0.0714 -0.61465,-0.148988 -0.83984,-0.248047 -0.17923,-0.08667 -0.34072,-0.187028 -0.48438,-0.304687 -0.0447,-0.039 -0.0973,-0.07547 -0.13281,-0.117188 -0.0534,-0.04061 -0.0918,-0.09318 -0.13672,-0.140625 -0.057,-0.05891 -0.10476,-0.122059 -0.14453,-0.177734 -0.10429,-0.165352 -0.17028,-0.361648 -0.19922,-0.587891 -0.005,-0.05647 -0.0147,-0.111021 -0.0156,-0.177734 -0.005,-0.118658 -0.006,-0.241644 0.008,-0.375 0.0172,-0.368724 0.28314,-1.447577 0.49023,-2.351563 0.18512,-0.769566 0.39059,-1.603966 0.68555,-2.71875 l 5.63477,-20.169921 c 0.4721,-1.638147 1.22144,-4.332681 1.5332,-5.3125 0.30269,-0.983652 0.55495,-1.755143 0.75586,-2.316407 0.21628,-0.568876 0.43281,-1.157139 0.60547,-1.441406 8e-4,-0.0012 10e-4,-0.0027 0.002,-0.0039 0.0529,-0.0822 0.11394,-0.150936 0.17187,-0.22461 0.1648,-0.219533 0.34026,-0.377368 0.52539,-0.509765 0.10844,-0.07642 0.21988,-0.14834 0.33985,-0.205078 0.0377,-0.02673 0.0998,-0.04472 0.14062,-0.07031 0.44103,-0.255567 0.94319,-0.4487 1.6211,-0.582031 0.0908,-0.01898 0.15598,-0.04728 0.25195,-0.06445 0.16421,-0.0292 0.39737,-0.04254 0.58398,-0.06641 0.57817,-0.07292 1.52443,-0.110975 2.4004,-0.152343 0.24092,-0.0044 0.43596,-0.01953 0.69531,-0.01953 h 7.06445 l 2.02539,-7.2480474 h -49.0802 L 269.29883,40.591797 265.06055,8.3378906 Z m 309.26758,0 -2.02344,7.2480474 h 6.63672 c 1.59857,0.05825 2.95547,0.121677 3.55078,0.1875 0.1297,0.01952 0.30937,0.02803 0.42383,0.05078 0.36567,0.07232 0.6683,0.164345 0.92383,0.269531 a 3.724,3.724 0 0 1 0.45117,0.236328 c 0.093,0.06595 0.17274,0.136093 0.23633,0.210938 0.26338,0.169135 0.41711,0.435694 0.48046,0.779296 0.0113,0.08028 0.0275,0.159387 0.0312,0.261719 0.004,0.11287 0.005,0.227635 -0.008,0.355469 -0.008,0.251476 -0.20626,1.064729 -0.30469,1.572266 -0.20081,0.88837 -0.47782,2.016042 -0.88671,3.560546 l -6.60938,23.654297 c -0.2604,0.886408 -0.45169,1.489727 -0.66016,2.160157 -0.46946,1.45825 -0.92161,2.846144 -1.12695,3.18164 -0.29719,0.554362 -0.6844,0.956962 -1.17187,1.1875 -0.35752,0.253207 -0.89564,0.443175 -1.53516,0.595703 -0.65833,0.165502 -1.37464,0.284907 -2.21289,0.304688 -0.58143,0.03466 -1.22018,0.05664 -1.94531,0.05664 h -7.06446 l -2.02539,7.24414 h 83.64063 L 607.2146,42.556639 589.91382,39.716795 c -0.715,2.151 -1.31664,3.759172 -1.80664,4.826172 a 16.416,16.416 0 0 1 -1.76172,2.976562 c -1.092,1.501 -2.60697,2.820125 -4.54297,3.953125 a 19.579,19.579 0 0 1 -6.0625,2.308594 c -0.98141,0.169263 -2.10029,0.294222 -3.44531,0.378906 -1.0889,0.03747 -3.65439,0.0511 -7.2168,0.04687 -6.24782,0.03102 -14.23046,0.0918 -14.36328,-0.04102 -0.0231,-0.0233 0.69003,-2.545286 0.75196,-2.837891 l 3.80078,-13.603516 h 3.91211 c 0.34596,-0.002 0.63081,0.0263 0.95508,0.03516 0.99424,0.05239 1.98224,0.107114 2.64843,0.201172 0.27603,0.04359 0.5434,0.09068 0.79492,0.146484 0.66305,0.135949 1.21031,0.322989 1.70704,0.560547 0.41721,0.194275 0.77968,0.415487 1.07617,0.669922 0.62374,0.534847 1.00668,1.23196 1.15625,2.089843 0.009,0.05615 0.0161,0.114108 0.0234,0.171875 0.11651,0.863206 0.0124,1.877967 -0.32813,3.052735 l -0.44727,1.59375 h 11.10352 l 6.67578,-23.890625 h -11.10351 c -0.417,1.503 -0.79105,2.598156 -1.12305,3.285156 -0.1127,0.234282 -0.24299,0.437475 -0.36914,0.646484 -0.076,0.11936 -0.14019,0.250909 -0.2207,0.365235 -0.16884,0.244769 -0.34734,0.469652 -0.53711,0.673828 -0.17206,0.198838 -0.3568,0.38267 -0.54493,0.5625 -0.28224,0.272783 -0.58617,0.526648 -0.91601,0.757812 -0.17909,0.126755 -0.36649,0.242722 -0.55664,0.355469 -0.31367,0.184094 -0.64543,0.352251 -0.9961,0.503906 -0.65514,0.294316 -1.32663,0.511373 -2.0664,0.675782 -0.38738,0.08862 -0.79707,0.158063 -1.2168,0.220703 -0.7062,0.09796 -1.67632,0.160259 -2.68164,0.214844 -0.22667,0.0054 -0.44202,0.01984 -0.67578,0.01953 h -4.08789 c -0.0349,-0.03151 -0.17444,-0.03756 -0.17774,-0.08398 l 4.14063,-14.816406 c 0.042,-0.07549 0.50939,-0.110478 0.875,-0.15039 h 15.82031 c 2.088,-0.001 3.64769,0.02036 4.67969,0.06836 1.033,0.048 1.88478,0.132 2.55078,0.25 1.52,0.244 2.83889,0.631062 3.96289,1.164062 0.006,0.003 0.0113,0.0068 0.0176,0.0098 0.41942,0.216935 0.84233,0.430494 1.19531,0.6875 0.008,0.0057 0.017,0.01183 0.0254,0.01758 0.98105,0.720019 1.70084,1.592459 2.13282,2.601563 0.48299,1.128 0.71553,2.266812 0.76953,3.757812 0.042,1.166 -0.0269,1.906672 -0.29688,3.263672 -0.104,0.52 -0.18945,1.000406 -0.18945,1.066406 v 0.002 c 0,0.02969 0.0646,0.01792 0.0762,0.03516 -0.0334,0.127312 -0.0556,0.245634 -0.0918,0.375 L 611.25369,26.61141 608.88845,8.3379726 Z m -358.94532,0.1875 -14.67968,0.044922 -16.75586,20.5371094 c -9.214,11.295 -17.29313,21.081047 -17.95313,21.748047 -1.484,1.5 -2.66664,2.324078 -4.05664,2.830078 -0.946,0.344 -1.52922,0.39975 -4.94922,0.46875 -3.409,0.068 -3.88784,0.113047 -3.96484,0.373047 -0.05,0.162 -0.45916,1.620234 -0.91016,3.240234 -0.451,1.621 -0.86306,3.087766 -0.91406,3.259766 h 0.002 c -0.087,0.296 0.90349,0.3125 19.02149,0.3125 h 19.11328 l 0.19922,-0.759766 c 0.24,-0.901 1.56522,-5.628594 1.69922,-6.058594 0.085,-0.273 -0.30172,-0.303375 -4.51172,-0.359375 -3.845,-0.05 -4.71735,-0.109375 -5.27735,-0.359375 -0.809,-0.364 -1.13539,-0.974687 -0.90039,-1.679687 0.091,-0.275 1.52646,-2.210735 3.18946,-4.302735 l 3.02539,-3.802734 12.94531,0.04492 12.94531,0.04492 0.40235,1.607422 c 0.962,3.85 1.31518,5.959406 1.11718,6.691406 -0.18,0.67 -0.66657,1.159297 -1.51757,1.529297 -0.197,0.086 -2.52293,0.199906 -5.16993,0.253906 l -4.8125,0.0957 -0.85156,3.027344 c -0.468,1.664 -0.90094,3.252344 -0.96094,3.527344 l -0.10937,0.501953 23.88281,-0.04687 23.88477,-0.04492 0.94922,-3.392578 c 0.522,-1.867 0.95312,-3.445766 0.95312,-3.509766 0.001,-0.064 -1.74581,-0.151312 -3.88281,-0.195312 -4.548,-0.092 -5.40616,-0.274844 -6.28516,-1.339844 -1.198,-1.455 -1.40462,-2.282578 -5.89062,-23.642578 -2.363,-11.255 -4.29688,-20.516125 -4.29688,-20.578125 0,-0.061 -6.60669,-0.091406 -14.67969,-0.066406 z m 225.72071,0 -14.67188,0.044922 -16.73437,20.5097654 c -9.204,11.281 -17.32778,21.109844 -18.05078,21.839844 -1.518,1.532 -2.52177,2.224531 -4.00977,2.769531 -0.931,0.341 -1.52059,0.395844 -4.93359,0.464844 -3.41,0.068 -3.8888,0.111094 -3.9668,0.371094 -0.049,0.163 -0.45339,1.620234 -0.90039,3.240234 -0.447,1.62 -0.85811,3.086766 -0.91211,3.259766 -0.095,0.299 0.84681,0.314453 19.00781,0.314453 18.042,0 19.11217,-0.0175 19.20117,-0.3125 a 516.15,516.15 0 0 0 0.91211,-3.259766 c 0.451,-1.621 0.85821,-3.08014 0.90821,-3.24414 0.081,-0.274001 -0.30958,-0.306329 -4.51758,-0.361329 -3.808,-0.05 -4.71877,-0.111468 -5.25977,-0.355468 -0.778,-0.35 -1.10598,-0.876922 -0.95898,-1.544922 0.087,-0.397 4.26697,-5.872906 5.91797,-7.753907 l 0.42969,-0.490234 h 25.7207 l 0.15234,0.402344 c 0.366,0.962 1.50172,6.377078 1.51172,7.205078 0.014,1.112 -0.37616,1.772641 -1.28516,2.181641 -0.537,0.241 -1.52289,0.311718 -5.46289,0.386718 l -4.80664,0.0918 -0.94922,3.394532 c -0.522,1.865999 -0.95312,3.45139 -0.95312,3.52539 -10e-4,0.074 10.74305,0.114844 23.87305,0.08984 L 425.1582,61.25 l 0.85352,-3.025391 c 0.468,-1.665 0.89903,-3.244765 0.95703,-3.509765 l 0.10547,-0.482422 -3.89453,-0.08008 c -4.786,-0.098 -5.46463,-0.259344 -6.39063,-1.527344 -0.338,-0.461 -0.82598,-1.401844 -1.08398,-2.089844 -0.278,-0.737 -2.21928,-9.585078 -4.73828,-21.580078 -2.348,-11.183 -4.27149,-20.3623436 -4.27149,-20.4023436 0,-0.04 -6.60187,-0.052344 -14.67187,-0.027344 z m -8.43555,10.8964844 c 0.083,0.084 4.17969,17.520922 4.17969,17.794922 0,0.138 -2.77845,0.193359 -9.56446,0.193359 -7.606,0 -9.53578,-0.04566 -9.42578,-0.222656 0.116,-0.189 6.93955,-8.452406 13.06055,-15.816406 0.925,-1.111 1.711,-1.987219 1.75,-1.949219 z m -225.8125,0.03906 c 0.093,-0.059 0.16992,-0.05423 0.16992,0.0098 0,0.064 0.92469,4.053281 2.05469,8.863281 1.129,4.811 2.05469,8.82111 2.05469,8.91211 0,0.099 -3.83141,0.164062 -9.56641,0.164062 -7.603,0 -9.53569,-0.04566 -9.42969,-0.222656 0.227,-0.381 14.5348,-17.614563 14.7168,-17.726562 z"
     inkscape:label="Gamate" />
</svg>
