<?xml version="1.0" encoding="UTF-8" standalone="no"?>
<!-- Created with Inkscape (http://www.inkscape.org/) -->

<svg
   width="262.20969mm"
   height="26.080227mm"
   viewBox="0 0 262.2097 26.080227"
   version="1.1"
   id="svg1"
   inkscape:version="1.4 (86a8ad7, 2024-10-11)"
   sodipodi:docname="gb2players.svg"
   xmlns:inkscape="http://www.inkscape.org/namespaces/inkscape"
   xmlns:sodipodi="http://sodipodi.sourceforge.net/DTD/sodipodi-0.dtd"
   xmlns:xlink="http://www.w3.org/1999/xlink"
   xmlns="http://www.w3.org/2000/svg"
   xmlns:svg="http://www.w3.org/2000/svg">
  <sodipodi:namedview
     id="namedview1"
     pagecolor="#ffffff"
     bordercolor="#000000"
     borderopacity="0.25"
     inkscape:showpageshadow="2"
     inkscape:pageopacity="0.0"
     inkscape:pagecheckerboard="true"
     inkscape:deskcolor="#d1d1d1"
     inkscape:document-units="mm"
     inkscape:zoom="1.6471871"
     inkscape:cx="503.88933"
     inkscape:cy="-90.760788"
     inkscape:window-width="3840"
     inkscape:window-height="2066"
     inkscape:window-x="-11"
     inkscape:window-y="-11"
     inkscape:window-maximized="1"
     inkscape:current-layer="g8" />
  <defs
     id="defs1">
    <linearGradient
       id="linearGradient18"
       gradientUnits="userSpaceOnUse"
       x1="127.571"
       y1="-0.713"
       x2="127.571"
       y2="98.787003"
       gradientTransform="matrix(0.99999769,0,0,0.99999769,-9.5978193e-4,-6.4086325e-4)">
      <stop
         offset="0.005"
         style="stop-color:#c95252;stop-opacity:1;"
         id="stop15" />
      <stop
         offset="1"
         style="stop-color:#922e5c;stop-opacity:1;"
         id="stop18" />
    </linearGradient>
    <linearGradient
       id="linearGradient17"
       gradientUnits="userSpaceOnUse"
       x1="127.571"
       y1="-0.713"
       x2="127.571"
       y2="98.787003"
       gradientTransform="matrix(0.99999769,0,0,0.99999769,-9.5978193e-4,-6.4086325e-4)">
      <stop
         offset="0.0001"
         style="stop-color:#2e5c92"
         id="stop16" />
      <stop
         offset="1"
         style="stop-color:#2e3192"
         id="stop17" />
    </linearGradient>
    <linearGradient
       id="c"
       gradientUnits="userSpaceOnUse"
       x1="127.571"
       y1="-0.713"
       x2="127.571"
       y2="98.787003"
       gradientTransform="matrix(0.26457836,0,0,0.26457836,-2.5403194e-4,-1.6987932e-4)">
      <stop
         offset=".005"
         style="stop-color:#2e5c92"
         id="stop5" />
      <stop
         offset="1"
         style="stop-color:#2e3192"
         id="stop6" />
    </linearGradient>
    <linearGradient
       id="b"
       gradientUnits="userSpaceOnUse"
       x1="290.73801"
       y1="-0.713"
       x2="290.73801"
       y2="98.787003"
       gradientTransform="matrix(0.26458333,0,0,0.26458333,-2.5403671e-4,-1.7144553e-4)">
      <stop
         offset=".005"
         style="stop-color:#2e5c92"
         id="stop3" />
      <stop
         offset="1"
         style="stop-color:#2e3192"
         id="stop4" />
    </linearGradient>
    <linearGradient
       id="e"
       gradientUnits="userSpaceOnUse"
       x1="378.92099"
       y1="-0.713"
       x2="378.92099"
       y2="98.787003"
       gradientTransform="matrix(0.26458333,0,0,0.26458333,-2.5403671e-4,-1.7144553e-4)">
      <stop
         offset=".005"
         style="stop-color:#2e5c92"
         id="stop9" />
      <stop
         offset="1"
         style="stop-color:#2e3192"
         id="stop10" />
    </linearGradient>
    <linearGradient
       id="d"
       gradientUnits="userSpaceOnUse"
       x1="458.99399"
       y1="-0.713"
       x2="458.99399"
       y2="98.787003"
       gradientTransform="matrix(0.26458333,0,0,0.26458333,-2.5403671e-4,-1.7144553e-4)">
      <stop
         offset=".005"
         style="stop-color:#2e5c92"
         id="stop7" />
      <stop
         offset="1"
         style="stop-color:#2e3192"
         id="stop8" />
    </linearGradient>
    <linearGradient
       id="a"
       gradientUnits="userSpaceOnUse"
       x1="527.771"
       y1="-0.713"
       x2="527.771"
       y2="98.787003"
       gradientTransform="matrix(0.26458333,0,0,0.26458333,-2.5403671e-4,-1.7144553e-4)">
      <stop
         offset=".005"
         style="stop-color:#2e5c92"
         id="stop1" />
      <stop
         offset="1"
         style="stop-color:#2e3192"
         id="stop2" />
    </linearGradient>
    <linearGradient
       id="f"
       gradientUnits="userSpaceOnUse"
       x1="538.59802"
       y1="-0.713"
       x2="538.59802"
       y2="98.787003"
       gradientTransform="matrix(0.26458333,0,0,0.26458333,-2.5403671e-4,-1.7144553e-4)">
      <stop
         offset=".005"
         style="stop-color:#2e5c92"
         id="stop11" />
      <stop
         offset="1"
         style="stop-color:#2e3192"
         id="stop12" />
    </linearGradient>
    <linearGradient
       id="g"
       gradientUnits="userSpaceOnUse"
       x1="539.14398"
       y1="-0.713"
       x2="539.14398"
       y2="98.787003"
       gradientTransform="matrix(0.26458333,0,0,0.26458333,-2.5403671e-4,-1.7144553e-4)">
      <stop
         offset=".005"
         style="stop-color:#2e5c92"
         id="stop13" />
      <stop
         offset="1"
         style="stop-color:#2e3192"
         id="stop14" />
    </linearGradient>
    <linearGradient
       id="linearGradient22"
       gradientUnits="userSpaceOnUse"
       x1="539.14398"
       y1="-0.713"
       x2="539.14398"
       y2="98.787003"
       gradientTransform="translate(208.35564,-171.03631)">
      <stop
         offset="0.0001"
         style="stop-color:#2e5c92"
         id="stop21" />
      <stop
         offset="1"
         style="stop-color:#2e3192"
         id="stop22" />
    </linearGradient>
    <linearGradient
       inkscape:collect="always"
       xlink:href="#linearGradient25"
       id="linearGradient26"
       x1="310.68436"
       y1="108.23209"
       x2="302.19907"
       y2="204.84819"
       gradientUnits="userSpaceOnUse" />
    <linearGradient
       id="linearGradient25"
       inkscape:collect="always">
      <stop
         style="stop-color:#2e5b92;stop-opacity:1;"
         offset="0"
         id="stop25" />
      <stop
         style="stop-color:#2e3392;stop-opacity:1;"
         offset="1"
         id="stop26" />
    </linearGradient>
    <linearGradient
       inkscape:collect="always"
       xlink:href="#linearGradient6"
       id="linearGradient1"
       gradientUnits="userSpaceOnUse"
       x1="249.08247"
       y1="108.01746"
       x2="234.58725"
       y2="203.98962" />
    <linearGradient
       id="linearGradient6"
       gradientUnits="userSpaceOnUse"
       x1="127.571"
       y1="-0.713"
       x2="127.571"
       y2="98.787003"
       gradientTransform="matrix(0.99999769,0,0,0.99999769,-9.5978193e-4,-6.4086325e-4)">
      <stop
         offset="0.005"
         style="stop-color:#2e5c92"
         id="stop1-2" />
      <stop
         offset="1"
         style="stop-color:#2e3192"
         id="stop2-2" />
    </linearGradient>
    <linearGradient
       inkscape:collect="always"
       xlink:href="#linearGradient6"
       id="linearGradient2"
       gradientUnits="userSpaceOnUse"
       x1="169.0215"
       y1="107.37353"
       x2="157.10196"
       y2="206.13603" />
    <linearGradient
       inkscape:collect="always"
       xlink:href="#linearGradient25"
       id="linearGradient3"
       gradientUnits="userSpaceOnUse"
       x1="468.87454"
       y1="107.80281"
       x2="465.96991"
       y2="204.84819" />
    <linearGradient
       inkscape:collect="always"
       xlink:href="#linearGradient25"
       id="linearGradient4"
       gradientUnits="userSpaceOnUse"
       x1="468.87454"
       y1="107.80281"
       x2="465.96991"
       y2="204.84819" />
    <linearGradient
       inkscape:collect="always"
       xlink:href="#linearGradient6"
       id="linearGradient5"
       gradientUnits="userSpaceOnUse"
       gradientTransform="matrix(0.99999769,0,0,0.99999769,-9.5978193e-4,-6.4086325e-4)"
       x1="469.36661"
       y1="108.56446"
       x2="468.15244"
       y2="205.63606" />
    <linearGradient
       inkscape:collect="always"
       xlink:href="#linearGradient18"
       id="linearGradient1-2"
       gradientUnits="userSpaceOnUse"
       x1="241.83485"
       y1="107.47323"
       x2="241.83487"
       y2="204.53386"
       gradientTransform="matrix(0.19845681,0,0,0.19845681,149.62643,-81.27699)" />
    <linearGradient
       inkscape:collect="always"
       xlink:href="#linearGradient18"
       id="linearGradient7"
       gradientUnits="userSpaceOnUse"
       gradientTransform="matrix(0.20286295,0,0,0.20286295,102.85911,-60.181645)"
       x1="527.771"
       y1="-0.713"
       x2="527.771"
       y2="98.787003" />
    <linearGradient
       inkscape:collect="always"
       xlink:href="#linearGradient18"
       id="linearGradient8"
       gradientUnits="userSpaceOnUse"
       gradientTransform="matrix(0.20286295,0,0,0.20286295,163.45742,-60.181645)"
       x1="290.73801"
       y1="-0.713"
       x2="290.73801"
       y2="98.787003" />
    <linearGradient
       inkscape:collect="always"
       xlink:href="#linearGradient18"
       id="linearGradient16"
       x1="44.761192"
       y1="-30.740107"
       x2="44.761192"
       y2="-4.9551439"
       gradientUnits="userSpaceOnUse"
       gradientTransform="matrix(0.75005767,0,0,0.75005767,149.93524,-36.922768)" />
    <linearGradient
       inkscape:collect="always"
       xlink:href="#linearGradient18"
       id="linearGradient19"
       x1="26.175161"
       y1="-30.679043"
       x2="26.175161"
       y2="-4.7322559"
       gradientUnits="userSpaceOnUse"
       gradientTransform="matrix(0.75005767,0,0,0.75005767,149.93524,-36.922768)" />
    <linearGradient
       inkscape:collect="always"
       xlink:href="#linearGradient18"
       id="linearGradient23"
       x1="5.2207346"
       y1="-30.74818"
       x2="5.2207346"
       y2="-5.0176401"
       gradientUnits="userSpaceOnUse" />
    <linearGradient
       inkscape:collect="always"
       xlink:href="#linearGradient18"
       id="linearGradient27"
       x1="114.46273"
       y1="-30.732193"
       x2="114.46273"
       y2="-4.792686"
       gradientUnits="userSpaceOnUse"
       gradientTransform="matrix(0.75005767,0,0,0.75005767,149.93524,-36.922768)" />
    <linearGradient
       inkscape:collect="always"
       xlink:href="#linearGradient18"
       id="linearGradient29"
       x1="133.62148"
       y1="-30.724947"
       x2="133.62148"
       y2="-4.6922016"
       gradientUnits="userSpaceOnUse"
       gradientTransform="matrix(0.75005767,0,0,0.75005767,149.93524,-36.922768)" />
    <linearGradient
       inkscape:collect="always"
       xlink:href="#b"
       id="linearGradient30"
       gradientUnits="userSpaceOnUse"
       gradientTransform="matrix(0.26458333,0,0,0.26458333,-2.5403671e-4,-1.7144553e-4)"
       x1="290.73801"
       y1="-0.713"
       x2="290.73801"
       y2="98.787003" />
    <linearGradient
       inkscape:collect="always"
       xlink:href="#a"
       id="linearGradient31"
       gradientUnits="userSpaceOnUse"
       gradientTransform="matrix(0.26458333,0,0,0.26458333,-2.5403671e-4,-1.7144553e-4)"
       x1="527.771"
       y1="-0.713"
       x2="527.771"
       y2="98.787003" />
    <linearGradient
       inkscape:collect="always"
       xlink:href="#linearGradient18"
       id="linearGradient9"
       gradientUnits="userSpaceOnUse"
       x1="5.2207346"
       y1="-30.74818"
       x2="5.2207346"
       y2="-5.0176401"
       gradientTransform="translate(146.0951,-29.234182)" />
  </defs>
  <g
     id="g29"
     inkscape:label="Gameboy"
     style="display:inline">
    <path
       fill="url(#c)"
       d="m 29.671151,13.113654 1.962113,-5.2582314 0.628374,5.2582314 z m -2.119008,5.023556 h 5.337074 l 0.942694,7.535188 h 9.653934 l 4.47402,-13.81443 2.198382,13.81443 h 5.101864 l 5.651125,-14.599165 0.942172,14.599165 h 5.651124 L 65.934522,0.24138558 H 59.184069 L 53.925578,13.662924 51.884357,0.24138558 h -6.0435 L 38.93404,21.119794 36.343552,0.24138558 H 28.808361 L 20.409586,21.35474 21.508644,13.113394 H 11.304915 l -0.706954,5.023546 h 4.47455 l -0.314319,1.726638 c -0.785004,0.470421 -2.589958,0.548999 -3.296382,0.548999 -0.706424,0 -5.9649192,-0.470421 -5.7297097,-6.122075 C 5.9673109,8.6393679 13.502502,3.3806167 22.450278,6.2846221 L 23.314391,0.8687038 C 17.348678,-1.1714578 1.6808764,-0.02953933 0.08044245,13.976978 -0.86119187,22.218063 6.6739997,26.14282 11.69702,26.065031 c 2.904277,0.157157 6.201188,-0.942162 7.378297,-1.57027 l -0.392106,1.177637 h 5.965449 z"
       id="path6"
       inkscape:label="GAM"
       style="fill:url(#c);stroke-width:0.264578" />
    <path
       fill="url(#b)"
       d="m 82.4963,25.675259 0.78502,-5.65414 H 74.3347 l 0.54927,-4.39341 h 7.76949 l 0.78608,-5.6515004 h -7.69197 l 0.54981,-4.08252 h 8.94609 L 86.1076,0.24244855 H 71.27294 L 67.74075,25.675259 Z"
       id="path4"
       inkscape:label="E"
       style="fill:url(#linearGradient30);stroke-width:0.264583" />
    <path
       fill="url(#e)"
       d="m 98.11598,9.9762086 h 3.29697 c 2.43337,0 2.90433,-1.57004 2.98212,-2.19737 0.0786,-0.62838 -0.62733,-1.88436 -1.88304,-1.88436 H 98.66578 Z M 96.70337,20.022699 h 4.47463 c 2.43231,0 2.98185,-1.8833 3.05964,-2.51169 0.0791,-0.62785 -0.62733,-1.88304 -1.88304,-1.88304 h -5.02285 z m -6.59289,5.65177 3.53219,-25.43122045 h 10.83151 c 2.59106,0 6.3582,2.98291005 5.88751,6.98579005 -0.4707,4.0031504 -1.72694,4.2386304 -2.59054,4.8664804 1.33482,1.1766 2.66912,3.0607 2.11984,6.59289 -0.5498,3.53298 -3.45413,6.98579 -8.55609,6.98579 z"
       id="path10"
       inkscape:label="B"
       style="fill:url(#e);stroke-width:0.264583" />
    <path
       fill="url(#d)"
       d="m 122.9204,0.00723855 c -4.08199,-0.15716 -9.96897,2.19763005 -11.93112,11.69564045 -1.96215,9.49695 3.29644,13.3432 8.16292,13.97106 4.86728,0.62785 11.69591,-2.43311 12.95162,-11.53822 C 133.36006,5.0303486 128.8849,0.24297855 122.9204,0.00723855 Z m -0.62812,5.41602005 c 1.64809,0 5.18001,1.09908 4.31641,7.6917004 -0.8636,6.59342 -4.9448,7.37844 -6.43625,7.22101 -1.49199,-0.15716 -4.55269,-1.1766 -3.68909,-7.22101 0.86307,-6.0433504 4.08093,-7.7702804 5.80893,-7.6917004 z"
       id="path8"
       inkscape:label="O"
       style="fill:url(#d);stroke-width:0.264583" />
    <path
       fill="url(#a)"
       d="m 129.27913,0.24244855 h 6.35767 l 3.14034,7.22260005 4.70932,-7.22260005 h 6.51272 l -9.18289,14.28644045 -1.49093,11.14637 h -5.88645 l 1.72667,-12.71799 z"
       id="path2"
       inkscape:label="Y"
       style="fill:url(#linearGradient31);stroke-width:0.264583" />
    <path
       fill="url(#f)"
       d="m 142.50935,21.827429 c -0.96837,0 -1.75021,0.78078 -1.75021,1.74439 a 1.7483666,1.7483666 0 0 0 1.75021,1.75525 c 0.96335,0 1.74414,-0.78132 1.74414,-1.75525 a 1.7451916,1.7451916 0 0 0 -1.74414,-1.74439 v -0.23998 a 1.984375,1.984375 0 0 1 1.98385,1.98437 c 0,1.10411 -0.88635,1.99443 -1.98385,1.99443 a 1.9912541,1.9912541 0 0 1 -1.99469,-1.99443 c 0,-1.09405 0.89032,-1.98411 1.99469,-1.98411 z"
       id="path12"
       inkscape:label="Circle"
       style="fill:url(#f);stroke-width:0.264583" />
    <path
       fill="url(#g)"
       d="m 142.0384,22.658479 h 0.63553 c 0.27649,0 0.57732,0.0413 0.57732,0.3855 0,0.4527 -0.48366,0.40111 -0.7964,0.40111 l -0.41645,-5.3e-4 v 0.21405 h 0.50085 l 0.635,1.02605 h 0.32253 l -0.67178,-1.02605 c 0.39582,-0.0101 0.70274,-0.17145 0.70274,-0.60907 0,-0.18786 -0.0828,-0.3855 -0.24951,-0.47969 -0.16642,-0.0987 -0.35454,-0.10901 -0.54213,-0.10901 h -0.96731 v 2.22329 h 0.26987 v -2.02565 z"
       id="path14"
       inkscape:label="R"
       style="fill:url(#g);stroke-width:0.264583" />
  </g>
  <text
     xml:space="preserve"
     style="font-size:38.1124px;line-height:0;font-family:NiseGenesis;-inkscape-font-specification:NiseGenesis;text-align:center;letter-spacing:-3.32446px;word-spacing:0px;writing-mode:lr-tb;direction:ltr;text-anchor:middle;display:none;fill:#2e5b92;fill-opacity:1;stroke-width:3.43011;paint-order:stroke markers fill"
     x="-98.174812"
     y="75.954384"
     id="text1"
     inkscape:label="Hacks"
     transform="matrix(1.0257793,0,0.00361317,0.97486857,0,0)"><tspan
       sodipodi:role="line"
       id="tspan1"
       x="2.431664e-09"
       y="4.4331432e-09"
       style="font-style:italic;font-variant:normal;font-weight:bold;font-stretch:normal;font-family:'Gill Sans MT';-inkscape-font-specification:'Gill Sans MT Bold Italic';letter-spacing:-3.32446px;word-spacing:0px;fill:#2e5b92;fill-opacity:1;stroke-width:3.43011">HACKS</tspan></text>
  <g
     id="g23"
     inkscape:label="Hacks"
     transform="matrix(0.26458333,0,0,0.26458333,-6.1733222,0.78771856)"
     style="display:none;fill:url(#linearGradient26)">
    <path
       id="path1-8"
       style="font-style:italic;font-weight:bold;font-size:144.047px;line-height:0;font-family:'Gill Sans MT';-inkscape-font-specification:'Gill Sans MT Bold Italic';text-align:center;letter-spacing:-12.5649px;word-spacing:0px;text-anchor:middle;fill:url(#linearGradient2);fill-opacity:1;stroke-width:13.1042;paint-order:stroke markers fill"
       d="m 126.91229,107.23459 c -0.002,0.0163 -0.005,0.0325 -0.008,0.0488 -4.63434,32.73669 -9.27185,65.47202 -13.90429,98.20899 h 23.44726 c 1.83964,-13.01143 3.67398,-26.02345 5.51172,-39.03516 H 179.375 c -1.88398,13.0118 -3.7679,26.02343 -5.65235,39.03516 h 23.45116 c 4.61284,-32.75265 9.22704,-65.50512 13.83985,-98.25779 h -23.44727 c -1.76729,12.63789 -3.53393,25.2761 -5.30078,37.91406 h -37.27344 c 1.78866,-12.638 3.58028,-25.2758 5.36719,-37.91406 z"
       sodipodi:nodetypes="cccccccccccccc"
       inkscape:label="H" />
    <path
       d="m 233.17385,107.23438 -39.12112,98.258 h 23.0486 l 11.21881,-29.11422 h 20.62075 l 3.64177,29.11422 h 21.90055 l -12.19515,-98.258 z m 10.91334,29.4177 2.42784,20.31726 h -10.00888 z"
       style="display:inline;fill:url(#linearGradient1);stroke-width:6.13352;paint-order:stroke markers fill"
       id="path22"
       sodipodi:nodetypes="ccccccccccccc"
       inkscape:label="A" />
    <path
       id="path1-82"
       style="font-style:italic;font-weight:bold;font-size:144.047px;line-height:0;font-family:'Gill Sans MT';-inkscape-font-specification:'Gill Sans MT Bold Italic';text-align:center;letter-spacing:-12.5649px;word-spacing:0px;text-anchor:middle;fill:url(#linearGradient4);fill-opacity:1;stroke-width:11.9763;paint-order:stroke markers fill"
       d="m 327.32031,107.25024 c -10.3702,0.16792 -20.85979,2.40714 -29.88802,7.53911 -7.79564,4.42361 -14.49526,10.7563 -19.15289,18.32305 -5.15569,8.34655 -7.42511,18.17532 -7.43102,27.87406 -0.0914,8.78707 1.80182,17.77465 6.5885,25.29669 5.07489,8.07113 13.12336,14.3619 22.40577,17.12188 8.62487,2.61481 17.8976,2.5687 26.71873,0.98802 6.91138,-1.26344 13.58016,-3.60943 19.8937,-6.61705 0.98717,-7.81895 1.96888,-15.63856 2.95703,-23.45738 -4.29245,2.63707 -8.60826,5.14792 -13.2316,7.15589 -6.65758,2.91884 -14.13958,5.04878 -21.59716,4.67483 -5.40798,-0.20445 -10.9022,-1.92654 -14.93943,-5.5597 -1.89174,-1.65215 -3.52769,-3.7734 -4.64978,-5.90351 -2.79222,-5.2423 -3.22024,-11.43319 -2.62904,-17.15969 0.36321,-3.44775 1.27785,-7.10617 2.72437,-10.41456 2.31856,-5.23179 5.82673,-10.01362 10.35975,-13.61541 4.00096,-3.13839 8.83762,-5.15416 13.84766,-6.12515 1.16606,-0.23374 2.69708,-0.45451 3.89257,-0.57805 9.16667,-0.86001 18.47605,0.47986 27.15806,3.42102 0.38278,-0.1284 0.24923,-1.09472 0.42808,-1.55352 1.02954,-5.91123 2.06191,-11.82199 3.08964,-17.73353 -8.63011,-2.3609 -17.56068,-3.86532 -26.54492,-3.677 z"
       sodipodi:nodetypes="cccccccccccccccccccccc"
       inkscape:label="C" />
    <path
       id="path1-5"
       style="font-style:italic;font-weight:bold;font-size:144.047px;line-height:0;font-family:'Gill Sans MT';-inkscape-font-specification:'Gill Sans MT Bold Italic';text-align:center;letter-spacing:-12.5649px;word-spacing:0px;text-anchor:middle;fill:url(#linearGradient3);fill-opacity:1;stroke-width:12.7683;paint-order:stroke markers fill"
       d="m 360.37416,108.09591 c -4.51166,32.46554 -9.02643,64.93062 -13.53616,97.39647 h 22.63758 c 2.28259,-16.50663 4.56686,-33.01301 6.8501,-49.51955 11.92639,16.50665 23.85412,33.01224 35.77967,49.51955 h 26.37468 c -12.88465,-17.89054 -25.76876,-35.78148 -38.6532,-53.67217 14.87681,-14.8619 29.75331,-29.72413 44.63031,-44.58583 -9.10204,-1e-5 -18.20409,0 -27.30614,0 -13.15963,13.10953 -26.32074,26.21744 -39.48094,39.32635 1.82043,-13.10884 3.64374,-26.21725 5.46235,-39.32635 -7.54585,-1e-5 -15.09171,0 -22.63758,0 -0.0403,0.28717 -0.0804,0.57435 -0.12067,0.86153 z"
       sodipodi:nodetypes="ccccccccccccc"
       inkscape:label="K" />
    <path
       id="text1-4"
       style="font-style:italic;font-weight:bold;font-size:144.047px;line-height:0;font-family:'Gill Sans MT';-inkscape-font-specification:'Gill Sans MT Bold Italic';text-align:center;letter-spacing:-12.5649px;word-spacing:0px;text-anchor:middle;display:inline;fill:url(#linearGradient5);fill-opacity:1;stroke-width:12.8371;paint-order:stroke markers fill"
       inkscape:label="S"
       d="m 469.68933,107.24117 c -7.71732,0.095 -15.53743,1.96795 -21.90148,6.11674 -5.75166,3.68644 -10.48383,9.02251 -12.36518,15.36691 -1.62865,5.42089 -1.57644,11.38503 0.77022,16.6352 1.39954,3.26541 3.54621,6.2395 6.29045,8.65825 4.68685,4.26871 10.33384,7.42893 15.84946,10.65661 3.33759,2.03234 6.69538,4.06995 9.62333,6.64549 2.39467,2.24373 4.07623,5.45979 3.47454,8.67517 -0.45115,3.22334 -3.23943,5.73703 -6.4008,6.83521 -1.95453,0.72448 -4.17349,1.01765 -6.15894,1.06762 -5.65515,0.10943 -11.24619,-1.35941 -16.52982,-3.27897 -4.80254,-1.76939 -9.31858,-4.16833 -13.49304,-6.99827 -1.19517,6.14051 -2.39109,12.28089 -3.59072,18.42062 7.51869,4.77111 16.28384,7.71299 25.27306,8.82009 6.17934,0.72964 12.49723,0.9586 18.65228,-0.0364 6.79982,-1.07793 13.34153,-3.99004 18.10235,-8.68769 4.5461,-4.33534 7.45817,-10.09605 8.18642,-16.12558 0.66458,-4.7982 0.13098,-9.78688 -1.95222,-14.25396 -1.63256,-3.7011 -4.17504,-7.02784 -7.35306,-9.71832 -4.41469,-3.87272 -9.65549,-6.76604 -14.82018,-9.66295 -3.49098,-2.07069 -7.08067,-4.06611 -10.16288,-6.66123 -1.91198,-1.80084 -3.11437,-4.42084 -2.56659,-6.9662 0.50379,-3.19243 3.34604,-5.55691 6.38645,-6.78022 4.52402,-1.79411 9.64584,-1.24133 14.28826,-0.12177 5.53211,1.41673 10.95751,3.42195 15.7627,6.45938 0.75998,0.48229 1.50611,0.98347 2.26145,1.47209 1.09215,-6.23285 2.18343,-12.46585 3.27512,-18.69879 -6.49638,-3.58644 -13.66756,-6.16473 -21.14181,-7.21795 -3.2269,-0.46862 -6.49572,-0.66846 -9.75937,-0.62113 z"
       sodipodi:nodetypes="scccccccccccccccccccccccccccss" />
  </g>
  <text
     xml:space="preserve"
     style="font-size:38.1124px;line-height:0;font-family:NiseGenesis;-inkscape-font-specification:NiseGenesis;text-align:center;letter-spacing:-3.32446px;word-spacing:0px;writing-mode:lr-tb;direction:ltr;text-anchor:middle;display:none;fill:#2e5b92;fill-opacity:1;stroke-width:3.43011;paint-order:stroke markers fill"
     x="72.650032"
     y="55.113884"
     id="text1-5"
     inkscape:label="2 Players"
     transform="matrix(1.0257793,0,0.00361317,0.97486857,0,0)"><tspan
       sodipodi:role="line"
       id="tspan1-4"
       x="2.431664e-09"
       y="4.4331432e-09"
       style="font-style:italic;font-variant:normal;font-weight:bold;font-stretch:normal;font-family:'Gill Sans MT';-inkscape-font-specification:'Gill Sans MT Bold Italic';letter-spacing:-3.32446px;word-spacing:0px;fill:#2e5b92;fill-opacity:1;stroke-width:3.43011">2PLAYERS</tspan></text>
  <g
     id="g8"
     inkscape:label="2Players"
     transform="translate(5.2752613,60.036735)">
    <path
       d="m 13.055788,-9.9997787 -0.734566,5.236339 H -3.2028966 l -0.00307,-0.826792 c 3.74603659,-4.6912723 6.6190399,-8.4700183 8.6190123,-11.3362253 2.0128161,-2.87846 3.0165225,-5.046492 3.0111205,-6.504095 -0.00263,-0.722672 -0.2820267,-1.328989 -0.8380462,-1.818944 -0.5560176,-0.489946 -1.246457,-0.734924 -2.0713175,-0.734924 -1.2759543,0 -3.1870041,0.777801 -5.73314811,2.333395 l 0.73484228,-5.162856 c 1.76090313,-1.298372 3.76264803,-1.947559 6.00523523,-1.947559 2.2296995,0 4.0365101,0.655308 5.4204301,1.965933 1.383875,1.298363 2.079443,2.92745 2.086707,4.887252 0.0061,1.629086 -0.477412,3.331658 -1.45035,5.107733 -0.960096,1.763823 -3.0435938,4.697404 -6.2504942,8.8007433 z"
       style="font-style:italic;font-weight:bold;font-size:38.1124px;line-height:0;font-family:'Gill Sans MT';-inkscape-font-specification:'Gill Sans MT Bold Italic';text-align:center;letter-spacing:-3.32446px;word-spacing:0px;text-anchor:middle;display:none;fill:url(#linearGradient23);stroke-width:3.47383;paint-order:stroke markers fill"
       id="path1"
       inkscape:label="2" />
    <path
       d="m 159.15088,-39.23396 -0.73456,5.236339 H 142.8922 l -0.003,-0.826792 c 3.74604,-4.691273 6.61904,-8.470019 8.61901,-11.336226 2.01282,-2.87846 3.01652,-5.046492 3.01112,-6.504095 -0.003,-0.722672 -0.28203,-1.328989 -0.83804,-1.818944 -0.55602,-0.489946 -1.24646,-0.734924 -2.07132,-0.734924 -1.27596,0 -3.18701,0.777801 -5.73315,2.333395 l 0.73484,-5.162856 c 1.76091,-1.298372 3.76265,-1.947559 6.00524,-1.947559 2.2297,0 4.03651,0.655308 5.42043,1.965933 1.38387,1.298363 2.07944,2.92745 2.0867,4.887252 0.006,1.629086 -0.47741,3.331658 -1.45035,5.107733 -0.96009,1.763823 -3.04359,4.697404 -6.25049,8.800744 z"
       style="font-style:italic;font-weight:bold;font-size:38.1124px;line-height:0;font-family:'Gill Sans MT';-inkscape-font-specification:'Gill Sans MT Bold Italic';text-align:center;letter-spacing:-3.32446px;word-spacing:0px;text-anchor:middle;fill:url(#linearGradient9);stroke-width:3.47383;paint-order:stroke markers fill"
       id="path3"
       inkscape:label="2" />
    <g
       id="g1"
       inkscape:label="Players"
       transform="translate(0,3.2490005)">
      <path
         d="m 164.25096,-59.995622 h 6.69748 c 2.00728,0 3.63952,0.521118 4.89671,1.563356 1.25715,1.032929 1.88906,2.447389 1.89572,4.24338 0.008,2.056549 -0.66217,3.629198 -2.00938,4.717962 -1.33742,1.088764 -3.13706,1.633143 -5.39892,1.633143 h -3.45155 l -1.05966,7.342159 h -4.36217 z m 3.9183,3.084828 -0.84427,6.016102 h 1.83593 c 1.31209,0 2.31959,-0.279168 3.02251,-0.837506 0.70293,-0.558337 1.0526,-1.321398 1.04902,-2.289191 -0.003,-0.893341 -0.35352,-1.595924 -1.05062,-2.107734 -0.68735,-0.521111 -1.67238,-0.781671 -2.95507,-0.781671 z"
         style="font-style:italic;font-weight:bold;font-size:38.1124px;line-height:0;font-family:'Gill Sans MT';-inkscape-font-specification:'Gill Sans MT Bold Italic';text-align:center;letter-spacing:-3.32446px;word-spacing:0px;text-anchor:middle;fill:url(#linearGradient19);stroke-width:2.63915;paint-order:stroke markers fill"
         id="path1-6"
         inkscape:label="P" />
      <path
         d="m 183.3837,-59.995622 -2.33384,16.247673 h 9.32653 l -0.47263,3.252327 h -13.68869 l 2.82115,-19.5 z"
         style="font-style:italic;font-weight:bold;font-size:38.1124px;line-height:0;font-family:'Gill Sans MT';-inkscape-font-specification:'Gill Sans MT Bold Italic';text-align:center;letter-spacing:-3.32446px;word-spacing:0px;text-anchor:middle;fill:url(#linearGradient16);stroke-width:2.63915;paint-order:stroke markers fill"
         id="path1-0"
         inkscape:label="L" />
      <path
         d="m 195.90137,-59.995596 -7.76385,19.499974 h 4.57415 l 2.22645,-5.777918 h 4.09233 l 0.72273,5.777918 h 4.34632 l -2.42022,-19.499974 z m 2.16583,5.838143 0.48182,4.032101 h -1.98633 z"
         style="display:inline;fill:url(#linearGradient1-2);stroke-width:1.21724;paint-order:stroke markers fill"
         id="path22-1"
         sodipodi:nodetypes="ccccccccccccc"
         inkscape:label="A" />
      <path
         fill="url(#a)"
         d="m 201.98098,-59.995622 h 4.87459 l 2.40778,5.537756 3.61076,-5.537756 h 4.99347 l -7.04076,10.953787 -1.14314,8.546213 h -4.51329 l 1.32388,-9.751215 z"
         id="path2-2"
         inkscape:label="Y"
         style="fill:url(#linearGradient7);stroke-width:0.202863" />
      <path
         fill="url(#b)"
         d="m 226.70968,-40.495622 0.6019,-4.335177 h -6.85961 l 0.42114,-3.368542 h 5.95707 l 0.60271,-4.333152 h -5.89764 l 0.42156,-3.130176 h 6.8592 l 0.66255,-4.332953 h -11.37412 l -2.70822,19.5 z"
         id="path4-9"
         inkscape:label="E"
         style="fill:url(#linearGradient8);stroke-width:0.202863" />
      <path
         d="m 229.78251,-59.995621 h 7.03528 c 2.19333,0 3.89433,0.581605 5.10301,1.744815 1.21844,1.153902 1.83061,2.526486 1.83652,4.117755 0.005,1.284181 -0.38772,2.386905 -1.17744,3.308165 -0.77991,0.921259 -1.90374,1.516824 -3.37148,1.786691 l 2e-4,0.0558 c 0.82364,0.307086 1.54615,1.070156 2.16755,2.289195 l 3.18077,6.197573 h -4.81749 l -1.96808,-3.950249 c -0.87794,-1.749465 -1.55761,-2.842882 -2.03902,-3.280248 -0.48141,-0.437367 -1.26066,-0.65605 -2.33773,-0.65605 h -0.92531 l -1.1164,7.886547 h -4.36217 z m 3.88958,3.266289 -0.75872,5.31819 h 2.15905 c 1.32187,0 2.34901,-0.26521 3.08142,-0.795637 0.73237,-0.539729 1.09704,-1.219038 1.09401,-2.037936 -0.003,-0.77237 -0.30865,-1.377243 -0.91735,-1.814608 -0.60874,-0.446675 -1.45165,-0.670009 -2.52872,-0.670009 z"
         style="font-style:italic;font-weight:bold;font-size:38.1124px;line-height:0;font-family:'Gill Sans MT';-inkscape-font-specification:'Gill Sans MT Bold Italic';text-align:center;letter-spacing:-3.32446px;word-spacing:0px;text-anchor:middle;fill:url(#linearGradient27);stroke-width:2.63915;paint-order:stroke markers fill"
         id="path1-4"
         inkscape:label="R"
         sodipodi:nodetypes="cscccccccccssccccccscccsc" />
      <path
         d="m 256.93443,-58.498764 -0.57465,3.347526 c -0.71774,-0.489885 -1.5497,-0.889047 -2.49586,-1.197487 -0.93665,-0.31752 -1.75816,-0.476276 -2.46453,-0.476276 -0.80184,0 -1.46929,0.199581 -2.00237,0.598743 -0.53311,0.390087 -0.79854,0.889047 -0.79629,1.496864 0.001,0.362872 0.15067,0.730284 0.44797,1.102229 0.3068,0.362872 1.25894,0.997906 2.85643,1.905094 1.60702,0.907189 2.68899,1.80077 3.2459,2.680742 0.55687,0.870899 0.83707,1.778081 0.84056,2.721559 0.006,1.678297 -0.59954,3.070832 -1.81728,4.177601 -1.21778,1.097696 -2.86235,1.646547 -4.93376,1.646547 -2.62506,0 -4.89438,-0.603284 -6.80798,-1.809844 l 0.63208,-3.306695 c 0.86126,0.580601 1.81757,1.052337 2.86893,1.415209 1.06088,0.353805 1.99224,0.53071 2.79408,0.53071 0.86865,0 1.56477,-0.190514 2.08836,-0.571534 0.52357,-0.390088 0.78419,-0.898115 0.78188,-1.524075 -0.002,-0.435453 -0.17507,-0.875439 -0.52036,-1.319958 -0.33575,-0.444521 -1.31198,-1.138513 -2.92869,-2.081992 -1.60716,-0.943481 -2.66518,-1.814379 -3.17405,-2.612703 -0.50889,-0.798323 -0.76491,-1.623863 -0.76807,-2.476619 -0.006,-1.63294 0.65709,-2.998256 1.98941,-4.095952 1.33232,-1.097695 3.00554,-1.646547 5.01967,-1.646547 2.01414,0 3.92034,0.498953 5.71862,1.496858 z"
         style="font-style:italic;font-weight:bold;font-size:38.1124px;line-height:0;font-family:'Gill Sans MT';-inkscape-font-specification:'Gill Sans MT Bold Italic';text-align:center;letter-spacing:-3.32446px;word-spacing:0px;text-anchor:middle;fill:url(#linearGradient29);stroke-width:2.57285;paint-order:stroke markers fill"
         id="path1-66"
         inkscape:label="S" />
    </g>
  </g>
</svg>
