<?xml version="1.0" encoding="UTF-8" standalone="no"?>
<svg
   version="1.2"
   width="934.5766"
   height="221.82332"
   xml:space="preserve"
   id="svg14"
   sodipodi:docname="gbc2players.svg"
   inkscape:version="1.4 (86a8ad7, 2024-10-11)"
   xmlns:inkscape="http://www.inkscape.org/namespaces/inkscape"
   xmlns:sodipodi="http://sodipodi.sourceforge.net/DTD/sodipodi-0.dtd"
   xmlns:xlink="http://www.w3.org/1999/xlink"
   xmlns="http://www.w3.org/2000/svg"
   xmlns:svg="http://www.w3.org/2000/svg"><defs
   id="defs14"><linearGradient
     id="f-0"
     gradientUnits="userSpaceOnUse"
     x1="538.59802"
     y1="-0.713"
     x2="538.59802"
     y2="98.787003"
     gradientTransform="translate(-9.5978415e-4,-6.4086473e-4)"><stop
       offset=".005"
       style="stop-color:#2e5c92"
       id="stop11-9" /><stop
       offset="1"
       style="stop-color:#2e3192"
       id="stop12-4" /></linearGradient><linearGradient
     id="g-8"
     gradientUnits="userSpaceOnUse"
     x1="539.14398"
     y1="-0.713"
     x2="539.14398"
     y2="98.787003"
     gradientTransform="translate(-9.5978415e-4,-6.4086473e-4)"><stop
       offset=".005"
       style="stop-color:#2e5c92"
       id="stop13-8" /><stop
       offset="1"
       style="stop-color:#2e3192"
       id="stop14-2" /></linearGradient><linearGradient
     id="a-4"
     gradientUnits="userSpaceOnUse"
     x1="527.771"
     y1="-0.713"
     x2="527.771"
     y2="98.787003"
     gradientTransform="translate(-9.5978415e-4,-6.4086473e-4)"><stop
       offset=".005"
       style="stop-color:#2e5c92"
       id="stop15" /><stop
       offset="1"
       style="stop-color:#2e3192"
       id="stop16" /></linearGradient><linearGradient
     id="d-5"
     gradientUnits="userSpaceOnUse"
     x1="458.99399"
     y1="-0.713"
     x2="458.99399"
     y2="98.787003"
     gradientTransform="translate(-9.5978415e-4,-6.4086473e-4)"><stop
       offset=".005"
       style="stop-color:#2e5c92"
       id="stop17" /><stop
       offset="1"
       style="stop-color:#2e3192"
       id="stop18" /></linearGradient><linearGradient
     id="linearGradient1"
     gradientUnits="userSpaceOnUse"
     x1="378.92099"
     y1="-0.713"
     x2="378.92099"
     y2="98.787003"><stop
       offset=".005"
       style="stop-color:#2e5c92"
       id="stop19" /><stop
       offset="1"
       style="stop-color:#2e3192"
       id="stop20" /></linearGradient><linearGradient
     id="b-5"
     gradientUnits="userSpaceOnUse"
     x1="290.73801"
     y1="-0.713"
     x2="290.73801"
     y2="98.787003"
     gradientTransform="translate(-9.5978415e-4,-6.4086473e-4)"><stop
       offset=".005"
       style="stop-color:#2e5c92"
       id="stop21" /><stop
       offset="1"
       style="stop-color:#2e3192"
       id="stop22" /></linearGradient><linearGradient
     id="c-1"
     gradientUnits="userSpaceOnUse"
     x1="127.571"
     y1="-0.713"
     x2="127.571"
     y2="98.787003"
     gradientTransform="matrix(0.99999769,0,0,0.99999769,-9.5978193e-4,-6.4086325e-4)"><stop
       offset=".005"
       style="stop-color:#2e5c92"
       id="stop23" /><stop
       offset="1"
       style="stop-color:#2e3192"
       id="stop24" /></linearGradient><linearGradient
     inkscape:collect="always"
     xlink:href="#linearGradient25"
     id="linearGradient26"
     x1="310.68436"
     y1="108.23209"
     x2="302.19907"
     y2="204.84819"
     gradientUnits="userSpaceOnUse" /><linearGradient
     id="linearGradient25"
     inkscape:collect="always"><stop
       style="stop-color:#2e5b92;stop-opacity:1;"
       offset="0"
       id="stop25" /><stop
       style="stop-color:#2e3392;stop-opacity:1;"
       offset="1"
       id="stop26" /></linearGradient><linearGradient
     id="linearGradient2"
     inkscape:collect="always"
     gradientTransform="scale(0.99875693,1.0012446)"
     x1="165.16399"
     y1="109.23618"
     x2="156.80493"
     y2="204.78059"
     gradientUnits="userSpaceOnUse"><stop
       style="stop-color:#2e5b92;stop-opacity:1;"
       offset="0"
       id="stop1-4" /><stop
       style="stop-color:#2e3392;stop-opacity:1;"
       offset="1"
       id="stop2-1" /></linearGradient><linearGradient
     id="linearGradient4"
     inkscape:collect="always"
     gradientTransform="scale(0.87560664,1.1420653)"
     x1="536.27808"
     y1="94.928276"
     x2="528.08148"
     y2="179.29826"
     gradientUnits="userSpaceOnUse"><stop
       style="stop-color:#2e5b92;stop-opacity:1;"
       offset="0"
       id="stop3-1" /><stop
       style="stop-color:#2e3392;stop-opacity:1;"
       offset="1"
       id="stop4-3" /></linearGradient><linearGradient
     inkscape:collect="always"
     xlink:href="#linearGradient2"
     id="linearGradient8"
     gradientUnits="userSpaceOnUse"
     x1="245.87636"
     y1="109.14754"
     x2="235.28394"
     y2="205.15523" /><linearGradient
     inkscape:collect="always"
     xlink:href="#linearGradient25"
     id="linearGradient9"
     gradientUnits="userSpaceOnUse"
     x1="325.94934"
     y1="108.84193"
     x2="313.52319"
     y2="203.3215" /><linearGradient
     inkscape:collect="always"
     xlink:href="#linearGradient2"
     id="linearGradient10"
     gradientUnits="userSpaceOnUse"
     x1="395.32556"
     y1="108.23068"
     x2="387.78937"
     y2="206.0721" /><linearGradient
     inkscape:collect="always"
     xlink:href="#linearGradient2"
     id="linearGradient3"
     gradientUnits="userSpaceOnUse"
     gradientTransform="scale(0.99875693,1.0012446)"
     x1="165.16399"
     y1="109.23618"
     x2="156.80493"
     y2="204.78059" /></defs><sodipodi:namedview
   id="namedview14"
   pagecolor="#ffffff"
   bordercolor="#000000"
   borderopacity="0.25"
   inkscape:showpageshadow="2"
   inkscape:pageopacity="0.0"
   inkscape:pagecheckerboard="true"
   inkscape:deskcolor="#d1d1d1"
   inkscape:zoom="1.6360074"
   inkscape:cx="465.46244"
   inkscape:cy="107.8846"
   inkscape:window-width="3840"
   inkscape:window-height="2066"
   inkscape:window-x="-11"
   inkscape:window-y="-11"
   inkscape:window-maximized="1"
   inkscape:current-layer="g4" />
    <linearGradient
   id="a"
   gradientUnits="userSpaceOnUse"
   x1="527.771"
   y1="-0.713"
   x2="527.771"
   y2="98.787003">
        <stop
   offset=".005"
   style="stop-color:#2e5c92"
   id="stop1" />
        <stop
   offset="1"
   style="stop-color:#2e3192"
   id="stop2" />
    </linearGradient>
    
    <linearGradient
   id="b"
   gradientUnits="userSpaceOnUse"
   x1="290.73801"
   y1="-0.713"
   x2="290.73801"
   y2="98.787003">
        <stop
   offset=".005"
   style="stop-color:#2e5c92"
   id="stop3" />
        <stop
   offset="1"
   style="stop-color:#2e3192"
   id="stop4" />
    </linearGradient>
    
    <linearGradient
   id="c"
   gradientUnits="userSpaceOnUse"
   x1="127.571"
   y1="-0.713"
   x2="127.571"
   y2="98.787003">
        <stop
   offset=".005"
   style="stop-color:#2e5c92"
   id="stop5" />
        <stop
   offset="1"
   style="stop-color:#2e3192"
   id="stop6" />
    </linearGradient>
    
    <linearGradient
   id="d"
   gradientUnits="userSpaceOnUse"
   x1="458.99399"
   y1="-0.713"
   x2="458.99399"
   y2="98.787003">
        <stop
   offset=".005"
   style="stop-color:#2e5c92"
   id="stop7" />
        <stop
   offset="1"
   style="stop-color:#2e3192"
   id="stop8" />
    </linearGradient>
    
    <linearGradient
   id="e"
   gradientUnits="userSpaceOnUse"
   x1="378.92099"
   y1="-0.713"
   x2="378.92099"
   y2="98.787003">
        <stop
   offset=".005"
   style="stop-color:#2e5c92"
   id="stop9" />
        <stop
   offset="1"
   style="stop-color:#2e3192"
   id="stop10" />
    </linearGradient>
    
    <linearGradient
   id="f"
   gradientUnits="userSpaceOnUse"
   x1="538.59802"
   y1="-0.713"
   x2="538.59802"
   y2="98.787003">
        <stop
   offset=".005"
   style="stop-color:#2e5c92"
   id="stop11" />
        <stop
   offset="1"
   style="stop-color:#2e3192"
   id="stop12" />
    </linearGradient>
    
    <linearGradient
   id="g"
   gradientUnits="userSpaceOnUse"
   x1="539.14398"
   y1="-0.713"
   x2="539.14398"
   y2="98.787003">
        <stop
   offset=".005"
   style="stop-color:#2e5c92"
   id="stop13" />
        <stop
   offset="1"
   style="stop-color:#2e3192"
   id="stop14" />
    </linearGradient>
    <text
   xml:space="preserve"
   style="font-style:italic;font-weight:bold;font-size:131.278px;line-height:0;font-family:'Gill Sans MT';-inkscape-font-specification:'Gill Sans MT Bold Italic';text-align:center;letter-spacing:0px;word-spacing:0px;writing-mode:lr-tb;direction:ltr;text-anchor:middle;display:none;fill:#94012c;fill-opacity:1;stroke-width:4.10243;paint-order:stroke markers fill"
   x="570.50439"
   y="211.57977"
   id="text1"
   inkscape:label="2 Players"><tspan
     sodipodi:role="line"
     id="tspan1"
     x="570.50439"
     y="211.57977"
     style="font-style:normal;font-variant:normal;font-weight:normal;font-stretch:normal;font-size:131.278px;font-family:'CC Rick Veitch';-inkscape-font-specification:'CC Rick Veitch';letter-spacing:0px;fill:#94012c;fill-opacity:1;stroke-width:4.10243">2 PLAYERS</tspan></text><g
   id="g1"
   inkscape:label="Gameboy"
   transform="translate(-9.5978415e-4,4.4628714)"><path
     fill="url(#c)"
     d="m 112.146,49.565 7.416,-19.874 2.375,19.874 z m -8.009,18.987 h 20.172 l 3.563,28.48 h 36.488 l 16.91,-52.213 8.309,52.213 h 19.283 l 21.359,-55.179 3.561,55.179 h 21.359 L 249.207,0.913 H 223.693 L 203.818,51.641 196.103,0.913 H 173.261 L 147.156,79.825 137.365,0.913 h -28.48 l -31.744,79.8 4.154,-31.149 H 42.729 l -2.672,18.987 h 16.912 l -1.188,6.526 c -2.967,1.778 -9.789,2.075 -12.459,2.075 -2.67,0 -22.545,-1.778 -21.656,-23.139 C 22.555,32.654 51.035,12.778 84.854,23.754 L 88.12,3.284 C 65.572,-4.427 6.354,-0.111 0.305,52.828 -3.254,83.976 25.226,98.81 44.211,98.516 55.188,99.11 67.649,94.955 72.098,92.581 l -1.482,4.451 h 22.547 z"
     id="path6"
     inkscape:label="GAM"
     style="fill:url(#c)" /><path
     fill="url(#b)"
     d="m 311.798,97.041 2.967,-21.37 h -33.814 l 2.076,-16.605 h 29.365 l 2.971,-21.36 h -29.072 l 2.078,-15.43 h 33.812 l 3.266,-21.359 h -56.068 l -13.35,96.124 z"
     id="path4"
     inkscape:label="E"
     style="fill:url(#b)" /><path
     fill="url(#e)"
     d="m 370.833,37.706 h 12.461 c 9.197,0 10.977,-5.934 11.271,-8.305 0.297,-2.375 -2.371,-7.122 -7.117,-7.122 h -14.537 z m -5.339,37.971 h 16.912 c 9.193,0 11.27,-7.118 11.564,-9.493 0.299,-2.373 -2.371,-7.117 -7.117,-7.117 H 367.869 Z M 340.576,97.038 353.926,0.92 h 40.938 c 9.793,0 24.031,11.274 22.252,26.403 -1.779,15.13 -6.527,16.02 -9.791,18.393 5.045,4.447 10.088,11.568 8.012,24.918 -2.078,13.353 -13.055,26.403 -32.338,26.403 z"
     id="path10"
     inkscape:label="B"
     style="fill:url(#e)" /><path
     fill="url(#d)"
     d="m 464.582,0.028 c -15.428,-0.594 -37.678,8.306 -45.094,44.204 -7.416,35.894 12.459,50.431 30.852,52.804 18.396,2.373 44.205,-9.196 48.951,-43.609 C 504.039,19.013 487.125,0.919 464.582,0.028 Z m -2.374,20.47 c 6.229,0 19.578,4.154 16.314,29.071 -3.264,24.92 -18.689,27.887 -24.326,27.292 -5.639,-0.594 -17.207,-4.447 -13.943,-27.292 3.262,-22.841 15.424,-29.368 21.955,-29.071 z"
     id="path8"
     inkscape:label="O"
     style="fill:url(#d)" /><path
     fill="url(#a)"
     d="m 488.615,0.917 h 24.029 l 11.869,27.298 17.799,-27.298 h 24.615 l -34.707,53.996 -5.635,42.128 h -22.248 l 6.526,-48.068 z"
     id="path2"
     inkscape:label="Y"
     style="fill:url(#a)" /><path
     fill="url(#f)"
     d="m 538.619,82.498 c -3.66,0 -6.615,2.951 -6.615,6.593 a 6.608,6.608 0 0 0 6.615,6.634 c 3.641,0 6.592,-2.953 6.592,-6.634 a 6.596,6.596 0 0 0 -6.592,-6.593 v -0.907 a 7.5,7.5 0 0 1 7.498,7.5 c 0,4.173 -3.35,7.538 -7.498,7.538 a 7.526,7.526 0 0 1 -7.539,-7.538 c 0,-4.135 3.365,-7.499 7.539,-7.499 z"
     id="path12"
     inkscape:label="Circle"
     style="fill:url(#f)" /><path
     fill="url(#g)"
     d="m 536.839,85.639 h 2.402 c 1.045,0 2.182,0.156 2.182,1.457 0,1.711 -1.828,1.516 -3.01,1.516 l -1.574,-0.002 v 0.809 h 1.893 l 2.4,3.878 h 1.219 l -2.539,-3.878 c 1.496,-0.038 2.656,-0.648 2.656,-2.302 0,-0.71 -0.313,-1.457 -0.943,-1.813 -0.629,-0.373 -1.34,-0.412 -2.049,-0.412 h -3.656 v 8.403 h 1.02 v -7.656 z"
     id="path14"
     inkscape:label="R"
     style="fill:url(#g)" /></g>
<g
   id="g2"
   transform="matrix(1.6428862,0,0,1.6428862,3.1755081,0.00217155)"
   inkscape:label="Color"><path
     fill="#94012c"
     d="m 387.3,50.872 c -3.229,-0.969 -6.938,-0.327 -6.938,-0.327 0,0 -10.485,1.011 -15.945,-0.146 -8.457,-1.48 -8.174,-10.592 -8.174,-10.592 0,0 -0.283,-6.039 4.813,-14.208 6.289,-10.088 13.23,-11.895 13.23,-11.895 0,0 1.733,-0.649 3.36,0.217 1.013,5.854 6.688,5.818 6.688,5.818 0,0 8.171,0.545 7.771,-9.359 -0.938,-8.138 -8.782,-9.257 -12.074,-10.018 -9.864,-1.771 -16.269,3.508 -16.269,3.508 0,0 -6.614,3.578 -14.531,16.051 -5.391,7.735 -6.04,13.811 -6.04,13.811 0,0 -0.649,1.446 -0.396,7.883 -0.145,5.023 1.737,8.676 1.737,8.676 0,0 2.854,8.645 11.891,12.187 5.497,2.276 13.525,2.241 13.525,2.241 0,0 7.771,-0.108 13.733,-0.435 3.255,0.252 4.812,-1.447 4.812,-1.447 0,0 3.648,-2.385 3.289,-6.543 0,0 -0.708,-4.295 -4.482,-5.422"
     id="path3-2"
     inkscape:label="C" /><path
     fill="#2d288b"
     d="m 437.047,26.359 c -1.192,-3.612 -4.341,-7.049 -4.341,-7.049 0,0 -4.731,-6.146 -14.024,-8.242 -7.956,-1.664 -14.208,1.845 -14.208,1.845 0,0 -5.677,2.275 -9.943,6.978 -6.796,6.542 -8.749,16.088 -8.749,16.088 0,0 -2.604,8.314 1.521,14.896 l 4.482,5.422 c 6.326,5.279 13.087,5.819 13.087,5.819 0,0 5.46,1.229 11.824,-0.434 5.563,-1.122 9.614,-3.869 9.614,-3.869 0,0 9.222,-5.097 11.749,-15.509 z M 422.69,43.676 c 0,0 -3.686,6.437 -11.782,5.675 -9.51,-0.975 -10.628,-9.325 -10.628,-9.325 0,0 -1.305,-6.146 4.553,-11.498 5.931,-4.987 12.113,-4.229 12.113,-4.229 0,0 4.154,0.397 6.292,7.268 2.744,8.747 -0.548,12.109 -0.548,12.109"
     id="path1-8"
     inkscape:label="O" /><path
     fill="#639d01"
     d="m 467.773,43.787 c -3.044,-0.672 -7.917,0.575 -7.917,0.575 0,0 -6.796,2.493 -7.845,2.458 -0.396,-0.577 -1.263,-11.677 -1.012,-16.123 0.146,-7.846 -0.509,-14.243 -0.509,-14.243 0,0 -0.323,-7.558 -4.373,-12.039 -4.771,-4.811 -8.101,-2.747 -10.016,-1.593 -4.591,4.122 -2.457,9.146 -2.457,9.146 l 2.389,6.762 c 0,0 1.155,2.894 1.012,7.628 l 1.012,15.944 c 0,2.133 1.737,16.484 1.737,16.484 0,0 0.176,4.665 4.661,5.496 4.593,0.759 9.109,-1.52 11.025,-2.423 1.917,-0.901 4.447,-1.697 4.447,-1.697 0,0 2.098,-0.471 4.194,-0.65 4.916,-0.472 6.688,-1.338 6.688,-1.338 0,0 1.901,-0.286 3.184,-2.099 1.278,-1.81 2.826,-10.302 -6.22,-12.288"
     id="path2-8"
     inkscape:label="L"
     sodipodi:nodetypes="ccccccccccccccccccc" /><path
     fill="#c8a601"
     d="m 518.642,24.443 c -6.325,-10.339 -17.46,-11.894 -17.46,-11.894 0,0 -3.543,-1.194 -11.133,-0.183 -14.246,2.713 -19.2,13.667 -19.2,13.667 0,0 -5.099,8.024 -3.074,17.75 l 6.224,12.292 c 4.59,4.302 6.469,4.302 6.757,4.558 6.076,2.747 13.125,1.156 13.125,1.156 0,0 8.895,-0.867 17.029,-7.194 6.506,-4.771 9.326,-11.786 9.326,-11.786 l 0.863,-9.41 z m -17.316,21.113 c -10.231,6.146 -16.668,-0.579 -16.668,-0.579 0,0 -2.855,-1.88 -3.47,-7.593 -0.438,-6.615 6.146,-10.05 6.146,-10.05 0,0 3.471,-2.134 7.81,-1.808 4.339,0.324 5.708,0.035 9.219,2.64 3.324,3.002 3.107,5.206 3.107,5.206 0,0 1.195,7.449 -6.144,12.184"
     id="path7-5"
     inkscape:label="O" /><path
     fill="#00766a"
     d="m 520.234,42.809 c 0,0 0.218,5.783 -0.688,7.194 -1.229,2.639 -1.047,5.206 -1.047,5.206 0,0 -0.835,7.809 8.209,9.107 6.214,-0.035 6.971,-5.206 7.081,-7.411 0.36,-1.732 0.217,-9.798 0.217,-9.798 l 8.063,6.581 c 0,0 5.856,4.917 9.295,7.772 3.581,2.818 4.479,3.325 4.479,3.325 0,0 0.763,0.901 3.506,0.577 2.211,0.038 4.234,-1.952 4.234,-1.952 0,0 2.563,-1.875 3.214,-5.167 0.795,-3.905 -2.24,-5.821 -2.24,-5.821 0,0 -11.205,-9.039 -18.798,-15.258 5.097,-2.783 7.556,-4.699 7.556,-4.699 0,0 7.088,-4.698 8.604,-11.896 2.099,-7.918 -3.867,-11.024 -3.867,-11.024 0,0 -3.726,-2.676 -6.87,-4.087 -7.92,-3.868 -15.293,-3.073 -15.293,-3.073 0,0 -10.483,-0.722 -17.316,7.703 -3.144,4.083 -1.19,9.436 -1.19,9.436 0,0 0.388,0.857 1.263,4.916 1.753,8.167 1.588,18.369 1.588,18.369 z m 13.738,-16.053 -0.688,-9.435 c 0,0 6.614,-0.146 9.363,0.324 5.426,0.831 5.134,2.352 5.134,2.352 0,0 -0.181,1.915 -4.303,3.796 -4.48,2.17 -9.506,2.963 -9.506,2.963"
     id="path8-1"
     inkscape:label="R"
     sodipodi:nodetypes="ccccccccccccccccccccccccccccc" /></g><g
   id="g22"
   inkscape:label="Gameboy"
   transform="translate(-279.59336,147.66507)" /><g
   id="g23"
   inkscape:label="GBHacks"
   transform="translate(433.98548,18.609992)"
   style="display:none;fill:url(#linearGradient26)"><path
     id="path1-8-9"
     style="font-style:italic;font-weight:bold;font-size:144.047px;line-height:0;font-family:'Gill Sans MT';-inkscape-font-specification:'Gill Sans MT Bold Italic';text-align:center;letter-spacing:-12.5649px;word-spacing:0px;text-anchor:middle;fill:url(#linearGradient3);fill-opacity:1;stroke-width:13.1042;paint-order:stroke markers fill"
     d="m 126.91229,107.23459 c -0.002,0.0163 -0.005,0.0325 -0.008,0.0488 -4.63434,32.73669 -9.27185,65.47202 -13.90429,98.20899 h 23.44726 c 1.83964,-13.01143 3.67398,-26.02345 5.51172,-39.03516 H 179.375 c -1.88398,13.0118 -3.7679,26.02343 -5.65235,39.03516 h 23.45116 c 4.61284,-32.75265 9.22704,-65.50512 13.83985,-98.25779 h -23.44727 c -1.76729,12.63789 -3.53393,25.2761 -5.30078,37.91406 h -37.27344 c 1.78866,-12.638 3.58028,-25.2758 5.36719,-37.91406 z"
     sodipodi:nodetypes="cccccccccccccc"
     inkscape:label="H" /><path
     d="m 233.17385,107.23438 -39.12112,98.258 h 23.0486 l 11.21881,-29.11422 h 20.62075 l 3.64177,29.11422 h 21.90055 l -12.19515,-98.258 z m 10.91334,29.4177 2.42784,20.31726 h -10.00888 z"
     style="display:inline;fill:url(#linearGradient8);stroke-width:6.13352;paint-order:stroke markers fill"
     id="path22"
     inkscape:label="A" /><path
     id="path1-82"
     style="font-style:italic;font-weight:bold;font-size:144.047px;line-height:0;font-family:'Gill Sans MT';-inkscape-font-specification:'Gill Sans MT Bold Italic';text-align:center;letter-spacing:-12.5649px;word-spacing:0px;text-anchor:middle;fill:url(#linearGradient9);fill-opacity:1;stroke-width:11.9763;paint-order:stroke markers fill"
     d="m 327.32031,107.25024 c -10.3702,0.16792 -20.85979,2.40714 -29.88802,7.53911 -7.79564,4.42361 -14.49526,10.7563 -19.15289,18.32305 -5.15569,8.34655 -7.42511,18.17532 -7.43102,27.87406 -0.0914,8.78707 1.80182,17.77465 6.5885,25.29669 5.07489,8.07113 13.12336,14.3619 22.40577,17.12188 8.62487,2.61481 17.8976,2.5687 26.71873,0.98802 6.91138,-1.26344 13.58016,-3.60943 19.8937,-6.61705 0.98717,-7.81895 1.96888,-15.63856 2.95703,-23.45738 -4.29245,2.63707 -8.60826,5.14792 -13.2316,7.15589 -6.65758,2.91884 -14.13958,5.04878 -21.59716,4.67483 -5.40798,-0.20445 -10.9022,-1.92654 -14.93943,-5.5597 -1.89174,-1.65215 -3.52769,-3.7734 -4.64978,-5.90351 -2.79222,-5.2423 -3.22024,-11.43319 -2.62904,-17.15969 0.36321,-3.44775 1.27785,-7.10617 2.72437,-10.41456 2.31856,-5.23179 5.82673,-10.01362 10.35975,-13.61541 4.00096,-3.13839 8.83762,-5.15416 13.84766,-6.12515 1.16606,-0.23374 2.69708,-0.45451 3.89257,-0.57805 9.16667,-0.86001 18.47605,0.47986 27.15806,3.42102 0.38278,-0.1284 0.24923,-1.09472 0.42808,-1.55352 1.02954,-5.91123 2.06191,-11.82199 3.08964,-17.73353 -8.63011,-2.3609 -17.56068,-3.86532 -26.54492,-3.677 z"
     inkscape:label="C" /><path
     id="path1-5"
     style="font-style:italic;font-weight:bold;font-size:144.047px;line-height:0;font-family:'Gill Sans MT';-inkscape-font-specification:'Gill Sans MT Bold Italic';text-align:center;letter-spacing:-12.5649px;word-spacing:0px;text-anchor:middle;fill:url(#linearGradient10);stroke-width:12.7683;paint-order:stroke markers fill"
     d="m 360.37416,108.09591 c -4.51166,32.46554 -9.02643,64.93062 -13.53616,97.39647 h 22.63758 c 2.28259,-16.50663 4.56686,-33.01301 6.8501,-49.51955 11.92639,16.50665 23.85412,33.01224 35.77967,49.51955 h 26.37468 c -12.88465,-17.89054 -25.76876,-35.78148 -38.6532,-53.67217 14.87681,-14.8619 29.75331,-29.72413 44.63031,-44.58583 -9.10204,-1e-5 -18.20409,0 -27.30614,0 -13.15963,13.10953 -26.32074,26.21744 -39.48094,39.32635 1.82043,-13.10884 3.64374,-26.21725 5.46235,-39.32635 -7.54585,-1e-5 -15.09171,0 -22.63758,0 -0.0403,0.28717 -0.0804,0.57435 -0.12067,0.86153 z"
     inkscape:label="K"
     sodipodi:nodetypes="ccccccccccccc" /><path
     id="text1-4"
     style="font-style:italic;font-weight:bold;font-size:144.047px;line-height:0;font-family:'Gill Sans MT';-inkscape-font-specification:'Gill Sans MT Bold Italic';text-align:center;letter-spacing:-12.5649px;word-spacing:0px;text-anchor:middle;fill:url(#linearGradient4);fill-opacity:1;stroke-width:12.8371;paint-order:stroke markers fill"
     inkscape:label="S"
     d="m 469.68933,107.24117 c -7.71732,0.095 -15.53743,1.96795 -21.90148,6.11674 -5.75166,3.68644 -10.48383,9.02251 -12.36518,15.36691 -1.62865,5.42089 -1.57644,11.38503 0.77022,16.6352 1.39954,3.26541 3.54621,6.2395 6.29045,8.65825 4.68685,4.26871 10.33384,7.42893 15.84946,10.65661 3.33759,2.03234 6.69538,4.06995 9.62333,6.64549 2.39467,2.24373 4.07623,5.45979 3.47454,8.67517 -0.45115,3.22334 -3.23943,5.73703 -6.4008,6.83521 -1.95453,0.72448 -4.17349,1.01765 -6.15894,1.06762 -5.65515,0.10943 -11.24619,-1.35941 -16.52982,-3.27897 -4.80254,-1.76939 -9.31858,-4.16833 -13.49304,-6.99827 -1.19517,6.14051 -2.39109,12.28089 -3.59072,18.42062 7.51869,4.77111 16.28384,7.71299 25.27306,8.82009 6.17934,0.72964 12.49723,0.9586 18.65228,-0.0364 6.79982,-1.07793 13.34153,-3.99004 18.10235,-8.68769 4.5461,-4.33534 7.45817,-10.09605 8.18642,-16.12558 0.66458,-4.7982 0.13098,-9.78688 -1.95222,-14.25396 -1.63256,-3.7011 -4.17504,-7.02784 -7.35306,-9.71832 -4.41469,-3.87272 -9.65549,-6.76604 -14.82018,-9.66295 -3.49098,-2.07069 -7.08067,-4.06611 -10.16288,-6.66123 -1.91198,-1.80084 -3.11437,-4.42084 -2.56659,-6.9662 0.50379,-3.19243 3.34604,-5.55691 6.38645,-6.78022 4.52402,-1.79411 9.64584,-1.24133 14.28826,-0.12177 5.53211,1.41673 10.95751,3.42195 15.7627,6.45938 0.75998,0.48229 1.50611,0.98347 2.26145,1.47209 1.09215,-6.23285 2.18343,-12.46585 3.27512,-18.69879 -6.49638,-3.58644 -13.66756,-6.16473 -21.14181,-7.21795 -3.2269,-0.46862 -6.49572,-0.66846 -9.75937,-0.62113 z" /></g><g
   id="g3"
   inkscape:label="Hacks"
   transform="matrix(0.96149214,0,0,0.96149214,52.591577,-4.015082)"
   style="display:none"><path
     id="path1"
     style="font-size:131.278px;line-height:0;font-family:'CC Rick Veitch';-inkscape-font-specification:'CC Rick Veitch';text-align:center;letter-spacing:0px;word-spacing:0px;text-anchor:middle;fill:#94012c;fill-opacity:1;stroke-width:4.32902;paint-order:stroke markers fill"
     d="m 612.78733,122.48914 c -2.51474,0.20084 -4.88391,1.89938 -5.77175,4.2829 -1.38078,3.48125 -1.91125,7.23711 -2.22973,10.9481 -0.60119,9.09633 0.10969,18.20384 0.24573,27.30229 0.0234,4.1388 0.0255,8.20674 -0.57482,12.29557 -5.69722,1.42806 -11.20939,3.56207 -16.97781,4.70832 -3.1645,0.42659 -6.49895,0.64972 -9.56997,-0.39877 -0.91585,-0.33152 -1.78735,-0.79264 -2.55564,-1.39324 -0.89855,-4.11942 -0.23333,-8.39171 0.31522,-12.4556 0.58625,-4.11791 1.74626,-8.09589 2.5704,-12.20339 1.17131,-5.50379 2.40975,-11.26134 1.07611,-16.85503 -0.84435,-4.04471 -4.28974,-7.46201 -8.41251,-8.05784 -2.53085,-0.45941 -5.41728,-0.27423 -7.39813,1.55131 -2.55815,2.14728 -3.25816,5.57964 -3.9894,8.67043 -1.29995,5.95004 -1.47985,12.08614 -2.88012,18.01704 -2.14973,10.5072 -3.32054,21.19364 -4.06743,31.88523 -0.54742,9.11745 -0.65646,18.31808 0.61637,27.38136 0.68618,3.3737 1.64886,6.87662 3.91519,9.55613 2.54155,2.78686 6.59389,3.77771 10.24426,3.3197 1.85365,-0.1919 3.46471,-1.39156 4.35201,-3.00595 1.84939,-3.14311 2.09824,-6.85329 2.66466,-10.3715 0.33358,-1.91066 0.77275,-3.8715 1.92288,-5.47603 4.38917,0.15027 8.63449,-1.19062 12.70696,-2.6814 4.29196,-1.42398 8.37644,-3.55858 12.87214,-4.30335 1.4312,1.57388 1.45363,3.85927 1.58356,5.86396 0.007,2.17552 -0.43354,4.35124 -0.0849,6.52376 0.38814,2.99153 1.3132,6.00275 3.09396,8.46811 1.50442,2.14019 4.35674,2.70117 6.80891,2.34488 3.50997,-0.43038 6.74387,-2.51726 8.57455,-5.54425 2.73489,-4.39444 3.18859,-9.71021 3.43035,-14.75663 0.36128,-6.41336 -0.16142,-12.8305 -0.40822,-19.23787 -0.40432,-7.74234 -0.15324,-15.54986 -0.0614,-23.3178 0.17548,-8.80549 0.34681,-17.62449 -0.14135,-26.4225 -0.23176,-3.45849 -0.57753,-6.95694 -1.6474,-10.26944 -0.82279,-2.25475 -2.55444,-4.17593 -4.8046,-5.06479 -1.6906,-0.78109 -3.5335,-1.38945 -5.41797,-1.30371 z"
     inkscape:label="H" /><path
     id="path1-6"
     style="font-size:131.278px;line-height:0;font-family:'CC Rick Veitch';-inkscape-font-specification:'CC Rick Veitch';text-align:center;letter-spacing:0px;word-spacing:0px;text-anchor:middle;fill:#2d288b;fill-opacity:1;stroke-width:3.75565;paint-order:stroke markers fill"
     d="m 662.66315,135.29325 c -2.02513,0.0329 -4.23704,0.769 -5.30526,2.61052 -4.6504,6.83791 -9.007,13.87368 -13.02698,21.10075 -4.11908,7.38792 -8.17328,14.81292 -12.02673,22.34345 -2.97461,6.00428 -5.96865,12.07177 -7.62712,18.59748 -0.68682,2.61809 -1.17048,5.29723 -2.18524,7.81904 -1.00614,2.96195 -2.40254,5.80858 -2.93186,8.91491 -0.58267,2.85829 -0.87078,6.01214 0.54726,8.68469 1.36231,2.96945 4.26473,4.84335 7.22264,5.97099 2.21901,0.84477 4.99167,1.1114 6.99554,-0.39238 2.21296,-1.7163 3.61132,-4.20322 5.00093,-6.57777 1.12544,-1.67905 2.49757,-3.35837 4.47748,-4.03618 3.58172,-1.51142 7.5141,-2.40346 11.349,-3.30797 3.19806,-0.73066 6.40609,-1.39013 9.64882,-2.04959 0.94205,4.02946 1.93597,8.1677 4.20185,11.68832 1.02761,1.73595 2.51558,3.3357 4.52907,3.86569 1.56879,0.53597 3.32271,0.43909 4.79912,-0.3276 2.82555,-1.11708 4.63395,-3.85984 5.4391,-6.69038 1.42655,-4.97966 0.95728,-10.23726 0.39981,-15.31194 -0.80783,-6.69703 -2.22665,-13.29999 -3.54642,-19.90963 -1.89936,-9.25017 -4.1664,-18.37554 -5.47766,-27.72416 -0.63509,-5.0086 -0.55276,-10.12634 -1.88121,-15.03042 -0.86296,-3.56884 -3.0564,-6.74793 -5.86387,-9.0738 -1.36609,-0.9679 -3.10076,-1.21946 -4.73827,-1.16402 z m -4.08385,37.53422 c 1.34578,6.65961 2.64391,13.36942 4.0159,20.04554 -3.41411,1.937 -7.23544,3.06769 -10.91618,4.24709 -2.01119,0.64788 -4.02458,1.22498 -6.0611,1.85365 1.97789,-5.27546 4.32225,-10.37002 6.80166,-15.44921 1.85147,-3.7013 3.76294,-7.39504 6.14006,-10.79184 l 0.0186,0.0896 z"
     inkscape:label="A"
     sodipodi:nodetypes="ccccccccccccccccccccccccsccccccs" /><path
     fill="#94012c"
     d="m 751.84772,205.74548 c -5.30488,-1.59196 -11.39835,-0.53723 -11.39835,-0.53723 0,0 -17.22566,1.66096 -26.19582,-0.23986 -13.89389,-2.43147 -13.42895,-17.40145 -13.42895,-17.40145 0,0 -0.46494,-9.92139 7.90721,-23.34213 10.33211,-16.57343 21.73538,-19.54213 21.73538,-19.54213 0,0 2.84713,-1.06623 5.5201,0.35651 1.66425,9.61745 10.98762,9.55831 10.98762,9.55831 0,0 13.42403,0.89537 12.76687,-15.37577 -1.54102,-13.36981 -14.42782,-15.2082 -19.8362,-16.45844 -16.20543,-2.90955 -26.72812,5.76325 -26.72812,5.76325 0,0 -10.86605,5.87825 -23.87278,26.36997 -8.8568,12.70772 -9.92303,22.6899 -9.92303,22.6899 0,0 -1.06624,2.37561 -0.65059,12.95087 -0.23821,8.25222 2.8537,14.25368 2.8537,14.25368 0,0 4.6888,14.20275 19.53556,20.02185 9.03094,3.73921 22.22003,3.68171 22.22003,3.68171 0,0 12.76687,-0.17743 22.56176,-0.71465 5.34759,0.414 7.90557,-2.37726 7.90557,-2.37726 0,0 5.99325,-3.91828 5.40345,-10.7494 0,0 -1.16316,-7.0562 -7.36341,-8.90773"
     id="path3-2-9"
     inkscape:label="C"
     style="fill:#639d01;fill-opacity:1;stroke-width:1.64289" /><path
     id="text2"
     style="font-size:131.278px;line-height:0;font-family:'CC Rick Veitch';-inkscape-font-specification:'CC Rick Veitch';text-align:center;letter-spacing:0px;word-spacing:0px;text-anchor:middle;fill:#c8a601;fill-opacity:1;stroke-width:3.69048;paint-order:stroke markers fill"
     inkscape:label="K"
     d="m 818.57806,142.91728 c -1.71732,0.0876 -3.33308,1.00987 -4.28905,2.43872 -5.5001,6.77808 -10.00328,14.28394 -15.24769,21.25127 -2.80609,3.71958 -5.70606,7.39617 -9.14035,10.56392 -2.96336,2.91758 -6.25698,5.5218 -9.93884,7.47568 -2.51969,1.37529 -5.13096,2.60583 -7.87604,3.4622 0.67732,-9.7803 0.60473,-19.66041 -0.23264,-29.39863 -0.21727,-2.0246 -0.0174,-4.05366 0.0376,-6.07871 -0.0557,-2.47794 -0.5469,-5.245 -2.56856,-6.90549 -1.83143,-1.53305 -4.51438,-2.2358 -6.75429,-1.19368 -2.28071,1.03528 -3.95018,3.06995 -5.18538,5.19054 -0.91753,1.794 -1.38177,3.7839 -1.77356,5.74678 -0.32698,2.77278 -0.25923,5.57749 -0.17643,8.36289 0.0992,3.7565 0.48371,7.50377 0.36803,11.26496 -0.13075,9.28704 -0.95659,18.56142 -1.52725,27.8492 -0.29272,5.9977 -0.59255,12.03213 0.022,18.01942 0.35471,2.55295 0.75167,5.12046 1.51016,7.58885 0.77499,2.28729 2.08137,4.66415 4.44169,5.60483 1.9166,0.90977 4.23153,1.01114 6.1372,0.0175 1.729,-0.89003 3.03324,-2.56549 3.42072,-4.47669 0.75053,-2.1751 1.59188,-4.45744 3.32089,-6.05476 1.83829,-1.41199 4.31061,-1.09686 6.46027,-0.85007 5.64848,0.63437 11.06785,2.46132 16.41271,4.31327 5.98093,2.24177 12.13367,4.40111 18.57083,4.70222 2.65414,0.21402 5.30671,-1.06681 6.87981,-3.19681 2.01078,-2.70206 2.88385,-6.0516 3.49123,-9.31305 0.29258,-1.39747 0.26266,-2.8723 -0.31368,-4.19634 -0.41574,-1.32776 -1.4153,-2.40044 -2.68555,-2.95351 -2.59056,-1.25143 -5.42377,-1.86744 -8.16669,-2.68863 -3.94176,-1.04385 -7.91169,-1.87273 -11.80321,-3.03692 -2.8181,-1.03095 -5.69895,-2.24464 -7.84782,-4.40707 -0.51815,-0.31042 -0.44475,-0.71342 -0.11034,-1.1283 3.24822,-5.86262 8.06288,-10.62112 12.72442,-15.35605 3.49019,-3.50715 6.96076,-7.05785 9.91855,-11.03664 3.5412,-4.68627 6.23472,-10.13453 7.0486,-15.99659 0.64013,-4.47012 0.33124,-9.07376 -0.81914,-13.43381 -0.61546,-1.77833 -2.60711,-2.33146 -4.30817,-2.15057 z" /><path
     id="path1-66"
     style="font-size:131.278px;line-height:0;font-family:'CC Rick Veitch';-inkscape-font-specification:'CC Rick Veitch';text-align:center;letter-spacing:0px;word-spacing:0px;text-anchor:middle;fill:#00766a;fill-opacity:1;stroke-width:3.88506;paint-order:stroke markers fill"
     d="m 877.02122,123.32597 c -5.16589,0.12035 -10.17934,1.66792 -14.94414,3.5651 -8.34474,3.43544 -15.76155,8.82458 -22.23945,15.0552 -6.53097,6.21909 -12.51519,13.21461 -16.4781,21.37441 -2.79179,5.8494 -4.51109,12.31721 -4.32815,18.82932 0.14182,3.69033 1.3107,7.60998 4.24319,10.044 2.33958,1.9326 5.54909,2.16954 8.45187,1.89275 3.53803,-0.28529 6.87317,-1.59559 10.30845,-2.39309 3.12534,-0.82932 6.34814,-1.68891 9.49521,-2.00563 4.65989,-0.59229 9.37076,-1.08233 14.00672,-1.44717 2.98605,-0.15973 6.00876,-0.11988 8.96149,0.37918 0.63417,0.15163 1.26231,0.36211 1.8256,0.69545 -5.17773,4.7228 -11.29635,8.3657 -17.79352,10.95911 -0.47877,0.16596 -1.10992,0.41898 -1.6216,0.58153 -3.87833,1.33328 -8.06696,2.10937 -12.07866,2.34275 -1.65858,0.0287 -3.35067,0.22878 -4.99021,-0.0766 -2.40695,-0.59133 -4.16589,-2.64124 -6.64406,-3.0511 -1.95759,-0.45697 -4.16128,0.10633 -5.47802,1.6746 -1.6776,1.92096 -2.34774,4.48517 -2.84144,6.92923 -0.71253,4.39443 0.48083,9.06636 3.24148,12.5658 1.63074,2.19585 3.91445,3.94527 6.58012,4.65774 6.13195,1.9297 12.75868,1.12379 18.81532,-0.68747 5.74287,-1.85654 11.25578,-4.34348 16.76238,-6.7958 7.0166,-3.20694 13.69193,-7.47966 18.8144,-13.31313 2.40116,-2.85809 4.2554,-6.13874 5.87608,-9.48851 2.18775,-4.87009 3.90318,-10.03637 4.35147,-15.38198 0.27328,-4.88561 -0.68252,-10.03305 -3.61442,-14.04515 -1.48396,-1.84849 -4.02387,-2.13696 -6.238,-2.07492 -3.42072,0.084 -6.8134,0.73369 -10.24327,0.59745 -5.245,0.0847 -10.43418,0.95293 -15.61919,1.66749 -3.46302,0.55998 -6.94254,1.13917 -10.46367,1.08891 -2.5216,0.009 -5.11299,-0.20983 -7.45629,-1.20198 2.38938,-3.53292 5.48478,-6.70152 8.80982,-9.2445 5.88871,-4.40675 12.47129,-7.65117 19.29745,-10.39959 0.85392,-0.31705 1.71519,-0.8374 2.6857,-0.63583 2.47241,0.15122 4.74996,1.42643 6.45571,3.1764 1.65944,1.43726 3.24956,2.98522 5.07568,4.20918 1.86844,1.09004 4.2669,0.504 5.82617,-0.86454 2.03745,-1.52734 3.05505,-4.03359 3.29914,-6.50764 0.58419,-3.76118 -0.36982,-7.5695 -1.87278,-11.00557 -1.49503,-3.66352 -3.56757,-7.38846 -7.04065,-9.50405 -2.04122,-1.22061 -4.45328,-1.55991 -6.76364,-1.9249 -1.46936,-0.19223 -2.95281,-0.26716 -4.43419,-0.23646 z"
     inkscape:label="S"
     sodipodi:nodetypes="scccccccccccccccccccccccccccccccccccccccccss" /></g><g
   id="g4"
   inkscape:label="2 Players"
   transform="translate(-227.20824,-110.02396)"><path
     style="font-size:131.278px;line-height:0;font-family:'CC Rick Veitch';-inkscape-font-specification:'CC Rick Veitch';text-align:center;letter-spacing:0px;word-spacing:0px;text-anchor:middle;fill:#94012c;stroke-width:4.10243;paint-order:stroke markers fill"
     d="m 510.36484,309.77952 c -0.64101,1.19655 -1.55978,2.28626 -2.75632,3.26913 -1.15381,0.94014 -2.56403,1.70935 -4.23064,2.30762 -1.66662,0.59827 -3.33324,1.11108 -4.99985,1.53842 -1.66661,0.42733 -3.58963,0.79057 -5.76905,1.08971 -2.17942,0.2564 -4.08107,0.4487 -5.70495,0.5769 -1.58115,0.1282 -3.46143,0.27777 -5.64085,0.44871 -2.17942,0.17093 -3.8033,0.29913 -4.87165,0.3846 -3.07683,0.29913 -7.4784,0.98287 -13.20472,2.05122 -5.68359,1.06834 -9.74329,1.73071 -12.17911,1.98712 -3.37597,0.2564 -6.34596,-0.19231 -8.90998,-1.34612 -2.52129,-1.15381 -4.31611,-3.14092 -5.38445,-5.96135 -0.55554,-1.53841 -0.85468,-3.03409 -0.89741,-4.48704 0,-1.45295 0.23504,-2.79906 0.70511,-4.03834 0.5128,-1.23928 1.17517,-2.41446 1.98711,-3.52553 0.81195,-1.15381 1.81619,-2.24352 3.01273,-3.26913 1.23928,-1.06835 2.47856,-2.05122 3.71784,-2.94863 1.28201,-0.94014 2.69222,-1.88028 4.23063,-2.82042 1.58115,-0.94015 3.0341,-1.79482 4.35884,-2.56403 1.32475,-0.76921 2.73496,-1.60251 4.23064,-2.49992 1.53841,-0.94014 2.82043,-1.77345 3.84604,-2.49992 7.17927,-5.12805 14.14486,-11.81588 20.89679,-20.06349 1.32475,-1.66661 2.49992,-3.26913 3.52553,-4.80754 1.06835,-1.58115 2.09396,-3.33323 3.07683,-5.25625 0.98287,-1.96575 1.34611,-3.65373 1.08971,-5.06394 -0.2564,-1.41021 -1.19654,-2.37172 -2.82043,-2.88453 -10.17063,-2.99136 -20.14895,-1.83755 -29.93497,3.46143 -6.41006,3.20503 -10.9612,2.49993 -13.65342,-2.11532 -4.05971,-6.96559 -3.58964,-12.47824 1.41021,-16.53795 1.28201,-1.15381 2.77769,-2.15805 4.48704,-3.01273 1.75208,-0.89741 3.84603,-1.66661 6.28186,-2.30762 2.47855,-0.68374 4.35884,-1.15381 5.64085,-1.41021 1.32475,-0.29913 3.44007,-0.72647 6.34596,-1.28201 4.0597,-0.81194 7.71343,-1.43158 10.9612,-1.85892 3.29049,-0.42734 6.83739,-0.68374 10.64069,-0.76921 3.84604,-0.1282 7.32884,0.23504 10.4484,1.08971 3.11956,0.81194 5.68358,2.11532 7.69207,3.91014 3.46143,2.99136 5.04258,8.01257 4.74344,15.06364 -0.2564,7.05106 -2.22215,13.52522 -5.89725,19.42247 -2.17942,3.50417 -4.99985,7.20064 -8.46128,11.08941 -3.4187,3.84603 -7.20063,7.863 -11.3458,12.05091 -4.10244,4.14517 -7.13654,7.37156 -9.10229,9.67918 1.32475,0.55554 3.1623,0.79058 5.51266,0.70511 2.39309,-0.0855 4.3802,-0.2564 5.96135,-0.5128 1.62388,-0.25641 3.71783,-0.59828 6.28186,-1.02561 2.60675,-0.42734 4.82891,-0.70511 6.66646,-0.83331 3.37596,-0.21367 5.96135,0.1923 7.75617,1.21791 1.83755,0.98287 2.84179,2.67086 3.01273,5.06395 0.17093,2.35035 -0.74784,5.44855 -2.75633,9.29458 z"
     id="text1-5"
     inkscape:label="2"
     aria-label="2 PLAYERS"
     sodipodi:nodetypes="ccssccscccccccccccscccccscccccccccccccccccccccccc" /><path
     id="path1-1"
     style="font-size:131.278px;line-height:0;font-family:'CC Rick Veitch';-inkscape-font-specification:'CC Rick Veitch';text-align:center;letter-spacing:0px;word-spacing:0px;text-anchor:middle;fill:#c8a601;fill-opacity:1;stroke-width:3.69349;paint-order:stroke markers fill"
     inkscape:label="P"
     d="m 566.16406,227.58008 c -3.66948,0.18563 -7.29492,0.85949 -10.90732,1.49791 -4.93086,0.97267 -9.68531,2.6499 -14.45193,4.21097 -2.90558,0.91791 -5.70951,2.12602 -8.61417,3.0404 -3.0405,0.95114 -6.42411,1.33405 -8.98361,3.38744 -1.9442,1.52761 -2.37602,4.17154 -2.40929,6.49725 0.0783,2.38907 0.39695,4.70945 0.42134,7.03922 0.26456,9.05289 0.97024,18.1155 0.44637,27.17181 -0.29763,4.06035 -0.84121,8.09852 -1.14281,12.15888 -0.2993,3.38939 -0.27916,6.79649 -0.30776,10.19603 0.068,1.97948 0.3202,3.88189 0.57186,5.84196 0.68869,4.2546 2.46057,8.39954 5.32507,11.64466 2.03805,2.35845 5.34569,3.53452 8.41163,3.02245 2.16445,-0.49009 3.40215,-2.56994 4.09337,-4.51449 1.45168,-3.83589 1.49643,-8.02308 1.19083,-12.06119 -0.0213,-1.69459 -0.005,-3.50296 0.89353,-5.00244 11.10173,-4.05092 21.81337,-9.35172 31.33254,-16.39792 2.72816,-1.87851 5.48191,-3.72793 8.0073,-5.87877 1.65917,-1.42846 3.15294,-3.05411 4.52465,-4.75656 1.74218,-2.44904 2.93767,-5.27053 3.5291,-8.21609 1.46587,-6.30104 2.65565,-12.76473 2.23027,-19.26177 -0.22518,-3.8643 -0.73827,-7.99641 -3.17979,-11.15378 -2.93104,-3.67014 -7.0755,-6.44741 -11.70755,-7.39391 -3.03214,-0.70523 -6.15504,-1.1514 -9.27363,-1.07206 z m 2.50391,23.39258 c 1.09454,0.0534 2.31466,0.0238 3.25,0.66796 0.6322,0.78681 0.40473,1.92045 0.33554,2.85569 -0.28134,1.86109 -0.92289,3.69285 -2.15431,5.14546 -1.13974,1.53567 -2.31033,3.06068 -3.80003,4.27914 -2.8456,2.56999 -5.76997,5.07396 -8.91224,7.27589 -5.36657,3.54315 -11.38403,6.08722 -17.62326,7.62156 -1.04594,-3.56791 -0.89416,-7.33788 -0.84515,-11.01561 0.14398,-2.74604 0.21701,-5.50011 0.0248,-8.24611 4.92855,-2.32958 9.94254,-4.49071 15.08805,-6.29529 3.29255,-1.16218 6.77446,-1.57665 10.23421,-1.87268 1.46128,-0.18753 2.92832,-0.37498 4.40235,-0.41601 z" /><path
     fill="#639d01"
     d="m 640.84687,285.57111 c -5.00094,-1.10402 -13.00673,0.94466 -13.00673,0.94466 0,0 -11.16505,4.09572 -12.88844,4.03822 -0.65058,-0.94795 -2.07497,-19.18398 -1.6626,-26.48826 0.23986,-12.89008 -0.83623,-23.39963 -0.83623,-23.39963 0,0 -0.53065,-12.41693 -7.18434,-19.7787 -7.83821,-7.90393 -13.30902,-4.51301 -16.45515,-2.61712 -7.54249,6.77198 -4.03657,15.02584 -4.03657,15.02584 l 3.92485,11.10919 c 0,0 1.89754,4.75452 1.66261,12.53194 l 1.6626,26.19418 c 0,3.50427 2.85369,27.08133 2.85369,27.08133 0,0 0.28915,7.66407 7.65749,9.02931 7.54578,1.24695 14.96505,-2.49719 18.11282,-3.98072 3.14941,-1.48024 7.30592,-2.78798 7.30592,-2.78798 0,0 3.44677,-0.77379 6.89026,-1.06787 8.07643,-0.77544 10.98762,-2.19818 10.98762,-2.19818 0,0 3.12313,-0.46987 5.23095,-3.44842 2.09961,-2.97362 4.6428,-16.92501 -10.21875,-20.18779"
     id="path2-8-0"
     inkscape:label="L"
     sodipodi:nodetypes="ccccccccccccccccccc"
     style="stroke-width:1.64289" /><path
     d="m 681.96574,223.67556 c -1.94715,0.0316 -4.07388,0.73939 -5.10097,2.50999 -4.47132,6.5746 -8.66016,13.33944 -12.52533,20.28821 -3.96047,7.10342 -7.85855,14.2425 -11.56361,21.48305 -2.86006,5.77307 -5.73881,11.60691 -7.33342,17.88133 -0.66037,2.51727 -1.1254,5.09324 -2.10109,7.51795 -0.96739,2.84789 -2.31002,5.5849 -2.81896,8.57161 -0.56023,2.74822 -0.83725,5.78063 0.52619,8.35026 1.30985,2.85511 4.1005,4.65685 6.94451,5.74106 2.13356,0.81224 4.79945,1.0686 6.72616,-0.37727 2.12774,-1.65021 3.47225,-4.04136 4.80835,-6.32447 1.0821,-1.6144 2.4014,-3.22905 4.30506,-3.88076 3.4438,-1.45322 7.22475,-2.31091 10.91198,-3.18058 3.07491,-0.70253 6.1594,-1.3366 9.27726,-1.97067 0.90578,3.87429 1.86142,7.85318 4.04005,11.23823 0.98804,1.6691 2.41871,3.20725 4.35466,3.71683 1.50838,0.51533 3.19476,0.42218 4.61432,-0.31499 2.71674,-1.07406 4.45551,-3.7112 5.22965,-6.43274 1.37162,-4.78791 0.92042,-9.84305 0.38442,-14.72231 -0.77673,-6.43915 -2.14091,-12.78784 -3.40986,-19.14296 -1.82622,-8.89396 -4.00596,-17.66793 -5.26673,-26.65656 -0.61063,-4.81573 -0.53147,-9.73639 -1.80877,-14.45163 -0.82972,-3.43141 -2.9387,-6.48808 -5.63806,-8.72439 -1.31349,-0.93062 -2.98136,-1.1725 -4.55581,-1.11919 z m -3.92659,36.08886 c 1.29396,6.40316 2.5421,12.85459 3.86126,19.27362 -3.28264,1.86241 -6.95682,2.94956 -10.49582,4.08355 -1.93375,0.62293 -3.86961,1.17781 -5.8277,1.78227 1.90172,-5.07232 4.1558,-9.97069 6.53974,-14.8543 1.78017,-3.55877 3.61804,-7.11027 5.90362,-10.37627 l 0.0179,0.0862 z"
     style="font-size:131.278px;line-height:0;font-family:'CC Rick Veitch';-inkscape-font-specification:'CC Rick Veitch';text-align:center;letter-spacing:0px;word-spacing:0px;text-anchor:middle;fill:#2d288b;fill-opacity:1;stroke-width:3.61103;paint-order:stroke markers fill"
     id="path1-13"
     inkscape:label="A" /><path
     id="path1-860"
     style="font-size:131.278px;line-height:0;font-family:'CC Rick Veitch';-inkscape-font-specification:'CC Rick Veitch';text-align:center;letter-spacing:0px;word-spacing:0px;text-anchor:middle;fill:#94012c;stroke-width:4.10243;paint-order:stroke markers fill"
     inkscape:label="y"
     d="m 752.25586,221.26953 c -2.33057,0.10081 -4.64482,1.51026 -5.47842,3.74738 -3.78122,8.26976 -6.28852,17.03564 -9.47514,25.53624 -1.90037,5.04648 -3.8039,10.10757 -6.1773,14.95466 -1.11827,2.13676 -2.38361,4.45828 -4.25391,6.12305 -2.59704,-3.28568 -4.92321,-6.77692 -7.42355,-10.13494 -1.49934,-2.05702 -2.66877,-4.37456 -3.75417,-6.59088 -3.13143,-6.46746 -5.36184,-13.37173 -9.08266,-19.5489 -1.10963,-1.80145 -2.04132,-3.7138 -3.26891,-5.44012 -1.04567,-1.43327 -2.23513,-2.87689 -3.94336,-3.5293 -1.64685,-0.84454 -3.51541,-0.0534 -4.95475,0.85201 -2.94196,1.67959 -5.00645,4.71538 -5.55807,8.05027 -0.83279,4.86893 0.46946,9.796 2.10094,14.36013 1.70831,4.58379 3.96958,8.93429 6.06894,13.34592 2.23606,4.62449 4.99111,8.97313 7.59419,13.39503 4.19019,6.98947 8.65042,13.69858 12.19406,21.06109 0.30925,0.65009 0.69443,1.30575 0.44429,2.0409 -0.51033,3.72518 -2.49939,6.98964 -3.85439,10.43823 -1.35975,2.90575 -1.56953,6.21627 -1.01784,9.34631 0.5198,3.26002 1.79012,6.65351 4.5758,8.63758 2.02344,1.60801 4.84458,1.75574 7.22502,0.94524 3.5865,-1.04231 6.1764,-4.09563 7.7111,-7.37505 1.39744,-3.13354 2.18376,-6.49904 2.93886,-9.83354 1.11532,-5.01109 1.97432,-10.05244 3.30717,-14.94399 0.74962,-2.78948 1.96952,-5.61096 3.13143,-8.23263 2.93442,-6.47622 6.21528,-12.78783 9.41745,-19.13289 2.38708,-5.0403 4.54093,-10.20858 6.17232,-15.54563 1.26015,-4.23349 2.02207,-8.59808 2.69488,-12.95781 0.42417,-3.45805 0.26976,-6.98016 -0.24414,-10.41992 -0.42918,-2.22414 -0.89907,-4.49928 -1.95703,-6.51953 -1.02712,-1.79802 -3.11135,-2.71639 -5.13281,-2.62891 z" /><path
     d="m 812.09377,305.92389 c 0.55496,4.28113 -0.2973,7.31359 -2.55678,9.0974 -1.34777,1.03063 -2.87391,1.98199 -4.57843,2.85407 -1.70453,0.83245 -3.78563,1.66489 -6.24331,2.49733 -2.41805,0.83245 -4.32077,1.44687 -5.70818,1.84327 -1.3874,0.43604 -3.62706,1.09009 -6.71898,1.96218 -4.59825,1.26849 -9.0974,2.21985 -13.49745,2.85409 -4.40005,0.63423 -7.69017,0.81261 -9.87037,0.53514 -1.54597,-0.15856 -3.09194,-1.14957 -4.6379,-2.97301 -1.50632,-1.78381 -2.69552,-3.82527 -3.5676,-6.12439 -3.29012,-8.44333 -4.99465,-19.60201 -5.11357,-33.47604 0,-15.61819 1.34777,-28.3823 4.04329,-38.29231 0.1982,-0.71353 0.47568,-1.90273 0.83243,-3.5676 0.39641,-1.70453 0.71353,-2.9532 0.95137,-3.74599 0.27748,-0.83245 0.69371,-1.70453 1.24867,-2.61624 0.59459,-0.91173 1.28829,-1.52615 2.0811,-1.84327 1.62524,-0.51532 2.95318,-0.75316 3.98383,-0.71352 1.03063,0.0396 2.33875,0.15855 3.92436,0.35676 1.62525,0.15856 2.89373,0.19821 3.80545,0.11892 1.46668,-0.11892 2.91354,-0.25767 4.34058,-0.41622 1.42705,-0.15856 2.91356,-0.35676 4.45951,-0.5946 1.58561,-0.23785 2.91355,-0.43605 3.98383,-0.5946 1.10992,-0.1982 2.53696,-0.45587 4.28113,-0.77299 1.74417,-0.35675 3.01265,-0.61441 3.80545,-0.77298 0.79279,-0.15856 2.1802,-0.45585 4.1622,-0.89189 2.02165,-0.43604 3.32977,-0.71353 3.92437,-0.83245 0.47568,-0.0793 1.22884,-0.23783 2.25948,-0.47568 1.03064,-0.27748 1.84326,-0.47568 2.43786,-0.5946 0.59461,-0.11893 1.32795,-0.17839 2.20004,-0.17839 0.87208,0 1.66487,0.11892 2.3784,0.35677 1.22884,0.43604 2.12074,1.74416 2.6757,3.92437 0.5946,2.14056 0.77298,4.41987 0.53514,6.8379 -0.1982,2.37841 -0.71351,4.12257 -1.54596,5.2325 -1.50633,2.10093 -4.26131,3.72617 -8.26496,4.87572 -2.1802,0.63424 -5.21266,1.16939 -9.0974,1.60543 -3.84508,0.3964 -7.41268,0.91173 -10.70281,1.54597 -3.25049,0.63423 -5.94601,1.60541 -8.08657,2.91353 -3.44869,1.98201 -4.95502,7.29378 -4.51898,15.93532 4.04329,-0.11892 9.61272,-0.87208 16.7083,-2.25949 7.09556,-1.42704 11.83255,-2.29912 14.21096,-2.61625 3.72617,-0.43604 6.42169,-0.0199 8.08658,1.24867 1.66487,1.26848 2.51714,3.78562 2.55678,7.55143 0,1.34777 -0.0199,2.35859 -0.0595,3.03247 -0.0396,0.63424 -0.1982,1.40722 -0.47568,2.31894 -0.27748,0.91173 -0.71352,1.62525 -1.30812,2.14056 -0.55496,0.47569 -1.36759,0.97119 -2.43787,1.48651 -1.07028,0.47569 -2.41804,0.8919 -4.04329,1.24866 -0.31712,0.0793 -1.40721,0.27749 -3.2703,0.59461 -1.82344,0.31712 -3.01265,0.53513 -3.56761,0.65405 -0.51531,0.0793 -1.62524,0.2973 -3.32976,0.65407 -1.70453,0.31712 -2.91354,0.55495 -3.62707,0.71352 -0.67387,0.15856 -1.7838,0.41622 -3.32977,0.77297 -1.50632,0.35677 -2.65588,0.65407 -3.44868,0.89191 -0.7928,0.23784 -1.82344,0.55497 -3.09193,0.95136 -1.26848,0.3964 -2.31894,0.77298 -3.15138,1.12974 -0.83244,0.35677 -1.72435,0.77298 -2.67571,1.24867 -0.91171,0.43604 -1.74416,0.89189 -2.49732,1.36758 -0.67388,1.30812 -0.93154,2.83426 -0.77298,4.57842 0.1982,1.74417 0.73334,3.34959 1.60542,4.81627 1.07028,0.19821 2.2793,0.2973 3.62707,0.2973 1.34776,0 2.7748,-0.0793 4.28112,-0.23784 1.50632,-0.1982 2.99283,-0.41621 4.45952,-0.65405 1.46668,-0.23785 3.05227,-0.53515 4.7568,-0.8919 1.70452,-0.35677 3.25049,-0.69371 4.63789,-1.01083 1.3874,-0.31712 2.91355,-0.67388 4.57842,-1.07028 1.70453,-0.3964 3.11175,-0.71352 4.22168,-0.95136 1.94236,-0.47569 3.5676,-0.67389 4.87572,-0.59461 1.34777,0.0396 2.41805,0.59461 3.21085,1.66489 0.7928,1.03064 1.34776,2.71535 1.66488,5.05411 z"
     style="font-size:131.278px;line-height:0;font-family:'CC Rick Veitch';-inkscape-font-specification:'CC Rick Veitch';text-align:center;letter-spacing:0px;word-spacing:0px;text-anchor:middle;fill:#639d01;fill-opacity:1;stroke-width:3.80544;paint-order:stroke markers fill"
     id="path1-0"
     inkscape:label="E" /><path
     d="m 813.9122,291.93528 c 0,0 0.35815,9.50081 -1.13031,11.81892 -2.01911,4.33558 -1.7201,8.55286 -1.7201,8.55286 0,0 -1.37181,12.8293 13.48645,14.96177 10.2089,-0.0575 11.45256,-8.55287 11.63328,-12.17543 0.59144,-2.84548 0.35651,-16.097 0.35651,-16.097 l 13.24659,10.81183 c 0,0 9.62074,8.07808 15.27062,12.76852 5.88318,4.62965 7.35849,5.46259 7.35849,5.46259 0,0 1.25352,1.48024 5.75996,0.94795 3.63242,0.0624 6.95598,-3.20692 6.95598,-3.20692 0,0 4.21072,-3.08041 5.28024,-8.48879 1.30609,-6.41547 -3.68007,-9.56324 -3.68007,-9.56324 0,0 -18.40854,-14.85005 -30.88297,-25.06716 8.37379,-4.57215 12.41365,-7.71992 12.41365,-7.71992 0,0 11.64477,-7.71828 14.13539,-19.54377 3.44842,-13.00838 -6.35304,-18.11118 -6.35304,-18.11118 0,0 -6.1214,-4.39636 -11.28663,-6.71448 -13.01166,-6.35468 -25.12466,-5.04859 -25.12466,-5.04859 0,0 -17.22238,-1.18616 -28.44822,12.65516 -5.16523,6.7079 -1.95503,15.50227 -1.95503,15.50227 0,0 0.63744,1.40795 2.07496,8.07643 2.87998,13.41745 2.60891,30.17818 2.60891,30.17818 z m 22.56997,-26.37326 -1.13031,-15.50063 c 0,0 10.86605,-0.23986 15.38235,0.5323 8.9143,1.36524 8.43457,3.86407 8.43457,3.86407 0,0 -0.29736,3.14612 -7.06934,6.23639 -7.36013,3.56506 -15.61727,4.86787 -15.61727,4.86787"
     style="fill:#c8a601;fill-opacity:1;stroke-width:1.64289"
     id="path1-9"
     inkscape:label="R" /><path
     d="m 931.69657,224.2444 c -4.96696,0.11572 -9.78735,1.60369 -14.36867,3.42782 -8.0234,3.30315 -15.15461,8.48476 -21.38306,14.47545 -6.27948,5.97961 -12.03326,12.70575 -15.84356,20.55133 -2.68429,5.62415 -4.33738,11.8429 -4.16148,18.10424 0.13635,3.54823 1.26022,7.31694 4.07979,9.65723 2.24949,1.85818 5.33541,2.086 8.12641,1.81986 3.40178,-0.2743 6.60849,-1.53414 9.91149,-2.30093 3.00499,-0.79739 6.10369,-1.62388 9.12957,-1.9284 4.48045,-0.56948 9.00991,-1.04065 13.46735,-1.39144 2.87106,-0.15358 5.77738,-0.11527 8.6164,0.36458 0.60975,0.14579 1.2137,0.34816 1.7553,0.66867 -4.97834,4.54093 -10.86135,8.04355 -17.10833,10.53709 -0.46033,0.15957 -1.06718,0.40285 -1.55915,0.55914 -3.72899,1.28194 -7.75632,2.02814 -11.61354,2.25254 -1.59471,0.0276 -3.22164,0.21997 -4.79805,-0.0737 -2.31426,-0.56856 -4.00547,-2.53954 -6.38821,-2.93361 -1.88221,-0.43938 -4.00104,0.10223 -5.26707,1.61011 -1.613,1.84699 -2.25734,4.31246 -2.73202,6.6624 -0.6851,4.22521 0.46231,8.71724 3.11665,12.08192 1.56795,2.11129 3.76372,3.79335 6.32674,4.47838 5.89582,1.85539 12.26737,1.08052 18.09078,-0.661 5.52172,-1.78505 10.82234,-4.17622 16.1169,-6.5341 6.7464,-3.08345 13.1647,-7.19164 18.08985,-12.80047 2.3087,-2.74804 4.0915,-5.90235 5.6498,-9.12313 2.1035,-4.68256 3.7528,-9.64989 4.1839,-14.78966 0.2627,-4.69747 -0.6562,-9.64669 -3.4752,-13.5043 -1.4269,-1.77731 -3.869,-2.05467 -5.9978,-1.99502 -3.28895,0.0808 -6.55105,0.70544 -9.84883,0.57445 -5.04299,0.0814 -10.03235,0.91623 -15.01769,1.60328 -3.32967,0.53841 -6.6752,1.0953 -10.06074,1.04697 -2.4245,0.009 -4.9161,-0.20175 -7.16916,-1.15569 2.29737,-3.39687 5.27357,-6.44346 8.47057,-8.88851 5.66195,-4.23706 11.99105,-7.35654 18.55434,-9.99913 0.82104,-0.30484 1.64915,-0.80515 2.58228,-0.61134 2.37724,0.14539 4.56703,1.3715 6.20718,3.05408 1.5955,1.38191 3.1243,2.87027 4.88005,4.04709 1.7966,1.04807 4.1026,0.4846 5.6019,-0.83124 1.959,-1.46853 2.9374,-3.87827 3.1721,-6.25705 0.5616,-3.61634 -0.3556,-7.27801 -1.8007,-10.58177 -1.4375,-3.52244 -3.4302,-7.10394 -6.7695,-9.13807 -1.96255,-1.1736 -4.28185,-1.49984 -6.50314,-1.85077 -1.41282,-0.18483 -2.8391,-0.25688 -4.26345,-0.22736 z"
     style="font-size:131.278px;line-height:0;font-family:'CC Rick Veitch';-inkscape-font-specification:'CC Rick Veitch';text-align:center;letter-spacing:0px;word-spacing:0px;text-anchor:middle;fill:#00766a;fill-opacity:1;stroke-width:3.73545;paint-order:stroke markers fill"
     id="path1-4"
     inkscape:label="S" /></g></svg>
