<?xml version="1.0" encoding="UTF-8" standalone="no"?>
<!-- Created with Inkscape (http://www.inkscape.org/) -->

<svg
   width="498.35452mm"
   height="302.97238mm"
   viewBox="0 0 498.35452 302.97238"
   version="1.1"
   id="svg1"
   inkscape:version="1.4 (86a8ad7, 2024-10-11)"
   xml:space="preserve"
   sodipodi:docname="hec2hr.svg"
   xmlns:inkscape="http://www.inkscape.org/namespaces/inkscape"
   xmlns:sodipodi="http://sodipodi.sourceforge.net/DTD/sodipodi-0.dtd"
   xmlns="http://www.w3.org/2000/svg"
   xmlns:svg="http://www.w3.org/2000/svg"><sodipodi:namedview
     id="namedview1"
     pagecolor="#ffffff"
     bordercolor="#000000"
     borderopacity="0.25"
     inkscape:showpageshadow="2"
     inkscape:pageopacity="0.0"
     inkscape:pagecheckerboard="true"
     inkscape:deskcolor="#d1d1d1"
     inkscape:document-units="mm"
     inkscape:zoom="0.82359354"
     inkscape:cx="902.14403"
     inkscape:cy="648.98517"
     inkscape:window-width="3840"
     inkscape:window-height="2066"
     inkscape:window-x="-11"
     inkscape:window-y="-11"
     inkscape:window-maximized="1"
     inkscape:current-layer="svg1" /><defs
     id="defs1"><marker
       id="DistanceX"
       orient="auto"
       refX="0"
       refY="0"
       style="overflow:visible"><path
         d="M 3,-3 -3,3 M 0,-5 V 5"
         style="stroke:#000000;stroke-width:0.5"
         id="path1" /></marker><pattern
       id="Hatch"
       patternUnits="userSpaceOnUse"
       width="8"
       height="8"
       x="0"
       y="0"><path
         d="M8 4 l-4,4"
         stroke="#000000"
         stroke-width="0.25"
         linecap="square"
         id="path2" /><path
         d="M6 2 l-4,4"
         stroke="#000000"
         stroke-width="0.25"
         linecap="square"
         id="path3" /><path
         d="M4 0 l-4,4"
         stroke="#000000"
         stroke-width="0.25"
         linecap="square"
         id="path4" /></pattern><symbol
       id="*Model_Space" /><symbol
       id="*Paper_Space" /><symbol
       id="*Paper_Space0" /><marker
       id="DistanceX-8"
       orient="auto"
       refX="0"
       refY="0"
       style="overflow:visible"><path
         d="M 3,-3 -3,3 M 0,-5 V 5"
         style="stroke:#000000;stroke-width:0.5"
         id="path1-8" /></marker><pattern
       id="Hatch-2"
       patternUnits="userSpaceOnUse"
       width="8"
       height="8"
       x="0"
       y="0"><path
         d="M8 4 l-4,4"
         stroke="#000000"
         stroke-width="0.25"
         linecap="square"
         id="path2-4" /><path
         d="M6 2 l-4,4"
         stroke="#000000"
         stroke-width="0.25"
         linecap="square"
         id="path3-5" /><path
         d="M4 0 l-4,4"
         stroke="#000000"
         stroke-width="0.25"
         linecap="square"
         id="path4-5" /></pattern><symbol
       id="*Model_Space-1" /><symbol
       id="*Paper_Space-7" /><symbol
       id="*Paper_Space0-1" /></defs><path
     id="path262"
     style="display:inline;fill:#000000;fill-opacity:1;stroke:none;stroke-width:0.944827;stroke-linecap:round"
     d="m 34.368525,71.250438 c -1.37729,1.030565 -2.52455,2.337005 -3.368573,3.835899 l -4.6e-5,44.886023 H 0 V 10.972394 h 30.999906 l 4.6e-5,33.500035 c 7.560844,-3.231734 15.741318,-4.756236 23.958662,-4.464919 12.855361,0.455741 23.041384,11.009271 23.041365,23.872684 l -2e-5,56.092166 h -32.00003 l 3.5e-5,-40.042788 C 46,77.013475 44.907321,74.203178 42.937451,72.052948 40.71167,69.623375 37.00672,69.276394 34.368525,71.250438 Z"
     inkscape:label="h"
     sodipodi:nodetypes="cccccccccccccc" /><path
     id="path12"
     style="display:inline;fill:#000000;fill-opacity:1;stroke:none;stroke-width:0.944827;stroke-linecap:round"
     d="m 112.46388,72.136281 c -4.60836,4.069004 -4.45408,11.303945 0.32352,15.172771 l 13.21571,-16.320047 c -4.27238,-2.644503 -9.7727,-2.178427 -13.53923,1.147276 z m 9.73416,21.82542 c 2.54795,0.561535 5.2118,0.223405 7.5387,-0.956925 3.85209,-1.953986 7.2685,-4.667945 10.04317,-7.978254 l 11.83852,24.711468 c -12.23308,12.88217 -31.18821,16.79649 -47.52282,9.81372 C 87.761055,112.56897 77.494161,96.162742 78.352753,78.418499 79.211345,60.674257 91.014264,45.335919 107.94668,39.962868 c 16.93247,-5.373068 35.42113,0.353048 46.3533,14.356098 z"
     inkscape:label="e"
     sodipodi:nodetypes="ccccccccssscc" /><path
     id="path45"
     style="fill:#000000;fill-opacity:1;stroke:none;stroke-width:0.944827;stroke-linecap:round"
     d="m 312.30001,80.472403 c 0,-6.903567 -5.59644,-12.499999 -12.5,-12.499999 -6.90357,0 -12.50001,5.596432 -12.50001,12.499999 0,6.903567 5.59644,12.499999 12.50001,12.499999 6.90356,0 12.5,-5.596432 12.5,-12.499999 z m 26.49894,39.499957 5.2e-4,-22.610552 C 329.9096,117.89092 306.62659,128.01322 285.55005,120.5122 264.47352,113.01118 252.82047,90.455338 258.89874,68.92529 l -15.8988,-4.5e-5 3e-5,21.115136 c 3e-5,4.038914 3.6131,7.119473 7.60115,6.48089 2.15017,-0.344296 4.2689,-0.862281 6.33543,-1.548862 l -3.86493,21.918581 c -7.83756,5.92638 -18.07736,7.64696 -27.42147,4.60756 -6.25864,-2.03578 -11.50066,-6.38996 -14.6502,-12.16882 l -4e-5,-40.404485 -21.67072,4.5e-5 c -4.74375,4.4e-5 -9.1942,2.295682 -11.94408,6.161051 -2.05919,2.894503 -2.52017,6.632148 -1.22597,9.940239 3.51328,8.980254 15.44145,10.768806 21.43407,3.213839 l 14.43545,27.149331 c -21.35317,14.81673 -50.88596,7.16743 -62.36153,-16.15219 -11.47557,-23.319626 0.48152,-51.386063 25.2487,-59.265147 l 36.08408,8e-6 V 13.972399 h 32.00003 v 26.000022 h 20.00012 l -3e-5,19.239449 c 8.0327,-13.903892 23.2159,-22.093422 39.24676,-21.168966 16.03086,0.924456 30.17201,10.805041 36.55268,25.540146 l -5.2e-4,-23.610629 h 31.5013 l -1.2e-4,6.500001 C 378.31969,41.191925 387.34,37.617837 396.80045,35.972428 V 68.92529 c -4.19368,-0.364856 -8.41806,0.06948 -12.4493,1.279988 -8.34029,2.504444 -14.05114,10.182082 -14.05102,18.890246 l 1.2e-4,30.876836 z"
     inkscape:label="ctor"
     sodipodi:nodetypes="sssssccsccccccccccccccscccccccscccccccccc" /><path
     id="path110"
     style="fill:#e43434;fill-opacity:1;stroke:none;stroke-width:0.944827;stroke-linecap:round"
     d="m 83,297.97239 a 5.0000005,5.0000005 0 0 0 -10.000001,0 5.0000005,5.0000005 0 0 0 10.000001,0 z m 0,-15.65 a 5.0000005,5.0000005 0 0 0 -10.000001,0 5.0000005,5.0000005 0 0 0 10.000001,0 z m 15.649998,0 a 5,5 0 0 0 -9.999999,0 5,5 0 0 0 9.999999,0 z m 0,15.65 a 5,5 0 0 0 -9.999999,0 5,5 0 0 0 9.999999,0 z m 15.650002,0 a 5.0000005,5.0000005 0 0 0 -10,0 5.0000005,5.0000005 0 0 0 10,0 z m 0,-15.65 a 5.0000005,5.0000005 0 0 0 -10,0 5.0000005,5.0000005 0 0 0 10,0 z m 15.65,0 a 5.0000005,5.0000005 0 0 0 -10,0 5.0000005,5.0000005 0 0 0 10,0 z m 0,15.65 a 5.0000005,5.0000005 0 0 0 -10,0 5.0000005,5.0000005 0 0 0 10,0 z m 15.65,0 a 5,5 0 0 0 -10,0 5,5 0 0 0 10,0 z m 0,-15.65 a 5,5 0 0 0 -10,0 5,5 0 0 0 10,0 z m 15.65,0 a 5.0000005,5.0000005 0 0 0 -10,0 5.0000005,5.0000005 0 0 0 10,0 z m 0,15.65 a 5.0000005,5.0000005 0 0 0 -10,0 5.0000005,5.0000005 0 0 0 10,0 z m 15.65,0 a 5.0000005,5.0000005 0 0 0 -10,0 5.0000005,5.0000005 0 0 0 10,0 z m 0,-15.65 a 5.0000005,5.0000005 0 0 0 -10,0 5.0000005,5.0000005 0 0 0 10,0 z m 0,-15.64999 a 5.0000005,5.0000005 0 0 0 -10,0 5.0000005,5.0000005 0 0 0 10,0 z m -15.65,0 a 5.0000005,5.0000005 0 0 0 -10,0 5.0000005,5.0000005 0 0 0 10,0 z m -15.65,0 a 5,5 0 0 0 -10,0 5,5 0 0 0 10,0 z m -15.65,0 a 5.0000005,5.0000005 0 0 0 -10,0 5.0000005,5.0000005 0 0 0 10,0 z m -15.65,0 a 5.0000005,5.0000005 0 0 0 -10,0 5.0000005,5.0000005 0 0 0 10,0 z m -15.650002,0 a 5,5 0 0 0 -9.999999,0 5,5 0 0 0 9.999999,0 z M 83,266.6724 a 5.0000005,5.0000005 0 0 0 -10.000001,0 5.0000005,5.0000005 0 0 0 10.000001,0 z m 31.3,-15.65 a 5.0000005,5.0000005 0 0 0 -10,0 5.0000005,5.0000005 0 0 0 10,0 z m -15.650002,0 a 5,5 0 0 0 -9.999999,0 5,5 0 0 0 9.999999,0 z M 83,251.0224 a 5.0000005,5.0000005 0 0 0 -10.000001,0 5.0000005,5.0000005 0 0 0 10.000001,0 z m 78.25,-15.65 a 5.0000005,5.0000005 0 0 0 -10,0 5.0000005,5.0000005 0 0 0 10,0 z m -15.65,0 a 5,5 0 0 0 -10,0 5,5 0 0 0 10,0 z m -15.65,0 a 5.0000005,5.0000005 0 0 0 -10,0 5.0000005,5.0000005 0 0 0 10,0 z m -15.65,0 a 5.0000005,5.0000005 0 0 0 -10,0 5.0000005,5.0000005 0 0 0 10,0 z m -15.650002,0 a 5,5 0 0 0 -9.999999,0 5,5 0 0 0 9.999999,0 z M 83,235.3724 a 5.0000005,5.0000005 0 0 0 -10.000001,0 5.0000005,5.0000005 0 0 0 10.000001,0 z m 15.649998,-15.65 a 5,5 0 0 0 -9.999999,0 5,5 0 0 0 9.999999,0 z m 15.650002,0 a 5.0000005,5.0000005 0 0 0 -10,0 5.0000005,5.0000005 0 0 0 10,0 z m 15.65,0 a 5.0000005,5.0000005 0 0 0 -10,0 5.0000005,5.0000005 0 0 0 10,0 z m 15.65,0 a 5,5 0 0 0 -10,0 5,5 0 0 0 10,0 z m 15.65,0 a 5.0000005,5.0000005 0 0 0 -10,0 5.0000005,5.0000005 0 0 0 10,0 z m 15.65,0 a 5.0000005,5.0000005 0 0 0 -10,0 5.0000005,5.0000005 0 0 0 10,0 z m 0,-15.65 a 5.0000005,5.0000005 0 0 0 -10,0 5.0000005,5.0000005 0 0 0 10,0 z m -15.65,0 a 5.0000005,5.0000005 0 0 0 -10,0 5.0000005,5.0000005 0 0 0 10,0 z m -15.65,0 a 5,5 0 0 0 -10,0 5,5 0 0 0 10,0 z m -15.65,0 a 5.0000005,5.0000005 0 0 0 -10,0 5.0000005,5.0000005 0 0 0 10,0 z M 83,188.4224 a 5.0000005,5.0000005 0 0 0 -10.000001,0 5.0000005,5.0000005 0 0 0 10.000001,0 z m 15.649998,0 a 5,5 0 0 0 -9.999999,0 5,5 0 0 0 9.999999,0 z m 15.650002,0 a 5.0000005,5.0000005 0 0 0 -10,0 5.0000005,5.0000005 0 0 0 10,0 z m 31.3,0 a 5,5 0 0 0 -10,0 5,5 0 0 0 10,0 z m 15.65,0 a 5.0000005,5.0000005 0 0 0 -10,0 5.0000005,5.0000005 0 0 0 10,0 z m 15.65,0 a 5.0000005,5.0000005 0 0 0 -10,0 5.0000005,5.0000005 0 0 0 10,0 z m 0,-15.65 a 5.0000005,5.0000005 0 0 0 -10,0 5.0000005,5.0000005 0 0 0 10,0 z m -15.65,0 a 5.0000005,5.0000005 0 0 0 -10,0 5.0000005,5.0000005 0 0 0 10,0 z m -15.65,0 a 5,5 0 0 0 -10,0 5,5 0 0 0 10,0 z m -15.65,0 a 5.0000005,5.0000005 0 0 0 -10,0 5.0000005,5.0000005 0 0 0 10,0 z m -15.65,0 a 5.0000005,5.0000005 0 0 0 -10,0 5.0000005,5.0000005 0 0 0 10,0 z m -15.650002,0 a 5,5 0 0 0 -9.999999,0 5,5 0 0 0 9.999999,0 z M 83,172.7724 a 5.0000005,5.0000005 0 0 0 -10.000001,0 5.0000005,5.0000005 0 0 0 10.000001,0 z m 0,-15.65 a 5.0000005,5.0000005 0 0 0 -10.000001,0 5.0000005,5.0000005 0 0 0 10.000001,0 z m 15.649998,0 a 5,5 0 0 0 -9.999999,0 5,5 0 0 0 9.999999,0 z m 15.650002,0 a 5.0000005,5.0000005 0 0 0 -10,0 5.0000005,5.0000005 0 0 0 10,0 z m 15.65,0 a 5.0000005,5.0000005 0 0 0 -10,0 5.0000005,5.0000005 0 0 0 10,0 z m 15.65,0 a 5,5 0 0 0 -10,0 5,5 0 0 0 10,0 z m 15.65,0 a 5.0000005,5.0000005 0 0 0 -10,0 5.0000005,5.0000005 0 0 0 10,0 z m 15.65,0 a 5.0000005,5.0000005 0 0 0 -10,0 5.0000005,5.0000005 0 0 0 10,0 z m -15.65,-15.65 a 5.0000005,5.0000005 0 0 0 -10,0 5.0000005,5.0000005 0 0 0 10,0 z m -15.65,0 a 5,5 0 0 0 -10,0 5,5 0 0 0 10,0 z m -15.65,0 a 5.0000005,5.0000005 0 0 0 -10,0 5.0000005,5.0000005 0 0 0 10,0 z m -15.65,0 a 5.0000005,5.0000005 0 0 0 -10,0 5.0000005,5.0000005 0 0 0 10,0 z m -15.650002,0 a 5,5 0 0 0 -9.999999,0 5,5 0 0 0 9.999999,0 z"
     inkscape:label="2" /><path
     id="path179"
     style="fill:#000000;fill-opacity:1;stroke:none;stroke-width:0.944827;stroke-linecap:round"
     d="m 286.25001,266.6724 a 5.000005,5.000005 0 0 0 -10.00001,0 5.000005,5.000005 0 0 0 10.00001,0 z m 0,15.64999 a 5.000005,5.000005 0 0 0 -10.00001,0 5.000005,5.000005 0 0 0 10.00001,0 z m 0,15.65 a 5.000005,5.000005 0 0 0 -10.00001,0 5.000005,5.000005 0 0 0 10.00001,0 z m 15.64999,0 a 5.0000032,5.0000032 0 0 0 -10,0 5.0000032,5.0000032 0 0 0 10,0 z m 0,-15.65 a 5.0000032,5.0000032 0 0 0 -10,0 5.0000032,5.0000032 0 0 0 10,0 z m 0,-15.64999 a 5.0000032,5.0000032 0 0 0 -10,0 5.0000032,5.0000032 0 0 0 10,0 z m 0,-15.65 a 5.0000032,5.0000032 0 0 0 -10,0 5.0000032,5.0000032 0 0 0 10,0 z m -15.64999,0 a 5.000005,5.000005 0 0 0 -10.00001,0 5.000005,5.000005 0 0 0 10.00001,0 z m -15.65,0 a 5.0000058,5.0000058 0 0 0 -10.00001,0 5.0000058,5.0000058 0 0 0 10.00001,0 z m 0,15.65 a 5.0000058,5.0000058 0 0 0 -10.00001,0 5.0000058,5.0000058 0 0 0 10.00001,0 z m 0,15.64999 a 5.0000058,5.0000058 0 0 0 -10.00001,0 5.0000058,5.0000058 0 0 0 10.00001,0 z m 0,15.65 a 5.0000058,5.0000058 0 0 0 -10.00001,0 5.0000058,5.0000058 0 0 0 10.00001,0 z m 15.65,-156.49999 a 5.000005,5.000005 0 0 0 -10.00001,0 5.000005,5.000005 0 0 0 10.00001,0 z m 15.64999,0 a 5.0000032,5.0000032 0 0 0 -10,0 5.0000032,5.0000032 0 0 0 10,0 z m 0,15.65 a 5.0000032,5.0000032 0 0 0 -10,0 5.0000032,5.0000032 0 0 0 10,0 z m -15.64999,0 a 5.000005,5.000005 0 0 0 -10.00001,0 5.000005,5.000005 0 0 0 10.00001,0 z m 0,15.65 a 5.000005,5.000005 0 0 0 -10.00001,0 5.000005,5.000005 0 0 0 10.00001,0 z m 15.64999,0 a 5.0000032,5.0000032 0 0 0 -10,0 5.0000032,5.0000032 0 0 0 10,0 z m 0,15.65 a 5.0000032,5.0000032 0 0 0 -10,0 5.0000032,5.0000032 0 0 0 10,0 z m -15.64999,0 a 5.000005,5.000005 0 0 0 -10.00001,0 5.000005,5.000005 0 0 0 10.00001,0 z m 0,15.65 a 5.000005,5.000005 0 0 0 -10.00001,0 5.000005,5.000005 0 0 0 10.00001,0 z m 15.64999,0 a 5.0000032,5.0000032 0 0 0 -10,0 5.0000032,5.0000032 0 0 0 10,0 z m 0,31.3 a 5.0000032,5.0000032 0 0 0 -10,0 5.0000032,5.0000032 0 0 0 10,0 z m 0,-15.65 a 5.0000032,5.0000032 0 0 0 -10,0 5.0000032,5.0000032 0 0 0 10,0 z m -15.64999,0 a 5.000005,5.000005 0 0 0 -10.00001,0 5.000005,5.000005 0 0 0 10.00001,0 z m 0,15.65 a 5.000005,5.000005 0 0 0 -10.00001,0 5.000005,5.000005 0 0 0 10.00001,0 z m -15.65,-15.65 a 5.0000058,5.0000058 0 0 0 -10.00001,0 5.0000058,5.0000058 0 0 0 10.00001,0 z m 0,15.65 a 5.0000058,5.0000058 0 0 0 -10.00001,0 5.0000058,5.0000058 0 0 0 10.00001,0 z m -15.65001,0 a 5,5 0 0 0 -10,0 5,5 0 0 0 10,0 z m 0,-15.65 a 5,5 0 0 0 -10,0 5,5 0 0 0 10,0 z m 0,-15.65 a 5,5 0 0 0 -10,0 5,5 0 0 0 10,0 z m 15.65001,0 a 5.0000058,5.0000058 0 0 0 -10.00001,0 5.0000058,5.0000058 0 0 0 10.00001,0 z m 0,-15.65 a 5.0000058,5.0000058 0 0 0 -10.00001,0 5.0000058,5.0000058 0 0 0 10.00001,0 z m 0,-15.65 a 5.0000058,5.0000058 0 0 0 -10.00001,0 5.0000058,5.0000058 0 0 0 10.00001,0 z m 0,-15.65 a 5.0000058,5.0000058 0 0 0 -10.00001,0 5.0000058,5.0000058 0 0 0 10.00001,0 z m 0,-15.65 a 5.0000058,5.0000058 0 0 0 -10.00001,0 5.0000058,5.0000058 0 0 0 10.00001,0 z m -62.60001,0 a 5,5 0 0 0 -10,0 5,5 0 0 0 10,0 z m 15.65,0 a 5.0000005,5.0000005 0 0 0 -10,0 5.0000005,5.0000005 0 0 0 10,0 z m 15.65,0 a 5.0000005,5.0000005 0 0 0 -10,0 5.0000005,5.0000005 0 0 0 10,0 z m 0,15.65 a 5.0000005,5.0000005 0 0 0 -10,0 5.0000005,5.0000005 0 0 0 10,0 z m -15.65,0 a 5.0000005,5.0000005 0 0 0 -10,0 5.0000005,5.0000005 0 0 0 10,0 z m -15.65,0 a 5,5 0 0 0 -10,0 5,5 0 0 0 10,0 z m 0,15.65 a 5,5 0 0 0 -10,0 5,5 0 0 0 10,0 z m 15.65,0 a 5.0000005,5.0000005 0 0 0 -10,0 5.0000005,5.0000005 0 0 0 10,0 z m 15.65,0 a 5.0000005,5.0000005 0 0 0 -10,0 5.0000005,5.0000005 0 0 0 10,0 z m 0,15.65 a 5.0000005,5.0000005 0 0 0 -10,0 5.0000005,5.0000005 0 0 0 10,0 z m -15.65,0 a 5.0000005,5.0000005 0 0 0 -10,0 5.0000005,5.0000005 0 0 0 10,0 z m -15.65,0 a 5,5 0 0 0 -10,0 5,5 0 0 0 10,0 z m 15.65,31.3 a 5.0000005,5.0000005 0 0 0 -10,0 5.0000005,5.0000005 0 0 0 10,0 z m -15.65,0 a 5,5 0 0 0 -10,0 5,5 0 0 0 10,0 z m 0,-15.65 a 5,5 0 0 0 -10,0 5,5 0 0 0 10,0 z m 15.65,0 a 5.0000005,5.0000005 0 0 0 -10,0 5.0000005,5.0000005 0 0 0 10,0 z m 15.65,0 a 5.0000005,5.0000005 0 0 0 -10,0 5.0000005,5.0000005 0 0 0 10,0 z m 0,15.65 a 5.0000005,5.0000005 0 0 0 -10,0 5.0000005,5.0000005 0 0 0 10,0 z m 0,15.65 a 5.0000005,5.0000005 0 0 0 -10,0 5.0000005,5.0000005 0 0 0 10,0 z m -15.65,0 a 5.0000005,5.0000005 0 0 0 -10,0 5.0000005,5.0000005 0 0 0 10,0 z m -15.65,0 a 5,5 0 0 0 -10,0 5,5 0 0 0 10,0 z m 0,15.65 a 5,5 0 0 0 -10,0 5,5 0 0 0 10,0 z m 15.65,0 a 5.0000005,5.0000005 0 0 0 -10,0 5.0000005,5.0000005 0 0 0 10,0 z m 15.65,0 a 5.0000005,5.0000005 0 0 0 -10,0 5.0000005,5.0000005 0 0 0 10,0 z m 0,15.65 a 5.0000005,5.0000005 0 0 0 -10,0 5.0000005,5.0000005 0 0 0 10,0 z m -15.65,0 a 5.0000005,5.0000005 0 0 0 -10,0 5.0000005,5.0000005 0 0 0 10,0 z m -15.65,0 a 5,5 0 0 0 -10,0 5,5 0 0 0 10,0 z m 0,15.64999 a 5,5 0 0 0 -10,0 5,5 0 0 0 10,0 z m 15.65,0 a 5.0000005,5.0000005 0 0 0 -10,0 5.0000005,5.0000005 0 0 0 10,0 z m 15.65,0 a 5.0000005,5.0000005 0 0 0 -10,0 5.0000005,5.0000005 0 0 0 10,0 z m 0,15.65 a 5.0000005,5.0000005 0 0 0 -10,0 5.0000005,5.0000005 0 0 0 10,0 z m -15.65,0 a 5.0000005,5.0000005 0 0 0 -10,0 5.0000005,5.0000005 0 0 0 10,0 z m -15.65,0 a 5,5 0 0 0 -10,0 5,5 0 0 0 10,0 z"
     inkscape:label="H" /><path
     id="path249"
     style="fill:#000000;fill-opacity:1;stroke:none;stroke-width:0.944827;stroke-linecap:round"
     d="m 379.95,204.0724 a 5.000005,5.000005 0 0 0 -10.00001,0 5.000005,5.000005 0 0 0 10.00001,0 z m 15.64999,0 a 5.0000032,5.0000032 0 0 0 -10,0 5.0000032,5.0000032 0 0 0 10,0 z m 0,-15.65 a 5.0000032,5.0000032 0 0 0 -10,0 5.0000032,5.0000032 0 0 0 10,0 z m 15.65,15.65 a 5.0000032,5.0000032 0 0 0 -10,0 5.0000032,5.0000032 0 0 0 10,0 z m 15.65,0 a 5.000005,5.000005 0 0 0 -10.00001,0 5.000005,5.000005 0 0 0 10.00001,0 z m 0,-15.65 a 5.000005,5.000005 0 0 0 -10.00001,0 5.000005,5.000005 0 0 0 10.00001,0 z m -15.65,0 a 5.0000032,5.0000032 0 0 0 -10,0 5.0000032,5.0000032 0 0 0 10,0 z m 0,-15.65 a 5.0000032,5.0000032 0 0 0 -10,0 5.0000032,5.0000032 0 0 0 10,0 z m 15.65,0 a 5.000005,5.000005 0 0 0 -10.00001,0 5.000005,5.000005 0 0 0 10.00001,0 z m 0,-15.65 a 5.000005,5.000005 0 0 0 -10.00001,0 5.000005,5.000005 0 0 0 10.00001,0 z m -15.65,0 a 5.0000032,5.0000032 0 0 0 -10,0 5.0000032,5.0000032 0 0 0 10,0 z m 0,-15.65 a 5.0000032,5.0000032 0 0 0 -10,0 5.0000032,5.0000032 0 0 0 10,0 z m -15.65,0 a 5.0000032,5.0000032 0 0 0 -10,0 5.0000032,5.0000032 0 0 0 10,0 z m 0,15.65 a 5.0000032,5.0000032 0 0 0 -10,0 5.0000032,5.0000032 0 0 0 10,0 z m 0,15.65 a 5.0000032,5.0000032 0 0 0 -10,0 5.0000032,5.0000032 0 0 0 10,0 z m -15.64999,0 a 5.000005,5.000005 0 0 0 -10.00001,0 5.000005,5.000005 0 0 0 10.00001,0 z m 0,-15.65 a 5.000005,5.000005 0 0 0 -10.00001,0 5.000005,5.000005 0 0 0 10.00001,0 z m 0,-15.65 a 5.000005,5.000005 0 0 0 -10.00001,0 5.000005,5.000005 0 0 0 10.00001,0 z m -15.65,0 a 5.000005,5.000005 0 0 0 -10.00001,0 5.000005,5.000005 0 0 0 10.00001,0 z m 0,15.65 a 5.000005,5.000005 0 0 0 -10.00001,0 5.000005,5.000005 0 0 0 10.00001,0 z m 0,15.65 a 5.000005,5.000005 0 0 0 -10.00001,0 5.000005,5.000005 0 0 0 10.00001,0 z m 0,15.65 a 5.000005,5.000005 0 0 0 -10.00001,0 5.000005,5.000005 0 0 0 10.00001,0 z m 0,15.65 a 5.000005,5.000005 0 0 0 -10.00001,0 5.000005,5.000005 0 0 0 10.00001,0 z m -15.65,0 a 5.000005,5.000005 0 0 0 -10.00001,0 5.000005,5.000005 0 0 0 10.00001,0 z m 0,-15.65 a 5.000005,5.000005 0 0 0 -10.00001,0 5.000005,5.000005 0 0 0 10.00001,0 z m 0,-15.65 a 5.000005,5.000005 0 0 0 -10.00001,0 5.000005,5.000005 0 0 0 10.00001,0 z m 0,-15.65 a 5.000005,5.000005 0 0 0 -10.00001,0 5.000005,5.000005 0 0 0 10.00001,0 z m 0,-15.65 a 5.000005,5.000005 0 0 0 -10.00001,0 5.000005,5.000005 0 0 0 10.00001,0 z m -15.65,0 a 5.0000032,5.0000032 0 0 0 -10,0 5.0000032,5.0000032 0 0 0 10,0 z m 0,15.65 a 5.0000032,5.0000032 0 0 0 -10,0 5.0000032,5.0000032 0 0 0 10,0 z m 0,15.65 a 5.0000032,5.0000032 0 0 0 -10,0 5.0000032,5.0000032 0 0 0 10,0 z m 0,15.65 a 5.0000032,5.0000032 0 0 0 -10,0 5.0000032,5.0000032 0 0 0 10,0 z m 0,15.65 a 5.0000032,5.0000032 0 0 0 -10,0 5.0000032,5.0000032 0 0 0 10,0 z m 93.89999,15.65 a 5.000005,5.000005 0 0 0 -10.00001,0 5.000005,5.000005 0 0 0 10.00001,0 z m -15.65,0 a 5.0000032,5.0000032 0 0 0 -10,0 5.0000032,5.0000032 0 0 0 10,0 z m -15.65,0 a 5.0000032,5.0000032 0 0 0 -10,0 5.0000032,5.0000032 0 0 0 10,0 z m -15.64999,0 a 5.000005,5.000005 0 0 0 -10.00001,0 5.000005,5.000005 0 0 0 10.00001,0 z m -15.65,0 a 5.000005,5.000005 0 0 0 -10.00001,0 5.000005,5.000005 0 0 0 10.00001,0 z m -15.65,0 a 5.000005,5.000005 0 0 0 -10.00001,0 5.000005,5.000005 0 0 0 10.00001,0 z m -15.65,0 a 5.0000032,5.0000032 0 0 0 -10,0 5.0000032,5.0000032 0 0 0 10,0 z m 78.24999,15.65 a 5.0000032,5.0000032 0 0 0 -10,0 5.0000032,5.0000032 0 0 0 10,0 z m -15.65,0 a 5.0000032,5.0000032 0 0 0 -10,0 5.0000032,5.0000032 0 0 0 10,0 z m 0,15.65 a 5.0000032,5.0000032 0 0 0 -10,0 5.0000032,5.0000032 0 0 0 10,0 z m 15.65,0 a 5.0000032,5.0000032 0 0 0 -10,0 5.0000032,5.0000032 0 0 0 10,0 z m 15.65,0 a 5.000005,5.000005 0 0 0 -10.00001,0 5.000005,5.000005 0 0 0 10.00001,0 z m 0,15.65 a 5.000005,5.000005 0 0 0 -10.00001,0 5.000005,5.000005 0 0 0 10.00001,0 z m -15.65,0 a 5.0000032,5.0000032 0 0 0 -10,0 5.0000032,5.0000032 0 0 0 10,0 z m -15.65,0 a 5.0000032,5.0000032 0 0 0 -10,0 5.0000032,5.0000032 0 0 0 10,0 z m 0,15.64999 a 5.0000032,5.0000032 0 0 0 -10,0 5.0000032,5.0000032 0 0 0 10,0 z m 15.65,0 a 5.0000032,5.0000032 0 0 0 -10,0 5.0000032,5.0000032 0 0 0 10,0 z m 15.65,0 a 5.000005,5.000005 0 0 0 -10.00001,0 5.000005,5.000005 0 0 0 10.00001,0 z m 0,15.65 a 5.000005,5.000005 0 0 0 -10.00001,0 5.000005,5.000005 0 0 0 10.00001,0 z m -15.65,0 a 5.0000032,5.0000032 0 0 0 -10,0 5.0000032,5.0000032 0 0 0 10,0 z m -15.65,0 a 5.0000032,5.0000032 0 0 0 -10,0 5.0000032,5.0000032 0 0 0 10,0 z M 379.95,235.3724 a 5.000005,5.000005 0 0 0 -10.00001,0 5.000005,5.000005 0 0 0 10.00001,0 z m -15.65,0 a 5.000005,5.000005 0 0 0 -10.00001,0 5.000005,5.000005 0 0 0 10.00001,0 z m -15.65,0 a 5.000005,5.000005 0 0 0 -10.00001,0 5.000005,5.000005 0 0 0 10.00001,0 z m -15.65,0 a 5.0000032,5.0000032 0 0 0 -10,0 5.0000032,5.0000032 0 0 0 10,0 z m 0,15.65 a 5.0000032,5.0000032 0 0 0 -10,0 5.0000032,5.0000032 0 0 0 10,0 z m 15.65,0 a 5.000005,5.000005 0 0 0 -10.00001,0 5.000005,5.000005 0 0 0 10.00001,0 z m 15.65,0 a 5.000005,5.000005 0 0 0 -10.00001,0 5.000005,5.000005 0 0 0 10.00001,0 z m 0,15.65 a 5.000005,5.000005 0 0 0 -10.00001,0 5.000005,5.000005 0 0 0 10.00001,0 z m -15.65,0 a 5.000005,5.000005 0 0 0 -10.00001,0 5.000005,5.000005 0 0 0 10.00001,0 z m -15.65,0 a 5.0000032,5.0000032 0 0 0 -10,0 5.0000032,5.0000032 0 0 0 10,0 z m 0,15.64999 a 5.0000032,5.0000032 0 0 0 -10,0 5.0000032,5.0000032 0 0 0 10,0 z m 15.65,0 a 5.000005,5.000005 0 0 0 -10.00001,0 5.000005,5.000005 0 0 0 10.00001,0 z m 15.65,0 a 5.000005,5.000005 0 0 0 -10.00001,0 5.000005,5.000005 0 0 0 10.00001,0 z m 0,15.65 a 5.000005,5.000005 0 0 0 -10.00001,0 5.000005,5.000005 0 0 0 10.00001,0 z m -15.65,0 a 5.000005,5.000005 0 0 0 -10.00001,0 5.000005,5.000005 0 0 0 10.00001,0 z m -15.65,0 a 5.0000032,5.0000032 0 0 0 -10,0 5.0000032,5.0000032 0 0 0 10,0 z"
     inkscape:label="R" /><path
     id="path68"
     style="display:inline;fill:#ffffff;fill-opacity:1;stroke:#ffffff;stroke-width:3;stroke-linecap:round;stroke-dasharray:none;stroke-opacity:1"
     d="M 433.93664,115.49999 495.83326,1.5 H 454.87047 L 392.9712,115.49999 Z"
     sodipodi:nodetypes="ccccc"
     inkscape:label="/" /><path
     id="path5"
     style="fill:#e43434;fill-opacity:1;stroke:none;stroke-width:2;stroke-linecap:round;stroke-dasharray:none;stroke-opacity:1"
     d="M 433.93664,115.49999 495.83326,1.5 H 454.87047 L 392.9712,115.49999 Z"
     sodipodi:nodetypes="ccccc"
     inkscape:label="/" /></svg>
