<?xml version="1.0" encoding="UTF-8" standalone="no"?>
<!-- Created with Inkscape (http://www.inkscape.org/) -->

<svg
   width="910mm"
   height="500mm"
   viewBox="0 0 910 500"
   version="1.1"
   id="svg1"
   inkscape:version="1.4 (86a8ad7, 2024-10-11)"
   xml:space="preserve"
   sodipodi:docname="hyperscan.svg"
   xmlns:inkscape="http://www.inkscape.org/namespaces/inkscape"
   xmlns:sodipodi="http://sodipodi.sourceforge.net/DTD/sodipodi-0.dtd"
   xmlns="http://www.w3.org/2000/svg"
   xmlns:svg="http://www.w3.org/2000/svg"><sodipodi:namedview
     id="namedview1"
     pagecolor="#ffffff"
     bordercolor="#000000"
     borderopacity="0.25"
     inkscape:showpageshadow="2"
     inkscape:pageopacity="0.0"
     inkscape:pagecheckerboard="true"
     inkscape:deskcolor="#d1d1d1"
     inkscape:document-units="mm"
     inkscape:zoom="0.29118429"
     inkscape:cx="1665.6118"
     inkscape:cy="724.62701"
     inkscape:window-width="1916"
     inkscape:window-height="2053"
     inkscape:window-x="0"
     inkscape:window-y="0"
     inkscape:window-maximized="0"
     inkscape:current-layer="svg1" /><defs
     id="defs1"><marker
       id="DistanceX"
       orient="auto"
       refX="0"
       refY="0"
       style="overflow:visible"><path
         d="M 3,-3 -3,3 M 0,-5 V 5"
         style="stroke:#000000;stroke-width:0.5"
         id="path1" /></marker><pattern
       id="Hatch"
       patternUnits="userSpaceOnUse"
       width="8"
       height="8"
       x="0"
       y="0"><path
         d="M8 4 l-4,4"
         stroke="#000000"
         stroke-width="0.25"
         linecap="square"
         id="path2" /><path
         d="M6 2 l-4,4"
         stroke="#000000"
         stroke-width="0.25"
         linecap="square"
         id="path3" /><path
         d="M4 0 l-4,4"
         stroke="#000000"
         stroke-width="0.25"
         linecap="square"
         id="path4" /></pattern><symbol
       id="*Model_Space" /><symbol
       id="*Paper_Space" /><symbol
       id="*Paper_Space0" /><marker
       id="DistanceX-0"
       orient="auto"
       refX="0"
       refY="0"
       style="overflow:visible"><path
         d="M 3,-3 -3,3 M 0,-5 V 5"
         style="stroke:#000000;stroke-width:0.5"
         id="path1-9" /></marker><pattern
       id="Hatch-4"
       patternUnits="userSpaceOnUse"
       width="8"
       height="8"
       x="0"
       y="0"><path
         d="M8 4 l-4,4"
         stroke="#000000"
         stroke-width="0.25"
         linecap="square"
         id="path2-8" /><path
         d="M6 2 l-4,4"
         stroke="#000000"
         stroke-width="0.25"
         linecap="square"
         id="path3-8" /><path
         d="M4 0 l-4,4"
         stroke="#000000"
         stroke-width="0.25"
         linecap="square"
         id="path4-2" /></pattern><symbol
       id="*Model_Space-4" /><symbol
       id="*Paper_Space-5" /><symbol
       id="*Paper_Space0-5" /></defs><g
     id="g141"
     style="display:none;fill:#ffffff;stroke:#ffffff;stroke-width:3.4;stroke-linecap:square;stroke-dasharray:none;stroke-opacity:1"
     transform="translate(45.433775,45.134442)"
     inkscape:label="Logo"><path
       id="path116"
       style="display:inline;fill:#000000;fill-opacity:1;stroke:none;stroke-width:0.944827;stroke-linecap:round"
       d="M 37.13945,217.47233 V 133.47242 H 818.1389 v 83.99991 z"
       inkscape:label="Rect1"
       sodipodi:nodetypes="ccccc" /><path
       id="path20"
       style="fill:#000000;fill-opacity:1;stroke:none;stroke-width:3.571;stroke-linecap:round"
       d="M 411.969,64.252 H 597.165 V -438.425 H 411.969 l -2.5e-4,192.75585 c -2.5e-4,2.08723 -1.6924,3.77939 -3.77976,3.77927 h -64.25198 c -2.08738,1.2e-4 -3.77953,-1.69203 -3.77977,-3.77927 L 340.157,-438.425 H 154.961 V 64.252 h 185.196 l 2.4e-4,-196.53523 c 2.4e-4,-2.08761 1.69239,-3.77976 3.77976,-3.77976 h 64.25199 c 2.08736,0 3.77951,1.69216 3.77976,3.77976 L 411.969,64.252"
       inkscape:label="H"
       sodipodi:nodetypes="ccccccccccccccccc"
       transform="matrix(0.26458333,0,0,0.26458333,-2.8602974,116.47241)" /><path
       id="path32"
       style="fill:#000000;fill-opacity:1;stroke:none;stroke-width:3.571;stroke-linecap:round"
       d="M 1099.8413,64.252 H 914.646 l -1.6e-4,-174.29399 c -1.7e-4,-2.20261 -0.48146,-4.37862 -1.41061,-6.37589 L 763.465,-438.425 l 192.75523,-10e-5 c 20.19749,57.35562 36.01288,116.16141 47.31017,175.91071 0.7759,4.10293 6.6515,4.10293 7.4274,0 11.2973,-59.7493 27.1127,-118.55509 47.3111,-175.91071 l 192.7511,10e-5 -149.7686,322.00712 c -0.9276,1.99727 -1.4089,4.17328 -1.4089,6.37589 z"
       inkscape:label="Y"
       sodipodi:nodetypes="ccccccccccccc"
       transform="matrix(0.26458333,0,0,0.26458333,-2.8602974,116.47241)" /><path
       id="path49"
       style="fill:#000000;fill-opacity:1;stroke:none;stroke-width:3.571;stroke-linecap:round"
       d="m 1604.4097,-313.70089 v 98.26786 c -3e-4,2.08736 1.6919,3.77953 3.7798,3.77926 h 24.5685 c 20.8717,2.4e-4 37.7932,-16.92128 37.7932,-37.79514 v -30.23611 c 0,-20.87379 -16.9215,-37.79531 -37.7932,-37.79514 h -24.5685 c -2.0879,-2e-4 -3.7801,1.69197 -3.7798,3.77927 z m 0,377.95289 h -179.53 v -502.677 l 221.6918,-10e-5 c 42.6273,-1e-4 84.6073,10.41392 122.2906,30.33619 72.6645,38.41599 102.0216,127.36023 66.5021,201.48367 -29.5131,61.58901 -91.749,100.77845 -160.0443,100.77836 h -67.1307 c -2.0879,7e-5 -3.7801,1.69224 -3.7798,3.77976 z"
       inkscape:label="P"
       sodipodi:nodetypes="ccccccccccccccccccc"
       transform="matrix(0.26458333,0,0,0.26458333,-2.8602974,116.47241)" /><path
       id="path65"
       style="fill:#000000;fill-opacity:1;stroke:none;stroke-width:3.571;stroke-linecap:round"
       d="M 2411.3393,-47.244097 2411.34,64.252 h -370.4 v -502.677 h 370.4 l -7e-4,111.49593 c -60.2808,6.16702 -120.8313,9.31925 -181.4259,9.44485 -2.0843,0.004 -3.7717,1.6952 -3.7717,3.77937 v 68.0357 c 0,2.08726 1.6922,3.77943 3.7796,3.77927 l 139.84,-1.2e-4 v 105.827 h -139.84 c -2.0874,-3e-5 -3.7796,1.69214 -3.7796,3.77977 v 71.814718 c 0,2.084307 1.6874,3.775191 3.7717,3.779508 60.5946,0.125596 121.1451,3.277827 181.4259,9.444907 z"
       inkscape:label="E"
       sodipodi:nodetypes="ccccccccccccccccc"
       transform="matrix(0.26458333,0,0,0.26458333,-2.8602974,116.47241)" /><path
       id="path85"
       style="fill:#000000;fill-opacity:1;stroke:none;stroke-width:3.571;stroke-linecap:round"
       d="m 2800.9285,-238.11012 h 26.4533 c 13.6566,-0.47874 25.5785,-9.38602 29.909,-22.34466 5.5003,-16.45944 5.4775,-34.26446 -0.065,-50.70974 -4.3167,-12.80856 -16.3257,-21.43392 -29.844,-21.43369 h -26.4533 c -2.0889,-2e-4 -3.781,1.69194 -3.781,3.77926 v 86.92907 c 0,2.08748 1.6921,3.77962 3.781,3.77976 z m -3.781,110.23103 V 64.252 H 2615.43 v -502.677 l 256.0503,-10e-5 c 36.4791,-9e-5 72.5975,7.21457 106.2769,21.22861 18.2919,7.6113 34.4842,19.51171 47.2099,34.69665 27.4884,32.80046 36.3109,77.37262 23.3906,118.17149 -12.9204,40.79886 -45.792,72.16717 -87.1506,83.16489 -4.8777,1.29704 -7.1384,6.91863 -4.5169,11.2315 L 3099.04,64.252 h -195.98 l -98.7677,-193.84703 c -1.8013,-3.5397 -7.1448,-2.25684 -7.1448,1.71594 z"
       inkscape:label="R"
       sodipodi:nodetypes="ccccccccccccccccscccccc"
       transform="matrix(0.26458333,0,0,0.26458333,-2.8602974,116.47241)" /><path
       id="path129"
       style="fill:#000000;fill-opacity:1;stroke:none;stroke-width:3.571;stroke-linecap:round"
       d="m 84.342278,895.60618 c 63.061172,26.06041 130.023922,37.52122 198.867372,38.11446 25.08492,0.21616 50.41954,-1.01057 73.5716,-10.52057 3.71617,-1.52647 7.37612,-3.26634 10.62574,-5.6463 9.00122,-6.5923 14.85426,-18.0956 14.75821,-28.51617 -0.13999,-15.1877 -12.91721,-28.07542 -28.53476,-36.33091 -7.04914,-3.7262 -14.67693,-6.5087 -22.05975,-9.17419 C 281.48212,825.44856 242.66908,812.75025 200.71694,793.83308 137.18163,765.18356 66.446418,722.27032 33.707003,657.91061 22.417993,635.71848 15.646559,610.97643 14.690379,586.13819 11.372481,499.9507 78.073528,412.60499 154.96081,381.73214 L 647.179,381.732 587.41102,545.63284 c -69.7361,-26.07836 -120.5643,-36.6795 -191.27987,-35.39662 -25.99677,0.47162 -54.68127,2.54933 -72.78883,11.77597 -2.9504,1.50336 -5.62,3.19652 -7.9455,5.34093 -6.65716,6.13874 -10.49446,15.97541 -10.35133,24.21992 0.38314,22.0703 29.29068,32.73097 55.83947,42.18671 90.97926,32.40362 154.25858,50.65728 220.65858,93.94913 36.58907,23.85556 74.12572,55.31384 91.07835,95.75697 7.96628,19.00479 11.3872,39.9936 11.43733,61.03867 0.14193,59.5835 -26.73606,119.61792 -68.45826,161.94748 -36.84609,37.3824 -85.26942,60.9565 -135.36278,76.0716 -61.10427,18.4375 -124.6934,24.2887 -187.9417,23.4927 -90.20574,-1.1352 -179.71818,-15.7911 -267.508666,-35.1251 z"
       inkscape:label="S"
       sodipodi:nodetypes="cssssssssscccssssssssssscc"
       transform="matrix(0.26458333,0,0,0.26458333,-2.8602974,116.47241)" /><path
       id="path124"
       style="fill:#000000;fill-opacity:1;stroke:none;stroke-width:3.571;stroke-linecap:round"
       d="m 1110.2922,657.91061 c 0,-32.93689 9.5355,-62.04265 27.971,-85.29099 18.3356,-23.12231 45.475,-40.45054 74.1301,-49.74479 52.0581,-16.88504 109.1185,-7.25419 161.198,9e-5 L 1403.71,381.732 l -390.7609,1.4e-4 c -148.52898,52.74187 -219.3118,205.68062 -215.28454,360.46583 2.59208,99.62482 36.17522,200.01456 104.51475,264.25403 51.59079,48.4955 122.98939,76.389 194.77969,89.9027 110.2615,20.7555 221.4473,7.5903 327.922,-18.4929 l -23.7323,-164.39967 c -18.1457,8.97869 -43.9516,12.86143 -65.8759,15.85036 -52.2741,7.12651 -82.4817,9.17176 -118.6848,0.45129 -21.7526,-5.23969 -45.6697,-14.36602 -64.4874,-34.15742 -25.638,-26.96448 -41.8106,-73.72574 -41.8106,-90.20506 m 0,-147.4903 v 147.49"
       inkscape:label="C"
       sodipodi:nodetypes="csscccsssccsssccc"
       transform="matrix(0.26458333,0,0,0.26458333,-2.8602974,116.47241)" /><path
       d="m 1691.25,381.73268 -217.2304,710.54692 h 302.3613 L 1811.75,932.72488 c 0.3831,-1.73002 1.9167,-2.96103 3.6895,-2.96094 h 148.6484 c 1.7704,-9e-5 3.3041,1.23093 3.6895,2.96094 l 35.373,159.55472 h 302.3594 L 2088.2696,381.73268 Z m 197.9747,128.50391 h 1.0742 c 1.8657,1.2e-4 3.4516,1.35846 3.7363,3.20117 12.87,83.30952 26.922,166.43292 42.1504,249.34375 0.4265,2.32196 -1.3581,4.46291 -3.7188,4.46289 h -85.4082 c -2.3608,2e-5 -4.1441,-2.14093 -3.7187,-4.46289 15.2273,-82.91083 29.2785,-166.03423 42.1484,-249.34375 0.2847,-1.84271 1.8694,-3.20105 3.7364,-3.20117 z"
       style="fill:#000000;fill-opacity:1;stroke:none;stroke-width:3.571;stroke-linecap:round"
       id="path118"
       inkscape:label="A"
       transform="matrix(0.26458333,0,0,0.26458333,-2.8602974,116.47241)" /><path
       id="path99"
       style="fill:#000000;fill-opacity:1;stroke:none;stroke-width:3.571;stroke-linecap:round"
       d="m 2853.54,381.732 h 241.89 V 1092.28 H 2777.95 L 2611.695,622.78601 c -1.4771,-4.18587 -7.7128,-2.82982 -7.3227,1.59354 4.8551,55.07571 7.2862,110.33827 7.282,165.62751 V 1092.28 H 2373.54 V 381.732 h 328.82 l 155.9103,440.27194 c 1.5087,4.2589 7.8662,2.76074 7.3142,-1.72361 -8.0199,-65.13059 -12.0412,-130.69143 -12.0428,-196.31413 V 381.732"
       inkscape:label="N"
       sodipodi:nodetypes="ccccccccccccccc"
       transform="matrix(0.26458333,0,0,0.26458333,-2.8602974,116.47241)" /></g><path
     id="path119"
     style="display:inline;fill:#ffffff;fill-opacity:1;stroke:#ffffff;stroke-width:7;stroke-linecap:square;stroke-linejoin:round;stroke-miterlimit:0.5;stroke-dasharray:none;stroke-opacity:1"
     inkscape:label="HyperScanOutline"
     d="M 83.573566,45.606765 V 178.60691 H 82.57311 v 84.00004 h 1.000456 c -20.343093,8.16845 -37.991358,31.27872 -37.113497,54.08249 0.252989,6.57179 2.04485,13.11787 5.031734,18.98954 8.662304,17.02851 27.377617,28.38248 44.188001,35.96266 11.099836,5.00517 21.369056,8.36539 34.621656,13.1501 1.95337,0.70525 3.97177,1.44136 5.83686,2.42725 4.13214,2.18426 7.51288,5.59392 7.54992,9.61233 0.0254,2.75711 -1.52361,5.80055 -3.90518,7.54476 -0.8598,0.6297 -1.82797,1.09009 -2.8112,1.49396 -6.12565,2.51619 -12.82895,2.84101 -19.466,2.78381 -18.214828,-0.15696 -35.932007,-3.1895 -52.616942,-10.08465 l -15.757177,46.37753 c 23.227899,5.11545 46.91169,8.99313 70.778629,9.29349 16.73444,0.21061 33.55899,-1.33739 49.72616,-6.21564 13.25387,-3.99921 26.06601,-10.23669 35.81487,-20.12745 11.039,-11.19969 18.15014,-27.08374 18.11259,-42.84855 -0.0133,-5.56817 -0.91842,-11.12157 -3.02617,-16.14992 -4.48538,-10.70058 -14.4169,-19.02362 -24.09775,-25.33541 -17.56834,-11.4543 -34.31089,-16.28394 -58.38249,-24.85739 -7.02437,-2.50184 -14.67292,-5.32268 -14.77429,-11.16211 -0.0379,-2.18136 0.97747,-4.78367 2.73885,-6.40788 0.61529,-0.56738 1.32157,-1.01558 2.1022,-1.41334 4.79095,-2.44122 12.38046,-2.99079 19.25877,-3.11557 18.71016,-0.33943 32.15831,2.46542 50.60932,9.36532 l 15.81402,-43.36532 h 96.77652 c -39.29829,13.95462 -58.02641,54.41941 -56.96086,95.37299 0.68582,26.35907 9.57159,52.92049 27.65309,69.91718 13.65006,12.8311 32.54084,20.21117 51.53535,23.78666 29.17336,5.49156 58.59124,2.00846 86.76267,-4.89272 l -6.27921,-43.4976 c -4.80105,2.37561 -11.62862,3.40324 -17.42942,4.19406 -13.83086,1.88555 -21.82348,2.42666 -31.40222,0.11937 -5.75538,-1.38634 -12.08368,-3.80122 -17.06253,-9.03769 -6.78338,-7.13436 -11.06237,-19.50662 -11.06237,-23.86677 l 10e-4,-39.02346 c 0,-8.71454 2.52286,-16.41545 7.40059,-22.56657 4.85129,-6.11778 12.03161,-10.70237 19.61327,-13.16147 13.7737,-4.4675 28.87126,-1.91936 42.65063,0 l 7.9685,-37.34398 h 76.07856 l -57.47556,187.99885 h 79.99977 l 9.35808,-42.21551 c 0.10137,-0.45773 0.50712,-0.78343 0.97617,-0.78341 h 39.3299 c 0.46842,-2e-5 0.8742,0.32568 0.97617,0.78341 l 9.35912,42.21551 h 79.99925 L 595.0948,262.60696 h 75.21298 V 450.8704 h 63.53049 c -10e-4,-26.98516 0.003,-53.97063 -0.002,-80.95578 -0.0179,-14.34575 -0.65988,-28.69026 -1.91255,-42.98084 -0.0701,-0.33154 0.0459,-0.72233 0.37569,-0.86662 0.36915,-0.2018 0.8946,-0.0347 1.02474,0.38086 14.68948,41.47322 29.37374,82.94846 44.06139,124.42238 h 84.4517 V 262.60696 h 1.73529 v -84.00004 h -1.0449 l -37.66339,-61.96108 c -0.6936,-1.14111 -0.0953,-2.62874 1.19528,-2.97191 10.94279,-2.90982 19.64001,-11.20913 23.05854,-22.003827 3.41849,-10.794701 1.0842,-22.587854 -6.18877,-31.266309 -3.36701,-4.017682 -7.65098,-7.166494 -12.49071,-9.180318 -8.91101,-3.707881 -18.46745,-5.616735 -28.11922,-5.616711 H 734.57259 V 178.60691 h -53.99877 v -29.5 c -15.94929,-1.63171 -31.96991,-2.46585 -48.00223,-2.49908 -0.55148,-0.001 -0.99788,-0.44846 -0.99788,-0.99994 v -19.0009 c 0,-0.55235 0.44765,-0.99995 0.99994,-0.99994 h 36.99929 V 97.606691 h -36.99929 c -0.55229,4.3e-5 -0.99994,-0.447684 -0.99994,-0.999939 V 78.605784 c 0,-0.551437 0.4464,-0.998881 0.99788,-0.999939 16.03232,-0.03323 32.05294,-0.867382 48.00223,-2.499072 V 45.606765 H 582.57205 V 178.60691 H 467.07368 v -43.99989 c -8e-5,-0.55233 0.44751,-0.99992 0.99994,-0.99994 h 17.7617 c 18.0698,2e-5 34.53603,-10.3691 42.3447,-26.66452 9.39787,-19.611831 1.63051,-43.145181 -17.5953,-53.309411 -9.97038,-5.271101 -21.07718,-8.02641 -32.35565,-8.026384 H 419.5727 V 178.60691 h -85.9994 v -46.11553 c 0,-0.58277 0.12767,-1.15827 0.3731,-1.68672 l 39.62601,-85.197895 h -50.99844 c -5.34416,15.175341 -9.52902,30.734743 -12.5181,46.543412 -0.20529,1.085567 -1.75945,1.085567 -1.96474,0 -2.98907,-15.808669 -7.17366,-31.368071 -12.51758,-46.543412 h -50.99999 l 39.62652,85.197895 c 0.24584,0.52845 0.37358,1.10395 0.37363,1.68672 v 46.11553 H 200.57315 V 45.606765 h -48.9996 v 50.999987 c -6e-5,0.552247 -0.44765,0.999971 -0.99993,0.999939 h -17 c -0.55229,3.2e-5 -1.0004,-0.44769 -1.00046,-0.999939 V 45.606765 Z M 783.65229,73.607123 h 6.99905 c 3.57672,-6.1e-5 6.75455,2.28204 7.89668,5.670971 1.46645,4.351147 1.47234,9.061859 0.0171,13.416752 -1.14578,3.428641 -4.30042,5.785118 -7.91373,5.911784 h -6.99905 c -0.55269,-3.7e-5 -1.00046,-0.447626 -1.00046,-0.999939 V 74.607062 c 0,-0.55227 0.44777,-0.999992 1.00046,-0.999939 z m -315.57867,3.999756 h 6.50037 c 5.52231,-4.5e-5 9.99939,4.477049 9.99939,9.999906 v 8.000028 c 0,5.522877 -4.47708,9.999967 -9.99939,9.999907 h -6.50037 c -0.55243,7e-5 -1.00002,-0.44766 -0.99994,-0.99994 V 78.606817 c -8e-5,-0.552264 0.44751,-0.999991 0.99994,-0.999938 z m -334.5,48.000171 h 17 c 0.55228,0 0.99987,0.44759 0.99993,0.99994 v 51.99992 h -19.00039 v -51.99992 c 6e-5,-0.55235 0.44817,-0.99994 1.00046,-0.99994 z m 650.16135,1.16582 c 0.31833,0.0221 0.62898,0.19398 0.8077,0.54519 l 26.13226,51.28886 h -28.0231 v -50.83463 c 0,-0.65696 0.55258,-1.03624 1.08314,-0.99942 z m -25.88214,135.83409 h 39.45547 c 9.6e-4,21.75196 -0.003,43.50401 0.002,65.25597 0.0456,16.98887 1.11428,33.97395 3.18792,50.83514 0.0727,0.44647 -0.35362,0.83879 -0.78807,0.79943 -0.35901,-9e-5 -0.61662,-0.31219 -0.68988,-0.64027 -13.7224,-38.75017 -27.44493,-77.50017 -41.16751,-116.25027 z m -215.422,34 h 0.28422 c 0.49364,2e-5 0.91325,0.35942 0.98857,0.84697 3.40519,22.04231 7.12311,44.03537 11.1523,65.9722 0.11284,0.61435 -0.35932,1.18081 -0.98392,1.18081 h -22.59759 c -0.62463,0 -1.09647,-0.56646 -0.98392,-1.18081 4.02889,-21.93683 7.74661,-43.92989 11.15177,-65.9722 0.0753,-0.48755 0.4946,-0.84694 0.98857,-0.84697 z" /><path
     id="path132"
     style="display:inline;fill:#000000;fill-opacity:1;stroke:none;stroke-width:0.944827;stroke-linecap:round"
     inkscape:label="HyperScan"
     d="m 83.573568,45.60681 v 133.00015 h -1.000456 v 84.00005 h 1.000456 c -20.343093,8.16844 -37.991358,31.2787 -37.113497,54.08249 0.252989,6.57177 2.04485,13.11786 5.031734,18.98953 8.662303,17.0285 27.377617,28.38247 44.188001,35.96267 11.099834,5.00516 21.369054,8.36487 34.621654,13.14958 1.95338,0.70525 3.97177,1.44187 5.83686,2.42776 4.13214,2.18427 7.51289,5.59392 7.54993,9.61232 0.0254,2.75712 -1.52362,5.80055 -3.90519,7.54476 -0.8598,0.62971 -1.82796,1.09009 -2.8112,1.49397 -6.12565,2.51619 -12.82894,2.841 -19.466,2.78381 -18.214826,-0.15696 -35.932005,-3.18951 -52.61694,-10.08465 l -15.757177,46.37752 c 23.227898,5.11546 46.91169,8.99314 70.778627,9.2935 16.73444,0.2106 33.559,-1.33738 49.72617,-6.21564 13.25386,-3.9992 26.066,-10.2367 35.81486,-20.12746 11.039,-11.1997 18.15015,-27.08375 18.11259,-42.84854 -0.0133,-5.56818 -0.91842,-11.12158 -3.02617,-16.14993 -4.48538,-10.70058 -14.41689,-19.02361 -24.09775,-25.33539 -17.56833,-11.4543 -34.31089,-16.28395 -58.38249,-24.8574 -7.02437,-2.50183 -14.67292,-5.32268 -14.77429,-11.16211 -0.0379,-2.18136 0.97748,-4.78367 2.73885,-6.40788 0.61529,-0.56737 1.32157,-1.01558 2.1022,-1.41335 4.79096,-2.44121 12.38046,-2.99079 19.25877,-3.11557 18.71017,-0.33943 32.15831,2.46542 50.60932,9.36532 l 15.81402,-43.36531 h 96.77652 c -39.29829,13.95462 -58.02641,54.4194 -56.96086,95.37299 0.68582,26.35907 9.57159,52.92048 27.65309,69.91718 13.65006,12.8311 32.54084,20.21116 51.53536,23.78666 29.17335,5.49156 58.59123,2.00845 86.76266,-4.89272 l -6.2792,-43.49761 c -4.80105,2.37561 -11.62863,3.40324 -17.42943,4.19406 -13.83086,1.88556 -21.82348,2.42666 -31.40222,0.11937 -5.75537,-1.38633 -12.08367,-3.80122 -17.06252,-9.03769 -6.78339,-7.13436 -11.06238,-19.50661 -11.06238,-23.86677 l 10e-4,-39.02346 c 0,-8.71455 2.52285,-16.41545 7.40058,-22.56658 4.85129,-6.11777 12.03161,-10.70236 19.61327,-13.16147 13.77371,-4.4675 28.87126,-1.91936 42.65063,0 l 7.9685,-37.34397 h 76.07856 l -57.47556,187.99886 h 79.99977 l 9.35809,-42.21551 c 0.10136,-0.45774 0.50711,-0.78343 0.97616,-0.78341 h 39.3299 c 0.46842,-2e-5 0.8742,0.32569 0.97617,0.78341 l 9.35912,42.21551 h 79.99925 L 595.0948,262.60701 h 75.47757 v 187.99885 h 63.00132 v -79.97651 c 10e-4,-14.62862 -0.64192,-29.25002 -1.9265,-43.82214 -0.10321,-1.17034 1.54654,-1.52919 1.93735,-0.42168 l 43.98802,124.22033 H 861.5726 V 262.60701 h 1.99987 v -84.00005 h -1.04489 l -37.66334,-61.96108 c -0.6936,-1.14111 -0.0953,-2.62873 1.19528,-2.97191 10.94279,-2.90981 19.64002,-11.20912 23.05854,-22.003822 3.4185,-10.794701 1.0842,-22.587854 -6.18877,-31.266309 -3.36701,-4.017682 -7.65098,-7.166495 -12.49071,-9.180318 -8.91101,-3.707881 -18.46745,-5.616735 -28.11921,-5.616711 H 734.5726 v 133.00015 h -53.99878 v -29.50001 c -15.94929,-1.63171 -31.96991,-2.46583 -48.00223,-2.49907 -0.55147,-0.001 -0.99787,-0.44847 -0.99787,-0.99994 v -19.00091 c 0,-0.55235 0.44764,-0.99994 0.99993,-0.99994 h 36.9993 V 97.606736 h -36.9993 c -0.55229,4.2e-5 -0.99993,-0.447685 -0.99993,-0.999939 V 78.605829 c 0,-0.551437 0.4464,-0.998881 0.99787,-0.999939 16.03232,-0.03323 32.05294,-0.867382 48.00223,-2.499073 V 45.60681 H 582.57205 V 178.60696 H 467.07368 v -43.9999 c -8e-5,-0.55232 0.44751,-1.00044 0.99994,-1.00045 h 17.7617 c 18.0698,2e-5 34.53603,-10.36858 42.34471,-26.66401 9.39786,-19.611826 1.6305,-43.145177 -17.59531,-53.309407 -9.97038,-5.2711 -21.07718,-8.02641 -32.35565,-8.026383 H 419.5727 v 133.00015 h -85.9994 v -46.11553 c 0,-0.58278 0.12768,-1.15828 0.3731,-1.68672 l 39.62601,-85.1979 h -50.99844 c -5.34416,15.17534 -9.52902,30.734226 -12.5181,46.542895 -0.20529,1.085567 -1.75945,1.085567 -1.96474,0 C 305.10206,76.341036 300.91747,60.78215 295.57355,45.60681 h -50.99999 l 39.62653,85.1979 c 0.24583,0.52844 0.37357,1.10394 0.37362,1.68672 v 46.11553 H 200.57315 V 45.60681 h -48.99959 v 50.999987 c -7e-5,0.552246 -0.44766,0.999971 -0.99994,0.999939 h -17 c -0.55229,3.2e-5 -1.0004,-0.44769 -1.00046,-0.999939 V 45.60681 Z M 783.65229,73.607167 h 6.99905 c 3.57672,-6e-5 6.75455,2.282041 7.89668,5.670972 1.46645,4.351147 1.47234,9.061859 0.0171,13.416752 -1.14578,3.42864 -4.30042,5.785117 -7.91373,5.911784 h -6.99905 c -0.55269,-3.7e-5 -1.00046,-0.447626 -1.00046,-0.999939 V 74.60659 c 0,-0.55227 0.44777,-0.999475 1.00046,-0.999423 z m -315.57867,3.999756 h 6.50038 c 5.5223,-4.5e-5 9.99939,4.47705 9.99939,9.999907 v 8.000028 c 0,5.522872 -4.47709,9.999972 -9.99939,9.999902 h -6.50038 c -0.55243,8e-5 -1.00002,-0.44765 -0.99994,-0.99993 V 78.606862 c -8e-5,-0.552265 0.44751,-0.999992 0.99994,-0.999939 z m -334.5,48.000167 h 17 c 0.55228,0 0.99987,0.4476 0.99994,0.99994 v 51.99993 h -19.0004 v -51.99993 c 6e-5,-0.55234 0.44817,-0.99994 1.00046,-0.99994 z m 650.16135,1.16583 c 0.31833,0.0221 0.62898,0.19398 0.8077,0.54518 l 26.13226,51.28886 h -28.0231 v -50.83462 c 0,-0.65696 0.55258,-1.03625 1.08314,-0.99942 z m -26.16223,135.83409 h 40.00015 v 64.09066 c 4.2e-4,17.36266 1.06443,34.70906 3.18636,51.94153 0.14605,1.18649 -1.5361,1.58314 -1.93528,0.4563 z M 542.43084,296.607 h 0.28422 c 0.49363,3e-5 0.91324,0.35943 0.98857,0.84698 3.40518,22.0423 7.12311,44.03537 11.15229,65.97219 0.11284,0.61435 -0.35932,1.18081 -0.98392,1.1808 h -22.59759 c -0.62463,1e-5 -1.09647,-0.56645 -0.98392,-1.1808 4.02889,-21.93682 7.74661,-43.92989 11.15178,-65.97219 0.0753,-0.48755 0.49459,-0.84695 0.98857,-0.84698 z" /><path
     id="path102"
     style="display:inline;fill:#ff0000;fill-opacity:1;stroke:none;stroke-width:0.944827;stroke-linecap:round"
     d="m 116.57324,230.60674 v -17.00001 h 708.99999 v 17.00001 z"
     inkscape:label="Rect"
     sodipodi:nodetypes="ccccc" /></svg>
