<?xml version="1.0" encoding="UTF-8" standalone="no"?>
<!-- Created with Inkscape (http://www.inkscape.org/) -->

<svg
   width="995.47247mm"
   height="613.05688mm"
   viewBox="0 0 995.47256 613.0569"
   version="1.1"
   id="svg1"
   inkscape:version="1.4 (86a8ad7, 2024-10-11)"
   xml:space="preserve"
   sodipodi:docname="max_v2.svg"
   xmlns:inkscape="http://www.inkscape.org/namespaces/inkscape"
   xmlns:sodipodi="http://sodipodi.sourceforge.net/DTD/sodipodi-0.dtd"
   xmlns="http://www.w3.org/2000/svg"
   xmlns:svg="http://www.w3.org/2000/svg"><sodipodi:namedview
     id="namedview1"
     pagecolor="#ffffff"
     bordercolor="#000000"
     borderopacity="0.25"
     inkscape:showpageshadow="2"
     inkscape:pageopacity="0.0"
     inkscape:pagecheckerboard="true"
     inkscape:deskcolor="#d1d1d1"
     inkscape:document-units="mm"
     inkscape:zoom="0.33583142"
     inkscape:cx="1462.0431"
     inkscape:cy="1463.5319"
     inkscape:window-width="3840"
     inkscape:window-height="2066"
     inkscape:window-x="-11"
     inkscape:window-y="-11"
     inkscape:window-maximized="1"
     inkscape:current-layer="g4" /><defs
     id="defs1"><marker
       id="DistanceX"
       orient="auto"
       refX="0"
       refY="0"
       style="overflow:visible"><path
         d="M 3,-3 -3,3 M 0,-5 V 5"
         style="stroke:#000000;stroke-width:0.5"
         id="path1" /></marker><pattern
       id="Hatch"
       patternUnits="userSpaceOnUse"
       width="8"
       height="8"
       x="0"
       y="0"><path
         d="M8 4 l-4,4"
         stroke="#000000"
         stroke-width="0.25"
         linecap="square"
         id="path2" /><path
         d="M6 2 l-4,4"
         stroke="#000000"
         stroke-width="0.25"
         linecap="square"
         id="path3" /><path
         d="M4 0 l-4,4"
         stroke="#000000"
         stroke-width="0.25"
         linecap="square"
         id="path4" /></pattern><symbol
       id="*Model_Space" /><symbol
       id="*Paper_Space" /><symbol
       id="*Paper_Space0" /><clipPath
       clipPathUnits="userSpaceOnUse"
       id="clipPath73"><path
         id="path73-0"
         d="m -582.90354,-24.897292 h 136.26044 l 32.01456,-46.302083 32.01458,46.302083 h 136.26042 l -100.14477,-144.832918 32.01456,-46.30208 132.18583,191.134998 H -27.066875 L 66.092917,-159.62312 V -24.897292 H 195.58 l 50.08563,-72.416455 50.05916,72.416455 H 425.21188 V -314.53667 h -107.1298 v 69.47959 l -48.04833,-69.47959 H 221.2975 l -48.04833,69.47959 v -69.47959 H 66.119375 36.98875 v 0 H 12.356042 v 52.705 H -221.69437 v -52.705 h -24.63269 v 0 H -382.5875 l -32.01456,46.30209 -32.01461,-46.30209 h -136.26039 l 100.14477,144.83292 z m 515.090832,-138.112498 -36.856462,53.31354 -36.88291,-53.31354 z"
         style="stroke-width:0.264583" /></clipPath><clipPath
       clipPathUnits="userSpaceOnUse"
       id="clipPath72"><path
         id="path72-2"
         d="m -582.90354,-24.897292 h 136.26044 l 32.01456,-46.302083 32.01458,46.302083 h 136.26042 l -100.14477,-144.832918 32.01456,-46.30208 132.18583,191.134998 H -27.066875 L 66.092917,-159.62312 V -24.897292 H 195.58 l 50.08563,-72.416455 50.05916,72.416455 H 425.21188 V -314.53667 h -107.1298 v 69.47959 l -48.04833,-69.47959 H 221.2975 l -48.04833,69.47959 v -69.47959 H 66.119375 36.98875 v 0 H 12.356042 v 52.705 H -221.69437 v -52.705 h -24.63269 v 0 H -382.5875 l -32.01456,46.30209 -32.01461,-46.30209 h -136.26039 l 100.14477,144.83292 z m 515.090832,-138.112498 -36.856462,53.31354 -36.88291,-53.31354 z"
         style="stroke-width:0.264583" /></clipPath><clipPath
       clipPathUnits="userSpaceOnUse"
       id="clipPath71"><path
         id="path71-8"
         d="m -582.90354,-24.897292 h 136.26044 l 32.01456,-46.302083 32.01458,46.302083 h 136.26042 l -100.14477,-144.832918 32.01456,-46.30208 132.18583,191.134998 H -27.066875 L 66.092917,-159.62312 V -24.897292 H 195.58 l 50.08563,-72.416455 50.05916,72.416455 H 425.21188 V -314.53667 h -107.1298 v 69.47959 l -48.04833,-69.47959 H 221.2975 l -48.04833,69.47959 v -69.47959 H 66.119375 36.98875 v 0 H 12.356042 v 52.705 H -221.69437 v -52.705 h -24.63269 v 0 H -382.5875 l -32.01456,46.30209 -32.01461,-46.30209 h -136.26039 l 100.14477,144.83292 z m 515.090832,-138.112498 -36.856462,53.31354 -36.88291,-53.31354 z"
         style="stroke-width:0.264583" /></clipPath><clipPath
       clipPathUnits="userSpaceOnUse"
       id="clipPath70"><path
         id="path70-6"
         d="m -582.90354,-24.897292 h 136.26044 l 32.01456,-46.302083 32.01458,46.302083 h 136.26042 l -100.14477,-144.832918 32.01456,-46.30208 132.18583,191.134998 H -27.066875 L 66.092917,-159.62312 V -24.897292 H 195.58 l 50.08563,-72.416455 50.05916,72.416455 H 425.21188 V -314.53667 h -107.1298 v 69.47959 l -48.04833,-69.47959 H 221.2975 l -48.04833,69.47959 v -69.47959 H 66.119375 36.98875 v 0 H 12.356042 v 52.705 H -221.69437 v -52.705 h -24.63269 v 0 H -382.5875 l -32.01456,46.30209 -32.01461,-46.30209 h -136.26039 l 100.14477,144.83292 z m 515.090832,-138.112498 -36.856462,53.31354 -36.88291,-53.31354 z"
         style="stroke-width:0.264583" /></clipPath><clipPath
       clipPathUnits="userSpaceOnUse"
       id="clipPath69"><path
         id="path69-0"
         d="m -582.90354,-24.897292 h 136.26044 l 32.01456,-46.302083 32.01458,46.302083 h 136.26042 l -100.14477,-144.832918 32.01456,-46.30208 132.18583,191.134998 H -27.066875 L 66.092917,-159.62312 V -24.897292 H 195.58 l 50.08563,-72.416455 50.05916,72.416455 H 425.21188 V -314.53667 h -107.1298 v 69.47959 l -48.04833,-69.47959 H 221.2975 l -48.04833,69.47959 v -69.47959 H 66.119375 36.98875 v 0 H 12.356042 v 52.705 H -221.69437 v -52.705 h -24.63269 v 0 H -382.5875 l -32.01456,46.30209 -32.01461,-46.30209 h -136.26039 l 100.14477,144.83292 z m 515.090832,-138.112498 -36.856462,53.31354 -36.88291,-53.31354 z"
         style="stroke-width:0.264583" /></clipPath><clipPath
       clipPathUnits="userSpaceOnUse"
       id="clipPath68"><path
         id="path68-2"
         d="m -582.90354,-24.897292 h 136.26044 l 32.01456,-46.302083 32.01458,46.302083 h 136.26042 l -100.14477,-144.832918 32.01456,-46.30208 132.18583,191.134998 H -27.066875 L 66.092917,-159.62312 V -24.897292 H 195.58 l 50.08563,-72.416455 50.05916,72.416455 H 425.21188 V -314.53667 h -107.1298 v 69.47959 l -48.04833,-69.47959 H 221.2975 l -48.04833,69.47959 v -69.47959 H 66.119375 36.98875 v 0 H 12.356042 v 52.705 H -221.69437 v -52.705 h -24.63269 v 0 H -382.5875 l -32.01456,46.30209 -32.01461,-46.30209 h -136.26039 l 100.14477,144.83292 z m 515.090832,-138.112498 -36.856462,53.31354 -36.88291,-53.31354 z"
         style="stroke-width:0.264583" /></clipPath><clipPath
       clipPathUnits="userSpaceOnUse"
       id="clipPath67"><path
         id="path67-4"
         d="m -582.90354,-24.897292 h 136.26044 l 32.01456,-46.302083 32.01458,46.302083 h 136.26042 l -100.14477,-144.832918 32.01456,-46.30208 132.18583,191.134998 H -27.066875 L 66.092917,-159.62312 V -24.897292 H 195.58 l 50.08563,-72.416455 50.05916,72.416455 H 425.21188 V -314.53667 h -107.1298 v 69.47959 l -48.04833,-69.47959 H 221.2975 l -48.04833,69.47959 v -69.47959 H 66.119375 36.98875 v 0 H 12.356042 v 52.705 H -221.69437 v -52.705 h -24.63269 v 0 H -382.5875 l -32.01456,46.30209 -32.01461,-46.30209 h -136.26039 l 100.14477,144.83292 z m 515.090832,-138.112498 -36.856462,53.31354 -36.88291,-53.31354 z"
         style="stroke-width:0.264583" /></clipPath><clipPath
       clipPathUnits="userSpaceOnUse"
       id="clipPath66"><path
         id="path66-8"
         d="m -582.90354,-24.897292 h 136.26044 l 32.01456,-46.302083 32.01458,46.302083 h 136.26042 l -100.14477,-144.832918 32.01456,-46.30208 132.18583,191.134998 H -27.066875 L 66.092917,-159.62312 V -24.897292 H 195.58 l 50.08563,-72.416455 50.05916,72.416455 H 425.21188 V -314.53667 h -107.1298 v 69.47959 l -48.04833,-69.47959 H 221.2975 l -48.04833,69.47959 v -69.47959 H 66.119375 36.98875 v 0 H 12.356042 v 52.705 H -221.69437 v -52.705 h -24.63269 v 0 H -382.5875 l -32.01456,46.30209 -32.01461,-46.30209 h -136.26039 l 100.14477,144.83292 z m 515.090832,-138.112498 -36.856462,53.31354 -36.88291,-53.31354 z"
         style="stroke-width:0.264583" /></clipPath></defs><path
     id="path292"
     style="display:none;fill:#000000;fill-opacity:1;stroke:#000000;stroke-width:0.944827;stroke-linecap:round;stroke-opacity:1"
     d="M 995.00001,348.05698 V 66.053058 H 4.9999899 V 348.05708 Z"
     sodipodi:nodetypes="ccccc"
     inkscape:label="LogoLocation" /><g
     id="g5"
     transform="translate(-0.47241354,-9.1661302)"
     style="display:inline"
     inkscape:label="LowerLogo"><g
       id="g58"
       transform="translate(-4.9999899)"><path
         id="path116"
         style="display:inline;fill:#e10205;fill-opacity:1;stroke:none;stroke-width:3.571;stroke-linecap:round"
         d="M 3779.53,1122.52 V 531.024 H 18.8976 v 591.496 z"
         sodipodi:nodetypes="ccccc"
         transform="matrix(0.26458333,0,0,0.26458333,0.47241354,325.22292)"
         inkscape:label="Rect" /><path
         id="path69"
         style="display:inline;fill:#ffffff;fill-opacity:1;stroke:none;stroke-width:3.571;stroke-linecap:round"
         d="m 1943.5191,894.39234 c 35.4325,-25.74453 50.2539,-71.37695 36.7191,-113.03293 -13.5349,-41.65599 -52.3477,-69.86158 -96.1455,-69.86258 -43.798,-0.001 -82.6173,28.20285 -96.1523,69.85925 -13.535,41.65647 1.2925,87.29077 36.7276,113.03587 35.4351,25.74506 83.4183,25.74503 118.8511,3.9e-4 z"
         inkscape:label="Circle"
         transform="matrix(0.26458333,0,0,0.26458333,0.47241354,325.22292)"
         sodipodi:nodetypes="sssccs" /><path
         id="path70"
         style="display:inline;fill:#e10205;fill-opacity:1;stroke:none;stroke-width:3.571;stroke-linecap:round"
         d="m 1824.67,894.392 59.42,-43.176 59.43,43.176 -22.7,-69.86 59.43,-43.176 h -73.46 l -22.7,-69.86 -22.69,69.86 h -73.46 l 59.43,43.176 z"
         inkscape:label="Star"
         transform="matrix(0.26458333,0,0,0.26458333,0.47241354,325.22292)"
         sodipodi:nodetypes="ccccccccccc" /><g
         id="g57"
         transform="matrix(0.26458333,0,0,0.26458333,-2.1734199,326.28126)"
         inkscape:label="Japan1Shadow"
         style="display:inline;fill:#000000;fill-opacity:1;stroke:none"><path
           id="path44"
           style="display:inline;fill:#000000;fill-opacity:1;stroke:none;stroke-width:3.571;stroke-linecap:round"
           d="m 201.77799,783.49882 c 19.98366,20.41088 38.84862,41.88778 56.5122,64.33657 52.56058,-24.46934 92.07509,-70.34104 108.49156,-125.94551 L 64.252,721.89 v -94.488 l 423.30703,-2.1e-4 c 3e-5,124.45138 -65.15344,239.82002 -171.72896,304.08399 12.52207,20.96591 24.06787,42.49968 34.60018,64.53227 l -88.90409,50.09445 C 228.26638,966.91876 180.88162,894.43117 121.68483,832.18996 L 201.778,783.499"
           sodipodi:insensitive="true"
           inkscape:label="J1"
           sodipodi:nodetypes="ccccccccccc" /><path
           id="path45"
           style="display:inline;fill:#000000;fill-opacity:1;stroke:none;stroke-width:3.571;stroke-linecap:round"
           d="M 547.37981,847.83519 C 539.64234,810.16233 526.07893,773.92585 507.178,740.431 l 73.97081,-34.0598 c 22.19223,36.03833 36.72547,76.26053 42.69411,118.16077 z"
           inkscape:label="J2"
           sodipodi:nodetypes="ccccc" /><path
           id="path47"
           style="display:inline;fill:#000000;fill-opacity:1;stroke:none;stroke-width:3.571;stroke-linecap:round"
           d="m 661.0162,825.09094 c 2.3e-4,-38.83015 -7.11754,-77.33133 -21.00023,-113.59491 l 79.4561,-14.73119 c 9.82517,39.12147 14.80591,79.30214 14.83012,119.63841 z"
           inkscape:label="J3"
           sodipodi:nodetypes="ccccc" /><path
           id="path48"
           style="display:inline;fill:#000000;fill-opacity:1;stroke:none;stroke-width:3.571;stroke-linecap:round"
           d="m 613.38723,1042.9297 c 36.34493,-4.781 71.65083,-15.53 104.49332,-31.8138 64.3227,-31.89215 113.27788,-88.11066 136.02513,-156.20678 15.94487,-47.73253 23.70249,-97.8179 22.94451,-148.13729 h -86.92906 c -1.77703,33.79884 -5.67685,67.45275 -11.67627,100.7625 -7.63002,42.3631 -32.33304,79.7295 -68.32148,103.34478 -44.25712,29.04109 -94.97594,46.75486 -147.69023,51.58165 z"
           inkscape:label="J4"
           sodipodi:nodetypes="ccccccccc" /><path
           id="path49"
           style="display:inline;fill:#000000;fill-opacity:1;stroke:none;stroke-width:3.571;stroke-linecap:round"
           d="m 1096.6739,922.27508 c 20.927,-11.8589 40.1143,-26.55356 57.0173,-43.6668 39.67,-40.16353 67.5436,-90.45348 80.5785,-145.3801 H 1107.022 c -37.6464,51.53645 -85.6367,94.64767 -140.89915,126.57602 l -54.69991,-79.25919 c 34.22853,-18.93868 65.60233,-42.62973 93.18666,-70.36735 11.0787,-11.14023 20.9298,-23.43726 29.3841,-36.67987 14.54,-22.7752 24.775,-48.02641 30.1961,-74.49782 L 1162.2,599 v 32.181 l 187.0907,5e-5 c 6e-4,88.29513 -24.3714,174.87688 -70.4303,250.20679 -15.8224,25.87783 -34.6982,49.75985 -56.2212,71.13213 -56.1771,55.78373 -128.9468,91.82083 -207.3674,102.69093 l -61.93761,-92.75014 c 50.33291,-1.56663 99.52821,-15.35861 143.33971,-40.18568"
           inkscape:label="J5"
           sodipodi:nodetypes="ccccccccccccccccc" /><path
           id="path50"
           style="display:inline;fill:#000000;fill-opacity:1;stroke:none;stroke-width:3.571;stroke-linecap:round"
           d="m 1364.3896,961.12017 c 32.7773,-14.97222 63.6754,-33.75711 92.0539,-55.96547 30.4783,-23.85157 59.3776,-49.65458 86.5162,-77.2466 31.6639,-32.19299 55.8381,-70.97312 70.8003,-113.57725 l -215.33,1.5e-4 v -90.709 l 343.9311,2e-5 c -6.1685,76.66991 -34.7525,149.8318 -82.1917,210.37781 L 1808.12,975.507 1742.38,1046 1599.0002,908.85916 c -47.7413,55.43669 -106.4626,100.36804 -172.4516,131.95294 z"
           inkscape:label="J6"
           sodipodi:nodetypes="ccccccccccccc" /><path
           id="path51"
           style="display:inline;fill:#000000;fill-opacity:1;stroke:none;stroke-width:3.571;stroke-linecap:round"
           d="m 2260.9809,996.01805 -88.9022,50.09445 c -33.2612,-79.19375 -80.6459,-151.68133 -139.8429,-213.92254 l 80.0896,-48.69105 c 19.9833,20.41079 38.8482,41.88769 56.5118,64.33648 52.5622,-24.46839 92.0783,-70.34023 108.4942,-125.94551 L 1974.8,721.89 v -94.488 l 423.3101,-2.1e-4 c 1e-4,124.45138 -65.1534,239.82002 -171.7289,304.08399 12.5221,20.96591 24.0679,42.49968 34.5997,64.53227 z"
           inkscape:label="J7"
           sodipodi:nodetypes="ccccccccccc" /><path
           id="path52"
           style="display:inline;fill:#000000;fill-opacity:1;stroke:none;stroke-width:3.571;stroke-linecap:round"
           d="m 2623.3605,680.67301 -55.4991,79.01894 c -37.9322,-33.58692 -83.6651,-57.15112 -133.0328,-68.54695 l 46.7287,-84.04287 c 51.7858,14.60601 100.0416,39.64187 141.8032,73.57088 z"
           inkscape:label="J8"
           sodipodi:nodetypes="ccccc" /><path
           id="path53"
           style="display:inline;fill:#000000;fill-opacity:1;stroke:none;stroke-width:3.571;stroke-linecap:round"
           d="m 2520.6394,883.04818 50.5309,-75.76702 c -43.0251,-31.55583 -90.077,-57.21671 -139.9024,-76.30021 L 2385.27,807.281 c 48.133,19.45442 93.6163,44.91166 135.3694,75.76718 z"
           inkscape:label="J9"
           sodipodi:nodetypes="ccccc" /><path
           id="path54"
           style="display:inline;fill:#000000;fill-opacity:1;stroke:none;stroke-width:3.571;stroke-linecap:round"
           d="m 2404.6084,943.62506 c 57.89,-0.63917 115.2646,-10.98214 169.7352,-30.59854 57.9503,-20.86956 105.2287,-63.9179 131.4227,-119.66419 18.2607,-38.86256 32.4639,-79.50514 42.3839,-121.2824 l 89.0497,58.90102 c -14.6514,55.87009 -38.486,108.9169 -70.5298,156.97237 -26.4964,39.73608 -61.5434,73.04394 -102.5755,97.48528 -68.9187,41.0524 -147.9229,62.0654 -228.1322,60.6739 z"
           inkscape:label="J10"
           sodipodi:nodetypes="ccccccccc" /><path
           id="path55"
           style="display:inline;fill:#000000;fill-opacity:1;stroke:none;stroke-width:3.571;stroke-linecap:round"
           d="m 2853.54,769.134 h 457.33 v 103.937 h -457.33 z"
           inkscape:label="J11"
           sodipodi:nodetypes="ccccc" /><path
           id="path56"
           style="display:inline;fill:#000000;fill-opacity:1;stroke:none;stroke-width:3.571;stroke-linecap:round"
           d="m 3398.4415,623.62203 c 51.6238,20.35431 97.9162,52.23626 135.3394,93.21177 l -64.483,76.52837 c -36.3052,-36.543 -78.7612,-66.40611 -125.4243,-88.22032 z"
           inkscape:label="J12"
           sodipodi:nodetypes="ccccc" /><path
           id="path57"
           style="display:inline;fill:#000000;fill-opacity:1;stroke:none;stroke-width:3.571;stroke-linecap:round"
           d="m 3692.6588,887.95332 c 32.0438,-48.05547 55.8784,-101.10228 70.5276,-156.97238 l -89.0519,-58.90101 c -9.9201,41.77726 -24.1232,82.41984 -42.3839,121.2824 -26.194,55.74631 -73.4725,98.79466 -131.4228,119.66419 -54.4706,19.61639 -111.8451,29.95935 -169.7372,30.59854 l 31.3589,102.48744 c 80.2064,1.3915 159.2107,-19.6215 228.1294,-60.6739 41.0321,-24.44135 76.0791,-57.74921 102.5754,-97.48528"
           inkscape:label="J13"
           transform="translate(-3.1496064e-8,3.6037361e-5)"
           sodipodi:nodetypes="ccccccccc" /></g><g
         id="g1"
         transform="matrix(0.26458333,0,0,0.26458333,0.47241355,325.22291)"
         inkscape:label="Japan1"
         style="display:inline;fill:#015ab5;fill-opacity:1;stroke:none"><path
           id="path14"
           style="display:inline;fill:#015ab5;fill-opacity:1;stroke:none;stroke-width:3.571;stroke-linecap:round"
           d="m 201.77799,783.49882 c 19.98366,20.41088 38.84862,41.88778 56.5122,64.33657 52.56058,-24.46934 92.07509,-70.34104 108.49156,-125.94551 L 64.252,721.89 v -94.488 l 423.30703,-2.1e-4 c 3e-5,124.45138 -65.15344,239.82002 -171.72896,304.08399 12.52207,20.96591 24.06787,42.49968 34.60018,64.53227 l -88.90409,50.09445 C 228.26638,966.91876 180.88162,894.43117 121.68483,832.18996 L 201.778,783.499"
           sodipodi:insensitive="true"
           inkscape:label="J1"
           sodipodi:nodetypes="ccccccccccc" /><path
           id="path18"
           style="display:inline;fill:#015ab5;fill-opacity:1;stroke:none;stroke-width:3.571;stroke-linecap:round"
           d="M 547.37981,847.83519 C 539.64234,810.16233 526.07893,773.92585 507.178,740.431 l 73.97081,-34.0598 c 22.19223,36.03833 36.72547,76.26053 42.69411,118.16077 z"
           inkscape:label="J2"
           sodipodi:nodetypes="ccccc" /><path
           id="path22"
           style="display:inline;fill:#015ab5;fill-opacity:1;stroke:none;stroke-width:3.571;stroke-linecap:round"
           d="m 661.0162,825.09094 c 2.3e-4,-38.83015 -7.11754,-77.33133 -21.00023,-113.59491 l 79.4561,-14.73119 c 9.82517,39.12147 14.80591,79.30214 14.83012,119.63841 z"
           inkscape:label="J3"
           sodipodi:nodetypes="ccccc" /><path
           id="path30"
           style="display:inline;fill:#015ab5;fill-opacity:1;stroke:none;stroke-width:3.571;stroke-linecap:round"
           d="m 613.38723,1042.9297 c 36.34493,-4.781 71.65083,-15.53 104.49332,-31.8138 64.3227,-31.89215 113.27788,-88.11066 136.02513,-156.20678 15.94487,-47.73253 23.70249,-97.8179 22.94451,-148.13729 h -86.92906 c -1.77703,33.79884 -5.67685,67.45275 -11.67627,100.7625 -7.63002,42.3631 -32.33304,79.7295 -68.32148,103.34478 -44.25712,29.04109 -94.97594,46.75486 -147.69023,51.58165 z"
           inkscape:label="J4"
           sodipodi:nodetypes="ccccccccc" /><path
           id="path46"
           style="display:inline;fill:#015ab5;fill-opacity:1;stroke:none;stroke-width:3.571;stroke-linecap:round"
           d="m 1096.6739,922.27508 c 20.927,-11.8589 40.1143,-26.55356 57.0173,-43.6668 39.67,-40.16353 67.5436,-90.45348 80.5785,-145.3801 H 1107.022 c -37.6464,51.53645 -85.6367,94.64767 -140.89915,126.57602 l -54.69991,-79.25919 c 34.22853,-18.93868 65.60233,-42.62973 93.18666,-70.36735 11.0787,-11.14023 20.9298,-23.43726 29.3841,-36.67987 14.54,-22.7752 24.775,-48.02641 30.1961,-74.49782 L 1162.2,599 v 32.181 l 187.0907,5e-5 c 6e-4,88.29513 -24.3714,174.87688 -70.4303,250.20679 -15.8224,25.87783 -34.6982,49.75985 -56.2212,71.13213 -56.1771,55.78373 -128.9468,91.82083 -207.3674,102.69093 l -61.93761,-92.75014 c 50.33291,-1.56663 99.52821,-15.35861 143.33971,-40.18568"
           inkscape:label="J5"
           sodipodi:nodetypes="ccccccccccccccccc" /><path
           id="path58"
           style="display:inline;fill:#015ab5;fill-opacity:1;stroke:none;stroke-width:3.571;stroke-linecap:round"
           d="m 1364.3896,961.12017 c 32.7773,-14.97222 63.6754,-33.75711 92.0539,-55.96547 30.4783,-23.85157 59.3776,-49.65458 86.5162,-77.2466 31.6639,-32.19299 55.8381,-70.97312 70.8003,-113.57725 l -215.33,1.5e-4 v -90.709 l 343.9311,2e-5 c -6.1685,76.66991 -34.7525,149.8318 -82.1917,210.37781 L 1808.12,975.507 1742.38,1046 1599.0002,908.85916 c -47.7413,55.43669 -106.4626,100.36804 -172.4516,131.95294 z"
           inkscape:label="J6"
           sodipodi:nodetypes="ccccccccccccc" /><path
           id="path80"
           style="display:inline;fill:#015ab5;fill-opacity:1;stroke:none;stroke-width:3.571;stroke-linecap:round"
           d="m 2260.9809,996.01805 -88.9022,50.09445 c -33.2612,-79.19375 -80.6459,-151.68133 -139.8429,-213.92254 l 80.0896,-48.69105 c 19.9833,20.41079 38.8482,41.88769 56.5118,64.33648 52.5622,-24.46839 92.0783,-70.34023 108.4942,-125.94551 L 1974.8,721.89 v -94.488 l 423.3101,-2.1e-4 c 1e-4,124.45138 -65.1534,239.82002 -171.7289,304.08399 12.5221,20.96591 24.0679,42.49968 34.5997,64.53227 z"
           inkscape:label="J7"
           sodipodi:nodetypes="ccccccccccc" /><path
           id="path84"
           style="display:inline;fill:#015ab5;fill-opacity:1;stroke:none;stroke-width:3.571;stroke-linecap:round"
           d="m 2623.3605,680.67301 -55.4991,79.01894 c -37.9322,-33.58692 -83.6651,-57.15112 -133.0328,-68.54695 l 46.7287,-84.04287 c 51.7858,14.60601 100.0416,39.64187 141.8032,73.57088 z"
           inkscape:label="J8"
           sodipodi:nodetypes="ccccc" /><path
           id="path88"
           style="display:inline;fill:#015ab5;fill-opacity:1;stroke:none;stroke-width:3.571;stroke-linecap:round"
           d="m 2520.6394,883.04818 50.5309,-75.76702 c -43.0251,-31.55583 -90.077,-57.21671 -139.9024,-76.30021 L 2385.27,807.281 c 48.133,19.45442 93.6163,44.91166 135.3694,75.76718 z"
           inkscape:label="J9"
           sodipodi:nodetypes="ccccc" /><path
           id="path96"
           style="display:inline;fill:#015ab5;fill-opacity:1;stroke:none;stroke-width:3.571;stroke-linecap:round"
           d="m 2404.6084,943.62506 c 57.89,-0.63917 115.2646,-10.98214 169.7352,-30.59854 57.9503,-20.86956 105.2287,-63.9179 131.4227,-119.66419 18.2607,-38.86256 32.4639,-79.50514 42.3839,-121.2824 l 89.0497,58.90102 c -14.6514,55.87009 -38.486,108.9169 -70.5298,156.97237 -26.4964,39.73608 -61.5434,73.04394 -102.5755,97.48528 -68.9187,41.0524 -147.9229,62.0654 -228.1322,60.6739 z"
           inkscape:label="J10"
           sodipodi:nodetypes="ccccccccc" /><path
           id="path100"
           style="display:inline;fill:#015ab5;fill-opacity:1;stroke:none;stroke-width:3.571;stroke-linecap:round"
           d="m 2853.54,769.134 h 457.33 v 103.937 h -457.33 z"
           inkscape:label="J11"
           sodipodi:nodetypes="ccccc" /><path
           id="path112"
           style="display:inline;fill:#015ab5;fill-opacity:1;stroke:none;stroke-width:3.571;stroke-linecap:round"
           d="m 3398.4415,623.62203 c 51.6238,20.35431 97.9162,52.23626 135.3394,93.21177 l -64.483,76.52837 c -36.3052,-36.543 -78.7612,-66.40611 -125.4243,-88.22032 z"
           inkscape:label="J12"
           sodipodi:nodetypes="ccccc" /><path
           id="path108"
           style="display:inline;fill:#015ab5;fill-opacity:1;stroke:none;stroke-width:3.571;stroke-linecap:round"
           d="m 3692.6588,887.95332 c 32.0438,-48.05547 55.8784,-101.10228 70.5276,-156.97238 l -89.0519,-58.90101 c -9.9201,41.77726 -24.1232,82.41984 -42.3839,121.2824 -26.194,55.74631 -73.4725,98.79466 -131.4228,119.66419 -54.4706,19.61639 -111.8451,29.95935 -169.7372,30.59854 l 31.3589,102.48744 c 80.2064,1.3915 159.2107,-19.6215 228.1294,-60.6739 41.0321,-24.44135 76.0791,-57.74921 102.5754,-97.48528"
           inkscape:label="J13"
           transform="translate(-3.1496064e-8,3.6037361e-5)"
           sodipodi:nodetypes="ccccccccc" /></g></g><g
       id="g2"
       style="display:inline"
       transform="matrix(0.26458333,0,0,0.26458333,0.47241354,325.22292)"
       inkscape:label="Rect"><g
         id="g60"><path
           id="path120"
           style="fill:#015ab5;fill-opacity:1;stroke:none;stroke-width:3.571;stroke-linecap:round"
           d="m 0,260.787 v -28.346 h 340.157 v 28.346 z"
           sodipodi:nodetypes="ccccc"
           inkscape:label="R1" /><path
           id="path124"
           style="fill:#015ab5;fill-opacity:1;stroke:none;stroke-width:3.571;stroke-linecap:round"
           d="M 340.157,326.929 V 298.583 H 0 v 28.346 z"
           sodipodi:nodetypes="ccccc"
           inkscape:label="R2" /><path
           id="path128"
           style="fill:#015ab5;fill-opacity:1;stroke:none;stroke-width:3.571;stroke-linecap:round"
           d="m 0,393.071 v -28.347 h 340.157 v 28.347 z"
           sodipodi:nodetypes="ccccc"
           inkscape:label="R3" /><path
           id="path132"
           style="fill:#015ab5;fill-opacity:1;stroke:none;stroke-width:3.571;stroke-linecap:round"
           d="M 340.157,459.213 H 0 v -28.347 h 340.157 z"
           sodipodi:nodetypes="ccccc"
           inkscape:label="R4" /></g><g
         id="g59"><path
           id="path276"
           style="fill:#015ab5;fill-opacity:1;stroke:none;stroke-width:3.571;stroke-linecap:round"
           d="m 3420.47,260.787 v -28.346 h 340.16 v 28.346 z"
           sodipodi:nodetypes="ccccc"
           inkscape:label="R5" /><path
           id="path280"
           style="fill:#015ab5;fill-opacity:1;stroke:none;stroke-width:3.571;stroke-linecap:round"
           d="m 3760.63,326.929 v -28.346 h -340.16 v 28.346 z"
           sodipodi:nodetypes="ccccc"
           inkscape:label="R6" /><path
           id="path284"
           style="fill:#015ab5;fill-opacity:1;stroke:none;stroke-width:3.571;stroke-linecap:round"
           d="m 3760.63,393.071 h -340.16 v -28.347 h 340.16 z"
           sodipodi:nodetypes="ccccc"
           inkscape:label="R7" /><path
           id="path288"
           style="fill:#015ab5;fill-opacity:1;stroke:none;stroke-width:3.571;stroke-linecap:round;stroke-opacity:1"
           d="m 3420.47,430.866 h 340.16 v 28.347 h -340.16 z"
           sodipodi:nodetypes="ccccc"
           inkscape:label="R8" /></g></g><g
       id="g3"
       transform="matrix(0.26458333,0,0,0.26458333,0.47241355,325.22291)"
       style="display:inline"
       inkscape:label="Japan2"><path
         id="path140"
         style="display:inline;fill:#000000;fill-opacity:1;stroke:none;stroke-width:3.571;stroke-linecap:round"
         d="m 400.94804,447.26884 c -0.78966,-8.30847 5.30272,-15.68513 13.61072,-16.47983 84.29462,-8.01157 150.14138,-76.31775 155.05788,-160.84938 0.12621,-2.16998 -1.5995,-3.99898 -3.77339,-3.9988 H 396.25821 c -8.34931,-1.8e-4 -15.1179,-6.76879 -15.1179,-15.11829 0,-8.3495 6.76859,-15.11811 15.1179,-15.11832 h 188.54162 c 8.06117,2.1e-4 14.70448,6.32539 15.09975,14.37704 5.28946,107.7458 -75.08838,200.60155 -182.47999,210.80832 -8.30896,0.78461 -15.6819,-5.31226 -16.47155,-13.62074 z"
         sodipodi:nodetypes="sccccsccccs"
         inkscape:label="J1" /><path
         id="path148"
         style="display:inline;fill:#000000;fill-opacity:1;stroke:none;stroke-width:3.571;stroke-linecap:round"
         d="m 654.048,224.22138 c 8.3495,0 15.11811,6.76859 15.11806,15.11786 v 182.34067 c 5e-5,2.33557 2.09742,4.11215 4.40127,3.72796 64.33006,-10.72767 119.96712,-50.86513 150.43743,-108.52793 3.90205,-7.37999 13.04725,-10.20041 20.42819,-6.30016 7.38093,3.90025 10.2036,13.04476 6.30515,20.42665 -35.09613,66.41683 -99.34563,112.49654 -173.50941,124.44088 -20.08759,3.23518 -38.2988,-12.27773 -38.29874,-32.62424 V 239.33924 c -6e-5,-8.34927 6.76855,-15.11786 15.11805,-15.11786 z"
         sodipodi:nodetypes="sccccsccccs"
         inkscape:label="J2" /><path
         id="path152"
         style="display:inline;fill:#000000;fill-opacity:1;stroke:none;stroke-width:3.571;stroke-linecap:round"
         d="m 961.30998,278.99185 c 3.60403,-7.53161 0.42011,-16.55882 -7.11174,-20.16285 l -70.52509,-33.74791 c -7.53147,-3.60394 -16.55869,-0.42 -20.16272,7.11161 -3.60403,7.53161 -0.42011,16.55882 7.11154,20.16308 l 70.52509,33.7474 c 7.53167,3.60422 16.55889,0.42028 20.16292,-7.11133 z"
         sodipodi:nodetypes="sccsccs"
         inkscape:label="J3" /><path
         id="path160"
         style="display:inline;fill:#000000;fill-opacity:1;stroke:none;stroke-width:3.571;stroke-linecap:round"
         d="m 966.18906,433.87053 c -29.34362,14.8176 -61.84678,22.28739 -94.71529,21.76722 -8.34757,-0.13334 -15.00686,-7.00782 -14.87475,-15.35541 0.1321,-8.34758 7.00559,-15.0079 15.3532,-14.87703 27.9728,0.4427 55.63467,-5.91448 80.60761,-18.52503 21.69934,-10.95747 41.02198,-26.09104 56.85967,-44.53271 24.3441,-28.34667 42.395,-61.5371 52.9598,-97.37775 2.3713,-7.9955 10.7693,-12.56063 18.7687,-10.20262 7.9994,2.35801 12.5784,10.74841 10.2337,18.75173 -11.7745,39.94459 -31.8924,76.93549 -59.024,108.528 -18.4306,21.46093 -40.91672,39.07216 -66.16864,51.8236"
         sodipodi:nodetypes="ccsccccsccc"
         inkscape:label="J4" /><path
         id="path170"
         style="display:inline;fill:#000000;fill-opacity:1;stroke:none;stroke-width:3.571;stroke-linecap:round"
         d="m 1302.43,383.252 -146.48,-57.3019 c -2.4787,-0.9696 -5.1565,0.85824 -5.1565,3.51988 l -8e-4,116.36917 c -0.01,8.34285 -6.7762,15.10085 -15.1189,15.10085 -8.3427,0 -15.1085,-6.758 -15.1159,-15.10085 V 230.01097 c 0.011,-8.34274 6.7765,-15.10074 15.1192,-15.10074 8.3427,0 15.1085,6.758 15.1189,15.10074 l 8e-4,58.87479 c 0,1.55571 0.9536,2.95267 2.4013,3.51938 l 160.2466,62.68865 c 7.7695,3.04432 11.6033,11.81102 8.5625,19.5841 -3.0409,7.77309 -11.8058,11.61111 -19.5803,8.57391"
         sodipodi:nodetypes="ccccsccsccccsc"
         inkscape:label="J5" /><path
         id="path174"
         style="display:inline;fill:#000000;fill-opacity:1;stroke:none;stroke-width:3.571;stroke-linecap:round"
         d="m 1254.0422,227.72661 c -7.1622,4.28139 -9.5013,13.556 -5.2242,20.72219 l 17.064,28.55236 c 4.2897,7.15866 13.5663,9.48966 20.7286,5.20827 7.1622,-4.28139 9.5013,-13.556 5.2278,-20.72221 l -17.069,-28.55236 c -4.2883,-7.15864 -13.5649,-9.48964 -20.7272,-5.20825 z"
         sodipodi:nodetypes="sccsccs"
         inkscape:label="J6" /><path
         id="path178"
         style="display:inline;fill:#000000;fill-opacity:1;stroke:none;stroke-width:3.571;stroke-linecap:round"
         d="m 1286.682,209.7019 c 7.3477,-3.94601 16.503,-1.1962 20.4593,6.14522 l 16.2009,30.16895 c 3.9366,7.35396 1.1725,16.50496 -6.1753,20.45097 -7.3477,3.94601 -16.503,1.1962 -20.4587,-6.14519 l -16.2059,-30.16894 c -3.9322,-7.354 -1.1681,-16.505 6.1797,-20.45101 z"
         sodipodi:nodetypes="sccsccs"
         inkscape:label="J7" /><path
         id="path182"
         style="display:inline;fill:#000000;fill-opacity:1;stroke:none;stroke-width:3.571;stroke-linecap:round"
         d="m 1394.3126,349.31577 c 0,8.34953 -6.7686,15.11814 -15.1181,15.11814 -8.3496,0 -15.1182,-6.76861 -15.1164,-15.11803 V 240.69183 c -0,-8.3497 6.7668,-15.11831 15.1164,-15.11831 8.3495,0 15.1181,6.76861 15.1168,15.11831 l -0,108.62417"
         sodipodi:nodetypes="csccscc"
         inkscape:label="J8" /><path
         id="path190"
         style="display:inline;fill:#000000;fill-opacity:1;stroke:none;stroke-width:3.571;stroke-linecap:round"
         d="m 1407.1319,444.25071 c 0,-8.3495 6.7686,-15.11811 15.1181,-15.11791 h 14.2685 c 58.3599,-2.1e-4 105.6711,-47.3114 105.6713,-105.67275 v -82.76822 c 0.01,-8.34288 6.7752,-15.10088 15.1179,-15.10088 8.3427,0 15.1085,6.758 15.1223,15.10105 v 82.76805 c 0,75.06035 -60.8505,135.90875 -135.9094,135.90886 H 1422.25 c -8.3495,-9e-5 -15.1181,-6.7687 -15.1181,-15.1182 z"
         sodipodi:nodetypes="sccccsccccs"
         inkscape:label="J9" /><path
         id="path194"
         style="fill:#000000;fill-opacity:1;stroke:none;stroke-width:3.571;stroke-linecap:round"
         d="m 1613.76,324.10423 c -8.3495,2.3e-4 -15.1181,6.76884 -15.1181,15.11834 0,8.3495 6.7686,15.11811 15.1181,15.11827 h 215.9298 c 8.3493,-1.6e-4 15.1179,-6.76877 15.1179,-15.11827 0,-8.3495 -6.7686,-15.11811 -15.1179,-15.11834 z"
         sodipodi:nodetypes="csccscc"
         inkscape:label="J10" /><path
         id="path206"
         style="fill:#000000;fill-opacity:1;stroke:none;stroke-width:3.571;stroke-linecap:round"
         d="m 2017.36,443.534 -152.2496,1.6e-4 c -8.3492,1.5e-4 -15.1178,-6.76846 -15.1178,-15.11796 0,-8.3495 6.7686,-15.11811 15.1178,-15.11815 h 152.25 c 11.6648,3e-5 21.1207,-9.45586 21.1207,-21.12016 V 274.76581 c 0,-2.08756 -1.6921,-3.7797 -3.7803,-3.77976 h -169.5904 c -8.3492,4e-5 -15.1178,-6.76857 -15.1178,-15.11807 0,-8.3495 6.7686,-15.11811 15.1178,-15.11805 h 188.4892 c 8.3491,-5e-5 15.1177,6.76855 15.119,15.11806 v 136.3099 c -0,28.3633 -22.9944,51.3564 -51.3578,51.35642"
         sodipodi:nodetypes="ccsccccccsccccc"
         inkscape:label="J11" /><path
         id="path210"
         style="display:inline;fill:#000000;fill-opacity:1;stroke:none;stroke-width:3.571;stroke-linecap:round"
         d="m 2203.8594,286.00203 c 4.8007,-6.84337 3.1366,-16.28379 -3.7148,-21.07309 -24.233,-16.9998 -50.4485,-30.98137 -78.066,-41.6352 -7.7867,-2.99206 -16.5254,0.88823 -19.5276,8.67098 -3.0023,7.78275 0.8665,16.52651 8.6453,19.539 25.3244,9.7692 49.363,22.58984 71.5839,38.17808 6.8354,4.81209 16.2785,3.16361 21.0792,-3.67977 z"
         sodipodi:nodetypes="sccsccs"
         inkscape:label="J12" /><path
         id="path220"
         style="display:inline;fill:#000000;fill-opacity:1;stroke:none;stroke-width:3.571;stroke-linecap:round"
         d="m 2118.6397,457.33693 c 60.7635,-1.51686 117.9767,-28.95213 157.2028,-75.3832 16.6722,-19.73446 30.9803,-41.3502 42.6356,-64.40715 7.1149,-14.07317 12.4519,-28.97523 15.8909,-44.364 1.8187,-8.14756 -3.3107,-16.2271 -11.4578,-18.04777 -8.1471,-1.82066 -16.2279,3.30674 -18.0506,11.45342 -2.893,12.94539 -7.3825,25.48136 -13.3657,37.32004 -10.5899,20.9539 -23.5929,40.59804 -38.7444,58.5325 -33.6511,39.83205 -82.7328,63.36807 -134.8655,64.66926 l -4.5151,0.11285 c -8.3456,0.21013 -14.941,7.14491 -14.7327,15.49044 0.2083,8.34552 7.1415,14.94261 15.4849,14.73646 z"
         sodipodi:nodetypes="ccccscccccscc"
         inkscape:label="J13" /><path
         id="path234"
         style="fill:#000000;fill-opacity:1;stroke:none;stroke-width:3.571;stroke-linecap:round"
         d="m 2425.2593,455.72171 c 47.0365,1.52268 94.1045,-1.81698 140.4547,-9.96582 8.2179,-1.45115 13.7058,-9.28651 12.2608,-17.50553 -1.445,-8.21902 -9.2762,-13.71277 -17.4963,-12.27396 -44.2997,7.78833 -89.2853,10.98024 -134.2409,9.52492 -17.5024,-0.56659 -31.3976,-14.91892 -31.3976,-32.43038 v -51.32202 c 0,-2.00199 1.561,-3.65665 3.5595,-3.77319 51.5838,-3.00883 101.9123,-17.1052 147.5543,-41.32806 7.369,-3.91725 10.17,-13.06467 6.2578,-20.43634 -3.9123,-7.37168 -13.0578,-10.17892 -20.4321,-6.27167 -41.1379,21.83246 -86.4404,34.68682 -132.9143,37.71372 -2.1794,0.14196 -4.0252,-1.58749 -4.0252,-3.77146 l -8e-4,-66.48305 c -0.01,-8.34285 -6.7763,-15.10085 -15.119,-15.10085 -8.3427,0 -15.1085,6.758 -15.1192,15.10085 l 9e-4,155.67207 c 0,33.8296 26.8454,61.55619 60.6574,62.65077"
         sodipodi:nodetypes="ccsccccccsccccsccc"
         inkscape:label="J14" /><path
         d="m 2574.8552,215.07491 a 23.26435,23.26435 0 0 0 -21.5274,23.19922 23.26465,23.26465 0 0 0 46.5293,0 23.26435,23.26435 0 0 0 -25.0019,-23.19922 z m 0.7578,15.13086 a 8.1462215,8.1462215 0 0 1 9.1269,8.06836 8.1464845,8.1464845 0 0 1 -16.2929,0 8.1462215,8.1462215 0 0 1 7.166,-8.06836 z"
         style="display:inline;stroke:none;stroke-width:3.571;stroke-linecap:round"
         id="path43"
         inkscape:label="J15" /><path
         id="path250"
         style="fill:#000000;fill-opacity:1;stroke:none;stroke-width:3.571;stroke-linecap:round"
         d="m 2801.0882,414.041 29.2503,-2e-4 c 8.3477,0.003 15.1129,6.77056 15.1129,15.11791 0,8.34735 -6.7652,15.11507 -15.117,15.1182 h -204.043 c -8.3461,-0.003 -15.1113,-6.77085 -15.1113,-15.1182 0,-8.34735 6.7652,-15.11507 15.1126,-15.11791 h 136.48 c 1.8478,-2e-4 3.4247,-1.33624 3.7278,-3.15887 l 16.5208,-99.24878 c 0.7179,-4.30277 -2.6004,-8.21935 -6.9619,-8.21926 H 2653.898 c -8.3516,-1.1e-4 -15.1202,-6.76872 -15.1202,-15.11822 0,-8.3495 6.7686,-15.11811 15.1202,-15.11789 h 122.1614 c 23.0438,-2.2e-4 40.574,20.69032 36.7898,43.42202 l -15.4892,93.04034 c -0.3836,2.30371 1.3929,4.40046 3.7282,4.40086 z"
         sodipodi:nodetypes="ccsccsccccccsccccc"
         inkscape:label="J16" /><path
         id="path254"
         style="fill:#000000;fill-opacity:1;stroke:none;stroke-width:3.571;stroke-linecap:round"
         d="m 2847.7026,339.22257 c 0,-8.3495 6.7686,-15.11811 15.1178,-15.11834 H 3080.29 c 8.3495,2.3e-4 15.1181,6.76884 15.1181,15.11834 0,8.3495 -6.7686,15.11811 -15.1181,15.11827 h -217.4696 c -8.3492,-1.6e-4 -15.1178,-6.76877 -15.1178,-15.11827 z"
         sodipodi:nodetypes="sccsccs"
         inkscape:label="J17" /><path
         id="path272"
         style="fill:#000000;fill-opacity:1;stroke:none;stroke-width:3.571;stroke-linecap:round"
         d="m 3187.6619,255.54952 c -10.1637,27.51874 -30.8575,49.86367 -57.5166,62.10597 -7.5744,3.49206 -10.8898,12.45862 -7.4091,20.03826 3.4807,7.57964 12.4422,10.9085 20.0271,7.43924 33.9572,-15.59365 60.316,-44.05559 73.2621,-79.10771 0.3974,-1.07592 1.4229,-1.79041 2.5723,-1.79034 h 114.5814 c 3.4736,-10e-5 6.125,3.10616 5.5795,6.53765 -5.675,35.69564 -21.0004,69.16069 -44.319,96.77639 -1.3059,1.5465 -3.5983,1.78967 -5.1996,0.55179 l -67.1901,-51.95478 c -6.6058,-5.09693 -16.0917,-3.87888 -21.1954,2.72156 -5.1036,6.60045 -3.8953,16.08762 2.6955,21.19845 l 62.9406,48.6648 c 1.9394,1.49872 1.961,4.41784 0.045,5.9453 -31.3407,24.98027 -69.5166,39.87511 -109.4936,42.72041 -8.3284,0.59277 -14.5994,7.82483 -14.0067,16.15326 0.5928,8.32844 7.8249,14.59944 16.1533,14.00667 105.9649,-7.54187 192.7531,-87.1211 209.4328,-192.03645 3.4648,-21.79347 -13.3745,-41.52137 -35.4414,-41.52116 h -114.582 c -13.8082,-1.8e-4 -26.1526,8.59998 -30.9358,21.55069 z"
         sodipodi:nodetypes="ccsccccccccsccccsccccc"
         inkscape:label="J18" /></g></g><g
     id="g4"
     transform="matrix(0.98170441,0,0,0.98170439,-62.74595,304.93783)"
     style="display:inline"
     inkscape:label="MaxLogo"><g
       id="g46"
       inkscape:label="CommodoreOutline"
       style="display:none"
       transform="matrix(0.26458333,0,0,0.26458333,67.204167,-310.62083)"><path
         class="st0"
         d="m 59.2,168.3 c -21.1,0 -36.9,-11 -45.8,-31.9 C 6.4,120 5,100.9 5,87.8 5,13 43.6,5 60.2,5 c 21.4,0 44.7,15.5 48.3,50.1 l 0.5,5.1 -18.4,1.3 -0.5,-4.8 C 87.9,36.1 76.1,22.8 60,22.8 45.1,22.8 35,31.4 29,49 c -3.5,10.3 -5.4,23.4 -5.4,37.9 0,16.2 2,29.7 6,40.1 6,15.7 15.9,23.4 30.2,23.4 20.9,0 28.5,-18.3 33.7,-38.1 l 1.3,-5.1 17.8,5.7 -1.2,4.6 c -3.6,13.9 -13.3,50.8 -52.2,50.8 z"
         id="path1-5"
         style="fill:#ffffff"
         inkscape:label="O_Outline1" /><path
         class="st0"
         d="m 60.2,9.9 c 19.8,0 40.1,14.7 43.4,45.6 L 95,56.1 C 92.4,31.9 77.7,17.8 60,17.8 c -40.1,0 -41.4,55.8 -41.4,69.1 0,20.4 3.1,68.5 41.2,68.5 27.3,0 34.8,-27.7 38.5,-41.8 l 8.4,2.6 C 103,130.1 94.1,163.3 59.2,163.3 15,163.3 9.9,111.6 9.9,87.7 9.9,26.6 36.4,9.9 60.2,9.9 M 60.2,0 C 43.3,0 28.9,6.8 18.4,19.7 6.2,34.7 0,57.6 0,87.8 c 0,13.6 1.5,33.5 8.9,50.6 9.7,22.8 27.2,34.9 50.4,34.9 18.1,0 33.2,-7.8 43.5,-22.6 8.1,-11.6 11.6,-24.8 13.5,-31.9 l 2.4,-9.1 -9,-2.9 -8.4,-2.6 -10,-3.2 -2.6,10.1 c -5.4,20.6 -12.4,34.3 -28.9,34.3 -16.1,0 -22.3,-11.5 -25.6,-20.2 -3.7,-9.9 -5.6,-22.8 -5.6,-38.3 0,-14 1.8,-26.5 5.1,-36.3 7,-20.5 18.4,-22.8 26.3,-22.8 13.3,0 23.2,11.6 25.2,29.5 l 1,9.5 9.5,-0.7 8.6,-0.6 10.2,-0.7 -1.1,-10.2 C 111.6,37.9 105.2,23.8 94.8,14 85.5,4.9 73.1,0 60.2,0 Z"
         id="path2-7"
         style="fill:#ffffff"
         inkscape:label="C_Outline2" /><path
         class="st0"
         d="m 511.5,168.3 c -22.9,0 -40.1,-12.1 -49.5,-35 -7.4,-17.9 -8.2,-37.5 -8.2,-45.1 C 453.8,72.9 455.7,51 465,33.3 474.7,14.8 490.6,5 510.9,5 c 42.5,0 57.5,43 57.5,79.7 0,53.1 -20.7,83.6 -56.9,83.6 z M 510.9,22.8 c -12.9,0 -22.4,5.7 -28.9,17.5 -6.2,11.2 -9.5,28.1 -9.5,48.7 0,6.1 0.6,21.9 6.1,36.2 6.5,16.7 17.5,25.2 32.7,25.2 14.8,0 25.2,-7.7 31.6,-23.6 5.6,-13.9 6.8,-30.7 6.8,-42.4 0,-7 -0.8,-25 -8,-40.2 C 535,30.1 524.6,22.8 510.9,22.8 Z"
         id="path3-5"
         style="fill:#ffffff"
         inkscape:label="O_Outline1" /><path
         class="st0"
         d="m 510.9,9.9 c 43.2,0 52.6,48.1 52.6,74.8 0,33.2 -9,78.6 -52,78.6 -49.5,0 -52.8,-60.1 -52.8,-75.2 0,-35.8 11,-78.2 52.2,-78.2 m 0.4,145.5 c 38.7,0 43.4,-47.5 43.4,-70.9 0,-24 -7.9,-66.6 -43.8,-66.6 -30.8,0 -43.4,29.7 -43.4,71.1 0,12.8 2.6,66.4 43.8,66.4 M 510.9,0 c -22.3,0 -39.7,10.7 -50.3,31 -9.7,18.6 -11.8,41.3 -11.8,57.2 0,7.9 0.8,28.4 8.6,47 10.3,24.9 29,38.1 54.1,38.1 23,0 40.6,-11.2 51,-32.4 9,-18.3 10.9,-40.6 10.9,-56.1 0,-8.9 -1.1,-31.9 -11.1,-51.9 C 551.4,11.4 533.6,0 510.9,0 Z m 0.4,145.5 c -13.1,0 -22.3,-7.2 -28.1,-22.1 -5.4,-13.9 -5.8,-29.9 -5.8,-34.4 0,-19.8 3.1,-35.7 8.9,-46.2 5.7,-10.2 13.5,-14.9 24.6,-14.9 17.6,0 24.2,14 26.4,18.6 6.8,14.3 7.5,31.4 7.5,38.1 0,11.2 -1.1,27.4 -6.5,40.5 -5.7,13.9 -14.2,20.4 -27,20.4 z"
         id="path4-4"
         style="fill:#ffffff"
         inkscape:label="O_Outline2" /><polygon
         class="st0"
         points="1034.1,165.6 1015.4,165.6 1015.4,48.1 976.8,146.2 937.6,47.8 937.6,165.6 918.9,165.6 918.9,7.6 941.3,7.6 976.8,97.2 1011.9,7.6 1034.1,7.6 "
         id="polygon4"
         style="fill:#ffffff"
         inkscape:label="M_Outline1" /><path
         class="st0"
         d="m 1029.2,12.6 v 148.1 h -8.8 V 21.9 L 976.8,132.7 932.6,21.9 v 138.7 h -8.8 v -148 h 14.1 l 38.9,98.2 38.5,-98.2 h 13.9 m 9.9,-10 h -9.9 -13.9 -6.8 L 1006,8.9 976.7,83.7 947.1,8.9 944.6,2.6 h -6.7 -14.1 -9.9 v 9.9 148.1 9.9 h 9.9 8.8 9.9 v -9.9 -87 l 25.1,62.8 9.3,23.3 9.2,-23.3 24.4,-62.1 v 86.4 9.9 h 9.9 8.8 9.9 V 160.7 12.6 Z"
         id="path5"
         style="fill:#ffffff"
         inkscape:label="M_Outline2" /><polygon
         class="st0"
         points="1506.2,165.6 1487.5,165.6 1487.5,48.1 1448.9,146.2 1409.6,47.8 1409.6,165.6 1390.9,165.6 1390.9,7.6 1413.3,7.6 1448.8,97.2 1484,7.6 1506.2,7.6 "
         id="polygon5"
         style="fill:#ffffff"
         inkscape:label="M_Outline1" /><path
         class="st0"
         d="m 1501.2,12.6 v 148.1 h -8.8 V 21.9 l -43.6,110.8 -44.2,-110.8 v 138.7 h -8.8 v -148 h 14.1 l 38.9,98.2 38.5,-98.2 h 13.9 m 9.9,-10 h -9.9 -13.9 -6.8 l -2.5,6.3 -29.3,74.8 -29.6,-74.8 -2.5,-6.3 h -6.7 -14.1 -9.9 v 9.9 148.1 9.9 h 9.9 8.8 9.9 v -9.9 -87 l 25.1,62.8 9.3,23.3 9.2,-23.3 24.4,-62.1 v 86.4 9.9 h 9.9 8.8 9.9 V 160.7 12.6 Z"
         id="path6"
         style="fill:#ffffff"
         inkscape:label="M_Outline2" /><path
         class="st0"
         d="m 1914.8,168.3 c -22.9,0 -40.1,-12.1 -49.5,-35 -7.4,-17.9 -8.2,-37.5 -8.2,-45.1 0,-15.3 1.9,-37.2 11.2,-54.9 9.7,-18.5 25.5,-28.3 45.9,-28.3 42.5,0 57.5,43 57.5,79.7 0,53.1 -20.8,83.6 -56.9,83.6 z m -0.6,-145.5 c -12.9,0 -22.4,5.7 -28.9,17.5 -6.2,11.2 -9.5,28.1 -9.5,48.7 0,6.1 0.6,21.9 6.1,36.2 6.5,16.7 17.5,25.2 32.7,25.2 14.8,0 25.2,-7.7 31.6,-23.6 5.6,-13.9 6.8,-30.7 6.8,-42.4 0,-7 -0.8,-25 -8,-40.2 -6.7,-14.1 -17.1,-21.4 -30.8,-21.4 z"
         id="path7"
         style="fill:#ffffff"
         inkscape:label="O_Outline1" /><path
         class="st0"
         d="m 1914.2,9.9 c 43.2,0 52.6,48.1 52.6,74.8 0,33.2 -9,78.6 -52,78.6 -49.5,0 -52.8,-60.1 -52.8,-75.2 0,-35.8 11,-78.2 52.2,-78.2 m 0.4,145.5 c 38.7,0 43.4,-47.5 43.4,-70.9 0,-24 -7.9,-66.6 -43.8,-66.6 -30.8,0 -43.4,29.7 -43.4,71.1 0,12.8 2.6,66.4 43.8,66.4 M 1914.2,0 c -22.3,0 -39.7,10.7 -50.3,31 -9.7,18.6 -11.8,41.3 -11.8,57.2 0,7.9 0.8,28.4 8.6,47 10.3,24.9 29,38.1 54.1,38.1 23,0 40.6,-11.2 51,-32.4 9,-18.3 10.9,-40.6 10.9,-56.1 0,-8.9 -1.1,-31.9 -11.1,-51.9 C 1954.7,11.4 1936.9,0 1914.2,0 Z m 0.4,145.5 c -13.1,0 -22.3,-7.2 -28.1,-22.1 -5.4,-13.9 -5.8,-29.9 -5.8,-34.4 0,-19.8 3.1,-35.7 8.9,-46.2 5.7,-10.2 13.5,-14.9 24.6,-14.9 17.6,0 24.2,14 26.4,18.6 6.8,14.3 7.5,31.4 7.5,38.1 0,11.2 -1.1,27.4 -6.5,40.5 -5.7,13.9 -14.3,20.4 -27,20.4 z"
         id="path8"
         style="fill:#ffffff"
         inkscape:label="O_Outline2" /><path
         class="st0"
         d="M 2321.5,165.6 V 7.6 h 38.2 c 44,0 67.3,27.1 67.3,78.5 0,52.8 -22.4,79.5 -66.5,79.5 z m 38.4,-17.8 c 33.5,0 48.4,-19.1 48.4,-61.9 0,-40.7 -16,-60.4 -49,-60.4 h -19.1 v 122.3 z"
         id="path9"
         style="fill:#ffffff"
         inkscape:label="D_Outline1" /><path
         class="st0"
         d="m 2359.7,12.6 c 46,0 62.3,31.2 62.3,73.5 0,45.6 -16.5,74.6 -61.5,74.6 h -34 V 12.6 h 33.2 m -24.4,140.1 h 24.7 c 44.2,0 53.4,-32 53.4,-66.8 0,-39.9 -15.3,-65.4 -54,-65.4 h -24 V 152.7 M 2359.7,2.6 h -33.2 -9.9 v 9.9 148.1 9.9 h 9.9 34 c 24.8,0 43.5,-8.1 55.6,-24.1 10.7,-14.2 15.9,-33.9 15.9,-60.4 0,-24.9 -5.3,-44.6 -15.9,-58.6 C 2403.7,11 2384.7,2.6 2359.7,2.6 Z m -14.5,27.8 h 14.1 c 15.5,0 26.5,4.5 33.6,13.8 6.9,9.1 10.4,23.1 10.4,41.7 0,18.6 -2.8,32.1 -8.6,41.2 -6.7,10.6 -18.1,15.7 -34.9,15.7 h -14.7 V 30.4 Z"
         id="path10"
         style="fill:#ffffff"
         inkscape:label="D_Outline2" /><path
         class="st0"
         d="m 2828.9,168.3 c -22.9,0 -40.1,-12.1 -49.5,-35 -7.4,-17.9 -8.2,-37.5 -8.2,-45.1 0,-15.3 1.9,-37.2 11.2,-54.9 9.7,-18.5 25.6,-28.3 45.9,-28.3 42.5,0 57.5,43 57.5,79.7 0,53.1 -20.7,83.6 -56.9,83.6 z m -0.6,-145.5 c -12.9,0 -22.4,5.7 -28.9,17.5 -6.2,11.2 -9.5,28.1 -9.5,48.7 0,6.1 0.6,21.9 6.1,36.2 6.5,16.7 17.5,25.2 32.7,25.2 14.8,0 25.2,-7.7 31.6,-23.6 5.6,-13.9 6.8,-30.7 6.8,-42.4 0,-7 -0.8,-25 -8,-40.2 -6.7,-14.1 -17.1,-21.4 -30.8,-21.4 z"
         id="path11"
         style="fill:#ffffff"
         inkscape:label="O_Outline1" /><path
         class="st0"
         d="m 2828.3,9.9 c 43.2,0 52.6,48.1 52.6,74.8 0,33.2 -9,78.6 -52,78.6 -49.5,0 -52.8,-60.1 -52.8,-75.2 0,-35.8 11,-78.2 52.2,-78.2 m 0.4,145.5 c 38.7,0 43.4,-47.5 43.4,-70.9 0,-24 -7.9,-66.6 -43.8,-66.6 -30.8,0 -43.4,29.7 -43.4,71.1 0,12.8 2.6,66.4 43.8,66.4 M 2828.3,0 c -22.3,0 -39.7,10.7 -50.3,31 -9.7,18.6 -11.8,41.3 -11.8,57.2 0,7.9 0.8,28.4 8.6,47 10.3,24.9 29,38.1 54.1,38.1 23,0 40.6,-11.2 51,-32.4 9,-18.3 10.9,-40.6 10.9,-56.1 0,-8.9 -1.1,-31.9 -11.1,-51.9 C 2868.8,11.4 2851,0 2828.3,0 Z m 0.4,145.5 c -13.1,0 -22.3,-7.2 -28.1,-22.1 -5.4,-13.9 -5.8,-29.9 -5.8,-34.4 0,-19.8 3.1,-35.7 8.9,-46.2 5.7,-10.2 13.5,-14.9 24.6,-14.9 17.6,0 24.2,14 26.4,18.6 6.8,14.3 7.5,31.4 7.5,38.1 0,11.2 -1.1,27.4 -6.5,40.5 -5.7,13.9 -14.3,20.4 -27,20.4 z"
         id="path12"
         style="fill:#ffffff"
         inkscape:label="O_Outline2" /><path
         class="st0"
         d="m 3314.9,165.6 -33.2,-70.1 h -27.6 v 70.1 h -18.7 V 7.6 h 45.1 c 20.9,0 35,6.1 43.3,18.7 5,7.6 7.7,16.8 7.7,25.9 0,13.3 -5.4,25.2 -14.7,32.6 -5.7,4.6 -11,6.7 -15.9,8 l 34.1,72.8 z m -44.1,-87.9 c 15.7,0 20.6,-0.7 24.5,-2 l 0.2,-0.1 c 16.2,-4.8 17.4,-19.9 17.4,-24.4 0,-22.9 -19.7,-25.8 -36.8,-25.8 h -21.9 v 52.2 h 16.6 z"
         id="path13"
         style="fill:#ffffff"
         inkscape:label="R_Outline1" /><path
         class="st0"
         d="m 3280.5,12.6 c 17.7,0 31.4,4.7 39.1,16.5 4.7,7.1 6.9,15.5 6.9,23.2 0,10.8 -4.1,21.8 -12.8,28.7 -7.3,5.9 -13.9,7.1 -20,8.4 l 33.4,71.3 h -9.2 L 3284.7,90.6 H 3249 v 70.1 h -8.8 V 12.6 h 40.3 m -31.3,70.1 h 21.6 c 15.5,0 21.2,-0.6 26.1,-2.2 14.5,-4.3 21,-16.7 21,-29.1 0,-30.8 -31.6,-30.8 -41.8,-30.8 h -26.9 v 62.1 m 31.3,-80.1 h -40.1 -9.9 v 9.9 148.1 9.9 h 9.9 8.8 9.9 v -9.9 -60.2 h 19.4 l 30.5,64.4 2.7,5.7 h 6.3 9.2 15.6 l -6.6,-14.1 -28.4,-60.6 c 3.8,-1.5 7.9,-3.7 12.1,-7.1 10.5,-8.3 16.6,-21.6 16.6,-36.5 0,-10.1 -3,-20.3 -8.6,-28.7 -9.1,-13.8 -25,-20.9 -47.4,-20.9 z m -21.4,27.8 h 17 c 22.6,0 31.8,6 31.8,20.8 0,3.6 -1,15.8 -13.9,19.6 h -0.2 l -0.2,0.1 c -3.4,1.1 -8,1.7 -22.9,1.7 H 3259 V 30.4 Z"
         id="path14-1"
         style="fill:#ffffff"
         inkscape:label="R_Outline2" /><polygon
         class="st0"
         points="3772.6,165.6 3677.3,165.6 3677.3,7.6 3770.6,7.6 3770.6,25.5 3696,25.5 3696,74.4 3749,74.4 3749,92.3 3696,92.3 3696,147.8 3772.6,147.8 "
         id="polygon14"
         style="fill:#ffffff"
         inkscape:label="E_Outline1" /><path
         class="st0"
         d="m 3765.6,12.6 v 7.9 H 3691 v 58.9 h 53 v 7.9 h -53 v 65.4 h 76.6 v 7.9 h -85.4 v -148 h 83.4 m 9.9,-10 h -9.9 -83.3 -9.9 v 9.9 148.1 9.9 h 9.9 85.4 9.9 v -9.9 -7.9 -9.9 h -9.9 -66.7 V 97.3 h 43 9.9 v -9.9 -7.9 -9.9 h -9.9 -43 v -39 h 64.6 9.9 v -9.9 -7.9 z"
         id="path15"
         style="fill:#ffffff"
         inkscape:label="E_Outline2" /></g><g
       id="g45"
       inkscape:label="MachineOutline"
       style="display:none"
       transform="matrix(0.26458333,0,0,0.26458333,67.204167,-310.62083)"><polygon
         class="st0"
         points="1713.6,1170.2 1737.6,1170.2 1737.6,1346.8 1717.8,1346.8 1717.8,1211.9 1673.7,1323.9 1628.9,1211.5 1628.9,1346.8 1609.1,1346.8 1609.1,1170.2 1633.3,1170.2 1673.7,1272.1 "
         id="polygon16"
         style="fill:#ffffff"
         inkscape:label="M_Outline1" /><path
         class="st0"
         d="m 1732.6,1175.2 v 166.7 h -9.9 v -156.1 l -49.1,124.7 -49.8,-124.7 v 156.1 h -9.9 v -166.7 h 15.8 l 43.8,110.5 43.3,-110.5 h 15.8 m 9.9,-10 h -9.9 -15.6 -6.8 l -2.5,6.3 -34.1,87.1 -34.5,-87.1 -2.5,-6.3 h -6.7 -15.8 -9.9 v 9.9 166.7 9.9 h 9.9 9.9 9.9 v -9.9 -104.5 l 30.6,76.7 9.3,23.3 9.2,-23.3 29.9,-76 v 103.8 9.9 h 9.9 9.9 9.9 v -9.9 -166.7 -9.9 z"
         id="path16"
         style="fill:#ffffff"
         inkscape:label="M_Outline2" /><path
         class="st0"
         d="m 1850.9,1346.8 -16,-54.3 h -50.1 l -15.6,54.3 h -20.4 l 50.8,-176.6 h 19.6 l 52.2,176.6 z m -21.8,-73.2 -19.9,-67 -19.2,67 z"
         id="path17"
         style="fill:#ffffff"
         inkscape:label="A_Outline1" /><path
         class="st0"
         d="m 1815.4,1175.2 49.3,166.7 h -10.1 l -16,-54.3 H 1781 l -15.6,54.3 h -10.1 l 47.9,-166.7 h 12.2 m -31.9,103.4 h 52.3 l -26.6,-89.6 -25.7,89.6 m 39.3,-113.4 h -7.4 -12.2 -7.5 l -2.1,7.2 -47.9,166.7 -3.6,12.7 h 13.2 10.1 7.5 l 2.1,-7.2 13.5,-47.1 h 42.7 l 13.9,47.2 2.1,7.1 h 7.4 10.1 13.3 l -3.8,-12.7 -49.3,-166.7 z m -26.1,103.4 12.7,-44.3 13.1,44.3 z"
         id="path18-2"
         style="display:inline;fill:#ffffff"
         inkscape:label="A_Outline2" /><path
         class="st0"
         d="m 1932.1,1349.8 c -23.4,0 -41,-12.3 -51,-35.5 -7.8,-18.3 -9.5,-39.8 -9.5,-54.5 0,-83.5 43.1,-92.5 61.6,-92.5 23.8,0 49.7,17.3 53.8,55.8 l 0.5,5.1 -19.5,1.4 -0.5,-4.8 c -2.6,-23.5 -16.1,-38.7 -34.5,-38.7 -16.8,0 -28.7,10.1 -35.5,29.9 -4,11.6 -6.1,26.5 -6.1,42.8 0,18.3 2.3,33.5 6.8,45.4 6.8,18 18.1,26.7 34.6,26.7 23.9,0 32.7,-20.8 38.5,-43.3 l 1.3,-5.1 18.9,6 -1.2,4.6 c -4.1,15.5 -15,56.7 -58.2,56.7 z"
         id="path19"
         style="fill:#ffffff"
         inkscape:label="C_Outline1" /><path
         class="st0"
         d="m 1933.2,1172.2 c 22.2,0 45.2,16.5 48.8,51.4 l -9.6,0.7 c -3,-27.3 -19.5,-43.1 -39.4,-43.1 -45.2,0 -46.5,62.8 -46.5,77.7 0,22.9 3.4,77 46.3,77 30.7,0 39.2,-31.2 43.3,-47 l 9.4,3 c -4.1,15.6 -14.2,53 -53.4,53 -49.8,0 -55.5,-58.2 -55.5,-85.1 0,-68.8 29.8,-87.6 56.6,-87.6 m 0,-9.9 c -18.6,0 -34.6,7.5 -46.1,21.7 -13.6,16.7 -20.5,42.2 -20.5,75.8 0,15.2 1.7,37.4 9.9,56.5 10.8,25.2 30,38.5 55.5,38.5 20,0 36.6,-8.6 48,-24.9 9,-12.9 12.9,-27.6 15,-35.5 l 2.4,-9.1 -9,-2.9 -9.4,-3 -10,-3.2 -2.6,10.1 c -1.7,6.7 -4.7,17.8 -10.4,26.5 -5.9,9 -13.4,13.1 -23.4,13.1 -18.9,0 -26.1,-13.4 -30,-23.5 -4.3,-11.3 -6.4,-25.9 -6.4,-43.6 0,-15.8 2,-30.1 5.8,-41.2 9.1,-26.6 25.4,-26.6 30.8,-26.6 15.7,0 27.3,13.4 29.6,34.3 l 1,9.5 9.5,-0.7 9.6,-0.7 10.2,-0.7 -1.1,-10.2 c -2,-18.5 -9,-34.1 -20.5,-44.9 -10.1,-9.9 -23.7,-15.3 -37.9,-15.3 z"
         id="path20"
         style="fill:#ffffff"
         inkscape:label="C_Outline2" /><polygon
         class="st0"
         points="2100,1170.2 2119.7,1170.2 2119.7,1346.8 2100,1346.8 2100,1264.3 2025.3,1264.3 2025.3,1346.8 2005.5,1346.8 2005.5,1170.2 2025.3,1170.2 2025.3,1245.4 2100,1245.4 "
         id="polygon20"
         style="fill:#ffffff"
         inkscape:label="H_Outline1" /><path
         class="st0"
         d="m 2114.8,1175.2 v 166.7 h -9.9 v -82.5 h -84.6 v 82.5 h -9.9 v -166.7 h 9.9 v 75.2 h 84.6 v -75.2 h 9.9 m 9.9,-10 h -9.9 -9.9 -9.9 v 9.9 65.3 h -64.8 v -65.3 -9.9 h -9.9 -9.9 -9.9 v 9.9 166.7 9.9 h 9.9 9.9 9.9 v -9.9 -72.6 h 64.8 v 72.6 9.9 h 9.9 9.9 9.9 v -9.9 -166.7 z"
         id="path21"
         style="fill:#ffffff"
         inkscape:label="H_Outline2" /><rect
         x="2143.5"
         y="1170.2"
         class="st0"
         width="19.799999"
         height="176.60001"
         id="rect21"
         style="fill:#ffffff"
         inkscape:label="I_Outline1" /><path
         class="st0"
         d="m 2158.3,1175.2 v 166.7 h -9.9 v -166.7 h 9.9 m 10,-10 h -9.9 -9.9 -9.9 v 9.9 166.7 9.9 h 9.9 9.9 9.9 v -9.9 -166.7 z"
         id="path22-0"
         style="fill:#ffffff"
         inkscape:label="I_Outline2" /><polygon
         class="st0"
         points="2206.4,1208.1 2206.4,1346.8 2186.6,1346.8 2186.6,1170.2 2208.8,1170.2 2278.6,1299.7 2278.6,1170.2 2298.3,1170.2 2298.3,1346.8 2281.2,1346.8 "
         id="polygon22"
         style="fill:#ffffff"
         inkscape:label="N_Outline1" /><path
         class="st0"
         d="m 2293.4,1175.2 v 166.7 h -9.2 l -82.8,-153.4 v 153.4 h -9.9 v -166.7 h 14.2 l 77.7,144.2 v -144.2 h 10 m 9.9,-10 h -9.9 -9.9 -9.9 v 9.9 104.9 l -59.1,-109.6 -2.8,-5.2 h -5.9 -14.2 -9.9 v 9.9 166.7 9.9 h 9.9 9.9 9.9 v -9.9 -114.1 l 64.1,118.8 2.8,5.2 h 5.9 9.2 9.9 v -9.9 -166.7 z"
         id="path23"
         style="display:inline;fill:#ffffff"
         inkscape:label="N_Outline2" /><polygon
         class="st0"
         points="2427.4,1346.8 2321.4,1346.8 2321.4,1170.2 2425.1,1170.2 2425.1,1189.1 2341.2,1189.1 2341.2,1245.4 2400.8,1245.4 2400.8,1264.3 2341.2,1264.3 2341.2,1327.9 2427.4,1327.9 "
         id="polygon23"
         style="display:inline;fill:#ffffff"
         inkscape:label="E_Outline1" /><path
         class="st0"
         d="m 2420.2,1175.2 v 8.9 h -83.9 v 66.3 h 59.6 v 8.9 h -59.6 v 73.6 h 86.2 v 8.9 h -96.1 v -166.7 h 93.8 m 9.9,-9.9 h -9.9 -93.8 -9.9 v 9.9 166.7 9.9 h 9.9 96.1 9.9 v -9.9 -8.9 -9.9 h -9.9 -76.3 v -53.7 h 49.7 9.9 v -9.9 -8.9 -9.9 h -9.9 -49.7 V 1194 h 74 9.9 v -9.9 -8.9 z"
         id="path24"
         style="display:inline;fill:#ffffff"
         inkscape:label="E_Outline2" /></g><g
       id="g27"
       transform="matrix(0.26458333,0,0,0.26458333,67.204167,-310.62083)"
       style="display:none"
       inkscape:label="MaxOutline"><path
         class="st0"
         d="m 3302.5,1346.8 -118.4,-171.2 -118.4,171.2 H 2450 v -199.2 h -874.7 v 199.2 h -618 v -251.7 l -174,251.7 H 593.8 l -174,-251.7 v 251.7 H 5 V 242.1 H 501.9 L 688.6,512 875.3,242.1 h 496.9 v 498.2 l 344.6,-498.2 h 591.9 l 496.9,718.6 115,-166.3 -381.9,-552.3 h 527.1 l 118.4,171.2 118.4,-171.2 h 527.1 l -381.9,552.3 381.9,552.3 H 3302.5 Z M 2142.5,764.1 2012.6,576.3 1882.7,764.1 Z"
         id="path25"
         style="display:inline;fill:#ffffff"
         inkscape:label="MaxOutline1" /><path
         class="st0"
         d="m 3820.1,247.1 -378.5,547.4 378.5,547.4 h -515 l -121,-175 -121,175 h -515 v 0 H 2455 v -199.2 h -884.6 v 199.2 h -93.1 v 0 h -110.1 -405 V 1079.3 L 780.6,1341.9 H 596.4 L 414.8,1079.3 v 262.6 H 9.9 V 247.1 H 499.3 L 688.6,520.8 877.9,247.1 h 489.4 V 756.3 L 1719.4,247.1 H 2306 l 499.5,722.4 121,-175 L 2548,247.1 h 515 l 121,175 121,-175 h 515.1 m -1946.8,522 H 2152 L 2012.7,567.6 1873.3,769.1 M 3839,237.2 h -18.9 -515 -5.2 l -3,4.3 -112.9,163.2 -112.9,-163.2 -3,-4.3 h -5.2 -515 -18.9 l 10.8,15.6 374.6,541.7 -109,157.6 -491.4,-710.6 -3,-4.3 h -5.2 -586.7 -5.2 l -3,4.3 -334,483 v -477.4 -9.9 h -9.9 -489.2 -5.2 l -3,4.3 -181.1,261.8 -181.1,-261.8 -3,-4.3 H 499.2 9.9 0 v 9.9 1094.7 9.9 h 9.9 404.9 9.9 v -9.9 -230.8 l 163.5,236.4 3,4.3 h 5.2 184.2 5.2 l 3,-4.3 163.5,-236.4 v 230.8 9.9 h 9.9 404.9 110.1 93.1 9.9 v -9.9 -189.3 H 2445 v 189.3 9.9 h 9.9 93.1 515 5.2 l 3,-4.3 112.9,-163.2 112.9,163.2 3,4.3 h 5.2 515 18.9 l -10.8,-15.6 -374.6,-541.7 374.6,-541.7 z M 1892.2,759.2 2012.6,585 2133,759.2 Z"
         id="path26"
         style="display:none;fill:#ffffff"
         inkscape:label="MaxOutline2"
         sodipodi:insensitive="true" /></g><g
       id="g43"
       inkscape:label="Commodore"
       transform="matrix(0.26458333,0,0,0.26458333,67.204167,-310.62083)"
       style="fill:#000000;stroke:#000000;stroke-width:5.66929;stroke-dasharray:none;stroke-opacity:1"><path
         d="M 95.1,56.2 C 92.5,32 77.8,17.9 60.1,17.9 20,17.9 18.7,73.7 18.7,87 c 0,20.4 3.1,68.5 41.2,68.5 27.3,0 34.8,-27.7 38.5,-41.8 l 8.4,2.6 C 103.1,130.2 94.2,163.4 59.3,163.4 15.1,163.4 10,111.7 10,87.8 10,26.7 36.5,10 60.3,10 c 19.8,0 40.1,14.7 43.4,45.6 z"
         id="path27"
         style="display:inline;fill:#000000;stroke:#000000;stroke-width:5.66929;stroke-dasharray:none;stroke-opacity:1"
         inkscape:label="C" /><path
         d="m 458.7,88.2 c 0,-35.9 11,-78.2 52.2,-78.2 43.2,0 52.6,48.1 52.6,74.8 0,33.2 -9,78.6 -52,78.6 -49.5,-0.1 -52.8,-60.2 -52.8,-75.2 z m 96,-3.7 c 0,-24 -7.9,-66.6 -43.8,-66.6 -30.8,0 -43.4,29.7 -43.4,71.1 0,12.8 2.6,66.4 43.8,66.4 38.7,0 43.4,-47.5 43.4,-70.9 z"
         id="path28"
         inkscape:label="O"
         style="fill:#000000;stroke:#000000;stroke-width:5.66929;stroke-dasharray:none;stroke-opacity:1" /><path
         d="m 1029.2,12.6 v 148.1 h -8.8 V 21.9 L 976.8,132.7 932.6,21.9 v 138.7 h -8.8 v -148 h 14.1 l 38.9,98.2 38.5,-98.2 z"
         id="path29"
         inkscape:label="M"
         style="fill:#000000;stroke:#000000;stroke-width:5.66929;stroke-dasharray:none;stroke-opacity:1" /><path
         d="m 1501.2,12.6 v 148.1 h -8.8 V 21.9 l -43.6,110.8 -44.2,-110.8 v 138.7 h -8.8 v -148 h 14.1 l 38.9,98.2 38.5,-98.2 z"
         id="path30-0"
         inkscape:label="M"
         style="fill:#000000;stroke:#000000;stroke-width:5.66929;stroke-dasharray:none;stroke-opacity:1" /><path
         d="m 1862,88.2 c 0,-35.9 11,-78.2 52.2,-78.2 43.2,0 52.6,48.1 52.6,74.8 0,33.2 -9,78.6 -52,78.6 -49.5,-0.1 -52.8,-60.2 -52.8,-75.2 z m 96,-3.7 c 0,-24 -7.9,-66.6 -43.8,-66.6 -30.8,0 -43.4,29.7 -43.4,71.1 0,12.8 2.6,66.4 43.8,66.4 38.7,0 43.4,-47.5 43.4,-70.9 z"
         id="path31"
         inkscape:label="O"
         style="fill:#000000;stroke:#000000;stroke-width:5.66929;stroke-dasharray:none;stroke-opacity:1" /><path
         d="m 2359.7,12.6 c 46,0 62.3,31.2 62.3,73.5 0,45.6 -16.5,74.6 -61.5,74.6 h -34 V 12.6 Z m -24.4,7.9 v 132.2 h 24.7 c 44.2,0 53.4,-32 53.4,-66.8 0,-39.9 -15.3,-65.4 -54,-65.4 z"
         id="path32"
         inkscape:label="D"
         style="fill:#000000;stroke:#000000;stroke-width:5.66929;stroke-dasharray:none;stroke-opacity:1" /><path
         d="m 2776.1,88.2 c 0,-35.9 11,-78.2 52.2,-78.2 43.2,0 52.6,48.1 52.6,74.8 0,33.2 -9,78.6 -52,78.6 -49.5,-0.1 -52.8,-60.2 -52.8,-75.2 z m 96,-3.7 c 0,-24 -7.9,-66.6 -43.8,-66.6 -30.8,0 -43.4,29.7 -43.4,71.1 0,12.8 2.6,66.4 43.8,66.4 38.7,0 43.4,-47.5 43.4,-70.9 z"
         id="path33"
         inkscape:label="O"
         style="fill:#000000;stroke:#000000;stroke-width:5.66929;stroke-dasharray:none;stroke-opacity:1" /><path
         d="m 3280.5,12.6 c 17.7,0 31.4,4.7 39.1,16.5 4.7,7.1 6.9,15.5 6.9,23.2 0,10.8 -4.1,21.8 -12.8,28.7 -7.3,5.9 -13.9,7.1 -20,8.4 l 33.4,71.3 h -9.2 L 3284.7,90.6 H 3249 v 70.1 h -8.8 V 12.6 Z m -31.3,7.9 v 62.1 h 21.6 c 15.5,0 21.2,-0.6 26.1,-2.2 14.5,-4.3 21,-16.7 21,-29.1 0,-30.8 -31.6,-30.8 -41.8,-30.8 z"
         id="path34"
         inkscape:label="R"
         style="fill:#000000;stroke:#000000;stroke-width:5.66929;stroke-dasharray:none;stroke-opacity:1" /><path
         d="m 3765.6,12.6 v 7.9 H 3691 v 58.9 h 53 v 7.9 h -53 v 65.4 h 76.6 v 7.9 h -85.4 v -148 z"
         id="path35"
         inkscape:label="E"
         style="fill:#000000;stroke:#000000;stroke-width:5.66929;stroke-dasharray:none;stroke-opacity:1" /></g><g
       id="g44"
       inkscape:label="Machine"
       transform="matrix(0.26458333,0,0,0.26458333,67.204167,-310.62083)"
       style="display:inline;fill:#e10205;fill-opacity:1;stroke:#e10205;stroke-width:5.66929;stroke-dasharray:none;stroke-opacity:1"><path
         d="m 1732.6,1175.2 v 166.7 h -9.9 v -156.1 l -49.1,124.7 -49.8,-124.7 v 156.1 h -9.9 v -166.7 h 15.8 l 43.8,110.5 43.3,-110.5 z"
         id="path36"
         inkscape:label="M"
         style="fill:#e10205;fill-opacity:1;stroke:#e10205;stroke-width:5.66929;stroke-dasharray:none;stroke-opacity:1" /><path
         d="m 1815.4,1175.2 49.3,166.7 h -10.1 l -16,-54.3 H 1781 l -15.6,54.3 h -10.1 l 47.9,-166.7 z m -6.2,13.7 -25.7,89.6 h 52.3 z"
         id="path37"
         inkscape:label="A"
         style="fill:#e10205;fill-opacity:1;stroke:#e10205;stroke-width:5.66929;stroke-dasharray:none;stroke-opacity:1" /><path
         d="m 1972.4,1224.2 c -3,-27.3 -19.5,-43.1 -39.4,-43.1 -45.2,0 -46.5,62.8 -46.5,77.7 0,22.9 3.4,77 46.3,77 30.7,0 39.2,-31.2 43.3,-47 l 9.4,3 c -4.1,15.6 -14.2,53 -53.4,53 -49.8,0 -55.5,-58.2 -55.5,-85.1 0,-68.8 29.8,-87.6 56.6,-87.6 22.2,0 45.2,16.5 48.8,51.4 z"
         id="path38"
         inkscape:label="C"
         style="fill:#e10205;fill-opacity:1;stroke:#e10205;stroke-width:5.66929;stroke-dasharray:none;stroke-opacity:1" /><path
         d="m 2020.3,1175.2 v 75.2 h 84.6 v -75.2 h 9.9 v 166.7 h -9.9 v -82.5 h -84.6 v 82.5 h -9.9 v -166.7 z"
         id="path39"
         inkscape:label="H"
         style="fill:#e10205;fill-opacity:1;stroke:#e10205;stroke-width:5.66929;stroke-dasharray:none;stroke-opacity:1" /><path
         d="m 2158.3,1175.2 v 166.7 h -9.9 v -166.7 z"
         id="path40"
         inkscape:label="I"
         style="fill:#e10205;fill-opacity:1;stroke:#e10205;stroke-width:5.66929;stroke-dasharray:none;stroke-opacity:1" /><path
         d="m 2293.4,1175.2 v 166.7 h -9.2 l -82.8,-153.4 v 153.4 h -9.9 v -166.7 h 14.2 l 77.7,144.2 v -144.2 z"
         id="path41"
         inkscape:label="N"
         style="fill:#e10205;fill-opacity:1;stroke:#e10205;stroke-width:5.66929;stroke-dasharray:none;stroke-opacity:1" /><path
         d="m 2420.2,1175.2 v 8.9 h -83.9 v 66.3 h 59.6 v 8.9 h -59.6 v 73.6 h 86.2 v 8.9 h -96.1 v -166.7 h 93.8 z"
         id="path42"
         inkscape:label="E"
         style="fill:#e10205;fill-opacity:1;stroke:#e10205;stroke-width:5.66929;stroke-dasharray:none;stroke-opacity:1" /></g><path
       d="m 3820.103,1341.8263 v -9.0033 L 3447.8003,794.40114 3820.103,255.97926 v -8.83008 H 3299.1069 L 3184.1987,413.30153 3069.2924,247.14918 h -527.1035 l 378.4102,547.25196 -115,166.29883 -493.4102,-713.55079 H 1713.308 L 1372.1987,740.30153 V 247.14918 H 871.80803 L 688.59905,512.00075 505.39201,247.14918 H 4.9994297 V 1341.825 H 419.80022 v -246.7246 l 170.56055,246.7246 h 196.3789 l 170.56055,-246.7246 v 246.7246 h 617.99998 v -194.2246 h 874.6993 v 194.2246 h 619.1406 l 114.959,-166.2246 114.959,166.2246 z M 2012.5991,576.30153 2142.4995,764.10036 h -259.8008 z"
       style="baseline-shift:baseline;display:inline;overflow:visible;vector-effect:none;fill:#015ab5;fill-opacity:1;enable-background:accumulate;stop-color:#000000;stop-opacity:1"
       id="path77"
       inkscape:label="Max"
       transform="matrix(0.26458333,0,0,0.26458333,67.204426,-310.62077)"
       sodipodi:nodetypes="cccccccccccccccccccccccccccccccccccccc" /></g></svg>
