<?xml version="1.0" encoding="UTF-8" standalone="no"?>
<!-- Created with Inkscape (http://www.inkscape.org/) -->

<svg
   width="120mm"
   height="70mm"
   viewBox="0 0 120 70"
   version="1.1"
   id="svg1"
   inkscape:version="1.4 (86a8ad7, 2024-10-11)"
   sodipodi:docname="megaduck.svg"
   xmlns:inkscape="http://www.inkscape.org/namespaces/inkscape"
   xmlns:sodipodi="http://sodipodi.sourceforge.net/DTD/sodipodi-0.dtd"
   xmlns="http://www.w3.org/2000/svg"
   xmlns:svg="http://www.w3.org/2000/svg">
  <sodipodi:namedview
     id="namedview1"
     pagecolor="#ffffff"
     bordercolor="#000000"
     borderopacity="0.25"
     inkscape:showpageshadow="2"
     inkscape:pageopacity="0.0"
     inkscape:pagecheckerboard="true"
     inkscape:deskcolor="#d1d1d1"
     inkscape:document-units="mm"
     inkscape:zoom="4"
     inkscape:cx="126.125"
     inkscape:cy="110.125"
     inkscape:window-width="3840"
     inkscape:window-height="2066"
     inkscape:window-x="-11"
     inkscape:window-y="-11"
     inkscape:window-maximized="1"
     inkscape:current-layer="svg1" />
  <defs
     id="defs1" />
  <g
     id="g51"
     inkscape:label="MegaDuck"
     transform="translate(22.627449,11.014748)">
    <path
       d="M 4.7811035,0 C 4.3799959,0.00110875 3.9523622,0.06011523 3.7062337,0.08061523 c -0.608011,0.0508 -1.2151949,0.19941812 -1.7213419,0.55448812 v -5.1676e-4 c -0.458522,0.32636 -1.00948906,0.65373381 -1.16427006,1.23713381 -0.080565,0.71663 -0.15990779,1.446476 -0.19998779,2.166276 -0.083741,1.49847 -0.0032,3.1647445 -0.34623209,4.6276245 -0.142084,1.5893501 -0.11173991,3.1881701 -0.12298991,4.7816201 -0.01098,1.5494 -0.34279966,3.44411 0.0124023,4.95422 0.223176,0.94866 1.65594995,2.168151 2.60500895,1.311031 0.024606,-1.60178 0.1560852,-3.19899 0.2211752,-4.79919 0.066939,-1.64253 0.186171,-3.293958 0.252181,-4.9433679 0.033999,-0.85063 0.2224347,-1.6687482 0.2899047,-2.5125082 0.053313,-0.66675 0.053495,-1.3445002 0.2294434,-1.9947102 0.813989,0.71715 0.565274,2.2730393 0.920874,3.2246093 0.497283,1.33086 0.6847792,2.793199 1.0237102,4.173389 0.349382,1.4224 0.704739,2.847075 0.914156,4.298445 0.172243,1.19327 -0.027119,2.237317 0.8433594,3.141927 0.727206,0.75564 1.9475697,-0.859282 2.4871867,-1.315682 0.8969362,-0.75869 1.0415372,-2.142298 1.4329872,-3.203938 0.970358,-2.63194 2.193009,-5.161447 3.196704,-7.7798872 0.653917,-1.27066 0.927391,-2.7406427 1.669149,-3.9651327 0.269345,-0.44463 0.755704,-0.738687 1.265556,-0.813387 0.235745,0.66437 0.301121,1.3712314 0.324011,2.0711914 0.100012,3.0382 0.177412,6.0673945 0.220142,9.1074545 0.02222,1.59318 0.115539,3.177965 0.135909,4.771285 0.01389,1.08506 -0.100962,2.725058 1.439705,2.514058 1.013749,-0.13891 0.779963,-2.949108 0.806153,-3.695898 0.05252,-1.4937 0.106451,-2.976115 0.0956,-4.472595 -0.0221,-3.07181 -0.216119,-6.0479809 0.05323,-9.1224409 0.08625,-0.98477 0.757107,-3.71025131 -0.782898,-3.79925131 -0.689503,-0.03982 -1.360869,0.18338933 -2.056722,0.11988933 -0.66966,-0.0612 -1.283293,-0.28586409 -1.948719,-0.0392741 C 14.85547,1.028188 13.926488,2.4085641 13.476697,3.2494141 c -0.27596,0.5162 -0.65563,1.0067226 -0.838192,1.5663126 -0.195923,0.60074 -0.224731,1.2580975 -0.392741,1.8737875 -0.406532,1.49026 -0.972936,2.9320723 -1.617989,4.3341028 -0.523213,1.13625 -0.7909118,2.433337 -1.5900838,3.424597 C 8.5939852,12.790074 8.2119673,11.115289 7.7240763,9.4691895 7.2777253,7.9629195 6.6816346,6.5167528 6.5437866,4.9361328 6.4701006,4.0917128 6.3160986,3.2647611 6.2192586,2.4225911 6.1389576,1.7243611 6.101573,0.86802715 5.698877,0.26716715 5.557127,0.05583215 5.1822111,-0.00110875 4.7811035,0 Z"
       style="display:inline;fill:#202b49;stroke-width:0.132291"
       id="path25"
       inkscape:label="M" />
    <path
       d="m 27.790035,6.8559123 c -0.68403,-0.016801 -1.395223,0.077889 -1.882056,0.144694 v 5.167e-4 c -0.09013,0.025655 -0.119629,0.038301 -0.112654,0.042375 -0.02176,0.00879 -0.04516,0.015357 -0.06615,0.025322 0,0 -5.17e-4,0 -5.17e-4,0 -0.05662,0.026941 -0.110546,0.058194 -0.162264,0.092501 -0.05184,0.03439 -0.101876,0.072069 -0.149862,0.1121378 -0.239795,0.2003107 -0.438162,0.4609597 -0.661975,0.6738607 -0.362082,0.39277 -0.846126,0.6355982 -1.306897,0.8898682 -1.16734,0.64465 -1.577045,1.4735563 -1.615405,2.8018963 -0.04053,1.41129 -0.203806,2.923727 0.0026,4.323767 0.05665,0.384622 0.08631,0.790806 0.128157,1.197343 0.0279,0.271024 0.06103,0.542139 0.111622,0.807186 0.03795,0.198784 0.08555,0.394194 0.147794,0.583427 0.0415,0.126155 0.08978,0.249541 0.145728,0.369486 0.02797,0.05997 0.05778,0.119125 0.08992,0.17725 0.587771,1.0627 2.086113,1.455296 3.136242,1.898076 1.306643,0.55112 2.649102,1.044324 4.042131,1.328084 0.715565,0.14534 1.448698,0.07811 2.172994,0.151412 0.732899,0.0741 1.477288,0.178616 2.210718,0.04909 0.80446,-0.18309 1.518364,-1.166392 0.499194,-1.665532 -0.720271,-0.352885 -1.65952,-0.455206 -2.52336,-0.565857 -0.14395,-0.01844 -0.285361,-0.03728 -0.423747,-0.05736 -0.138385,-0.02009 -0.273501,-0.0415 -0.403593,-0.06563 -0.162288,-0.03006 -0.324492,-0.06094 -0.486792,-0.09353 -0.162135,-0.03256 -0.32372,-0.06661 -0.485242,-0.102836 -0.969131,-0.217361 -1.921748,-0.511017 -2.79001,-1.00304 -0.99536,-0.39265 -2.928789,-0.954718 -3.115055,-2.178678 -0.113928,-0.748828 -0.0673,-1.310782 0.223758,-1.74563 0.06468,-0.09663 0.141252,-0.187065 0.230994,-0.271818 0.224355,-0.211883 0.530077,-0.388482 0.931209,-0.540535 0.142278,-0.05395 0.288555,-0.103209 0.437183,-0.149345 0.148791,-0.04618 0.300491,-0.08932 0.453202,-0.131259 0.916268,-0.251652 1.881052,-0.45945 2.630848,-1.011307 0.848517,-0.62441 1.31266,-1.645421 1.452624,-2.668571 C 30.810358,9.1108371 30.323733,8.2061484 29.50776,7.3819784 29.130795,7.0011084 28.474064,6.8727135 27.790035,6.8559123 Z M 27.46189,9.2061564 c 0.291669,-0.013741 0.544817,0.045765 0.588077,0.2842204 0.07924,0.43841 0.07825,0.9073382 -0.07441,1.3306682 -0.340651,0.94298 -1.685211,1.161364 -2.554366,1.307414 -0.387614,0.06497 -1.188587,0.382296 -1.297595,-0.05374 -0.115226,-0.46116 0.267602,-0.991534 0.447518,-1.399914 0.429418,-0.9759208 1.109949,-1.0957518 2.071708,-1.3125818 0.197511,-0.0549 0.527402,-0.1423218 0.819072,-0.1560628 z"
       style="display:inline;fill:#202b49;stroke-width:0.132291"
       id="path50"
       inkscape:label="e" />
    <path
       id="path32"
       style="display:inline;fill:#202b49;stroke-width:0.132291"
       d="m 44.781246,6.503479 c -0.05799,-0.00171 -0.113418,0.00297 -0.166915,0.012919 -0.595328,0.1107711 -0.913246,0.8981816 -1.132231,1.5125692 -7.2e-5,2.035e-4 -4.44e-4,3.133e-4 -5.16e-4,5.167e-4 -1.88e-4,3.616e-4 -2.99e-4,5.816e-4 -5.17e-4,0.00103 -0.0057,0.01189 -0.02201,0.055274 -0.05374,0.1457275 -0.22701,0.7661 -0.671597,1.4499271 -0.867647,2.2267376 -0.1524,0.83622 -0.102154,1.689649 -0.09715,2.534729 0.0066,1.22991 0.103435,3.302024 -1.035595,4.044714 -1.16192,0.75763 -3.437659,1.028512 -4.682919,0.398942 -0.77443,-0.39159 -1.026924,-0.734896 -1.275374,-1.548226 -0.25356,-0.82947 -0.368088,-1.152932 -0.0026,-1.967322 0.64638,-1.43972 1.777577,-2.126703 3.049427,-2.944523 0.56621,-0.3642 1.164533,-0.67839 1.709973,-1.0748693 0.51726,-0.3761 1.259342,-0.8132234 0.719852,-1.3937134 -0.56131,-0.60393 -1.169517,-0.1353872 -1.838647,0.029972 -0.77271,0.1909 -1.526799,0.350502 -2.215369,0.769462 -1.02989,0.62693 -2.235318,1.5297867 -3.026688,2.4489467 -0.195164,0.226681 -0.3706,0.478497 -0.525033,0.749308 -0.154433,0.27081 -0.287869,0.560448 -0.398425,0.862479 -0.663339,1.812189 -0.508575,4.070346 0.804085,5.380034 0.95343,0.95091 2.066604,1.223046 3.337264,1.460376 0.63275,0.11814 1.262698,0.313868 1.913578,0.273368 0.63142,0.04988 1.228763,-0.205365 1.850533,-0.257865 0.18812,-0.02606 0.356705,0.02815 0.515214,0.112138 1.39e-4,7.3e-5 3.78e-4,-7.4e-5 5.17e-4,0 0.158364,0.08397 0.306546,0.197839 0.453202,0.289904 -0.005,0.31525 -0.09774,0.618206 -0.210323,0.909506 -0.19261,0.49861 -0.284814,1.207273 -0.590144,1.638143 -0.66331,0.93623 -1.877322,1.238879 -2.933672,1.407149 -1.39065,0.22159 -2.680063,-0.149738 -4.075203,-0.198438 -0.82299,-0.02871 -2.715095,0.12666 -1.865519,1.32085 0.446083,0.62705 0.968912,0.438268 1.636592,0.535368 0.74586,0.10306 1.493301,0.200583 2.243791,0.264583 0.561923,0.04797 1.096345,0.05923 1.622123,0.03876 0.350519,-0.01364 0.697119,-0.04152 1.045415,-0.08216 0.522443,-0.06097 1.048738,-0.150549 1.597318,-0.264583 1.29288,-0.26895 2.700647,-0.822786 3.581177,-1.843816 0.902,-1.04589 0.802938,-2.125449 0.821138,-3.420979 0.02315,-1.64743 0.214968,-3.284709 0.270268,-4.931999 0.05186,-1.54543 0.137444,-3.089482 0.232544,-4.632792 0.0553,-0.89958 0.180206,-1.7860654 0.206706,-2.6902754 0.0032,-0.48313 0.463306,-1.6205692 -0.02842,-1.9182292 -0.219057,-0.132658 -0.414097,-0.193318 -0.58807,-0.1984414 z"
       inkscape:label="g" />
    <path
       id="path29"
       style="display:inline;fill:#202b49;stroke-width:0.132291"
       d="m 56.915389,5.7128296 c -0.04037,0.038528 -0.07203,0.0716 -0.09715,0.1002523 -0.02512,0.028652 -0.04372,0.052884 -0.05736,0.073897 -0.429331,0.4748447 -0.720198,1.0580783 -0.969966,1.6427937 -0.28112,0.65815 -0.139498,1.4595123 -0.163298,2.1636923 -0.04366,1.2944701 -0.72257,2.5270961 -1.1467,3.7346561 -0.43868,1.24923 -0.976231,2.475814 -1.734261,3.567224 -0.5662,0.81491 -1.527019,2.807565 -2.569869,1.419035 -0.69083,-0.91969 -1.368052,-1.904792 -1.422652,-3.078882 -0.0594,-1.27502 0.02311,-2.591702 0.503328,-3.787882 0.33351,-0.83079 1.537288,-2.5757091 2.510958,-2.6019091 0.96334,-0.02593 2.899986,1.2651391 3.295406,-0.1834513 0.29448,-1.0791 -1.522032,-1.8080342 -2.286682,-1.9621542 -1.13903,-0.22926 -2.628671,-0.00311 -3.515031,0.7968506 -0.82483,0.74454 -1.813286,1.6440089 -2.377116,2.60656 -0.63949,1.09154 -0.520112,2.684818 -0.505912,3.909838 0.02257,1.966575 0.635589,4.30797 2.048454,5.80068 0.05434,0.05741 0.109679,0.113116 0.166398,0.167948 0.0568,0.05492 0.114936,0.10852 0.17415,0.160714 0.236487,0.208452 0.492034,0.394593 0.767911,0.553971 1.05159,0.6076 2.575782,0.493404 3.641122,-0.06976 0.85421,-0.45151 1.411687,-2.168014 2.276347,-2.192114 0.03836,0.98279 0.405051,1.626675 0.905371,2.463415 0.34449,0.57613 1.017347,1.564163 1.817977,1.264523 1.09736,-0.41063 0.426043,-1.505236 0.195853,-2.270146 -0.35361,-1.17541 -0.23489,-2.167624 -0.21239,-3.372404 0.0433,-2.31364 0.06299,-4.673737 0.02119,-6.9892376 -0.01958,-1.08346 0.143404,-2.1041397 0.197404,-3.1734497 0.04696,-0.93054 -0.861547,-0.6460574 -1.463477,-0.7446574 z"
       inkscape:label="a" />
    <path
       d="m 18.040243,24.115324 c -0.444169,-0.01597 -0.762666,0.121158 -0.719853,0.590662 v 5.16e-4 c -0.01177,2.3196 1.849217,2.800865 3.779614,3.004985 0.999859,0.10557 1.994385,0.28767 2.956409,0.58136 0.90818,0.27715 2.083285,0.528335 2.890263,1.032495 0.783165,0.48948 1.449586,1.476745 1.943033,2.233455 0.545702,0.83661 1.154951,1.50129 1.148251,2.53938 -0.0075,1.15742 0.0086,2.319403 -0.136943,3.470073 -0.156236,1.03875 -0.592638,1.293981 -1.511535,1.790071 -0.969167,0.52308 -1.74612,1.315756 -2.761589,1.759066 -0.97512,0.42571 -1.936536,0.883715 -2.924886,1.278475 -0.548745,0.21921 -1.105608,0.41864 -1.6738,0.58136 -0.670632,0.20148 -0.729068,-0.234985 -0.677478,-0.748275 0.103584,-1.02843 0.445356,-2.039102 0.609265,-3.061312 0.362214,-2.26205 0.767768,-4.578697 0.818038,-6.864697 -0.05517,-0.96401 -0.411081,-1.891569 -0.940511,-2.692859 -0.627988,-0.95025 -1.108039,-1.365877 -2.167826,-0.740007 -0.477443,0.28192 -0.468621,1.52308 -0.463021,2.07791 0.0067,0.68844 0.386639,1.141132 0.54777,1.775602 0.312208,1.23137 -0.344062,2.549198 -0.568957,3.745508 -0.560122,2.98238 -0.924864,6.00657 -1.454692,8.99635 -0.18997,0.83886 -0.512057,3.070721 1.018026,2.371431 1.242878,-0.52044 2.383344,-1.166414 3.589445,-1.752864 1.389457,-0.67561 2.870364,-1.318531 4.325834,-1.836581 0.655901,-0.2335 1.348445,-0.328105 2.023132,-0.489375 0.658414,-0.15729 1.262668,-0.521841 1.848983,-0.851111 1.086642,-0.61053 2.522,-1.164688 3.192053,-2.282548 0.62261,-1.03889 0.597766,-2.676042 0.609266,-3.856612 0.0081,-0.8329 -0.117697,-1.658464 -0.157097,-2.489254 -0.03359,-0.70432 0.04139,-1.431725 -0.115238,-2.124935 -0.26763,-1.18414 -0.706832,-2.534843 -1.527039,-3.439583 -0.732366,-0.8083 -1.750348,-2.03647 -2.916101,-2.16731 -1.34117,-0.15915 -2.681815,-0.605221 -3.990971,-0.921391 -1.479944,-0.35719 -2.908843,-0.781366 -4.414717,-0.984436 -0.34743,-0.04691 -1.436848,-0.49894 -2.177128,-0.525549 z"
       style="display:inline;fill:#202b49;stroke-width:0.132291"
       id="path38"
       inkscape:label="D" />
    <path
       id="path47"
       style="display:inline;fill:#202b49;stroke-width:0.132291"
       d="m 34.613908,31.282328 c 0,0.0057 2.36e-4,0.01123 5.17e-4,0.01654 7.93e-4,0.741273 0.07162,1.459067 0.126607,2.197282 0.22066,2.95565 -0.333013,6.064199 1.115177,8.799979 0.66517,1.12356 2.121837,2.023318 3.351217,2.384868 1.32331,0.38947 2.523765,0.08634 3.763595,-0.433566 0.6645,-0.27834 1.319279,-0.668347 2.058789,-0.691947 0.38973,0.36274 0.590941,0.86632 0.838191,1.3255 0.23747,0.44066 0.508281,0.948981 1.079521,0.796851 0.44053,-0.11721 0.763452,-0.503529 0.926042,-0.913639 0.26617,-0.67164 -0.01638,-1.330754 -0.177767,-1.994194 -0.18111,-0.74454 -0.359529,-1.490294 -0.575159,-2.225704 -0.37783,-1.28918 -0.846396,-2.762028 -0.612366,-4.116028 0.24685,-1.08704 0.63922,-3.081242 -0.91984,-3.278352 -1.2311,-0.15571 -0.847971,2.451299 -0.905371,3.243729 -0.05768,0.79904 -0.290073,1.527376 -0.437183,2.306836 -0.11642,0.61515 -0.164992,1.252733 -0.418062,1.832963 -0.58102,1.19486 -1.629816,1.707356 -2.905766,1.706356 -1.40652,-0.0013 -2.578931,-0.181867 -3.305741,-1.533757 -0.55404,-1.03015 -0.828064,-2.664812 -0.868164,-3.823022 -0.04866,-1.40851 0.162062,-2.803627 0.08837,-4.218347 -0.0723,-1.389214 -1.098629,-1.362072 -2.195731,-1.381828 -0.0086,-3.35e-4 -0.01769,-3.43e-4 -0.02687,-5.17e-4 z"
       inkscape:label="u" />
    <path
       d="m 53.870614,29.06851 c -0.616528,0.007 -1.230311,0.114538 -1.826246,0.304891 -0.121965,0.04917 -0.271845,0.107216 -0.33693,0.127124 -2.244867,1.102699 -3.47353,4.4801 -3.537252,6.794417 -0.03823,1.38456 0.262018,2.789583 0.674378,4.108793 0.37954,1.21391 0.979568,1.977704 1.843298,2.874244 1.90923,1.98172 5.240154,2.144057 7.625374,0.870747 0.4183,-0.2233 3.337835,-2.418103 1.858285,-2.487703 -0.68024,-0.03202 -1.356842,0.09916 -2.004012,0.30024 -0.62719,0.19473 -1.270097,0.255229 -1.886707,0.488859 -2.9878,1.13188 -4.9859,-1.598888 -5.75107,-4.133598 -0.74692,-2.47385 0.711315,-5.535131 2.795695,-6.921541 1.09961,-0.73118 2.891619,-0.108576 3.892269,0.588594 0.39913,0.27781 0.90566,0.707551 1.42782,0.565341 0.41023,-0.11178 0.8314,-0.537577 0.6196,-0.989087 -1.319805,-1.583543 -3.358594,-2.514485 -5.394502,-2.491321 z"
       style="display:inline;fill:#202b49;stroke-width:0.132291"
       id="path39"
       inkscape:label="c"
       sodipodi:insensitive="true" />
    <path
       id="path51"
       style="display:inline;fill:#202b49;fill-opacity:1;stroke-width:0.132291"
       d="m 62.669043,29.165662 c -0.04093,0.0027 -0.08512,0.0088 -0.132808,0.01809 -0.47704,0.09326 -0.956936,0.354206 -1.121896,0.840776 -0.7214,1.34355 0.0019,2.906681 0.03617,4.311881 0.03572,1.47518 0.156237,2.844698 0.358117,4.309298 0.21684,1.57585 0.210559,3.185306 0.223759,4.774386 0.0057,0.67152 0.158166,1.111296 0.575676,1.640726 0.41579,-0.17502 0.942129,-0.250536 1.231449,-0.634586 0.38245,-0.5076 0.145832,-1.628176 0.170532,-2.235006 0.01349,-0.33535 0.04794,-0.671385 0.130742,-0.997355 0.12554,-0.49464 0.341747,-0.304967 0.759127,-0.196887 1.29116,0.33443 2.573807,0.924355 3.795117,1.454175 0.63685,0.27623 6.122243,3.958528 6.049243,1.544608 -0.01627,-0.53631 -0.80301,-0.98966 -1.1467,-1.33997 -0.40799,-0.41605 -0.823142,-0.836913 -1.333252,-1.128613 -0.5375,-0.27993 -0.669435,-0.672223 -0.202055,-1.023193 0.37439,-0.28125 0.794158,-0.558775 1.030428,-0.976685 0.58473,-1.03412 -0.35492,-2.221015 -1.04283,-2.939355 -0.76372,-0.79759 -2.192265,-1.078347 -3.233395,-1.040247 -0.66569,0.20691 -1.262875,0.580091 -1.917195,0.815971 -0.56263,0.2028 -1.157305,0.206562 -1.719275,0.416512 -0.48048,0.1794 -1.323293,0.619341 -1.494483,-0.03152 -0.1614,-0.61383 -0.129419,-1.257185 -0.279569,-1.878955 -0.37096,-1.53643 -0.384127,-2.949362 -0.283187,-4.528922 0.0331,-0.518114 0.143537,-1.129263 -0.340548,-1.174089 -0.03458,-0.0032 -0.07224,-0.0038 -0.113171,-0.001 z m 6.29729,8.590173 c 0.07306,-5.87e-4 0.145941,-1.03e-4 0.218591,0.0021 0.581205,0.01736 1.139041,0.131274 1.504301,0.469739 0.80314,0.74454 -0.294148,1.172653 -0.873848,1.443323 -0.83476,0.15002 -2.065102,0.158651 -2.848922,-0.188619 -1.205692,-0.533911 -0.34313,-1.313887 0.533301,-1.602487 0.005,-0.0018 0.01068,-0.0032 0.01654,-0.0052 0.0016,-5.02e-4 0.0031,-0.0011 0.0047,-0.0016 0.0058,-0.0019 0.01196,-0.0041 0.0186,-0.0062 0.401843,-0.04161 0.915359,-0.106993 1.426786,-0.111104 z"
       inkscape:label="k" />
  </g>
</svg>
