<?xml version="1.0" encoding="UTF-8" standalone="no"?>
<!-- Generator: Adobe Illustrator 26.3.1, SVG Export Plug-In . SVG Version: 6.00 Build 0)  -->

<svg
   version="1.1"
   id="Layer_1"
   x="0px"
   y="0px"
   viewBox="0 0 3839 1077.2"
   style="enable-background:new 0 0 3839 1077.2;"
   xml:space="preserve"
   sodipodi:docname="mz2500-w.svg"
   inkscape:version="1.4 (86a8ad7, 2024-10-11)"
   xmlns:inkscape="http://www.inkscape.org/namespaces/inkscape"
   xmlns:sodipodi="http://sodipodi.sourceforge.net/DTD/sodipodi-0.dtd"
   xmlns="http://www.w3.org/2000/svg"
   xmlns:svg="http://www.w3.org/2000/svg"><defs
   id="defs63">
			
			
		
			
			
		
			
			
		
			
			
		
			
			
		
			
			
		
			
			
		
			
			
		
			
			
		
			
			
		
			
			
		
			
			
		
			
			
		
			
			
		
			
			
		
			
			
		
			
			
		
			
			
		
			
			
		
			
			
		
			
			
		
			
			
		
			
			
		
			
			
		
			
			
		
			
			
		
			
			
		
			
			
		
			
			
		
			
			
		
			
			
		
			
			
		
			
			
		</defs><sodipodi:namedview
   id="namedview63"
   pagecolor="#ffffff"
   bordercolor="#000000"
   borderopacity="0.25"
   inkscape:showpageshadow="2"
   inkscape:pageopacity="0.0"
   inkscape:pagecheckerboard="true"
   inkscape:deskcolor="#d1d1d1"
   inkscape:zoom="0.47824954"
   inkscape:cx="1881.8627"
   inkscape:cy="601.1506"
   inkscape:window-width="3840"
   inkscape:window-height="2066"
   inkscape:window-x="-11"
   inkscape:window-y="-11"
   inkscape:window-maximized="1"
   inkscape:current-layer="g68" />
<style
   type="text/css"
   id="style1">
	.st0{fill:#FFFFFF;}
	.st1{fill:#D02026;}
</style>
<g
   id="g68"
   inkscape:label="Logo"><g
     id="g31"
     style="display:none"
     inkscape:label="OutlineOuter">
		
		
		
		
		
		
		
		
		
		
		
		
		
		
		<g
   id="g66"
   inkscape:label="OutlineOuter1"
   style="display:inline"><path
     class="st0"
     d="m 29.5,1062.4 c -8.2,0 -14.8,-6.6 -14.8,-14.8 V 470.3 c 0,-8.2 6.6,-14.8 14.8,-14.8 h 200.1 c 8.2,0 14.8,6.6 14.8,14.8 v 577.3 c 0,8.2 -6.6,14.8 -14.8,14.8 z"
     id="path5"
     inkscape:label="m1"
     style="display:inline" /><path
     class="st0"
     d="m 306.2,1062.4 c -8.2,0 -14.8,-6.6 -14.8,-14.8 V 623.3 c 0,-2.1 -1.7,-3.7 -3.7,-3.7 h -25.2 c -8.2,0 -14.8,-6.6 -14.8,-14.8 V 470.3 c 0,-8.2 6.6,-14.8 14.8,-14.8 h 139.7 c 31.8,0 61.7,12.4 84.2,34.9 22.4,22.5 34.7,52.3 34.7,84 v 473.2 c 0,8.2 -6.6,14.8 -14.8,14.8 z"
     id="path3"
     inkscape:label="m2"
     style="display:inline" /><path
     class="st0"
     d="m 583,1062.4 c -8.2,0 -14.8,-6.6 -14.8,-14.8 V 623.3 c 0,-2.1 -1.7,-3.7 -3.7,-3.7 h -41.3 c -8.2,0 -14.8,-6.6 -14.8,-14.8 V 470.3 c 0,-8.2 6.6,-14.8 14.8,-14.8 h 155.7 c 65.6,0 119,53.3 119,118.9 v 473.2 c 0,8.2 -6.6,14.8 -14.8,14.8 z"
     id="path1"
     style="display:inline"
     inkscape:label="m3" /><path
     class="st0"
     d="m 846.6,619.6 c -8.2,0 -14.8,-6.6 -14.8,-14.8 V 470.3 c 0,-8.2 6.6,-14.8 14.8,-14.8 h 298.6 c 5.6,0 10.7,3.1 13.2,8.1 2.5,5 2,10.9 -1.3,15.4 l -98.9,134.5 c -2.8,3.8 -7.2,6 -11.9,6 H 846.6 Z"
     id="path9"
     inkscape:label="z1" /><path
     class="st0"
     d="m 916.7,1062.4 c -19,0 -37.2,-5.3 -52.8,-15.3 -14.6,-9.4 -26.5,-22.6 -34.4,-38.3 -7.9,-15.7 -11.6,-33.1 -10.5,-50.5 1.2,-18.5 7.7,-36.4 19,-51.7 l 327.6,-445.1 c 2.8,-3.8 7.2,-6 11.9,-6 h 98.5 c 17.7,0 34.8,5 49.4,14.3 13.6,8.8 24.8,21.2 32.2,35.8 7.4,14.7 10.8,30.9 9.8,47.1 -1.1,17.3 -7.2,34 -17.7,48.3 L 1016,1056.3 c -2.8,3.8 -7.2,6 -11.9,6 h -87.4 z"
     id="path11"
     inkscape:label="z2" /><path
     class="st0"
     d="m 1036.2,1062.4 c -5.6,0 -10.7,-3.1 -13.2,-8.1 -2.5,-5 -2,-10.9 1.3,-15.4 l 98.9,-134.5 c 2.8,-3.8 7.2,-6 11.9,-6 h 180.2 c 8.2,0 14.8,6.6 14.8,14.8 v 134.5 c 0,8.2 -6.6,14.8 -14.8,14.8 h -279.1 z"
     id="path13"
     inkscape:label="z3" /><path
     class="st0"
     d="m 1365.4,851 c -8.2,0 -14.8,-6.6 -14.8,-14.8 V 683.1 c 0,-8.2 6.6,-14.8 14.8,-14.8 h 251.7 c 8.2,0 14.8,6.6 14.8,14.8 v 153.2 c 0,8.2 -6.6,14.8 -14.8,14.8 h -251.7 z"
     id="path7"
     inkscape:label="-"
     style="display:inline" /><path
     class="st0"
     d="m 1680.6,637.7 c -8.2,0 -14.8,-6.6 -14.8,-14.8 V 469.6 c 0,-8.2 6.6,-14.8 14.8,-14.8 H 1952 c 8.2,0 14.8,6.6 14.8,14.8 v 153.3 c 0,8.2 -6.6,14.8 -14.8,14.8 z m 196.9,-89.4 v -4.2 h -122.4 v 4.2 z"
     id="path17"
     inkscape:label="2_1" /><path
     class="st0"
     d="m 1680.6,1062 c -8.2,0 -14.8,-6.6 -14.8,-14.8 V 794.3 c 0,-70 57,-127 127,-127 h 173 V 469.6 c 0,-8.2 6.6,-14.8 14.8,-14.8 h 87.9 c 33.9,0 65.8,13.2 89.8,37.1 24,24 37.2,55.9 37.2,89.9 v 141.6 c 0,70 -57,127 -127,127 h -170.3 v 28.5 h 282.5 c 8.2,0 14.8,6.6 14.8,14.8 v 153.4 c 0,8.2 -6.6,14.8 -14.8,14.8 h -500.1 z m 425.5,-89.4 v -4.2 h -282.5 c -8.2,0 -14.8,-6.6 -14.8,-14.8 v -108 c 0,-46.5 37.9,-84.4 84.4,-84.4 h 175.2 c 20.8,0 37.7,-16.9 37.7,-37.6 V 581.9 c 0,-10.1 -3.9,-19.5 -11,-26.6 -7.1,-7.1 -16.6,-11 -26.6,-11 h -13.3 v 128 c 0,46.5 -37.9,84.4 -84.4,84.4 h -178 c -20.8,0 -37.6,16.9 -37.6,37.6 v 178.3 z"
     id="path15"
     inkscape:label="2_2"
     style="display:inline" /><path
     class="st0"
     d="m 2223.8,850.5 c -8.2,0 -14.8,-6.6 -14.8,-14.8 V 469.6 c 0,-8.2 6.6,-14.8 14.8,-14.8 h 499.3 c 8.2,0 14.8,6.6 14.8,14.8 v 153.3 c 0,8.2 -6.6,14.8 -14.8,14.8 h -284.7 v 198.1 c 0,8.2 -6.6,14.8 -14.8,14.8 H 2223.8 Z M 2349,761.2 V 563.1 c 0,-8.2 6.6,-14.8 14.8,-14.8 h 284.7 v -4.2 h -350.1 v 217.1 z"
     id="path21"
     inkscape:label="5_1" /><path
     class="st0"
     d="m 2223.7,1062 c -8.2,0 -14.8,-6.6 -14.8,-14.8 V 893.9 c 0,-8.2 6.6,-14.8 14.8,-14.8 h 281.9 v -28.5 h -53.5 c -8.2,0 -14.8,-6.6 -14.8,-14.8 V 682.2 c 0,-8.2 6.6,-14.8 14.8,-14.8 h 158.8 c 69.9,0 126.8,56.9 126.8,126.8 v 140.9 c 0.1,33.7 -13.1,65.6 -37.1,89.6 -24,24 -55.9,37.3 -89.8,37.3 z m 387.2,-89.4 c 20.7,0 37.5,-16.8 37.5,-37.5 v -141 c 0,-20.7 -16.8,-37.5 -37.5,-37.5 h -84.3 v 6.2 c 16.7,3.2 32,11.3 44.1,23.7 15.6,15.9 24.3,36.9 24.3,59.1 v 38.7 c 0,46.5 -37.8,84.3 -84.3,84.3 h -212.4 v 4.1 h 312.6 z"
     id="path19"
     inkscape:label="5_2"
     style="display:inline" /><path
     class="st0"
     d="m 2878.3,1062 c -70,0 -127,-57 -127,-127 V 581.9 c 0,-70 57,-127 127,-127 h 90.6 c 6.8,0 12.5,4.6 14.3,10.9 1.7,-6.3 7.4,-10.9 14.3,-10.9 H 3154 c 70,0 127,57 127,127 V 935 c 0,70 -57,127 -127,127 z m 0,-517.9 c -20.8,0 -37.6,16.9 -37.6,37.6 v 353.1 c 0,20.8 16.9,37.7 37.6,37.7 H 3154 c 20.8,0 37.6,-16.9 37.6,-37.7 v -353 c 0,-20.8 -16.9,-37.6 -37.6,-37.6 h -81.9 v 6.2 c 37.9,8.5 65.9,42.3 65.9,82.4 v 251.4 c 0,46.5 -37.9,84.4 -84.4,84.4 h -74.8 c -46.5,0 -84.4,-37.9 -84.4,-84.4 V 544.1 Z m 170.3,335.1 V 637.7 h -51.2 c -6.2,0 -11.6,-3.9 -13.7,-9.3 v 250.8 z"
     id="path23"
     inkscape:label="0" /><path
     class="st0"
     d="m 3421.6,1062 c -70,0 -127,-57 -127,-127 V 581.9 c 0,-70 57,-127 127,-127 h 90.6 c 6.8,0 12.5,4.6 14.3,10.9 1.7,-6.3 7.4,-10.9 14.3,-10.9 h 156.5 c 70,0 127,57 127,127 V 935 c 0,70 -57,127 -127,127 z m 0,-517.9 c -20.8,0 -37.6,16.9 -37.6,37.6 v 353.1 c 0,20.8 16.9,37.7 37.6,37.7 h 275.6 c 20.8,0 37.6,-16.9 37.6,-37.7 v -353 c 0,-20.8 -16.9,-37.6 -37.6,-37.6 h -81.9 v 6.2 c 37.9,8.5 65.9,42.3 65.9,82.4 v 251.4 c 0,46.5 -37.9,84.4 -84.4,84.4 H 3522 c -46.5,0 -84.4,-37.9 -84.4,-84.4 V 544.1 Z m 170.2,335.1 V 637.7 h -51.2 c -6.2,0 -11.6,-3.9 -13.7,-9.3 v 250.8 z"
     id="path25"
     inkscape:label="0" /><path
     class="st0"
     d="m 1074.7,371.3 c -4.1,0 -8.2,0 -12.5,-0.1 -37.3,-0.6 -77.8,-5.6 -120.1,-14.7 -38,-8.2 -76.2,-19.6 -110.4,-33 l -10.9,-4.2 c -4.1,-1.6 -7.2,-4.9 -8.6,-9 -1.4,-4.1 -0.9,-8.7 1.4,-12.4 l 48.7,-80.2 c 2.8,-4.5 7.6,-7.1 12.6,-7.1 2.2,0 4.5,0.5 6.6,1.5 l 8.1,4 c 29,14.4 56.3,25.3 83.4,33.2 29.4,8.6 58.8,13.9 89.9,16.2 6.9,0.5 13.3,0.8 19.2,0.8 4.2,0 8,-0.1 11.3,-0.4 -11.3,-2.9 -25.1,-5.7 -40.4,-8.7 -14.3,-2.9 -29,-5.8 -44.4,-9.4 -4.8,-1.1 -9.8,-2.2 -15.1,-3.4 -34.3,-7.7 -73.1,-16.5 -104.8,-32.7 -19.2,-9.8 -33.5,-21.2 -43.6,-34.7 -12.5,-16.7 -18.1,-36 -16.5,-57.4 1.7,-22.9 11.3,-42.5 28.5,-58.5 13.7,-12.7 32.3,-22.8 55.4,-30.3 33.1,-10.6 76.2,-16 128,-16 7.7,0 15.5,0.1 23.4,0.4 76.7,2.2 156.3,22.6 191.1,35.8 l 11,4.2 c 4.1,1.6 7.3,4.9 8.7,9 1.4,4.2 0.9,8.7 -1.4,12.5 l -45.4,74.5 c -2.8,4.5 -7.6,7.1 -12.6,7.1 -1.9,0 -3.9,-0.4 -5.8,-1.2 l -7.8,-3.3 c -46,-19.6 -93.2,-32 -140.3,-36.9 -11.1,-1.2 -21.4,-1.9 -30.6,-2.1 9,1.9 18.9,3.8 29.5,5.8 6.2,1.2 12.6,2.4 19.1,3.7 52.1,10.1 105.3,22.1 141.4,41.4 19.6,10.4 33.8,22.6 43.6,37.2 10.7,15.9 15.7,34.6 15,55.4 -0.7,23.1 -8.4,43.4 -23,60.1 -12.3,14.2 -29.6,25.7 -51.3,34.1 -32.3,12.4 -76.2,18.8 -130.4,18.8 z"
     id="path29"
     inkscape:label="S" /><path
     class="st0"
     d="m 2445.3,362.1 c -3.6,0 -7.1,-1.3 -9.8,-3.7 L 2304.4,242 v 105.1 c 0,8.2 -6.6,14.8 -14.8,14.8 h -106.9 c -0.5,0.1 -1.1,0.1 -1.6,0.1 h -143 c -5.2,0 -10.1,-2.8 -12.7,-7.3 l -30.7,-52 h -175.2 l -31.7,52.1 c -2.7,4.4 -7.5,7.1 -12.6,7.1 h -88 c -0.3,0 -0.7,0 -1,0 h -117.7 c -8.2,0 -14.8,-6.6 -14.8,-14.8 V 245.9 h -140.9 v 101.4 c 0,8.2 -6.6,14.8 -14.8,14.8 h -117.7 c -8.2,0 -14.8,-6.6 -14.8,-14.8 V 38.6 c 0,-8.2 6.6,-14.8 14.8,-14.8 H 1398 c 8.2,0 14.8,6.6 14.8,14.8 v 95.8 h 140.9 V 38.6 c 0,-8.2 6.6,-14.8 14.8,-14.8 h 117.7 c 8.2,0 14.8,6.6 14.8,14.8 V 279.8 L 1852.6,30.9 c 2.7,-4.4 7.5,-7.1 12.6,-7.1 h 127.9 c 5.2,0 9.9,2.7 12.6,7.1 l 151.4,248.6 V 44.1 c 0,-7.2 5.2,-13.4 12.3,-14.6 l 8.2,-1.4 c 36.3,-6.2 89.5,-13.2 179.2,-13.2 12.4,0 123,1 184,36.1 23.1,13.2 35.9,29.4 42.9,44.3 V 44.2 c 0,-7.2 5.2,-13.4 12.3,-14.6 l 8.2,-1.4 C 2640.5,22 2693.7,15 2784,15 c 32.5,0 66.9,2.8 96.9,7.9 37.3,6.3 66.8,15.9 88,28.4 14.4,8.5 26.3,19.2 35.4,31.6 9.4,12.9 15.3,27.2 17.5,42.2 4.2,29 -6,58.4 -28.6,82.9 -16.7,18.3 -41.8,32.5 -74.6,42.3 -31.4,9.4 -68.6,14.4 -110.4,14.8 -1.6,0 -3.2,0 -4.8,0 -22.7,0 -48.2,-1.5 -72.2,-4.2 V 347 c 0,8.2 -6.6,14.8 -14.8,14.8 H 2610 c -0.2,0 -0.5,0 -0.7,0 h -164 z m 138.4,-56.3 V 170.3 c -2.9,6.4 -6.6,12.5 -11,18.2 -17.9,23.3 -45.5,37.4 -71.4,46 z m -651.5,-109.1 -23.6,-39.9 -24.4,39.9 z m 799,-37.5 c 22.1,4.2 41.3,6.2 58.5,6.3 34.4,0 53.9,-3.9 65.2,-13.2 3.3,-2.7 7.1,-7.1 6.9,-13 -0.2,-3.8 -2.1,-7.6 -4.8,-9.4 0,0 -0.1,-0.1 -0.2,-0.1 -13.8,-9.7 -33.5,-14.5 -66,-15.8 -2.1,-0.1 -5.5,-0.2 -10.5,-0.2 -8.2,0 -27.5,0.3 -49.1,3.1 z m -426.8,0.4 c 0.7,0 1.4,0.1 2,0.2 l 6.5,1 c 21,3.2 39.8,4.8 55.9,4.8 34.6,0 50.5,-7.3 57.8,-13.5 4.8,-4.1 7.4,-8.8 7.2,-13.2 -0.2,-3.7 -2.1,-7.2 -5.1,-9.3 -13.9,-9.9 -32.2,-14.4 -65.3,-15.8 -2.1,-0.1 -5.5,-0.2 -10.4,-0.2 -8,0 -27,0.3 -48.6,3.1 z"
     id="path27"
     inkscape:label="HARP"
     style="display:inline" /></g><g
   id="g65"
   style="display:inline"
   inkscape:label="OutlineOuter2"><path
     class="st0"
     d="m 229.7,470.3 v 9.8 557.7 9.8 H 219.9 39.3 29.5 v -9.8 -557.7 -9.8 h 9.8 180.5 9.9 m 0,-29.5 H 219.9 39.3 29.5 C 13.2,440.8 0,454 0,470.3 v 9.8 557.7 9.8 c 0,16.3 13.2,29.5 29.5,29.5 h 9.8 180.5 9.8 c 16.3,0 29.5,-13.2 29.5,-29.5 v -9.8 -557.7 -9.8 C 259.2,454 246,440.8 229.7,440.8 Z"
     id="path6"
     style="display:inline"
     inkscape:label="m1" /><path
     class="st0"
     d="m 402.1,470.3 c 27.9,0 54.1,10.9 73.8,30.6 19.6,19.7 30.4,45.8 30.4,73.5 v 463.4 9.8 h -9.8 -180.6 -9.8 v -9.8 -414.5 c 0,-10.2 -8.3,-18.5 -18.5,-18.5 h -15.4 -9.8 V 595 480.1 470.3 h 9.8 129.9 m 0,-29.5 h -129.8 -9.8 c -16.3,0 -29.5,13.2 -29.5,29.5 v 9.8 114.9 9.8 c 0,16.3 13.2,29.5 29.5,29.5 h 9.8 4.4 v 403.5 9.8 c 0,16.3 13.2,29.5 29.5,29.5 h 9.8 180.5 9.8 c 16.3,0 29.5,-13.2 29.5,-29.5 v -9.8 -463.3 c 0.1,-35.7 -13.8,-69.2 -39,-94.5 -25.3,-25.3 -58.9,-39.2 -94.7,-39.2 z"
     id="path4"
     style="display:inline"
     inkscape:label="m2" /><path
     class="st0"
     d="m 678.9,470.3 c 57.5,0 104.2,46.7 104.2,104.1 v 463.4 9.8 H 773.3 592.8 583 v -9.8 -414.5 c 0,-10.2 -8.3,-18.5 -18.5,-18.5 H 533 523.2 V 595 480.1 470.3 h 9.8 145.9 m 0,-29.5 h -146 -9.8 c -16.3,0 -29.5,13.2 -29.5,29.5 v 9.8 114.9 9.8 c 0,16.3 13.2,29.5 29.5,29.5 h 9.8 20.5 v 403.5 9.8 c 0,16.3 13.2,29.5 29.5,29.5 h 9.8 180.5 9.8 c 16.3,0 29.5,-13.2 29.5,-29.5 v -9.8 -463.4 C 812.6,500.7 752.6,440.8 678.9,440.8 Z"
     id="path2"
     style="display:inline"
     inkscape:label="m3" /><path
     class="st0"
     d="m 1617.1,683.1 v 9.8 133.6 9.8 h -9.8 -232.1 -9.8 v -9.8 -133.6 -9.8 h 9.8 232.1 9.8 m 0,-29.6 h -9.8 -232.1 -9.8 c -16.3,0 -29.5,13.2 -29.5,29.5 v 9.8 133.6 9.8 c 0,16.3 13.2,29.5 29.5,29.5 h 9.8 232.1 9.8 c 16.3,0 29.5,-13.2 29.5,-29.5 v -9.8 -133.5 -9.8 c 0.1,-16.4 -13.2,-29.6 -29.5,-29.6 z"
     id="path8"
     style="display:inline"
     inkscape:label="-" /><path
     class="st0"
     d="m 1145.3,470.3 v 0 m 0,0 -11.5,15.6 -84.5,114.9 -2.9,4 h -5 -185 -9.8 V 595 480.1 470.3 h 9.8 269.5 19.4 m 0,-29.5 v 0 h -19.4 -269.5 -9.8 c -16.3,0 -29.5,13.2 -29.5,29.5 v 9.8 114.9 9.8 c 0,16.3 13.2,29.5 29.5,29.5 h 9.8 184.9 5 c 9.4,0 18.2,-4.5 23.8,-12 l 2.9,-4 84.5,-114.9 11.2,-15.3 c 3.8,-5 6,-11.1 6,-17.8 0.1,-16.3 -13.1,-29.5 -29.4,-29.5 z m 0,59 z"
     id="path10"
     style="display:inline"
     inkscape:label="z1" /><path
     class="st0"
     d="m 1275.9,470.3 c 14.9,0 29.2,4.1 41.4,12 11.4,7.4 20.8,17.8 27,30.1 6.2,12.3 9.1,26 8.3,39.5 -0.9,14.5 -6,28.4 -14.8,40.4 l -330.8,451.3 -2.9,4 h -5 -82.4 c -16.1,0 -31.6,-4.5 -44.8,-13 -12.4,-8 -22.5,-19.2 -29.2,-32.5 -6.8,-13.4 -9.8,-28.2 -8.9,-42.9 1,-15.7 6.6,-30.8 16.1,-43.9 l 324.6,-441.1 2.9,-4 h 5 93.5 m 0,-29.4 h -93.5 -5 c -9.4,0 -18.2,4.5 -23.8,12 l -2.9,4 L 826,897.9 c -12.9,17.6 -20.5,38.2 -21.8,59.5 -1.2,20 2.9,40 12.1,58.1 9.1,18 22.8,33.3 39.6,44.1 18,11.6 39,17.7 60.8,17.7 h 82.4 5 c 9.4,0 18.3,-4.5 23.8,-12.1 l 2.9,-4 330.8,-451.3 c 12.2,-16.6 19.2,-36 20.5,-56.1 1.2,-18.8 -2.8,-37.7 -11.4,-54.7 -8.6,-17 -21.5,-31.4 -37.4,-41.6 -17,-11 -36.9,-16.7 -57.4,-16.7 z"
     id="path12"
     style="display:inline"
     inkscape:label="z2" /><path
     class="st0"
     d="m 1315.3,913.1 v 9.8 114.9 9.8 h -9.8 -250 -19.4 l 11.5,-15.6 84.5,-114.9 2.9,-4 h 5 165.4 9.9 m 0,-29.5 h -9.8 -165.4 -5 c -9.4,0 -18.2,4.5 -23.8,12 l -2.9,4 -84.5,114.9 -11.5,15.6 c -6.6,9 -7.6,20.9 -2.6,30.8 5,9.9 15.2,16.2 26.4,16.2 h 19.4 250 9.8 c 16.3,0 29.5,-13.2 29.5,-29.5 v -9.8 -114.9 -9.8 c 0,-16.3 -13.2,-29.5 -29.6,-29.5 z"
     id="path14"
     style="display:inline"
     inkscape:label="z3" /><path
     class="st0"
     d="m 1952,469.6 v 9.8 133.7 9.8 h -9.8 -251.8 -9.8 v -9.8 -133.7 -9.8 h 9.8 251.8 9.8 m -211.7,93.5 h 151.9 v -33.7 h -151.9 v 33.7 m 211.7,-123 h -9.8 -251.8 -9.8 c -16.3,0 -29.5,13.2 -29.5,29.5 v 9.8 133.7 9.8 c 0,16.3 13.2,29.5 29.5,29.5 h 9.8 251.8 9.8 c 16.3,0 29.5,-13.2 29.5,-29.5 v -9.8 -133.7 -9.8 c 0.1,-16.3 -13.2,-29.5 -29.5,-29.5 z"
     id="path18"
     style="display:inline"
     inkscape:label="2_1" /><path
     class="st0"
     d="m 2068.5,469.6 c 29.9,0 58.1,11.7 79.4,32.8 21.2,21.2 32.8,49.4 32.8,79.4 v 141.6 c 0,61.9 -50.4,112.3 -112.3,112.3 h -175.2 c -5.4,0 -9.8,4.4 -9.8,9.8 v 48.3 h 287.5 9.8 v 9.8 133.8 9.8 h -9.8 -480.5 -9.8 v -9.8 -243.1 c 0,-61.9 50.4,-112.3 112.3,-112.3 h 178 c 5.4,0 9.8,-4.4 9.8,-9.8 v -192.8 -9.8 h 9.8 78 m -328.1,517.8 h 380.4 v -33.7 h -287.5 -9.8 v -9.8 -98.3 c 0,-38.4 31.2,-69.6 69.6,-69.6 h 175.2 c 28.9,0 52.5,-23.5 52.5,-52.4 V 581.9 c 0,-14 -5.5,-27.2 -15.4,-37.1 -9.9,-9.9 -23.1,-15.3 -37.1,-15.3 h -28.1 v 142.8 c 0,38.4 -31.2,69.6 -69.6,69.6 h -178 c -28.9,0 -52.4,23.5 -52.4,52.4 v 193.1 m 328.3,-547.3 h -78.1 -9.8 c -16.3,0 -29.5,13.2 -29.5,29.5 v 9.8 173.1 h -158.2 c -78.2,0 -141.8,63.6 -141.8,141.8 v 243.1 9.8 c 0,16.3 13.2,29.5 29.5,29.5 h 9.8 480.5 9.8 c 16.3,0 29.5,-13.2 29.5,-29.5 v -9.8 -133.8 -9.8 c 0,-16.3 -13.2,-29.5 -29.5,-29.5 h -9.8 -85.6 c 70.3,-8.3 125,-68.3 125,-140.8 V 581.9 c 0,-37.9 -14.7,-73.5 -41.5,-100.3 0,0 0,0 -0.1,-0.1 -26.8,-26.7 -62.4,-41.4 -100.2,-41.4 z m -31.8,306.3 c 20.4,-18.2 33.3,-44.7 33.3,-74.1 V 559 c 5.6,0.3 10.7,2.6 14.7,6.7 4.4,4.4 6.7,10 6.7,16.2 v 141.6 c 0,12.6 -10.3,22.9 -23,22.9 z M 1770,957.9 V 794.3 c 0,-12.6 10.3,-22.9 22.9,-22.9 h 34.5 c -20.4,18.2 -33.3,44.7 -33.3,74.1 v 98.3 9.8 c 0,1.4 0.1,2.8 0.3,4.2 H 1770 Z"
     id="path16"
     style="display:inline"
     inkscape:label="2_2" /><path
     class="st0"
     d="m 2723.1,469.6 v 9.8 133.7 9.8 h -9.8 -289.6 v 203.1 9.8 h -9.8 -180.2 -9.8 V 826 479.4 469.6 h 9.8 479.7 9.7 M 2283.6,776 h 80.2 v -203.1 -9.8 h 9.8 289.6 V 529.4 H 2283.5 V 776 m 439.6,-335.9 h -9.8 -479.7 -9.8 c -16.3,0 -29.5,13.2 -29.5,29.5 v 9.8 346.6 9.8 c 0,16.3 13.2,29.5 29.5,29.5 h 9.8 180.2 9.8 c 16.3,0 29.5,-13.2 29.5,-29.5 V 826 652.5 h 260.1 9.8 c 16.3,0 29.5,-13.2 29.5,-29.5 v -9.8 -133.8 -9.8 c 0.1,-16.3 -13.1,-29.5 -29.4,-29.5 z m -410,118.8 h 21.4 c -0.2,1.4 -0.3,2.7 -0.3,4.2 v 9.8 173.6 h -21.1 z"
     id="path22"
     style="display:inline"
     inkscape:label="5_1" /><path
     class="st0"
     d="m 2610.9,682.2 c 61.8,0 112.1,50.3 112.1,112.1 v 140.9 c 0.1,29.8 -11.6,57.9 -32.7,79.1 -21.2,21.2 -49.4,32.9 -79.3,32.9 h -377.4 -9.8 v -9.8 -133.7 -9.8 h 9.8 277.2 c 5.3,0 9.7,-4.3 9.7,-9.7 v -38.7 c 0,-5.3 -4.4,-9.7 -9.7,-9.7 h -48.8 -9.8 V 826 692 682.2 h 9.8 148.9 M 2283.6,987.4 H 2611 c 28.8,0 52.3,-23.5 52.3,-52.3 v -141 c 0,-28.8 -23.5,-52.3 -52.3,-52.3 h -99 V 776 c 37.8,0.6 68.4,31.6 68.4,69.5 v 38.7 c 0,38.3 -31.2,69.5 -69.5,69.5 h -227.1 v 33.7 m 327.1,-334.8 h -149 -9.8 c -16.3,0 -29.5,13.2 -29.5,29.5 v 9.8 134.1 9.8 c 0,13.7 9.3,25.2 21.9,28.5 h -211 -9.8 c -16.3,0 -29.5,13.2 -29.5,29.5 v 9.8 133.7 9.8 c 0,16.3 13.2,29.5 29.5,29.5 h 9.8 377.4 c 37.8,0 73.4,-14.8 100.2,-41.6 26.7,-26.8 41.4,-62.3 41.4,-100 V 794.2 c 0,-78 -63.5,-141.6 -141.6,-141.6 z m -34.5,118.8 h 34.6 c 12.6,0 22.8,10.2 22.8,22.8 v 141 c 0,12.6 -10.2,22.8 -22.8,22.8 h -34 c 20.1,-18.1 32.8,-44.4 32.8,-73.6 v -38.7 c 0,-26.1 -10.1,-50.8 -28.5,-69.5 -1.6,-1.8 -3.2,-3.3 -4.9,-4.8 z"
     id="path20"
     style="display:inline"
     inkscape:label="5_2" /><path
     class="st0"
     d="m 3154,469.6 c 61.9,0 112.3,50.4 112.3,112.3 V 935 c 0,61.9 -50.4,112.3 -112.3,112.3 h -275.6 c -61.9,0 -112.3,-50.4 -112.3,-112.3 V 581.9 c 0,-61.9 50.4,-112.3 112.3,-112.3 h 80.8 9.8 v 9.8 404.7 c 0,5.4 4.4,9.8 9.8,9.8 h 74.8 c 5.4,0 9.8,-4.4 9.8,-9.8 V 632.7 c 0,-5.4 -4.4,-9.8 -9.8,-9.8 h -46.3 -9.8 v -9.8 -133.7 -9.8 h 9.8 146.7 M 2878.3,987.4 H 3154 c 28.9,0 52.4,-23.6 52.4,-52.5 v -353 c 0,-28.9 -23.5,-52.4 -52.4,-52.4 h -96.7 v 33.8 c 36.7,1.9 65.9,32.4 65.9,69.5 v 251.4 c 0,38.4 -31.2,69.6 -69.6,69.6 h -74.8 c -38.4,0 -69.6,-31.2 -69.6,-69.6 V 529.4 h -30.8 c -28.9,0 -52.4,23.5 -52.4,52.4 v 353.1 c -0.1,28.9 23.4,52.5 52.3,52.5 M 3154,440.1 h -146.7 -9.8 c -5.2,0 -10,1.3 -14.3,3.7 -4.2,-2.3 -9.1,-3.7 -14.3,-3.7 h -9.8 -80.8 c -78.2,0 -141.8,63.6 -141.8,141.8 V 935 c 0,78.2 63.6,141.8 141.8,141.8 H 3154 c 78.2,0 141.8,-63.6 141.8,-141.8 V 581.9 c 0,-78.2 -63.6,-141.8 -141.8,-141.8 z m -275.7,517.8 c -12.6,0 -22.9,-10.3 -22.9,-23 V 581.8 c 0,-12.6 10.3,-22.9 22.9,-22.9 h 1.2 v 325.3 c 0,29.2 12.7,55.4 32.8,73.6 h -34 z M 3119.9,559 h 34.1 c 12.6,0 22.9,10.3 22.9,22.9 v 353 c 0,12.7 -10.3,23 -22.9,23 h -34 c 20.1,-18.2 32.8,-44.4 32.8,-73.6 V 632.8 c 0,-29.2 -12.7,-55.6 -32.9,-73.8 z m -121.4,93.5 h 8.8 26.6 v 212 h -35.3 v -212 z"
     id="path24"
     style="display:inline"
     inkscape:label="0" /><path
     class="st0"
     d="m 3697.2,469.6 c 61.9,0 112.3,50.4 112.3,112.3 V 935 c 0,61.9 -50.4,112.3 -112.3,112.3 h -275.6 c -61.9,0 -112.3,-50.4 -112.3,-112.3 V 581.9 c 0,-61.9 50.4,-112.3 112.3,-112.3 h 80.8 9.8 v 9.8 404.7 c 0,5.4 4.4,9.8 9.8,9.8 h 74.8 c 5.4,0 9.8,-4.4 9.8,-9.8 V 632.7 c 0,-5.4 -4.4,-9.8 -9.8,-9.8 h -46.3 -9.8 v -9.8 -133.7 -9.8 h 9.8 146.7 m -275.6,517.8 h 275.6 c 28.9,0 52.4,-23.6 52.4,-52.5 v -353 c 0,-28.9 -23.5,-52.4 -52.4,-52.4 h -96.7 v 33.8 c 36.7,1.9 65.9,32.4 65.9,69.5 v 251.4 c 0,38.4 -31.2,69.6 -69.6,69.6 H 3522 c -38.4,0 -69.6,-31.2 -69.6,-69.6 V 529.4 h -30.8 c -28.9,0 -52.4,23.5 -52.4,52.4 v 353.1 c 0,28.9 23.5,52.5 52.4,52.5 m 275.6,-547.3 h -146.7 -9.8 c -5.2,0 -10,1.3 -14.3,3.7 -4.2,-2.3 -9.1,-3.7 -14.3,-3.7 h -9.8 -80.8 c -78.2,0 -141.8,63.6 -141.8,141.8 V 935 c 0,78.2 63.6,141.8 141.8,141.8 h 275.6 c 78.2,0 141.8,-63.6 141.8,-141.8 V 581.9 c 0.1,-78.2 -63.5,-141.8 -141.7,-141.8 z m -275.6,517.8 c -12.6,0 -22.9,-10.3 -22.9,-23 V 581.8 c 0,-12.6 10.3,-22.9 22.9,-22.9 h 1.2 v 325.3 c 0,29.2 12.7,55.4 32.8,73.6 h -34 z M 3663.1,559 h 34.1 c 12.6,0 22.9,10.3 22.9,22.9 v 353 c 0,12.7 -10.3,23 -22.9,23 h -34 c 20.1,-18.2 32.8,-44.4 32.8,-73.6 V 632.8 c 0,-29.2 -12.7,-55.6 -32.9,-73.8 z m -121.4,93.5 h 8.8 26.6 v 212 h -35.3 v -212 z"
     id="path26"
     style="display:inline"
     inkscape:label="0" /><path
     class="st0"
     d="m 1040.4,29.5 c 7.5,0 15.2,0.1 23,0.3 74.9,2.1 152.4,22 186.3,34.9 l 11,4.2 -6.1,10.1 -34.8,57.2 -4.4,7.2 -7.8,-3.3 c -47.4,-20.2 -96,-33 -144.5,-38 -13.9,-1.5 -26.5,-2.2 -37.6,-2.2 -16.1,0 -28.9,1.6 -37,4.7 -4.3,1.6 -6.4,3.2 -7.4,4.3 -0.9,1 -1.3,1.9 -1.3,3.2 0,0 1.1,4.1 18.2,9.6 14.9,4.8 35.7,8.7 59.8,13.3 6.2,1.2 12.5,2.4 19,3.6 51,9.9 102.9,21.6 137.3,39.9 17.4,9.3 29.9,19.9 38.3,32.4 8.9,13.3 13.1,29 12.5,46.7 -0.6,19.7 -7.1,36.8 -19.4,50.9 -10.8,12.4 -26.1,22.5 -45.5,30 -30.7,11.9 -72.8,18 -125.2,18 -4,0 -8.1,0 -12.2,-0.1 -36.4,-0.6 -75.8,-5.4 -117.2,-14.4 -37.2,-8.1 -74.6,-19.2 -108.2,-32.3 l -10.9,-4.2 6.1,-10 38,-62.5 4.7,-7.7 8.1,4 c 29.8,14.8 57.8,25.9 85.8,34.1 30.4,8.9 60.8,14.4 92.9,16.8 7.2,0.5 14,0.8 20.3,0.8 21.9,0 33.3,-3.4 39.1,-6.2 7.5,-3.7 7.5,-7.3 7.5,-8.5 0,-0.5 -0.5,-4.7 -16.7,-10.4 -13.9,-4.8 -33.4,-8.8 -56.1,-13.3 -14.2,-2.8 -28.8,-5.8 -43.9,-9.3 -4.9,-1.1 -9.9,-2.3 -15.2,-3.5 -33.4,-7.5 -71.3,-16.1 -101.4,-31.4 -17.2,-8.8 -29.8,-18.7 -38.5,-30.4 -10.3,-13.8 -14.9,-29.7 -13.6,-47.5 1.4,-19 9.4,-35.4 23.8,-48.7 12.1,-11.2 28.9,-20.3 49.9,-27 31.4,-10.1 73,-15.3 123.3,-15.3 m 0,-29.5 c 0,0 0,0 0,0 -53.4,0 -98,5.6 -132.6,16.7 -25.2,8.1 -45.7,19.4 -61,33.5 -19.8,18.3 -31.3,41.9 -33.2,68.2 0,0 0,0 0,0.1 -1.8,24.7 5,47.9 19.4,67.3 5.5,7.3 11.9,14 19.5,20.2 -1.1,1.2 -2,2.5 -2.9,4 l -4.7,7.7 -38,62.5 -6.1,10 c -4.5,7.5 -5.5,16.5 -2.7,24.8 2.8,8.3 9.1,14.9 17.2,18 l 10.9,4.2 c 35,13.7 73.9,25.3 112.7,33.7 43.3,9.4 84.7,14.4 123,15 4.2,0.1 8.5,0.1 12.7,0.1 56,0 101.7,-6.7 135.9,-20 24,-9.3 43.2,-22.2 57.1,-38.2 16.8,-19.4 25.8,-42.7 26.6,-69.3 0.8,-24 -5.1,-45.6 -17.5,-64.1 -9,-13.3 -21.1,-24.8 -36.7,-34.8 0.2,-0.3 0.3,-0.5 0.5,-0.8 l 4.4,-7.2 34.8,-57.2 6.1,-10.1 c 4.6,-7.5 5.6,-16.6 2.7,-24.9 -2.9,-8.3 -9.2,-14.9 -17.5,-18 l -11,-4.2 c -21,-8 -51,-16.3 -82.2,-22.8 C 1150.3,8.7 1108.3,1.6 1064.1,0.4 1056.2,0.1 1048.2,0 1040.4,0 Z"
     id="path30"
     inkscape:label="S" /><path
     class="st0"
     d="m 2356.8,29.7 c 43.6,0 129.8,7.2 176.6,34.2 29.4,16.8 39.4,39 42.5,54.6 4.2,20.8 -1.2,43.1 -15,61.1 -22,28.6 -62.2,41.9 -90.4,47.9 l 118.5,102.6 9.3,8.1 v -0.7 -285 -8.3 l 8.2,-1.4 c 35.7,-6.1 88.2,-13 177.3,-13 31.7,0 65.2,2.7 94.4,7.7 35.5,6 63.4,15 82.9,26.5 12.6,7.5 23.1,16.8 30.9,27.6 8,11 13,23 14.8,35.7 3.6,24.5 -5.3,49.6 -24.9,70.8 -14.9,16.3 -37.8,29.1 -68,38.2 -30.1,9 -65.9,13.8 -106.3,14.2 -1.5,0 -3.1,0 -4.6,0 -27.7,0 -59.3,-2.3 -87,-6.1 v 93.1 9.8 h -9.8 -97.2 v 0 h -26.3 -133.7 -3.7 l -2.8,-2.5 -151,-134 -1.9,-1.7 v 128.2 9.8 h -9.8 -98.1 -0.6 l 0.1,0.1 h -17.4 -119.9 -5.6 l -2.8,-4.8 -32.1,-54.4 h -192 l -33.2,54.5 -2.9,4.7 h -5.5 -75.1 -8.4 v 0 h -9.8 -98.1 -9.8 V 337.4 231.1 H 1398 v 106.4 9.8 h -9.8 -98.1 -9.8 V 337.5 48.4 38.6 h 9.8 98.1 9.8 v 9.8 100.7 h 170.5 V 48.4 38.6 h 9.8 98.1 9.8 v 9.8 284 l 0.1,-0.1 176.1,-289.1 2.9,-4.7 h 5.5 116.9 5.5 l 2.9,4.7 176,288.8 V 52.4 44.1 l 8.2,-1.4 c 35.5,-6.1 87.9,-13 176.5,-13 m -67.1,168.7 v 0 l 11.2,-18.5 3.4,-5.6 6.5,1 c 21.7,3.3 41.3,5 58.1,5 31.3,0 54,-5.7 67.3,-17 8.4,-7.1 12.8,-16 12.4,-25.2 -0.4,-8.2 -4.6,-15.9 -11.3,-20.7 -16.4,-11.7 -36.9,-16.9 -73.2,-18.5 -2.2,-0.1 -5.8,-0.2 -11.1,-0.2 -10.4,0 -36.1,0.5 -63.4,5.1 v 94.6 m 500.1,-18.1 c 38.7,0 60.3,-4.8 74.6,-16.5 8.3,-6.8 12.7,-15.7 12.3,-25 -0.4,-8.4 -4.6,-16.5 -11.1,-21 v 0 0 c -16.3,-11.5 -38.3,-17 -73.8,-18.5 -2.2,-0.1 -5.9,-0.2 -11.1,-0.2 -10.6,0 -36.6,0.5 -63.9,5.1 v 67.2 c 27.8,5.9 51.8,8.8 73,8.9 m -931.8,31.2 H 1958 l -49.3,-83.4 -50.8,83.4 M 2356.8,0.1 C 2266,0.1 2212,7.3 2175.2,13.5 L 2167,15 c -14.2,2.4 -24.6,14.7 -24.6,29.1 v 8.3 174.5 l -121.2,-199 -2.9,-4.7 C 2013,14.4 2003.4,9 1993.1,9 h -5.5 -116.9 -5.5 c -10.3,0 -19.9,5.4 -25.2,14.2 l -2.9,4.7 -121.4,199.3 V 48.4 38.6 c 0,-16.3 -13.2,-29.5 -29.5,-29.5 h -9.8 -98.1 -9.8 c -16.3,0 -29.5,13.2 -29.5,29.5 v 9.8 71.2 H 1427.6 V 48.4 38.6 c 0,-16.3 -13.2,-29.5 -29.5,-29.5 h -9.8 -98.1 -9.8 c -16.3,0 -29.5,13.2 -29.5,29.5 v 9.8 289.1 9.8 c 0,16.3 13.2,29.5 29.5,29.5 h 9.8 98.1 9.8 c 16.3,0 29.5,-13.2 29.5,-29.5 v -9.8 -76.8 H 1539 v 76.8 9.8 c 0,16.3 13.2,29.5 29.5,29.5 h 9.8 98.1 9.8 c 0.5,0 1,0 1.5,0 h 6.9 75.1 5.5 c 10.3,0 19.9,-5.4 25.2,-14.2 l 2.9,-4.7 24.5,-40.3 h 158.5 l 23.6,39.9 2.8,4.8 c 5.3,9 15,14.5 25.4,14.5 h 5.6 119.9 17.4 c 0.8,0 1.5,0 2.3,-0.1 h 96.4 9.8 c 16.3,0 29.5,-13.2 29.5,-29.5 v -9.8 -62.5 l 103.7,92.1 2.8,2.5 c 5.4,4.8 12.4,7.4 19.6,7.4 h 3.7 133.7 26.3 c 0.3,0 0.7,0 1,0 h 96.3 9.8 c 16.3,0 29.5,-13.2 29.5,-29.5 v -9.8 -60 c 19.5,1.7 39.3,2.6 57.4,2.6 1.7,0 3.3,0 4.9,0 43.2,-0.4 81.7,-5.6 114.5,-15.4 35.4,-10.6 62.7,-26.3 81.3,-46.5 25.7,-27.8 37.2,-61.6 32.4,-95 -2.5,-17.5 -9.3,-33.9 -20.2,-48.8 -10.3,-14.1 -23.6,-26.1 -39.8,-35.7 -22.7,-13.4 -54,-23.6 -93,-30.2 -30.8,-5.2 -66.1,-8.1 -99.4,-8.1 -91.3,0 -145.4,7.2 -182.2,13.4 l -8.2,1.4 c -14.2,2.4 -24.6,14.7 -24.6,29.1 v 8.3 0.3 c -6.2,-5.3 -13.2,-10.2 -20.8,-14.6 -23.9,-13.8 -57.4,-24.1 -99.6,-30.8 -41.7,-6.7 -77.7,-7.5 -91.3,-7.5 z m -37.6,129.7 c 15.2,-1.4 27.8,-1.6 33.8,-1.6 4.7,0 7.9,0.1 9.7,0.2 0,0 0.1,0 0.1,0 32,1.4 45.8,5.6 55.1,11.5 -0.2,0.2 -0.5,0.5 -0.8,0.7 -3.6,3 -15.4,10 -48.3,10 -14.3,0 -31,-1.4 -49.7,-4 v -16.8 z m 426.8,0.3 c 15.3,-1.4 28.1,-1.6 34.3,-1.6 4.7,0 7.9,0.1 9.8,0.2 0,0 0.1,0 0.1,0 27.2,1.2 44.7,4.8 55.9,11.7 -0.2,0.2 -0.4,0.3 -0.6,0.5 -8.1,6.7 -25.9,9.8 -55.7,9.8 -13.1,-0.1 -27.6,-1.4 -43.8,-4 z m -216.6,109.2 c 14,-6.4 27.6,-14.7 39.5,-25.2 v 59.4 z"
     id="path28"
     style="display:inline"
     inkscape:label="HARP" /></g>
	</g><g
     id="g63"
     inkscape:label="SHARPmz2500">
	
	<g
   id="g67"
   inkscape:label="mz2500"
   style="enable-background:new 0 0 3839 1077.2"><rect
     x="34.400002"
     y="475.20001"
     width="190.3"
     height="567.5"
     id="rect34"
     inkscape:label="m1"
     style="enable-background:new 0 0 3839 1077.2" /><path
     d="M 311,1042.7 V 623.3 c 0,-12.9 -10.5,-23.4 -23.4,-23.4 H 267.3 V 475.2 h 134.8 c 26.6,0 51.5,10.4 70.3,29.1 18.7,18.7 29,43.6 28.9,70.1 v 468.3 z"
     id="path33"
     inkscape:label="m2" /><path
     d="M 587.9,1042.7 V 623.3 c 0,-12.9 -10.5,-23.4 -23.4,-23.4 H 528 V 475.2 h 150.8 c 54.8,0 99.3,44.5 99.3,99.2 v 468.3 z"
     id="path31"
     inkscape:label="m3"
     style="enable-background:new 0 0 3839 1077.2" /><polygon
     points="1135.6,475.2 1043.8,599.9 851.5,599.9 851.5,475.2 "
     id="polygon36"
     inkscape:label="z1" /><path
     d="m 916.7,1042.7 c -29.6,0 -56.3,-16.4 -69.7,-42.8 -13.4,-26.5 -10.8,-57.7 6.8,-81.6 l 326.1,-443.1 h 96 c 27.2,0 51.8,15.1 64.1,39.4 12.3,24.3 9.9,53 -6.1,74.9 l -332.2,453.3 h -85 z"
     id="path38"
     inkscape:label="z2" /><polygon
     points="1310.4,918 1310.4,1042.7 1045.9,1042.7 1137.6,918 "
     id="polygon39"
     inkscape:label="z3" /><rect
     x="1370.3"
     y="688"
     width="241.89999"
     height="143.39999"
     id="rect35"
     inkscape:label="-"
     style="enable-background:new 0 0 3839 1077.2" /><path
     d="M 1685.5,618 V 474.5 h 261.6 V 618 Z m 211.7,-50 V 524.5 H 1735.5 V 568 Z"
     id="path43"
     inkscape:label="2_1" /><path
     d="m 1685.5,1042.3 v -248 c 0,-59.2 48.2,-107.4 107.4,-107.4 h 178 c 8.1,0 14.7,-6.6 14.7,-14.7 V 474.5 h 83 c 28.6,0 55.6,11.2 75.9,31.4 20.3,20.3 31.4,47.2 31.4,76 v 141.6 c 0,59.2 -48.2,107.4 -107.4,107.4 h -175.2 c -8.1,0 -14.7,6.6 -14.7,14.7 v 53.2 h 297.3 v 143.6 h -490.4 z m 440.3,-50 V 948.8 H 1828.5 V 845.6 c 0,-35.7 29,-64.7 64.7,-64.7 h 175.2 c 31.6,0 57.4,-25.7 57.4,-57.3 V 581.9 c 0,-15.3 -6,-29.7 -16.8,-40.5 -10.8,-10.8 -25.2,-16.8 -40.5,-16.8 h -33 v 147.7 c 0,35.7 -29,64.7 -64.7,64.7 h -178 c -31.6,0 -57.3,25.7 -57.3,57.3 v 198 z"
     id="path41"
     inkscape:label="2_2"
     style="enable-background:new 0 0 3839 1077.2" /><path
     d="M 2228.7,830.9 V 474.5 h 489.5 V 618 h -299.4 v 212.8 h -190.1 z m 140,-50 V 568 h 299.4 v -43.5 h -389.5 v 256.4 z"
     id="path47"
     inkscape:label="5_1" /><path
     d="M 2228.6,1042.3 V 898.8 h 282.1 c 8,0 14.6,-6.5 14.6,-14.6 v -38.7 c 0,-8 -6.5,-14.6 -14.6,-14.6 H 2457 V 687.1 h 153.9 c 59.1,0 107.2,48.1 107.2,107.2 v 141 c 0,28.5 -11.1,55.4 -31.3,75.6 -20.3,20.3 -47.2,31.5 -75.9,31.5 h -382.3 z m 382.3,-50 c 31.5,0 57.2,-25.7 57.2,-57.2 v -141 c 0,-31.5 -25.7,-57.2 -57.2,-57.2 H 2507 v 44 h 3.7 c 35.6,0 64.6,29 64.6,64.6 v 38.7 c 0,35.6 -29,64.6 -64.6,64.6 h -232 v 43.4 h 332.2 z"
     id="path45"
     inkscape:label="5_2"
     style="enable-background:new 0 0 3839 1077.2" /><path
     d="m 2878.3,1042.3 c -59.2,0 -107.4,-48.2 -107.4,-107.4 v -353 c 0,-59.2 48.2,-107.4 107.4,-107.4 h 85.7 v 409.6 c 0,8.1 6.6,14.7 14.7,14.7 h 74.8 c 8.1,0 14.7,-6.6 14.7,-14.7 V 632.7 c 0,-8.1 -6.6,-14.7 -14.7,-14.7 h -51.2 V 474.5 H 3154 c 59.2,0 107.4,48.2 107.4,107.4 V 935 c 0,59.2 -48.2,107.4 -107.4,107.4 h -275.7 z m 0,-517.8 c -31.6,0 -57.3,25.7 -57.3,57.3 v 353.1 c 0,31.6 25.7,57.4 57.3,57.4 H 3154 c 31.6,0 57.3,-25.7 57.3,-57.4 v -353 c 0,-31.6 -25.7,-57.3 -57.3,-57.3 h -101.6 v 43.5 h 1.2 c 35.7,0 64.7,29 64.7,64.7 v 251.4 c 0,35.7 -29,64.7 -64.7,64.7 h -74.8 c -35.7,0 -64.7,-29 -64.7,-64.7 V 524.5 Z"
     id="path49"
     inkscape:label="0" /><path
     d="m 3421.6,1042.3 c -59.2,0 -107.4,-48.2 -107.4,-107.4 v -353 c 0,-59.2 48.2,-107.4 107.4,-107.4 h 85.7 v 409.6 c 0,8.1 6.6,14.7 14.7,14.7 h 74.8 c 8.1,0 14.7,-6.6 14.7,-14.7 V 632.7 c 0,-8.1 -6.6,-14.7 -14.7,-14.7 h -51.2 V 474.5 h 151.6 c 59.2,0 107.4,48.2 107.4,107.4 V 935 c 0,59.2 -48.2,107.4 -107.4,107.4 h -275.6 z m 0,-517.8 c -31.6,0 -57.3,25.7 -57.3,57.3 v 353.1 c 0,31.6 25.7,57.4 57.3,57.4 h 275.6 c 31.6,0 57.3,-25.7 57.3,-57.4 v -353 c 0,-31.6 -25.7,-57.3 -57.3,-57.3 h -101.6 v 43.5 h 1.2 c 35.7,0 64.7,29 64.7,64.7 v 251.4 c 0,35.7 -29,64.7 -64.7,64.7 H 3522 c -35.7,0 -64.7,-29 -64.7,-64.7 V 524.5 Z"
     id="path51"
     inkscape:label="0" /></g><g
   id="g62"
   inkscape:label="Sharp">
		
		
		
		
		
		
		
		
		
		
		
		
		
		<path
   class="st1"
   d="m 1074.7,351.6 c -4,0 -8,0 -12.1,-0.1 -68.5,-1.1 -152.2,-18.4 -223.7,-46.4 l -5.4,-2.1 43.4,-71.4 4,2 c 61.6,30.5 118.9,46.9 180.5,51.4 7.3,0.6 14.3,0.8 20.6,0.8 32.2,0 51.5,-7.3 51.5,-19.6 0,-13 -37.3,-20.5 -76.7,-28.5 -14.1,-2.8 -28.7,-5.8 -43.8,-9.3 -4.9,-1.1 -10,-2.3 -15.2,-3.5 -65.2,-14.7 -154.6,-34.8 -149.7,-104.2 4.1,-56.6 70.6,-86.5 192.4,-86.5 7.4,0 15.1,0.1 22.9,0.3 74.3,2.1 151.1,21.8 184.7,34.5 l 5.5,2.1 -40.1,65.9 -3.9,-1.7 c -47.8,-20.4 -96.9,-33.3 -145.9,-38.4 -14.1,-1.5 -26.9,-2.3 -38.2,-2.3 -32.2,0 -50.6,6.2 -50.6,17.1 0,4.8 7.5,9.8 21.6,14.3 15.2,4.9 36.2,8.9 60.4,13.5 6.2,1.2 12.5,2.4 19,3.6 50.6,9.8 102.1,21.4 135.9,39.4 34.1,18.2 49.4,41.9 48.2,74.6 -1,35.2 -21.8,61 -61.8,76.5 -30.2,12.1 -71.8,18 -123.5,18 z"
   id="path58"
   inkscape:label="S"
   style="enable-background:new 0 0 3839 1077.2" /><polygon
   class="st1"
   points="1393.1,226.2 1393.1,342.4 1285.2,342.4 1285.2,43.5 1393.1,43.5 1393.1,154 1573.4,154 1573.4,43.5 1681.3,43.5 1681.3,342.4 1573.4,342.4 1573.4,226.2 "
   id="polygon52"
   inkscape:label="H" />
		<path
   class="st1"
   d="m 2041,342.3 -35,-59.2 h -197.5 l -36,59.2 h -86.6 L 1868,43.5 h 122.4 l 182.1,298.9 H 2041 Z m -74.4,-125.9 -57.8,-97.8 -59.7,97.8 z"
   id="path54"
   inkscape:label="A" />
		<path
   class="st1"
   d="m 2447.2,342.4 -155.4,-138 15,-24.8 3.2,0.5 c 22,3.3 41.8,5 58.9,5 32.5,0 56.2,-6.1 70.5,-18.2 9.6,-8.1 14.6,-18.4 14.1,-29.1 -0.4,-9.7 -5.4,-18.9 -13.3,-24.5 -17.1,-12.2 -39,-17.8 -75.8,-19.4 -2.2,-0.1 -6,-0.2 -11.3,-0.2 -11,0 -39.1,0.6 -68.3,5.9 v 242.5 h -107.9 v -294 l 4.1,-0.7 c 35.5,-6 87.6,-12.9 175.9,-12.9 28.3,0 61,2.7 89.7,7.5 36,6 65.2,15 84.4,26 15.4,8.8 34.8,24.8 40.2,51.4 3.9,19.5 -1.2,40.3 -14,57.2 -23.8,31 -70.3,43.3 -97.3,48 L 2596,342.4 Z"
   id="path56"
   inkscape:label="R" />
		
		<path
   class="st1"
   d="m 2603.3,342.4 v -294 l 4.1,-0.7 c 35.5,-6 87.7,-12.9 176.5,-12.9 31.4,0 64.6,2.7 93.6,7.6 34.9,5.9 62.2,14.7 81.2,25.9 24.1,14.3 39.9,36.1 43.4,59.8 3.3,23 -5.1,46.7 -23.7,66.8 -28.8,31.5 -91,50 -170.7,50.8 -1.5,0 -3.1,0 -4.6,0 -29.3,0 -63.2,-2.6 -91.8,-6.9 v 103.7 h -108 z m 108.3,-167.1 c 30,6.6 55.6,9.8 78.1,9.9 39.9,0 62.5,-5.1 77.7,-17.7 9.5,-7.8 14.5,-18.1 14,-29 -0.4,-9.9 -5.5,-19.4 -13.3,-24.8 -17.1,-12.1 -40,-17.9 -76.5,-19.4 -2.2,-0.1 -6,-0.2 -11.4,-0.2 -11.2,0 -39.7,0.6 -68.8,5.9 v 75.3 z"
   id="path60"
   inkscape:label="P" />
	</g>
</g><g
     id="g64"
     style="display:inline"
     inkscape:label="Outline"><path
       class="st0"
       d="m 219.9,480.1 v 557.7 H 39.3 V 480.1 h 180.6 m 9.8,-9.8 H 219.9 39.3 29.5 v 9.8 557.7 9.8 h 9.8 180.5 9.8 v -9.8 -557.7 -9.8 z"
       id="path35"
       inkscape:label="m1" /><path
       class="st0"
       d="m 402.1,480.1 c 52.1,0 94.4,42.2 94.3,94.3 v 463.4 H 315.9 V 623.3 C 315.9,607.7 303.3,595 287.6,595 H 272.2 V 480.1 h 129.9 m 0,-9.8 h -129.8 -9.8 v 9.8 114.9 9.8 h 9.8 15.4 c 10.2,0 18.5,8.3 18.5,18.5 v 414.5 9.8 h 9.8 180.5 9.8 v -9.8 -463.4 c 0.1,-27.7 -10.7,-53.9 -30.4,-73.5 -19.7,-19.7 -45.9,-30.6 -73.8,-30.6 z"
       id="path34"
       inkscape:label="m2"
       style="display:none" /><path
       class="st0"
       d="m 678.9,480.1 c 52.1,0 94.4,42.2 94.4,94.3 v 463.4 H 592.8 V 623.3 C 592.8,607.7 580.2,595 564.5,595 H 533 V 480.1 h 145.9 m 0,-9.8 h -146 -9.8 v 9.8 114.9 9.8 h 9.8 31.5 c 10.2,0 18.5,8.3 18.5,18.5 v 414.5 9.8 h 9.8 180.5 9.8 v -9.8 -463.4 C 783.1,517 736.3,470.3 678.9,470.3 Z"
       id="path32"
       style="display:inline"
       inkscape:label="m3" /><path
       class="st0"
       d="M 1125.9,480.1 1041.4,595 h -185 V 480.1 h 269.5 m 19.4,-9.8 h -19.4 -269.5 -9.8 v 9.8 114.9 9.8 h 9.8 184.9 5 l 2.9,-4 84.5,-114.9 z"
       id="path37"
       inkscape:label="z1" /><path
       class="st0"
       d="m 1275.9,480.1 c 54.8,0 86.4,62.3 54,106.5 l -330.8,451.3 h -82.4 c -60,0 -94.5,-68.3 -59,-116.7 l 324.6,-441.1 h 93.6 m 0,-9.8 h -93.5 -5 l -2.9,4 -324.7,441.1 c -9.6,13 -15.1,28.2 -16.1,43.9 -0.9,14.7 2.2,29.5 8.9,42.9 6.7,13.3 16.9,24.6 29.2,32.5 13.2,8.5 28.7,13 44.8,13 h 82.4 5 l 2.9,-4 330.8,-451.3 c 8.8,-12 13.9,-26 14.8,-40.4 0.8,-13.6 -2,-27.2 -8.3,-39.5 -6.2,-12.3 -15.6,-22.7 -27,-30.1 -12.1,-7.9 -26.4,-12.1 -41.3,-12.1 z"
       id="path39"
       inkscape:label="z2" /><path
       class="st0"
       d="m 1305.5,922.9 v 114.9 h -250 L 1140,922.9 h 165.5 m 9.8,-9.8 h -9.8 -165.4 -5 l -2.9,4 -84.5,114.9 -11.5,15.6 h 19.4 250 9.8 v -9.8 -114.9 -9.8 z"
       id="path40"
       inkscape:label="z3" /><path
       class="st0"
       d="M 1607.3,692.9 V 826.5 H 1375.2 V 692.9 h 232.1 m 9.8,-9.8 h -9.8 -232.1 -9.8 v 9.8 133.6 9.8 h 9.8 232.1 9.8 v -9.8 -133.6 z"
       id="path36"
       inkscape:label="-"
       style="display:inline" /><path
       class="st0"
       d="M 1942.2,479.4 V 613.1 H 1690.4 V 479.4 h 251.8 m -211.6,93.5 h 171.5 v -53.3 h -171.5 v 53.3 M 1952,469.6 h -9.8 -251.8 -9.8 v 9.8 133.7 9.8 h 9.8 251.8 9.8 v -9.8 -133.7 z m -211.7,59.8 h 151.9 v 33.7 h -151.9 z"
       id="path44"
       inkscape:label="2_1" /><path
       class="st0"
       d="m 2068.5,479.4 c 27.3,0 53.1,10.7 72.5,30 19.4,19.4 30,45.1 30,72.5 V 723.5 C 2171,780 2125.1,826 2068.5,826 h -175.2 c -10.8,0 -19.6,8.8 -19.6,19.6 v 58.1 H 2171 v 133.8 H 1690.5 V 794.3 c 0,-56.5 45.9,-102.5 102.5,-102.5 h 178 c 10.8,0 19.6,-8.8 19.6,-19.6 V 479.4 h 77.9 m -337.8,517.8 h 400 v -53.3 h -297.3 v -98.3 c 0,-33 26.8,-59.8 59.8,-59.8 h 175.2 c 34.3,0 62.3,-27.9 62.3,-62.2 V 581.9 c 0,-16.7 -6.5,-32.2 -18.2,-44 -11.8,-11.8 -27.4,-18.2 -44,-18.2 h -37.9 v 152.6 c 0,33 -26.8,59.8 -59.8,59.8 h -178 c -34.3,0 -62.2,27.9 -62.2,62.2 v 202.9 m 337.9,-527.6 h -78.1 -9.8 v 9.8 192.9 c 0,5.4 -4.4,9.8 -9.8,9.8 h -178 c -61.9,0 -112.3,50.4 -112.3,112.3 v 243.1 9.8 h 9.8 480.5 9.8 v -9.8 -133.9 -9.8 h -9.8 -287.5 v -48.3 c 0,-5.4 4.4,-9.8 9.8,-9.8 h 175.2 c 61.9,0 112.3,-50.4 112.3,-112.3 V 581.9 c 0,-30 -11.7,-58.2 -32.8,-79.4 -21.2,-21.2 -49.4,-32.9 -79.3,-32.9 z m -28,59.9 h 28.1 c 14,0 27.2,5.5 37.1,15.3 9.9,9.8 15.4,23.1 15.4,37.1 v 141.6 c 0,28.9 -23.6,52.4 -52.5,52.4 h -175.2 c -38.4,0 -69.6,31.2 -69.6,69.6 v 98.3 9.8 h 9.8 287.5 v 33.7 h -380.4 v -193 c 0,-28.9 23.5,-52.4 52.4,-52.4 h 178 c 38.4,0 69.6,-31.2 69.6,-69.6 V 529.5 Z"
       id="path42"
       inkscape:label="2_2"
       style="display:inline" /><path
       class="st0"
       d="M 2713.3,479.4 V 613.1 H 2413.9 V 826 H 2233.7 V 479.4 h 479.6 m -439.5,306.4 v 0 h 99.8 V 572.9 H 2673 v -53.3 h -399.2 v 266.2 m 449.3,-316.2 h -9.8 -479.7 -9.8 v 9.8 346.6 9.8 h 9.8 180.2 9.8 V 826 622.9 h 289.6 9.8 v -9.8 -133.7 -9.8 z m -439.5,59.8 h 379.7 v 33.7 h -289.6 -9.8 v 9.8 203.1 h -80.2 V 529.4 Z"
       id="path48"
       inkscape:label="5_1" /><path
       class="st0"
       d="m 2610.9,692 c 56.4,0 102.3,45.8 102.3,102.3 v 141 c 0.1,56.3 -45.8,102.3 -102.3,102.3 H 2233.5 V 903.7 h 277.2 c 10.8,0 19.5,-8.7 19.5,-19.5 v -38.7 c 0,-10.8 -8.7,-19.5 -19.5,-19.5 H 2462 V 692 h 148.9 m -108.8,93.8 h 8.6 c 32.9,0 59.8,26.8 59.8,59.8 v 38.7 c 0,32.9 -26.7,59.8 -59.8,59.8 h -236.9 v 53.2 h 337.1 c 34.2,0 62.1,-27.8 62.1,-62.1 v -141 c 0,-34.2 -27.8,-62.1 -62.1,-62.1 h -108.8 v 53.7 m 108.8,-103.6 h -149 -9.8 v 9.8 134.1 9.8 h 9.8 48.8 c 5.3,0 9.7,4.4 9.7,9.7 v 38.7 c 0,5.3 -4.4,9.7 -9.7,9.7 h -277.2 -9.8 v 9.8 133.7 9.8 h 9.8 377.4 c 29.9,0 58.1,-11.7 79.3,-32.9 21.2,-21.2 32.8,-49.3 32.7,-79.1 V 794.2 c 0.1,-61.8 -50.2,-112 -112,-112 z m -99,59.6 h 99 c 28.8,0 52.3,23.5 52.3,52.3 v 141 c 0,28.8 -23.5,52.3 -52.3,52.3 h -327.4 v -33.6 h 227.1 c 38.3,0 69.5,-31.2 69.5,-69.5 v -38.7 c 0,-38 -30.6,-68.9 -68.4,-69.5 v -34.3 z"
       id="path46"
       inkscape:label="5_2"
       style="display:inline" /><path
       class="st0"
       d="m 3154,479.4 c 56.5,0 102.5,45.9 102.5,102.5 V 935 c 0,56.4 -45.9,102.5 -102.5,102.5 h -275.6 c -56.5,0 -102.5,-45.9 -102.5,-102.5 V 581.9 c 0,-56.5 45.9,-102.5 102.5,-102.5 h 80.8 v 404.7 c 0,10.8 8.8,19.6 19.6,19.6 h 74.8 c 10.8,0 19.6,-8.8 19.6,-19.6 V 632.7 c 0,-10.8 -8.8,-19.6 -19.6,-19.6 h -46.3 V 479.4 H 3154 M 2878.3,997.2 H 3154 c 34.3,0 62.2,-27.9 62.2,-62.3 v -353 c 0,-34.3 -27.9,-62.2 -62.2,-62.2 H 3047.5 V 573 h 6.1 c 33,0 59.8,26.8 59.8,59.8 v 251.4 c 0,33 -26.8,59.8 -59.8,59.8 h -74.8 c -33,0 -59.8,-26.8 -59.8,-59.8 V 519.6 h -40.6 c -34.3,0 -62.2,27.9 -62.2,62.2 v 353.1 c -0.1,34.3 27.9,62.3 62.1,62.3 M 3154,469.6 h -146.7 -9.8 v 9.8 133.7 9.8 h 9.8 46.3 c 5.4,0 9.8,4.4 9.8,9.8 v 251.4 c 0,5.4 -4.4,9.8 -9.8,9.8 h -74.8 c -5.4,0 -9.8,-4.4 -9.8,-9.8 v -404.7 -9.8 h -9.8 -80.8 c -61.9,0 -112.3,50.4 -112.3,112.3 V 935 c 0,61.9 50.4,112.3 112.3,112.3 H 3154 c 61.9,0 112.3,-50.4 112.3,-112.3 V 581.9 C 3266.2,520 3215.9,469.6 3154,469.6 Z m -275.7,517.8 c -28.9,0 -52.4,-23.6 -52.4,-52.5 V 581.8 c 0,-28.9 23.5,-52.4 52.4,-52.4 h 30.8 v 354.9 c 0,38.4 31.2,69.6 69.6,69.6 h 74.8 c 38.4,0 69.6,-31.2 69.6,-69.6 V 632.8 c 0,-37.2 -29.2,-67.6 -65.9,-69.5 v -33.8 h 96.7 c 28.9,0 52.4,23.5 52.4,52.4 v 353 c 0,28.9 -23.5,52.5 -52.4,52.5 z"
       id="path50"
       inkscape:label="0" /><path
       class="st0"
       d="m 3697.2,479.4 c 56.5,0 102.5,45.9 102.5,102.5 V 935 c 0,56.4 -45.9,102.5 -102.5,102.5 h -275.6 c -56.5,0 -102.5,-45.9 -102.5,-102.5 V 581.9 c 0,-56.5 45.9,-102.5 102.5,-102.5 h 80.8 v 404.7 c 0,10.8 8.8,19.6 19.6,19.6 h 74.8 c 10.8,0 19.6,-8.8 19.6,-19.6 V 632.7 c 0,-10.8 -8.8,-19.6 -19.6,-19.6 h -46.3 V 479.4 h 146.7 m -275.6,517.8 h 275.6 c 34.3,0 62.2,-27.9 62.2,-62.3 v -353 c 0,-34.3 -27.9,-62.2 -62.2,-62.2 H 3590.7 V 573 h 6.1 c 33,0 59.8,26.8 59.8,59.8 v 251.4 c 0,33 -26.8,59.8 -59.8,59.8 H 3522 c -33,0 -59.8,-26.8 -59.8,-59.8 V 519.6 h -40.6 c -34.3,0 -62.2,27.9 -62.2,62.2 v 353.1 c 0,34.3 27.9,62.3 62.2,62.3 m 275.6,-527.6 h -146.7 -9.8 v 9.8 133.7 9.8 h 9.8 46.3 c 5.4,0 9.8,4.4 9.8,9.8 v 251.4 c 0,5.4 -4.4,9.8 -9.8,9.8 H 3522 c -5.4,0 -9.8,-4.4 -9.8,-9.8 v -404.7 -9.8 h -9.8 -80.8 c -61.9,0 -112.3,50.4 -112.3,112.3 V 935 c 0,61.9 50.4,112.3 112.3,112.3 h 275.6 c 61.9,0 112.3,-50.4 112.3,-112.3 V 581.9 c 0,-61.9 -50.4,-112.3 -112.3,-112.3 z m -275.6,517.8 c -28.9,0 -52.4,-23.6 -52.4,-52.5 V 581.8 c 0,-28.9 23.5,-52.4 52.4,-52.4 h 30.8 v 354.9 c 0,38.4 31.2,69.6 69.6,69.6 h 74.8 c 38.4,0 69.6,-31.2 69.6,-69.6 V 632.8 c 0,-37.2 -29.2,-67.6 -65.9,-69.5 v -33.8 h 96.7 c 28.9,0 52.4,23.5 52.4,52.4 v 353 c 0,28.9 -23.5,52.5 -52.4,52.5 z"
       id="path52"
       inkscape:label="0" /><path
       class="st0"
       d="m 1040.4,39.3 c 7.9,0 15.6,0.1 22.7,0.3 69.5,2 146,20.1 183.1,34.2 l -34.8,57.2 c -45.9,-19.5 -95.1,-33.3 -147.3,-38.8 -14.1,-1.5 -27.1,-2.3 -38.7,-2.3 -33.9,0 -55.5,6.7 -55.5,22 0,18.3 48.3,25.1 104.9,36.2 116.3,22.6 182.5,45 180.2,109 -2.2,73.1 -94.2,89.4 -180.3,89.4 -4,0 -8.1,0 -12,-0.1 -75.1,-1.2 -158.4,-21.2 -222,-46 l 38,-62.5 c 57.4,28.6 114.8,47.1 182.3,52.1 7.6,0.6 14.6,0.8 21,0.8 40.6,0 56.4,-11 56.4,-24.5 0,-22.3 -60.1,-27.6 -124.3,-42.6 C 948.2,208.4 848,191.6 853,121.2 858,51.6 963.9,39.3 1040.4,39.3 m 0,-9.8 c 0,0 0,0 0,0 -50.3,0 -91.9,5.2 -123.5,15.3 -21,6.8 -37.8,15.9 -49.9,27 -14.4,13.3 -22.4,29.7 -23.8,48.7 -1.3,17.8 3.3,33.7 13.6,47.5 8.8,11.7 21.4,21.6 38.5,30.4 30,15.4 67.9,23.9 101.4,31.4 5.3,1.2 10.3,2.3 15.2,3.5 15.2,3.5 29.8,6.5 43.9,9.3 22.6,4.6 42.2,8.5 56.1,13.3 16.3,5.7 16.7,9.9 16.7,10.4 0,1.2 0,4.8 -7.5,8.5 -5.7,2.8 -17.2,6.2 -39.1,6.2 -6.2,0 -13,-0.3 -20.3,-0.8 -32.2,-2.4 -62.6,-7.9 -92.9,-16.8 -27.9,-8.2 -56,-19.4 -85.8,-34.1 l -8.1,-4 -4.7,7.7 -38,62.5 -6.1,10 10.9,4.2 c 33.5,13.1 70.9,24.3 108.2,32.3 41.4,9 80.8,13.8 117.2,14.4 4.1,0.1 8.2,0.1 12.2,0.1 52.3,0 94.4,-6.1 125.2,-18 19.5,-7.6 34.8,-17.7 45.5,-30 12.3,-14.1 18.8,-31.2 19.4,-50.9 0.6,-17.7 -3.6,-33.4 -12.5,-46.7 -8.4,-12.5 -20.9,-23.1 -38.3,-32.4 -34.4,-18.4 -86.3,-30 -137.3,-39.9 -6.5,-1.3 -12.8,-2.5 -19,-3.6 -24.1,-4.6 -44.9,-8.5 -59.8,-13.3 -17.1,-5.5 -18.2,-9.6 -18.2,-9.6 0,-1.3 0.4,-2.2 1.3,-3.2 1,-1.1 3.1,-2.7 7.4,-4.3 8.2,-3 21,-4.7 37,-4.7 11.1,0 23.8,0.8 37.6,2.2 48.5,5.1 97.1,17.9 144.5,38 l 7.8,3.3 4.4,-7.2 34.8,-57.2 6.1,-10.1 -11,-4.2 C 1215.6,51.9 1138.1,32 1063.2,29.8 c -7.6,-0.1 -15.3,-0.3 -22.8,-0.3 z"
       id="path59"
       inkscape:label="S"
       style="display:inline" /><path
       class="st0"
       d="m 1676.4,48.4 v 289.1 h -98.1 V 221.3 h -190 v 116.1 h -98.1 v -289 h 98.1 v 110.5 h 190 V 48.4 h 98.1 m 9.8,-9.8 h -9.8 -98.1 -9.8 v 9.8 100.7 H 1398 V 48.4 38.6 h -9.8 -98.1 -9.8 v 9.8 289.1 9.8 h 9.8 98.1 9.8 v -9.8 -106.4 h 170.5 v 106.4 9.8 h 9.8 98.1 9.8 V 337.5 48.4 Z"
       id="path53"
       inkscape:label="H" /><path
       class="st0"
       d="m 1987.6,48.4 176.1,289.1 h -119.9 l -35,-59.2 h -203.1 l -36,59.2 h -75.1 L 1870.7,48.4 h 116.9 m -147.2,172.9 h 134.8 l -66.3,-112.2 -68.5,112.2 M 1993.1,38.6 h -5.5 -116.9 -5.5 l -2.9,4.7 -176.1,289.1 -9.1,14.9 h 17.4 75.1 5.5 l 2.9,-4.7 33.2,-54.5 h 192 l 32.1,54.4 2.8,4.8 h 5.6 119.9 17.4 L 2171.9,332.4 1996,43.3 Z m -135.2,172.9 50.9,-83.4 49.3,83.4 z"
       id="path55"
       inkscape:label="A" /><path
       class="st0"
       d="m 2356.8,39.5 c 50,0 129.9,8.8 171.7,32.9 45,25.7 48,70.7 24.7,101.3 -23.5,30.6 -72.4,43.5 -104.6,47.7 l 134.2,116.1 H 2449 l -151,-134 11.2,-18.5 c 23.5,3.6 43.1,5.1 59.6,5.1 39.7,0 61.2,-8.8 73.6,-19.3 23.5,-19.8 18.6,-48.5 0.5,-61.3 -17.6,-12.6 -39.5,-18.6 -78.4,-20.3 -2.9,-0.1 -6.8,-0.2 -11.5,-0.2 -17.2,0 -45.3,1.3 -73.2,6.7 v 241.7 h -98.1 v -285 c 43.8,-7.5 95.3,-12.9 175.1,-12.9 m 0,-9.8 c -88.6,0 -141,7 -176.7,13 l -8.2,1.4 v 8.3 285 9.8 h 9.8 98.1 9.8 v -9.8 -128.3 l 1.9,1.7 151,134 2.8,2.5 h 3.7 133.7 26.3 l -19.9,-17.2 -118.5,-102.6 c 28.2,-6 68.4,-19.2 90.4,-47.9 13.7,-18 19.2,-40.3 15,-61.1 -3.2,-15.6 -13.1,-37.8 -42.5,-54.6 -46.9,-27 -133.1,-34.2 -176.7,-34.2 z m -67.1,74.1 c 27.3,-4.6 53,-5.1 63.4,-5.1 5.2,0 8.9,0.1 11.1,0.2 36.3,1.6 56.8,6.7 73.2,18.5 6.7,4.8 11,12.5 11.3,20.7 0.4,9.1 -4,18.1 -12.4,25.2 -13.3,11.3 -36,17 -67.3,17 -16.8,0 -36.4,-1.7 -58.1,-5 l -6.5,-1 -3.4,5.6 -11.2,18.5 v 0 -94.6 z"
       id="path57"
       inkscape:label="R" /><path
       class="st0"
       d="m 2783.9,39.6 c 57.5,0 132.3,9.2 172.3,32.9 44.5,26.3 57.5,77.1 18.6,119 -27.1,29.7 -86.8,48.5 -167.2,49.2 -1.5,0 -3,0 -4.6,0 -31.8,0 -67.7,-3 -96.8,-7.7 v 104.5 h -98.1 v -285 c 43.9,-7.4 95.8,-12.9 175.8,-12.9 m 5.8,150.5 c 39.1,0 63.9,-4.8 80.9,-18.8 23.9,-19.7 18,-49.5 0.5,-61.6 -17,-12 -39.8,-18.6 -79,-20.3 -2.9,-0.1 -6.8,-0.2 -11.6,-0.2 -17.4,0 -46,1.3 -73.7,6.7 v 83.3 c 24.1,5.5 53.9,10.8 82.9,10.9 m -5.8,-160.3 c -89.1,0 -141.6,7 -177.3,13 l -8.2,1.4 v 8.3 285 9.8 h 9.8 98.1 9.8 v -9.8 -93.1 c 27.6,3.9 59.3,6.1 87,6.1 1.6,0 3.1,0 4.6,0 40.4,-0.4 76.2,-5.1 106.3,-14.2 30.2,-9.1 53.1,-21.9 68,-38.2 19.6,-21.2 28.4,-46.3 24.9,-70.8 -1.8,-12.7 -6.8,-24.7 -14.8,-35.7 -7.9,-10.8 -18.3,-20.1 -30.9,-27.6 -19.6,-11.6 -47.4,-20.5 -82.9,-26.5 -29.2,-4.9 -62.7,-7.7 -94.4,-7.7 z m -67.4,74.3 c 27.2,-4.6 53.3,-5.1 63.9,-5.1 5.3,0 9,0.1 11.1,0.2 35.5,1.5 57.6,7 73.8,18.5 v 0 0 c 6.5,4.5 10.8,12.5 11.1,21 0.4,9.3 -4,18.2 -12.3,25 -14.3,11.7 -35.9,16.5 -74.6,16.5 -21.2,-0.1 -45.2,-3.1 -73.2,-9 v -67.1 z"
       id="path61"
       inkscape:label="P" /></g></g>
</svg>
