<?xml version="1.0" encoding="UTF-8" standalone="no"?>
<!-- Created with Inkscape (http://www.inkscape.org/) -->

<svg
   width="1009.8581mm"
   height="308.29459mm"
   viewBox="0 0 1009.8581 308.29459"
   version="1.1"
   id="svg1"
   inkscape:version="1.4 (86a8ad7, 2024-10-11)"
   xml:space="preserve"
   sodipodi:docname="segaalls.svg"
   xmlns:inkscape="http://www.inkscape.org/namespaces/inkscape"
   xmlns:sodipodi="http://sodipodi.sourceforge.net/DTD/sodipodi-0.dtd"
   xmlns:xlink="http://www.w3.org/1999/xlink"
   xmlns="http://www.w3.org/2000/svg"
   xmlns:svg="http://www.w3.org/2000/svg"><sodipodi:namedview
     id="namedview1"
     pagecolor="#ffffff"
     bordercolor="#000000"
     borderopacity="0.25"
     inkscape:showpageshadow="2"
     inkscape:pageopacity="0.0"
     inkscape:pagecheckerboard="true"
     inkscape:deskcolor="#d1d1d1"
     inkscape:document-units="mm"
     inkscape:zoom="0.41179678"
     inkscape:cx="1763.0055"
     inkscape:cy="715.15858"
     inkscape:window-width="3840"
     inkscape:window-height="2066"
     inkscape:window-x="-11"
     inkscape:window-y="-11"
     inkscape:window-maximized="1"
     inkscape:current-layer="g17" /><defs
     id="defs1"><linearGradient
       id="linearGradient4"
       inkscape:collect="always"><stop
         style="stop-color:#e50a05;stop-opacity:1;"
         offset="0"
         id="stop4" /><stop
         style="stop-color:#0a0908;stop-opacity:1;"
         offset="1"
         id="stop5" /></linearGradient><linearGradient
       id="linearGradient2"
       inkscape:collect="always"><stop
         style="stop-color:#7e0907;stop-opacity:1;"
         offset="0"
         id="stop2" /><stop
         style="stop-color:#090908;stop-opacity:1;"
         offset="1"
         id="stop3" /></linearGradient><marker
       id="DistanceX"
       orient="auto"
       refX="0"
       refY="0"
       style="overflow:visible"><path
         d="M 3,-3 -3,3 M 0,-5 V 5"
         style="stroke:#000000;stroke-width:0.5"
         id="path1" /></marker><pattern
       id="Hatch"
       patternUnits="userSpaceOnUse"
       width="8"
       height="8"
       x="0"
       y="0"><path
         d="M8 4 l-4,4"
         stroke="#000000"
         stroke-width="0.25"
         linecap="square"
         id="path2" /><path
         d="M6 2 l-4,4"
         stroke="#000000"
         stroke-width="0.25"
         linecap="square"
         id="path3" /><path
         d="M4 0 l-4,4"
         stroke="#000000"
         stroke-width="0.25"
         linecap="square"
         id="path4" /></pattern><symbol
       id="*Model_Space" /><symbol
       id="*Paper_Space" /><symbol
       id="*Paper_Space0" /><marker
       id="DistanceX-0"
       orient="auto"
       refX="0"
       refY="0"
       style="overflow:visible"><path
         d="M 3,-3 -3,3 M 0,-5 V 5"
         style="stroke:#000000;stroke-width:0.5"
         id="path1-9" /></marker><pattern
       id="Hatch-4"
       patternUnits="userSpaceOnUse"
       width="8"
       height="8"
       x="0"
       y="0"><path
         d="M8 4 l-4,4"
         stroke="#000000"
         stroke-width="0.25"
         linecap="square"
         id="path2-8" /><path
         d="M6 2 l-4,4"
         stroke="#000000"
         stroke-width="0.25"
         linecap="square"
         id="path3-8" /><path
         d="M4 0 l-4,4"
         stroke="#000000"
         stroke-width="0.25"
         linecap="square"
         id="path4-2" /></pattern><symbol
       id="*Model_Space-4" /><symbol
       id="*Paper_Space-5" /><symbol
       id="*Paper_Space0-5" /><linearGradient
       inkscape:collect="always"
       xlink:href="#linearGradient2"
       id="linearGradient3"
       x1="180.38425"
       y1="117.33324"
       x2="259.90067"
       y2="151.86177"
       gradientUnits="userSpaceOnUse"
       gradientTransform="translate(2.7871993,1.4652966)" /><radialGradient
       inkscape:collect="always"
       xlink:href="#linearGradient4"
       id="radialGradient5"
       cx="64.009926"
       cy="157.69275"
       fx="64.009926"
       fy="157.69275"
       r="44.499989"
       gradientTransform="matrix(0.90984045,1.2210229,-1.094573,0.81561676,181.58878,-49.346181)"
       gradientUnits="userSpaceOnUse" /></defs><g
     id="g9"
     inkscape:label="text"
     transform="translate(3.2596128,1.9184379)"><text
       xml:space="preserve"
       style="font-size:24.6094px;line-height:0;font-family:'Swis721 BT';-inkscape-font-specification:'Swis721 BT';text-align:start;letter-spacing:0px;word-spacing:0px;writing-mode:lr-tb;direction:ltr;text-anchor:start;fill:#000000;fill-opacity:1;stroke:none;stroke-width:7.44095;stroke-linecap:square;stroke-miterlimit:60;stroke-opacity:1;paint-order:fill markers stroke"
       x="970.18622"
       y="242.70062"
       id="text5"
       inkscape:label="T"><tspan
         sodipodi:role="line"
         id="tspan5"
         style="font-style:normal;font-variant:normal;font-weight:normal;font-stretch:normal;font-family:Arial;-inkscape-font-specification:Arial;stroke-width:7.44095"
         x="970.18622"
         y="242.70062">T</tspan></text><text
       xml:space="preserve"
       style="font-size:24.6094px;line-height:0;font-family:'Swis721 BT';-inkscape-font-specification:'Swis721 BT';text-align:start;letter-spacing:0px;word-spacing:0px;writing-mode:lr-tb;direction:ltr;text-anchor:start;fill:#000000;fill-opacity:1;stroke:none;stroke-width:7.44095;stroke-linecap:square;stroke-miterlimit:60;stroke-opacity:1;paint-order:fill markers stroke"
       x="985.96124"
       y="242.70062"
       id="text5-6"
       inkscape:label="M"><tspan
         sodipodi:role="line"
         id="tspan5-8"
         style="font-style:normal;font-variant:normal;font-weight:normal;font-stretch:normal;font-family:Arial;-inkscape-font-specification:Arial;stroke-width:7.44095"
         x="985.96124"
         y="242.70062">M</tspan></text><text
       xml:space="preserve"
       style="font-size:38.8533px;line-height:0;font-family:'Swis721 BT';-inkscape-font-specification:'Swis721 BT';text-align:start;letter-spacing:5.50333px;word-spacing:0px;writing-mode:lr-tb;direction:ltr;text-anchor:start;fill:#000000;fill-opacity:1;stroke:none;stroke-width:11.7478;stroke-linecap:square;stroke-miterlimit:60;stroke-opacity:1;paint-order:fill markers stroke"
       x="124.21333"
       y="302.0144"
       id="text6"
       inkscape:label="AmusementLinkageLiveSystem"><tspan
         sodipodi:role="line"
         id="tspan6"
         style="font-style:normal;font-variant:normal;font-weight:normal;font-stretch:normal;font-family:Arial;-inkscape-font-specification:Arial;letter-spacing:5.50333px;stroke-width:11.7478"
         x="124.21333"
         y="302.0144">AMUSEMENT LINKAGE LIVE SYSTEM</tspan></text></g><g
     id="g17"
     style="display:none;fill:#ffffff;stroke:#ffffff;stroke-width:4.5;stroke-linecap:square;stroke-miterlimit:5"
     transform="translate(3.2596128,1.9184379)"
     inkscape:label="LogoOutline"><path
       id="path18"
       style="stroke:none"
       d="m 162.74783,-2.1582165 c -6.45586,0.00451 -12.90984,3.3019646 -16.25741,9.8908691 L -3.6678566,303.25002 H 43.39077 L 162.94316,63.666189 v -0.0021 c 0.34173,-0.685068 1.00726,-0.682583 1.34411,0.0057 l 90.80841,185.580401 h 47.07619 L 179.01763,7.7109485 c -3.35702,-6.5841987 -9.81395,-9.8736732 -16.2698,-9.869165 z"
       inkscape:label="A" /><path
       id="path27"
       style="fill:#ffffff;stroke:none;stroke-width:4.5;stroke-linecap:square;stroke-miterlimit:5"
       d="m 78.500255,128.77953 c -25.780476,0 -46.732835,20.9381 -46.750118,46.71859 v 0.002 0.002 c 0.01728,25.78049 20.969642,46.71859 46.750118,46.71859 25.780475,0 46.732325,-20.9381 46.749605,-46.71859 v -0.002 -0.002 c -0.0173,-25.78049 -20.96913,-46.71859 -46.749605,-46.71859 z"
       inkscape:label="Circle" /><path
       id="path20"
       style="stroke:none"
       d="M 296.24975,1.750072 V 197.01567 c 8e-5,2.18712 0.87027,4.28567 2.41639,5.8322 l 39.98619,39.98619 c 1.54641,1.54678 3.6453,2.41587 5.83221,2.41588 h 158.44717 l 38.50204,-38.49998 H 358.42994 L 335.75019,184.07021 V 1.750072 Z"
       inkscape:label="L" /><path
       id="path23"
       style="stroke:none"
       d="m 539.7522,1.750072 -0.002,195.265598 c -3.3e-4,2.18703 0.87132,4.28607 2.41794,5.8322 l 39.98412,39.98619 c 1.54677,1.54628 3.64693,2.41588 5.83427,2.41588 H 721.6993 l 39.86888,-38.49998 H 601.9298 L 579.25005,184.07021 V 1.750072 Z"
       inkscape:label="L" /><path
       id="path25"
       style="stroke:none"
       d="m 806.68733,1.750072 c -3.69292,8.43e-5 -7.24409,1.4346895 -9.90017,3.9997559 L 738.07808,62.445075 c -5.78077,5.581793 -5.78014,14.918226 0,20.500041 l 47.94901,46.304664 h 101.14112 l 45.78118,44.21126 c 0.32707,0.31569 0.327,0.76236 0,1.07797 l -30.52165,29.47469 c -1.81854,1.75604 -4.24509,2.73623 -6.77323,2.73626 H 770.92569 l -39.86888,38.49998 h 179.77352 c 3.6927,0 7.24386,-1.43485 9.90017,-3.99976 l 59.74416,-57.6957 h 0.002 c 5.77961,-5.58183 5.7796,-14.91819 0,-20.50004 h -0.002 L 940.80834,124.7498 c -2.65636,-2.5648 -6.20547,-3.99971 -9.8981,-3.99976 H 835.53105 L 785.60541,72.539033 c -0.327,-0.31569 -0.32696,-0.762327 0,-1.077971 l 29.48451,-28.474747 c 1.81818,-1.755903 4.24472,-2.736217 6.77323,-2.736267 H 950.48837 L 984.63099,1.750072 Z"
       inkscape:label="S" /><path
       id="path29"
       style="-inkscape-font-specification:Arial;stroke:none;paint-order:fill markers stroke"
       d="m 968.51363,222.83373 v 6.58048 h 5.80275 v 15.53704 h 6.83214 v -15.53704 h 5.82807 v -6.58048 z"
       inkscape:label="T" /><path
       id="path31"
       style="-inkscape-font-specification:Arial;stroke:none;paint-order:fill markers stroke"
       d="m 985.53688,222.83373 v 22.11752 h 6.74843 v -3.62717 l 1.23248,3.62717 h 1.90014 1.75028 1.66553 l 1.26766,-3.65249 v 3.65249 h 6.7463 v -22.11752 h -6.99025 l -3.51968,10.23246 -3.4215,-10.23246 z"
       sodipodi:nodetypes="cccccccccccccccc"
       inkscape:label="M" /><path
       id="path34"
       style="-inkscape-font-specification:Arial;stroke:none;paint-order:fill markers stroke"
       d="m 135.4668,271.95322 h -2.17557 l -12.40855,32.31069 h 8.75967 l 3.05511,-8.42223 h 8.50543 l 3.24424,8.42223 h 9.08989 L 140.3125,271.95322 h -2.71508 z m 421.75566,0 h -2.17558 l -11.65407,30.34543 -12.20339,-16.57625 14.25598,-13.76918 h -11.48819 l -10.63088,10.61537 v -10.61537 h -8.17986 v 32.31069 h 8.17986 v -10.93784 l 1.98231,-1.93373 9.05681,12.87157 h 8.2734 2.2009 6.55877 l 3.0546,-8.42223 h 8.50594 l 3.24424,8.42223 h 9.08989 l -13.22504,-32.31069 h -2.71456 z m -317.56408,-0.47491 c -2.12522,0 -4.13335,0.36327 -5.96295,1.11931 -1.8767,0.77549 -3.45648,2.01122 -4.51548,3.64061 -5.1e-4,7.8e-4 -0.001,0.001 -0.002,0.002 -1.01101,1.54452 -1.55856,3.32637 -1.55856,5.15214 0,1.65612 0.44255,3.2713 1.30638,4.66019 l 0.01,0.014 0.008,0.0134 c 0.90332,1.40709 2.22993,2.51874 3.82199,3.3538 1.39554,0.73999 3.25729,1.30464 5.88905,1.94304 h 0.006 l 0.004,0.002 c 2.5241,0.59978 4.22441,1.08652 4.65449,1.25418 l 0.01,0.004 0.008,0.004 c 0.91874,0.34952 1.375,0.72802 1.52136,0.91829 l 0.006,0.01 0.006,0.008 c 0.20182,0.25732 0.27905,0.44888 0.27905,0.88677 0,0.3968 -0.0827,0.67704 -0.36897,1.07229 l -0.002,0.002 -0.002,0.004 c -0.20834,0.28964 -0.59528,0.62061 -1.37666,0.92397 -0.767,0.29778 -1.72331,0.47233 -2.90422,0.47233 -1.31912,0 -2.42105,-0.22378 -3.37137,-0.63097 -0.96875,-0.42819 -1.51703,-0.89864 -1.83606,-1.35909 -0.34822,-0.53151 -0.64019,-1.31107 -0.77308,-2.43551 l -0.2558,-2.16783 -7.75818,0.67748 0.0589,2.11925 c 0.0607,2.2303 0.69308,4.34607 1.87896,6.17171 l 0.006,0.0103 0.008,0.01 c 1.2109,1.82421 2.92971,3.23284 4.98212,4.12119 l 0.004,0.002 h 0.002 c 2.07583,0.89184 4.48892,1.28313 7.22437,1.28313 2.25796,0 4.37883,-0.41468 6.28334,-1.28313 l 0.004,-0.002 0.004,-0.002 c 1.91554,-0.88175 3.51381,-2.18979 4.60747,-3.87108 l 0.002,-0.004 0.002,-0.004 c 1.05542,-1.63828 1.63091,-3.50283 1.63091,-5.41208 0,-1.87622 -0.51544,-3.68477 -1.53892,-5.19916 l -0.002,-0.002 c -1.05156,-1.56759 -2.61585,-2.76141 -4.5098,-3.6344 l -0.006,-0.002 -0.006,-0.002 c -0.48733,-0.22151 -1.55995,-0.42979 -2.19728,-0.63665 l 7.50755,-0.56482 -0.0837,-2.16783 c -0.0774,-1.99726 -0.66201,-3.89855 -1.73426,-5.53093 -1.102,-1.67767 -2.72298,-2.95647 -4.65037,-3.75998 -1.89311,-0.80706 -4.01758,-1.18184 -6.31847,-1.18184 z m 353.72259,0 c -3.07803,0 -5.92113,0.64411 -8.40465,1.97456 -2.54609,1.36398 -4.54162,3.51991 -5.85701,6.23838 l -0.002,0.002 -0.002,0.002 c -1.27256,2.64523 -1.90997,5.52621 -1.90997,8.5447 0,3.04438 0.64652,5.8994 1.95699,8.44754 1.33696,2.59964 3.39469,4.67055 5.99602,6.04511 l 0.006,0.004 0.008,0.004 c 2.57095,1.33632 5.44067,1.99832 8.49199,1.99832 2.2908,0 4.54369,-0.41268 6.70915,-1.22473 l 0.006,-0.002 0.008,-0.002 c 2.16159,-0.82483 4.22848,-2.03737 6.19549,-3.60547 l 0.84749,-0.67592 v -13.65809 l -7.29309,0.0119 7.35562,-2.01797 -0.55087,-2.1425 c -0.53899,-2.09921 -1.35101,-3.91758 -2.52129,-5.39244 -1.19648,-1.5079 -2.83541,-2.64065 -4.75785,-3.40237 -1.91732,-0.77729 -4.02878,-1.14825 -6.28127,-1.14825 z m 202.58764,0 c -2.12522,0 -4.13335,0.36327 -5.96295,1.11931 -1.87671,0.77549 -3.45647,2.01122 -4.51548,3.64061 -5e-4,7.8e-4 -10e-4,0.001 -0.002,0.002 -1.01101,1.54452 -1.55856,3.32638 -1.55856,5.15214 0,1.65611 0.44307,3.2713 1.30689,4.66019 l 0.01,0.014 0.008,0.0134 c 0.90332,1.40709 2.22993,2.51874 3.82199,3.3538 1.39554,0.73999 3.25677,1.30464 5.88853,1.94304 h 0.004 l 0.006,0.002 c 2.5241,0.59978 4.22389,1.08652 4.65398,1.25418 l 0.0103,0.004 0.008,0.004 c 0.91875,0.34952 1.37499,0.72801 1.52136,0.91829 l 0.006,0.01 0.006,0.008 c 0.20181,0.25732 0.27905,0.44887 0.27905,0.88677 0,0.3968 -0.0827,0.67704 -0.36897,1.07229 l -0.002,0.002 -0.002,0.004 c -0.20835,0.28965 -0.59579,0.62062 -1.37718,0.92397 -0.76701,0.29779 -1.72333,0.47233 -2.90422,0.47233 -1.31912,0 -2.42051,-0.22378 -3.37085,-0.63097 -0.96874,-0.42819 -1.51704,-0.89865 -1.83606,-1.35909 -0.34823,-0.5315 -0.64072,-1.31108 -0.7736,-2.43551 l -0.2558,-2.16783 -7.75766,0.67748 0.0584,2.11925 c 0.0607,2.2303 0.69308,4.34608 1.87896,6.17171 l 0.006,0.0103 0.008,0.01 c 1.2109,1.82421 2.93023,3.23284 4.98264,4.12119 l 0.004,0.002 h 0.002 c 2.07583,0.89184 4.48891,1.28313 7.22437,1.28313 2.25796,0 4.37883,-0.41467 6.28333,-1.28313 l 0.004,-0.002 0.004,-0.002 c 1.91554,-0.88175 3.51381,-2.18979 4.60747,-3.87108 l 0.002,-0.004 0.002,-0.004 c 1.05543,-1.63828 1.63091,-3.50283 1.63091,-5.41208 0,-1.87622 -0.51546,-3.68477 -1.53893,-5.19916 l -0.002,-0.002 c -1.05155,-1.56759 -2.61586,-2.76141 -4.50981,-3.6344 l -0.006,-0.002 -0.006,-0.002 c -0.48732,-0.22151 -1.55943,-0.42979 -2.19676,-0.63665 l 7.50548,-0.56482 -0.0837,-2.16783 c -0.0774,-1.99726 -0.66046,-3.89855 -1.73271,-5.53093 -1.10279,-1.67887 -2.72684,-2.95863 -4.65605,-3.76204 -1.8917,-0.80541 -4.01417,-1.17978 -6.31279,-1.17978 z m 62.83595,0 c -2.12522,0 -4.13127,0.36327 -5.96087,1.11931 -1.87671,0.77549 -3.45856,2.01122 -4.51756,3.64061 -5e-4,7.8e-4 -0.001,0.001 -0.002,0.002 -1.01102,1.54452 -1.55856,3.32637 -1.55856,5.15214 0,1.65612 0.44461,3.2713 1.30844,4.66019 l 0.008,0.014 0.008,0.0134 c 0.90258,1.40592 2.22807,2.51691 3.81837,3.35174 4.2e-4,2.2e-4 0.002,-2.2e-4 0.002,0 1.39586,0.74075 3.25701,1.30626 5.8906,1.9451 h 0.006 l 0.004,0.002 c 2.5241,0.59978 4.2239,1.08652 4.65398,1.25418 l 0.0103,0.004 0.008,0.004 c 0.91874,0.34952 1.37498,0.72802 1.52135,0.91829 l 0.006,0.01 0.008,0.008 c 0.20181,0.25732 0.27957,0.44888 0.27957,0.88677 0,0.3968 -0.0848,0.67704 -0.37104,1.07229 l -0.002,0.002 -0.002,0.004 c -0.20833,0.28964 -0.59578,0.62061 -1.37717,0.92397 -0.767,0.29778 -1.72331,0.47233 -2.90422,0.47233 -1.31911,0 -2.42052,-0.22378 -3.37085,-0.63097 -0.96875,-0.42819 -1.51703,-0.89864 -1.83607,-1.35909 -0.34822,-0.53151 -0.6407,-1.31107 -0.77359,-2.43551 l -0.2558,-2.16783 -7.75767,0.67748 0.0584,2.11925 c 0.0607,2.2303 0.69307,4.34607 1.87895,6.17171 l 0.008,0.0103 0.006,0.01 c 1.2109,1.82421 2.93023,3.23284 4.98264,4.12119 l 0.004,0.002 h 0.002 c 2.07582,0.89184 4.4889,1.28313 7.22436,1.28313 2.25796,0 4.37884,-0.41468 6.28334,-1.28313 l 0.004,-0.002 0.004,-0.002 c 1.91554,-0.88175 3.51381,-2.18979 4.60747,-3.87108 l 0.002,-0.004 0.004,-0.004 c 1.05543,-1.63828 1.62885,-3.50283 1.62885,-5.41208 0,-1.87622 -0.51546,-3.68477 -1.53893,-5.19916 l -0.002,-0.002 c -1.05155,-1.56759 -2.61585,-2.76141 -4.5098,-3.6344 l -0.006,-0.002 -0.006,-0.002 c -0.48733,-0.22151 -1.55994,-0.42979 -2.19728,-0.63665 l 7.50755,-0.56482 -0.0837,-2.16783 c -0.0774,-1.99726 -0.66253,-3.89855 -1.73478,-5.53093 -1.102,-1.67768 -2.72297,-2.95647 -4.65036,-3.75998 -1.89311,-0.80706 -4.01707,-1.18184 -6.31796,-1.18184 z m -702.53903,0.47491 v 32.31069 h 8.04706 v -12.30675 l 4.18165,12.30675 h 3.02928 0.84542 2.65824 l 4.23075,-12.18376 v 12.18376 h 8.0486 v -32.31069 h -8.80669 l -6.50555,18.90014 -6.31848,-18.90014 z m 38.03903,0 v 18.31826 c 0,3.12714 0.35075,5.71338 1.23455,7.84396 v 0.002 l 0.002,0.004 c 0.89443,2.14026 2.49054,3.88161 4.55063,4.99814 2.09121,1.13341 4.60284,1.61903 7.46673,1.61903 2.96784,0 5.56798,-0.56214 7.67808,-1.87689 h 0.002 l 0.002,-0.002 c 2.00098,-1.25251 3.52796,-3.0104 4.33979,-5.12113 0.78573,-2.0429 1.0976,-4.50193 1.0976,-7.46673 V 271.9536 h -8.17934 v 18.29862 c 0,3.24344 -0.69487,5.08691 -1.11725,5.53713 -0.54879,0.58498 -1.77989,1.12913 -4.14651,1.12913 -1.2843,0 -2.2115,-0.24445 -2.9099,-0.63665 -0.68463,-0.39067 -1.05133,-0.82015 -1.32861,-1.50792 -0.25219,-0.66443 -0.51159,-2.25419 -0.51159,-4.52169 V 271.9536 Z m 64.9981,0 v 32.31069 h 25.25582 v -7.78144 h -17.0739 v -4.96662 h 15.3846 v -7.76387 h -15.3846 v -4.01784 h 16.42743 v -7.78092 z m 31.22858,0 v 32.31069 h 8.0486 v -12.30675 l 4.18166,12.30675 h 3.02927 0.84595 2.65617 l 4.2323,-12.18944 v 12.18944 h 8.04705 v -32.31069 h -8.8067 l -6.50399,18.9022 -6.32003,-18.9022 z m 38.05866,0 v 32.31069 h 25.25375 v -7.78144 h -17.07389 v -4.96662 h 15.38666 v -7.76387 h -15.38666 v -4.01784 h 16.42949 v -7.78092 z m 31.30455,0 v 32.31069 h 8.02948 v -16.68787 l 11.15436,16.68787 h 7.2285 v -32.31069 h -8.02948 v 16.67392 l -11.15643,-16.67392 z m 31.51384,0 v 7.78092 h 9.16223 v 24.52977 h 8.18141 v -24.52977 h 9.19944 v -7.78092 z m 46.76768,0 v 32.31069 h 21.87671 v -7.78144 h -13.69736 v -24.52925 z m 27.88822,0 v 32.31069 h 8.17987 v -32.31069 z m 15.63523,0 v 32.31069 h 8.0269 v -16.69149 l 11.15642,16.69149 h 7.2285 v -32.31069 h -8.02897 v 16.67547 l -11.15642,-16.67547 z m 132.23637,0 v 32.31069 h 25.25375 v -7.78144 h -17.07441 v -4.96662 h 15.38666 v -7.76387 h -15.38666 v -4.01784 h 16.43001 v -7.78092 z m 47.48806,0 v 32.31069 h 21.8767 v -7.78144 h -13.69684 v -24.52925 z m 27.88873,0 v 32.31069 h 8.18142 v -32.31069 z m 11.81065,0 12.51913,32.31069 h 2.57246 1.70325 2.57607 l 12.65246,-32.31069 h -8.61704 l -7.41816,19.94503 -7.13496,-19.94503 z m 35.35547,0 v 32.31069 h 25.25582 v -7.78144 h -17.07441 v -4.96662 h 15.38459 v -7.76387 h -15.38459 v -4.01784 h 16.42949 v -7.78092 z m 74.21459,0 12.67984,18.96266 v 13.34803 h 8.17935 v -13.32839 l 13.14287,-18.9823 h -9.7932 l -6.05648,9.19117 -0.004,0.004 c -0.43782,0.6707 -0.73274,1.19765 -1.12499,1.82211 -0.32882,-0.53403 -0.61854,-1.07002 -0.96273,-1.60352 l -0.002,-0.006 -6.15415,-9.40821 z m 65.59393,0 v 7.78092 h 9.16378 v 24.52977 h 8.17986 v -24.52977 h 9.20099 v -7.78092 z m 31.40015,0 v 32.31069 h 25.25427 v -7.78144 h -17.07441 v -4.96662 h 15.38459 v -7.76387 h -15.38459 v -4.01784 h 16.42949 v -7.78092 z m 31.22858,0 v 32.31069 h 8.04706 v -12.30675 l 4.18165,12.30675 h 3.02928 0.84542 2.65824 l 4.23075,-12.18582 v 12.18582 h 8.04654 v -32.31069 h -8.8067 l -6.50348,18.9022 -6.32055,-18.9022 z m -345.51741,7.17372 h 5.2e-4 5.2e-4 c 1.13985,1.3e-4 2.09988,0.19596 2.94607,0.55862 l 0.01,0.004 0.0103,0.004 c 0.86898,0.36287 1.39463,0.78051 1.73633,1.2268 0.38282,0.50001 0.81851,1.36922 1.18339,2.60759 l 0.60565,2.05466 -8.7421,0.0134 v 7.75973 h 8.17779 v 1.67018 c -0.53527,0.36474 -1.05046,0.73856 -2.0469,1.14618 -1.26295,0.50411 -2.51939,0.74621 -3.82457,0.74621 -1.50287,0 -2.86629,-0.31795 -4.19716,-0.97823 -1.21869,-0.60462 -2.07007,-1.44621 -2.73214,-2.72852 -0.64244,-1.2682 -1.02577,-2.97796 -1.02577,-5.19761 0,-1.7439 0.30213,-3.29938 0.8909,-4.73202 0.31787,-0.75971 0.75508,-1.45199 1.3379,-2.10581 0.50473,-0.55372 1.19157,-1.04038 2.16369,-1.44126 l 0.0103,-0.002 0.01,-0.004 c 0.88687,-0.37487 2.03524,-0.60138 3.48557,-0.60151 z m -353.58823,0.0956 c 1.82235,0 2.87682,0.39469 3.40651,0.83199 l 0.004,0.004 0.006,0.004 c 0.59218,0.48327 0.97501,1.14524 1.11932,2.48254 l 0.22065,2.03088 c -1.22213,-0.37848 -2.16853,-0.75005 -4.03696,-1.16789 l 0.0114,0.002 c -2.87242,-0.65725 -4.69016,-1.60915 -4.52737,-1.46089 l -0.008,-0.008 -0.008,-0.006 c -0.29068,-0.26008 -0.33021,-0.33108 -0.33021,-0.7891 0,-0.49158 0.0662,-0.69942 0.6718,-1.1839 l 0.002,-0.002 h 0.002 c 0.40404,-0.32423 1.51748,-0.73846 3.46646,-0.73846 z m 556.31074,0 c 1.82235,0 2.87474,0.39468 3.40444,0.83199 l 0.006,0.004 0.004,0.004 c 0.59217,0.48327 0.97707,1.14524 1.12138,2.48254 l 0.22066,2.03088 c -1.21924,-0.37759 -2.16535,-0.74919 -4.02766,-1.16582 l -0.01,-0.002 c -2.86204,-0.6571 -4.67793,-1.60676 -4.51549,-1.45882 l -0.008,-0.008 -0.008,-0.006 c -0.29067,-0.26008 -0.33021,-0.33107 -0.33021,-0.7891 0,-0.49158 0.0662,-0.69943 0.6718,-1.1839 l 0.002,-0.002 h 0.002 c 0.40404,-0.32423 1.51799,-0.73794 3.46697,-0.73794 z m 62.83596,0 c 1.82235,0 2.87682,0.39469 3.40651,0.83199 l 0.004,0.004 0.006,0.004 c 0.59217,0.48327 0.97499,1.14524 1.11931,2.48254 l 0.22066,2.03088 c -1.22212,-0.37848 -2.16905,-0.75005 -4.03748,-1.16789 l 0.0119,0.002 c -2.87241,-0.65725 -4.69017,-1.60915 -4.52737,-1.46089 l -0.008,-0.008 -0.006,-0.006 c -0.29067,-0.26008 -0.33228,-0.33108 -0.33228,-0.7891 0,-0.49158 0.0667,-0.69942 0.67231,-1.1839 l 0.002,-0.002 h 0.002 c 0.40405,-0.32423 1.51799,-0.73846 3.46697,-0.73846 z m -722.07014,5.22087 1.47071,3.90054 h -2.93005 z m 421.75565,0 1.47071,3.90054 h -2.92953 z"
       sodipodi:nodetypes="ccccccccccccccccccccccccccccccccccccsscscccccccccccccscccssccccccccccccsccccccsccccccccsccccscccsscccscccccccccsccccsscsccccccccccccsscccssccccccccccccsccscccsccccccccsccccsscscccsccccccccccscccssccccccccccccsscccccsccccccccsccccccccccccccccccccscccsscccssccsssccscccccccccccccccccccccccccccccccccccccccccccccccccccccccccccccccccccccccccccccccccccccccccccccccccccccccccccccccccccccccccccccccccccccccccccccccccccccccccccccccccccccccccccccccccccccccccccscssccscccccccsscsccccsssccccccccccscccsscccccsccccscccsscccccccccsscccscccccccc"
       inkscape:label="AmusementLinkageLiveSystem" /></g><path
     id="path12"
     style="display:inline;fill:url(#linearGradient3);stroke:none;stroke-width:0.944827;stroke-linecap:round;stroke-opacity:1"
     d="M 164.18918,64.579027 45.259303,302.9184 H 3.2596128 L 151.75609,10.670542 c 5.92416,-11.66034468 22.57663,-11.6719647 28.51757,-0.01987 L 301.75961,248.91845 H 259.75965 L 169.5682,64.599928 c -1.09258,-2.232269 -4.26976,-2.244614 -5.37902,-0.0209 z"
     inkscape:label="A"
     sodipodi:nodetypes="ccccccccc" /><path
     d="m 126.25971,177.41845 a 44.5,44.5 0 0 0 -88.999977,0 44.5,44.5 0 0 0 88.999977,0 z"
     style="display:inline;fill:url(#radialGradient5);stroke:none;stroke-width:0.944827;stroke-linecap:round"
     id="path5"
     inkscape:label="Circle" /><g
     id="g35"
     inkscape:label="LLS_TM_AmusementLinkageLiveSystem"><path
       id="path22"
       style="display:inline;fill:#000000;fill-opacity:1;stroke:none;stroke-width:0.944827;stroke-linecap:round"
       d="m 347.74459,244.91845 h 157.514 l 34.0016,-33.99991 H 360.7564 L 336.7587,186.9211 V 5.9183165 h -34.99909 l 5e-5,193.0148535 c 6e-5,1.5913 0.6322,3.11742 1.7571,4.24262 l 39.98588,39.9853 c 1.12494,1.12521 2.65105,1.75735 4.24195,1.75736 z"
       inkscape:label="L"
       sodipodi:nodetypes="ccccccccccc" /><path
       id="path32"
       style="display:inline;fill:#000000;fill-opacity:1;stroke:none;stroke-width:0.944827;stroke-linecap:round"
       d="m 547.01741,203.17579 39.98457,39.9853 c 1.12558,1.12522 2.65171,1.75736 4.24327,1.75736 h 132.80523 l 35.2081,-33.99991 H 604.25773 L 580.26002,186.9211 V 5.9183165 h -34.99908 l -6.1e-4,193.0148535 c -6.2e-4,1.59129 0.63152,3.11742 1.75708,4.24262 z"
       inkscape:label="L"
       sodipodi:nodetypes="ccccccccccc" /><path
       id="path57"
       style="fill:#000000;fill-opacity:1;stroke:none;stroke-width:0.944827;stroke-linecap:round"
       d="m 837.87952,124.91838 96.29006,3e-5 c 3.11033,4e-5 6.09895,1.20751 8.33646,3.3679 l 39.66612,38.30499 c 4.88496,4.71783 4.88496,12.54631 0,17.26411 l -59.74528,57.69512 c -2.23744,2.16045 -5.22606,3.36792 -8.33646,3.36792 H 739.88579 l 35.2081,-33.99991 123.82005,-5e-5 c 3.11043,-4e-5 6.09905,-1.20751 8.33647,-3.36803 l 30.52048,-29.47406 c 1.22194,-1.17939 1.22194,-3.13651 0,-4.31596 L 891.33593,128.91835 H 790.19631 L 742.90085,83.245607 c -4.88547,-4.71784 -4.88547,-12.546315 5.9e-4,-17.264192 L 801.61038,9.286416 c 2.23715,-2.1604876 5.22575,-3.3679625 8.33645,-3.3680335 l 172.94023,-6.6e-5 -30.15192,34.0000165 -127.61183,5.7e-5 c -3.11073,6.2e-5 -6.09933,1.207538 -8.33645,3.368034 L 787.3014,71.760418 c -1.22174,1.17947 -1.22174,3.136587 0,4.316092 z"
       inkscape:label="S"
       sodipodi:nodetypes="cccccccccccccccccccccccccc" /><path
       style="font-size:24.6094px;line-height:0;font-family:Arial;-inkscape-font-specification:Arial;letter-spacing:0px;word-spacing:0px;stroke-width:7.44095;stroke-linecap:square;stroke-miterlimit:60;paint-order:fill markers stroke"
       d="m 979.82649,244.61906 v -15.53708 h -5.80388 v -2.07883 h 13.96295 v 2.07883 h -5.82791 v 15.53708 z"
       id="text7"
       inkscape:label="T"
       aria-label="T" /><path
       style="font-size:24.6094px;line-height:0;font-family:Arial;-inkscape-font-specification:Arial;letter-spacing:0px;word-spacing:0px;stroke-width:7.44095;stroke-linecap:square;stroke-miterlimit:60;paint-order:fill markers stroke"
       d="m 991.04733,244.61906 v -17.61591 h 3.50876 l 4.16966,12.47293 q 0.57679,1.74237 0.84114,2.60754 0.30041,-0.9613 0.93731,-2.82383 l 4.2177,-12.25664 h 3.1362 v 17.61591 h -2.247 v -14.74401 l -5.1189,14.74401 h -2.1029 l -5.09492,-14.99635 v 14.99635 z"
       id="text8"
       inkscape:label="M"
       aria-label="M" /><path
       style="font-size:38.8533px;line-height:0;font-family:Arial;-inkscape-font-specification:Arial;letter-spacing:5.50333px;word-spacing:0px;stroke-width:11.7478;stroke-linecap:square;stroke-miterlimit:60;paint-order:fill markers stroke"
       d="m 127.41603,303.93284 10.68086,-27.81198 h 3.96501 l 11.3828,27.81198 h -4.19266 l -3.2441,-8.42327 h -11.62943 l -3.05439,8.42327 z m 8.02487,-11.42074 h 9.42876 l -2.90262,-7.70236 q -1.32799,-3.5097 -1.97301,-5.76729 -0.5312,2.67496 -1.49874,5.31197 z m 26.33386,11.42074 v -27.81198 h 5.53963 l 6.58306,19.69225 q 0.91062,2.75085 1.32799,4.11678 0.47428,-1.5177 1.47977,-4.45826 l 6.65893,-19.35077 h 4.95152 v 27.81198 h -3.54764 v -23.27783 l -8.08179,23.27783 h -3.31998 l -8.04385,-23.67622 v 23.67622 z m 56.23269,-27.81198 h 3.68044 v 16.06873 q 0,4.19266 -0.94857,6.65894 -0.94857,2.46627 -3.43381,4.02192 -2.46628,1.53668 -6.4882,1.53668 -3.9081,0 -6.39334,-1.34697 -2.48525,-1.34696 -3.54764,-3.88912 -1.0624,-2.56113 -1.0624,-6.98145 v -16.06873 h 3.68044 v 16.04976 q 0,3.62352 0.664,5.34991 0.68297,1.70742 2.3145,2.63702 1.65051,0.92959 4.02193,0.92959 4.05986,0 5.78625,-1.84022 1.7264,-1.84022 1.7264,-7.0763 z m 14.0594,18.87648 3.47175,-0.30354 q 0.24663,2.08685 1.13828,3.43382 0.91063,1.32799 2.80776,2.16273 1.89713,0.81577 4.26855,0.81577 2.10582,0 3.71838,-0.62606 1.61257,-0.62605 2.39039,-1.70742 0.7968,-1.10034 0.7968,-2.39039 0,-1.30902 -0.75886,-2.27656 -0.75885,-0.98651 -2.50421,-1.6505 -1.11931,-0.43635 -4.95152,-1.34697 -3.83221,-0.9296 -5.36889,-1.74536 -1.99199,-1.04343 -2.9785,-2.5801 -0.96754,-1.55565 -0.96754,-3.47176 0,-2.10582 1.1952,-3.92707 1.19519,-1.84022 3.49072,-2.78878 2.29553,-0.94857 5.10329,-0.94857 3.09233,0 5.44478,1.00548 2.37141,0.98651 3.64249,2.92159 1.27108,1.93507 1.36594,4.38238 l -3.52867,0.2656 q -0.28457,-2.63702 -1.93508,-3.98399 -1.63153,-1.34696 -4.83769,-1.34696 -3.33895,0 -4.87563,1.23314 -1.51771,1.21416 -1.51771,2.94055 0,1.49874 1.08137,2.46628 1.06239,0.96754 5.53963,1.99199 4.49621,1.00548 6.16568,1.76433 2.42833,1.11931 3.58559,2.8457 1.15725,1.70742 1.15725,3.94604 0,2.21965 -1.27108,4.19267 -1.27108,1.95404 -3.66147,3.05438 -2.37142,1.08137 -5.34992,1.08137 -3.77529,0 -6.33642,-1.10034 -2.54216,-1.10034 -4.00296,-3.30101 -1.44182,-2.21965 -1.5177,-5.00844 z m 32.74617,8.9355 v -27.81198 h 20.10962 v 3.28205 h -16.42918 v 8.51813 h 15.38576 v 3.26307 h -15.38576 v 9.46669 h 17.07421 v 3.28204 z m 31.22847,0 v -27.81198 h 5.53963 l 6.58306,19.69225 q 0.91062,2.75085 1.32799,4.11678 0.47428,-1.5177 1.47976,-4.45826 l 6.65894,-19.35077 h 4.95152 v 27.81198 h -3.54764 v -23.27783 l -8.08179,23.27783 h -3.31998 l -8.04385,-23.67622 v 23.67622 z m 38.05814,0 v -27.81198 h 20.10962 v 3.28205 h -16.42918 v 8.51813 h 15.38575 v 3.26307 h -15.38575 v 9.46669 h 17.0742 v 3.28204 z m 31.30435,0 v -27.81198 h 3.7753 l 14.60793,21.83601 v -21.83601 h 3.52867 v 27.81198 h -3.7753 l -14.60793,-21.85498 v 21.85498 z m 40.67619,0 v -24.52993 h -9.16316 v -3.28205 h 22.0447 v 3.28205 h -9.2011 v 24.52993 z m 37.60447,0 v -27.81198 h 3.68044 v 24.52994 h 13.69731 v 3.28204 z m 27.88952,0 v -27.81198 h 3.68044 v 27.81198 z m 15.63401,0 v -27.81198 h 3.77529 l 14.60793,21.83601 v -21.83601 h 3.52867 v 27.81198 h -3.77529 l -14.60793,-21.85498 v 21.85498 z m 33.44812,0 v -27.81198 h 3.68044 v 13.79217 l 13.81113,-13.79217 h 4.98946 l -11.66737,11.26898 12.1796,16.543 h -4.85666 l -9.90304,-14.07673 -4.55312,4.4393 v 9.63743 z m 28.51557,0 10.68086,-27.81198 h 3.96501 l 11.3828,27.81198 h -4.19266 l -3.2441,-8.42327 h -11.62943 l -3.05439,8.42327 z m 8.02487,-11.42074 h 9.42876 l -2.90262,-7.70236 q -1.32799,-3.5097 -1.97302,-5.76729 -0.53119,2.67496 -1.49873,5.31197 z m 39.462,0.51223 v -3.26307 l 11.7812,-0.019 v 10.32041 q -2.7129,2.16273 -5.59654,3.26307 -2.88365,1.08137 -5.91906,1.08137 -4.09781,0 -7.45573,-1.74537 -3.33896,-1.76433 -5.04638,-5.08431 -1.70742,-3.31999 -1.70742,-7.4178 0,-4.05986 1.68845,-7.56956 1.70742,-3.52867 4.8946,-5.23609 3.18719,-1.70742 7.34191,-1.70742 3.01644,0 5.44477,0.98651 2.44731,0.96754 3.83221,2.7129 1.38491,1.74536 2.10582,4.55312 l -3.31998,0.91063 q -0.62605,-2.12479 -1.55565,-3.33896 -0.9296,-1.21416 -2.65599,-1.93508 -1.72639,-0.73988 -3.83221,-0.73988 -2.52319,0 -4.36341,0.77783 -1.84021,0.75885 -2.9785,2.01096 -1.1193,1.25211 -1.74536,2.75084 -1.06239,2.58011 -1.06239,5.59655 0,3.71838 1.27108,6.2226 1.29005,2.50421 3.73735,3.71838 2.4473,1.21416 5.19815,1.21416 2.39038,0 4.66695,-0.91062 2.27656,-0.9296 3.45278,-1.97302 v -5.17917 z m 22.78622,10.90851 v -27.81198 h 20.10962 v 3.28205 h -16.42918 v 8.51813 h 15.38575 v 3.26307 h -15.38575 v 9.46669 h 17.0742 v 3.28204 z m 47.48856,0 v -27.81198 h 3.68044 v 24.52994 h 13.69731 v 3.28204 z m 27.88952,0 v -27.81198 h 3.68044 v 27.81198 z m 23.62091,0 -10.77572,-27.81198 h 3.98398 l 7.22808,20.20448 q 0.87268,2.42833 1.46079,4.55312 0.64503,-2.27656 1.49874,-4.55312 l 7.51265,-20.20448 h 3.75632 l -10.88954,27.81198 z m 23.54511,0 v -27.81198 h 20.10962 v 3.28205 h -16.42918 v 8.51813 h 15.38575 v 3.26307 h -15.38575 v 9.46669 h 17.0742 v 3.28204 z m 46.38819,-8.9355 3.47176,-0.30354 q 0.24662,2.08685 1.13828,3.43382 0.91062,1.32799 2.80775,2.16273 1.89714,0.81577 4.26856,0.81577 2.10581,0 3.71838,-0.62606 1.61256,-0.62605 2.39039,-1.70742 0.79679,-1.10034 0.79679,-2.39039 0,-1.30902 -0.75885,-2.27656 -0.75886,-0.98651 -2.50422,-1.6505 -1.11931,-0.43635 -4.95152,-1.34697 -3.83221,-0.9296 -5.36889,-1.74536 -1.99199,-1.04343 -2.9785,-2.5801 -0.96753,-1.55565 -0.96753,-3.47176 0,-2.10582 1.19519,-3.92707 1.1952,-1.84022 3.49073,-2.78878 2.29553,-0.94857 5.10329,-0.94857 3.09232,0 5.44477,1.00548 2.37142,0.98651 3.6425,2.92159 1.27108,1.93507 1.36593,4.38238 l -3.52867,0.2656 q -0.28457,-2.63702 -1.93507,-3.98399 -1.63154,-1.34696 -4.83769,-1.34696 -3.33896,0 -4.87564,1.23314 -1.5177,1.21416 -1.5177,2.94055 0,1.49874 1.08136,2.46628 1.0624,0.96754 5.53963,1.99199 4.49621,1.00548 6.16569,1.76433 2.42833,1.11931 3.58558,2.8457 1.15725,1.70742 1.15725,3.94604 0,2.21965 -1.27108,4.19267 -1.27108,1.95404 -3.66147,3.05438 -2.37141,1.08137 -5.34991,1.08137 -3.7753,0 -6.33643,-1.10034 -2.54216,-1.10034 -4.00295,-3.30101 -1.44182,-2.21965 -1.51771,-5.00844 z m 40.50542,8.9355 v -11.7812 l -10.7188,-16.03078 h 4.47723 l 5.48272,8.38534 q 1.51771,2.35244 2.82673,4.70489 1.25211,-2.18171 3.03541,-4.91358 l 5.38786,-8.17665 h 4.28753 l -11.09824,16.03078 v 11.7812 z m 22.33095,-8.9355 3.47175,-0.30354 q 0.24663,2.08685 1.13828,3.43382 0.91063,1.32799 2.80776,2.16273 1.89713,0.81577 4.26855,0.81577 2.10582,0 3.71838,-0.62606 1.61257,-0.62605 2.39039,-1.70742 0.7968,-1.10034 0.7968,-2.39039 0,-1.30902 -0.75886,-2.27656 -0.75885,-0.98651 -2.50421,-1.6505 -1.11931,-0.43635 -4.95152,-1.34697 -3.83221,-0.9296 -5.36889,-1.74536 -1.99199,-1.04343 -2.9785,-2.5801 -0.96754,-1.55565 -0.96754,-3.47176 0,-2.10582 1.1952,-3.92707 1.19519,-1.84022 3.49072,-2.78878 2.29553,-0.94857 5.10329,-0.94857 3.09233,0 5.44477,1.00548 2.37142,0.98651 3.6425,2.92159 1.27108,1.93507 1.36594,4.38238 l -3.52867,0.2656 q -0.28457,-2.63702 -1.93508,-3.98399 -1.63153,-1.34696 -4.83769,-1.34696 -3.33895,0 -4.87563,1.23314 -1.51771,1.21416 -1.51771,2.94055 0,1.49874 1.08137,2.46628 1.06239,0.96754 5.53963,1.99199 4.4962,1.00548 6.16568,1.76433 2.42833,1.11931 3.58559,2.8457 1.15725,1.70742 1.15725,3.94604 0,2.21965 -1.27108,4.19267 -1.27108,1.95404 -3.66147,3.05438 -2.37142,1.08137 -5.34992,1.08137 -3.77529,0 -6.33642,-1.10034 -2.54216,-1.10034 -4.00296,-3.30101 -1.44182,-2.21965 -1.5177,-5.00844 z m 39.74657,8.9355 v -24.52993 h -9.16316 v -3.28205 h 22.04469 v 3.28205 h -9.2011 v 24.52993 z m 22.23608,0 v -27.81198 h 20.10962 v 3.28205 H 916.8767 v 8.51813 h 15.38576 v 3.26307 H 916.8767 v 9.46669 h 17.07421 v 3.28204 z m 31.22844,0 v -27.81198 h 5.53963 l 6.58306,19.69225 q 0.91062,2.75085 1.32799,4.11678 0.47428,-1.5177 1.47976,-4.45826 l 6.65894,-19.35077 h 4.95152 v 27.81198 h -3.54764 v -23.27783 l -8.08179,23.27783 h -3.31998 l -8.04385,-23.67622 v 23.67622 z"
       id="text9"
       inkscape:label="AmusementLinkageLiveSystem"
       aria-label="AMUSEMENT LINKAGE LIVE SYSTEM" /></g></svg>
