<?xml version="1.0" encoding="UTF-8" standalone="no"?>
<svg
   version="1.1"
   viewBox="0 0 950 550"
   id="svg17"
   sodipodi:docname="segasystem32.svg"
   inkscape:version="1.4 (86a8ad7, 2024-10-11)"
   width="950"
   height="550"
   xmlns:inkscape="http://www.inkscape.org/namespaces/inkscape"
   xmlns:sodipodi="http://sodipodi.sourceforge.net/DTD/sodipodi-0.dtd"
   xmlns="http://www.w3.org/2000/svg"
   xmlns:svg="http://www.w3.org/2000/svg">
  <defs
     id="defs17" />
  <sodipodi:namedview
     id="namedview17"
     pagecolor="#ffffff"
     bordercolor="#000000"
     borderopacity="0.25"
     inkscape:showpageshadow="2"
     inkscape:pageopacity="0.0"
     inkscape:pagecheckerboard="true"
     inkscape:deskcolor="#d1d1d1"
     inkscape:zoom="1.4993583"
     inkscape:cx="378.82873"
     inkscape:cy="283.12112"
     inkscape:window-width="3840"
     inkscape:window-height="2066"
     inkscape:window-x="-11"
     inkscape:window-y="-11"
     inkscape:window-maximized="1"
     inkscape:current-layer="svg17" />
  <g
     id="g18"
     inkscape:label="Logo"
     transform="translate(52.054111,48.246111)">
    <g
       fill="#0060a8"
       id="g9"
       inkscape:label="SEGA">
      <path
         d="m 122.23,135.19 c 19.04,-0.06 37.33,13.89 37.32,33.77 -0.01,15.96 -10.89,28.92 -26.15,33.12 q -5.02,1.38 -14.57,1.39 -49.54,0.07 -99.1,0.02 -0.56,0 -0.56,-0.56 L 19,173.95 Q 18.99,173 19.94,173 q 50.27,0 101.09,0 c 6.97,0 7.35,-6.97 1.78,-6.97 -13.12,-0.01 -28.63,0.48 -40,-1.31 C 55.76,160.46 31.37,141.78 22.59,115.36 8.08,71.75 39.3,30.31 82.15,22.96 q 6.74,-1.16 19.93,-1.18 48.71,-0.07 97.43,-0.01 a 0.45,0.44 0 0 1 0.45,0.44 l 0.06,29.73 q 0,0.55 -0.55,0.55 -49.26,0.03 -98.45,0.02 -10.85,0 -16.38,1.38 c -32.24,8.08 -44.93,47.7 -18.09,70.28 q 12.69,10.68 29.46,10.9 13.1,0.17 26.22,0.12 z"
         id="path3"
         inkscape:label="S1" />
      <path
         d="m 20.29,241.67 q -1.36,-0.04 -1.35,-1.41 l 0.32,-29.05 q 0,-0.46 0.47,-0.46 51.26,0.01 102.51,-0.02 19.87,-0.01 32.93,-13.04 c 23.44,-23.4 10.7,-59.45 -19.51,-67.79 -9.14,-2.52 -22.7,-1.87 -33.92,-2.04 Q 91.71,127.71 87.38,126.74 C 51.49,118.6 50.54,70.27 85.95,60.99 q 5.61,-1.46 19.87,-1.47 46.81,-0.04 93.71,-0.01 a 0.47,0.47 0 0 1 0.47,0.47 v 29.54 a 0.8,0.8 0 0 1 -0.8,0.8 Q 147.84,90 96.31,90.12 c -5.61,0.01 -5.6,7.54 1.24,7.39 q 12.33,-0.25 24.68,-0.22 c 31.74,0.1 61.79,17.63 73.31,47.67 17.07,44.49 -15.15,88.59 -59.42,95.48 q -6.44,1.01 -19.94,1.03 -33.35,0.06 -66.72,0.03 c -6.6,-0.01 -19.31,0.44 -29.17,0.17 z"
         id="path6"
         inkscape:label="S2" />
      <path
         d="m 272.02,240.64 c -26.38,-3.12 -49.17,-21.63 -55.13,-47.78 q -1.38,-6.03 -1.38,-17.48 -0.01,-42.81 -0.02,-85.64 -0.01,-13.52 1.41,-19.88 c 5.35,-24.14 26.64,-42.2 50.26,-46.77 q 6.63,-1.29 19.91,-1.31 52.17,-0.07 104.31,-0.01 a 0.37,0.37 0 0 1 0.37,0.37 l 0.04,29.64 q 0,0.45 -0.45,0.45 -54.81,0.04 -109.59,0.07 c -14.32,0.01 -28.34,8.13 -32.52,22.17 q -1.21,4.06 -1.22,12.32 -0.02,44.3 -0.01,88.59 0,9.11 1.41,13.6 c 4.36,13.92 17.97,21.98 32.41,22.02 q 54.53,0.15 109.07,-0.25 a 0.29,0.29 0 0 1 0.29,0.29 l 0.31,29.33 q 0.01,1.13 -1.13,1.13 -51.75,0 -104.36,-0.03 -7.02,0 -13.98,-0.83 z"
         id="path4"
         inkscape:label="E1" />
      <path
         d="m 289.01,97.25 h 78.74 a 0.5,0.5 0 0 1 0.5,0.5 v 29.72 A 0.53,0.53 0 0 1 367.72,128 H 257.03 a 1.2,1.2 0 0 1 -1.2,-1.21 q 0.32,-21.5 0.12,-43.54 c -0.08,-9.81 6.81,-19.36 16.29,-22.39 q 4.18,-1.33 14.29,-1.34 52.46,-0.05 104.73,-0.01 a 0.51,0.5 0 0 1 0.51,0.5 l -0.03,29.75 a 0.49,0.48 -90 0 1 -0.48,0.49 q -46.59,0.01 -93.11,-0.01 c -5.22,0 -8.88,0.93 -9.6,6.49 q -0.07,0.52 0.46,0.52 z"
         id="path7"
         inkscape:label="E2" />
      <path
         d="m 288.61,166.31 c -0.31,4.5 4.43,6.68 8.31,6.68 q 47.06,0.02 94.19,0.01 a 0.29,0.29 0 0 1 0.29,0.29 l -0.19,29.78 q 0,0.42 -0.41,0.42 -54.56,0.03 -109.04,0.03 c -10.31,0 -20.79,-5.55 -24.43,-15.62 q -1.31,-3.63 -1.3,-10.58 0.03,-19.66 -0.27,-40.29 a 2,2 0 0 1 2,-2.03 h 109.96 a 0.53,0.53 0 0 1 0.53,0.53 v 29.59 q 0,0.63 -0.62,0.63 h -78.42 q -0.56,0 -0.6,0.56 z"
         id="path9"
         inkscape:label="E3" />
      <path
         d="M 577.83,218.11 C 598,162.93 617.87,107.18 638.46,51.5 q 2.71,-7.33 5.62,-11.48 c 20.16,-28.77 68.05,-29.39 88.26,-0.07 q 2.92,4.23 5.79,12.18 34.11,94.38 68,188.83 0.19,0.54 -0.39,0.54 h -130.1 a 1.72,1.55 55 0 1 -0.7,-0.16 c -1.77,-0.82 -0.63,-2.22 -0.65,-3.6 q -0.18,-13.17 0.02,-26.34 0.01,-0.66 0.67,-0.66 l 85.29,0.03 a 0.51,0.51 0 0 0 0.48,-0.68 Q 734.26,136.84 707.9,63.66 c -1.4,-3.87 -2.85,-8.47 -5.21,-11.49 -6.95,-8.9 -20.95,-9.06 -28.28,-0.93 q -2.29,2.53 -4.18,7.73 -33,90.91 -65.95,181.8 a 1.12,1.1 9.6 0 1 -1.05,0.73 q -64.64,0 -129.23,-0.05 C 449.91,241.43 429.4,233.57 415.06,214.19 405.3,200.99 404,188.53 404,170.99 q 0.01,-40.25 -0.01,-80.49 0,-13.5 1.37,-19.89 c 5.3,-24.62 26.12,-42.87 50.53,-47.58 q 6.39,-1.23 19.92,-1.25 50.34,-0.08 100.69,-0.01 0.5,0 0.5,0.5 v 29.47 q 0,0.61 -0.61,0.61 -52.86,-0.18 -105.63,-0.18 -16.25,0 -26.44,11.39 c -5.95,6.65 -7.3,13.91 -7.3,23.49 q -0.03,43.02 -0.02,86.03 0,11.22 1.39,15.72 c 3.04,9.86 11.5,17.58 21.34,20.55 q 4.51,1.35 13.82,1.37 34.05,0.07 69.93,0.05 a 1.02,1.02 0 0 0 1.02,-1.02 v -81.47 q 0,-0.29 -0.29,-0.29 l -58.97,-0.01 q -0.49,0 -0.49,-0.49 V 97.75 a 0.5,0.5 0 0 1 0.5,-0.5 h 91.25 q 0.5,0 0.5,0.5 l 0.01,120.22 a 0.42,0.42 0 0 0 0.82,0.14 z"
         id="path2"
         inkscape:label="GA1" />
      <path
         d="m 449.78,69.01 c 6.71,-8.24 13.69,-9.47 24.83,-9.48 q 50.94,-0.07 101.93,-0.01 0.56,0 0.57,0.56 l 0.2,29.3 A 0.62,0.62 0 0 1 576.69,90 q -45.95,0 -91.94,0 c -6.11,0.01 -7.51,4.33 -7.51,9.81 q 0.02,31.29 0,62.58 c 0,5.36 1.16,10.12 7.09,10.54 q 4.1,0.3 19.26,-0.02 0.47,-0.01 0.47,-0.48 v -6.15 q 0,-0.53 -0.53,-0.53 h -18.28 q -0.5,0 -0.5,-0.5 V 135.5 a 0.44,0.43 0 0 1 0.44,-0.43 l 50.76,-0.1 a 0.8,0.8 0 0 1 0.8,0.8 V 203 a 0.83,0.83 0 0 1 -0.84,0.83 q -29.11,-0.38 -57.83,-0.04 c -14.2,0.17 -26.92,-1.8 -32.13,-16.74 q -1.24,-3.55 -1.23,-9.25 0.07,-48.41 0.02,-96.8 0,-5.79 5.04,-11.99 z"
         id="path8"
         inkscape:label="G2" />
      <path
         d="m 674.27,178.47 a 0.42,0.42 0 0 0 -0.81,-0.15 l -22.55,62.61 q -0.21,0.56 -0.81,0.56 l -37.08,0.01 a 0.6,0.6 0 0 1 -0.56,-0.8 q 32.75,-90.56 65.52,-180.96 c 2.69,-7.44 11.36,-9.67 17.39,-4.68 2.19,1.81 3.18,4.77 4.14,7.44 q 25.36,70.43 50.79,140.85 a 0.3,0.3 0 0 1 -0.28,0.4 l -74.3,0.28 q -1.81,0 -1.78,-1.81 z m 2.5,-9.16 a 0.31,0.31 0 0 0 0.29,0.42 l 22.15,0.04 a 0.31,0.31 0 0 0 0.29,-0.42 l -11.02,-30.91 a 0.31,0.31 0 0 0 -0.59,0 z"
         id="path5"
         inkscape:label="A2" />
    </g>
    <g
       fill="#ff0000"
       id="g14"
       inkscape:label="System TM">
      <path
         d="m 241.19,384.68 c 5.24,-8.84 -0.25,-17.29 -9,-20.63 -12.13,-4.63 -29.86,-6.26 -39.06,-17.72 q -8.49,-10.58 -1.21,-24.38 0.29,-0.55 -0.28,-0.31 c -2.22,0.92 -7.35,12.12 -8.87,15.37 q -14.92,31.91 -30.14,63.68 c -5.63,11.74 -13.81,25.69 -25.05,31.64 q -11.57,6.12 -21.83,-0.34 c -7.05,-4.45 -6.06,-14.76 1.62,-17.01 6.9,-2.02 13.7,3.27 16.97,9.15 a 1.97,1.96 -35.4 0 0 3.03,0.51 c 4.15,-3.72 21.27,-24.87 18.93,-30.05 q -7.9,-17.52 -29.04,-62.88 c -4.3,-9.22 -6.95,-12.91 -17.42,-15.04 q -0.51,-0.11 -0.55,-0.63 c -1.41,-21.51 -18.07,-42.8 -42.11,-37.16 -10.96,2.58 -18.11,10.76 -15.71,22.35 2.27,10.93 11.83,15.67 21.98,19.25 19.69,6.95 48.72,13.66 50.42,37.08 0.8,11.07 -1.59,19.24 -9.31,27.37 q -6.94,7.31 -15.86,10.29 c -19.24,6.43 -37.83,3.68 -55.55,-4.3 a 1.39,1.38 28.8 0 0 -1.73,0.5 l -2.68,4.07 q -0.42,0.64 -1.18,0.64 l -6.76,0.03 q -0.54,0.01 -0.57,-0.54 l -1.77,-40.46 q -0.03,-0.66 0.63,-0.66 h 6.92 a 1.58,1.57 -6.8 0 1 1.53,1.2 c 3.32,13.67 12.25,26.64 25.08,32.37 13.89,6.21 39.24,5.63 42.03,-14.57 1.92,-13.82 -7.19,-23.02 -19.25,-27.32 -13.37,-4.76 -31.87,-8.93 -42.77,-18.7 -16.22,-14.53 -12.05,-39.24 6.21,-49.89 18.42,-10.74 38.62,-8.7 56.6,1.55 q 0.57,0.33 0.89,-0.24 l 2.79,-5.03 q 0.2,-0.36 0.61,-0.36 l 7.09,-0.01 q 0.58,0 0.59,0.57 l 0.65,36.39 a 0.39,0.39 0 0 0 0.39,0.38 l 34.2,-0.04 q 0.6,0 0.6,0.6 v 5.09 q 0,0.62 -0.62,0.67 c -2.81,0.21 -7.99,0.42 -10,2.62 q -0.37,0.41 -0.19,0.92 c 6.54,18.25 15.6,34.75 23.94,53.8 q 0.22,0.51 0.51,0.03 1.75,-2.88 3.22,-5.94 9.27,-19.29 17.91,-38.87 1.52,-3.42 1.75,-7.16 a 1.94,1.93 -70.5 0 0 -0.8,-1.68 q -5.08,-3.63 -11.34,-4.06 -0.62,-0.04 -0.62,-0.67 v -4.76 a 0.73,0.72 -89.2 0 1 0.74,-0.73 q 16.49,0.35 32.9,0.35 c 1.32,0 2.72,0.71 3.9,0.39 4.29,-1.18 8.75,-2.73 13.04,-2.93 q 12.52,-0.59 24.22,4.19 0.32,0.13 0.5,-0.17 l 2.09,-3.63 q 0.35,-0.61 1.05,-0.61 h 5.44 q 0.63,0 0.72,0.62 l 0.21,1.52 q 0.08,0.56 0.64,0.56 l 10.36,0.15 q 0.93,0.01 0.93,-0.92 v -24.93 q 0,-0.75 0.75,-0.75 H 281 q 0.75,0 0.75,0.75 v 24.98 a 0.97,0.97 0 0 0 0.98,0.97 l 26.07,-0.08 q 0.63,-0.01 0.6,0.62 l -0.28,6.95 a 1.08,1.07 -89.2 0 1 -1.06,1.04 q -8.33,0.06 -16.7,0.01 c -2.49,-0.02 -5.76,-0.48 -8.84,0.15 q -0.51,0.1 -0.51,0.62 -0.05,23.89 0.02,47.73 0.02,6.8 1.79,12.8 c 2.67,9.08 20.08,6.95 26.67,5.73 q 0.83,-0.15 0.85,0.7 l 0.12,4.58 q 0.01,0.7 -0.64,0.97 c -16.98,6.92 -47.59,12.3 -47.5,-16.59 q 0.08,-23.96 0.27,-47.94 0.03,-4.19 -0.47,-8.38 -0.06,-0.53 -0.59,-0.52 l -9.29,0.07 q -0.59,0.01 -0.57,0.6 l 0.69,15.07 q 0.04,0.73 -0.69,0.71 l -5.57,-0.14 q -0.69,-0.01 -0.88,-0.68 c -4.54,-16.11 -19.79,-24.39 -35.54,-17.83 -7.94,3.31 -9.83,14.14 -2.6,19.52 13.52,10.05 46.55,8.96 49.6,30.29 2.71,19.04 -12.53,29.62 -29.36,31.12 -11.51,1.02 -19.74,-0.77 -31.21,-6.65 q -0.51,-0.26 -0.76,0.27 l -1.81,4.02 q -0.25,0.55 -0.85,0.55 l -5.56,-0.02 a 0.69,0.69 0 0 1 -0.69,-0.66 l -1.16,-27.91 q -0.02,-0.58 0.55,-0.61 l 5.7,-0.3 q 0.56,-0.03 0.74,0.51 c 4.02,12.57 15.24,24.31 28.91,24.35 7.13,0.02 14.97,-0.37 19.01,-7.19 z"
         id="path10"
         inkscape:label="Syst" />
      <path
         d="m 315.04,388.48 c -11.36,-9.81 -15.24,-24.58 -14.33,-39 1.23,-19.68 14.34,-35.39 33.77,-39.98 14.42,-3.4 33.97,0.34 43,13.26 5.75,8.22 6.54,17.21 5.87,27.68 q -0.04,0.56 -0.6,0.56 H 320.5 a 0.51,0.51 0 0 0 -0.51,0.5 c -0.37,14.35 4.66,29.63 19.08,35.4 14.75,5.9 32.01,1.14 39.34,-13.66 a 1.14,1.14 0 0 1 1.57,-0.49 l 5.24,2.89 q 0.67,0.36 0.38,1.07 c -4.42,11.01 -19.34,19.08 -30.03,21.11 -12.94,2.46 -29.94,-0.19 -40.53,-9.34 z m 5.22,-44.71 43.76,-0.03 q 0.57,0 0.54,-0.56 c -0.7,-12 -2.69,-25.91 -16.76,-27.84 -17.53,-2.41 -27.65,12.44 -27.9,28.07 a 0.36,0.36 0 0 0 0.36,0.36 z"
         id="path11"
         inkscape:label="e" />
      <path
         d="m 408.96,351.25 c 0.0333,10.06667 0.0533,20.13 0.06,30.19 0.01,6.47 8.64,8.84 13.66,9.46 0.38,0.0467 0.57,0.26 0.57,0.64 v 3.84 c 0,0.41333 -0.20667,0.62 -0.62,0.62 h -45.16 c -0.42,0 -0.68,-0.20333 -0.78,-0.61 -0.30667,-1.3 -0.18,-2.56667 0.38,-3.8 0.13333,-0.29333 0.36333,-0.46 0.69,-0.5 10.61,-1.3 13.13,-2.16 13.21,-13.44 0.10667,-15.96667 0.0633,-31.93333 -0.13,-47.9 -0.12,-9.26 -7.47,-11.76 -15.17,-12.46 -0.44667,-0.04 -0.67,-0.28667 -0.67,-0.74 v -4.24 c 0,-0.49333 0.25,-0.75333 0.75,-0.78 l 31.51,-1.44 c 0.81124,-0.0401 1.49072,0.61206 1.49,1.43 v 11.24 c 0.002,0.3971 0.46431,0.61347 0.77,0.36 8.97,-7.61 16.31,-13.59 29.3,-14.41 12.79333,-0.81333 22.46333,4.07667 29.01,14.67 0.18667,0.3 0.4,0.32333 0.64,0.07 8.35,-8.82 19.95,-15.12 32.22,-15.02 11.35,0.09 21.48,5.26 25.09,16.38 0.95333,2.92 1.43,8.14667 1.43,15.68 0.007,13.87333 0.0533,27.75667 0.14,41.65 0.05,6.66 9.16,8.17 14.03,8.75 0.36667,0.04 0.56333,0.24333 0.59,0.61 l 0.32,3.8 c 0.0333,0.46667 -0.18333,0.7 -0.65,0.7 h -46.43 c -0.4,0 -0.59,-0.2 -0.57,-0.6 l 0.17,-4.08 c 0.0108,-0.33002 0.29024,-0.58696 0.62,-0.57 4.36667,0.22667 8.37333,-0.83667 12.02,-3.19 0.28,-0.18 0.47667,-0.42667 0.59,-0.74 0.62667,-1.77333 0.94,-2.98667 0.94,-3.64 0.0267,-15.38667 0.03,-30.78 0.01,-46.18 -0.007,-8.41333 -3.22,-14 -9.64,-16.76 -9.8,-4.21 -21.03,0.82 -28.37,7.95 -2.49,2.42 -2.95,4.06 -2.96,7.73 -0.0467,15.46667 -0.0367,30.93 0.03,46.39 0.007,1.27333 0.35667,2.17667 1.05,2.71 0.25333,0.19333 0.44,0.44333 0.56,0.75 1.24,3.16 9.31,4.93 11.98,5.1 0.40667,0.0267 0.61,0.24333 0.61,0.65 v 3.98 c 0,0.33333 -0.16667,0.5 -0.5,0.5 h -44.77 c -0.38,0 -0.56333,-0.19 -0.55,-0.57 l 0.1,-3.96 c 0.0133,-0.36 0.2,-0.54667 0.56,-0.56 3.75333,-0.16667 7.33333,-1.1 10.74,-2.8 0.27333,-0.14 0.46667,-0.35333 0.58,-0.64 0.86667,-2.15333 1.30333,-4.08 1.31,-5.78 0.04,-13.64667 0.04,-27.29333 0,-40.94 -0.03,-9.35 -1.03,-17.72 -10.97,-21.14 -9.63,-3.3 -21.26,2.47 -27.74,9.73 -2.92,3.26 -2.06,9.86 -1.97,13.91"
         id="path12"
         sodipodi:nodetypes="cccssssccccccsscccccccccccccccssccccccccccccccsssscccccccccc"
         inkscape:label="m" />
      <path
         d="m 786.44,341.35 q -4.36,-0.81 -5.53,3.32 a 0.7,0.7 0 0 1 -1.37,-0.17 l -0.06,-4.09 q -0.01,-0.63 0.61,-0.62 l 17.01,0.25 a 0.81,0.81 0 0 1 0.8,0.86 l -0.21,3.68 q -0.03,0.43 -0.45,0.42 -0.15,0 -0.31,0.01 -0.36,0.01 -0.47,-0.33 -1.32,-4.06 -5.52,-3.38 -0.52,0.08 -0.51,0.61 l 0.1,12.1 q 0.01,0.52 0.5,0.68 l 2.49,0.82 a 0.5,0.5 0 0 1 -0.16,0.97 l -9.09,0.03 q -0.53,0 -0.52,-0.52 0,-0.14 0,-0.28 0,-0.23 0.23,-0.27 l 2.42,-0.41 q 0.6,-0.11 0.6,-0.72 v -12.29 q 0,-0.57 -0.56,-0.67 z"
         id="path13"
         inkscape:label="T" />
      <path
         d="m 820.14,343.76 -6.16,11.89 a 0.74,0.74 0 0 1 -1.32,-0.02 l -5.96,-12.32 a 0.35,0.35 0 0 0 -0.66,0.15 c -0.11,3.45 -1.49,11.39 3.15,11.84 q 0.58,0.06 0.36,0.6 -0.08,0.18 -0.13,0.32 -0.1,0.28 -0.39,0.28 h -7.49 q -0.45,0 -0.53,-0.44 c -0.15,-0.76 2.2,-1.18 2.76,-1.48 q 0.48,-0.26 0.49,-0.81 l 0.19,-10.73 q 0.01,-0.56 -0.5,-0.83 l -2.62,-1.35 q -0.19,-0.1 -0.11,-0.3 0.06,-0.16 0.11,-0.29 0.1,-0.27 0.39,-0.27 h 6.55 q 0.46,0 0.66,0.41 l 4.94,10.02 a 0.61,0.61 0 0 0 1.09,0 l 4.93,-10.04 q 0.2,-0.39 0.63,-0.39 h 6.17 q 1.33,0 0.22,0.74 -0.95,0.63 -2.08,0.82 -0.58,0.09 -0.58,0.69 v 11.77 q 0.01,0.41 0.39,0.56 l 2.52,1.03 a 0.46,0.46 0 0 1 -0.17,0.88 l -8.82,0.01 q -1.05,0 -0.3,-0.74 l 0.23,-0.24 q 0.29,-0.28 0.7,-0.27 0.86,0.02 1.48,-0.49 0.39,-0.32 0.4,-0.82 l 0.23,-9.98 a 0.41,0.41 0 0 0 -0.77,-0.2 z"
         id="path14"
         inkscape:label="M" />
    </g>
    <g
       fill="#d10108"
       fill-opacity="0.89"
       id="g17"
       inkscape:label="32">
      <path
         d="m 658.45,323.01 a 0.62,0.62 0 0 0 -0.14,1.08 q 2.67,1.95 4.04,4.74 c 4.88,9.97 -8.3,40.53 -13.56,49.12 q -11.06,18.06 -33.57,21.9 c -1.09,0.18 -2.93,-0.07 -4.4,0.68 q -0.45,0.23 -0.95,0.23 -8.14,-0.03 -16.27,0 c -2.34,0 -4.74,-0.65 -7.35,-1 q -6.33,-0.87 -11.8,-4.99 c -8.26,-6.21 -6.93,-14.94 -5,-24.03 q 2.23,-10.46 8.87,-26.51 0.2,-0.48 0.72,-0.48 h 35.91 q 0.61,0 0.66,0.61 0.15,1.73 -0.46,3.48 -4.17,11.95 -8.47,23.84 -0.93,2.59 -1.27,5.15 a 0.92,0.92 0 0 0 1.28,0.96 c 2.98,-1.3 4.6,-3.19 5.95,-6.37 q 5.22,-12.22 9.53,-24.8 c 3.19,-9.3 -7.91,-9.29 -14.56,-9.37 q -0.6,-0.01 -0.59,-0.6 c 0.06,-5.66 4.38,-15.06 6.5,-20.26 a 1.64,1.63 -76.2 0 1 1.66,-1.01 c 10.02,0.93 17.77,0.2 21.84,-10.35 q 4.2,-10.9 5.44,-14.6 c 1.68,-5.04 -3.44,-3.31 -4.96,-0.95 -3.67,5.69 -5.59,12.82 -7.98,19.13 q -0.21,0.55 -0.58,0.56 l -35.42,0.12 a 1.78,1.77 -81 0 1 -1.69,-2.34 c 5.76,-17.5 12.02,-36.07 32.16,-40.73 3.12,-0.72 5.87,-1.54 9.19,-1.66 1.65,-0.06 2.94,-0.79 4.46,-0.8 q 9.65,-0.03 19.3,0 0.49,0 0.84,0.36 0.27,0.28 0.54,0.28 6.04,0.2 12.76,3.02 c 15.88,6.66 7.88,31.73 2.2,42.35 q -5.02,9.39 -14.83,13.24 z"
         id="path15"
         inkscape:label="3" />
      <path
         d="m 733.46,286.85 c -7.99,2.95 -11.78,18.16 -14.38,25.58 q -0.2,0.57 -0.81,0.57 H 685.3 a 0.67,0.67 0 0 1 -0.64,-0.85 c 6.78,-24.17 17.97,-43.03 44.39,-47.67 10.72,-1.88 22.55,-1.18 32.64,2.83 12.74,5.07 13.08,22.53 8.79,33.53 q -5.62,14.39 -15.42,24.99 -22.44,24.28 -46.87,46.76 a 0.49,0.49 0 0 0 0.33,0.85 q 14.69,0.12 29.46,0.05 c 2.62,-0.01 2.45,1.03 1.79,3.06 q -3.53,10.84 -7.65,21.46 -0.18,0.45 -0.62,0.45 l -76.21,0.01 a 1.57,1.57 0 0 1 -1.49,-2.07 c 2.01,-6 4.83,-16.94 9.12,-21.29 q 27.66,-28.02 54.69,-56.61 c 7.31,-7.74 13.94,-15.87 18.25,-25.66 q 1.76,-3.99 -1.5,-5.91 -0.43,-0.25 -0.9,-0.08 z"
         id="path16"
         inkscape:label="2" />
    </g>
  </g>
</svg>
