<?xml version="1.0" encoding="UTF-8" standalone="no"?>
<!-- Created with Inkscape (http://www.inkscape.org/) -->

<svg
   width="220mm"
   height="80mm"
   viewBox="0 0 220 80"
   version="1.1"
   id="svg1"
   inkscape:version="1.4 (86a8ad7, 2024-10-11)"
   sodipodi:docname="sv8000-w.svg"
   xmlns:inkscape="http://www.inkscape.org/namespaces/inkscape"
   xmlns:sodipodi="http://sodipodi.sourceforge.net/DTD/sodipodi-0.dtd"
   xmlns="http://www.w3.org/2000/svg"
   xmlns:svg="http://www.w3.org/2000/svg">
  <sodipodi:namedview
     id="namedview1"
     pagecolor="#ffffff"
     bordercolor="#000000"
     borderopacity="0.25"
     inkscape:showpageshadow="2"
     inkscape:pageopacity="0.0"
     inkscape:pagecheckerboard="true"
     inkscape:deskcolor="#d1d1d1"
     inkscape:document-units="mm"
     inkscape:zoom="2.3294743"
     inkscape:cx="386.35326"
     inkscape:cy="128.1405"
     inkscape:window-width="3840"
     inkscape:window-height="2066"
     inkscape:window-x="-11"
     inkscape:window-y="-11"
     inkscape:window-maximized="1"
     inkscape:current-layer="svg1" />
  <defs
     id="defs1" />
  <path
     style="display:none;fill:#000000;fill-opacity:1;stroke-width:0.352778"
     d="m 71.567362,72.495172 c -0.58208,-0.25405 -1.64511,-1.11196 -2.362267,-1.90647 l -1.303937,-1.44457 -0.410274,-1.5193 -0.410277,-1.51929 0.152869,-2.82223 0.152866,-2.82222 0.559223,-1.05833 c 0.307573,-0.58209 0.86154,-1.37352 1.23104,-1.75874 l 0.671817,-0.70041 -1.15453,-1.51251 -1.154529,-1.51252 -0.22957,-1.22371 c -0.126262,-0.67304 -0.169884,-2.40566 -0.09693,-3.85026 l 0.132634,-2.62655 0.807437,-1.7389 1.329098,-1.30418 1.44141,-1.0993 1.70226,-0.66459 h 5.11528 5.11527 l 1.87614,0.70806 1.26753,1.05583 1.074,1.13963 1.074,1.92213 v 3.64434 3.64434 l -1.16873,1.65757 -1.16874,1.65757 0.71093,0.75675 c 0.391,0.41621 0.95662,1.34479 1.25692,2.06352 l 0.54601,1.30677 v 3.19766 3.19766 l -0.54601,1.30677 c -0.72837,1.74324 -1.80314,2.86005 -3.51094,3.64825 l -1.41111,0.65127 -5.11527,-0.006 -5.11528,-0.006 -1.05834,-0.46191 z m 9.27806,-6.2838 0.42333,-0.42333 v -2.68112 -2.68111 l -0.42333,-0.42333 -0.42334,-0.42333 h -2.50472 -2.50472 l -0.42333,0.42333 -0.42334,0.42333 v 2.68111 2.68112 l 0.42334,0.42333 0.42333,0.42333 h 2.50472 2.50472 z m -0.36072,-13.17861 0.78405,-0.54918 v -1.98069 -1.98069 l -0.58384,-0.64514 -0.58385,-0.64514 h -2.36009 -2.36009 l -0.60263,0.6659 -0.60263,0.6659 0.10698,2.05941 0.10698,2.0594 0.88195,0.4445 0.88194,0.44449 1.77359,0.005 1.77359,0.005 0.78405,-0.54917 z m 13.66044,19.39915 c -0.58208,-0.30164 -1.57844,-1.05022 -2.21412,-1.66351 l -1.15579,-1.11506 -0.36553,-1.24474 -0.36554,-1.24473 0.11021,-10.63941 0.11021,-10.63941 1.09187,-1.35504 c 0.60053,-0.74526 1.71178,-1.70961 2.46945,-2.14298 l 1.37757,-0.78794 5.180508,-0.006 5.18052,-0.006 0.88646,0.33703 c 0.48757,0.18537 1.53104,0.91937 2.31885,1.6311 l 1.17154,1.29406 0.81241,1.89738 0.55159,1.89738 -0.11343,9.6125 -0.11343,9.61249 -0.58726,1.05834 c -0.78814,1.42032 -2.71302,3.22234 -3.93363,3.68253 l -0.9931,0.37441 -5.18052,-0.002 -5.180507,-0.002 -1.05833,-0.54844 z m 9.278068,-6.22054 0.42333,-0.42333 v -8.50195 -8.50194 l -0.42333,-0.42334 -0.42334,-0.42333 h -2.50473 -2.504718 l -0.42334,0.42333 -0.423329,0.42334 v 8.50194 8.50195 l 0.423329,0.42333 0.42334,0.42333 h 2.504718 2.50473 z m 13.29972,6.1998 c -1.65116,-0.89021 -2.68235,-1.94977 -3.39018,-3.48341 l -0.65127,-1.41111 -0.008,-10.1537 -0.008,-10.15369 0.546,-1.30677 c 0.70027,-1.67597 1.7555,-2.79601 3.4554,-3.66761 l 1.35557,-0.69505 5.55097,0.11202 5.55097,0.11202 1.42857,0.94645 1.21122,0.94645 1.14266,1.85684 0.92531,1.85685 v 9.91563 9.91564 l -0.92531,1.85684 -1.05572,1.63948 -1.29819,1.16381 -1.4286,0.94645 -5.67179,0.0867 -5.67178,0.0867 -1.05834,-0.5706 z m 9.40903,-6.36031 0.64514,-0.58385 v -8.11962 -8.11963 l -0.58384,-0.64514 -0.58385,-0.64514 h -2.38957 -2.38957 l -0.55436,0.55437 -0.55437,0.55436 v 8.23988 8.23988 l 0.55437,0.55437 0.55436,0.55436 h 2.32828 2.32827 z m 13.06423,6.18306 -1.47217,-1.01105 -1.16466,-1.14505 c -0.53787,-0.52882 -0.69327,-1.33691 -0.9141,-1.99645 l -0.40149,-1.19918 v -9.75586 -9.75587 l 0.9253,-1.85685 1.01225,-1.59601 1.34166,-1.20728 1.4286,-0.94645 5.67179,-0.0952 5.67179,-0.0952 1.39644,0.80377 1.3095,0.97766 1.15994,1.35202 1.07301,1.52591 0.11044,10.28915 0.11045,10.28915 -0.38443,1.30702 c -0.50007,1.70021 -1.87955,3.31361 -3.57095,4.17651 l -1.35268,0.69008 -5.21753,-2.8e-4 -5.21753,-2.8e-4 z m 9.60432,-6.15358 0.55437,-0.55437 v -8.23988 -8.23988 l -0.55437,-0.55436 -0.55436,-0.55437 h -2.32828 -2.32827 l -0.64514,0.58384 -0.64514,0.58385 v 8.11963 8.11962 l 0.58385,0.64514 0.58384,0.64514 h 2.38957 2.38957 z M 17.063192,36.472202 v -3.35139 h 5.996972 5.996973 l -3.262945,-4.25536 c -1.794619,-2.34045 -4.718483,-6.17587 -6.497475,-8.52316 l -3.234531,-4.26778 -0.22516,-1.20021 -0.225161,-1.20021 0.415439,-1.30094 c 0.472107,-1.47841 1.820803,-3.0692303 3.22323,-3.8018903 l 0.95262,-0.49767 h 7.602242 7.602241 v 3.1750003 3.175 h -5.997222 c -3.298473,0 -5.997223,0.0868 -5.997223,0.19297 0,0.10613 2.579688,3.55739 5.732639,7.66945 3.152952,4.11206 6.089827,8.17963 6.52639,9.03904 l 0.79375,1.56256 v 1.23994 1.23995 l -0.488229,1.54449 -0.922946,1.3706 -1.197029,0.98786 -1.544806,0.55314 h -7.624885 -7.624884 z m 28.398613,2.97805 c -0.582084,-0.17034 -2.26842,-0.5808 -3.247214,-1.33707 l -1.667217,-1.2882 -1.555548,-1.67297 -1.033886,-1.75992 -0.743483,-1.72018 -0.395708,-1.80712 v -7.7206 -7.7206 h 2.469444 c 1.358195,0 2.588507,-6e-4 2.734028,-10e-4 l 0.264584,-10e-4 0.176388,8.0905 0.176389,8.0905 0.727354,0.97308 c 0.939965,1.2575 2.199792,2.16064 3.417786,2.45009 l 0.97014,0.23055 v -9.85722 c 0,-11.44204 -0.373218,-10.18 2.967644,-10.03514 l 2.6768,0.11606 v 12.67213 12.67213 l -3.439583,-0.0318 c -1.891771,-0.0175 -3.915834,-0.17119 -4.497917,-0.34153 z m 9.701389,-12.32666 v -12.7 l 3.792362,2.8e-4 3.792361,2.8e-4 2.352605,0.81335 2.004825,1.24807 1.644265,1.42685 1.20954,1.5138 0.91691,1.87409 0.69955,1.91756 0.42006,2.63668 0.2027,2.68015 h -5.181043 -5.181036 l -0.02738,-2.73403 -0.07085,-2.86445 1.979997,0.0229 c 0.921632,-0.0591 1.762639,-0.0995 1.762639,-0.24906 0,-0.71006 -2.727267,-2.64203 -3.76792,-2.64203 h -0.552358 v 9.87778 9.87778 H 58.16181 55.163198 Z m 23.106948,12.03719 c -1.79623,-0.82398 -3.27571,-2.30346 -4.09969,-4.09969 l -0.64732,-1.41111 -0.008,-9.5544 c -0.009,-11.36154 -1.219351,-9.86844 7.899699,-9.74682 l 7.61479,0.10156 v 2.80886 2.80885 h -4.96163 -4.96163 l 0.11094,6.20494 0.11093,6.20494 0.989811,0.85062 0.989819,0.85062 h 3.86088 3.86088 v 2.82222 2.82222 l -4.6743,-0.008 -4.67431,-0.008 -1.41111,-0.64732 z m 12.52361,-12.06673 v -12.72955 l 4.14514,0.11774 4.145141,0.11774 1.675707,0.82522 c 0.92164,0.45387 2.40101,1.53015 3.2875,2.39172 l 1.6118,1.56649 1.10247,1.84638 0.66775,2.02027 0.19984,2.64232 0.19984,2.64232 h -1.81481 c -0.99815,0 -1.81481,0.0649 -1.81481,0.14422 0,0.0793 1.26808,2.36321 2.81796,5.07532 1.54988,2.7121 2.91862,5.19342 3.04165,5.51403 l 0.2237,0.58294 -3.25876,-0.10201 -3.25876,-0.102 -3.13407,-5.64444 -3.134067,-5.64445 -0.0859,-2.64583 0.001,-2.81973 1.93652,0.0664 c 0.921627,-0.0591 1.675707,-0.056 1.675707,-0.20559 0,-0.71006 -2.640337,-2.6855 -3.680987,-2.6855 h -0.55236 v 9.87778 9.87778 h -2.99861 -2.99861 z m 30.868068,12.31786 c -2.64155,-1.46099 -2.86852,-1.96937 -7.73859,-17.33309 -2.26335,-7.14025 -4.20351,-13.2124403 -4.31146,-13.4937503 l -0.19627,-0.51148 3.47733,0.002 3.47732,0.002 3.70417,11.7909603 3.70417,11.79097 0.23076,-0.23906 c 0.12692,-0.13149 1.86448,-5.43813 3.86124,-11.79254 l 3.63046,-11.5534703 h 3.4316 3.43159 L 137.564,10.632092 c -8.69243,27.78527 -8.49698,27.28495 -11.21035,28.69671 l -0.95262,0.49565 -1.51683,-0.0107 c -0.83425,-0.006 -1.83432,-0.18633 -2.22238,-0.40095 z m 14.99306,-12.22952 c 0,-6.95267 0.0654,-12.70735 0.14542,-12.7882 0.08,-0.0808 1.34998,-0.0948 2.82222,-0.0309 l 2.6768,0.11607 v 12.67213 12.67213 h -2.82222 -2.82222 z m 7.05555,9.82841 v -2.81279 l 5.1202,-0.0976 5.1202,-0.0976 -3.59167,-4.93889 c -1.97542,-2.71639 -4.27951,-5.94111 -5.1202,-7.16605 l -1.52853,-2.22716 0.001,-0.94784 0.001,-0.94784 0.4278,-1.39023 0.81905,-0.99899 1.05641,-0.5463 1.18665,-0.41587 h 7.07308 7.07307 v 2.82222 2.82222 h -5.11527 c -2.81341,0 -5.11528,0.0742 -5.11528,0.16491 0,0.0907 2.1165,3.06726 4.70334,6.61459 5.48542,7.52213 5.52721,7.59234 5.52721,9.28398 v 1.29319 l -0.89514,1.32987 -1.50374,1.06902 h -7.62001 -7.62 z m 18.69723,-9.87294 v -12.71427 h 3.00306 3.00307 l -0.0926,12.61181 -0.0926,12.6118 -2.91042,0.10246 -2.91041,0.10247 z m 10.96119,12.06782 c -0.6653,-0.33924 -1.69717,-1.22644 -2.29305,-1.97154 l -1.08342,-1.35474 -0.10941,-7.81749 c -0.0602,-4.29962 -0.0127,-8.33682 0.10559,-8.97156 l 0.21501,-1.15407 1.0933,-1.2452 c 0.60132,-0.68486 1.5381,-1.47521 2.08175,-1.75634 l 0.98845,-0.51115 h 4.26837 4.26837 l 0.95262,0.49565 c 1.31852,0.68603 2.40729,1.92251 3.05245,3.46658 l 0.546,1.30677 v 7.431 7.431 l -0.54262,1.29867 c -0.70019,1.6758 -1.44261,2.47719 -3.0593,3.30231 l -1.30886,0.66802 -3.9828,-5.5e-4 -3.98281,-5.4e-4 z m 7.91242,-12.08209 v -6.87917 h -2.64583 -2.64584 l -0.0965,6.51504 c -0.053,3.58328 -0.0157,6.72559 0.0831,6.98292 l 0.17954,0.46788 2.56274,-0.10375 2.56274,-0.10375 z m 7.23195,0.93005 v -11.76995 l 0.77725,-1.12503 1.03809,-0.69031 1.03261,-0.2268 c 0.56793,-0.12474 1.48654,-0.1271 2.04136,-0.005 l 1.00875,0.22156 0.96156,0.82258 0.78767,1.08342 2.26177,5.25523 2.26177,5.25524 0.0963,-6.22538 0.0963,-6.22537 h 2.81408 2.81408 v 11.75656 11.75656 l -0.87043,0.81773 -0.87043,0.81773 -1.6673,0.46868 -1.75424,-0.13991 -0.95611,-0.83243 -0.95612,-0.83242 -2.63227,-5.99722 -2.63228,-5.99723 -0.004,6.79098 -0.004,6.79097 h -2.82222 -2.82222 z M 80.563193,25.712482 v -2.82222 h 4.23334 4.23333 v 2.82222 2.82222 h -4.23333 -4.23334 z"
     id="path2"
     sodipodi:nodetypes="cscccccsscccsscccccccccccccccsscccsscccccccccccccccccccccccccccccccccccccccccscccccsscccsscccccsscccccccccccccccccccccccscccssccccccccccccccccccccccccccccccccccccsscccccccccccccccsscccccccccccccccccccccccccsscccsscccccsssscccccccccccscccccccsccccsscsscccscccccccccccccccccccsscccccccsccscccccccccccccccccccccsscccccssssccccccccsscccccccsscccccsscccssccccssccccccsccccsscccccccccccsssscccccccccccccccsscsccsscccsscccsscccsccccccccccccccscccccccccccccccccccccccccccccccccc"
     inkscape:label="SuperVision8000Shadow" />
  <path
     id="path3"
     style="display:inline;fill:#ffffff"
     d="m 19.021578,7.045048 -1.0604,0.5544881 C 16.412082,8.4088197 15.016571,10.04901 14.492139,11.691276 l -0.453203,1.422135 0.248047,1.323951 0.24598,1.316715 3.306775,4.360974 c 1.77992,2.348515 4.704311,6.183913 6.499862,8.525578 l 2.644799,3.450952 h -4.982641 -6.497795 v 3.851961 3.851445 h 8.125086 7.712707 l 1.70894,-0.613399 1.320333,-1.087789 1.004073,-1.492416 0.533301,-1.685168 v -1.318783 -1.35909 L 35.060392,30.570227 C 34.781327,30.020865 33.961768,28.846304 32.77526,27.202991 31.588751,25.559678 30.063868,23.51267 28.484566,21.452954 26.909125,19.398273 25.476549,17.508625 24.439335,16.12098 c -0.50772,-0.679258 -0.913384,-1.229447 -1.20096,-1.626774 0.263146,-0.0149 0.513834,-0.03064 0.894519,-0.04289 1.078872,-0.03471 2.574014,-0.05684 4.218864,-0.05684 h 6.497794 v -3.67575 -3.673678 h -8.103381 z m 88.607512,0 0.45682,1.1890747 c -0.005,-0.011843 0.0479,0.1401208 0.11524,0.3457154 0.0674,0.2055946 0.16141,0.4918362 0.2775,0.8516276 0.23217,0.7195823 0.55452,1.7286353 0.94516,2.9512413 0.78128,2.44521 1.83311,5.74848 2.96468,9.318294 2.43523,7.682478 3.70381,11.64519 4.72477,13.931966 0.94535,2.117421 1.81038,2.817529 2.99,3.500045 v 0.04496 l 0.25787,0.142111 c 0.30131,0.166645 0.66631,0.256544 1.09761,0.334346 0.43131,0.0778 0.91202,0.127492 1.36374,0.130741 l 1.64021,0.01189 1.06246,-0.552938 c 0.6698,-0.348493 1.26199,-0.632469 1.8247,-1.292944 0.56271,-0.660475 1.07858,-1.64477 1.77508,-3.427698 1.07163,-2.743197 3.43054,-10.340395 6.04511,-18.671728 -0.0107,0.558897 -0.0229,1.059882 -0.0315,1.824178 -0.0264,2.320703 -0.0429,5.498293 -0.0429,8.976196 v 13.142867 h 3.32228 3.32228 V 26.623181 13.470496 l -3.15433,-0.136426 c -0.74393,-0.03229 -1.43606,-0.04503 -1.96061,-0.03927 -0.25446,0.0028 -0.46517,0.01137 -0.6351,0.02377 0.48102,-1.536804 0.44313,-1.311425 0.99219,-3.06648 l 1.00407,-3.207039 h -4.11138 -3.79873 l -3.74034,11.904183 c -0.99788,3.17561 -1.93192,6.09023 -2.63085,8.224821 -0.34947,1.067296 -0.64121,1.939894 -0.85163,2.550749 -0.0114,0.03296 -0.0166,0.04453 -0.0274,0.07596 L 119.49245,19.189526 115.67976,7.0486654 111.834,7.0471151 Z m 83.69722,6.06578 c -0.39569,0.0013 -0.79271,0.03932 -1.1312,0.113688 l -1.12293,0.24598 -1.19734,0.7953 -0.91984,1.331702 v 11.927954 12.269535 h 3.32227 3.32228 l 0.004,-7.291028 0.002,-4.412134 1.67587,3.818372 2.67736,6.099369 1.04128,0.906405 1.08003,0.941544 2.00763,0.160197 1.87121,-0.525549 0.95911,-0.90227 1.0294,-0.964799 v -11.974463 -12.2561 h -3.31453 -3.30678 l -0.10335,6.716903 -0.0605,3.890719 -1.33997,-3.109371 -2.28306,-5.306653 -0.85577,-1.176156 -1.10174,-0.943095 -1.13068,-0.248047 c -0.33464,-0.07364 -0.72931,-0.109298 -1.12499,-0.108003 z M 75.26569,13.19351 c -0.605004,0.01058 -1.110516,0.05308 -1.554944,0.179317 -0.444427,0.126241 -0.835403,0.35398 -1.115177,0.699182 -0.559548,0.690403 -0.663175,1.670359 -0.691431,3.152779 -0.02826,1.48242 0.05047,3.510233 0.05271,6.341732 l 0.0078,9.66401 0.693497,1.509468 c 0.87517,1.907822 2.438167,3.470818 4.345988,4.345988 l 1.245919,0.572058 v -0.0021 l 0.26355,0.12144 4.78317,0.0098 5.173845,0.0078 V 36.472709 33.150431 H 84.111145 80.4354 l -0.84956,-0.730704 -0.820105,-0.704867 -0.107487,-5.980513 -0.09974,-5.69526 h 4.451408 5.460649 V 16.730245 13.427604 L 80.363053,13.320117 C 78.097079,13.289897 76.475697,13.172346 75.26569,13.19351 Z m -27.519767,0.04082 c -0.278588,0.02569 -0.574572,0.112531 -0.812354,0.31471 -0.237783,0.202179 -0.388436,0.485127 -0.486275,0.815971 -0.195679,0.66169 -0.238464,1.585018 -0.255798,3.084049 -0.01733,1.49903 0.0057,3.562488 0.0057,6.42028 v 9.224243 l -0.355534,-0.08372 c -1.065834,-0.25329 -2.252196,-1.084025 -3.132625,-2.261877 l -0.630969,-0.845426 -0.173633,-7.929749 -0.187586,-8.582422 -0.753959,0.0021 c -0.139149,3.83e-4 -1.374086,0.0021 -2.732133,0.0021 h -2.970878 v 8.220687 7.775753 l 0.418063,1.905827 0.775146,1.793172 1.07642,1.833996 1.62109,1.742013 1.699121,1.314648 c 0.99279,0.767083 2.347409,1.120992 3.054594,1.312582 v 0.0036 l 0.359668,0.10542 c 0.40207,0.117661 1.031287,0.183624 1.859318,0.246497 0.828031,0.06287 1.8157,0.106378 2.773474,0.115238 l 3.944979,0.03514 V 26.623181 13.472563 l -3.156397,-0.136426 c -0.803422,-0.03484 -1.38224,-0.15318 -1.939416,-0.101803 z m 41.490491,0.08578 v 13.24416 13.230717 h 3.497977 3.497978 V 29.415776 28.488184 l 2.902148,5.228621 3.273703,5.892664 3.54087,0.111104 4.01164,0.125057 -0.49403,-1.285193 c -0.0646,-0.168265 -0.16187,-0.347711 -0.33383,-0.671794 -0.17196,-0.324084 -0.40306,-0.750904 -0.67954,-1.25212 -0.55297,-1.002432 -1.28479,-2.301692 -2.06086,-3.659724 -0.77409,-1.354562 -1.47717,-2.602444 -1.98644,-3.519682 -0.21249,-0.382715 -0.36661,-0.665946 -0.50178,-0.916223 0.29496,-0.01845 0.63757,-0.03514 1.05058,-0.03514 h 2.35593 l -0.24029,-3.179651 -0.20516,-2.703194 -0.70538,-2.13062 -1.16375,-1.951302 -1.6583,-1.611271 c -0.93662,-0.910289 -2.40336,-1.983946 -3.415814,-2.482536 l -1.773535,-0.872815 -4.254004,-0.121439 z m -35.6309,0.07441 v 13.199195 13.201261 h 3.497977 3.497978 v -10.3792 -0.910022 h 5.357296 5.721097 L 71.433366,25.267708 71.003935,22.562447 70.279431,20.574455 69.326001,18.62677 68.052694,17.035136 66.345821,15.552539 64.257576,14.25391 61.77349,13.394531 h -3.876766 z m 92.453266,0 -1.29914,0.45527 -1.17977,0.609265 -0.94723,1.156002 -0.47853,1.554943 -0.002,1.023194 v 1.103808 l 1.6154,2.355412 c 0.85021,1.238808 3.15154,4.456739 5.12889,7.17579 l 3.02927,4.164086 -4.16202,0.0801 -5.61154,0.10542 v 3.304708 l -0.002,3.312459 h 8.12095 7.77937 l 1.70894,-1.214913 1.03094,-1.531173 v -1.447457 c 0,-0.849937 -0.054,-1.496136 -0.77721,-2.710945 -0.72323,-1.214809 -2.10498,-3.106106 -4.84777,-6.867281 -1.29245,-1.772323 -2.46532,-3.401184 -3.31607,-4.597652 -0.38825,-0.546021 -0.68725,-0.969929 -0.91984,-1.306381 0.20484,-0.01063 0.37114,-0.02259 0.64802,-0.03152 0.91901,-0.02963 2.1954,-0.04858 3.59771,-0.04858 h 5.61516 v -3.322278 -3.322278 h -7.57421 z m 14.79083,0 v 13.214698 13.232784 l 3.4277,-0.12144 3.38894,-0.118856 0.0971,-13.091707 0.0961,-13.115479 h -3.50779 z m 12.33775,0 -1.09761,0.566374 c -0.67511,0.349111 -1.58086,1.136191 -2.22622,1.871204 l -1.1839,1.347721 -0.2403,1.28881 c -0.046,0.246606 -0.0633,0.597079 -0.0837,1.138949 -0.0204,0.54187 -0.0354,1.242385 -0.045,2.058272 -0.0192,1.631772 -0.0168,3.719186 0.0134,5.873027 l 0.11162,7.990209 1.19115,1.488282 c 0.65082,0.81379 1.66402,1.699291 2.45721,2.103747 l 1.3162,0.671794 h 4.10156 l 4.10362,0.0021 1.41594,-0.722437 c 1.67825,-0.856536 2.56654,-1.815334 3.29334,-3.554821 l 0.58187,-1.39268 V 26.593748 19.062424 L 186.3126,17.66406 c -0.6857,-1.641094 -1.84676,-2.969015 -3.28352,-3.716569 l -1.06247,-0.552938 h -4.39043 z M 60.601469,20.039087 h 0.05271 c 0.105455,0 0.443751,0.08707 0.81287,0.26355 0.369119,0.176485 0.787859,0.427558 1.173572,0.699182 0.385713,0.271624 0.740425,0.566576 0.980302,0.81442 0.02536,0.0262 0.01,0.0133 0.03152,0.03927 -0.278163,0.02566 -0.608697,0.05031 -0.986503,0.07441 h -0.01188 l -2.052588,-0.02377 z m 35.6309,0 h 0.05271 c 0.101973,0 0.431282,0.08833 0.791166,0.267684 0.359884,0.179353 0.767794,0.434217 1.142566,0.710551 0.374772,0.276334 0.718567,0.576816 0.951363,0.828373 0.01947,0.02104 0.0081,0.01008 0.02532,0.03101 -0.253097,0.01579 -0.536035,0.03136 -0.888835,0.05323 h -0.0098 l -2.064473,-0.0708 z m 79.191551,0.1757 h 2.15232 2.14664 v 6.378939 6.400642 l -2.08204,0.08372 -2.20504,0.08785 -0.0512,-0.132808 c 0.0468,0.121861 0.005,0.01275 -0.004,-0.09198 -0.009,-0.104729 -0.0172,-0.256011 -0.0253,-0.444934 -0.0162,-0.377846 -0.0276,-0.903563 -0.0351,-1.53324 -0.015,-1.259356 -0.0126,-2.937031 0.0139,-4.724776 z m -96.419957,1.646411 v 3.322278 3.322278 h 4.734078 4.732528 v -3.322278 -3.322278 h -4.732528 z m -7.531323,18.521867 -1.855701,0.722436 -1.521354,1.162203 -1.415934,1.388546 -0.886768,1.909961 -0.138493,2.724898 c -0.07448,1.47474 -0.04567,3.161314 0.10542,3.966683 l 0.251665,1.33997 1.226798,1.607137 0.894519,1.172022 -0.375171,0.39274 c -0.433504,0.451948 -0.976093,1.235372 -1.312064,1.871204 l -0.611333,1.153935 -0.158646,2.931604 -0.156063,2.902665 0.429948,1.597319 0.441317,1.635042 1.384411,1.53324 c 0.671871,0.74434 1.520154,1.395186 2.234489,1.789038 v 0.109037 l 0.29869,0.131258 1.154451,0.503845 5.218803,0.0057 5.226555,0.0062 1.509985,-0.697632 c 1.798494,-0.830057 2.997057,-2.0737 3.763595,-3.908289 l 0.583943,-1.399914 v -3.29697 -3.299024 L 87.181759,58.939555 C 86.854418,58.156106 86.308695,57.238083 85.828353,56.72677 l -0.432015,-0.460954 0.933793,-1.324467 1.259871,-1.786971 V 49.35151 45.578097 L 86.422115,43.488302 85.285234,42.28114 83.929761,41.152527 81.888542,40.383065 h -5.204851 z m 45.37501,0.12454 -1.46658,0.753959 c -1.7799,0.912617 -2.9511,2.150387 -3.6897,3.918107 l -0.58394,1.400432 0.008,10.253637 0.008,10.263973 0.69711,1.509469 c 0.74854,1.621844 1.88705,2.787427 3.60754,3.715019 l 1.17202,0.633036 5.80274,-0.08992 5.81825,-0.08785 1.58027,-1.049032 1.37459,-1.232483 1.10743,-1.718758 0.99064,-1.985925 V 56.757776 46.722729 l -0.98857,-1.980757 -1.20096,-1.952853 -1.29708,-1.013891 -1.56632,-1.037146 -5.69526,-0.115239 z m 33.5194,0.03514 -5.8105,0.09612 -5.81825,0.09767 -1.58026,1.048514 -1.41956,1.277442 -1.06453,1.675866 -0.98857,1.984375 v 9.87485 9.836092 l 0.42788,1.277441 c 0.20421,0.60991 0.35203,1.519554 1.03715,2.193148 l 1.19527,1.175639 1.53893,1.056783 1.65261,0.818555 h 5.33404 5.33766 l 1.45882,-0.744141 c 1.81811,-0.927542 3.27843,-2.623997 3.82458,-4.480863 l 0.40411,-1.378727 -0.11111,-10.363192 -0.11162,-10.445357 -1.17564,-1.671733 -1.21078,-1.412317 -1.37924,-1.029394 z m -45.7693,0.01602 -5.27358,0.0057 -5.312337,0.0062 -1.492416,0.853178 c -0.852265,0.487476 -1.953818,1.448119 -2.61121,2.263945 l -1.19941,1.489831 -0.113171,10.812777 -0.111105,10.713041 0.38654,1.316199 0.40411,1.373043 1.250053,1.207161 c 0.677249,0.653396 1.656986,1.396267 2.332157,1.746147 l 0.709001,0.368969 0.456819,0.236162 5.303036,0.0021 5.271513,0.0021 1.07797,-0.406177 c 0.73071,-0.275488 1.53242,-0.870028 2.29495,-1.583883 0.76253,-0.713856 1.46426,-1.541685 1.89859,-2.324406 l 0.65009,-1.167887 0.11369,-9.740491 0.11524,-9.685197 -0.58033,-1.998327 -0.85731,-2.001945 -1.24644,-1.37511 -0.0176,-0.01757 c -0.41195,-0.372162 -0.88294,-0.742919 -1.32033,-1.050582 -0.43738,-0.307664 -0.81806,-0.547445 -1.156,-0.675928 z M 74.544804,47.20332 h 2.138887 2.136821 l 0.435115,0.480074 0.45527,0.502295 v 1.789038 1.718759 l -0.572058,0.400492 -0.654224,0.458887 -1.613338,-0.0062 -1.65623,-0.0036 -0.77773,-0.392741 -0.621151,-0.312642 -0.09353,-1.769401 -0.0956,-1.851567 0.463021,-0.511597 z m 22.59397,0.704867 h 2.298567 2.297019 l 0.2775,0.277502 0.27699,0.276986 v 8.295101 8.295101 l -0.27699,0.275435 -0.2775,0.276986 h -2.297019 -2.298567 l -0.277503,-0.276986 -0.275435,-0.275435 v -8.295101 -8.295101 l 0.275435,-0.276986 z m 22.839946,0 h 2.18333 2.16783 l 0.43356,0.480591 0.45527,0.501778 v 7.927681 7.898743 l -0.48059,0.433565 -0.50178,0.454753 h -2.13682 -2.1208 l -0.40824,-0.408244 -0.40618,-0.408244 v -8.031034 -8.033102 l 0.40618,-0.408243 z m 22.7459,0 h 2.13475 2.12132 l 0.40773,0.408244 0.40824,0.408243 v 8.033102 8.031034 l -0.40824,0.408244 -0.40773,0.408244 h -2.18178 -2.16782 l -0.43564,-0.480074 -0.45526,-0.502295 v -7.927682 -7.896675 l 0.48059,-0.435116 z m -68.164313,11.6427 h 2.299084 2.297018 l 0.276985,0.275435 0.277503,0.276986 v 2.474784 2.474785 l -0.277503,0.275435 -0.276985,0.276986 h -2.297018 -2.299084 l -0.274919,-0.276986 -0.277502,-0.275435 v -2.474785 -2.474784 l 0.277502,-0.276986 z"
     inkscape:label="SuperVision8000Outline" />
  <path
     style="display:inline;fill:#aaaaaa;fill-opacity:1;stroke-width:0.352778"
     d="m 70.509028,71.966005 c -0.58208,-0.25405 -1.64511,-1.11196 -2.362267,-1.90647 l -1.303937,-1.44457 -0.410274,-1.5193 -0.410277,-1.51929 0.152869,-2.82223 0.152866,-2.82222 0.559223,-1.05833 c 0.307573,-0.58209 0.86154,-1.37352 1.23104,-1.75874 l 0.671817,-0.70041 -1.15453,-1.51251 -1.154529,-1.51252 -0.22957,-1.22371 c -0.126262,-0.67304 -0.169884,-2.40566 -0.09693,-3.85026 l 0.132634,-2.62655 0.807437,-1.7389 1.329098,-1.30418 1.44141,-1.0993 1.70226,-0.66459 h 5.11528 5.11527 l 1.87614,0.70806 1.26753,1.05583 1.074,1.13963 1.074,1.92213 v 3.64434 3.64434 l -1.16873,1.65757 -1.16874,1.65757 0.71093,0.75675 c 0.391,0.41621 0.95662,1.34479 1.25692,2.06352 l 0.54601,1.30677 v 3.19766 3.19766 l -0.54601,1.30677 c -0.72837,1.74324 -1.80314,2.86005 -3.51094,3.64825 l -1.41111,0.65127 -5.11527,-0.006 -5.11528,-0.006 -1.05834,-0.46191 z m 9.27806,-6.2838 0.42333,-0.42333 v -2.68112 -2.68111 l -0.42333,-0.42333 -0.42334,-0.42333 h -2.50472 -2.50472 l -0.42333,0.42333 -0.42334,0.42333 v 2.68111 2.68112 l 0.42334,0.42333 0.42333,0.42333 h 2.50472 2.50472 z m -0.36072,-13.17861 0.78405,-0.54918 v -1.98069 -1.98069 l -0.58384,-0.64514 -0.58385,-0.64514 h -2.36009 -2.36009 l -0.60263,0.6659 -0.60263,0.6659 0.10698,2.05941 0.10698,2.0594 0.88195,0.4445 0.88194,0.44449 1.77359,0.005 1.77359,0.005 0.78405,-0.54917 z m 13.66044,19.39915 c -0.58208,-0.30164 -1.57844,-1.05022 -2.21412,-1.66351 l -1.15579,-1.11506 -0.36553,-1.24474 -0.36554,-1.24473 0.11021,-10.63941 0.11021,-10.63941 1.09187,-1.35504 c 0.60053,-0.74526 1.71178,-1.70961 2.46945,-2.14298 l 1.37757,-0.78794 5.18051,-0.006 5.180512,-0.006 0.88646,0.33703 c 0.48757,0.18537 1.53104,0.91937 2.31885,1.6311 l 1.17154,1.29406 0.81241,1.89738 0.55159,1.89738 -0.11343,9.6125 -0.11343,9.61249 -0.58726,1.05834 c -0.78814,1.42032 -2.71302,3.22234 -3.93363,3.68253 l -0.9931,0.37441 -5.180512,-0.002 -5.180509,-0.002 -1.05833,-0.54844 z m 9.278062,-6.22054 0.42333,-0.42333 v -8.50195 -8.50194 l -0.42333,-0.42334 -0.42334,-0.42333 h -2.504722 -2.50472 l -0.42334,0.42333 -0.423329,0.42334 v 8.50194 8.50195 l 0.423329,0.42333 0.42334,0.42333 h 2.50472 2.504722 z m 13.29972,6.1998 c -1.65116,-0.89021 -2.68235,-1.94977 -3.39018,-3.48341 l -0.65127,-1.41111 -0.008,-10.1537 -0.008,-10.15369 0.546,-1.30677 c 0.70027,-1.67597 1.7555,-2.79601 3.4554,-3.66761 l 1.35557,-0.69505 5.55097,0.11202 5.55097,0.11202 1.42857,0.94645 1.21122,0.94645 1.14266,1.85684 0.92531,1.85685 v 9.91563 9.91564 l -0.92531,1.85684 -1.05572,1.63948 -1.29819,1.16381 -1.4286,0.94645 -5.67179,0.0867 -5.67178,0.0867 -1.05834,-0.5706 z m 9.40903,-6.36031 0.64514,-0.58385 v -8.11962 -8.11963 l -0.58384,-0.64514 -0.58385,-0.64514 h -2.38957 -2.38957 l -0.55436,0.55437 -0.55437,0.55436 v 8.23988 8.23988 l 0.55437,0.55437 0.55436,0.55436 h 2.32828 2.32827 z m 13.06423,6.18306 -1.47217,-1.01105 -1.16466,-1.14505 c -0.53787,-0.52882 -0.69327,-1.33691 -0.9141,-1.99645 l -0.40149,-1.19918 v -9.75586 -9.75587 l 0.9253,-1.85685 1.01225,-1.59601 1.34166,-1.20728 1.4286,-0.94645 5.67179,-0.0952 5.67179,-0.0952 1.39644,0.80377 1.3095,0.97766 1.15994,1.35202 1.07301,1.52591 0.11044,10.28915 0.11045,10.28915 -0.38443,1.30702 c -0.50007,1.70021 -1.87955,3.31361 -3.57095,4.17651 l -1.35268,0.69008 -5.21753,-2.8e-4 -5.21753,-2.8e-4 z m 9.60432,-6.15358 0.55437,-0.55437 v -8.23988 -8.23988 l -0.55437,-0.55436 -0.55436,-0.55437 h -2.32828 -2.32827 l -0.64514,0.58384 -0.64514,0.58385 v 8.11963 8.11962 l 0.58385,0.64514 0.58384,0.64514 h 2.38957 2.38957 z M 16.004858,35.943035 v -3.35139 h 5.996972 5.996973 l -3.262945,-4.25536 c -1.794619,-2.34045 -4.718483,-6.17587 -6.497475,-8.52316 l -3.234531,-4.26778 -0.22516,-1.20021 -0.225161,-1.20021 0.415439,-1.30094 c 0.472107,-1.47841 1.820803,-3.06923 3.22323,-3.80189 l 0.95262,-0.49767 h 7.602242 7.602241 v 3.175 3.175 h -5.997222 c -3.298473,0 -5.997223,0.0868 -5.997223,0.19297 0,0.10613 2.579688,3.55739 5.732639,7.66945 3.152952,4.11206 6.089827,8.17963 6.52639,9.03904 l 0.79375,1.56256 v 1.23994 1.23995 l -0.488229,1.54449 -0.922946,1.3706 -1.197029,0.98786 -1.544806,0.55314 h -7.624885 -7.624884 z m 28.398613,2.97805 c -0.582084,-0.17034 -2.26842,-0.5808 -3.247214,-1.33707 l -1.667217,-1.2882 -1.555548,-1.67297 -1.033886,-1.75992 -0.743483,-1.72018 -0.395708,-1.80712 v -7.7206 -7.7206 h 2.469444 c 1.358195,0 2.588507,-6e-4 2.734028,-10e-4 l 0.264584,-0.001 0.176388,8.0905 0.176389,8.0905 0.727354,0.97308 c 0.939965,1.2575 2.199792,2.16064 3.417786,2.45009 l 0.97014,0.23055 v -9.85722 c 0,-11.44204 -0.373218,-10.18 2.967644,-10.03514 l 2.6768,0.11606 v 12.67213 12.67213 l -3.439583,-0.0318 c -1.891771,-0.0175 -3.915834,-0.17119 -4.497917,-0.34153 z m 9.701389,-12.32666 v -12.7 l 3.792362,2.8e-4 3.792361,2.8e-4 2.352605,0.81335 2.004825,1.24807 1.644265,1.42685 1.20954,1.5138 0.91691,1.87409 0.69955,1.91756 0.42006,2.63668 0.2027,2.68015 h -5.181043 -5.181036 l -0.02738,-2.73403 -0.07085,-2.86445 1.979997,0.0229 c 0.921632,-0.0591 1.762639,-0.0995 1.762639,-0.24906 0,-0.71006 -2.727267,-2.64203 -3.76792,-2.64203 h -0.552358 v 9.87778 9.87778 h -2.998611 -2.998612 z m 23.106948,12.03719 c -1.79623,-0.82398 -3.27571,-2.30346 -4.09969,-4.09969 l -0.64732,-1.41111 -0.008,-9.5544 c -0.009,-11.36154 -1.219351,-9.86844 7.899699,-9.74682 l 7.61479,0.10156 v 2.80886 2.80885 h -4.96163 -4.96163 l 0.11094,6.20494 0.11093,6.20494 0.989811,0.85062 0.989819,0.85062 h 3.86088 3.86088 v 2.82222 2.82222 l -4.6743,-0.008 -4.67431,-0.008 -1.41111,-0.64732 z m 12.52361,-12.06673 v -12.72955 l 4.14514,0.11774 4.145141,0.11774 1.6757,0.82522 c 0.921641,0.45387 2.401011,1.53015 3.287501,2.39172 l 1.6118,1.56649 1.10247,1.84638 0.66775,2.02027 0.19984,2.64232 0.19984,2.64232 h -1.81481 c -0.99815,0 -1.81481,0.0649 -1.81481,0.14422 0,0.0793 1.26808,2.36321 2.81796,5.07532 1.54988,2.7121 2.91862,5.19342 3.04165,5.51403 l 0.2237,0.58294 -3.25876,-0.10201 -3.25876,-0.102 -3.134071,-5.64444 -3.13406,-5.64445 -0.0859,-2.64583 0.001,-2.81973 1.93652,0.0664 c 0.92163,-0.0591 1.6757,-0.056 1.6757,-0.20559 0,-0.71006 -2.64033,-2.6855 -3.68098,-2.6855 h -0.55236 v 9.87778 9.87778 h -2.99861 -2.99861 z m 30.868062,12.31786 c -2.64155,-1.46099 -2.86852,-1.96937 -7.73859,-17.33309 -2.26335,-7.14025 -4.20351,-13.21244 -4.31146,-13.49375 l -0.19627,-0.51148 3.47733,0.002 3.47732,0.002 3.70417,11.79096 3.70417,11.79097 0.23076,-0.23906 c 0.12692,-0.13149 1.86448,-5.43813 3.86124,-11.79254 l 3.63046,-11.55347 h 3.4316 3.43159 l -0.80014,2.55764 c -8.69243,27.78527 -8.49698,27.28495 -11.21035,28.69671 l -0.95262,0.49565 -1.51683,-0.0107 c -0.83425,-0.006 -1.83432,-0.18633 -2.22238,-0.40095 z m 14.99306,-12.22952 c 0,-6.95267 0.0654,-12.70735 0.14542,-12.7882 0.08,-0.0808 1.34998,-0.0948 2.82222,-0.0309 l 2.6768,0.11607 v 12.67213 12.67213 h -2.82222 -2.82222 z m 7.05555,9.82841 v -2.81279 l 5.1202,-0.0976 5.1202,-0.0976 -3.59167,-4.93889 c -1.97542,-2.71639 -4.27951,-5.94111 -5.1202,-7.16605 l -1.52853,-2.22716 0.001,-0.94784 0.001,-0.94784 0.4278,-1.39023 0.81905,-0.99899 1.05641,-0.5463 1.18665,-0.41587 h 7.07308 7.07307 v 2.82222 2.82222 h -5.11527 c -2.81341,0 -5.11528,0.0742 -5.11528,0.16491 0,0.0907 2.1165,3.06726 4.70334,6.61459 5.48542,7.52213 5.52721,7.59234 5.52721,9.28398 v 1.29319 l -0.89514,1.32987 -1.50374,1.06902 h -7.62001 -7.62 z m 18.69723,-9.87294 v -12.71427 h 3.00306 3.00307 l -0.0926,12.61181 -0.0926,12.6118 -2.91042,0.10246 -2.91041,0.10247 z m 10.96119,12.06782 c -0.6653,-0.33924 -1.69717,-1.22644 -2.29305,-1.97154 l -1.08342,-1.35474 -0.10941,-7.81749 c -0.0602,-4.29962 -0.0127,-8.33682 0.10559,-8.97156 l 0.21501,-1.15407 1.0933,-1.2452 c 0.60132,-0.68486 1.5381,-1.47521 2.08175,-1.75634 l 0.98845,-0.51115 h 4.26837 4.26837 l 0.95262,0.49565 c 1.31852,0.68603 2.40729,1.92251 3.05245,3.46658 l 0.546,1.30677 v 7.431 7.431 l -0.54262,1.29867 c -0.70019,1.6758 -1.44261,2.47719 -3.0593,3.30231 l -1.30886,0.66802 -3.9828,-5.5e-4 -3.98281,-5.4e-4 z m 7.91242,-12.08209 v -6.87917 h -2.64583 -2.64584 l -0.0965,6.51504 c -0.053,3.58328 -0.0157,6.72559 0.0831,6.98292 l 0.17954,0.46788 2.56274,-0.10375 2.56274,-0.10375 z m 7.23195,0.93005 v -11.76995 l 0.77725,-1.12503 1.03809,-0.69031 1.03261,-0.2268 c 0.56793,-0.12474 1.48654,-0.1271 2.04136,-0.005 l 1.00875,0.22156 0.96156,0.82258 0.78767,1.08342 2.26177,5.25523 2.26177,5.25524 0.0963,-6.22538 0.0963,-6.22537 h 2.81408 2.81408 v 11.75656 11.75656 l -0.87043,0.81773 -0.87043,0.81773 -1.6673,0.46868 -1.75424,-0.13991 -0.95611,-0.83243 -0.95612,-0.83242 -2.63227,-5.99722 -2.63228,-5.99723 -0.004,6.79098 -0.004,6.79097 h -2.82222 -2.82222 z M 79.504859,25.183315 v -2.82222 h 4.23334 4.23333 v 2.82222 2.82222 h -4.23333 -4.23334 z"
     id="path314"
     sodipodi:nodetypes="cscccccsscccsscccccccccccccccsscccsscccccccccccccccccccccccccccccccccccccccccscccccsscccsscccccsscccccccccccccccccccccccscccssccccccccccccccccccccccccccccccccccccsscccccccccccccccsscccccccccccccccccccccccccsscccsscccccsssscccccccccccscccccccsccccsscsscccscccccccccccccccccccsscccccccsccscccccccccccccccccccccsscccccssssccccccccsscccccccsscccccsscccssccccssccccccsccccsscccccccccccsssscccccccccccccccsscsccsscccsscccsscccsccccccccccccccscccccccccccccccccccccccccccccccccc"
     inkscape:label="SuperVision8000" />
</svg>
