<?xml version="1.0" encoding="UTF-8" standalone="no"?>
<svg
   width="560"
   height="400"
   viewBox="0 -26.707 560.00001 400"
   xml:space="preserve"
   version="1.1"
   id="svg1"
   sodipodi:docname="vii.svg"
   inkscape:version="1.4 (86a8ad7, 2024-10-11)"
   xmlns:inkscape="http://www.inkscape.org/namespaces/inkscape"
   xmlns:sodipodi="http://sodipodi.sourceforge.net/DTD/sodipodi-0.dtd"
   xmlns="http://www.w3.org/2000/svg"
   xmlns:svg="http://www.w3.org/2000/svg"><defs
   id="defs1" /><sodipodi:namedview
   id="namedview1"
   pagecolor="#ffffff"
   bordercolor="#000000"
   borderopacity="0.25"
   inkscape:showpageshadow="2"
   inkscape:pageopacity="0.0"
   inkscape:pagecheckerboard="true"
   inkscape:deskcolor="#d1d1d1"
   inkscape:zoom="2"
   inkscape:cx="347"
   inkscape:cy="235.25"
   inkscape:window-width="3840"
   inkscape:window-height="2066"
   inkscape:window-x="-11"
   inkscape:window-y="-11"
   inkscape:window-maximized="1"
   inkscape:current-layer="svg1" />
    
<path
   id="path4"
   style="display:none;fill:#000000;fill-opacity:1;stroke-width:0.877666"
   inkscape:label="ViiOutline"
   d="m 307.10058,61.659191 c -11.04086,0.134625 -21.94515,6.478497 -27.02858,16.364499 -4.46899,8.496147 -4.16852,19.339566 0.96329,27.48511 4.96927,8.17796 13.98908,13.6371 23.49365,14.49914 10.38859,1.08873 21.36845,-2.87973 28.16154,-10.9241 5.99492,-7.04457 8.23033,-17.154837 5.52486,-26.030383 -2.24792,-7.711532 -7.91586,-14.283291 -15.11249,-17.812262 -4.93247,-2.489396 -10.48331,-3.699606 -16.00227,-3.582004 z m 89.89844,0 c -11.12487,0.134828 -22.10616,6.581181 -27.15261,16.581307 -4.31128,8.389283 -4.03143,19.009048 0.95216,27.054662 4.9792,8.36063 14.18149,13.92867 23.85049,14.73228 10.21673,1.00184 20.98459,-2.86241 27.72886,-10.71194 5.78919,-6.66967 8.21639,-16.155008 6.11379,-24.759062 -1.76362,-7.678617 -6.90522,-14.452146 -13.73399,-18.352781 -5.33892,-3.138671 -11.57517,-4.685052 -17.7587,-4.544466 z M 85.34863,74.606456 c 16.17941,56.478784 32.22512,112.998824 48.88881,169.335814 1.56944,5.13964 3.04943,10.31906 4.98606,15.33468 3.78862,9.13851 10.48638,17.31145 19.42201,21.78458 5.83922,2.90934 12.43878,4.07526 18.93122,3.84601 6.64193,0.11355 13.41298,-1.17998 19.23113,-4.48414 8.62586,-4.75084 15.04883,-12.91909 18.58028,-22.02726 2.2054,-5.63882 3.65667,-11.52941 5.47808,-17.29576 8.42131,-28.26599 16.50703,-56.63036 24.68035,-84.96913 7.93663,-27.58961 15.80658,-55.19834 23.7005,-82.800184 -19.06706,0 -38.13412,0 -57.20117,0 -11.63738,44.303724 -23.27756,88.606714 -34.91602,132.910154 -11.64623,-44.30345 -23.29451,-88.60636 -34.93945,-132.910154 -19.06901,0 -38.13802,0 -57.20703,0 0.12174,0.42513 0.24349,0.85026 0.36523,1.27539 z m 195.86914,60.880864 c 0,49.29557 0,98.59114 0,147.88671 18.07227,0 36.14453,0 54.2168,0 0,-49.6289 0,-99.25781 0,-148.88671 -18.07227,0 -36.14453,0 -54.2168,0 0,0.33333 0,0.66666 0,1 z m 89.86914,0 c 0,49.29557 0,98.59114 0,147.88671 18.07617,0 36.15235,0 54.22852,0 0,-49.6289 0,-99.25781 0,-148.88671 -18.07617,0 -36.15235,0 -54.22852,0 0,0.33333 0,0.66666 0,1 z m 57.67578,120.07226 c 0,3.92513 0,7.85026 0,11.77539 1.99154,0 3.98308,0 5.97461,0 0,5.34636 0,10.69271 0,16.03906 13.42644,0 26.85287,0 40.2793,0 0,-9.60481 0,-19.20963 0,-28.81445 -4.45117,0 -8.90234,0 -13.35352,0 -0.34831,1.10351 -0.69661,2.20703 -1.04492,3.31055 -0.34247,-1.10351 -0.68388,-2.20735 -1.02734,-3.31055 -10.27604,0 -20.55208,0 -30.82813,0 0,0.33333 0,0.66667 0,1 z" /><path
   d="m 281.9183,90.930319 c 0,13.385651 11.6093,24.250511 25.89979,24.250511 14.85434,0 26.51798,-10.64003 26.51798,-24.250511 -8.9e-4,-13.613945 -11.66364,-24.279051 -26.51798,-24.279051 -14.29049,0 -25.89979,10.880432 -25.89979,24.279051 m 4.29882,48.557241 h 44.21652 V 278.37348 H 286.21712 Z M 371.8033,90.930319 c 0,13.385651 11.63246,24.250511 25.91404,24.250511 14.86325,0 26.50372,-10.64003 26.50372,-24.250511 0,-13.613945 -11.64136,-24.279051 -26.50372,-24.279051 -14.28248,0 -25.91404,10.880432 -25.91404,24.279051 m 4.28456,48.557241 h 44.22811 v 138.88592 h -44.22811 z m -198.95719,86.4191 C 177.08617,225.81126 138.33224,78.331604 138.33224,78.331604 H 91.61446 c 0,0 44.86856,157.455816 50.9685,175.688446 4.74508,14.23312 15.98382,25.87022 32.64463,25.87022 h 3.7997 c 16.67417,0 27.89243,-11.6371 32.66692,-25.87022 6.08479,-18.23263 50.92484,-175.688446 50.92484,-175.688446 h -46.7151 L 177.13067,225.90666 m 256.63134,33.6522 h 15.17235 v 2.77675 h -5.9592 v 16.03787 h -3.23702 v -16.03787 h -5.97613 z m 20.4608,18.81463 h -2.96801 v -18.81463 h 4.65423 l 4.66937,15.05377 4.74598,-15.05377 h 4.69254 v 18.81463 h -3.07937 v -15.5467 l -4.81813,15.5467 h -3.16399 l -4.73262,-15.5467 z"
   style="display:inline;fill:#8c8c8c;fill-opacity:1;stroke-width:0.877666"
   id="path5"
   inkscape:label="Vii"
   sodipodi:nodetypes="cscscccccccsssccccccccccssccccccccccccccccccccccccccc" /></svg>
