<?xml version="1.0" encoding="UTF-8" standalone="no"?>
<svg
   width="560"
   height="400"
   viewBox="0 -26.707 560.00001 400"
   xml:space="preserve"
   version="1.1"
   id="svg1"
   sodipodi:docname="wii-w.svg"
   inkscape:version="1.4 (86a8ad7, 2024-10-11)"
   xmlns:inkscape="http://www.inkscape.org/namespaces/inkscape"
   xmlns:sodipodi="http://sodipodi.sourceforge.net/DTD/sodipodi-0.dtd"
   xmlns="http://www.w3.org/2000/svg"
   xmlns:svg="http://www.w3.org/2000/svg"><defs
   id="defs1" /><sodipodi:namedview
   id="namedview1"
   pagecolor="#ffffff"
   bordercolor="#000000"
   borderopacity="0.25"
   inkscape:showpageshadow="2"
   inkscape:pageopacity="0.0"
   inkscape:pagecheckerboard="true"
   inkscape:deskcolor="#d1d1d1"
   inkscape:zoom="2.1790674"
   inkscape:cx="97.977694"
   inkscape:cy="185.17096"
   inkscape:window-width="3840"
   inkscape:window-height="2066"
   inkscape:window-x="-11"
   inkscape:window-y="-11"
   inkscape:window-maximized="1"
   inkscape:current-layer="svg1" />
    <path
   id="path1"
   style="display:inline;fill:#ffffff;fill-opacity:1;stroke-width:0.877666"
   inkscape:label="WiiOutline"
   d="m 369.58398,61.681641 c -11.04086,0.134625 -21.94515,6.478497 -27.02858,16.364499 -4.46899,8.496147 -4.16852,19.339566 0.96329,27.48511 4.96927,8.17796 13.98908,13.6371 23.49365,14.49914 10.38859,1.08873 21.36845,-2.87973 28.16154,-10.9241 5.99492,-7.04457 8.23033,-17.154837 5.52486,-26.030383 -2.24792,-7.711532 -7.91586,-14.283291 -15.11249,-17.812262 -4.93247,-2.489396 -10.48331,-3.699606 -16.00227,-3.582004 z m 89.89844,0 c -11.12487,0.134828 -22.10616,6.581181 -27.15261,16.581307 -4.31128,8.389283 -4.03143,19.009048 0.95216,27.054662 4.9792,8.36063 14.18149,13.92867 23.85049,14.73228 10.21673,1.00184 20.98459,-2.86241 27.72886,-10.71194 5.78919,-6.66967 8.21639,-16.155008 6.11379,-24.759062 -1.76362,-7.678617 -6.90522,-14.452146 -13.73399,-18.352781 -5.33892,-3.138671 -11.57517,-4.685052 -17.7587,-4.544466 z M 175.79297,71.816406 c -7.79335,0.02813 -15.79861,2.354597 -21.75156,7.531078 -5.80088,4.990346 -9.4048,12.048496 -11.5478,19.29335 -6.32457,22.037656 -12.24034,44.267046 -18.26716,66.418126 -3.72735,13.80206 -7.44788,27.60596 -11.15418,41.4137 -11.66511,-44.37312 -23.332296,-88.74569 -34.996098,-133.119144 -19.069011,0 -38.138021,0 -57.207031,0 16.253727,56.730254 32.364446,113.504454 49.101131,170.093304 1.632596,5.34511 3.155241,10.73661 5.180359,15.95008 3.815002,9.12889 10.526485,17.30812 19.492381,21.73589 10.141488,4.97314 22.548738,5.06339 32.758838,0.23448 6.02209,-2.87637 11.02141,-7.63066 14.60829,-13.22275 3.61642,-5.5089 5.8961,-11.82097 7.62625,-18.1031 5.62264,-18.86655 10.88042,-37.83575 16.27577,-56.76907 3.48997,-12.33506 6.94228,-24.6805 10.40815,-37.02235 9.16498,32.56204 18.21939,65.15362 27.79801,97.59546 2.38564,7.66214 6.01535,15.13485 11.76763,20.84518 4.48799,4.52817 10.24619,7.7983 16.48186,9.17473 10.07997,2.4026 21.21265,0.70673 29.81088,-5.18915 7.64423,-5.16085 13.11892,-13.08039 16.24164,-21.68132 1.5734,-4.2524 2.69009,-8.65461 4.06023,-12.97434 6.95542,-23.16065 13.5848,-46.41867 20.3054,-69.64924 9.70471,-33.65627 19.32263,-67.33767 28.94451,-101.017804 -19.06706,0 -38.13412,0 -57.20117,0 -11.6556,44.372084 -23.31402,88.743434 -34.97071,133.115234 -9.54627,-35.40876 -18.98339,-70.84886 -28.93324,-106.14617 -1.65662,-5.748497 -3.84943,-11.466912 -7.5749,-16.217325 -3.93932,-5.1934 -9.55827,-9.123723 -15.86412,-10.839492 -3.69574,-1.060016 -7.55463,-1.48772 -11.39336,-1.449357 z m 167.9082,63.693364 c 0,49.29557 0,98.59114 0,147.88671 18.07227,0 36.14453,0 54.2168,0 0,-49.6289 0,-99.25781 0,-148.88671 -18.07227,0 -36.14453,0 -54.2168,0 0,0.33333 0,0.66666 0,1 z m 89.86914,0 c 0,49.29557 0,98.59114 0,147.88671 18.07617,0 36.15235,0 54.22852,0 0,-49.6289 0,-99.25781 0,-148.88671 -18.07617,0 -36.15235,0 -54.22852,0 0,0.33333 0,0.66666 0,1 z m 57.67578,120.07226 c 0,3.92513 0,7.85026 0,11.77539 1.99154,0 3.98308,0 5.97461,0 0,5.34636 0,10.69271 0,16.03906 13.42644,0 26.85287,0 40.2793,0 0,-9.60481 0,-19.20963 0,-28.81445 -4.45117,0 -8.90234,0 -13.35352,0 -0.34831,1.10351 -0.69661,2.20703 -1.04492,3.31055 -0.34247,-1.10351 -0.68388,-2.20735 -1.02734,-3.31055 -10.27604,0 -20.55208,0 -30.82813,0 0,0.33333 0,0.66667 0,1 z" />
<path
   d="m 344.4017,90.952769 c 0,13.385651 11.6093,24.250511 25.89979,24.250511 14.85434,0 26.51798,-10.64003 26.51798,-24.250511 -8.9e-4,-13.613945 -11.66364,-24.279051 -26.51798,-24.279051 -14.29049,0 -25.89979,10.880432 -25.89979,24.279051 m 4.29882,48.557241 h 44.21652 V 278.39593 H 348.70052 Z M 434.2867,90.952769 c 0,13.385651 11.63246,24.250511 25.91404,24.250511 14.86325,0 26.50372,-10.64003 26.50372,-24.250511 0,-13.613945 -11.64136,-24.279051 -26.50372,-24.279051 -14.28248,0 -25.91404,10.880432 -25.91404,24.279051 m 4.28456,48.557241 h 44.22811 V 278.39593 H 438.57126 Z M 278.38735,78.354054 239.61427,225.92911 c 0,0 -29.64546,-110.77339 -34.46804,-126.485246 -4.82259,-15.737799 -14.74924,-22.632545 -28.82505,-22.632545 -14.08205,0 -24.02473,6.894746 -28.84643,22.632545 -4.80477,15.711856 -34.45734,126.485246 -34.45734,126.485246 L 74.218502,78.354054 H 27.500716 c 0,0 44.868564,157.455816 50.968501,175.688446 4.745088,14.23312 15.983827,25.87022 32.644633,25.87022 19.04805,0 27.95656,-13.48336 32.08168,-25.87022 4.08147,-12.3142 33.12565,-116.30871 33.12565,-116.30871 0,0 29.0424,103.99451 33.11407,116.30871 4.12334,12.38686 13.03185,25.87022 32.07544,25.87022 16.67417,0 27.89243,-11.6371 32.66692,-25.87022 6.08479,-18.23263 50.92484,-175.688446 50.92484,-175.688446 z M 496.24541,259.58131 h 15.17235 v 2.77675 h -5.9592 v 16.03787 h -3.23702 v -16.03787 h -5.97613 z m 20.4608,18.81463 h -2.96801 v -18.81463 h 4.65423 l 4.66937,15.05377 4.74598,-15.05377 h 4.69254 v 18.81463 h -3.07937 v -15.5467 l -4.81813,15.5467 h -3.16399 l -4.73262,-15.5467 z"
   style="fill:#8c8c8c;stroke-width:0.877666;fill-opacity:1"
   id="path2"
   inkscape:label="Wii" /></svg>
