<?xml version="1.0" encoding="UTF-8" standalone="no"?>
<!-- Generator: Adobe Illustrator 16.0.0, SVG Export Plug-In . SVG Version: 6.00 Build 0)  -->

<svg
   version="1.1"
   id="Layer_1"
   x="0px"
   y="0px"
   width="964.3468"
   height="333.0311"
   viewBox="0 0 964.3468 333.03109"
   enable-background="new 0 0 1000 325.027"
   xml:space="preserve"
   sodipodi:docname="winpopcap.svg"
   inkscape:version="1.4 (86a8ad7, 2024-10-11)"
   xmlns:inkscape="http://www.inkscape.org/namespaces/inkscape"
   xmlns:sodipodi="http://sodipodi.sourceforge.net/DTD/sodipodi-0.dtd"
   xmlns="http://www.w3.org/2000/svg"
   xmlns:svg="http://www.w3.org/2000/svg"><defs
   id="defs25" /><sodipodi:namedview
   id="namedview23"
   pagecolor="#ffffff"
   bordercolor="#666666"
   borderopacity="1.0"
   inkscape:pageshadow="2"
   inkscape:pageopacity="0.0"
   inkscape:pagecheckerboard="true"
   showgrid="false"
   inkscape:zoom="1.3816867"
   inkscape:cx="622.42767"
   inkscape:cy="140.76998"
   inkscape:window-width="3840"
   inkscape:window-height="2066"
   inkscape:window-x="-11"
   inkscape:window-y="-11"
   inkscape:window-maximized="1"
   inkscape:current-layer="Layer_1"
   inkscape:showpageshadow="2"
   inkscape:deskcolor="#d1d1d1" />
<path
   id="path2"
   style="display:none;fill:#ffffff"
   d="m 32.130859,0.01268041 c -1.940668,-0.091151 -4.690766,0.2783394 -7.822265,2.11914059 -3.139461,1.8454812 -6.320313,5.3369683 -7.875,10.714844 -0.469063,1.616863 -0.78711,3.238 -0.78711,4.929688 0,2.040677 0.492291,4.283077 1.91211,6.201171 l 0.06836,0.0918 0.07227,0.08789 c 2.891015,3.472845 6.856751,3.781199 7.990234,3.839844 0.299121,0.05131 0.621953,0.118503 1.199219,0.05273 l -0.455078,0.02539 57.804687,0.02344 L 0.7128956,256.44432 c -0.082676,0.2243 -0.1891434,0.3945 0.080078,-0.1543 l 0.140625,-0.26172 c -0.4381863,0.74778 -0.8700019,2.02454 -0.9296876,3.28321 L 0,259.40721 v 0.0937 c 0,1.15822 0.2468847,2.13864 0.796875,3.20117 l 0.085937,0.16602 0.1015625,0.1582 c 1.1668796,1.8146 3.7291365,3.9454 8.0761719,5.18555 4.3470356,1.24014 10.7683136,2.02918 21.2617186,2.07812 h 0.0098 0.341797 c 22.916657,0 31.220131,-5.36774 34.28711,-8.62304 h 0.966796 l 0.597657,-1.56446 c 0.11478,-0.13823 0.197271,-0.50278 0.298828,-0.78125 l 19.43164,-50.84375 -0.224609,0.0156 c 0.04024,-0.005 0.07664,-0.01 0.105469,-0.0117 0.129139,-0.009 0.322484,-0.0231 0.570312,-0.041 0.49566,-0.0358 1.209705,-0.0888 2.113281,-0.16015 1.807153,-0.14272 4.375888,-0.36106 7.523438,-0.67774 6.295106,-0.63335 14.903626,-1.65808 24.390626,-3.25586 18.97397,-3.19554 41.37635,-8.49747 56.28906,-18.2207 l 0.008,-0.004 0.006,-0.006 c 13.62114,-8.96991 23.04577,-21.58871 29.20117,-32.12304 3.0777,-5.26717 5.33664,-10.02469 6.86914,-13.58203 1.52216,-3.53333 2.40289,-6.09513 2.46094,-6.25782 l 0.0137,-0.0391 c 1.11658,-2.99275 25.68832,-70.54871 27.35938,-75.691403 l -3.80274,-1.236328 3.80664,1.226562 c 1.99491,-6.193948 3.03321,-12.184011 3.03321,-17.886718 0,-8.381392 -2.31524,-16.188285 -6.99024,-22.59961 v -0.002 l -0.002,-0.002 C 230.10613,5.7656513 214.13437,0.03209811 194.21484,0.04588351 h -0.004 L 32.496094,0.02439911 c -0.111219,-0.00558 -0.226725,-0.00921 -0.365235,-0.0117187 z M 663.01367,1.116196 C 605.31956,1.063297 560.52464,33.089487 541.93359,87.864243 c -1.6e-4,4.83e-4 -0.002,0.0067 -0.002,0.0078 -10e-4,0.0034 -0.003,0.0064 -0.004,0.0098 -8.7e-4,0.0025 -8.8e-4,10e-4 -0.002,0.0039 -0.0107,0.03025 -0.0296,0.08402 -0.0547,0.154296 -0.0503,0.140546 -0.12533,0.352404 -0.22461,0.628907 -0.19854,0.553005 -0.49164,1.365486 -0.86328,2.398437 -0.74328,2.065903 -1.80507,5.016364 -3.08008,8.556641 -2.54998,7.080556 -5.95005,16.520826 -9.35351,25.968746 -3.40346,9.44793 -6.8109,18.90217 -9.37109,26.01367 -1.2801,3.55575 -2.34818,6.52672 -3.09961,8.61719 -0.37572,1.04523 -0.67261,1.8692 -0.87696,2.43945 -0.10217,0.28512 -0.18091,0.50656 -0.23633,0.66211 -0.0277,0.0778 -0.0492,0.13866 -0.0664,0.1875 -0.008,0.0228 -0.0544,0.18042 -0.0469,0.14453 -5.08062,12.98827 -7.72461,25.43259 -7.72461,36.95898 0,12.68428 3.26506,24.28861 9.87891,33.97071 11.65425,17.06001 32.66985,26.39062 56.91016,26.39062 h 0.002 0.002 c 26.42405,-0.025 54.73645,-7.66454 73.81641,-20.19531 5.78349,12.81568 19.72384,20.14952 37.28125,20.08398 18.93878,-0.0195 37.93131,-6.53369 52.60937,-17.83203 0.91042,3.36735 2.45021,6.49568 4.94727,9.05078 l 0.006,0.008 0.006,0.006 c 4.73705,4.8031 11.61221,7.04492 19.00976,7.04492 h 0.006 0.004 c 8.72535,-0.0214 19.81183,-2.04139 30.11133,-6.3457 l -22.5625,60.98632 c -0.0116,0.0319 -0.0331,0.0912 -0.0605,0.16602 l -0.15625,0.41992 v 0.004 c -0.0281,0.0758 -0.0442,0.12091 -0.0762,0.20703 -0.19478,0.52494 -0.4556,1.22597 -0.7168,1.92578 -0.2612,0.69981 -0.52321,1.39885 -0.71875,1.91797 -0.0978,0.25956 -0.18073,0.47513 -0.23437,0.61523 -0.0211,0.0552 -0.0317,0.0854 -0.041,0.10938 0.008,-0.0201 0.0168,-0.0433 0.0605,-0.13672 0.0219,-0.0467 0.0426,-0.0995 0.13867,-0.26953 0.0111,-0.0196 0.0416,-0.0621 0.0684,-0.10352 -0.45407,0.74321 -0.92889,2.0094 -0.96094,3.51563 v 0.01 0.01 c -0.0197,1.20641 0.22102,2.50888 1.05274,3.8789 l 0.041,0.0664 0.043,0.0644 c 1.1009,1.66465 3.40106,3.62753 7.17774,4.8418 3.77667,1.21427 9.1806,1.98588 17.65039,2.00391 h 0.008 0.006 c 23.64725,-0.0363 29.77033,-7.65834 31.13476,-11.20703 l 0.0117,-0.0293 23.90821,-65.10156 c 6.25344,2.09699 14.99152,4.13739 24.30859,4.15429 0.003,1e-5 0.005,0 0.008,0 13.59775,0.0831 28.86367,-2.31146 43.31641,-12.85351 14.45732,-10.54539 27.89762,-28.97334 38.8789,-60.18946 l 0.004,-0.0137 c 3.78016,-10.62937 6.74663,-19.58249 8.8457,-28.29492 v -0.004 l 0.002,-0.006 c 1.10829,-4.65291 1.69105,-9.08006 1.6914,-13.28907 v -0.002 c 0.01,-7.90471 -2.15711,-15.10074 -6.65625,-20.78711 v -0.002 h -0.002 C 950.50987,116.32335 938.3307,111.9897 924.18461,111.9897 h -0.004 -0.002 c -17.37983,0.0252 -36.06481,5.15038 -48.625,13.62305 0.0155,-0.25882 0.0459,-0.5828 0.0469,-0.57617 0.0408,-1.65788 -0.4848,-3.48239 -1.95313,-5.19727 l -0.006,-0.008 -0.008,-0.006 c -2.39984,-2.77646 -6.88632,-4.64102 -15.0664,-4.65234 -6.72023,-0.0414 -11.35474,1.43803 -14.39844,3.28906 -1.52281,0.92609 -2.63664,1.93319 -3.41406,2.83789 -0.38871,0.45235 -0.69372,0.87635 -0.9375,1.27344 -0.24379,0.39708 -0.39683,0.58304 -0.63282,1.35546 l 0.14258,-0.39257 c -0.23554,0.55603 -0.0741,0.18365 -0.0937,0.23632 -0.0197,0.0527 -0.0443,0.124 -0.0781,0.21485 -0.0676,0.1817 -0.16546,0.44256 -0.29102,0.78125 -0.25112,0.67738 -0.61472,1.66135 -1.07617,2.9082 -0.9229,2.4937 -2.23645,6.04027 -3.80859,10.29102 -3.1443,8.50149 -7.32912,19.81928 -11.52344,31.15429 -4.19333,11.34189 -8.38637,22.69698 -11.55469,31.21875 l -0.002,0.006 -0.002,0.004 c -1.57112,4.25792 -2.88923,7.80144 -3.82421,10.31641 -0.47244,1.26277 -0.83816,2.28068 -1.06836,2.89062 l -0.0137,0.0391 -0.0137,0.0391 c -0.0729,0.20602 -0.12748,0.34471 -0.18164,0.48242 -2.47511,4.25229 -6.63215,7.93231 -11.08008,10.45508 -4.50968,2.5578 -9.3509,3.86173 -12.21679,3.83593 h -0.0176 -0.0176 c -1.18661,0 -2.0013,-0.22813 -2.31445,-0.35742 -0.32722,-0.18622 -0.55745,-0.32947 -0.67969,-0.48633 -0.1457,-0.18696 -0.37333,-0.48136 -0.39258,-1.65429 3.2e-4,-0.12057 0.10633,-0.41832 0.11524,-0.5586 l 0.16406,0.0195 0.62109,-3.24609 c 3.7e-4,-0.002 0.003,-0.01 0.004,-0.0117 0.0148,-0.0657 0.0561,-0.25142 0.11328,-0.41601 0.11758,-0.33861 0.32547,-0.91907 0.6582,-1.83789 0.66548,-1.83763 1.83449,-5.03466 3.85352,-10.5254 4.03805,-10.98146 11.47545,-31.14972 25.10937,-68.10351 l 1.98828,-5.38477 h -0.93359 c 0.0648,-0.66882 0.19259,-1.17185 0.20508,-1.94531 v -0.0332 -0.0312 c 0,-2.62364 -0.49336,-5.71895 -2.02344,-8.79688 l -0.006,-0.01 -0.006,-0.01 c -3.1288,-6.203 -9.40308,-10.08403 -17.13281,-12.15039 l -0.006,-0.002 c -4.23137,-1.14432 -8.01604,-1.65039 -11.40039,-1.65039 h -0.004 -0.004 c -7.67791,0.0147 -13.15339,2.7292 -16.52735,5.72656 -0.9774,0.86831 -1.46191,1.66988 -2.12304,2.50976 -2.38586,-1.72857 -5.20999,-3.1534 -8.37696,-4.34179 -4.90883,-1.84203 -10.50544,-3.04928 -15.95507,-3.11524 h -0.0117 -0.01 c -12.15791,-0.0796 -27.55504,2.01349 -42.4707,12.43164 -14.91566,10.41816 -29.13494,28.97274 -39.7207,60.94336 l -2.29493,6.74219 -4.26953,13.01758 c -11.91612,13.21846 -37.8651,22.33482 -53.94531,22.2793 h -0.01 -0.008 c -6.18017,0.008 -15.09201,-2.77086 -20.18164,-10.07227 l -0.006,-0.008 -0.006,-0.008 c -2.16683,-3.07513 -4.24889,-7.68208 -4.25781,-14.92579 v -0.002 -0.002 c 4.5e-4,-4.7028 0.91801,-10.51771 3.51758,-17.67578 v -0.004 l 49.53515,-136.910149 0.004,-0.0098 c 2.33015,-5.940204 5.89955,-10.115767 11.19141,-13.056641 5.29175,-2.940818 12.46555,-4.583996 21.79297,-4.623047 h 0.37109 c 2.41496,0.0172 6.48054,0.744461 10.0918,2.027344 3.61125,1.282883 6.78798,3.280297 7.82422,4.617187 l 0.0234,0.03125 0.0254,0.03125 c 0.65227,0.80804 0.71386,1.20114 0.7168,1.628907 -7.6e-4,0.06992 -0.015,0.210245 -0.0508,0.40625 -2.21038,9.964125 -9.87034,27.539979 -14.19727,36.798828 l -0.002,0.0078 -0.004,0.0078 c -0.70272,1.519888 -1.10975,3.19299 -1.11132,4.933594 -0.009,2.945781 1.16189,5.775223 3.1582,7.935546 10e-4,0.0011 9e-4,0.0028 0.002,0.0039 2.44799,2.661911 6.26253,4.46875 10.7832,4.46875 2.06633,0 4.26143,-0.373996 6.50977,-1.183594 h 0.002 l 26.22266,-9.466797 0.0801,-0.0332 c 3.81376,-1.568487 6.76699,-3.934708 8.64844,-6.601563 l 0.11132,-0.154296 0.0937,-0.164063 c 6.30191,-11.01803 10.69723,-22.327127 12.99219,-33.671875 v -0.0039 c 0.35489,-1.733895 0.54344,-3.486611 0.53516,-5.244141 0.0168,-5.624234 -2.01052,-10.999521 -5.64453,-15.480469 l -0.004,-0.0039 -8.7e-4,-0.0032 C 712.81218,7.9665895 690.80057,1.5107226 665.04688,1.1337741 h -0.002 c -0.65419,-0.00899 -1.33519,-0.017542 -2.02734,-0.017578 z M 149.7793,28.68065 h 18.23437 c 7.20602,0.01623 11.00297,2.055205 12.71289,4.636718 l 0.004,0.0059 0.006,0.0059 c 0.95222,1.425985 1.47461,3.066184 1.47461,5.505859 v 0.002 c 7.9e-4,2.696266 -0.76507,6.303221 -2.53906,10.617187 l 3.69921,1.519531 -3.76171,-1.359375 -31.97657,88.49024 c -0.52924,1.45846 -11.90144,33.77407 -51.154294,38.97656 l 6.902344,-19.10547 0.004,-0.0117 c 9.44043,-25.90069 33.24186,-91.600519 46.39431,-129.28335 z m 313.45508,83.44336 c -17.38633,0.0339 -36.08012,5.15571 -48.62305,13.63867 0.0229,-0.25054 0.0651,-0.55391 0.0664,-0.64649 0.0194,-1.56947 -0.44511,-3.40892 -1.95507,-5.1582 l -0.0176,-0.0215 -0.0195,-0.0215 c -2.39257,-2.69228 -6.87611,-4.60547 -15.05469,-4.60547 h -0.004 -0.004 c -5.64005,0.01 -10.47868,0.8574 -14.29493,3.08789 l -0.004,0.004 -0.48633,0.28516 -0.42578,0.37695 -0.01,0.01 c 0,0 -0.18237,0.16236 -0.38281,0.33203 l 0.0937,-0.0762 c -0.42581,0.33872 -0.16084,0.13416 -0.21094,0.17774 -0.0501,0.0436 -0.11533,0.0993 -0.1914,0.16602 -0.15214,0.13336 -0.35053,0.30979 -0.56055,0.49609 -0.42005,0.3726 -0.76085,0.65929 -1.18359,1.08203 l 0.20312,-0.18945 c -13.06589,11.3794 -20.97738,14.59961 -28.66992,14.59961 h -0.0879 c -0.0195,0 -0.18498,0.014 -0.25586,0.0156 -4.39438,-0.081 -6.28225,-1.50581 -8.45703,-4.43555 l 0.0156,0.0215 c -10.7397,-14.67849 -29.97808,-18.82306 -46.88086,-18.8418 h -0.002 -0.77344 -0.004 c -34.58651,0.0544 -64.8904,11.50248 -75.78711,32.25196 l -0.006,0.0117 -0.008,0.0117 c -11.38406,22.0164 -28.73814,67.18395 -29.65625,69.59766 -0.001,0.003 -0.003,0.006 -0.004,0.01 -1.80809,4.44583 -2.78125,8.9604 -2.78125,13.38868 0,5.61788 1.61832,11.03433 4.77344,15.70312 l 0.002,0.002 0.002,0.002 c 8.31837,12.28016 24.98538,18.16406 44.97657,18.16406 h 0.72851 0.006 c 17.28998,-0.0267 34.13332,-2.91284 48.1543,-8.79688 14.02098,-5.88401 25.36946,-14.86641 30.8125,-27.24609 l 0.004,-0.0117 0.004,-0.01 c 7.73884,-17.87313 18.92719,-48.64645 23.22656,-60.02344 0.42314,0.0105 0.84574,0.0547 1.26953,0.0547 h 0.008 0.006 c 8.6354,-0.0282 16.93831,-2.21205 24.11132,-5.38672 -5.92381,15.99767 -15.40099,41.6148 -26.41601,71.41406 -8.10813,21.90235 -16.20765,43.80431 -22.30469,60.26172 v 0.002 c -3.04105,8.22113 -5.58528,15.09726 -7.36523,19.89844 l -0.002,0.008 -0.002,0.008 c -0.8788,2.40053 -1.58344,4.2877 -2.06836,5.57421 -0.22295,0.59108 -0.40748,1.04873 -0.58398,1.57813 -0.0186,0.0534 -0.0193,0.0501 -0.0879,0.22266 l -2.17969,5.47851 h 2.04883 c 0.1638,0.44349 0.30544,0.88645 0.58007,1.33399 l 0.0274,0.0469 0.0293,0.0449 c 1.10186,1.69046 3.40303,3.6428 7.17773,4.85547 3.7747,1.21267 9.17861,1.98392 17.64062,2.00195 h 0.008 0.006 c 23.65488,-0.0363 29.7655,-7.53517 31.15429,-11.22265 l 0.006,-0.0156 23.82032,-64.79101 c 6.25722,2.09943 14.98607,4.12656 24.28515,4.14258 0.003,0 0.005,0 0.008,0 13.59782,0.0797 28.86406,-2.31527 43.31836,-12.85743 14.45783,-10.54471 27.89783,-28.97126 38.875,-60.18164 v -0.002 c 3.78856,-10.63493 6.77787,-19.57672 8.86133,-28.31836 v -0.002 c 1.1092,-4.65203 1.6813,-9.07354 1.68164,-13.26758 v -0.002 c 0.008,-7.91337 -2.14679,-15.11379 -6.64258,-20.81641 l -0.004,-0.006 -0.006,-0.006 c -7.18059,-9.04304 -19.36054,-13.40234 -33.51953,-13.40234 v 4 z m -176.14454,26.87695 c 3.06496,0.004 4.64659,1.09032 5.20508,1.94141 l 0.002,0.006 0.004,0.004 c 0.36639,0.55494 0.49219,0.86336 0.49219,1.98633 v 0.006 0.008 c 0.004,1.16609 -0.41428,3.33066 -1.33203,6.0625 l -28.02735,73.49219 -0.0976,0.22656 -0.0664,0.21485 c -1.3,4.25172 -3.27454,7.02864 -6.06641,8.94335 -2.7875,1.91176 -6.6101,3.02648 -11.86914,3.07813 -3.04127,-0.005 -4.65612,-1.10543 -5.20507,-1.94531 l -0.006,-0.006 -0.004,-0.006 c -0.39019,-0.59186 -0.59818,-1.17918 -0.61133,-2.34961 0.004,-1.21838 0.36234,-3.03795 1.30664,-5.27734 l 0.0274,-0.0664 28.19531,-74.05859 0.0391,-0.12305 c 1.33283,-4.32016 3.32292,-7.12856 6.11914,-9.05274 2.79189,-1.92118 6.61178,-3.03456 11.89453,-3.08398 z m 454.92969,0.2168 c 3.63848,0.052 5.95919,0.66378 7.35938,1.46289 1.03112,0.58848 1.67441,1.38436 2.23828,2.43164 l -27.83399,73.25 c -3.76984,10.37156 -10.81787,15.5639 -19.75,15.60351 -2.56837,-0.016 -2.97629,-0.42647 -3.4707,-1.08593 l -0.002,-0.002 c -0.3089,-0.41543 -0.63433,-1.10513 -0.64258,-2.83398 0,-1.55535 0.36707,-3.87869 1.25391,-6.77149 0.004,-0.0104 0.006,-0.014 0.01,-0.0254 0.0461,-0.12536 0.11471,-0.31301 0.20508,-0.55859 0.18074,-0.49117 0.44762,-1.21414 0.78711,-2.13672 0.67898,-1.84515 1.65044,-4.48651 2.81836,-7.66016 2.33567,-6.34682 5.45543,-14.82201 8.57812,-23.30468 v -0.002 c 3.12593,-8.48637 6.25261,-16.96094 8.59375,-23.33203 l 0.004,-0.01 c 1.17964,-3.18408 2.15918,-5.84677 2.84375,-7.72657 l -0.006,0.0215 c 0.33731,-0.91104 0.60126,-1.63051 0.7832,-2.12305 l 0.0117,-0.0332 c 0.0679,-0.17832 0.12789,-0.3483 0.19141,-0.5293 4.11592,-10.08361 10.35336,-14.64728 16.02734,-14.63476 z m 162.36133,2.83593 c 2.53425,0.0155 2.97842,0.43245 3.48242,1.08985 0.30514,0.42602 0.62722,1.12599 0.63477,2.8164 6.8e-4,1.53035 -0.37711,3.87884 -1.25196,6.79493 -10e-4,0.004 -8.2e-4,0.006 -0.002,0.01 -0.60365,1.64391 -6.62047,18.07231 -12.55273,34.28125 -2.97607,8.13162 -5.91946,16.17781 -8.125,22.20899 -1.10277,3.01558 -2.02046,5.52692 -2.66602,7.29492 -0.32278,0.884 -0.57799,1.58126 -0.75391,2.06445 -0.0879,0.2416 -0.15503,0.42966 -0.20312,0.5625 -0.0114,0.0315 -0.0181,0.0506 -0.0273,0.0762 -4.02096,9.82333 -10.29206,14.41818 -16.00196,14.39844 h -0.0156 -0.0176 c -4.39874,0.0215 -7.77346,-0.75868 -10.39648,-1.58203 l 28.08203,-74.25391 0.006,-0.0156 c 3.95831,-10.74451 10.67635,-15.70832 19.80859,-15.7461 z m -460.95117,0.13282 c 2.57414,0.0229 3.00665,0.45259 3.46875,1.07226 0.33893,0.45842 0.66211,1.13428 0.66211,2.88086 v 0.002 0.002 c 0.001,1.55295 -0.35214,3.84374 -1.23633,6.69922 v 0.002 c -0.81148,2.2077 -6.80093,18.57239 -12.67969,34.64063 -2.95528,8.07758 -5.86587,16.03453 -8.04297,21.98632 -1.08855,2.9759 -1.99349,5.45004 -2.6289,7.1875 -0.31771,0.86873 -0.56808,1.55447 -0.74024,2.02539 -0.1372,0.3753 -0.15546,0.4233 -0.22461,0.61524 -4.0505,9.91266 -10.31951,14.49558 -16.02539,14.48242 h -0.01 -0.01 c -4.40347,0.0111 -7.78498,-0.76914 -10.40625,-1.58984 l 28.09961,-74.25196 0.008,-0.0195 c 3.93973,-10.74724 10.64271,-15.68625 19.76563,-15.73437 z m 463.83984,10.51562 0.63477,0.10742 0.0664,0.0449 -0.70703,-0.11524 c -0.002,0.008 0.009,-0.0459 0.006,-0.0371 z m -0.0117,0.0664 1.06836,0.32031 2.22656,1.48047 -3.27343,-0.53125 -0.21289,-0.0879 c 0,-1.2452 0.24913,-1.40716 0.1914,-1.18164 z m -460.90039,0.0859 3.78711,1.17382 h -3.99609 z m 462.34375,0.0879 2.50977,0.42187 c -10e-4,0.005 -0.003,0.009 -0.004,0.0137 l -2.38867,-0.38672 z m -1.37695,1.11523 3.28906,0.55274 0.17188,0.11328 c -0.0157,0.0428 -0.22417,0.61155 -0.24414,0.66601 z m -209.9668,66 c 1.53127,0.56165 2.84233,1.0452 3.25,1.19336 l -3.27344,-1.09961 c 0.0103,-0.0339 0.013,-0.0598 0.0234,-0.0937 z m -630.447264,38.97852 0.0078,0.0176 c -0.06867,0.19839 -0.06969,0.19378 -0.02344,0.0723 0.0028,-0.007 0.01152,-0.083 0.01563,-0.0898 z m 238.525394,62.98437 c -2.5e-4,0.0137 0.004,0.0274 0.004,0.041 -6e-5,0.0112 -0.004,0.0181 -0.004,0.0293 z"
   inkscape:label="PopCapOutline" />

<path
   fill="#ed1c24"
   d="m 463.243,116.12457 c -17.945,0.035 -37.936,6.011 -49.223,14.913 l -5.968,4.749 2.568,-10.144 c 0.062,-0.314 0.062,-0.402 0.062,-0.563 0.009,-0.581 -0.192,-1.586 -0.987,-2.507 -1.397,-1.572 -4.481,-3.263 -12.065,-3.263 -5.198,0.009 -9.436,0.878 -12.283,2.542 l -0.148,0.087 -0.123,0.109 c 0,0 -0.218,0.196 -0.472,0.411 -0.044,0.035 -1.485,1.297 -1.808,1.62 -13.403,11.673 -22.428,15.582 -31.296,15.582 h -0.087 c -0.062,0 -0.166,0 -0.307,0.018 -5.529,-0.096 -8.963,-2.476 -11.619,-6.054 -9.576,-13.088 -27.424,-17.185 -43.657,-17.203 h -0.769 c -33.672,0.053 -62.555,11.646 -72.252,30.111 -11.131,21.527 -28.727,67.225 -29.504,69.269 -1.643,4.037 -2.49,8.047 -2.49,11.891 0,4.866 1.372,9.444 4.088,13.463 7.227,10.669 22.472,16.407 41.666,16.407 h 0.725 c 33.689,-0.052 65.508,-11.357 75.311,-33.653 8.012,-18.504 20.391,-52.704 24.166,-62.55 1.336,0.114 2.664,0.17 4.001,0.17 11.943,-0.039 23.79,-4.464 31.565,-9.968 -5.023,13.555 -17.552,47.422 -30.105,81.382 -8.108,21.902 -16.207,43.806 -22.305,60.266 -3.041,8.221 -5.584,15.097 -7.365,19.901 -0.883,2.412 -1.59,4.309 -2.08,5.609 -0.244,0.647 -0.437,1.137 -0.551,1.485 -0.061,0.175 -0.113,0.297 -0.148,0.385 h 0.01 c -0.088,0.175 -0.358,0.715 -0.358,1.502 -0.009,0.507 0.13,1.154 0.489,1.739 1.258,1.93 5.049,5.006 21.475,5.041 22.794,-0.035 26.952,-7.4 27.416,-8.632 l 25.178,-68.487 c 5.584,2.28 16.059,5.216 26.691,5.233 26.262,0.158 56.814,-8.938 78.42,-70.382 3.774,-10.594 6.711,-19.405 8.737,-27.906 1.049,-4.399 1.573,-8.514 1.573,-12.345 0.008,-7.203 -1.906,-13.419 -5.784,-18.338 -6.188,-7.793 -17.047,-11.89 -30.387,-11.89 m -167.998,34.19 -28.105,73.699 -0.045,0.104 c -3.005,9.828 -10.091,14.747 -21.745,14.854 -4.036,0 -7.085,-1.486 -8.57,-3.758 -0.83,-1.259 -1.259,-2.727 -1.276,-4.525 0,-1.939 0.524,-4.247 1.625,-6.858 l 28.124,-73.873 c 3.066,-9.938 10.126,-14.856 21.824,-14.958 4.054,0 7.077,1.486 8.562,3.749 0.787,1.192 1.154,2.49 1.154,4.189 0.007,1.948 -0.552,4.42 -1.548,7.377 m 154.901,3.714 v 0.009 c -1.494,4.063 -24.35,66.542 -24.428,66.761 -4.447,10.895 -11.943,17.002 -19.745,16.984 -7.164,0.018 -12.869,-1.729 -15.604,-3.18 l 29.539,-78.059 c 4.359,-11.891 12.808,-18.316 23.536,-18.359 3.354,0.026 5.399,0.987 6.665,2.686 0.927,1.25 1.451,2.922 1.451,5.269 0.002,2.118 -0.444,4.757 -1.414,7.889 M 239.138,57.186576 c 1.888,-5.862 2.84,-11.445 2.84,-16.661 0,-7.657 -2.08,-14.564 -6.221,-20.243 C 227.876,9.4925751 213.374,4.0325751 194.214,4.0465751 l -161.751,-0.023 c -0.131,-0.009 -0.288,-0.017 -0.507,-0.017 -2.009,-0.097 -9.086,0.978 -11.68,9.9509999 -0.402,1.385001 -0.629,2.638001 -0.629,3.818001 0,1.415 0.332,2.748 1.127,3.822 1.913,2.298 4.578,2.424 5.408,2.46 0.088,0.017 0.175,0.026 0.254,0.017 l 63.524,0.026 L 4.471,257.81557 c -0.035,0.096 -0.061,0.183 -0.087,0.236 -0.184,0.314 -0.35,0.733 -0.384,1.45 0,0.402 0.114,0.908 0.349,1.362 1.416,2.202 5.408,5.33 25.992,5.426 h 0.332 c 25.642,0 31.426,-6.893 32.326,-8.256 0.088,-0.105 0.149,-0.21 0.157,-0.279 l -0.017,-0.009 c 0.009,-0.026 0.026,-0.061 0.026,-0.078 h 0.009 l 20.261,-53.016 2.167,-0.14 c 0.726,-0.097 61.445,-3.616 89.236,-21.736 25.765,-16.967 36.432,-48.493 36.983,-50.022 0.277,-0.742 26.285,-72.390994 27.317,-75.566994 m -55.766,-6.212 -31.977,88.489994 c -0.49,1.35 -13.096,36.251 -54.63,41.625 l -6.326,0.935 9.183,-25.419 c 9.619,-26.389 34.387,-94.723994 47.335,-131.923994 h 21.065 c 7.993,0.018 13.366,2.389 16.04,6.426 1.415,2.119 2.149,4.652 2.149,7.728 10e-4,3.42 -0.926,7.487 -2.839,12.139 M 954.55,127.88757 c -6.186,-7.828 -17.036,-11.899 -30.369,-11.899 -17.945,0.026 -37.935,6.011 -49.249,14.914 -0.052,0.043 -2.917,2.499 -6.046,5.512 l 2.674,-10.916 c 0.061,-0.375 0.044,-0.393 0.044,-0.546 0.017,-0.59 -0.193,-1.573 -0.997,-2.512 -1.37,-1.585 -4.454,-3.259 -12.055,-3.268 -12.276,-0.079 -15.36,5.325 -15.543,5.924 -0.061,0.144 -8.413,22.742 -16.802,45.413 -4.193,11.341 -8.387,22.697 -11.558,31.226 -1.573,4.263 -2.892,7.811 -3.827,10.326 -0.464,1.24 -0.821,2.236 -1.075,2.909 -0.121,0.342 -0.227,0.611 -0.297,0.786 -0.026,0.078 -0.044,0.114 -0.061,0.167 -5.854,10.292 -19.037,16.556 -26.926,16.485 -1.678,0 -3.066,-0.279 -4.055,-0.726 -1.18,-0.629 -3.294,-1.877 -3.338,-5.748 0,-1.311 0.263,-2.953 0.988,-4.971 l 0.069,0.008 c 0.087,-0.454 2.568,-7.216 29.836,-81.124 h -0.009 c 0.323,-0.813 0.97,-2.853 1.021,-6.011 0,-2.119 -0.401,-4.591 -1.606,-7.015 -2.464,-4.885 -7.54,-8.204 -14.608,-10.091 -3.94,-1.066 -7.373,-1.512 -10.361,-1.512 -13.561,0.026 -17.526,9.161 -17.77,10.174 -0.018,0.062 -0.054,0.148 -0.089,0.249 -0.113,-0.162 -0.235,-0.324 -0.366,-0.485 -3.905,-4.704 -15.063,-9.042 -24.813,-9.16 -23.379,-0.153 -57.575,7.837 -78.367,70.632 l -2.298,6.753 -4.518,13.777 c -0.009,0.043 -0.087,0.184 -0.096,0.184 -12.983,14.887 -39.744,24.13 -57.409,24.069 -7.329,0.009 -17.438,-3.136 -23.467,-11.785 -2.586,-3.67 -4.979,-9.191 -4.988,-17.229 0,-5.225 1.022,-11.515 3.757,-19.046 L 619.547,46.343576 c 5.242,-13.376 17.125,-20.152 36.712,-20.23 h 0.401 c 6.178,0.044 17.212,3.246 21.048,8.195 1.118,1.385 1.599,2.765 1.607,4.123 0,0.385 -0.045,0.795 -0.132,1.237 -2.393,10.842 -10.117,28.315 -14.494,37.681 -0.479,1.036 -0.743,2.154 -0.743,3.264 -0.007,1.9 0.734,3.74 2.098,5.215 1.651,1.8 4.386,3.185 7.846,3.185 1.59,0 3.311,-0.284 5.155,-0.948 l 26.139,-9.436 c 2.857,-1.175 5.836,-3.696 6.902,-5.207 6.116,-10.693 10.346,-21.606 12.546,-32.487 0.306,-1.494 0.463,-2.979 0.455,-4.443 0.018,-4.687 -1.625,-9.108 -4.753,-12.965 -9.231,-11.326001 -30.271,-18.0270009 -55.345,-18.3940009 -0.655,-0.009 -1.318,-0.018 -1.975,-0.018 -56.245,-0.053 -99.178,30.6430009 -117.298,84.0510009 0,0.04 -27.188,75.462994 -27.267,75.742994 -4.989,12.693 -7.522,24.732 -7.522,35.706 0,12.005 3.058,22.75 9.182,31.715 10.773,15.77 30.387,24.646 53.608,24.646 27.521,-0.026 57.714,-8.746 75.59,-22.164 0.078,-0.079 0.157,-0.132 0.236,-0.192 0.034,0.113 0.061,0.228 0.086,0.349 3.704,13.918 16.688,21.965 35.174,21.896 20.296,-0.018 40.871,-7.935 55.278,-21.249 0.122,-0.113 0.245,-0.228 0.358,-0.349 0,0.192 -0.01,0.366 -0.01,0.55 -0.008,5.373 1.45,10.038 4.806,13.472 3.801,3.854 9.574,5.854 16.162,5.854 10.624,-0.026 25.774,-3.372 37.385,-10.457 l -26.044,70.399 c 0,0.018 -2.088,5.626 -2.105,5.626 -0.131,0.21 -0.358,0.683 -0.376,1.529 -0.008,0.49 0.113,1.145 0.473,1.738 1.283,1.94 5.059,5.016 21.501,5.051 22.784,-0.035 26.935,-7.417 27.406,-8.642 l 25.259,-68.783 c 5.581,2.271 16.065,5.225 26.716,5.243 26.262,0.165 56.806,-8.931 78.42,-70.384 3.766,-10.589 6.684,-19.417 8.729,-27.905 1.049,-4.404 1.582,-8.527 1.582,-12.367 0.009,-7.19 -1.914,-13.402 -5.793,-18.304 m -226.953,89.697 v 0 0.017 l -0.018,0.053 c -4.202,11.638 -12.931,18.276 -23.554,18.313 -3.347,-0.018 -5.382,-0.979 -6.665,-2.691 -0.919,-1.231 -1.435,-2.901 -1.443,-5.233 0,-2.142 0.464,-4.814 1.443,-7.993 -0.019,0.052 6.211,-16.88 12.457,-33.847 3.128,-8.492 6.257,-16.972 8.597,-23.34 1.18,-3.185 2.159,-5.845 2.84,-7.715 0.341,-0.921 0.611,-1.655 0.795,-2.153 0.096,-0.253 0.167,-0.441 0.21,-0.572 l 0.018,-0.057 c 4.508,-11.065 11.986,-17.177 19.771,-17.15 8.125,0.109 12.065,2.639 13.934,7.671 z m 183.479,-63.67 -0.018,0.044 c 0.009,-0.009 0.009,-0.009 0.009,-0.009 0,0.018 -0.009,0.035 -0.018,0.061 0,0 0,0 0,-0.009 l -0.009,0.027 c -1.118,3.044 -24.323,66.429 -24.411,66.718 -4.42,10.816 -11.917,16.932 -19.728,16.905 -7.163,0.035 -12.859,-1.722 -15.604,-3.172 l 29.521,-78.063 c 4.377,-11.881 12.834,-18.329 23.572,-18.364 3.354,0.018 5.39,0.992 6.684,2.691 0.899,1.227 1.415,2.892 1.424,5.207 0.002,2.128 -0.471,4.797 -1.422,7.964"
   id="path1"
   inkscape:label="PopCap" /></svg>
