<?xml version="1.0" encoding="UTF-8" standalone="no"?>
<svg
   height="179.47627"
   viewBox="0 0 1231.8273 280.80517"
   width="787.32141"
   version="1.1"
   id="svg5"
   sodipodi:docname="xash3d_fwgs.svg"
   inkscape:version="1.4 (86a8ad7, 2024-10-11)"
   xmlns:inkscape="http://www.inkscape.org/namespaces/inkscape"
   xmlns:sodipodi="http://sodipodi.sourceforge.net/DTD/sodipodi-0.dtd"
   xmlns="http://www.w3.org/2000/svg"
   xmlns:svg="http://www.w3.org/2000/svg">
  <defs
     id="defs5" />
  <sodipodi:namedview
     id="namedview5"
     pagecolor="#ffffff"
     bordercolor="#000000"
     borderopacity="0.25"
     inkscape:showpageshadow="2"
     inkscape:pageopacity="0.0"
     inkscape:pagecheckerboard="true"
     inkscape:deskcolor="#d1d1d1"
     inkscape:zoom="2.294868"
     inkscape:cx="402.20178"
     inkscape:cy="102.62028"
     inkscape:window-width="3840"
     inkscape:window-height="2066"
     inkscape:window-x="-11"
     inkscape:window-y="-11"
     inkscape:window-maximized="1"
     inkscape:current-layer="g2" />
  <g
     id="g2"
     inkscape:label="LogoOutline"
     style="display:none;fill:#ffffff;stroke:#ffffff;stroke-width:4.69374;stroke-dasharray:none;stroke-opacity:1"
     transform="translate(2.3468707,2.3468707)">
    <path
       id="path11"
       style="stroke:none"
       d="m 331.71857,104.26462 v 61.96289 h 14.90935 v -25.25942 h 13.00252 v 25.25942 h 14.66488 v -61.96289 h -14.66488 v 22.60391 h -13.00252 v -22.60391 z m 119.09452,0 v 14.18512 h 10.16366 l 1.83349,5.33852 -25.95614,42.92207 h 16.4067 l 15.65192,-25.25025 10.98568,28.50164 22.01719,-6.49973 -4.07036,-14.00177 -8.39128,2.79607 -18.43577,-47.99167 z m 127.22301,0.0795 V 166.145 h 43.06263 v -13.94065 h -28.31524 v -47.86028 z m 122.30313,0 v 61.88344 h 14.90935 V 141.0537 h 16.64812 v -13.94676 h -16.64812 v -8.65715 h 20.59318 v -14.10567 h -3.15361 z m 160.41839,0 V 166.145 h 43.06264 v -13.94065 h -28.31524 v -47.86028 z m 129.98853,0 -11.441,0.003 v 61.96289 h 14.67406 v -61.96595 z m 90.02145,0 v 61.88344 H 1095.68 V 141.0537 h 16.6451 V 127.10689 H 1095.68 v -8.65715 h 20.5901 v -14.10567 h -3.1536 z m 107.9835,0 v 61.88344 h 40.728 V 152.2838 h -25.9806 v -11.23015 h 21.6383 v -14.11178 h -21.6383 v -8.57463 h 24.9355 v -14.02317 z m -404.89016,22.68336 v 14.42654 h 31.55746 v -14.42654 z"
       inkscape:label="Half-Life" />
    <path
       id="path17"
       style="opacity:1;stroke:none;stroke-linecap:round;stroke-linejoin:round"
       d="M 138.05589,-2.3468707 C 60.630579,-2.3468718 -2.3468718,60.630579 -2.3468707,138.05589 c 0,77.42532 62.9774907,140.40277 140.4027607,140.40277 77.42528,0 140.40277,-62.97749 140.40277,-140.40277 0,-77.42527 -62.97745,-140.4027607 -140.40277,-140.4027607 z m 0,20.3395467 c 66.43342,0 120.06322,53.629793 120.06322,120.063214 0,66.43342 -53.6298,120.06322 -120.06322,120.06322 -66.433421,0 -120.063214,-53.6298 -120.063214,-120.06322 -1e-6,-66.433422 53.629792,-120.063215 120.063214,-120.063214 z"
       inkscape:label="Circle" />
    <path
       id="path15"
       style="stroke:none"
       d="m 88.747161,76.478039 v 23.389256 h 14.894069 l 4.67541,13.262265 -46.133733,89.82281 h 28.354966 l 29.268657,-53.80385 19.37391,58.95596 38.35666,-13.09725 -7.19645,-24.18682 -15.40746,5.50964 -33.74849,-99.852011 z"
       inkscape:label="A" />
    <path
       id="path13"
       style="stroke:none"
       d="m 178.51802,109.43202 c -4.92441,0.0768 -10.35602,1.52062 -14.02622,5.64104 -2.9497,3.24237 -3.87838,7.62298 -3.45307,11.63962 0.23855,3.38758 1.64356,7.05053 4.89542,9.19803 4.0274,2.81039 8.66262,2.95678 12.38219,3.50808 h 0.0153 l 0.0122,0.003 c 2.67961,0.36493 4.86471,0.64489 6.07497,1.81821 l 0.003,0.003 h 0.003 c 1.3807,1.33236 1.73017,3.98822 0.88924,5.87635 -0.74793,1.62176 -2.80293,2.69567 -5.01155,2.98554 -3.57991,0.44125 -7.29222,0.0916 -10.6862,-1.05732 -0.78244,-0.27551 -1.53654,-0.62642 -2.24909,-1.0512 l -1.55541,-0.92897 -7.1384,7.01617 2.23992,1.62875 c 4.56423,3.32196 10.09677,4.02349 15.02547,4.20481 5.09918,0.19303 10.71224,-0.62987 15.24855,-3.97868 h 0.003 c 3.22242,-2.38408 5.44659,-6.13136 5.59521,-10.30117 v -0.003 -0.003 c 0.10267,-3.23797 -0.0864,-7.13334 -2.45077,-10.39284 l -0.0153,-0.0275 -0.0214,-0.0244 c -2.75659,-3.58563 -7.05535,-4.6584 -10.57619,-5.22546 h -0.006 l -0.003,-0.003 c -2.79841,-0.43933 -5.4673,-0.64308 -7.92375,-1.14594 -1.95014,-0.46211 -3.71155,-2.01764 -3.96034,-3.73727 l -0.006,-0.0244 -0.003,-0.0306 c -0.38754,-2.28104 1.48737,-4.92247 3.78617,-5.65938 l 0.0183,-0.006 0.0183,-0.006 c 2.06589,-0.70037 4.61711,-0.51886 7.3737,-0.22614 1.60093,0.20306 3.07572,0.63286 4.23843,1.37512 l 1.57374,1.00231 7.02534,-6.90004 -2.42327,-1.5982 c -4.57156,-3.01511 -9.99564,-3.62322 -14.87574,-3.56614 -0.009,1.1e-4 -0.0211,-0.003 -0.0306,-0.003 l 0.0153,2.34687 c -0.001,1e-5 -0.002,-2e-5 -0.003,0 z m -142.621288,0.41253 14.1729,23.1998 0.595885,0.9748 -15.79554,25.49778 h 12.800835 l 9.017728,-16.63284 c 2.796097,5.13552 5.59064,10.2717 8.385174,15.40745 l 0.666169,1.22539 H 78.51016 l -2.212415,-3.57837 c -4.51543,-7.30632 -9.03203,-14.6157 -13.546455,-21.92246 4.194475,-6.86737 8.388395,-13.73234 12.583872,-20.59929 l 2.181856,-3.57226 H 64.783411 l -8.094871,15.34022 -8.091814,-15.34022 z m 166.135838,0 v 49.67238 h 11.28515 v -20.30899 h 15.19354 v 20.30899 h 11.24848 v -49.67238 h -11.24848 v 19.71616 h -15.19354 v -19.71616 z"
       inkscape:label="X_SH" />
  </g>
  <g
     id="g10"
     inkscape:label="Logo"
     transform="translate(2.3468707,2.3468707)">
    <g
       id="g9"
       inkscape:label="Half-Life">
      <path
         d="m 371.948,106.612 v 57.268 h -9.973 V 138.622 H 344.28 v 25.258 h -10.215 v -57.268 h 10.215 v 22.602 h 17.696 v -22.602 z m 109.362,60.486 -11.903,-30.886 -17.454,28.15 h -10.937 l 24.37,-40.298 -2.733,-7.96 h -9.492 v -9.492 h 16.246 l 18.663,48.581 8.201,-2.736 2.737,9.415 z M 590.436,154.55 h 28.314 v 9.249 h -38.367 v -57.108 h 10.053 z m 142.253,-47.859 h 0.805 v 9.413 h -20.593 v 13.349 h 16.648 v 9.253 h -16.648 v 25.174 h -10.214 v -57.19 z m 80.385,22.683 v 9.733 h -26.865 v -9.733 z m 60.083,25.176 h 28.316 v 9.249 h -38.369 v -57.108 h 10.053 z m 117.589,-47.859 h 0.885 v 57.271 h -9.978 v -57.27 z m 122.371,0 h 0.806 v 9.413 h -20.591 v 13.349 h 16.646 v 9.253 h -16.646 v 25.174 h -10.217 v -57.19 z m 114.017,47.939 v 9.25 h -36.035 v -57.19 h 34.99 v 9.33 h -24.935 v 13.27 h 21.636 v 9.415 h -21.636 v 15.925 z"
         id="path8"
         style="fill:#fb7e14;stroke-width:0.183"
         inkscape:label="Half-Life" />
      <circle
         cx="138.056"
         cy="138.056"
         r="130.233"
         style="opacity:0.98;fill:none;stroke:#fb7e14;stroke-width:15.6458;stroke-linecap:round;stroke-linejoin:round"
         id="circle8"
         inkscape:label="Circle" />
      <path
         d="m 168.797,173.865 5.847,19.65 -33.974,11.6 -20.33,-61.86 -31.197,57.352 H 66.025 l 44.84,-87.305 -5.563,-15.782 H 91.092 V 78.826 h 28.41 l 33.973,100.519 z"
         fill="#fb7e14"
         id="path9"
         inkscape:label="A" />
    </g>
    <path
       d="m 52.418,132.385 1.004,1.642 -14.336,23.144 h 7.187 l 10.41,-19.203 c 3.485,6.4 6.97,12.802 10.453,19.203 H 74.3 c -4.768,-7.715 -9.537,-15.43 -14.304,-23.146 4.445,-7.278 8.892,-14.555 13.338,-21.832 h -7.135 l -9.51,18.02 -9.508,-18.02 h -7.1 l 12.337,20.191 z m 126.137,-20.606 c -4.488,0.07 -9.25,1.41 -12.32,4.864 -2.409,2.642 -3.24,6.378 -2.86,9.868 0.194,2.87 1.388,5.832 3.868,7.459 3.332,2.342 7.525,2.549 11.418,3.126 2.57,0.35 5.427,0.554 7.393,2.46 2.228,2.15 2.636,5.772 1.397,8.535 -1.21,2.64 -4.1,3.983 -6.85,4.342 -3.93,0.486 -7.996,0.107 -11.75,-1.166 a 14.842,14.842 0 0 1 -2.685,-1.256 l -3.871,3.805 c 3.946,2.872 8.972,3.58 13.729,3.755 4.775,0.181 9.842,-0.62 13.769,-3.519 2.683,-1.985 4.526,-5.129 4.646,-8.496 0.097,-3.059 -0.148,-6.384 -2.002,-8.94 -2.148,-2.794 -5.76,-3.802 -9.088,-4.338 -2.688,-0.422 -5.414,-0.625 -8.08,-1.175 -2.758,-0.645 -5.342,-2.78 -5.763,-5.69 -0.614,-3.614 1.99,-7.2 5.384,-8.288 2.699,-0.915 5.617,-0.632 8.399,-0.336 1.832,0.23 3.66,0.727 5.228,1.728 l 3.621,-3.557 c -3.974,-2.621 -8.924,-3.238 -13.584,-3.181 z m 25.824,45.392 h 6.59 v -20.31 h 19.89 v 20.31 h 6.553 v -44.978 h -6.553 v 19.715 h -19.89 v -19.716 h -6.59 z"
       id="path10"
       style="fill:#666666;stroke-width:0.661"
       inkscape:label="X_SH" />
  </g>
</svg>
